<svg width="18" height="20" viewBox="0 0 18 20" fill="none" xmlns="http://www.w3.org/2000/svg">
<path d="M9.553 7H7.81609V5H9.553M9.553 15H7.81609V9H9.553M8.68455 0C7.54408 0 6.41477 0.258658 5.36111 0.761205C4.30746 1.26375 3.35008 2.00035 2.54364 2.92893C0.914976 4.8043 0 7.34784 0 10C0 12.6522 0.914976 15.1957 2.54364 17.0711C3.35008 17.9997 4.30746 18.7362 5.36111 19.2388C6.41477 19.7413 7.54408 20 8.68455 20C10.9878 20 13.1968 18.9464 14.8254 17.0711C16.4541 15.1957 17.3691 12.6522 17.3691 10C17.3691 8.68678 17.1445 7.38642 16.708 6.17317C16.2716 4.95991 15.6319 3.85752 14.8254 2.92893C14.019 2.00035 13.0616 1.26375 12.008 0.761205C10.9543 0.258658 9.82502 0 8.68455 0Z" fill="black"/>
</svg>
