<svg width="87" height="90" viewBox="0 0 87 90" fill="none" xmlns="http://www.w3.org/2000/svg">
<g clip-path="url(#clip0_469_979)">
<g filter="url(#filter0_d_469_979)">
<path d="M47.8407 11.6455C44.1366 11.5774 40.4572 12.277 37.0209 13.7029C34.8154 14.6047 32.7318 15.7954 30.8214 17.2456C28.6674 18.8985 26.7522 20.8583 25.1331 23.0664C24.2226 22.9516 23.306 22.897 22.3888 22.9026C10.0677 22.9485 0.122702 33.2967 0.170103 46.0281C0.184891 50.7906 1.63258 55.4315 4.31366 59.3112C6.99473 63.1909 10.7772 66.1183 15.1398 67.6901C16.1312 71.0318 18.3064 73.867 21.2329 75.6319C24.1595 77.3969 27.6231 77.9624 30.9351 77.2161C34.2472 76.4698 37.1652 74.4663 39.1091 71.6039C41.0529 68.7414 41.8803 65.2297 41.4267 61.7668L60.4229 51.8032L60.2781 51.515L62.0666 50.5572L58.3721 43.0689L56.5836 44.0008L56.4136 43.6832L37.4496 53.5912C34.9276 51.0435 31.5318 49.625 28.0008 49.644C25.4135 49.6584 22.8844 50.4365 20.7131 51.8863C18.5419 53.3361 16.8193 55.3969 15.7495 57.8246C13.2464 56.3074 11.2909 53.9912 10.1791 51.2267C9.06721 48.4621 8.85951 45.3996 9.58741 42.5029C10.1067 40.4189 11.094 38.49 12.4697 36.8717C13.8454 35.2533 15.5709 33.991 17.5071 33.1863C19.4434 32.3817 21.5361 32.0574 23.6165 32.2395C25.697 32.4216 27.7068 33.1051 29.4841 34.2347C30.2431 31.8235 31.4561 29.5904 33.0535 27.663C34.651 25.7357 36.6017 24.152 38.7938 23.0025C40.986 21.8531 43.3767 21.1604 45.8291 20.9643C48.2815 20.7681 50.7475 21.0723 53.0859 21.8594C56.4819 23.0206 59.4865 25.1554 61.7475 28.0135C64.0085 30.8717 65.4321 34.3347 65.8516 37.9965C67.3013 37.8494 68.7649 38.016 70.1486 38.4855C71.5324 38.955 72.8058 39.7172 73.8873 40.7232C74.9688 41.7293 75.8346 42.9569 76.4292 44.3276C77.0237 45.6983 77.334 47.1818 77.3401 48.6831C77.3507 51.3733 76.384 53.9699 74.6302 55.9621C72.8764 57.9543 70.4625 59.1977 67.8635 59.4478L60.1965 59.4763L60.2311 68.7917L68.2896 68.7617L68.6844 68.701C71.225 68.467 73.6959 67.7193 75.9558 66.5007C78.2157 65.2822 80.2204 63.6166 81.8553 61.5992C83.4903 59.5817 84.7235 57.252 85.4844 54.7431C86.2453 52.2341 86.5191 49.5952 86.2901 46.9769C85.8669 42.2608 83.8499 37.8473 80.5912 34.5071C78.4637 32.3144 75.8673 30.6661 73.0102 29.6943C70.9974 24.472 67.537 19.9758 63.061 16.7667C58.5849 13.5576 53.2913 11.7741 47.8407 11.6455ZM28.0357 57.0904C29.7083 57.0911 31.3126 57.7749 32.4971 58.9921C33.6816 60.2094 34.3498 61.8607 34.3553 63.5845C34.3599 64.4369 34.2011 65.2818 33.8882 66.0707C33.5753 66.8597 33.1143 67.5772 32.5317 68.1822C31.9491 68.7871 31.2563 69.2675 30.4931 69.5959C29.7299 69.9243 28.9113 70.0941 28.0842 70.0957C27.2568 70.1008 26.4365 69.9374 25.6705 69.6149C24.9044 69.2924 24.2077 68.8173 23.6202 68.2167C23.0327 67.616 22.5661 66.9018 22.2471 66.1149C21.9281 65.3281 21.7629 64.4841 21.7612 63.6313C21.7576 61.9109 22.4161 60.2594 23.5924 59.0388C24.7686 57.8182 26.3665 57.1282 28.0359 57.12L28.0357 57.0904Z" fill="#6362E3"/>
</g>
</g>
<defs>
<filter id="filter0_d_469_979" x="-3.83008" y="11.6409" width="94.1985" height="73.8962" filterUnits="userSpaceOnUse" color-interpolation-filters="sRGB">
<feFlood flood-opacity="0" result="BackgroundImageFix"/>
<feColorMatrix in="SourceAlpha" type="matrix" values="0 0 0 0 0 0 0 0 0 0 0 0 0 0 0 0 0 0 127 0" result="hardAlpha"/>
<feOffset dy="4"/>
<feGaussianBlur stdDeviation="2"/>
<feComposite in2="hardAlpha" operator="out"/>
<feColorMatrix type="matrix" values="0 0 0 0 0 0 0 0 0 0 0 0 0 0 0 0 0 0 0.25 0"/>
<feBlend mode="normal" in2="BackgroundImageFix" result="effect1_dropShadow_469_979"/>
<feBlend mode="normal" in="SourceGraphic" in2="effect1_dropShadow_469_979" result="shape"/>
</filter>
<clipPath id="clip0_469_979">
<rect width="86.1877" height="88.8246" fill="white" transform="translate(0 0.320801) rotate(-0.213321)"/>
</clipPath>
</defs>
</svg>
