<svg width="20" height="20" viewBox="0 0 20 20" fill="none" xmlns="http://www.w3.org/2000/svg">
<path fill-rule="evenodd" clip-rule="evenodd" d="M9.535 1.41446C9.60969 1.25044 9.63868 1.06929 9.61888 0.890155C9.59908 0.711022 9.53124 0.540569 9.42254 0.396821C9.31383 0.253074 9.1683 0.141377 9.00133 0.0735416C8.83436 0.00570629 8.65216 -0.0157452 8.474 0.011456C3.675 0.747456 0 4.89146 0 9.89546C0 15.4185 4.477 19.8955 10 19.8955C15.523 19.8955 20 15.4185 20 9.89546C19.9999 9.80211 19.9986 9.70877 19.996 9.61546C19.991 9.43516 19.9373 9.25957 19.8407 9.10729C19.7441 8.95501 19.608 8.8317 19.447 8.75042C19.286 8.66915 19.106 8.63293 18.9261 8.64561C18.7462 8.6583 18.573 8.7194 18.425 8.82246C17.3461 9.57383 16.0503 9.95003 14.7367 9.89321C13.4232 9.83639 12.1647 9.3497 11.1547 8.50797C10.1447 7.66624 9.4392 6.51607 9.14656 5.2343C8.85392 3.95252 8.99039 2.61011 9.535 1.41346" fill="#434343"/>
</svg>
