<svg width="104" height="83" viewBox="0 0 104 83" fill="none" xmlns="http://www.w3.org/2000/svg">
<g filter="url(#filter0_d_469_972)">
<path d="M73.0337 18.6047L100 30.5648V63.0399L73.0337 75L46.0205 63.1229V49.7924L31.0132 56.3954L4 44.5183L4.0469 11.9601L31.0132 0L57.9795 11.9601L58.0264 25.2907L73.0337 18.6047ZM90.2921 32.1844L73.0337 24.5847L55.7753 32.1844L73.0337 39.8256L90.2921 32.1844ZM48.2716 13.5797L31.0132 5.98007L13.7548 13.5797L31.0132 21.2209L48.2716 13.5797ZM10.0498 17.8987L10.0029 41.196L28.0117 49.1279V25.8306L10.0498 17.8987ZM34.0147 49.1279L46.0674 43.8538V30.5648L52.0234 27.9485L51.9766 17.8987L34.0147 25.8306V49.1279ZM52.0703 36.5033L52.0234 59.8007L70.0322 67.7326V44.4352L52.0703 36.5033ZM76.0352 67.7326L93.9971 59.7591V36.5033L76.0352 44.4352V67.7326Z" fill="#FFD863"/>
<path d="M45.8192 49.3347L31.0131 55.8491L4.50047 44.1921L4.54643 12.2856L31.0132 0.546971L57.4806 12.2858L57.5264 25.2925L57.5291 26.0596L58.2299 25.7474L73.0342 19.1518L99.5 30.89V62.7147L73.0328 74.4534L46.5205 62.7966V49.7924V49.0261L45.8192 49.3347ZM90.4946 32.6416L91.53 32.1831L90.4936 31.7268L73.2352 24.1271L73.0337 24.0384L72.8322 24.1271L55.5738 31.7268L54.5374 32.1831L55.5729 32.6416L72.8313 40.2828L73.0337 40.3724L73.2361 40.2828L90.4946 32.6416ZM48.474 14.0369L49.5095 13.5785L48.4731 13.1221L31.2147 5.52247L31.0132 5.43374L30.8117 5.52247L13.5533 13.1221L12.5169 13.5785L13.5523 14.0369L30.8108 21.6781L31.0132 21.7677L31.2156 21.6781L48.474 14.0369ZM10.2518 17.4413L9.55137 17.132L9.54983 17.8977L9.50293 41.195L9.50227 41.5219L9.80139 41.6536L27.8102 49.5855L28.5117 49.8945V49.1279V25.8306V25.5048L28.2137 25.3732L10.2518 17.4413ZM33.5147 49.1279V49.8925L34.2151 49.586L46.2679 44.3119L46.5674 44.1808V43.8538V30.8913L52.2245 28.4063L52.525 28.2743L52.5234 27.9462L52.4765 17.8963L52.473 17.1329L51.7746 17.4413L33.8127 25.3732L33.5147 25.5048V25.8306V49.1279ZM52.2723 36.0459L51.5719 35.7366L51.5703 36.5023L51.5234 59.7997L51.5228 60.1265L51.8219 60.2582L69.8307 68.1901L70.5322 68.4991V67.7326V44.4352V44.1094L70.2342 43.9778L52.2723 36.0459ZM75.5352 67.7326V68.5016L76.238 68.1896L94.1999 60.2161L94.4971 60.0842V59.7591V36.5033V35.7359L93.7951 36.0459L75.8332 43.9778L75.5352 44.1094V44.4352V67.7326Z" stroke="#DCB84C"/>
</g>
<defs>
<filter id="filter0_d_469_972" x="0" y="0" width="104" height="83" filterUnits="userSpaceOnUse" color-interpolation-filters="sRGB">
<feFlood flood-opacity="0" result="BackgroundImageFix"/>
<feColorMatrix in="SourceAlpha" type="matrix" values="0 0 0 0 0 0 0 0 0 0 0 0 0 0 0 0 0 0 127 0" result="hardAlpha"/>
<feOffset dy="4"/>
<feGaussianBlur stdDeviation="2"/>
<feComposite in2="hardAlpha" operator="out"/>
<feColorMatrix type="matrix" values="0 0 0 0 0 0 0 0 0 0 0 0 0 0 0 0 0 0 0.25 0"/>
<feBlend mode="normal" in2="BackgroundImageFix" result="effect1_dropShadow_469_972"/>
<feBlend mode="normal" in="SourceGraphic" in2="effect1_dropShadow_469_972" result="shape"/>
</filter>
</defs>
</svg>
