<svg width="37" height="35" viewBox="0 0 37 35" fill="none" xmlns="http://www.w3.org/2000/svg">
<path fill-rule="evenodd" clip-rule="evenodd" d="M34.5719 8.05875L19.9731 19.495C19.5582 19.8201 19.0364 19.998 18.4977 19.998C17.959 19.998 17.4371 19.8201 17.0223 19.495L2.43044 8.05875C2.35214 8.28168 2.31232 8.51509 2.3125 8.75V26.25C2.3125 26.8302 2.55614 27.3866 2.98982 27.7968C3.42349 28.207 4.01169 28.4375 4.625 28.4375H32.375C32.9883 28.4375 33.5765 28.207 34.0102 27.7968C34.4439 27.3866 34.6875 26.8302 34.6875 26.25V8.75C34.6884 8.51521 34.6494 8.2818 34.5719 8.05875ZM4.625 4.375H32.375C33.6016 4.375 34.778 4.83594 35.6454 5.65641C36.5127 6.47688 37 7.58968 37 8.75V26.25C37 27.4103 36.5127 28.5231 35.6454 29.3436C34.778 30.1641 33.6016 30.625 32.375 30.625H4.625C3.39837 30.625 2.22199 30.1641 1.35463 29.3436C0.487275 28.5231 0 27.4103 0 26.25V8.75C0 7.58968 0.487275 6.47688 1.35463 5.65641C2.22199 4.83594 3.39837 4.375 4.625 4.375ZM4.13937 6.5625L17.0339 16.6316C17.4469 16.9542 17.9654 17.1313 18.5011 17.1325C19.0367 17.1337 19.5562 16.9589 19.9707 16.6381L32.9948 6.5625H4.13937Z" fill="#5F5F5F"/>
</svg>
