<svg width="30" height="31" viewBox="0 0 30 31" fill="none" xmlns="http://www.w3.org/2000/svg">
<g clip-path="url(#clip0_463_3070)">
<path d="M15 0.5C6.74999 0.5 0 7.26205 0 15.5904C0 23.1205 5.48999 29.3705 12.66 30.5V19.9578H8.84999V15.5904H12.66V12.262C12.66 8.48193 14.895 6.40361 18.33 6.40361C19.965 6.40361 21.675 6.68976 21.675 6.68976V10.4096H19.785C17.925 10.4096 17.34 11.5693 17.34 12.759V15.5904H21.51L20.835 19.9578H17.34V30.5C20.8746 29.9395 24.0933 28.1288 26.4149 25.3947C28.7364 22.6606 30.008 19.1832 30 15.5904C30 7.26205 23.25 0.5 15 0.5Z" fill="#616161"/>
</g>
<defs>
<clipPath id="clip0_463_3070">
<rect width="30" height="30" fill="white" transform="translate(0 0.5)"/>
</clipPath>
</defs>
</svg>
