<svg width="314" height="342" viewBox="0 0 314 342" fill="none" xmlns="http://www.w3.org/2000/svg">
<g filter="url(#filter0_di_87_715)">
<rect x="4" width="306" height="334" rx="29" fill="#D9D9D9"/>
</g>
<path d="M17.71 229V218.5H18.625L23.425 226.69H22.945L27.7 218.5H28.615V229H27.55V220.165H27.805L23.425 227.665H22.9L18.49 220.165H18.775V229H17.71ZM36.7462 229V227.26L36.7012 226.975V224.065C36.7012 223.395 36.5112 222.88 36.1312 222.52C35.7612 222.16 35.2062 221.98 34.4662 221.98C33.9562 221.98 33.4712 222.065 33.0112 222.235C32.5512 222.405 32.1612 222.63 31.8412 222.91L31.3612 222.115C31.7612 221.775 32.2412 221.515 32.8012 221.335C33.3612 221.145 33.9512 221.05 34.5712 221.05C35.5912 221.05 36.3762 221.305 36.9262 221.815C37.4862 222.315 37.7662 223.08 37.7662 224.11V229H36.7462ZM34.0312 229.075C33.4412 229.075 32.9262 228.98 32.4862 228.79C32.0562 228.59 31.7262 228.32 31.4962 227.98C31.2662 227.63 31.1512 227.23 31.1512 226.78C31.1512 226.37 31.2462 226 31.4362 225.67C31.6362 225.33 31.9562 225.06 32.3962 224.86C32.8462 224.65 33.4462 224.545 34.1962 224.545H36.9112V225.34H34.2262C33.4662 225.34 32.9362 225.475 32.6362 225.745C32.3462 226.015 32.2012 226.35 32.2012 226.75C32.2012 227.2 32.3762 227.56 32.7262 227.83C33.0762 228.1 33.5662 228.235 34.1962 228.235C34.7962 228.235 35.3112 228.1 35.7412 227.83C36.1812 227.55 36.5012 227.15 36.7012 226.63L36.9412 227.365C36.7412 227.885 36.3912 228.3 35.8912 228.61C35.4012 228.92 34.7812 229.075 34.0312 229.075ZM44.6788 221.05C45.3188 221.05 45.8788 221.175 46.3588 221.425C46.8488 221.665 47.2288 222.035 47.4988 222.535C47.7788 223.035 47.9188 223.665 47.9188 224.425V229H46.8538V224.53C46.8538 223.7 46.6438 223.075 46.2238 222.655C45.8138 222.225 45.2338 222.01 44.4838 222.01C43.9238 222.01 43.4338 222.125 43.0138 222.355C42.6038 222.575 42.2838 222.9 42.0538 223.33C41.8338 223.75 41.7238 224.26 41.7238 224.86V229H40.6588V221.125H41.6788V223.285L41.5138 222.88C41.7638 222.31 42.1638 221.865 42.7138 221.545C43.2638 221.215 43.9188 221.05 44.6788 221.05ZM54.0505 229.075C53.3805 229.075 52.7955 228.95 52.2955 228.7C51.7955 228.45 51.4055 228.075 51.1255 227.575C50.8555 227.075 50.7205 226.45 50.7205 225.7V221.125H51.7855V225.58C51.7855 226.42 51.9905 227.055 52.4005 227.485C52.8205 227.905 53.4055 228.115 54.1555 228.115C54.7055 228.115 55.1805 228.005 55.5805 227.785C55.9905 227.555 56.3005 227.225 56.5105 226.795C56.7305 226.365 56.8405 225.85 56.8405 225.25V221.125H57.9055V229H56.8855V226.84L57.0505 227.23C56.8005 227.81 56.4105 228.265 55.8805 228.595C55.3605 228.915 54.7505 229.075 54.0505 229.075ZM65.8087 229V227.26L65.7637 226.975V224.065C65.7637 223.395 65.5737 222.88 65.1937 222.52C64.8237 222.16 64.2687 221.98 63.5287 221.98C63.0187 221.98 62.5337 222.065 62.0737 222.235C61.6137 222.405 61.2237 222.63 60.9037 222.91L60.4237 222.115C60.8237 221.775 61.3037 221.515 61.8637 221.335C62.4237 221.145 63.0137 221.05 63.6337 221.05C64.6537 221.05 65.4387 221.305 65.9887 221.815C66.5487 222.315 66.8287 223.08 66.8287 224.11V229H65.8087ZM63.0937 229.075C62.5037 229.075 61.9887 228.98 61.5487 228.79C61.1187 228.59 60.7887 228.32 60.5587 227.98C60.3287 227.63 60.2137 227.23 60.2137 226.78C60.2137 226.37 60.3087 226 60.4987 225.67C60.6987 225.33 61.0187 225.06 61.4587 224.86C61.9087 224.65 62.5087 224.545 63.2587 224.545H65.9737V225.34H63.2887C62.5287 225.34 61.9987 225.475 61.6987 225.745C61.4087 226.015 61.2637 226.35 61.2637 226.75C61.2637 227.2 61.4387 227.56 61.7887 227.83C62.1387 228.1 62.6287 228.235 63.2587 228.235C63.8587 228.235 64.3737 228.1 64.8037 227.83C65.2437 227.55 65.5637 227.15 65.7637 226.63L66.0037 227.365C65.8037 227.885 65.4537 228.3 64.9537 228.61C64.4637 228.92 63.8437 229.075 63.0937 229.075ZM69.7213 229V217.87H70.7863V229H69.7213ZM73.7496 229V217.87H74.8146V229H73.7496ZM77.838 231.985C77.468 231.985 77.113 231.925 76.773 231.805C76.443 231.685 76.158 231.505 75.918 231.265L76.413 230.47C76.613 230.66 76.828 230.805 77.058 230.905C77.298 231.015 77.563 231.07 77.853 231.07C78.203 231.07 78.503 230.97 78.753 230.77C79.013 230.58 79.258 230.24 79.488 229.75L79.998 228.595L80.118 228.43L83.358 221.125H84.408L80.463 229.945C80.243 230.455 79.998 230.86 79.728 231.16C79.468 231.46 79.183 231.67 78.873 231.79C78.563 231.92 78.218 231.985 77.838 231.985ZM79.938 229.225L76.308 221.125H77.418L80.628 228.355L79.938 229.225ZM93.0886 229.075C92.4186 229.075 91.8336 228.95 91.3336 228.7C90.8336 228.45 90.4436 228.075 90.1636 227.575C89.8936 227.075 89.7586 226.45 89.7586 225.7V221.125H90.8236V225.58C90.8236 226.42 91.0286 227.055 91.4386 227.485C91.8586 227.905 92.4436 228.115 93.1936 228.115C93.7436 228.115 94.2186 228.005 94.6186 227.785C95.0286 227.555 95.3386 227.225 95.5486 226.795C95.7686 226.365 95.8786 225.85 95.8786 225.25V221.125H96.9436V229H95.9236V226.84L96.0886 227.23C95.8386 227.81 95.4486 228.265 94.9186 228.595C94.3986 228.915 93.7886 229.075 93.0886 229.075ZM102.027 229.075C101.377 229.075 100.762 228.985 100.182 228.805C99.6018 228.615 99.1468 228.38 98.8168 228.1L99.2968 227.26C99.6168 227.5 100.027 227.71 100.527 227.89C101.027 228.06 101.552 228.145 102.102 228.145C102.852 228.145 103.392 228.03 103.722 227.8C104.052 227.56 104.217 227.245 104.217 226.855C104.217 226.565 104.122 226.34 103.932 226.18C103.752 226.01 103.512 225.885 103.212 225.805C102.912 225.715 102.577 225.64 102.207 225.58C101.837 225.52 101.467 225.45 101.097 225.37C100.737 225.29 100.407 225.175 100.107 225.025C99.8068 224.865 99.5618 224.65 99.3718 224.38C99.1918 224.11 99.1018 223.75 99.1018 223.3C99.1018 222.87 99.2218 222.485 99.4618 222.145C99.7018 221.805 100.052 221.54 100.512 221.35C100.982 221.15 101.552 221.05 102.222 221.05C102.732 221.05 103.242 221.12 103.752 221.26C104.262 221.39 104.682 221.565 105.012 221.785L104.547 222.64C104.197 222.4 103.822 222.23 103.422 222.13C103.022 222.02 102.622 221.965 102.222 221.965C101.512 221.965 100.987 222.09 100.647 222.34C100.317 222.58 100.152 222.89 100.152 223.27C100.152 223.57 100.242 223.805 100.422 223.975C100.612 224.145 100.857 224.28 101.157 224.38C101.467 224.47 101.802 224.545 102.162 224.605C102.532 224.665 102.897 224.74 103.257 224.83C103.627 224.91 103.962 225.025 104.262 225.175C104.572 225.315 104.817 225.52 104.997 225.79C105.187 226.05 105.282 226.395 105.282 226.825C105.282 227.285 105.152 227.685 104.892 228.025C104.642 228.355 104.272 228.615 103.782 228.805C103.302 228.985 102.717 229.075 102.027 229.075ZM110.581 229.075C109.761 229.075 109.041 228.905 108.421 228.565C107.801 228.215 107.316 227.74 106.966 227.14C106.616 226.53 106.441 225.835 106.441 225.055C106.441 224.275 106.606 223.585 106.936 222.985C107.276 222.385 107.736 221.915 108.316 221.575C108.906 221.225 109.566 221.05 110.296 221.05C111.036 221.05 111.691 221.22 112.261 221.56C112.841 221.89 113.296 222.36 113.626 222.97C113.956 223.57 114.121 224.265 114.121 225.055C114.121 225.105 114.116 225.16 114.106 225.22C114.106 225.27 114.106 225.325 114.106 225.385H107.251V224.59H113.536L113.116 224.905C113.116 224.335 112.991 223.83 112.741 223.39C112.501 222.94 112.171 222.59 111.751 222.34C111.331 222.09 110.846 221.965 110.296 221.965C109.756 221.965 109.271 222.09 108.841 222.34C108.411 222.59 108.076 222.94 107.836 223.39C107.596 223.84 107.476 224.355 107.476 224.935V225.1C107.476 225.7 107.606 226.23 107.866 226.69C108.136 227.14 108.506 227.495 108.976 227.755C109.456 228.005 110.001 228.13 110.611 228.13C111.091 228.13 111.536 228.045 111.946 227.875C112.366 227.705 112.726 227.445 113.026 227.095L113.626 227.785C113.276 228.205 112.836 228.525 112.306 228.745C111.786 228.965 111.211 229.075 110.581 229.075ZM122.704 229.075C121.964 229.075 121.394 228.875 120.994 228.475C120.594 228.075 120.394 227.51 120.394 226.78V219.385H121.459V226.72C121.459 227.18 121.574 227.535 121.804 227.785C122.044 228.035 122.384 228.16 122.824 228.16C123.294 228.16 123.684 228.025 123.994 227.755L124.369 228.52C124.159 228.71 123.904 228.85 123.604 228.94C123.314 229.03 123.014 229.075 122.704 229.075ZM118.984 222.01V221.125H123.859V222.01H118.984ZM130.328 221.05C130.968 221.05 131.528 221.175 132.008 221.425C132.498 221.665 132.878 222.035 133.148 222.535C133.428 223.035 133.568 223.665 133.568 224.425V229H132.503V224.53C132.503 223.7 132.293 223.075 131.873 222.655C131.463 222.225 130.883 222.01 130.133 222.01C129.573 222.01 129.083 222.125 128.663 222.355C128.253 222.575 127.933 222.9 127.703 223.33C127.483 223.75 127.373 224.26 127.373 224.86V229H126.308V217.87H127.373V223.285L127.163 222.88C127.413 222.31 127.813 221.865 128.363 221.545C128.913 221.215 129.568 221.05 130.328 221.05ZM139.79 229.075C138.97 229.075 138.25 228.905 137.63 228.565C137.01 228.215 136.525 227.74 136.175 227.14C135.825 226.53 135.65 225.835 135.65 225.055C135.65 224.275 135.815 223.585 136.145 222.985C136.485 222.385 136.945 221.915 137.525 221.575C138.115 221.225 138.775 221.05 139.505 221.05C140.245 221.05 140.9 221.22 141.47 221.56C142.05 221.89 142.505 222.36 142.835 222.97C143.165 223.57 143.33 224.265 143.33 225.055C143.33 225.105 143.325 225.16 143.315 225.22C143.315 225.27 143.315 225.325 143.315 225.385H136.46V224.59H142.745L142.325 224.905C142.325 224.335 142.2 223.83 141.95 223.39C141.71 222.94 141.38 222.59 140.96 222.34C140.54 222.09 140.055 221.965 139.505 221.965C138.965 221.965 138.48 222.09 138.05 222.34C137.62 222.59 137.285 222.94 137.045 223.39C136.805 223.84 136.685 224.355 136.685 224.935V225.1C136.685 225.7 136.815 226.23 137.075 226.69C137.345 227.14 137.715 227.495 138.185 227.755C138.665 228.005 139.21 228.13 139.82 228.13C140.3 228.13 140.745 228.045 141.155 227.875C141.575 227.705 141.935 227.445 142.235 227.095L142.835 227.785C142.485 228.205 142.045 228.525 141.515 228.745C140.995 228.965 140.42 229.075 139.79 229.075ZM149.423 229V221.125H150.488V229H149.423ZM149.963 219.385C149.743 219.385 149.558 219.31 149.408 219.16C149.258 219.01 149.183 218.83 149.183 218.62C149.183 218.41 149.258 218.235 149.408 218.095C149.558 217.945 149.743 217.87 149.963 217.87C150.183 217.87 150.368 217.94 150.518 218.08C150.668 218.22 150.743 218.395 150.743 218.605C150.743 218.825 150.668 219.01 150.518 219.16C150.378 219.31 150.193 219.385 149.963 219.385ZM157.472 221.05C158.112 221.05 158.672 221.175 159.152 221.425C159.642 221.665 160.022 222.035 160.292 222.535C160.572 223.035 160.712 223.665 160.712 224.425V229H159.647V224.53C159.647 223.7 159.437 223.075 159.017 222.655C158.607 222.225 158.027 222.01 157.277 222.01C156.717 222.01 156.227 222.125 155.807 222.355C155.397 222.575 155.077 222.9 154.847 223.33C154.627 223.75 154.517 224.26 154.517 224.86V229H153.452V221.125H154.472V223.285L154.307 222.88C154.557 222.31 154.957 221.865 155.507 221.545C156.057 221.215 156.712 221.05 157.472 221.05ZM167.654 229.075C166.974 229.075 166.359 228.92 165.809 228.61C165.259 228.29 164.819 227.835 164.489 227.245C164.169 226.645 164.009 225.915 164.009 225.055C164.009 224.195 164.169 223.47 164.489 222.88C164.809 222.28 165.244 221.825 165.794 221.515C166.344 221.205 166.964 221.05 167.654 221.05C168.404 221.05 169.074 221.22 169.664 221.56C170.264 221.89 170.734 222.36 171.074 222.97C171.414 223.57 171.584 224.265 171.584 225.055C171.584 225.855 171.414 226.555 171.074 227.155C170.734 227.755 170.264 228.225 169.664 228.565C169.074 228.905 168.404 229.075 167.654 229.075ZM163.589 231.91V221.125H164.609V223.495L164.504 225.07L164.654 226.66V231.91H163.589ZM167.579 228.13C168.139 228.13 168.639 228.005 169.079 227.755C169.519 227.495 169.869 227.135 170.129 226.675C170.389 226.205 170.519 225.665 170.519 225.055C170.519 224.445 170.389 223.91 170.129 223.45C169.869 222.99 169.519 222.63 169.079 222.37C168.639 222.11 168.139 221.98 167.579 221.98C167.019 221.98 166.514 222.11 166.064 222.37C165.624 222.63 165.274 222.99 165.014 223.45C164.764 223.91 164.639 224.445 164.639 225.055C164.639 225.665 164.764 226.205 165.014 226.675C165.274 227.135 165.624 227.495 166.064 227.755C166.514 228.005 167.019 228.13 167.579 228.13ZM177.01 229.075C176.34 229.075 175.755 228.95 175.255 228.7C174.755 228.45 174.365 228.075 174.085 227.575C173.815 227.075 173.68 226.45 173.68 225.7V221.125H174.745V225.58C174.745 226.42 174.95 227.055 175.36 227.485C175.78 227.905 176.365 228.115 177.115 228.115C177.665 228.115 178.14 228.005 178.54 227.785C178.95 227.555 179.26 227.225 179.47 226.795C179.69 226.365 179.8 225.85 179.8 225.25V221.125H180.865V229H179.845V226.84L180.01 227.23C179.76 227.81 179.37 228.265 178.84 228.595C178.32 228.915 177.71 229.075 177.01 229.075ZM186.323 229.075C185.583 229.075 185.013 228.875 184.613 228.475C184.213 228.075 184.013 227.51 184.013 226.78V219.385H185.078V226.72C185.078 227.18 185.193 227.535 185.423 227.785C185.663 228.035 186.003 228.16 186.443 228.16C186.913 228.16 187.303 228.025 187.613 227.755L187.988 228.52C187.778 228.71 187.523 228.85 187.223 228.94C186.933 229.03 186.633 229.075 186.323 229.075ZM182.603 222.01V221.125H187.478V222.01H182.603ZM195.967 229.075C195.317 229.075 194.702 228.985 194.122 228.805C193.542 228.615 193.087 228.38 192.757 228.1L193.237 227.26C193.557 227.5 193.967 227.71 194.467 227.89C194.967 228.06 195.492 228.145 196.042 228.145C196.792 228.145 197.332 228.03 197.662 227.8C197.992 227.56 198.157 227.245 198.157 226.855C198.157 226.565 198.062 226.34 197.872 226.18C197.692 226.01 197.452 225.885 197.152 225.805C196.852 225.715 196.517 225.64 196.147 225.58C195.777 225.52 195.407 225.45 195.037 225.37C194.677 225.29 194.347 225.175 194.047 225.025C193.747 224.865 193.502 224.65 193.312 224.38C193.132 224.11 193.042 223.75 193.042 223.3C193.042 222.87 193.162 222.485 193.402 222.145C193.642 221.805 193.992 221.54 194.452 221.35C194.922 221.15 195.492 221.05 196.162 221.05C196.672 221.05 197.182 221.12 197.692 221.26C198.202 221.39 198.622 221.565 198.952 221.785L198.487 222.64C198.137 222.4 197.762 222.23 197.362 222.13C196.962 222.02 196.562 221.965 196.162 221.965C195.452 221.965 194.927 222.09 194.587 222.34C194.257 222.58 194.092 222.89 194.092 223.27C194.092 223.57 194.182 223.805 194.362 223.975C194.552 224.145 194.797 224.28 195.097 224.38C195.407 224.47 195.742 224.545 196.102 224.605C196.472 224.665 196.837 224.74 197.197 224.83C197.567 224.91 197.902 225.025 198.202 225.175C198.512 225.315 198.757 225.52 198.937 225.79C199.127 226.05 199.222 226.395 199.222 226.825C199.222 227.285 199.092 227.685 198.832 228.025C198.582 228.355 198.212 228.615 197.722 228.805C197.242 228.985 196.657 229.075 195.967 229.075ZM205.241 229.075C204.561 229.075 203.946 228.92 203.396 228.61C202.846 228.29 202.406 227.835 202.076 227.245C201.756 226.645 201.596 225.915 201.596 225.055C201.596 224.195 201.756 223.47 202.076 222.88C202.396 222.28 202.831 221.825 203.381 221.515C203.931 221.205 204.551 221.05 205.241 221.05C205.991 221.05 206.661 221.22 207.251 221.56C207.851 221.89 208.321 222.36 208.661 222.97C209.001 223.57 209.171 224.265 209.171 225.055C209.171 225.855 209.001 226.555 208.661 227.155C208.321 227.755 207.851 228.225 207.251 228.565C206.661 228.905 205.991 229.075 205.241 229.075ZM201.176 231.91V221.125H202.196V223.495L202.091 225.07L202.241 226.66V231.91H201.176ZM205.166 228.13C205.726 228.13 206.226 228.005 206.666 227.755C207.106 227.495 207.456 227.135 207.716 226.675C207.976 226.205 208.106 225.665 208.106 225.055C208.106 224.445 207.976 223.91 207.716 223.45C207.456 222.99 207.106 222.63 206.666 222.37C206.226 222.11 205.726 221.98 205.166 221.98C204.606 221.98 204.101 222.11 203.651 222.37C203.211 222.63 202.861 222.99 202.601 223.45C202.351 223.91 202.226 224.445 202.226 225.055C202.226 225.665 202.351 226.205 202.601 226.675C202.861 227.135 203.211 227.495 203.651 227.755C204.101 228.005 204.606 228.13 205.166 228.13ZM216.233 229V227.26L216.188 226.975V224.065C216.188 223.395 215.998 222.88 215.618 222.52C215.248 222.16 214.693 221.98 213.953 221.98C213.443 221.98 212.958 222.065 212.498 222.235C212.038 222.405 211.648 222.63 211.328 222.91L210.848 222.115C211.248 221.775 211.728 221.515 212.288 221.335C212.848 221.145 213.438 221.05 214.058 221.05C215.078 221.05 215.863 221.305 216.413 221.815C216.973 222.315 217.253 223.08 217.253 224.11V229H216.233ZM213.518 229.075C212.928 229.075 212.413 228.98 211.973 228.79C211.543 228.59 211.213 228.32 210.983 227.98C210.753 227.63 210.638 227.23 210.638 226.78C210.638 226.37 210.733 226 210.923 225.67C211.123 225.33 211.443 225.06 211.883 224.86C212.333 224.65 212.933 224.545 213.683 224.545H216.398V225.34H213.713C212.953 225.34 212.423 225.475 212.123 225.745C211.833 226.015 211.688 226.35 211.688 226.75C211.688 227.2 211.863 227.56 212.213 227.83C212.563 228.1 213.053 228.235 213.683 228.235C214.283 228.235 214.798 228.1 215.228 227.83C215.668 227.55 215.988 227.15 216.188 226.63L216.428 227.365C216.228 227.885 215.878 228.3 215.378 228.61C214.888 228.92 214.268 229.075 213.518 229.075ZM223.416 229.075C222.636 229.075 221.936 228.905 221.316 228.565C220.706 228.215 220.226 227.74 219.876 227.14C219.526 226.53 219.351 225.835 219.351 225.055C219.351 224.265 219.526 223.57 219.876 222.97C220.226 222.37 220.706 221.9 221.316 221.56C221.936 221.22 222.636 221.05 223.416 221.05C224.086 221.05 224.691 221.18 225.231 221.44C225.771 221.7 226.196 222.09 226.506 222.61L225.711 223.15C225.441 222.75 225.106 222.455 224.706 222.265C224.306 222.075 223.871 221.98 223.401 221.98C222.841 221.98 222.336 222.11 221.886 222.37C221.436 222.62 221.081 222.975 220.821 223.435C220.561 223.895 220.431 224.435 220.431 225.055C220.431 225.675 220.561 226.215 220.821 226.675C221.081 227.135 221.436 227.495 221.886 227.755C222.336 228.005 222.841 228.13 223.401 228.13C223.871 228.13 224.306 228.035 224.706 227.845C225.106 227.655 225.441 227.365 225.711 226.975L226.506 227.515C226.196 228.025 225.771 228.415 225.231 228.685C224.691 228.945 224.086 229.075 223.416 229.075ZM231.811 229.075C230.991 229.075 230.271 228.905 229.651 228.565C229.031 228.215 228.546 227.74 228.196 227.14C227.846 226.53 227.671 225.835 227.671 225.055C227.671 224.275 227.836 223.585 228.166 222.985C228.506 222.385 228.966 221.915 229.546 221.575C230.136 221.225 230.796 221.05 231.526 221.05C232.266 221.05 232.921 221.22 233.491 221.56C234.071 221.89 234.526 222.36 234.856 222.97C235.186 223.57 235.351 224.265 235.351 225.055C235.351 225.105 235.346 225.16 235.336 225.22C235.336 225.27 235.336 225.325 235.336 225.385H228.481V224.59H234.766L234.346 224.905C234.346 224.335 234.221 223.83 233.971 223.39C233.731 222.94 233.401 222.59 232.981 222.34C232.561 222.09 232.076 221.965 231.526 221.965C230.986 221.965 230.501 222.09 230.071 222.34C229.641 222.59 229.306 222.94 229.066 223.39C228.826 223.84 228.706 224.355 228.706 224.935V225.1C228.706 225.7 228.836 226.23 229.096 226.69C229.366 227.14 229.736 227.495 230.206 227.755C230.686 228.005 231.231 228.13 231.841 228.13C232.321 228.13 232.766 228.045 233.176 227.875C233.596 227.705 233.956 227.445 234.256 227.095L234.856 227.785C234.506 228.205 234.066 228.525 233.536 228.745C233.016 228.965 232.441 229.075 231.811 229.075ZM241.625 229V220.135C241.625 219.435 241.83 218.87 242.24 218.44C242.65 218.01 243.24 217.795 244.01 217.795C244.31 217.795 244.6 217.835 244.88 217.915C245.16 217.995 245.395 218.12 245.585 218.29L245.225 219.085C245.075 218.955 244.9 218.86 244.7 218.8C244.5 218.73 244.285 218.695 244.055 218.695C243.605 218.695 243.26 218.82 243.02 219.07C242.78 219.32 242.66 219.69 242.66 220.18V221.38L242.69 221.875V229H241.625ZM240.215 222.01V221.125H245.09V222.01H240.215ZM249.606 229.075C248.846 229.075 248.161 228.905 247.551 228.565C246.951 228.215 246.476 227.74 246.126 227.14C245.776 226.53 245.601 225.835 245.601 225.055C245.601 224.265 245.776 223.57 246.126 222.97C246.476 222.37 246.951 221.9 247.551 221.56C248.151 221.22 248.836 221.05 249.606 221.05C250.386 221.05 251.076 221.22 251.676 221.56C252.286 221.9 252.761 222.37 253.101 222.97C253.451 223.57 253.626 224.265 253.626 225.055C253.626 225.835 253.451 226.53 253.101 227.14C252.761 227.74 252.286 228.215 251.676 228.565C251.066 228.905 250.376 229.075 249.606 229.075ZM249.606 228.13C250.176 228.13 250.681 228.005 251.121 227.755C251.561 227.495 251.906 227.135 252.156 226.675C252.416 226.205 252.546 225.665 252.546 225.055C252.546 224.435 252.416 223.895 252.156 223.435C251.906 222.975 251.561 222.62 251.121 222.37C250.681 222.11 250.181 221.98 249.621 221.98C249.061 221.98 248.561 222.11 248.121 222.37C247.681 222.62 247.331 222.975 247.071 223.435C246.811 223.895 246.681 224.435 246.681 225.055C246.681 225.665 246.811 226.205 247.071 226.675C247.331 227.135 247.681 227.495 248.121 227.755C248.561 228.005 249.056 228.13 249.606 228.13ZM255.8 229V221.125H256.82V223.27L256.715 222.895C256.935 222.295 257.305 221.84 257.825 221.53C258.345 221.21 258.99 221.05 259.76 221.05V222.085C259.72 222.085 259.68 222.085 259.64 222.085C259.6 222.075 259.56 222.07 259.52 222.07C258.69 222.07 258.04 222.325 257.57 222.835C257.1 223.335 256.865 224.05 256.865 224.98V229H255.8ZM17.545 249.985C17.175 249.985 16.82 249.925 16.48 249.805C16.15 249.685 15.865 249.505 15.625 249.265L16.12 248.47C16.32 248.66 16.535 248.805 16.765 248.905C17.005 249.015 17.27 249.07 17.56 249.07C17.91 249.07 18.21 248.97 18.46 248.77C18.72 248.58 18.965 248.24 19.195 247.75L19.705 246.595L19.825 246.43L23.065 239.125H24.115L20.17 247.945C19.95 248.455 19.705 248.86 19.435 249.16C19.175 249.46 18.89 249.67 18.58 249.79C18.27 249.92 17.925 249.985 17.545 249.985ZM19.645 247.225L16.015 239.125H17.125L20.335 246.355L19.645 247.225ZM28.6052 247.075C27.8452 247.075 27.1602 246.905 26.5502 246.565C25.9502 246.215 25.4752 245.74 25.1252 245.14C24.7752 244.53 24.6002 243.835 24.6002 243.055C24.6002 242.265 24.7752 241.57 25.1252 240.97C25.4752 240.37 25.9502 239.9 26.5502 239.56C27.1502 239.22 27.8352 239.05 28.6052 239.05C29.3852 239.05 30.0752 239.22 30.6752 239.56C31.2852 239.9 31.7602 240.37 32.1002 240.97C32.4502 241.57 32.6252 242.265 32.6252 243.055C32.6252 243.835 32.4502 244.53 32.1002 245.14C31.7602 245.74 31.2852 246.215 30.6752 246.565C30.0652 246.905 29.3752 247.075 28.6052 247.075ZM28.6052 246.13C29.1752 246.13 29.6802 246.005 30.1202 245.755C30.5602 245.495 30.9052 245.135 31.1552 244.675C31.4152 244.205 31.5452 243.665 31.5452 243.055C31.5452 242.435 31.4152 241.895 31.1552 241.435C30.9052 240.975 30.5602 240.62 30.1202 240.37C29.6802 240.11 29.1802 239.98 28.6202 239.98C28.0602 239.98 27.5602 240.11 27.1202 240.37C26.6802 240.62 26.3302 240.975 26.0702 241.435C25.8102 241.895 25.6802 242.435 25.6802 243.055C25.6802 243.665 25.8102 244.205 26.0702 244.675C26.3302 245.135 26.6802 245.495 27.1202 245.755C27.5602 246.005 28.0552 246.13 28.6052 246.13ZM38.0545 247.075C37.3845 247.075 36.7995 246.95 36.2995 246.7C35.7995 246.45 35.4095 246.075 35.1295 245.575C34.8595 245.075 34.7245 244.45 34.7245 243.7V239.125H35.7895V243.58C35.7895 244.42 35.9945 245.055 36.4045 245.485C36.8245 245.905 37.4095 246.115 38.1595 246.115C38.7095 246.115 39.1845 246.005 39.5845 245.785C39.9945 245.555 40.3045 245.225 40.5145 244.795C40.7345 244.365 40.8445 243.85 40.8445 243.25V239.125H41.9095V247H40.8895V244.84L41.0545 245.23C40.8045 245.81 40.4145 246.265 39.8845 246.595C39.3645 246.915 38.7545 247.075 38.0545 247.075ZM44.8776 247V239.125H45.8976V241.27L45.7926 240.895C46.0126 240.295 46.3826 239.84 46.9026 239.53C47.4226 239.21 48.0676 239.05 48.8376 239.05V240.085C48.7976 240.085 48.7576 240.085 48.7176 240.085C48.6776 240.075 48.6376 240.07 48.5976 240.07C47.7676 240.07 47.1176 240.325 46.6476 240.835C46.1776 241.335 45.9426 242.05 45.9426 242.98V247H44.8776ZM57.9589 247.075C57.2089 247.075 56.5339 246.905 55.9339 246.565C55.3439 246.225 54.8789 245.755 54.5389 245.155C54.1989 244.545 54.0289 243.845 54.0289 243.055C54.0289 242.255 54.1989 241.555 54.5389 240.955C54.8789 240.355 55.3439 239.89 55.9339 239.56C56.5339 239.22 57.2089 239.05 57.9589 239.05C58.6489 239.05 59.2639 239.205 59.8039 239.515C60.3539 239.825 60.7889 240.28 61.1089 240.88C61.4389 241.47 61.6039 242.195 61.6039 243.055C61.6039 243.905 61.4439 244.63 61.1239 245.23C60.8039 245.83 60.3689 246.29 59.8189 246.61C59.2789 246.92 58.6589 247.075 57.9589 247.075ZM58.0339 246.13C58.5939 246.13 59.0939 246.005 59.5339 245.755C59.9839 245.495 60.3339 245.135 60.5839 244.675C60.8439 244.205 60.9739 243.665 60.9739 243.055C60.9739 242.435 60.8439 241.895 60.5839 241.435C60.3339 240.975 59.9839 240.62 59.5339 240.37C59.0939 240.11 58.5939 239.98 58.0339 239.98C57.4839 239.98 56.9889 240.11 56.5489 240.37C56.1089 240.62 55.7589 240.975 55.4989 241.435C55.2389 241.895 55.1089 242.435 55.1089 243.055C55.1089 243.665 55.2389 244.205 55.4989 244.675C55.7589 245.135 56.1089 245.495 56.5489 245.755C56.9889 246.005 57.4839 246.13 58.0339 246.13ZM61.0039 247V244.63L61.1089 243.04L60.9589 241.45V235.87H62.0239V247H61.0039ZM68.3349 247.075C67.5149 247.075 66.7949 246.905 66.1749 246.565C65.5549 246.215 65.0699 245.74 64.7199 245.14C64.3699 244.53 64.1949 243.835 64.1949 243.055C64.1949 242.275 64.3599 241.585 64.6899 240.985C65.0299 240.385 65.4899 239.915 66.0699 239.575C66.6599 239.225 67.3199 239.05 68.0499 239.05C68.7899 239.05 69.4449 239.22 70.0149 239.56C70.5949 239.89 71.0499 240.36 71.3799 240.97C71.7099 241.57 71.8749 242.265 71.8749 243.055C71.8749 243.105 71.8699 243.16 71.8599 243.22C71.8599 243.27 71.8599 243.325 71.8599 243.385H65.0049V242.59H71.2899L70.8699 242.905C70.8699 242.335 70.7449 241.83 70.4949 241.39C70.2549 240.94 69.9249 240.59 69.5049 240.34C69.0849 240.09 68.5999 239.965 68.0499 239.965C67.5099 239.965 67.0249 240.09 66.5949 240.34C66.1649 240.59 65.8299 240.94 65.5899 241.39C65.3499 241.84 65.2299 242.355 65.2299 242.935V243.1C65.2299 243.7 65.3599 244.23 65.6199 244.69C65.8899 245.14 66.2599 245.495 66.7299 245.755C67.2099 246.005 67.7549 246.13 68.3649 246.13C68.8449 246.13 69.2899 246.045 69.6999 245.875C70.1199 245.705 70.4799 245.445 70.7799 245.095L71.3799 245.785C71.0299 246.205 70.5899 246.525 70.0599 246.745C69.5399 246.965 68.9649 247.075 68.3349 247.075ZM76.1576 247.075C75.5076 247.075 74.8926 246.985 74.3126 246.805C73.7326 246.615 73.2776 246.38 72.9476 246.1L73.4276 245.26C73.7476 245.5 74.1576 245.71 74.6576 245.89C75.1576 246.06 75.6826 246.145 76.2326 246.145C76.9826 246.145 77.5226 246.03 77.8526 245.8C78.1826 245.56 78.3476 245.245 78.3476 244.855C78.3476 244.565 78.2526 244.34 78.0626 244.18C77.8826 244.01 77.6426 243.885 77.3426 243.805C77.0426 243.715 76.7076 243.64 76.3376 243.58C75.9676 243.52 75.5976 243.45 75.2276 243.37C74.8676 243.29 74.5376 243.175 74.2376 243.025C73.9376 242.865 73.6926 242.65 73.5026 242.38C73.3226 242.11 73.2326 241.75 73.2326 241.3C73.2326 240.87 73.3526 240.485 73.5926 240.145C73.8326 239.805 74.1826 239.54 74.6426 239.35C75.1126 239.15 75.6826 239.05 76.3526 239.05C76.8626 239.05 77.3726 239.12 77.8826 239.26C78.3926 239.39 78.8126 239.565 79.1426 239.785L78.6776 240.64C78.3276 240.4 77.9526 240.23 77.5526 240.13C77.1526 240.02 76.7526 239.965 76.3526 239.965C75.6426 239.965 75.1176 240.09 74.7776 240.34C74.4476 240.58 74.2826 240.89 74.2826 241.27C74.2826 241.57 74.3726 241.805 74.5526 241.975C74.7426 242.145 74.9876 242.28 75.2876 242.38C75.5976 242.47 75.9326 242.545 76.2926 242.605C76.6626 242.665 77.0276 242.74 77.3876 242.83C77.7576 242.91 78.0926 243.025 78.3926 243.175C78.7026 243.315 78.9476 243.52 79.1276 243.79C79.3176 244.05 79.4126 244.395 79.4126 244.825C79.4126 245.285 79.2826 245.685 79.0226 246.025C78.7726 246.355 78.4026 246.615 77.9126 246.805C77.4326 246.985 76.8476 247.075 76.1576 247.075ZM81.3668 247V239.125H82.4318V247H81.3668ZM81.9068 237.385C81.6868 237.385 81.5018 237.31 81.3518 237.16C81.2018 237.01 81.1268 236.83 81.1268 236.62C81.1268 236.41 81.2018 236.235 81.3518 236.095C81.5018 235.945 81.6868 235.87 81.9068 235.87C82.1268 235.87 82.3118 235.94 82.4618 236.08C82.6118 236.22 82.6868 236.395 82.6868 236.605C82.6868 236.825 82.6118 237.01 82.4618 237.16C82.3218 237.31 82.1368 237.385 81.9068 237.385ZM85.3952 247V239.125H86.4152V241.27L86.3102 240.895C86.5302 240.295 86.9002 239.84 87.4202 239.53C87.9402 239.21 88.5852 239.05 89.3552 239.05V240.085C89.3152 240.085 89.2752 240.085 89.2352 240.085C89.1952 240.075 89.1552 240.07 89.1152 240.07C88.2852 240.07 87.6352 240.325 87.1652 240.835C86.6952 241.335 86.4602 242.05 86.4602 242.98V247H85.3952ZM94.5702 247.075C93.7502 247.075 93.0302 246.905 92.4102 246.565C91.7902 246.215 91.3052 245.74 90.9552 245.14C90.6052 244.53 90.4302 243.835 90.4302 243.055C90.4302 242.275 90.5952 241.585 90.9252 240.985C91.2652 240.385 91.7252 239.915 92.3052 239.575C92.8952 239.225 93.5552 239.05 94.2852 239.05C95.0252 239.05 95.6802 239.22 96.2502 239.56C96.8302 239.89 97.2852 240.36 97.6152 240.97C97.9452 241.57 98.1102 242.265 98.1102 243.055C98.1102 243.105 98.1052 243.16 98.0952 243.22C98.0952 243.27 98.0952 243.325 98.0952 243.385H91.2402V242.59H97.5252L97.1052 242.905C97.1052 242.335 96.9802 241.83 96.7302 241.39C96.4902 240.94 96.1602 240.59 95.7402 240.34C95.3202 240.09 94.8352 239.965 94.2852 239.965C93.7452 239.965 93.2602 240.09 92.8302 240.34C92.4002 240.59 92.0652 240.94 91.8252 241.39C91.5852 241.84 91.4652 242.355 91.4652 242.935V243.1C91.4652 243.7 91.5952 244.23 91.8552 244.69C92.1252 245.14 92.4952 245.495 92.9652 245.755C93.4452 246.005 93.9902 246.13 94.6002 246.13C95.0802 246.13 95.5252 246.045 95.9352 245.875C96.3552 245.705 96.7152 245.445 97.0152 245.095L97.6152 245.785C97.2652 246.205 96.8252 246.525 96.2952 246.745C95.7752 246.965 95.2002 247.075 94.5702 247.075ZM103.413 247.075C102.663 247.075 101.988 246.905 101.388 246.565C100.798 246.225 100.333 245.755 99.993 245.155C99.653 244.545 99.483 243.845 99.483 243.055C99.483 242.255 99.653 241.555 99.993 240.955C100.333 240.355 100.798 239.89 101.388 239.56C101.988 239.22 102.663 239.05 103.413 239.05C104.103 239.05 104.718 239.205 105.258 239.515C105.808 239.825 106.243 240.28 106.563 240.88C106.893 241.47 107.058 242.195 107.058 243.055C107.058 243.905 106.898 244.63 106.578 245.23C106.258 245.83 105.823 246.29 105.273 246.61C104.733 246.92 104.113 247.075 103.413 247.075ZM103.488 246.13C104.048 246.13 104.548 246.005 104.988 245.755C105.438 245.495 105.788 245.135 106.038 244.675C106.298 244.205 106.428 243.665 106.428 243.055C106.428 242.435 106.298 241.895 106.038 241.435C105.788 240.975 105.438 240.62 104.988 240.37C104.548 240.11 104.048 239.98 103.488 239.98C102.938 239.98 102.443 240.11 102.003 240.37C101.563 240.62 101.213 240.975 100.953 241.435C100.693 241.895 100.563 242.435 100.563 243.055C100.563 243.665 100.693 244.205 100.953 244.675C101.213 245.135 101.563 245.495 102.003 245.755C102.443 246.005 102.938 246.13 103.488 246.13ZM106.458 247V244.63L106.563 243.04L106.413 241.45V235.87H107.478V247H106.458ZM116.86 247.075C116.12 247.075 115.55 246.875 115.15 246.475C114.75 246.075 114.55 245.51 114.55 244.78V237.385H115.615V244.72C115.615 245.18 115.73 245.535 115.96 245.785C116.2 246.035 116.54 246.16 116.98 246.16C117.45 246.16 117.84 246.025 118.15 245.755L118.525 246.52C118.315 246.71 118.06 246.85 117.76 246.94C117.47 247.03 117.17 247.075 116.86 247.075ZM113.14 240.01V239.125H118.015V240.01H113.14ZM123.53 247.075C122.71 247.075 121.99 246.905 121.37 246.565C120.75 246.215 120.265 245.74 119.915 245.14C119.565 244.53 119.39 243.835 119.39 243.055C119.39 242.275 119.555 241.585 119.885 240.985C120.225 240.385 120.685 239.915 121.265 239.575C121.855 239.225 122.515 239.05 123.245 239.05C123.985 239.05 124.64 239.22 125.21 239.56C125.79 239.89 126.245 240.36 126.575 240.97C126.905 241.57 127.07 242.265 127.07 243.055C127.07 243.105 127.065 243.16 127.055 243.22C127.055 243.27 127.055 243.325 127.055 243.385H120.2V242.59H126.485L126.065 242.905C126.065 242.335 125.94 241.83 125.69 241.39C125.45 240.94 125.12 240.59 124.7 240.34C124.28 240.09 123.795 239.965 123.245 239.965C122.705 239.965 122.22 240.09 121.79 240.34C121.36 240.59 121.025 240.94 120.785 241.39C120.545 241.84 120.425 242.355 120.425 242.935V243.1C120.425 243.7 120.555 244.23 120.815 244.69C121.085 245.14 121.455 245.495 121.925 245.755C122.405 246.005 122.95 246.13 123.56 246.13C124.04 246.13 124.485 246.045 124.895 245.875C125.315 245.705 125.675 245.445 125.975 245.095L126.575 245.785C126.225 246.205 125.785 246.525 125.255 246.745C124.735 246.965 124.16 247.075 123.53 247.075ZM127.818 247L131.148 242.68L131.133 243.205L127.968 239.125H129.168L131.763 242.5L131.313 242.485L133.908 239.125H135.078L131.883 243.25L131.898 242.68L135.258 247H134.043L131.298 243.4L131.718 243.46L129.018 247H127.818ZM139.521 247.075C138.781 247.075 138.211 246.875 137.811 246.475C137.411 246.075 137.211 245.51 137.211 244.78V237.385H138.276V244.72C138.276 245.18 138.391 245.535 138.621 245.785C138.861 246.035 139.201 246.16 139.641 246.16C140.111 246.16 140.501 246.025 140.811 245.755L141.186 246.52C140.976 246.71 140.721 246.85 140.421 246.94C140.131 247.03 139.831 247.075 139.521 247.075ZM135.801 240.01V239.125H140.676V240.01H135.801Z" fill="#434343"/>
<path d="M20.56 187V175.64H16.08V173H28.28V175.64H23.8V187H20.56ZM30.5188 191.04C29.9588 191.04 29.4054 190.953 28.8588 190.78C28.3121 190.607 27.8654 190.367 27.5187 190.06L28.6588 187.84C28.8988 188.053 29.1721 188.22 29.4788 188.34C29.7988 188.46 30.1121 188.52 30.4188 188.52C30.8588 188.52 31.2054 188.413 31.4588 188.2C31.7254 188 31.9654 187.66 32.1788 187.18L32.7388 185.86L32.9788 185.52L36.8388 176.24H39.8388L34.9788 187.66C34.6321 188.527 34.2321 189.207 33.7788 189.7C33.3388 190.193 32.8454 190.54 32.2988 190.74C31.7654 190.94 31.1721 191.04 30.5188 191.04ZM32.3588 187.42L27.5587 176.24H30.7788L34.4988 185.24L32.3588 187.42ZM47.4719 187.16C46.5652 187.16 45.7719 186.96 45.0919 186.56C44.4119 186.16 43.8785 185.553 43.4919 184.74C43.1185 183.913 42.9319 182.873 42.9319 181.62C42.9319 180.353 43.1119 179.313 43.4719 178.5C43.8319 177.687 44.3519 177.08 45.0319 176.68C45.7119 176.28 46.5252 176.08 47.4719 176.08C48.4852 176.08 49.3919 176.313 50.1919 176.78C51.0052 177.233 51.6452 177.873 52.1119 178.7C52.5919 179.527 52.8319 180.5 52.8319 181.62C52.8319 182.753 52.5919 183.733 52.1119 184.56C51.6452 185.387 51.0052 186.027 50.1919 186.48C49.3919 186.933 48.4852 187.16 47.4719 187.16ZM41.1119 190.88V176.24H44.0919V178.44L44.0319 181.64L44.2319 184.82V190.88H41.1119ZM46.9319 184.6C47.4519 184.6 47.9119 184.48 48.3119 184.24C48.7252 184 49.0519 183.66 49.2919 183.22C49.5452 182.767 49.6719 182.233 49.6719 181.62C49.6719 180.993 49.5452 180.46 49.2919 180.02C49.0519 179.58 48.7252 179.24 48.3119 179C47.9119 178.76 47.4519 178.64 46.9319 178.64C46.4119 178.64 45.9452 178.76 45.5319 179C45.1185 179.24 44.7919 179.58 44.5519 180.02C44.3119 180.46 44.1919 180.993 44.1919 181.62C44.1919 182.233 44.3119 182.767 44.5519 183.22C44.7919 183.66 45.1185 184 45.5319 184.24C45.9452 184.48 46.4119 184.6 46.9319 184.6ZM60.2605 187.16C59.0338 187.16 57.9538 186.92 57.0205 186.44C56.1005 185.96 55.3871 185.307 54.8805 184.48C54.3738 183.64 54.1205 182.687 54.1205 181.62C54.1205 180.54 54.3671 179.587 54.8605 178.76C55.3671 177.92 56.0538 177.267 56.9205 176.8C57.7871 176.32 58.7671 176.08 59.8605 176.08C60.9138 176.08 61.8605 176.307 62.7005 176.76C63.5538 177.2 64.2271 177.84 64.7205 178.68C65.2138 179.507 65.4605 180.5 65.4605 181.66C65.4605 181.78 65.4538 181.92 65.4405 182.08C65.4271 182.227 65.4138 182.367 65.4005 182.5H56.6605V180.68H63.7605L62.5605 181.22C62.5605 180.66 62.4471 180.173 62.2205 179.76C61.9938 179.347 61.6805 179.027 61.2805 178.8C60.8805 178.56 60.4138 178.44 59.8805 178.44C59.3471 178.44 58.8738 178.56 58.4605 178.8C58.0605 179.027 57.7471 179.353 57.5205 179.78C57.2938 180.193 57.1805 180.687 57.1805 181.26V181.74C57.1805 182.327 57.3071 182.847 57.5605 183.3C57.8271 183.74 58.1938 184.08 58.6605 184.32C59.1405 184.547 59.7005 184.66 60.3405 184.66C60.9138 184.66 61.4138 184.573 61.8405 184.4C62.2805 184.227 62.6805 183.967 63.0405 183.62L64.7005 185.42C64.2071 185.98 63.5871 186.413 62.8405 186.72C62.0938 187.013 61.2338 187.16 60.2605 187.16ZM73.2017 187V176.24H76.3217V187H73.2017ZM74.7617 174.74C74.1884 174.74 73.7217 174.573 73.3617 174.24C73.0017 173.907 72.8217 173.493 72.8217 173C72.8217 172.507 73.0017 172.093 73.3617 171.76C73.7217 171.427 74.1884 171.26 74.7617 171.26C75.3351 171.26 75.8017 171.42 76.1617 171.74C76.5217 172.047 76.7017 172.447 76.7017 172.94C76.7017 173.46 76.5217 173.893 76.1617 174.24C75.8151 174.573 75.3484 174.74 74.7617 174.74ZM83.6173 187.16C82.3507 187.16 81.364 186.84 80.6573 186.2C79.9507 185.547 79.5973 184.58 79.5973 183.3V173.86H82.7173V183.26C82.7173 183.713 82.8373 184.067 83.0773 184.32C83.3173 184.56 83.644 184.68 84.0573 184.68C84.5507 184.68 84.9707 184.547 85.3173 184.28L86.1573 186.48C85.8373 186.707 85.4507 186.88 84.9973 187C84.5573 187.107 84.0973 187.16 83.6173 187.16ZM77.9373 178.88V176.48H85.3973V178.88H77.9373ZM100.013 187.24C98.0261 187.24 96.4728 186.687 95.3528 185.58C94.2328 184.473 93.6728 182.893 93.6728 180.84V173H96.9128V180.72C96.9128 182.053 97.1861 183.013 97.7328 183.6C98.2795 184.187 99.0461 184.48 100.033 184.48C101.019 184.48 101.786 184.187 102.333 183.6C102.879 183.013 103.153 182.053 103.153 180.72V173H106.353V180.84C106.353 182.893 105.793 184.473 104.673 185.58C103.553 186.687 101.999 187.24 100.013 187.24ZM115.695 187.16C114.788 187.16 113.995 186.96 113.315 186.56C112.635 186.16 112.101 185.553 111.715 184.74C111.341 183.913 111.155 182.873 111.155 181.62C111.155 180.353 111.335 179.313 111.695 178.5C112.055 177.687 112.575 177.08 113.255 176.68C113.935 176.28 114.748 176.08 115.695 176.08C116.708 176.08 117.615 176.313 118.415 176.78C119.228 177.233 119.868 177.873 120.335 178.7C120.815 179.527 121.055 180.5 121.055 181.62C121.055 182.753 120.815 183.733 120.335 184.56C119.868 185.387 119.228 186.027 118.415 186.48C117.615 186.933 116.708 187.16 115.695 187.16ZM109.335 190.88V176.24H112.315V178.44L112.255 181.64L112.455 184.82V190.88H109.335ZM115.155 184.6C115.675 184.6 116.135 184.48 116.535 184.24C116.948 184 117.275 183.66 117.515 183.22C117.768 182.767 117.895 182.233 117.895 181.62C117.895 180.993 117.768 180.46 117.515 180.02C117.275 179.58 116.948 179.24 116.535 179C116.135 178.76 115.675 178.64 115.155 178.64C114.635 178.64 114.168 178.76 113.755 179C113.341 179.24 113.015 179.58 112.775 180.02C112.535 180.46 112.415 180.993 112.415 181.62C112.415 182.233 112.535 182.767 112.775 183.22C113.015 183.66 113.341 184 113.755 184.24C114.168 184.48 114.635 184.6 115.155 184.6Z" fill="#434343"/>
<g filter="url(#filter1_d_87_715)">
<path d="M139.062 64.8125C138.217 64.8125 137.406 65.1582 136.809 65.7736C136.211 66.3889 135.875 67.2235 135.875 68.0938C135.875 68.964 136.211 69.7986 136.809 70.4139C137.406 71.0293 138.217 71.375 139.062 71.375H170.938C171.783 71.375 172.594 71.0293 173.191 70.4139C173.789 69.7986 174.125 68.964 174.125 68.0938C174.125 67.2235 173.789 66.3889 173.191 65.7736C172.594 65.1582 171.783 64.8125 170.938 64.8125H139.062ZM139.062 81.2188C138.217 81.2188 137.406 81.5645 136.809 82.1798C136.211 82.7952 135.875 83.6298 135.875 84.5C135.875 85.3702 136.211 86.2048 136.809 86.8202C137.406 87.4356 138.217 87.7812 139.062 87.7812H158.188C159.033 87.7812 159.844 87.4356 160.441 86.8202C161.039 86.2048 161.375 85.3702 161.375 84.5C161.375 83.6298 161.039 82.7952 160.441 82.1798C159.844 81.5645 159.033 81.2188 158.188 81.2188H139.062ZM139.062 97.625C138.217 97.625 137.406 97.9707 136.809 98.5861C136.211 99.2014 135.875 100.036 135.875 100.906C135.875 101.776 136.211 102.611 136.809 103.226C137.406 103.842 138.217 104.188 139.062 104.188H170.938C171.783 104.188 172.594 103.842 173.191 103.226C173.789 102.611 174.125 101.776 174.125 100.906C174.125 100.036 173.789 99.2014 173.191 98.5861C172.594 97.9707 171.783 97.625 170.938 97.625H139.062ZM132.688 45.125C128.461 45.125 124.407 46.8535 121.418 49.9303C118.429 53.007 116.75 57.18 116.75 61.5312V107.469C116.75 111.82 118.429 115.993 121.418 119.07C124.407 122.146 128.461 123.875 132.688 123.875H177.312C181.539 123.875 185.593 122.146 188.582 119.07C191.571 115.993 193.25 111.82 193.25 107.469V61.5312C193.25 57.18 191.571 53.007 188.582 49.9303C185.593 46.8535 181.539 45.125 177.312 45.125H132.688ZM123.125 61.5312C123.125 58.9205 124.132 56.4167 125.926 54.5707C127.719 52.7246 130.151 51.6875 132.688 51.6875H177.312C179.849 51.6875 182.281 52.7246 184.074 54.5707C185.868 56.4167 186.875 58.9205 186.875 61.5312V107.469C186.875 110.079 185.868 112.583 184.074 114.429C182.281 116.275 179.849 117.312 177.312 117.312H132.688C130.151 117.312 127.719 116.275 125.926 114.429C124.132 112.583 123.125 110.079 123.125 107.469V61.5312Z" fill="#6362E3"/>
</g>
<defs>
<filter id="filter0_di_87_715" x="0" y="0" width="314" height="342" filterUnits="userSpaceOnUse" color-interpolation-filters="sRGB">
<feFlood flood-opacity="0" result="BackgroundImageFix"/>
<feColorMatrix in="SourceAlpha" type="matrix" values="0 0 0 0 0 0 0 0 0 0 0 0 0 0 0 0 0 0 127 0" result="hardAlpha"/>
<feOffset dy="4"/>
<feGaussianBlur stdDeviation="2"/>
<feComposite in2="hardAlpha" operator="out"/>
<feColorMatrix type="matrix" values="0 0 0 0 0 0 0 0 0 0 0 0 0 0 0 0 0 0 0.25 0"/>
<feBlend mode="normal" in2="BackgroundImageFix" result="effect1_dropShadow_87_715"/>
<feBlend mode="normal" in="SourceGraphic" in2="effect1_dropShadow_87_715" result="shape"/>
<feColorMatrix in="SourceAlpha" type="matrix" values="0 0 0 0 0 0 0 0 0 0 0 0 0 0 0 0 0 0 127 0" result="hardAlpha"/>
<feOffset dy="10"/>
<feGaussianBlur stdDeviation="3"/>
<feComposite in2="hardAlpha" operator="arithmetic" k2="-1" k3="1"/>
<feColorMatrix type="matrix" values="0 0 0 0 0 0 0 0 0 0 0 0 0 0 0 0 0 0 0.25 0"/>
<feBlend mode="normal" in2="shape" result="effect2_innerShadow_87_715"/>
</filter>
<filter id="filter1_d_87_715" x="110.75" y="45.125" width="88.5" height="91.75" filterUnits="userSpaceOnUse" color-interpolation-filters="sRGB">
<feFlood flood-opacity="0" result="BackgroundImageFix"/>
<feColorMatrix in="SourceAlpha" type="matrix" values="0 0 0 0 0 0 0 0 0 0 0 0 0 0 0 0 0 0 127 0" result="hardAlpha"/>
<feOffset dy="7"/>
<feGaussianBlur stdDeviation="3"/>
<feComposite in2="hardAlpha" operator="out"/>
<feColorMatrix type="matrix" values="0 0 0 0 0 0 0 0 0 0 0 0 0 0 0 0 0 0 0.25 0"/>
<feBlend mode="normal" in2="BackgroundImageFix" result="effect1_dropShadow_87_715"/>
<feBlend mode="normal" in="SourceGraphic" in2="effect1_dropShadow_87_715" result="shape"/>
</filter>
</defs>
</svg>
