<svg width="189" height="342" viewBox="0 0 189 342" fill="none" xmlns="http://www.w3.org/2000/svg">
<g filter="url(#filter0_di_463_3515)">
<rect x="-121" width="306" height="334" rx="29" fill="#D9D9D9"/>
</g>
<path d="M-99.64 187.24C-100.72 187.24 -101.727 187.067 -102.66 186.72C-103.58 186.36 -104.38 185.853 -105.06 185.2C-105.74 184.547 -106.273 183.78 -106.66 182.9C-107.033 182.02 -107.22 181.053 -107.22 180C-107.22 178.947 -107.033 177.98 -106.66 177.1C-106.273 176.22 -105.74 175.453 -105.06 174.8C-104.367 174.147 -103.56 173.647 -102.64 173.3C-101.72 172.94 -100.713 172.76 -99.62 172.76C-98.4067 172.76 -97.3133 172.973 -96.34 173.4C-95.3533 173.813 -94.5267 174.427 -93.86 175.24L-95.94 177.16C-96.42 176.613 -96.9533 176.207 -97.54 175.94C-98.1267 175.66 -98.7667 175.52 -99.46 175.52C-100.113 175.52 -100.713 175.627 -101.26 175.84C-101.807 176.053 -102.28 176.36 -102.68 176.76C-103.08 177.16 -103.393 177.633 -103.62 178.18C-103.833 178.727 -103.94 179.333 -103.94 180C-103.94 180.667 -103.833 181.273 -103.62 181.82C-103.393 182.367 -103.08 182.84 -102.68 183.24C-102.28 183.64 -101.807 183.947 -101.26 184.16C-100.713 184.373 -100.113 184.48 -99.46 184.48C-98.7667 184.48 -98.1267 184.347 -97.54 184.08C-96.9533 183.8 -96.42 183.38 -95.94 182.82L-93.86 184.74C-94.5267 185.553 -95.3533 186.173 -96.34 186.6C-97.3133 187.027 -98.4133 187.24 -99.64 187.24ZM-87.6059 187.16C-88.4993 187.16 -89.2993 186.987 -90.0059 186.64C-90.6993 186.293 -91.2393 185.767 -91.6259 185.06C-92.0126 184.34 -92.2059 183.427 -92.2059 182.32V176.24H-89.0859V181.86C-89.0859 182.753 -88.8993 183.413 -88.5259 183.84C-88.1393 184.253 -87.5993 184.46 -86.9059 184.46C-86.4259 184.46 -85.9993 184.36 -85.6259 184.16C-85.2526 183.947 -84.9593 183.627 -84.7459 183.2C-84.5326 182.76 -84.4259 182.213 -84.4259 181.56V176.24H-81.3059V187H-84.2659V184.04L-83.7259 184.9C-84.0859 185.647 -84.6193 186.213 -85.3259 186.6C-86.0193 186.973 -86.7793 187.16 -87.6059 187.16ZM-74.7955 187.16C-75.7155 187.16 -76.6021 187.053 -77.4555 186.84C-78.2955 186.613 -78.9621 186.333 -79.4555 186L-78.4155 183.76C-77.9221 184.067 -77.3421 184.32 -76.6755 184.52C-75.9955 184.707 -75.3288 184.8 -74.6755 184.8C-73.9555 184.8 -73.4488 184.713 -73.1555 184.54C-72.8488 184.367 -72.6955 184.127 -72.6955 183.82C-72.6955 183.567 -72.8155 183.38 -73.0555 183.26C-73.2821 183.127 -73.5888 183.027 -73.9755 182.96C-74.3621 182.893 -74.7888 182.827 -75.2555 182.76C-75.7088 182.693 -76.1688 182.607 -76.6355 182.5C-77.1021 182.38 -77.5288 182.207 -77.9155 181.98C-78.3021 181.753 -78.6155 181.447 -78.8555 181.06C-79.0821 180.673 -79.1955 180.173 -79.1955 179.56C-79.1955 178.88 -79.0021 178.28 -78.6155 177.76C-78.2155 177.24 -77.6421 176.833 -76.8955 176.54C-76.1488 176.233 -75.2555 176.08 -74.2155 176.08C-73.4821 176.08 -72.7355 176.16 -71.9755 176.32C-71.2155 176.48 -70.5821 176.713 -70.0755 177.02L-71.1155 179.24C-71.6355 178.933 -72.1621 178.727 -72.6955 178.62C-73.2155 178.5 -73.7221 178.44 -74.2155 178.44C-74.9088 178.44 -75.4155 178.533 -75.7355 178.72C-76.0555 178.907 -76.2155 179.147 -76.2155 179.44C-76.2155 179.707 -76.1021 179.907 -75.8755 180.04C-75.6355 180.173 -75.3221 180.28 -74.9355 180.36C-74.5488 180.44 -74.1288 180.513 -73.6755 180.58C-73.2088 180.633 -72.7421 180.72 -72.2755 180.84C-71.8088 180.96 -71.3888 181.133 -71.0155 181.36C-70.6288 181.573 -70.3155 181.873 -70.0755 182.26C-69.8355 182.633 -69.7155 183.127 -69.7155 183.74C-69.7155 184.407 -69.9155 185 -70.3155 185.52C-70.7155 186.027 -71.2955 186.427 -72.0555 186.72C-72.8021 187.013 -73.7155 187.16 -74.7955 187.16ZM-63.3905 187.16C-64.6571 187.16 -65.6438 186.84 -66.3505 186.2C-67.0571 185.547 -67.4105 184.58 -67.4105 183.3V173.86H-64.2905V183.26C-64.2905 183.713 -64.1705 184.067 -63.9305 184.32C-63.6905 184.56 -63.3638 184.68 -62.9505 184.68C-62.4571 184.68 -62.0371 184.547 -61.6905 184.28L-60.8505 186.48C-61.1705 186.707 -61.5571 186.88 -62.0105 187C-62.4505 187.107 -62.9105 187.16 -63.3905 187.16ZM-69.0705 178.88V176.48H-61.6105V178.88H-69.0705ZM-54.3111 187.16C-55.4578 187.16 -56.4778 186.92 -57.3711 186.44C-58.2511 185.96 -58.9511 185.307 -59.4711 184.48C-59.9778 183.64 -60.2311 182.687 -60.2311 181.62C-60.2311 180.54 -59.9778 179.587 -59.4711 178.76C-58.9511 177.92 -58.2511 177.267 -57.3711 176.8C-56.4778 176.32 -55.4578 176.08 -54.3111 176.08C-53.1778 176.08 -52.1644 176.32 -51.2711 176.8C-50.3778 177.267 -49.6778 177.913 -49.1711 178.74C-48.6644 179.567 -48.4111 180.527 -48.4111 181.62C-48.4111 182.687 -48.6644 183.64 -49.1711 184.48C-49.6778 185.307 -50.3778 185.96 -51.2711 186.44C-52.1644 186.92 -53.1778 187.16 -54.3111 187.16ZM-54.3111 184.6C-53.7911 184.6 -53.3244 184.48 -52.9111 184.24C-52.4978 184 -52.1711 183.66 -51.9311 183.22C-51.6911 182.767 -51.5711 182.233 -51.5711 181.62C-51.5711 180.993 -51.6911 180.46 -51.9311 180.02C-52.1711 179.58 -52.4978 179.24 -52.9111 179C-53.3244 178.76 -53.7911 178.64 -54.3111 178.64C-54.8311 178.64 -55.2978 178.76 -55.7111 179C-56.1244 179.24 -56.4578 179.58 -56.7111 180.02C-56.9511 180.46 -57.0711 180.993 -57.0711 181.62C-57.0711 182.233 -56.9511 182.767 -56.7111 183.22C-56.4578 183.66 -56.1244 184 -55.7111 184.24C-55.2978 184.48 -54.8311 184.6 -54.3111 184.6ZM-32.5456 176.08C-31.6923 176.08 -30.939 176.253 -30.2856 176.6C-29.619 176.933 -29.099 177.453 -28.7256 178.16C-28.339 178.853 -28.1456 179.747 -28.1456 180.84V187H-31.2656V181.32C-31.2656 180.453 -31.4456 179.813 -31.8056 179.4C-32.1656 178.987 -32.6723 178.78 -33.3256 178.78C-33.779 178.78 -34.1856 178.887 -34.5456 179.1C-34.9056 179.3 -35.1856 179.607 -35.3856 180.02C-35.5856 180.433 -35.6856 180.96 -35.6856 181.6V187H-38.8056V181.32C-38.8056 180.453 -38.9856 179.813 -39.3456 179.4C-39.6923 178.987 -40.1923 178.78 -40.8456 178.78C-41.299 178.78 -41.7056 178.887 -42.0656 179.1C-42.4256 179.3 -42.7056 179.607 -42.9056 180.02C-43.1056 180.433 -43.2056 180.96 -43.2056 181.6V187H-46.3256V176.24H-43.3456V179.18L-43.9056 178.32C-43.5323 177.587 -43.0056 177.033 -42.3256 176.66C-41.6323 176.273 -40.8456 176.08 -39.9656 176.08C-38.979 176.08 -38.119 176.333 -37.3856 176.84C-36.639 177.333 -36.1456 178.093 -35.9056 179.12L-37.0056 178.82C-36.6456 177.98 -36.0723 177.313 -35.2856 176.82C-34.4856 176.327 -33.5723 176.08 -32.5456 176.08ZM-15.285 187.16C-16.5517 187.16 -17.5383 186.84 -18.245 186.2C-18.9517 185.547 -19.305 184.58 -19.305 183.3V173.86H-16.185V183.26C-16.185 183.713 -16.065 184.067 -15.825 184.32C-15.585 184.56 -15.2583 184.68 -14.845 184.68C-14.3517 184.68 -13.9317 184.547 -13.585 184.28L-12.745 186.48C-13.065 186.707 -13.4517 186.88 -13.905 187C-14.345 187.107 -14.805 187.16 -15.285 187.16ZM-20.965 178.88V176.48H-13.505V178.88H-20.965ZM-4.45359 176.08C-3.60026 176.08 -2.84026 176.253 -2.17359 176.6C-1.49359 176.933 -0.96026 177.453 -0.573593 178.16C-0.186926 178.853 0.00640702 179.747 0.00640702 180.84V187H-3.11359V181.32C-3.11359 180.453 -3.30693 179.813 -3.69359 179.4C-4.06693 178.987 -4.60026 178.78 -5.29359 178.78C-5.78693 178.78 -6.23359 178.887 -6.63359 179.1C-7.02026 179.3 -7.32693 179.613 -7.55359 180.04C-7.76693 180.467 -7.87359 181.013 -7.87359 181.68V187H-10.9936V172.16H-7.87359V179.22L-8.57359 178.32C-8.18693 177.6 -7.63359 177.047 -6.91359 176.66C-6.19359 176.273 -5.37359 176.08 -4.45359 176.08ZM8.25266 187.16C7.02599 187.16 5.94599 186.92 5.01266 186.44C4.09266 185.96 3.37932 185.307 2.87266 184.48C2.36599 183.64 2.11266 182.687 2.11266 181.62C2.11266 180.54 2.35932 179.587 2.85266 178.76C3.35932 177.92 4.04599 177.267 4.91266 176.8C5.77932 176.32 6.75932 176.08 7.85266 176.08C8.90599 176.08 9.85266 176.307 10.6927 176.76C11.546 177.2 12.2193 177.84 12.7127 178.68C13.206 179.507 13.4527 180.5 13.4527 181.66C13.4527 181.78 13.446 181.92 13.4327 182.08C13.4193 182.227 13.406 182.367 13.3927 182.5H4.65266V180.68H11.7527L10.5527 181.22C10.5527 180.66 10.4393 180.173 10.2127 179.76C9.98599 179.347 9.67266 179.027 9.27266 178.8C8.87266 178.56 8.40599 178.44 7.87266 178.44C7.33932 178.44 6.86599 178.56 6.45266 178.8C6.05266 179.027 5.73932 179.353 5.51266 179.78C5.28599 180.193 5.17266 180.687 5.17266 181.26V181.74C5.17266 182.327 5.29932 182.847 5.55266 183.3C5.81932 183.74 6.18599 184.08 6.65266 184.32C7.13266 184.547 7.69266 184.66 8.33266 184.66C8.90599 184.66 9.40599 184.573 9.83266 184.4C10.2727 184.227 10.6727 183.967 11.0327 183.62L12.6927 185.42C12.1993 185.98 11.5793 186.413 10.8327 186.72C10.086 187.013 9.22599 187.16 8.25266 187.16ZM25.7739 187.16C24.7606 187.16 23.8472 186.933 23.0339 186.48C22.2206 186.027 21.5739 185.387 21.0939 184.56C20.6272 183.733 20.3939 182.753 20.3939 181.62C20.3939 180.5 20.6272 179.527 21.0939 178.7C21.5739 177.873 22.2206 177.233 23.0339 176.78C23.8472 176.313 24.7606 176.08 25.7739 176.08C26.7206 176.08 27.5272 176.28 28.1939 176.68C28.8739 177.08 29.3939 177.687 29.7539 178.5C30.1139 179.313 30.2939 180.353 30.2939 181.62C30.2939 182.873 30.1072 183.913 29.7339 184.74C29.3606 185.553 28.8339 186.16 28.1539 186.56C27.4739 186.96 26.6806 187.16 25.7739 187.16ZM26.3139 184.6C26.8206 184.6 27.2806 184.48 27.6939 184.24C28.1072 184 28.4339 183.66 28.6739 183.22C28.9272 182.767 29.0539 182.233 29.0539 181.62C29.0539 180.993 28.9272 180.46 28.6739 180.02C28.4339 179.58 28.1072 179.24 27.6939 179C27.2806 178.76 26.8206 178.64 26.3139 178.64C25.7939 178.64 25.3272 178.76 24.9139 179C24.5006 179.24 24.1672 179.58 23.9139 180.02C23.6739 180.46 23.5539 180.993 23.5539 181.62C23.5539 182.233 23.6739 182.767 23.9139 183.22C24.1672 183.66 24.5006 184 24.9139 184.24C25.3272 184.48 25.7939 184.6 26.3139 184.6ZM28.9939 190.88V184.82L29.1939 181.64L29.1339 178.44V176.24H32.1139V190.88H28.9939ZM39.5425 187.16C38.6492 187.16 37.8492 186.987 37.1425 186.64C36.4492 186.293 35.9092 185.767 35.5225 185.06C35.1358 184.34 34.9425 183.427 34.9425 182.32V176.24H38.0625V181.86C38.0625 182.753 38.2492 183.413 38.6225 183.84C39.0092 184.253 39.5492 184.46 40.2425 184.46C40.7225 184.46 41.1492 184.36 41.5225 184.16C41.8958 183.947 42.1892 183.627 42.4025 183.2C42.6158 182.76 42.7225 182.213 42.7225 181.56V176.24H45.8425V187H42.8825V184.04L43.4225 184.9C43.0625 185.647 42.5292 186.213 41.8225 186.6C41.1292 186.973 40.3692 187.16 39.5425 187.16ZM54.073 187.16C52.8463 187.16 51.7663 186.92 50.833 186.44C49.913 185.96 49.1996 185.307 48.693 184.48C48.1863 183.64 47.933 182.687 47.933 181.62C47.933 180.54 48.1796 179.587 48.673 178.76C49.1796 177.92 49.8663 177.267 50.733 176.8C51.5996 176.32 52.5796 176.08 53.673 176.08C54.7263 176.08 55.673 176.307 56.513 176.76C57.3663 177.2 58.0396 177.84 58.533 178.68C59.0263 179.507 59.273 180.5 59.273 181.66C59.273 181.78 59.2663 181.92 59.253 182.08C59.2396 182.227 59.2263 182.367 59.213 182.5H50.473V180.68H57.573L56.373 181.22C56.373 180.66 56.2596 180.173 56.033 179.76C55.8063 179.347 55.493 179.027 55.093 178.8C54.693 178.56 54.2263 178.44 53.693 178.44C53.1596 178.44 52.6863 178.56 52.273 178.8C51.873 179.027 51.5596 179.353 51.333 179.78C51.1063 180.193 50.993 180.687 50.993 181.26V181.74C50.993 182.327 51.1196 182.847 51.373 183.3C51.6396 183.74 52.0063 184.08 52.473 184.32C52.953 184.547 53.513 184.66 54.153 184.66C54.7263 184.66 55.2263 184.573 55.653 184.4C56.093 184.227 56.493 183.967 56.853 183.62L58.513 185.42C58.0196 185.98 57.3996 186.413 56.653 186.72C55.9063 187.013 55.0463 187.16 54.073 187.16ZM64.9702 187.16C64.0502 187.16 63.1635 187.053 62.3102 186.84C61.4702 186.613 60.8035 186.333 60.3102 186L61.3502 183.76C61.8435 184.067 62.4235 184.32 63.0902 184.52C63.7702 184.707 64.4368 184.8 65.0902 184.8C65.8102 184.8 66.3168 184.713 66.6102 184.54C66.9168 184.367 67.0702 184.127 67.0702 183.82C67.0702 183.567 66.9502 183.38 66.7102 183.26C66.4835 183.127 66.1768 183.027 65.7902 182.96C65.4035 182.893 64.9768 182.827 64.5102 182.76C64.0568 182.693 63.5968 182.607 63.1302 182.5C62.6635 182.38 62.2368 182.207 61.8502 181.98C61.4635 181.753 61.1502 181.447 60.9102 181.06C60.6835 180.673 60.5702 180.173 60.5702 179.56C60.5702 178.88 60.7635 178.28 61.1502 177.76C61.5502 177.24 62.1235 176.833 62.8702 176.54C63.6168 176.233 64.5102 176.08 65.5502 176.08C66.2835 176.08 67.0302 176.16 67.7902 176.32C68.5502 176.48 69.1835 176.713 69.6902 177.02L68.6502 179.24C68.1302 178.933 67.6035 178.727 67.0702 178.62C66.5502 178.5 66.0435 178.44 65.5502 178.44C64.8568 178.44 64.3502 178.533 64.0302 178.72C63.7102 178.907 63.5502 179.147 63.5502 179.44C63.5502 179.707 63.6635 179.907 63.8902 180.04C64.1302 180.173 64.4435 180.28 64.8302 180.36C65.2168 180.44 65.6368 180.513 66.0902 180.58C66.5568 180.633 67.0235 180.72 67.4902 180.84C67.9568 180.96 68.3768 181.133 68.7502 181.36C69.1368 181.573 69.4502 181.873 69.6902 182.26C69.9302 182.633 70.0502 183.127 70.0502 183.74C70.0502 184.407 69.8502 185 69.4502 185.52C69.0502 186.027 68.4702 186.427 67.7102 186.72C66.9635 187.013 66.0502 187.16 64.9702 187.16ZM76.3752 187.16C75.1085 187.16 74.1218 186.84 73.4152 186.2C72.7085 185.547 72.3552 184.58 72.3552 183.3V173.86H75.4752V183.26C75.4752 183.713 75.5952 184.067 75.8352 184.32C76.0752 184.56 76.4018 184.68 76.8152 184.68C77.3085 184.68 77.7285 184.547 78.0752 184.28L78.9152 186.48C78.5952 186.707 78.2085 186.88 77.7552 187C77.3152 187.107 76.8552 187.16 76.3752 187.16ZM70.6952 178.88V176.48H78.1552V178.88H70.6952ZM80.6666 187V176.24H83.7866V187H80.6666ZM82.2266 174.74C81.6532 174.74 81.1866 174.573 80.8266 174.24C80.4666 173.907 80.2866 173.493 80.2866 173C80.2866 172.507 80.4666 172.093 80.8266 171.76C81.1866 171.427 81.6532 171.26 82.2266 171.26C82.7999 171.26 83.2666 171.42 83.6266 171.74C83.9866 172.047 84.1666 172.447 84.1666 172.94C84.1666 173.46 83.9866 173.893 83.6266 174.24C83.2799 174.573 82.8132 174.74 82.2266 174.74ZM91.8022 187.16C90.6555 187.16 89.6355 186.92 88.7422 186.44C87.8622 185.96 87.1622 185.307 86.6422 184.48C86.1355 183.64 85.8822 182.687 85.8822 181.62C85.8822 180.54 86.1355 179.587 86.6422 178.76C87.1622 177.92 87.8622 177.267 88.7422 176.8C89.6355 176.32 90.6555 176.08 91.8022 176.08C92.9355 176.08 93.9489 176.32 94.8422 176.8C95.7355 177.267 96.4355 177.913 96.9422 178.74C97.4489 179.567 97.7022 180.527 97.7022 181.62C97.7022 182.687 97.4489 183.64 96.9422 184.48C96.4355 185.307 95.7355 185.96 94.8422 186.44C93.9489 186.92 92.9355 187.16 91.8022 187.16ZM91.8022 184.6C92.3222 184.6 92.7889 184.48 93.2022 184.24C93.6155 184 93.9422 183.66 94.1822 183.22C94.4222 182.767 94.5422 182.233 94.5422 181.62C94.5422 180.993 94.4222 180.46 94.1822 180.02C93.9422 179.58 93.6155 179.24 93.2022 179C92.7889 178.76 92.3222 178.64 91.8022 178.64C91.2822 178.64 90.8155 178.76 90.4022 179C89.9889 179.24 89.6555 179.58 89.4022 180.02C89.1622 180.46 89.0422 180.993 89.0422 181.62C89.0422 182.233 89.1622 182.767 89.4022 183.22C89.6555 183.66 89.9889 184 90.4022 184.24C90.8155 184.48 91.2822 184.6 91.8022 184.6ZM106.328 176.08C107.181 176.08 107.941 176.253 108.608 176.6C109.288 176.933 109.821 177.453 110.208 178.16C110.594 178.853 110.788 179.747 110.788 180.84V187H107.668V181.32C107.668 180.453 107.474 179.813 107.088 179.4C106.714 178.987 106.181 178.78 105.488 178.78C104.994 178.78 104.548 178.887 104.148 179.1C103.761 179.3 103.454 179.613 103.228 180.04C103.014 180.467 102.908 181.013 102.908 181.68V187H99.7877V176.24H102.768V179.22L102.208 178.32C102.594 177.6 103.148 177.047 103.868 176.66C104.588 176.273 105.408 176.08 106.328 176.08ZM123.68 187.16C122.413 187.16 121.427 186.84 120.72 186.2C120.013 185.547 119.66 184.58 119.66 183.3V173.86H122.78V183.26C122.78 183.713 122.9 184.067 123.14 184.32C123.38 184.56 123.707 184.68 124.12 184.68C124.613 184.68 125.033 184.547 125.38 184.28L126.22 186.48C125.9 186.707 125.513 186.88 125.06 187C124.62 187.107 124.16 187.16 123.68 187.16ZM118 178.88V176.48H125.46V178.88H118ZM129.136 191.04C128.576 191.04 128.023 190.953 127.476 190.78C126.929 190.607 126.483 190.367 126.136 190.06L127.276 187.84C127.516 188.053 127.789 188.22 128.096 188.34C128.416 188.46 128.729 188.52 129.036 188.52C129.476 188.52 129.823 188.413 130.076 188.2C130.343 188 130.583 187.66 130.796 187.18L131.356 185.86L131.596 185.52L135.456 176.24H138.456L133.596 187.66C133.249 188.527 132.849 189.207 132.396 189.7C131.956 190.193 131.463 190.54 130.916 190.74C130.383 190.94 129.789 191.04 129.136 191.04ZM130.976 187.42L126.176 176.24H129.396L133.116 185.24L130.976 187.42ZM146.089 187.16C145.182 187.16 144.389 186.96 143.709 186.56C143.029 186.16 142.496 185.553 142.109 184.74C141.736 183.913 141.549 182.873 141.549 181.62C141.549 180.353 141.729 179.313 142.089 178.5C142.449 177.687 142.969 177.08 143.649 176.68C144.329 176.28 145.142 176.08 146.089 176.08C147.102 176.08 148.009 176.313 148.809 176.78C149.622 177.233 150.262 177.873 150.729 178.7C151.209 179.527 151.449 180.5 151.449 181.62C151.449 182.753 151.209 183.733 150.729 184.56C150.262 185.387 149.622 186.027 148.809 186.48C148.009 186.933 147.102 187.16 146.089 187.16ZM139.729 190.88V176.24H142.709V178.44L142.649 181.64L142.849 184.82V190.88H139.729ZM145.549 184.6C146.069 184.6 146.529 184.48 146.929 184.24C147.342 184 147.669 183.66 147.909 183.22C148.162 182.767 148.289 182.233 148.289 181.62C148.289 180.993 148.162 180.46 147.909 180.02C147.669 179.58 147.342 179.24 146.929 179C146.529 178.76 146.069 178.64 145.549 178.64C145.029 178.64 144.562 178.76 144.149 179C143.736 179.24 143.409 179.58 143.169 180.02C142.929 180.46 142.809 180.993 142.809 181.62C142.809 182.233 142.929 182.767 143.169 183.22C143.409 183.66 143.736 184 144.149 184.24C144.562 184.48 145.029 184.6 145.549 184.6ZM158.878 187.16C157.651 187.16 156.571 186.92 155.638 186.44C154.718 185.96 154.004 185.307 153.498 184.48C152.991 183.64 152.738 182.687 152.738 181.62C152.738 180.54 152.984 179.587 153.478 178.76C153.984 177.92 154.671 177.267 155.538 176.8C156.404 176.32 157.384 176.08 158.478 176.08C159.531 176.08 160.478 176.307 161.318 176.76C162.171 177.2 162.844 177.84 163.338 178.68C163.831 179.507 164.078 180.5 164.078 181.66C164.078 181.78 164.071 181.92 164.058 182.08C164.044 182.227 164.031 182.367 164.018 182.5H155.278V180.68H162.378L161.178 181.22C161.178 180.66 161.064 180.173 160.838 179.76C160.611 179.347 160.298 179.027 159.898 178.8C159.498 178.56 159.031 178.44 158.498 178.44C157.964 178.44 157.491 178.56 157.078 178.8C156.678 179.027 156.364 179.353 156.138 179.78C155.911 180.193 155.798 180.687 155.798 181.26V181.74C155.798 182.327 155.924 182.847 156.178 183.3C156.444 183.74 156.811 184.08 157.278 184.32C157.758 184.547 158.318 184.66 158.958 184.66C159.531 184.66 160.031 184.573 160.458 184.4C160.898 184.227 161.298 183.967 161.658 183.62L163.318 185.42C162.824 185.98 162.204 186.413 161.458 186.72C160.711 187.013 159.851 187.16 158.878 187.16Z" fill="#434343"/>
<path d="M-103.785 229V225.1L-103.53 225.79L-107.985 218.5H-106.8L-102.885 224.905H-103.515L-99.6 218.5H-98.49L-102.945 225.79L-102.69 225.1V229H-103.785ZM-94.6771 229.075C-95.4371 229.075 -96.1221 228.905 -96.7321 228.565C-97.3321 228.215 -97.8071 227.74 -98.1571 227.14C-98.5071 226.53 -98.6821 225.835 -98.6821 225.055C-98.6821 224.265 -98.5071 223.57 -98.1571 222.97C-97.8071 222.37 -97.3321 221.9 -96.7321 221.56C-96.1321 221.22 -95.4471 221.05 -94.6771 221.05C-93.8971 221.05 -93.2071 221.22 -92.6071 221.56C-91.9971 221.9 -91.5221 222.37 -91.1821 222.97C-90.8321 223.57 -90.6571 224.265 -90.6571 225.055C-90.6571 225.835 -90.8321 226.53 -91.1821 227.14C-91.5221 227.74 -91.9971 228.215 -92.6071 228.565C-93.2171 228.905 -93.9071 229.075 -94.6771 229.075ZM-94.6771 228.13C-94.1071 228.13 -93.6021 228.005 -93.1621 227.755C-92.7221 227.495 -92.3771 227.135 -92.1271 226.675C-91.8671 226.205 -91.7371 225.665 -91.7371 225.055C-91.7371 224.435 -91.8671 223.895 -92.1271 223.435C-92.3771 222.975 -92.7221 222.62 -93.1621 222.37C-93.6021 222.11 -94.1021 221.98 -94.6621 221.98C-95.2221 221.98 -95.7221 222.11 -96.1621 222.37C-96.6021 222.62 -96.9521 222.975 -97.2121 223.435C-97.4721 223.895 -97.6021 224.435 -97.6021 225.055C-97.6021 225.665 -97.4721 226.205 -97.2121 226.675C-96.9521 227.135 -96.6021 227.495 -96.1621 227.755C-95.7221 228.005 -95.2271 228.13 -94.6771 228.13ZM-85.2278 229.075C-85.8978 229.075 -86.4828 228.95 -86.9828 228.7C-87.4828 228.45 -87.8728 228.075 -88.1528 227.575C-88.4228 227.075 -88.5578 226.45 -88.5578 225.7V221.125H-87.4928V225.58C-87.4928 226.42 -87.2878 227.055 -86.8778 227.485C-86.4578 227.905 -85.8728 228.115 -85.1228 228.115C-84.5728 228.115 -84.0978 228.005 -83.6978 227.785C-83.2878 227.555 -82.9778 227.225 -82.7678 226.795C-82.5478 226.365 -82.4378 225.85 -82.4378 225.25V221.125H-81.3728V229H-82.3928V226.84L-82.2278 227.23C-82.4778 227.81 -82.8678 228.265 -83.3978 228.595C-83.9178 228.915 -84.5278 229.075 -85.2278 229.075ZM-71.2089 229.075C-71.9889 229.075 -72.6889 228.905 -73.3089 228.565C-73.9189 228.215 -74.3989 227.74 -74.7489 227.14C-75.0989 226.53 -75.2739 225.835 -75.2739 225.055C-75.2739 224.265 -75.0989 223.57 -74.7489 222.97C-74.3989 222.37 -73.9189 221.9 -73.3089 221.56C-72.6889 221.22 -71.9889 221.05 -71.2089 221.05C-70.5389 221.05 -69.9339 221.18 -69.3939 221.44C-68.8539 221.7 -68.4289 222.09 -68.1189 222.61L-68.9139 223.15C-69.1839 222.75 -69.5189 222.455 -69.9189 222.265C-70.3189 222.075 -70.7539 221.98 -71.2239 221.98C-71.7839 221.98 -72.2889 222.11 -72.7389 222.37C-73.1889 222.62 -73.5439 222.975 -73.8039 223.435C-74.0639 223.895 -74.1939 224.435 -74.1939 225.055C-74.1939 225.675 -74.0639 226.215 -73.8039 226.675C-73.5439 227.135 -73.1889 227.495 -72.7389 227.755C-72.2889 228.005 -71.7839 228.13 -71.2239 228.13C-70.7539 228.13 -70.3189 228.035 -69.9189 227.845C-69.5189 227.655 -69.1839 227.365 -68.9139 226.975L-68.1189 227.515C-68.4289 228.025 -68.8539 228.415 -69.3939 228.685C-69.9339 228.945 -70.5389 229.075 -71.2089 229.075ZM-61.0917 229V227.26L-61.1367 226.975V224.065C-61.1367 223.395 -61.3267 222.88 -61.7067 222.52C-62.0767 222.16 -62.6317 221.98 -63.3717 221.98C-63.8817 221.98 -64.3667 222.065 -64.8267 222.235C-65.2867 222.405 -65.6767 222.63 -65.9967 222.91L-66.4767 222.115C-66.0767 221.775 -65.5967 221.515 -65.0367 221.335C-64.4767 221.145 -63.8867 221.05 -63.2667 221.05C-62.2467 221.05 -61.4617 221.305 -60.9117 221.815C-60.3517 222.315 -60.0717 223.08 -60.0717 224.11V229H-61.0917ZM-63.8067 229.075C-64.3967 229.075 -64.9117 228.98 -65.3517 228.79C-65.7817 228.59 -66.1117 228.32 -66.3417 227.98C-66.5717 227.63 -66.6867 227.23 -66.6867 226.78C-66.6867 226.37 -66.5917 226 -66.4017 225.67C-66.2017 225.33 -65.8817 225.06 -65.4417 224.86C-64.9917 224.65 -64.3917 224.545 -63.6417 224.545H-60.9267V225.34H-63.6117C-64.3717 225.34 -64.9017 225.475 -65.2017 225.745C-65.4917 226.015 -65.6367 226.35 -65.6367 226.75C-65.6367 227.2 -65.4617 227.56 -65.1117 227.83C-64.7617 228.1 -64.2717 228.235 -63.6417 228.235C-63.0417 228.235 -62.5267 228.1 -62.0967 227.83C-61.6567 227.55 -61.3367 227.15 -61.1367 226.63L-60.8967 227.365C-61.0967 227.885 -61.4467 228.3 -61.9467 228.61C-62.4367 228.92 -63.0567 229.075 -63.8067 229.075ZM-53.1591 221.05C-52.5191 221.05 -51.9591 221.175 -51.4791 221.425C-50.9891 221.665 -50.6091 222.035 -50.3391 222.535C-50.0591 223.035 -49.9191 223.665 -49.9191 224.425V229H-50.9841V224.53C-50.9841 223.7 -51.1941 223.075 -51.6141 222.655C-52.0241 222.225 -52.6041 222.01 -53.3541 222.01C-53.9141 222.01 -54.4041 222.125 -54.8241 222.355C-55.2341 222.575 -55.5541 222.9 -55.7841 223.33C-56.0041 223.75 -56.1141 224.26 -56.1141 224.86V229H-57.1791V221.125H-56.1591V223.285L-56.3241 222.88C-56.0741 222.31 -55.6741 221.865 -55.1241 221.545C-54.5741 221.215 -53.9191 221.05 -53.1591 221.05ZM-41.0016 229.075C-41.6516 229.075 -42.2666 228.985 -42.8466 228.805C-43.4266 228.615 -43.8816 228.38 -44.2116 228.1L-43.7316 227.26C-43.4116 227.5 -43.0016 227.71 -42.5016 227.89C-42.0016 228.06 -41.4766 228.145 -40.9266 228.145C-40.1766 228.145 -39.6366 228.03 -39.3066 227.8C-38.9766 227.56 -38.8116 227.245 -38.8116 226.855C-38.8116 226.565 -38.9066 226.34 -39.0966 226.18C-39.2766 226.01 -39.5166 225.885 -39.8166 225.805C-40.1166 225.715 -40.4516 225.64 -40.8216 225.58C-41.1916 225.52 -41.5616 225.45 -41.9316 225.37C-42.2916 225.29 -42.6216 225.175 -42.9216 225.025C-43.2216 224.865 -43.4666 224.65 -43.6566 224.38C-43.8366 224.11 -43.9266 223.75 -43.9266 223.3C-43.9266 222.87 -43.8066 222.485 -43.5666 222.145C-43.3266 221.805 -42.9766 221.54 -42.5166 221.35C-42.0466 221.15 -41.4766 221.05 -40.8066 221.05C-40.2966 221.05 -39.7866 221.12 -39.2766 221.26C-38.7666 221.39 -38.3466 221.565 -38.0166 221.785L-38.4816 222.64C-38.8316 222.4 -39.2066 222.23 -39.6066 222.13C-40.0066 222.02 -40.4066 221.965 -40.8066 221.965C-41.5166 221.965 -42.0416 222.09 -42.3816 222.34C-42.7116 222.58 -42.8766 222.89 -42.8766 223.27C-42.8766 223.57 -42.7866 223.805 -42.6066 223.975C-42.4166 224.145 -42.1716 224.28 -41.8716 224.38C-41.5616 224.47 -41.2266 224.545 -40.8666 224.605C-40.4966 224.665 -40.1316 224.74 -39.7716 224.83C-39.4016 224.91 -39.0666 225.025 -38.7666 225.175C-38.4566 225.315 -38.2116 225.52 -38.0316 225.79C-37.8416 226.05 -37.7466 226.395 -37.7466 226.825C-37.7466 227.285 -37.8766 227.685 -38.1366 228.025C-38.3866 228.355 -38.7566 228.615 -39.2466 228.805C-39.7266 228.985 -40.3116 229.075 -41.0016 229.075ZM-32.4473 229.075C-33.2673 229.075 -33.9873 228.905 -34.6073 228.565C-35.2273 228.215 -35.7123 227.74 -36.0623 227.14C-36.4123 226.53 -36.5873 225.835 -36.5873 225.055C-36.5873 224.275 -36.4223 223.585 -36.0923 222.985C-35.7523 222.385 -35.2923 221.915 -34.7123 221.575C-34.1223 221.225 -33.4623 221.05 -32.7323 221.05C-31.9923 221.05 -31.3373 221.22 -30.7673 221.56C-30.1873 221.89 -29.7323 222.36 -29.4023 222.97C-29.0723 223.57 -28.9073 224.265 -28.9073 225.055C-28.9073 225.105 -28.9123 225.16 -28.9223 225.22C-28.9223 225.27 -28.9223 225.325 -28.9223 225.385H-35.7773V224.59H-29.4923L-29.9123 224.905C-29.9123 224.335 -30.0373 223.83 -30.2873 223.39C-30.5273 222.94 -30.8573 222.59 -31.2773 222.34C-31.6973 222.09 -32.1823 221.965 -32.7323 221.965C-33.2723 221.965 -33.7573 222.09 -34.1873 222.34C-34.6173 222.59 -34.9523 222.94 -35.1923 223.39C-35.4323 223.84 -35.5523 224.355 -35.5523 224.935V225.1C-35.5523 225.7 -35.4223 226.23 -35.1623 226.69C-34.8923 227.14 -34.5223 227.495 -34.0523 227.755C-33.5723 228.005 -33.0273 228.13 -32.4173 228.13C-31.9373 228.13 -31.4923 228.045 -31.0823 227.875C-30.6623 227.705 -30.3023 227.445 -30.0023 227.095L-29.4023 227.785C-29.7523 228.205 -30.1923 228.525 -30.7223 228.745C-31.2423 228.965 -31.8173 229.075 -32.4473 229.075ZM-26.7396 229V217.87H-25.6746V229H-26.7396ZM-19.3663 229.075C-20.1863 229.075 -20.9063 228.905 -21.5263 228.565C-22.1463 228.215 -22.6313 227.74 -22.9813 227.14C-23.3313 226.53 -23.5063 225.835 -23.5063 225.055C-23.5063 224.275 -23.3413 223.585 -23.0113 222.985C-22.6713 222.385 -22.2113 221.915 -21.6313 221.575C-21.0413 221.225 -20.3813 221.05 -19.6513 221.05C-18.9113 221.05 -18.2563 221.22 -17.6863 221.56C-17.1063 221.89 -16.6513 222.36 -16.3213 222.97C-15.9913 223.57 -15.8263 224.265 -15.8263 225.055C-15.8263 225.105 -15.8313 225.16 -15.8413 225.22C-15.8413 225.27 -15.8413 225.325 -15.8413 225.385H-22.6963V224.59H-16.4113L-16.8313 224.905C-16.8313 224.335 -16.9563 223.83 -17.2063 223.39C-17.4463 222.94 -17.7763 222.59 -18.1963 222.34C-18.6163 222.09 -19.1013 221.965 -19.6513 221.965C-20.1913 221.965 -20.6763 222.09 -21.1063 222.34C-21.5363 222.59 -21.8713 222.94 -22.1113 223.39C-22.3513 223.84 -22.4713 224.355 -22.4713 224.935V225.1C-22.4713 225.7 -22.3413 226.23 -22.0813 226.69C-21.8113 227.14 -21.4413 227.495 -20.9713 227.755C-20.4913 228.005 -19.9463 228.13 -19.3363 228.13C-18.8563 228.13 -18.4113 228.045 -18.0013 227.875C-17.5813 227.705 -17.2213 227.445 -16.9213 227.095L-16.3213 227.785C-16.6713 228.205 -17.1113 228.525 -17.6413 228.745C-18.1613 228.965 -18.7363 229.075 -19.3663 229.075ZM-10.3886 229.075C-11.1686 229.075 -11.8686 228.905 -12.4886 228.565C-13.0986 228.215 -13.5786 227.74 -13.9286 227.14C-14.2786 226.53 -14.4536 225.835 -14.4536 225.055C-14.4536 224.265 -14.2786 223.57 -13.9286 222.97C-13.5786 222.37 -13.0986 221.9 -12.4886 221.56C-11.8686 221.22 -11.1686 221.05 -10.3886 221.05C-9.71855 221.05 -9.11355 221.18 -8.57355 221.44C-8.03355 221.7 -7.60855 222.09 -7.29855 222.61L-8.09355 223.15C-8.36355 222.75 -8.69855 222.455 -9.09855 222.265C-9.49855 222.075 -9.93355 221.98 -10.4036 221.98C-10.9636 221.98 -11.4686 222.11 -11.9186 222.37C-12.3686 222.62 -12.7236 222.975 -12.9836 223.435C-13.2436 223.895 -13.3736 224.435 -13.3736 225.055C-13.3736 225.675 -13.2436 226.215 -12.9836 226.675C-12.7236 227.135 -12.3686 227.495 -11.9186 227.755C-11.4686 228.005 -10.9636 228.13 -10.4036 228.13C-9.93355 228.13 -9.49855 228.035 -9.09855 227.845C-8.69855 227.655 -8.36355 227.365 -8.09355 226.975L-7.29855 227.515C-7.60855 228.025 -8.03355 228.415 -8.57355 228.685C-9.11355 228.945 -9.71855 229.075 -10.3886 229.075ZM-2.62852 229.075C-3.36852 229.075 -3.93852 228.875 -4.33852 228.475C-4.73852 228.075 -4.93852 227.51 -4.93852 226.78V219.385H-3.87352V226.72C-3.87352 227.18 -3.75852 227.535 -3.52852 227.785C-3.28852 228.035 -2.94852 228.16 -2.50852 228.16C-2.03852 228.16 -1.64852 228.025 -1.33852 227.755L-0.963515 228.52C-1.17352 228.71 -1.42852 228.85 -1.72852 228.94C-2.01852 229.03 -2.31852 229.075 -2.62852 229.075ZM-6.34852 222.01V221.125H-1.47352V222.01H-6.34852ZM8.03602 229.075C7.28602 229.075 6.61102 228.905 6.01102 228.565C5.42102 228.225 4.95602 227.755 4.61602 227.155C4.27602 226.555 4.10602 225.855 4.10602 225.055C4.10602 224.265 4.27602 223.57 4.61602 222.97C4.95602 222.36 5.42102 221.89 6.01102 221.56C6.61102 221.22 7.28602 221.05 8.03602 221.05C8.73602 221.05 9.35602 221.205 9.89602 221.515C10.446 221.825 10.881 222.28 11.201 222.88C11.521 223.47 11.681 224.195 11.681 225.055C11.681 225.915 11.516 226.645 11.186 227.245C10.866 227.835 10.431 228.29 9.88102 228.61C9.34102 228.92 8.72602 229.075 8.03602 229.075ZM8.11102 228.13C8.67102 228.13 9.17102 228.005 9.61102 227.755C10.061 227.495 10.411 227.135 10.661 226.675C10.921 226.205 11.051 225.665 11.051 225.055C11.051 224.445 10.921 223.91 10.661 223.45C10.411 222.99 10.061 222.63 9.61102 222.37C9.17102 222.11 8.67102 221.98 8.11102 221.98C7.56102 221.98 7.06602 222.11 6.62602 222.37C6.18602 222.63 5.83602 222.99 5.57602 223.45C5.31602 223.91 5.18602 224.445 5.18602 225.055C5.18602 225.665 5.31602 226.205 5.57602 226.675C5.83602 227.135 6.18602 227.495 6.62602 227.755C7.06602 228.005 7.56102 228.13 8.11102 228.13ZM11.036 231.91V226.66L11.186 225.07L11.081 223.495V221.125H12.101V231.91H11.036ZM18.322 229.075C17.652 229.075 17.067 228.95 16.567 228.7C16.067 228.45 15.677 228.075 15.397 227.575C15.127 227.075 14.992 226.45 14.992 225.7V221.125H16.057V225.58C16.057 226.42 16.262 227.055 16.672 227.485C17.092 227.905 17.677 228.115 18.427 228.115C18.977 228.115 19.452 228.005 19.852 227.785C20.262 227.555 20.572 227.225 20.782 226.795C21.002 226.365 21.112 225.85 21.112 225.25V221.125H22.177V229H21.157V226.84L21.322 227.23C21.072 227.81 20.682 228.265 20.152 228.595C19.632 228.915 19.022 229.075 18.322 229.075ZM28.4902 229.075C27.6702 229.075 26.9502 228.905 26.3302 228.565C25.7102 228.215 25.2252 227.74 24.8752 227.14C24.5252 226.53 24.3502 225.835 24.3502 225.055C24.3502 224.275 24.5152 223.585 24.8452 222.985C25.1852 222.385 25.6452 221.915 26.2252 221.575C26.8152 221.225 27.4752 221.05 28.2052 221.05C28.9452 221.05 29.6002 221.22 30.1702 221.56C30.7502 221.89 31.2052 222.36 31.5352 222.97C31.8652 223.57 32.0302 224.265 32.0302 225.055C32.0302 225.105 32.0252 225.16 32.0152 225.22C32.0152 225.27 32.0152 225.325 32.0152 225.385H25.1602V224.59H31.4452L31.0252 224.905C31.0252 224.335 30.9002 223.83 30.6502 223.39C30.4102 222.94 30.0802 222.59 29.6602 222.34C29.2402 222.09 28.7552 221.965 28.2052 221.965C27.6652 221.965 27.1802 222.09 26.7502 222.34C26.3202 222.59 25.9852 222.94 25.7452 223.39C25.5052 223.84 25.3852 224.355 25.3852 224.935V225.1C25.3852 225.7 25.5152 226.23 25.7752 226.69C26.0452 227.14 26.4152 227.495 26.8852 227.755C27.3652 228.005 27.9102 228.13 28.5202 228.13C29.0002 228.13 29.4452 228.045 29.8552 227.875C30.2752 227.705 30.6352 227.445 30.9352 227.095L31.5352 227.785C31.1852 228.205 30.7452 228.525 30.2152 228.745C29.6952 228.965 29.1202 229.075 28.4902 229.075ZM36.3129 229.075C35.6629 229.075 35.0479 228.985 34.4679 228.805C33.8879 228.615 33.4329 228.38 33.1029 228.1L33.5829 227.26C33.9029 227.5 34.3129 227.71 34.8129 227.89C35.3129 228.06 35.8379 228.145 36.3879 228.145C37.1379 228.145 37.6779 228.03 38.0079 227.8C38.3379 227.56 38.5029 227.245 38.5029 226.855C38.5029 226.565 38.4079 226.34 38.2179 226.18C38.0379 226.01 37.7979 225.885 37.4979 225.805C37.1979 225.715 36.8629 225.64 36.4929 225.58C36.1229 225.52 35.7529 225.45 35.3829 225.37C35.0229 225.29 34.6929 225.175 34.3929 225.025C34.0929 224.865 33.8479 224.65 33.6579 224.38C33.4779 224.11 33.3879 223.75 33.3879 223.3C33.3879 222.87 33.5079 222.485 33.7479 222.145C33.9879 221.805 34.3379 221.54 34.7979 221.35C35.2679 221.15 35.8379 221.05 36.5079 221.05C37.0179 221.05 37.5279 221.12 38.0379 221.26C38.5479 221.39 38.9679 221.565 39.2979 221.785L38.8329 222.64C38.4829 222.4 38.1079 222.23 37.7079 222.13C37.3079 222.02 36.9079 221.965 36.5079 221.965C35.7979 221.965 35.2729 222.09 34.9329 222.34C34.6029 222.58 34.4379 222.89 34.4379 223.27C34.4379 223.57 34.5279 223.805 34.7079 223.975C34.8979 224.145 35.1429 224.28 35.4429 224.38C35.7529 224.47 36.0879 224.545 36.4479 224.605C36.8179 224.665 37.1829 224.74 37.5429 224.83C37.9129 224.91 38.2479 225.025 38.5479 225.175C38.8579 225.315 39.1029 225.52 39.2829 225.79C39.4729 226.05 39.5679 226.395 39.5679 226.825C39.5679 227.285 39.4379 227.685 39.1779 228.025C38.9279 228.355 38.5579 228.615 38.0679 228.805C37.5879 228.985 37.0029 229.075 36.3129 229.075ZM44.0121 229.075C43.2721 229.075 42.7021 228.875 42.3021 228.475C41.9021 228.075 41.7021 227.51 41.7021 226.78V219.385H42.7671V226.72C42.7671 227.18 42.8821 227.535 43.1121 227.785C43.3521 228.035 43.6921 228.16 44.1321 228.16C44.6021 228.16 44.9921 228.025 45.3021 227.755L45.6771 228.52C45.4671 228.71 45.2121 228.85 44.9121 228.94C44.6221 229.03 44.3221 229.075 44.0121 229.075ZM40.2921 222.01V221.125H45.1671V222.01H40.2921ZM47.6159 229V221.125H48.6809V229H47.6159ZM48.1559 219.385C47.9359 219.385 47.7509 219.31 47.6009 219.16C47.4509 219.01 47.3759 218.83 47.3759 218.62C47.3759 218.41 47.4509 218.235 47.6009 218.095C47.7509 217.945 47.9359 217.87 48.1559 217.87C48.3759 217.87 48.5609 217.94 48.7109 218.08C48.8609 218.22 48.9359 218.395 48.9359 218.605C48.9359 218.825 48.8609 219.01 48.7109 219.16C48.5709 219.31 48.3859 219.385 48.1559 219.385ZM54.8542 229.075C54.0942 229.075 53.4092 228.905 52.7992 228.565C52.1992 228.215 51.7242 227.74 51.3742 227.14C51.0242 226.53 50.8492 225.835 50.8492 225.055C50.8492 224.265 51.0242 223.57 51.3742 222.97C51.7242 222.37 52.1992 221.9 52.7992 221.56C53.3992 221.22 54.0842 221.05 54.8542 221.05C55.6342 221.05 56.3242 221.22 56.9242 221.56C57.5342 221.9 58.0092 222.37 58.3492 222.97C58.6992 223.57 58.8742 224.265 58.8742 225.055C58.8742 225.835 58.6992 226.53 58.3492 227.14C58.0092 227.74 57.5342 228.215 56.9242 228.565C56.3142 228.905 55.6242 229.075 54.8542 229.075ZM54.8542 228.13C55.4242 228.13 55.9292 228.005 56.3692 227.755C56.8092 227.495 57.1542 227.135 57.4042 226.675C57.6642 226.205 57.7942 225.665 57.7942 225.055C57.7942 224.435 57.6642 223.895 57.4042 223.435C57.1542 222.975 56.8092 222.62 56.3692 222.37C55.9292 222.11 55.4292 221.98 54.8692 221.98C54.3092 221.98 53.8092 222.11 53.3692 222.37C52.9292 222.62 52.5792 222.975 52.3192 223.435C52.0592 223.895 51.9292 224.435 51.9292 225.055C51.9292 225.665 52.0592 226.205 52.3192 226.675C52.5792 227.135 52.9292 227.495 53.3692 227.755C53.8092 228.005 54.3042 228.13 54.8542 228.13ZM65.0685 221.05C65.7085 221.05 66.2685 221.175 66.7485 221.425C67.2385 221.665 67.6185 222.035 67.8885 222.535C68.1685 223.035 68.3085 223.665 68.3085 224.425V229H67.2435V224.53C67.2435 223.7 67.0335 223.075 66.6135 222.655C66.2035 222.225 65.6235 222.01 64.8735 222.01C64.3135 222.01 63.8235 222.125 63.4035 222.355C62.9935 222.575 62.6735 222.9 62.4435 223.33C62.2235 223.75 62.1135 224.26 62.1135 224.86V229H61.0485V221.125H62.0685V223.285L61.9035 222.88C62.1535 222.31 62.5535 221.865 63.1035 221.545C63.6535 221.215 64.3085 221.05 65.0685 221.05ZM77.601 229.075C76.861 229.075 76.291 228.875 75.891 228.475C75.491 228.075 75.291 227.51 75.291 226.78V219.385H76.356V226.72C76.356 227.18 76.471 227.535 76.701 227.785C76.941 228.035 77.281 228.16 77.721 228.16C78.191 228.16 78.581 228.025 78.891 227.755L79.266 228.52C79.056 228.71 78.801 228.85 78.501 228.94C78.211 229.03 77.911 229.075 77.601 229.075ZM73.881 222.01V221.125H78.756V222.01H73.881ZM81.1182 231.985C80.7482 231.985 80.3932 231.925 80.0532 231.805C79.7232 231.685 79.4382 231.505 79.1982 231.265L79.6932 230.47C79.8932 230.66 80.1082 230.805 80.3382 230.905C80.5782 231.015 80.8432 231.07 81.1332 231.07C81.4832 231.07 81.7832 230.97 82.0332 230.77C82.2932 230.58 82.5382 230.24 82.7682 229.75L83.2782 228.595L83.3982 228.43L86.6382 221.125H87.6882L83.7432 229.945C83.5232 230.455 83.2782 230.86 83.0082 231.16C82.7482 231.46 82.4632 231.67 82.1532 231.79C81.8432 231.92 81.4982 231.985 81.1182 231.985ZM83.2182 229.225L79.5882 221.125H80.6982L83.9082 228.355L83.2182 229.225ZM93.2531 229.075C92.5731 229.075 91.9581 228.92 91.4081 228.61C90.8581 228.29 90.4181 227.835 90.0881 227.245C89.7681 226.645 89.6081 225.915 89.6081 225.055C89.6081 224.195 89.7681 223.47 90.0881 222.88C90.4081 222.28 90.8431 221.825 91.3931 221.515C91.9431 221.205 92.5631 221.05 93.2531 221.05C94.0031 221.05 94.6731 221.22 95.2631 221.56C95.8631 221.89 96.3331 222.36 96.6731 222.97C97.0131 223.57 97.1831 224.265 97.1831 225.055C97.1831 225.855 97.0131 226.555 96.6731 227.155C96.3331 227.755 95.8631 228.225 95.2631 228.565C94.6731 228.905 94.0031 229.075 93.2531 229.075ZM89.1881 231.91V221.125H90.2081V223.495L90.1031 225.07L90.2531 226.66V231.91H89.1881ZM93.1781 228.13C93.7381 228.13 94.2381 228.005 94.6781 227.755C95.1181 227.495 95.4681 227.135 95.7281 226.675C95.9881 226.205 96.1181 225.665 96.1181 225.055C96.1181 224.445 95.9881 223.91 95.7281 223.45C95.4681 222.99 95.1181 222.63 94.6781 222.37C94.2381 222.11 93.7381 221.98 93.1781 221.98C92.6181 221.98 92.1131 222.11 91.6631 222.37C91.2231 222.63 90.8731 222.99 90.6131 223.45C90.3631 223.91 90.2381 224.445 90.2381 225.055C90.2381 225.665 90.3631 226.205 90.6131 226.675C90.8731 227.135 91.2231 227.495 91.6631 227.755C92.1131 228.005 92.6181 228.13 93.1781 228.13ZM102.699 229.075C101.879 229.075 101.159 228.905 100.539 228.565C99.9191 228.215 99.4341 227.74 99.0841 227.14C98.7341 226.53 98.5591 225.835 98.5591 225.055C98.5591 224.275 98.7241 223.585 99.0541 222.985C99.3941 222.385 99.8541 221.915 100.434 221.575C101.024 221.225 101.684 221.05 102.414 221.05C103.154 221.05 103.809 221.22 104.379 221.56C104.959 221.89 105.414 222.36 105.744 222.97C106.074 223.57 106.239 224.265 106.239 225.055C106.239 225.105 106.234 225.16 106.224 225.22C106.224 225.27 106.224 225.325 106.224 225.385H99.3691V224.59H105.654L105.234 224.905C105.234 224.335 105.109 223.83 104.859 223.39C104.619 222.94 104.289 222.59 103.869 222.34C103.449 222.09 102.964 221.965 102.414 221.965C101.874 221.965 101.389 222.09 100.959 222.34C100.529 222.59 100.194 222.94 99.9541 223.39C99.7141 223.84 99.5941 224.355 99.5941 224.935V225.1C99.5941 225.7 99.7241 226.23 99.9841 226.69C100.254 227.14 100.624 227.495 101.094 227.755C101.574 228.005 102.119 228.13 102.729 228.13C103.209 228.13 103.654 228.045 104.064 227.875C104.484 227.705 104.844 227.445 105.144 227.095L105.744 227.785C105.394 228.205 104.954 228.525 104.424 228.745C103.904 228.965 103.329 229.075 102.699 229.075ZM110.522 229.075C109.872 229.075 109.257 228.985 108.677 228.805C108.097 228.615 107.642 228.38 107.312 228.1L107.792 227.26C108.112 227.5 108.522 227.71 109.022 227.89C109.522 228.06 110.047 228.145 110.597 228.145C111.347 228.145 111.887 228.03 112.217 227.8C112.547 227.56 112.712 227.245 112.712 226.855C112.712 226.565 112.617 226.34 112.427 226.18C112.247 226.01 112.007 225.885 111.707 225.805C111.407 225.715 111.072 225.64 110.702 225.58C110.332 225.52 109.962 225.45 109.592 225.37C109.232 225.29 108.902 225.175 108.602 225.025C108.302 224.865 108.057 224.65 107.867 224.38C107.687 224.11 107.597 223.75 107.597 223.3C107.597 222.87 107.717 222.485 107.957 222.145C108.197 221.805 108.547 221.54 109.007 221.35C109.477 221.15 110.047 221.05 110.717 221.05C111.227 221.05 111.737 221.12 112.247 221.26C112.757 221.39 113.177 221.565 113.507 221.785L113.042 222.64C112.692 222.4 112.317 222.23 111.917 222.13C111.517 222.02 111.117 221.965 110.717 221.965C110.007 221.965 109.482 222.09 109.142 222.34C108.812 222.58 108.647 222.89 108.647 223.27C108.647 223.57 108.737 223.805 108.917 223.975C109.107 224.145 109.352 224.28 109.652 224.38C109.962 224.47 110.297 224.545 110.657 224.605C111.027 224.665 111.392 224.74 111.752 224.83C112.122 224.91 112.457 225.025 112.757 225.175C113.067 225.315 113.312 225.52 113.492 225.79C113.682 226.05 113.777 226.395 113.777 226.825C113.777 227.285 113.647 227.685 113.387 228.025C113.137 228.355 112.767 228.615 112.277 228.805C111.797 228.985 111.212 229.075 110.522 229.075ZM124.592 229V227.26L124.547 226.975V224.065C124.547 223.395 124.357 222.88 123.977 222.52C123.607 222.16 123.052 221.98 122.312 221.98C121.802 221.98 121.317 222.065 120.857 222.235C120.397 222.405 120.007 222.63 119.687 222.91L119.207 222.115C119.607 221.775 120.087 221.515 120.647 221.335C121.207 221.145 121.797 221.05 122.417 221.05C123.437 221.05 124.222 221.305 124.772 221.815C125.332 222.315 125.612 223.08 125.612 224.11V229H124.592ZM121.877 229.075C121.287 229.075 120.772 228.98 120.332 228.79C119.902 228.59 119.572 228.32 119.342 227.98C119.112 227.63 118.997 227.23 118.997 226.78C118.997 226.37 119.092 226 119.282 225.67C119.482 225.33 119.802 225.06 120.242 224.86C120.692 224.65 121.292 224.545 122.042 224.545H124.757V225.34H122.072C121.312 225.34 120.782 225.475 120.482 225.745C120.192 226.015 120.047 226.35 120.047 226.75C120.047 227.2 120.222 227.56 120.572 227.83C120.922 228.1 121.412 228.235 122.042 228.235C122.642 228.235 123.157 228.1 123.587 227.83C124.027 227.55 124.347 227.15 124.547 226.63L124.787 227.365C124.587 227.885 124.237 228.3 123.737 228.61C123.247 228.92 122.627 229.075 121.877 229.075ZM132.525 221.05C133.165 221.05 133.725 221.175 134.205 221.425C134.695 221.665 135.075 222.035 135.345 222.535C135.625 223.035 135.765 223.665 135.765 224.425V229H134.7V224.53C134.7 223.7 134.49 223.075 134.07 222.655C133.66 222.225 133.08 222.01 132.33 222.01C131.77 222.01 131.28 222.125 130.86 222.355C130.45 222.575 130.13 222.9 129.9 223.33C129.68 223.75 129.57 224.26 129.57 224.86V229H128.505V221.125H129.525V223.285L129.36 222.88C129.61 222.31 130.01 221.865 130.56 221.545C131.11 221.215 131.765 221.05 132.525 221.05ZM141.776 229.075C141.026 229.075 140.351 228.905 139.751 228.565C139.161 228.225 138.696 227.755 138.356 227.155C138.016 226.545 137.846 225.845 137.846 225.055C137.846 224.255 138.016 223.555 138.356 222.955C138.696 222.355 139.161 221.89 139.751 221.56C140.351 221.22 141.026 221.05 141.776 221.05C142.466 221.05 143.081 221.205 143.621 221.515C144.171 221.825 144.606 222.28 144.926 222.88C145.256 223.47 145.421 224.195 145.421 225.055C145.421 225.905 145.261 226.63 144.941 227.23C144.621 227.83 144.186 228.29 143.636 228.61C143.096 228.92 142.476 229.075 141.776 229.075ZM141.851 228.13C142.411 228.13 142.911 228.005 143.351 227.755C143.801 227.495 144.151 227.135 144.401 226.675C144.661 226.205 144.791 225.665 144.791 225.055C144.791 224.435 144.661 223.895 144.401 223.435C144.151 222.975 143.801 222.62 143.351 222.37C142.911 222.11 142.411 221.98 141.851 221.98C141.301 221.98 140.806 222.11 140.366 222.37C139.926 222.62 139.576 222.975 139.316 223.435C139.056 223.895 138.926 224.435 138.926 225.055C138.926 225.665 139.056 226.205 139.316 226.675C139.576 227.135 139.926 227.495 140.366 227.755C140.806 228.005 141.301 228.13 141.851 228.13ZM144.821 229V226.63L144.926 225.04L144.776 223.45V217.87H145.841V229H144.821ZM-103.245 247.075C-104.025 247.075 -104.725 246.905 -105.345 246.565C-105.955 246.215 -106.435 245.74 -106.785 245.14C-107.135 244.53 -107.31 243.835 -107.31 243.055C-107.31 242.265 -107.135 241.57 -106.785 240.97C-106.435 240.37 -105.955 239.9 -105.345 239.56C-104.725 239.22 -104.025 239.05 -103.245 239.05C-102.575 239.05 -101.97 239.18 -101.43 239.44C-100.89 239.7 -100.465 240.09 -100.155 240.61L-100.95 241.15C-101.22 240.75 -101.555 240.455 -101.955 240.265C-102.355 240.075 -102.79 239.98 -103.26 239.98C-103.82 239.98 -104.325 240.11 -104.775 240.37C-105.225 240.62 -105.58 240.975 -105.84 241.435C-106.1 241.895 -106.23 242.435 -106.23 243.055C-106.23 243.675 -106.1 244.215 -105.84 244.675C-105.58 245.135 -105.225 245.495 -104.775 245.755C-104.325 246.005 -103.82 246.13 -103.26 246.13C-102.79 246.13 -102.355 246.035 -101.955 245.845C-101.555 245.655 -101.22 245.365 -100.95 244.975L-100.155 245.515C-100.465 246.025 -100.89 246.415 -101.43 246.685C-101.97 246.945 -102.575 247.075 -103.245 247.075ZM-94.8079 247.075C-95.4779 247.075 -96.0629 246.95 -96.5629 246.7C-97.0629 246.45 -97.4529 246.075 -97.7329 245.575C-98.0029 245.075 -98.1379 244.45 -98.1379 243.7V239.125H-97.0729V243.58C-97.0729 244.42 -96.8679 245.055 -96.4579 245.485C-96.0379 245.905 -95.4529 246.115 -94.7029 246.115C-94.1529 246.115 -93.6779 246.005 -93.2779 245.785C-92.8679 245.555 -92.5579 245.225 -92.3479 244.795C-92.1279 244.365 -92.0179 243.85 -92.0179 243.25V239.125H-90.9529V247H-91.9729V244.84L-91.8079 245.23C-92.0579 245.81 -92.4479 246.265 -92.9779 246.595C-93.4979 246.915 -94.1079 247.075 -94.8079 247.075ZM-85.8697 247.075C-86.5197 247.075 -87.1347 246.985 -87.7147 246.805C-88.2947 246.615 -88.7497 246.38 -89.0797 246.1L-88.5997 245.26C-88.2797 245.5 -87.8697 245.71 -87.3697 245.89C-86.8697 246.06 -86.3447 246.145 -85.7947 246.145C-85.0447 246.145 -84.5047 246.03 -84.1747 245.8C-83.8447 245.56 -83.6797 245.245 -83.6797 244.855C-83.6797 244.565 -83.7747 244.34 -83.9647 244.18C-84.1447 244.01 -84.3847 243.885 -84.6847 243.805C-84.9847 243.715 -85.3197 243.64 -85.6897 243.58C-86.0597 243.52 -86.4297 243.45 -86.7997 243.37C-87.1597 243.29 -87.4897 243.175 -87.7897 243.025C-88.0897 242.865 -88.3347 242.65 -88.5247 242.38C-88.7047 242.11 -88.7947 241.75 -88.7947 241.3C-88.7947 240.87 -88.6747 240.485 -88.4347 240.145C-88.1947 239.805 -87.8447 239.54 -87.3847 239.35C-86.9147 239.15 -86.3447 239.05 -85.6747 239.05C-85.1647 239.05 -84.6547 239.12 -84.1447 239.26C-83.6347 239.39 -83.2147 239.565 -82.8847 239.785L-83.3497 240.64C-83.6997 240.4 -84.0747 240.23 -84.4747 240.13C-84.8747 240.02 -85.2747 239.965 -85.6747 239.965C-86.3847 239.965 -86.9097 240.09 -87.2497 240.34C-87.5797 240.58 -87.7447 240.89 -87.7447 241.27C-87.7447 241.57 -87.6547 241.805 -87.4747 241.975C-87.2847 242.145 -87.0397 242.28 -86.7397 242.38C-86.4297 242.47 -86.0947 242.545 -85.7347 242.605C-85.3647 242.665 -84.9997 242.74 -84.6397 242.83C-84.2697 242.91 -83.9347 243.025 -83.6347 243.175C-83.3247 243.315 -83.0797 243.52 -82.8997 243.79C-82.7097 244.05 -82.6147 244.395 -82.6147 244.825C-82.6147 245.285 -82.7447 245.685 -83.0047 246.025C-83.2547 246.355 -83.6247 246.615 -84.1147 246.805C-84.5947 246.985 -85.1797 247.075 -85.8697 247.075ZM-78.1705 247.075C-78.9105 247.075 -79.4805 246.875 -79.8805 246.475C-80.2805 246.075 -80.4805 245.51 -80.4805 244.78V237.385H-79.4155V244.72C-79.4155 245.18 -79.3005 245.535 -79.0705 245.785C-78.8305 246.035 -78.4905 246.16 -78.0505 246.16C-77.5805 246.16 -77.1905 246.025 -76.8805 245.755L-76.5055 246.52C-76.7155 246.71 -76.9705 246.85 -77.2705 246.94C-77.5605 247.03 -77.8605 247.075 -78.1705 247.075ZM-81.8905 240.01V239.125H-77.0155V240.01H-81.8905ZM-71.6351 247.075C-72.3951 247.075 -73.0801 246.905 -73.6901 246.565C-74.2901 246.215 -74.7651 245.74 -75.1151 245.14C-75.4651 244.53 -75.6401 243.835 -75.6401 243.055C-75.6401 242.265 -75.4651 241.57 -75.1151 240.97C-74.7651 240.37 -74.2901 239.9 -73.6901 239.56C-73.0901 239.22 -72.4051 239.05 -71.6351 239.05C-70.8551 239.05 -70.1651 239.22 -69.5651 239.56C-68.9551 239.9 -68.4801 240.37 -68.1401 240.97C-67.7901 241.57 -67.6151 242.265 -67.6151 243.055C-67.6151 243.835 -67.7901 244.53 -68.1401 245.14C-68.4801 245.74 -68.9551 246.215 -69.5651 246.565C-70.1751 246.905 -70.8651 247.075 -71.6351 247.075ZM-71.6351 246.13C-71.0651 246.13 -70.5601 246.005 -70.1201 245.755C-69.6801 245.495 -69.3351 245.135 -69.0851 244.675C-68.8251 244.205 -68.6951 243.665 -68.6951 243.055C-68.6951 242.435 -68.8251 241.895 -69.0851 241.435C-69.3351 240.975 -69.6801 240.62 -70.1201 240.37C-70.5601 240.11 -71.0601 239.98 -71.6201 239.98C-72.1801 239.98 -72.6801 240.11 -73.1201 240.37C-73.5601 240.62 -73.9101 240.975 -74.1701 241.435C-74.4301 241.895 -74.5601 242.435 -74.5601 243.055C-74.5601 243.665 -74.4301 244.205 -74.1701 244.675C-73.9101 245.135 -73.5601 245.495 -73.1201 245.755C-72.6801 246.005 -72.1851 246.13 -71.6351 246.13ZM-55.6008 239.05C-54.9608 239.05 -54.4058 239.175 -53.9358 239.425C-53.4558 239.665 -53.0858 240.035 -52.8258 240.535C-52.5558 241.035 -52.4208 241.665 -52.4208 242.425V247H-53.4858V242.53C-53.4858 241.7 -53.6858 241.075 -54.0858 240.655C-54.4758 240.225 -55.0308 240.01 -55.7508 240.01C-56.2908 240.01 -56.7608 240.125 -57.1608 240.355C-57.5508 240.575 -57.8558 240.9 -58.0758 241.33C-58.2858 241.75 -58.3908 242.26 -58.3908 242.86V247H-59.4558V242.53C-59.4558 241.7 -59.6558 241.075 -60.0558 240.655C-60.4558 240.225 -61.0158 240.01 -61.7358 240.01C-62.2658 240.01 -62.7308 240.125 -63.1308 240.355C-63.5308 240.575 -63.8408 240.9 -64.0608 241.33C-64.2708 241.75 -64.3758 242.26 -64.3758 242.86V247H-65.4408V239.125H-64.4208V241.255L-64.5858 240.88C-64.3458 240.31 -63.9608 239.865 -63.4308 239.545C-62.8908 239.215 -62.2558 239.05 -61.5258 239.05C-60.7558 239.05 -60.1008 239.245 -59.5608 239.635C-59.0208 240.015 -58.6708 240.59 -58.5108 241.36L-58.9308 241.195C-58.7008 240.555 -58.2958 240.04 -57.7158 239.65C-57.1258 239.25 -56.4208 239.05 -55.6008 239.05ZM-49.5326 247V239.125H-48.4676V247H-49.5326ZM-48.9926 237.385C-49.2126 237.385 -49.3976 237.31 -49.5476 237.16C-49.6976 237.01 -49.7726 236.83 -49.7726 236.62C-49.7726 236.41 -49.6976 236.235 -49.5476 236.095C-49.3976 235.945 -49.2126 235.87 -48.9926 235.87C-48.7726 235.87 -48.5876 235.94 -48.4376 236.08C-48.2876 236.22 -48.2126 236.395 -48.2126 236.605C-48.2126 236.825 -48.2876 237.01 -48.4376 237.16C-48.5776 237.31 -48.7626 237.385 -48.9926 237.385ZM-46.3593 247V246.295L-41.1093 239.65L-40.8843 240.01H-46.2693V239.125H-40.0443V239.815L-45.2793 246.475L-45.5493 246.115H-39.9393V247H-46.3593ZM-34.63 247.075C-35.45 247.075 -36.17 246.905 -36.79 246.565C-37.41 246.215 -37.895 245.74 -38.245 245.14C-38.595 244.53 -38.77 243.835 -38.77 243.055C-38.77 242.275 -38.605 241.585 -38.275 240.985C-37.935 240.385 -37.475 239.915 -36.895 239.575C-36.305 239.225 -35.645 239.05 -34.915 239.05C-34.175 239.05 -33.52 239.22 -32.95 239.56C-32.37 239.89 -31.915 240.36 -31.585 240.97C-31.255 241.57 -31.09 242.265 -31.09 243.055C-31.09 243.105 -31.095 243.16 -31.105 243.22C-31.105 243.27 -31.105 243.325 -31.105 243.385H-37.96V242.59H-31.675L-32.095 242.905C-32.095 242.335 -32.22 241.83 -32.47 241.39C-32.71 240.94 -33.04 240.59 -33.46 240.34C-33.88 240.09 -34.365 239.965 -34.915 239.965C-35.455 239.965 -35.94 240.09 -36.37 240.34C-36.8 240.59 -37.135 240.94 -37.375 241.39C-37.615 241.84 -37.735 242.355 -37.735 242.935V243.1C-37.735 243.7 -37.605 244.23 -37.345 244.69C-37.075 245.14 -36.705 245.495 -36.235 245.755C-35.755 246.005 -35.21 246.13 -34.6 246.13C-34.12 246.13 -33.675 246.045 -33.265 245.875C-32.845 245.705 -32.485 245.445 -32.185 245.095L-31.585 245.785C-31.935 246.205 -32.375 246.525 -32.905 246.745C-33.425 246.965 -34 247.075 -34.63 247.075ZM-20.0614 247V245.26L-20.1064 244.975V242.065C-20.1064 241.395 -20.2964 240.88 -20.6764 240.52C-21.0464 240.16 -21.6014 239.98 -22.3414 239.98C-22.8514 239.98 -23.3364 240.065 -23.7964 240.235C-24.2564 240.405 -24.6464 240.63 -24.9664 240.91L-25.4464 240.115C-25.0464 239.775 -24.5664 239.515 -24.0064 239.335C-23.4464 239.145 -22.8564 239.05 -22.2364 239.05C-21.2164 239.05 -20.4314 239.305 -19.8814 239.815C-19.3214 240.315 -19.0414 241.08 -19.0414 242.11V247H-20.0614ZM-22.7764 247.075C-23.3664 247.075 -23.8814 246.98 -24.3214 246.79C-24.7514 246.59 -25.0814 246.32 -25.3114 245.98C-25.5414 245.63 -25.6564 245.23 -25.6564 244.78C-25.6564 244.37 -25.5614 244 -25.3714 243.67C-25.1714 243.33 -24.8514 243.06 -24.4114 242.86C-23.9614 242.65 -23.3614 242.545 -22.6114 242.545H-19.8964V243.34H-22.5814C-23.3414 243.34 -23.8714 243.475 -24.1714 243.745C-24.4614 244.015 -24.6064 244.35 -24.6064 244.75C-24.6064 245.2 -24.4314 245.56 -24.0814 245.83C-23.7314 246.1 -23.2414 246.235 -22.6114 246.235C-22.0114 246.235 -21.4964 246.1 -21.0664 245.83C-20.6264 245.55 -20.3064 245.15 -20.1064 244.63L-19.8664 245.365C-20.0664 245.885 -20.4164 246.3 -20.9164 246.61C-21.4064 246.92 -22.0264 247.075 -22.7764 247.075ZM-12.1288 239.05C-11.4888 239.05 -10.9288 239.175 -10.4488 239.425C-9.95879 239.665 -9.57879 240.035 -9.30879 240.535C-9.02879 241.035 -8.88879 241.665 -8.88879 242.425V247H-9.95379V242.53C-9.95379 241.7 -10.1638 241.075 -10.5838 240.655C-10.9938 240.225 -11.5738 240.01 -12.3238 240.01C-12.8838 240.01 -13.3738 240.125 -13.7938 240.355C-14.2038 240.575 -14.5238 240.9 -14.7538 241.33C-14.9738 241.75 -15.0838 242.26 -15.0838 242.86V247H-16.1488V239.125H-15.1288V241.285L-15.2938 240.88C-15.0438 240.31 -14.6438 239.865 -14.0938 239.545C-13.5438 239.215 -12.8888 239.05 -12.1288 239.05ZM-3.89707 247.075C-4.54707 247.075 -5.16207 246.985 -5.74207 246.805C-6.32207 246.615 -6.77707 246.38 -7.10707 246.1L-6.62707 245.26C-6.30707 245.5 -5.89707 245.71 -5.39707 245.89C-4.89707 246.06 -4.37207 246.145 -3.82207 246.145C-3.07207 246.145 -2.53207 246.03 -2.20207 245.8C-1.87207 245.56 -1.70707 245.245 -1.70707 244.855C-1.70707 244.565 -1.80207 244.34 -1.99207 244.18C-2.17207 244.01 -2.41207 243.885 -2.71207 243.805C-3.01207 243.715 -3.34707 243.64 -3.71707 243.58C-4.08707 243.52 -4.45707 243.45 -4.82707 243.37C-5.18707 243.29 -5.51707 243.175 -5.81707 243.025C-6.11707 242.865 -6.36207 242.65 -6.55207 242.38C-6.73207 242.11 -6.82207 241.75 -6.82207 241.3C-6.82207 240.87 -6.70207 240.485 -6.46207 240.145C-6.22207 239.805 -5.87207 239.54 -5.41207 239.35C-4.94207 239.15 -4.37207 239.05 -3.70207 239.05C-3.19207 239.05 -2.68207 239.12 -2.17207 239.26C-1.66207 239.39 -1.24207 239.565 -0.91207 239.785L-1.37707 240.64C-1.72707 240.4 -2.10207 240.23 -2.50207 240.13C-2.90207 240.02 -3.30207 239.965 -3.70207 239.965C-4.41207 239.965 -4.93707 240.09 -5.27707 240.34C-5.60707 240.58 -5.77207 240.89 -5.77207 241.27C-5.77207 241.57 -5.68207 241.805 -5.50207 241.975C-5.31207 242.145 -5.06707 242.28 -4.76707 242.38C-4.45707 242.47 -4.12207 242.545 -3.76207 242.605C-3.39207 242.665 -3.02707 242.74 -2.66707 242.83C-2.29707 242.91 -1.96207 243.025 -1.66207 243.175C-1.35207 243.315 -1.10707 243.52 -0.92707 243.79C-0.73707 244.05 -0.64207 244.395 -0.64207 244.825C-0.64207 245.285 -0.77207 245.685 -1.03207 246.025C-1.28207 246.355 -1.65207 246.615 -2.14207 246.805C-2.62207 246.985 -3.20707 247.075 -3.89707 247.075ZM2.77066 247L-0.199336 239.125H0.820664L3.52066 246.43H3.05566L5.83066 239.125H6.74566L9.49066 246.43H9.02566L11.7707 239.125H12.7457L9.76066 247H8.75566L6.11566 240.13H6.43066L3.77566 247H2.77066ZM17.4745 247.075C16.6545 247.075 15.9345 246.905 15.3145 246.565C14.6945 246.215 14.2095 245.74 13.8595 245.14C13.5095 244.53 13.3345 243.835 13.3345 243.055C13.3345 242.275 13.4995 241.585 13.8295 240.985C14.1695 240.385 14.6295 239.915 15.2095 239.575C15.7995 239.225 16.4595 239.05 17.1895 239.05C17.9295 239.05 18.5845 239.22 19.1545 239.56C19.7345 239.89 20.1895 240.36 20.5195 240.97C20.8495 241.57 21.0145 242.265 21.0145 243.055C21.0145 243.105 21.0095 243.16 20.9995 243.22C20.9995 243.27 20.9995 243.325 20.9995 243.385H14.1445V242.59H20.4295L20.0095 242.905C20.0095 242.335 19.8845 241.83 19.6345 241.39C19.3945 240.94 19.0645 240.59 18.6445 240.34C18.2245 240.09 17.7395 239.965 17.1895 239.965C16.6495 239.965 16.1645 240.09 15.7345 240.34C15.3045 240.59 14.9695 240.94 14.7295 241.39C14.4895 241.84 14.3695 242.355 14.3695 242.935V243.1C14.3695 243.7 14.4995 244.23 14.7595 244.69C15.0295 245.14 15.3995 245.495 15.8695 245.755C16.3495 246.005 16.8945 246.13 17.5045 246.13C17.9845 246.13 18.4295 246.045 18.8395 245.875C19.2595 245.705 19.6195 245.445 19.9195 245.095L20.5195 245.785C20.1695 246.205 19.7295 246.525 19.1995 246.745C18.6795 246.965 18.1045 247.075 17.4745 247.075ZM23.1823 247V239.125H24.2023V241.27L24.0973 240.895C24.3173 240.295 24.6873 239.84 25.2073 239.53C25.7273 239.21 26.3723 239.05 27.1423 239.05V240.085C27.1023 240.085 27.0623 240.085 27.0223 240.085C26.9823 240.075 26.9423 240.07 26.9023 240.07C26.0723 240.07 25.4223 240.325 24.9523 240.835C24.4823 241.335 24.2473 242.05 24.2473 242.98V247H23.1823ZM36.3386 247.075C35.5786 247.075 34.8936 246.905 34.2836 246.565C33.6836 246.215 33.2086 245.74 32.8586 245.14C32.5086 244.53 32.3336 243.835 32.3336 243.055C32.3336 242.265 32.5086 241.57 32.8586 240.97C33.2086 240.37 33.6836 239.9 34.2836 239.56C34.8836 239.22 35.5686 239.05 36.3386 239.05C37.1186 239.05 37.8086 239.22 38.4086 239.56C39.0186 239.9 39.4936 240.37 39.8336 240.97C40.1836 241.57 40.3586 242.265 40.3586 243.055C40.3586 243.835 40.1836 244.53 39.8336 245.14C39.4936 245.74 39.0186 246.215 38.4086 246.565C37.7986 246.905 37.1086 247.075 36.3386 247.075ZM36.3386 246.13C36.9086 246.13 37.4136 246.005 37.8536 245.755C38.2936 245.495 38.6386 245.135 38.8886 244.675C39.1486 244.205 39.2786 243.665 39.2786 243.055C39.2786 242.435 39.1486 241.895 38.8886 241.435C38.6386 240.975 38.2936 240.62 37.8536 240.37C37.4136 240.11 36.9136 239.98 36.3536 239.98C35.7936 239.98 35.2936 240.11 34.8536 240.37C34.4136 240.62 34.0636 240.975 33.8036 241.435C33.5436 241.895 33.4136 242.435 33.4136 243.055C33.4136 243.665 33.5436 244.205 33.8036 244.675C34.0636 245.135 34.4136 245.495 34.8536 245.755C35.2936 246.005 35.7886 246.13 36.3386 246.13ZM46.5979 247.075C45.9179 247.075 45.3029 246.92 44.7529 246.61C44.2029 246.29 43.7629 245.835 43.4329 245.245C43.1129 244.645 42.9529 243.915 42.9529 243.055C42.9529 242.195 43.1129 241.47 43.4329 240.88C43.7529 240.28 44.1879 239.825 44.7379 239.515C45.2879 239.205 45.9079 239.05 46.5979 239.05C47.3479 239.05 48.0179 239.22 48.6079 239.56C49.2079 239.89 49.6779 240.36 50.0179 240.97C50.3579 241.57 50.5279 242.265 50.5279 243.055C50.5279 243.855 50.3579 244.555 50.0179 245.155C49.6779 245.755 49.2079 246.225 48.6079 246.565C48.0179 246.905 47.3479 247.075 46.5979 247.075ZM42.5329 249.91V239.125H43.5529V241.495L43.4479 243.07L43.5979 244.66V249.91H42.5329ZM46.5229 246.13C47.0829 246.13 47.5829 246.005 48.0229 245.755C48.4629 245.495 48.8129 245.135 49.0729 244.675C49.3329 244.205 49.4629 243.665 49.4629 243.055C49.4629 242.445 49.3329 241.91 49.0729 241.45C48.8129 240.99 48.4629 240.63 48.0229 240.37C47.5829 240.11 47.0829 239.98 46.5229 239.98C45.9629 239.98 45.4579 240.11 45.0079 240.37C44.5679 240.63 44.2179 240.99 43.9579 241.45C43.7079 241.91 43.5829 242.445 43.5829 243.055C43.5829 243.665 43.7079 244.205 43.9579 244.675C44.2179 245.135 44.5679 245.495 45.0079 245.755C45.4579 246.005 45.9629 246.13 46.5229 246.13ZM55.1889 247.075C54.4489 247.075 53.8789 246.875 53.4789 246.475C53.0789 246.075 52.8789 245.51 52.8789 244.78V237.385H53.9439V244.72C53.9439 245.18 54.0589 245.535 54.2889 245.785C54.5289 246.035 54.8689 246.16 55.3089 246.16C55.7789 246.16 56.1689 246.025 56.4789 245.755L56.8539 246.52C56.6439 246.71 56.3889 246.85 56.0889 246.94C55.7989 247.03 55.4989 247.075 55.1889 247.075ZM51.4689 240.01V239.125H56.3439V240.01H51.4689ZM58.7926 247V239.125H59.8576V247H58.7926ZM59.3326 237.385C59.1126 237.385 58.9276 237.31 58.7776 237.16C58.6276 237.01 58.5526 236.83 58.5526 236.62C58.5526 236.41 58.6276 236.235 58.7776 236.095C58.9276 235.945 59.1126 235.87 59.3326 235.87C59.5526 235.87 59.7376 235.94 59.8876 236.08C60.0376 236.22 60.1126 236.395 60.1126 236.605C60.1126 236.825 60.0376 237.01 59.8876 237.16C59.7476 237.31 59.5626 237.385 59.3326 237.385ZM66.0309 247.075C65.2709 247.075 64.5859 246.905 63.9759 246.565C63.3759 246.215 62.9009 245.74 62.5509 245.14C62.2009 244.53 62.0259 243.835 62.0259 243.055C62.0259 242.265 62.2009 241.57 62.5509 240.97C62.9009 240.37 63.3759 239.9 63.9759 239.56C64.5759 239.22 65.2609 239.05 66.0309 239.05C66.8109 239.05 67.5009 239.22 68.1009 239.56C68.7109 239.9 69.1859 240.37 69.5259 240.97C69.8759 241.57 70.0509 242.265 70.0509 243.055C70.0509 243.835 69.8759 244.53 69.5259 245.14C69.1859 245.74 68.7109 246.215 68.1009 246.565C67.4909 246.905 66.8009 247.075 66.0309 247.075ZM66.0309 246.13C66.6009 246.13 67.1059 246.005 67.5459 245.755C67.9859 245.495 68.3309 245.135 68.5809 244.675C68.8409 244.205 68.9709 243.665 68.9709 243.055C68.9709 242.435 68.8409 241.895 68.5809 241.435C68.3309 240.975 67.9859 240.62 67.5459 240.37C67.1059 240.11 66.6059 239.98 66.0459 239.98C65.4859 239.98 64.9859 240.11 64.5459 240.37C64.1059 240.62 63.7559 240.975 63.4959 241.435C63.2359 241.895 63.1059 242.435 63.1059 243.055C63.1059 243.665 63.2359 244.205 63.4959 244.675C63.7559 245.135 64.1059 245.495 64.5459 245.755C64.9859 246.005 65.4809 246.13 66.0309 246.13ZM76.2452 239.05C76.8852 239.05 77.4452 239.175 77.9252 239.425C78.4152 239.665 78.7952 240.035 79.0652 240.535C79.3452 241.035 79.4852 241.665 79.4852 242.425V247H78.4202V242.53C78.4202 241.7 78.2102 241.075 77.7902 240.655C77.3802 240.225 76.8002 240.01 76.0502 240.01C75.4902 240.01 75.0002 240.125 74.5802 240.355C74.1702 240.575 73.8502 240.9 73.6202 241.33C73.4002 241.75 73.2902 242.26 73.2902 242.86V247H72.2252V239.125H73.2452V241.285L73.0802 240.88C73.3302 240.31 73.7302 239.865 74.2802 239.545C74.8302 239.215 75.4852 239.05 76.2452 239.05ZM84.477 247.075C83.827 247.075 83.212 246.985 82.632 246.805C82.052 246.615 81.597 246.38 81.267 246.1L81.747 245.26C82.067 245.5 82.477 245.71 82.977 245.89C83.477 246.06 84.002 246.145 84.552 246.145C85.302 246.145 85.842 246.03 86.172 245.8C86.502 245.56 86.667 245.245 86.667 244.855C86.667 244.565 86.572 244.34 86.382 244.18C86.202 244.01 85.962 243.885 85.662 243.805C85.362 243.715 85.027 243.64 84.657 243.58C84.287 243.52 83.917 243.45 83.547 243.37C83.187 243.29 82.857 243.175 82.557 243.025C82.257 242.865 82.012 242.65 81.822 242.38C81.642 242.11 81.552 241.75 81.552 241.3C81.552 240.87 81.672 240.485 81.912 240.145C82.152 239.805 82.502 239.54 82.962 239.35C83.432 239.15 84.002 239.05 84.672 239.05C85.182 239.05 85.692 239.12 86.202 239.26C86.712 239.39 87.132 239.565 87.462 239.785L86.997 240.64C86.647 240.4 86.272 240.23 85.872 240.13C85.472 240.02 85.072 239.965 84.672 239.965C83.962 239.965 83.437 240.09 83.097 240.34C82.767 240.58 82.602 240.89 82.602 241.27C82.602 241.57 82.692 241.805 82.872 241.975C83.062 242.145 83.307 242.28 83.607 242.38C83.917 242.47 84.252 242.545 84.612 242.605C84.982 242.665 85.347 242.74 85.707 242.83C86.077 242.91 86.412 243.025 86.712 243.175C87.022 243.315 87.267 243.52 87.447 243.79C87.637 244.05 87.732 244.395 87.732 244.825C87.732 245.285 87.602 245.685 87.342 246.025C87.092 246.355 86.722 246.615 86.232 246.805C85.752 246.985 85.167 247.075 84.477 247.075ZM93.792 247V238.135C93.792 237.435 93.997 236.87 94.407 236.44C94.817 236.01 95.407 235.795 96.177 235.795C96.477 235.795 96.767 235.835 97.047 235.915C97.327 235.995 97.562 236.12 97.752 236.29L97.392 237.085C97.242 236.955 97.067 236.86 96.867 236.8C96.667 236.73 96.452 236.695 96.222 236.695C95.772 236.695 95.427 236.82 95.187 237.07C94.947 237.32 94.827 237.69 94.827 238.18V239.38L94.857 239.875V247H93.792ZM92.382 240.01V239.125H97.257V240.01H92.382ZM101.773 247.075C101.013 247.075 100.328 246.905 99.7181 246.565C99.1181 246.215 98.6431 245.74 98.2931 245.14C97.9431 244.53 97.7681 243.835 97.7681 243.055C97.7681 242.265 97.9431 241.57 98.2931 240.97C98.6431 240.37 99.1181 239.9 99.7181 239.56C100.318 239.22 101.003 239.05 101.773 239.05C102.553 239.05 103.243 239.22 103.843 239.56C104.453 239.9 104.928 240.37 105.268 240.97C105.618 241.57 105.793 242.265 105.793 243.055C105.793 243.835 105.618 244.53 105.268 245.14C104.928 245.74 104.453 246.215 103.843 246.565C103.233 246.905 102.543 247.075 101.773 247.075ZM101.773 246.13C102.343 246.13 102.848 246.005 103.288 245.755C103.728 245.495 104.073 245.135 104.323 244.675C104.583 244.205 104.713 243.665 104.713 243.055C104.713 242.435 104.583 241.895 104.323 241.435C104.073 240.975 103.728 240.62 103.288 240.37C102.848 240.11 102.348 239.98 101.788 239.98C101.228 239.98 100.728 240.11 100.288 240.37C99.8481 240.62 99.4981 240.975 99.2381 241.435C98.9781 241.895 98.8481 242.435 98.8481 243.055C98.8481 243.665 98.9781 244.205 99.2381 244.675C99.4981 245.135 99.8481 245.495 100.288 245.755C100.728 246.005 101.223 246.13 101.773 246.13ZM107.967 247V239.125H108.987V241.27L108.882 240.895C109.102 240.295 109.472 239.84 109.992 239.53C110.512 239.21 111.157 239.05 111.927 239.05V240.085C111.887 240.085 111.847 240.085 111.807 240.085C111.767 240.075 111.727 240.07 111.687 240.07C110.857 240.07 110.207 240.325 109.737 240.835C109.267 241.335 109.032 242.05 109.032 242.98V247H107.967ZM-96.675 257.05C-96.035 257.05 -95.48 257.175 -95.01 257.425C-94.53 257.665 -94.16 258.035 -93.9 258.535C-93.63 259.035 -93.495 259.665 -93.495 260.425V265H-94.56V260.53C-94.56 259.7 -94.76 259.075 -95.16 258.655C-95.55 258.225 -96.105 258.01 -96.825 258.01C-97.365 258.01 -97.835 258.125 -98.235 258.355C-98.625 258.575 -98.93 258.9 -99.15 259.33C-99.36 259.75 -99.465 260.26 -99.465 260.86V265H-100.53V260.53C-100.53 259.7 -100.73 259.075 -101.13 258.655C-101.53 258.225 -102.09 258.01 -102.81 258.01C-103.34 258.01 -103.805 258.125 -104.205 258.355C-104.605 258.575 -104.915 258.9 -105.135 259.33C-105.345 259.75 -105.45 260.26 -105.45 260.86V265H-106.515V257.125H-105.495V259.255L-105.66 258.88C-105.42 258.31 -105.035 257.865 -104.505 257.545C-103.965 257.215 -103.33 257.05 -102.6 257.05C-101.83 257.05 -101.175 257.245 -100.635 257.635C-100.095 258.015 -99.745 258.59 -99.585 259.36L-100.005 259.195C-99.775 258.555 -99.37 258.04 -98.79 257.65C-98.2 257.25 -97.495 257.05 -96.675 257.05ZM-87.3518 265.075C-88.0218 265.075 -88.6068 264.95 -89.1068 264.7C-89.6068 264.45 -89.9968 264.075 -90.2768 263.575C-90.5468 263.075 -90.6818 262.45 -90.6818 261.7V257.125H-89.6168V261.58C-89.6168 262.42 -89.4118 263.055 -89.0018 263.485C-88.5818 263.905 -87.9968 264.115 -87.2468 264.115C-86.6968 264.115 -86.2218 264.005 -85.8218 263.785C-85.4118 263.555 -85.1018 263.225 -84.8918 262.795C-84.6718 262.365 -84.5618 261.85 -84.5618 261.25V257.125H-83.4968V265H-84.5168V262.84L-84.3518 263.23C-84.6018 263.81 -84.9918 264.265 -85.5218 264.595C-86.0418 264.915 -86.6518 265.075 -87.3518 265.075ZM-80.5287 265V253.87H-79.4637V265H-80.5287ZM-73.9664 265.075C-74.7064 265.075 -75.2764 264.875 -75.6764 264.475C-76.0764 264.075 -76.2764 263.51 -76.2764 262.78V255.385H-75.2114V262.72C-75.2114 263.18 -75.0964 263.535 -74.8664 263.785C-74.6264 264.035 -74.2864 264.16 -73.8464 264.16C-73.3764 264.16 -72.9864 264.025 -72.6764 263.755L-72.3014 264.52C-72.5114 264.71 -72.7664 264.85 -73.0664 264.94C-73.3564 265.03 -73.6564 265.075 -73.9664 265.075ZM-77.6864 258.01V257.125H-72.8114V258.01H-77.6864ZM-70.3627 265V257.125H-69.2977V265H-70.3627ZM-69.8227 255.385C-70.0427 255.385 -70.2277 255.31 -70.3777 255.16C-70.5277 255.01 -70.6027 254.83 -70.6027 254.62C-70.6027 254.41 -70.5277 254.235 -70.3777 254.095C-70.2277 253.945 -70.0427 253.87 -69.8227 253.87C-69.6027 253.87 -69.4177 253.94 -69.2677 254.08C-69.1177 254.22 -69.0427 254.395 -69.0427 254.605C-69.0427 254.825 -69.1177 255.01 -69.2677 255.16C-69.4077 255.31 -69.5927 255.385 -69.8227 255.385ZM-62.2693 265.075C-62.9493 265.075 -63.5643 264.92 -64.1143 264.61C-64.6643 264.29 -65.1043 263.835 -65.4343 263.245C-65.7543 262.645 -65.9143 261.915 -65.9143 261.055C-65.9143 260.195 -65.7543 259.47 -65.4343 258.88C-65.1143 258.28 -64.6793 257.825 -64.1293 257.515C-63.5793 257.205 -62.9593 257.05 -62.2693 257.05C-61.5193 257.05 -60.8493 257.22 -60.2593 257.56C-59.6593 257.89 -59.1893 258.36 -58.8493 258.97C-58.5093 259.57 -58.3393 260.265 -58.3393 261.055C-58.3393 261.855 -58.5093 262.555 -58.8493 263.155C-59.1893 263.755 -59.6593 264.225 -60.2593 264.565C-60.8493 264.905 -61.5193 265.075 -62.2693 265.075ZM-66.3343 267.91V257.125H-65.3143V259.495L-65.4193 261.07L-65.2693 262.66V267.91H-66.3343ZM-62.3443 264.13C-61.7843 264.13 -61.2843 264.005 -60.8443 263.755C-60.4043 263.495 -60.0543 263.135 -59.7943 262.675C-59.5343 262.205 -59.4043 261.665 -59.4043 261.055C-59.4043 260.445 -59.5343 259.91 -59.7943 259.45C-60.0543 258.99 -60.4043 258.63 -60.8443 258.37C-61.2843 258.11 -61.7843 257.98 -62.3443 257.98C-62.9043 257.98 -63.4093 258.11 -63.8593 258.37C-64.2993 258.63 -64.6493 258.99 -64.9093 259.45C-65.1593 259.91 -65.2843 260.445 -65.2843 261.055C-65.2843 261.665 -65.1593 262.205 -64.9093 262.675C-64.6493 263.135 -64.2993 263.495 -63.8593 263.755C-63.4093 264.005 -62.9043 264.13 -62.3443 264.13ZM-56.1683 265V253.87H-55.1033V265H-56.1683ZM-48.795 265.075C-49.615 265.075 -50.335 264.905 -50.955 264.565C-51.575 264.215 -52.06 263.74 -52.41 263.14C-52.76 262.53 -52.935 261.835 -52.935 261.055C-52.935 260.275 -52.77 259.585 -52.44 258.985C-52.1 258.385 -51.64 257.915 -51.06 257.575C-50.47 257.225 -49.81 257.05 -49.08 257.05C-48.34 257.05 -47.685 257.22 -47.115 257.56C-46.535 257.89 -46.08 258.36 -45.75 258.97C-45.42 259.57 -45.255 260.265 -45.255 261.055C-45.255 261.105 -45.26 261.16 -45.27 261.22C-45.27 261.27 -45.27 261.325 -45.27 261.385H-52.125V260.59H-45.84L-46.26 260.905C-46.26 260.335 -46.385 259.83 -46.635 259.39C-46.875 258.94 -47.205 258.59 -47.625 258.34C-48.045 258.09 -48.53 257.965 -49.08 257.965C-49.62 257.965 -50.105 258.09 -50.535 258.34C-50.965 258.59 -51.3 258.94 -51.54 259.39C-51.78 259.84 -51.9 260.355 -51.9 260.935V261.1C-51.9 261.7 -51.77 262.23 -51.51 262.69C-51.24 263.14 -50.87 263.495 -50.4 263.755C-49.92 264.005 -49.375 264.13 -48.765 264.13C-48.285 264.13 -47.84 264.045 -47.43 263.875C-47.01 263.705 -46.65 263.445 -46.35 263.095L-45.75 263.785C-46.1 264.205 -46.54 264.525 -47.07 264.745C-47.59 264.965 -48.165 265.075 -48.795 265.075ZM-43.5258 261.4V260.47H-39.5958V261.4H-43.5258ZM-33.7968 265.075C-34.5768 265.075 -35.2768 264.905 -35.8968 264.565C-36.5068 264.215 -36.9868 263.74 -37.3368 263.14C-37.6868 262.53 -37.8618 261.835 -37.8618 261.055C-37.8618 260.265 -37.6868 259.57 -37.3368 258.97C-36.9868 258.37 -36.5068 257.9 -35.8968 257.56C-35.2768 257.22 -34.5768 257.05 -33.7968 257.05C-33.1268 257.05 -32.5218 257.18 -31.9818 257.44C-31.4418 257.7 -31.0168 258.09 -30.7068 258.61L-31.5018 259.15C-31.7718 258.75 -32.1068 258.455 -32.5068 258.265C-32.9068 258.075 -33.3418 257.98 -33.8118 257.98C-34.3718 257.98 -34.8768 258.11 -35.3268 258.37C-35.7768 258.62 -36.1318 258.975 -36.3918 259.435C-36.6518 259.895 -36.7818 260.435 -36.7818 261.055C-36.7818 261.675 -36.6518 262.215 -36.3918 262.675C-36.1318 263.135 -35.7768 263.495 -35.3268 263.755C-34.8768 264.005 -34.3718 264.13 -33.8118 264.13C-33.3418 264.13 -32.9068 264.035 -32.5068 263.845C-32.1068 263.655 -31.7718 263.365 -31.5018 262.975L-30.7068 263.515C-31.0168 264.025 -31.4418 264.415 -31.9818 264.685C-32.5218 264.945 -33.1268 265.075 -33.7968 265.075ZM-24.7118 257.05C-24.0718 257.05 -23.5118 257.175 -23.0318 257.425C-22.5418 257.665 -22.1618 258.035 -21.8918 258.535C-21.6118 259.035 -21.4718 259.665 -21.4718 260.425V265H-22.5368V260.53C-22.5368 259.7 -22.7468 259.075 -23.1668 258.655C-23.5768 258.225 -24.1568 258.01 -24.9068 258.01C-25.4668 258.01 -25.9568 258.125 -26.3768 258.355C-26.7868 258.575 -27.1068 258.9 -27.3368 259.33C-27.5568 259.75 -27.6668 260.26 -27.6668 260.86V265H-28.7318V253.87H-27.6668V259.285L-27.8768 258.88C-27.6268 258.31 -27.2268 257.865 -26.6768 257.545C-26.1268 257.215 -25.4718 257.05 -24.7118 257.05ZM-15.3851 265.075C-16.1451 265.075 -16.8301 264.905 -17.4401 264.565C-18.0401 264.215 -18.5151 263.74 -18.8651 263.14C-19.2151 262.53 -19.3901 261.835 -19.3901 261.055C-19.3901 260.265 -19.2151 259.57 -18.8651 258.97C-18.5151 258.37 -18.0401 257.9 -17.4401 257.56C-16.8401 257.22 -16.1551 257.05 -15.3851 257.05C-14.6051 257.05 -13.9151 257.22 -13.3151 257.56C-12.7051 257.9 -12.2301 258.37 -11.8901 258.97C-11.5401 259.57 -11.3651 260.265 -11.3651 261.055C-11.3651 261.835 -11.5401 262.53 -11.8901 263.14C-12.2301 263.74 -12.7051 264.215 -13.3151 264.565C-13.9251 264.905 -14.6151 265.075 -15.3851 265.075ZM-15.3851 264.13C-14.8151 264.13 -14.3101 264.005 -13.8701 263.755C-13.4301 263.495 -13.0851 263.135 -12.8351 262.675C-12.5751 262.205 -12.4451 261.665 -12.4451 261.055C-12.4451 260.435 -12.5751 259.895 -12.8351 259.435C-13.0851 258.975 -13.4301 258.62 -13.8701 258.37C-14.3101 258.11 -14.8101 257.98 -15.3701 257.98C-15.9301 257.98 -16.4301 258.11 -16.8701 258.37C-17.3101 258.62 -17.6601 258.975 -17.9201 259.435C-18.1801 259.895 -18.3101 260.435 -18.3101 261.055C-18.3101 261.665 -18.1801 262.205 -17.9201 262.675C-17.6601 263.135 -17.3101 263.495 -16.8701 263.755C-16.4301 264.005 -15.9351 264.13 -15.3851 264.13ZM-9.19078 265V257.125H-8.12578V265H-9.19078ZM-8.65078 255.385C-8.87078 255.385 -9.05578 255.31 -9.20578 255.16C-9.35578 255.01 -9.43078 254.83 -9.43078 254.62C-9.43078 254.41 -9.35578 254.235 -9.20578 254.095C-9.05578 253.945 -8.87078 253.87 -8.65078 253.87C-8.43078 253.87 -8.24578 253.94 -8.09578 254.08C-7.94578 254.22 -7.87078 254.395 -7.87078 254.605C-7.87078 254.825 -7.94578 255.01 -8.09578 255.16C-8.23578 255.31 -8.42078 255.385 -8.65078 255.385ZM-1.89246 265.075C-2.67246 265.075 -3.37246 264.905 -3.99246 264.565C-4.60246 264.215 -5.08246 263.74 -5.43246 263.14C-5.78246 262.53 -5.95746 261.835 -5.95746 261.055C-5.95746 260.265 -5.78246 259.57 -5.43246 258.97C-5.08246 258.37 -4.60246 257.9 -3.99246 257.56C-3.37246 257.22 -2.67246 257.05 -1.89246 257.05C-1.22246 257.05 -0.617461 257.18 -0.0774606 257.44C0.462539 257.7 0.887539 258.09 1.19754 258.61L0.402539 259.15C0.132539 258.75 -0.202461 258.455 -0.602461 258.265C-1.00246 258.075 -1.43746 257.98 -1.90746 257.98C-2.46746 257.98 -2.97246 258.11 -3.42246 258.37C-3.87246 258.62 -4.22746 258.975 -4.48746 259.435C-4.74746 259.895 -4.87746 260.435 -4.87746 261.055C-4.87746 261.675 -4.74746 262.215 -4.48746 262.675C-4.22746 263.135 -3.87246 263.495 -3.42246 263.755C-2.97246 264.005 -2.46746 264.13 -1.90746 264.13C-1.43746 264.13 -1.00246 264.035 -0.602461 263.845C-0.202461 263.655 0.132539 263.365 0.402539 262.975L1.19754 263.515C0.887539 264.025 0.462539 264.415 -0.0774606 264.685C-0.617461 264.945 -1.22246 265.075 -1.89246 265.075ZM6.50285 265.075C5.68285 265.075 4.96285 264.905 4.34285 264.565C3.72285 264.215 3.23785 263.74 2.88785 263.14C2.53785 262.53 2.36285 261.835 2.36285 261.055C2.36285 260.275 2.52785 259.585 2.85785 258.985C3.19785 258.385 3.65785 257.915 4.23785 257.575C4.82785 257.225 5.48785 257.05 6.21785 257.05C6.95785 257.05 7.61285 257.22 8.18285 257.56C8.76285 257.89 9.21785 258.36 9.54785 258.97C9.87785 259.57 10.0429 260.265 10.0429 261.055C10.0429 261.105 10.0379 261.16 10.0279 261.22C10.0279 261.27 10.0279 261.325 10.0279 261.385H3.17285V260.59H9.45785L9.03785 260.905C9.03785 260.335 8.91285 259.83 8.66285 259.39C8.42285 258.94 8.09285 258.59 7.67285 258.34C7.25285 258.09 6.76785 257.965 6.21785 257.965C5.67785 257.965 5.19285 258.09 4.76285 258.34C4.33285 258.59 3.99785 258.94 3.75785 259.39C3.51785 259.84 3.39785 260.355 3.39785 260.935V261.1C3.39785 261.7 3.52785 262.23 3.78785 262.69C4.05785 263.14 4.42785 263.495 4.89785 263.755C5.37785 264.005 5.92285 264.13 6.53285 264.13C7.01285 264.13 7.45785 264.045 7.86785 263.875C8.28785 263.705 8.64785 263.445 8.94785 263.095L9.54785 263.785C9.19785 264.205 8.75785 264.525 8.22785 264.745C7.70785 264.965 7.13285 265.075 6.50285 265.075ZM12.3156 265.075C12.0956 265.075 11.9056 264.995 11.7456 264.835C11.5956 264.675 11.5206 264.48 11.5206 264.25C11.5206 264.01 11.5956 263.815 11.7456 263.665C11.9056 263.515 12.0956 263.44 12.3156 263.44C12.5356 263.44 12.7206 263.515 12.8706 263.665C13.0306 263.815 13.1106 264.01 13.1106 264.25C13.1106 264.48 13.0306 264.675 12.8706 264.835C12.7206 264.995 12.5356 265.075 12.3156 265.075Z" fill="#434343"/>
<g clip-path="url(#clip0_463_3515)">
<g filter="url(#filter1_d_463_3515)">
<path d="M67.6756 66.3621C66.4467 65.0966 65.1793 63.7897 64.7638 62.8C64.3938 61.9172 64.3658 60.1 64.3414 58.5C64.289 55.0517 64.2227 50.7621 61.1363 47.7172C58.0499 44.6724 53.7101 44.6138 50.2188 44.5517C48.5988 44.5276 46.7588 44.5 45.865 44.1345C44.863 43.7241 43.5397 42.4724 42.2584 41.2586C39.7865 38.9172 36.7071 36 32.5 36C28.2929 36 25.2135 38.9172 22.7416 41.2586C21.4603 42.4724 20.137 43.7241 19.135 44.1345C18.2412 44.5 16.4013 44.5276 14.7812 44.5517C11.2899 44.6207 6.9466 44.669 3.87069 47.7241C0.794785 50.7793 0.728448 55.0517 0.658621 58.5C0.634181 60.1 0.60625 61.9172 0.236164 62.8C-0.17931 63.7897 -1.44668 65.0966 -2.67565 66.3621C-5.04629 68.8035 -8 71.8621 -8 76C-8 80.1379 -5.04629 83.1966 -2.67565 85.6552C-1.44668 86.9207 -0.17931 88.2276 0.236164 89.2172C0.60625 90.1 0.634181 91.9172 0.658621 93.5172C0.710991 96.9655 0.777328 101.255 3.86371 104.3C6.95009 107.345 11.2899 107.403 14.7812 107.466C16.4013 107.49 18.2412 107.517 19.135 107.883C20.137 108.293 21.4603 109.545 22.7416 110.759C25.2135 113.083 28.3103 116 32.5 116C36.6897 116 39.7865 113.083 42.2584 110.741C43.5397 109.528 44.863 108.276 45.865 107.866C46.7588 107.5 48.5988 107.472 50.2188 107.448C53.7101 107.397 58.0534 107.331 61.1363 104.283C64.2192 101.234 64.2785 96.9483 64.3414 93.5C64.3658 91.9 64.3938 90.0828 64.7638 89.2C65.1793 88.2103 66.4467 86.9035 67.6756 85.6379C70.0463 83.1966 73 80.1552 73 76C73 71.8448 70.0463 68.8035 67.6756 66.3621ZM61.6286 79.9103C59.9457 81.6345 58.0394 83.6069 57.0235 86.0345C56.0389 88.3793 56.0005 90.9172 55.976 93.3759C55.9481 95.2241 55.9097 97.7586 55.2254 98.431C54.5411 99.1035 51.9784 99.1448 50.107 99.1724C47.6177 99.2103 45.048 99.2483 42.6739 100.207C40.2299 101.21 38.2294 103.093 36.4732 104.755C35.2163 105.945 33.3379 107.724 32.5 107.724C31.6621 107.724 29.7837 105.945 28.5408 104.769C26.7951 103.107 24.798 101.224 22.3401 100.221C19.9659 99.2483 17.3963 99.2103 14.9069 99.1862C13.0356 99.1586 10.4694 99.1207 9.78858 98.4448C9.10776 97.769 9.06586 95.2379 9.03793 93.3897C8.99953 90.931 8.96112 88.3931 7.99052 86.0483C6.97453 83.6345 5.06823 81.6586 3.38539 79.9241C2.18086 78.6828 0.379311 76.8276 0.379311 76C0.379311 75.1724 2.18086 73.3172 3.37142 72.0897C5.05427 70.3655 6.96056 68.3931 7.97655 65.9655C8.96112 63.6207 8.99953 61.0828 9.02397 58.6241C9.06586 56.7759 9.10776 54.2414 9.80603 53.5862C10.5043 52.931 13.053 52.8724 14.9244 52.8448C17.4138 52.8069 19.9834 52.769 22.3575 51.8103C24.8015 50.8069 26.8021 48.9241 28.5582 47.2621C29.7837 46.0552 31.6621 44.2759 32.5 44.2759C33.3379 44.2759 35.2163 46.0552 36.4592 47.231C38.2049 48.8931 40.202 50.7759 42.6599 51.7793C45.0341 52.7517 47.6037 52.7897 50.0931 52.8138C51.9644 52.8414 54.5306 52.8793 55.2114 53.5552C55.8922 54.231 55.9341 56.7621 55.9621 58.6103C56.0005 61.069 56.0389 63.6069 57.0095 65.9517C58.0255 68.3655 59.9318 70.3414 61.6146 72.0759C62.8052 73.3035 64.6067 75.1586 64.6067 75.9862C64.6067 76.8138 62.8191 78.6828 61.6286 79.9103ZM38.0862 93.931C38.0862 95.0222 37.7586 96.0889 37.1448 96.9963C36.5309 97.9036 35.6585 98.6107 34.6378 99.0283C33.617 99.4459 32.4938 99.5551 31.4102 99.3423C30.3266 99.1294 29.3312 98.6039 28.55 97.8323C27.7687 97.0607 27.2367 96.0776 27.0211 95.0074C26.8056 93.9372 26.9162 92.8278 27.339 91.8197C27.7618 90.8115 28.4778 89.9499 29.3965 89.3436C30.3151 88.7374 31.3952 88.4138 32.5 88.4138C33.9816 88.4138 35.4024 88.9951 36.45 90.0298C37.4977 91.0644 38.0862 92.4678 38.0862 93.931ZM47.8621 69.1034C47.8621 75.4379 43.0824 80.7862 36.5954 82.4C36.3771 83.3993 35.7919 84.2835 34.9527 84.8819C34.1135 85.4804 33.0797 85.7509 32.0506 85.6413C31.0215 85.5316 30.0699 85.0496 29.3792 84.2881C28.6886 83.5266 28.3078 82.5396 28.3103 81.5172V78.7586C28.3103 77.6612 28.7518 76.6087 29.5375 75.8327C30.3232 75.0566 31.3888 74.6207 32.5 74.6207C36.3405 74.6207 39.4828 72.1448 39.4828 69.1034C39.4828 66.0621 36.3405 63.5862 32.5 63.5862C28.6595 63.5862 25.5172 66.0621 25.5172 69.1034V70.4828C25.5172 71.5802 25.0758 72.6327 24.2901 73.4087C23.5044 74.1847 22.4388 74.6207 21.3276 74.6207C20.2164 74.6207 19.1508 74.1847 18.3651 73.4087C17.5793 72.6327 17.1379 71.5802 17.1379 70.4828V69.1034C17.1379 61.4966 24.0299 55.3103 32.5 55.3103C40.9701 55.3103 47.8621 61.4966 47.8621 69.1034Z" fill="#FFD863"/>
<path d="M61.9875 80.2584L61.9864 80.2596C60.2932 81.9944 58.458 83.9018 57.4847 86.2275L57.4845 86.2281C56.5438 88.4683 56.5006 90.9077 56.476 93.3808L56.476 93.3834L56.4758 93.3942C56.462 94.3112 56.4451 95.4251 56.3442 96.3961C56.2935 96.8835 56.2201 97.352 56.1092 97.7512C56.0026 98.135 55.8432 98.5249 55.5758 98.7877C55.3101 99.0488 54.9177 99.2047 54.5306 99.3093C54.1278 99.4182 53.6548 99.4907 53.162 99.541C52.1764 99.6414 51.0455 99.6586 50.1144 99.6724M61.9875 80.2584L50.0971 99.1726C47.6108 99.2104 45.0449 99.2495 42.6739 100.207M61.9875 80.2584C62.5813 79.6462 63.3397 78.8581 63.9502 78.1159C64.2551 77.7453 64.5333 77.3741 64.7377 77.0328C64.9293 76.7131 65.1067 76.3395 65.1067 75.9862C65.1067 75.6315 64.9272 75.2581 64.7343 74.9396C64.5283 74.5996 64.2481 74.2301 63.9416 73.8614C63.3335 73.13 62.5797 72.3528 61.9899 71.7446L61.9735 71.7278L61.9735 71.7277C60.2797 69.9819 58.4445 68.0714 57.4709 65.7591C56.5434 63.5174 56.5007 61.0778 56.462 58.6028M61.9875 80.2584L22.1691 51.3472M50.1144 99.6724L50.107 99.1724L50.1146 99.6724C50.1146 99.6724 50.1145 99.6724 50.1144 99.6724ZM50.1144 99.6724C47.609 99.7105 45.1356 99.7526 42.8628 100.67M42.8628 100.67C42.8631 100.67 42.8635 100.67 42.8638 100.669L42.6739 100.207M42.8628 100.67C42.8622 100.67 42.8617 100.67 42.8611 100.671L42.6739 100.207M42.8628 100.67C40.5194 101.632 38.584 103.446 36.8169 105.118L36.8035 105.131C36.1802 105.721 35.3882 106.471 34.6445 107.074C34.2704 107.378 33.896 107.655 33.552 107.858C33.2289 108.049 32.8539 108.224 32.5 108.224C32.1462 108.224 31.7712 108.049 31.4483 107.858C31.1045 107.655 30.7306 107.379 30.3573 107.076C29.6169 106.475 28.8301 105.731 28.2143 105.148L28.1972 105.132L28.196 105.131C26.4401 103.459 24.508 101.646 22.1511 100.684L22.1506 100.683C19.8791 99.753 17.4058 99.7105 14.9021 99.6862L14.8996 99.6862L14.8891 99.686C13.9604 99.6723 12.8332 99.6557 11.8509 99.5561C11.3578 99.5061 10.8845 99.4337 10.4816 99.3245C10.0946 99.2197 9.70161 99.063 9.43632 98.7997C9.17117 98.5365 9.01252 98.1471 8.90616 97.7633C8.79557 97.3642 8.72202 96.896 8.67113 96.4088C8.56934 95.4345 8.55189 94.3169 8.53799 93.3975L42.6739 100.207M3.0125 71.7416L3.01361 71.7404C4.70685 70.0056 6.54198 68.0982 7.51532 65.7725L7.51554 65.7719C8.45622 63.5317 8.4994 61.0923 8.52399 58.6192L8.52405 58.6128L8.52409 58.6128C8.52505 58.5707 8.526 58.5281 8.52697 58.4852C8.547 57.5931 8.57084 56.5314 8.67179 55.6037C8.72471 55.1173 8.80055 54.6497 8.91449 54.2521C9.02394 53.8702 9.18801 53.4805 9.46391 53.2216C9.73128 52.9707 10.1209 52.8184 10.5079 52.7148C10.9101 52.6072 11.3816 52.5342 11.8734 52.4829C12.8573 52.3802 13.9839 52.3586 14.917 52.3449M3.0125 71.7416L14.917 52.3449M3.0125 71.7416L2.996 71.7586C2.40615 72.3668 1.65246 73.1439 1.04444 73.8752C0.737888 74.2439 0.457764 74.6134 0.251765 74.9534C0.0588474 75.2718 -0.120689 75.6453 -0.120689 76C-0.120689 76.3547 0.0588827 76.7282 0.252037 77.0469C0.458269 77.3871 0.738844 77.7571 1.04626 78.1267C1.65734 78.8612 2.41642 79.6435 3.01374 80.2591L3.02653 80.2723C4.72032 82.0181 6.55547 83.9287 7.52913 86.2409M3.0125 71.7416L7.52913 86.2409M14.917 52.3449C17.4226 52.3067 19.8962 52.2646 22.1691 51.3472M14.917 52.3449L22.1691 51.3472M22.1691 51.3472C24.5107 50.3853 26.4449 48.5737 28.211 46.9023C28.824 46.2986 29.6124 45.5397 30.3577 44.9295C30.7304 44.6243 31.104 44.3466 31.4479 44.1427C31.771 43.9511 32.146 43.7759 32.5 43.7759C32.8538 43.7759 33.2288 43.951 33.5517 44.1418C33.8955 44.345 34.2694 44.6214 34.6427 44.9242C35.3831 45.5247 36.17 46.2691 36.7858 46.8517L36.8028 46.8678L36.804 46.8689C38.5599 48.5407 40.492 50.3542 42.8489 51.3164L42.8494 51.3166C45.1209 52.247 47.5942 52.2895 50.0979 52.3138L50.1004 52.3138L50.111 52.314C51.0397 52.3277 52.1668 52.3443 53.1492 52.4439C53.6422 52.4939 54.1155 52.5663 54.5184 52.6755C54.9054 52.7803 55.2984 52.937 55.5637 53.2003C55.8288 53.4635 55.9875 53.8529 56.0938 54.2367C56.2044 54.6358 56.278 55.104 56.3289 55.5912C56.4307 56.5656 56.4481 57.6833 56.462 58.6028M56.462 58.6028L55.9621 58.6103L56.462 58.6025C56.462 58.6026 56.462 58.6027 56.462 58.6028ZM7.52913 86.2409C8.4566 88.4826 8.49933 90.9222 8.53799 93.3972L7.52913 86.2409ZM64.3027 62.9933L64.3028 62.9935C64.5427 63.565 65.0079 64.1888 65.5353 64.8032C66.0696 65.4257 66.705 66.0802 67.3169 66.7104C69.7161 69.1811 72.5 72.08 72.5 76C72.5 79.92 69.7161 82.8189 67.3169 85.2896C66.705 85.9198 66.0696 86.5743 65.5353 87.1968C65.0079 87.8112 64.5427 88.435 64.3028 89.0065L64.3027 89.0067C64.0833 89.5302 63.9808 90.2779 63.9243 91.0443C63.8669 91.8243 63.8537 92.6914 63.8415 93.4865L63.8415 93.4909C63.7779 96.9778 63.7005 101.044 60.7847 103.927C57.8669 106.812 53.7401 106.896 50.2113 106.948L50.2053 106.948C49.4002 106.96 48.5228 106.973 47.7337 107.03C46.958 107.086 46.2033 107.187 45.6757 107.403L45.6755 107.403C45.0987 107.639 44.4678 108.098 43.8455 108.619C43.2153 109.146 42.5526 109.774 41.9146 110.378C39.4156 112.745 36.4596 115.5 32.5 115.5C28.5402 115.5 25.5848 112.746 23.0848 110.395C22.4469 109.791 21.7845 109.163 21.1545 108.636C20.5322 108.115 19.9013 107.656 19.3245 107.42L19.3243 107.42C18.7967 107.204 18.042 107.103 17.2663 107.047C16.4772 106.991 15.5998 106.978 14.7947 106.966L14.7901 106.966C14.79 106.966 14.7899 106.966 14.7897 106.966C11.259 106.903 7.13623 106.826 4.21486 103.944C1.29613 101.065 1.21149 96.9944 1.15856 93.5097L1.15856 93.5096L1.15847 93.5036C1.14633 92.7086 1.13308 91.8415 1.07566 91.0616C1.01923 90.2952 0.91674 89.5474 0.697281 89.0239L0.697186 89.0237C0.457282 88.4523 -0.00791264 87.8284 -0.535276 87.214C-1.06944 86.5917 -1.70467 85.9373 -2.31654 85.3073C-4.71622 82.8185 -7.5 79.903 -7.5 76C-7.5 72.097 -4.71564 69.1807 -2.31695 66.7104C-1.70496 66.0802 -1.06956 65.4257 -0.535276 64.8032C-0.00791264 64.1888 0.457282 63.565 0.697186 62.9935L0.697281 62.9933C0.91674 62.4698 1.01923 61.7221 1.07566 60.9557C1.13308 60.1758 1.14633 59.3087 1.15847 58.5136L1.15852 58.5101C1.15853 58.5097 1.15854 58.5093 1.15854 58.5089C1.22914 55.0228 1.31314 50.9692 4.22305 48.0789C7.11843 45.203 11.2145 45.1222 14.7357 45.0527L14.7887 45.0517L14.7911 45.0516L14.7945 45.0516C15.5997 45.0396 16.4771 45.0265 17.2663 44.9698C18.042 44.9141 18.7967 44.813 19.3243 44.5973L19.3245 44.5972C19.9013 44.361 20.5322 43.9023 21.1545 43.3812C21.7847 42.8536 22.4473 42.2261 23.0854 41.6216C25.5848 39.2542 28.5232 36.5 32.5 36.5C36.4768 36.5 39.4152 39.2542 41.9145 41.6216C42.5526 42.2261 43.2153 42.8536 43.8455 43.3812C44.4678 43.9023 45.0987 44.361 45.6755 44.5972L45.6757 44.5973C46.2033 44.813 46.958 44.9141 47.7337 44.9698C48.5229 45.0265 49.4003 45.0396 50.2055 45.0516L50.2099 45.0516C50.2101 45.0517 50.2104 45.0517 50.2107 45.0517C53.7414 45.1144 57.8639 45.1913 60.7851 48.0732C63.7039 50.9526 63.7885 55.0228 63.8414 58.5076L63.8415 58.5135C63.8537 59.3086 63.8669 60.1757 63.9243 60.9557C63.9808 61.7221 64.0833 62.4698 64.3027 62.9933ZM36.4747 81.9148L36.1732 81.9898L36.1069 82.2933C35.9153 83.1703 35.4014 83.9478 34.6624 84.4749C33.9232 85.002 33.0117 85.2409 32.1036 85.1441C31.1956 85.0473 30.3572 84.6221 29.7496 83.9522C29.1422 83.2824 28.8082 82.4154 28.8103 81.5185V81.5172V78.7586C28.8103 77.7958 29.1975 76.8711 29.8888 76.1884C30.5803 75.5055 31.5195 75.1207 32.5 75.1207C36.5 75.1207 39.9828 72.5247 39.9828 69.1034C39.9828 65.6822 36.5 63.0862 32.5 63.0862C28.5 63.0862 25.0172 65.6822 25.0172 69.1034V70.4828C25.0172 71.4456 24.63 72.3702 23.9388 73.053C23.2473 73.7359 22.3081 74.1207 21.3276 74.1207C20.347 74.1207 19.4079 73.7359 18.7164 73.053C18.0251 72.3702 17.6379 71.4456 17.6379 70.4828V69.1034C17.6379 61.822 24.254 55.8103 32.5 55.8103C40.746 55.8103 47.3621 61.822 47.3621 69.1034C47.3621 75.1696 42.7787 80.3465 36.4747 81.9148ZM37.5862 93.931C37.5862 94.922 37.2887 95.8912 36.7306 96.7161C36.1725 97.5411 35.3785 98.185 34.4484 98.5655C33.5183 98.9461 32.4944 99.0457 31.5066 98.8516C30.5188 98.6576 29.6122 98.1787 28.9013 97.4766C28.1904 96.7745 27.7071 95.8807 27.5113 94.9087C27.3155 93.9367 27.4159 92.9291 27.8001 92.0131C28.1843 91.097 28.8354 90.313 29.6719 89.7609C30.5085 89.2088 31.4927 88.9138 32.5 88.9138C33.8509 88.9138 35.1453 89.4439 36.0987 90.3855C37.0519 91.3269 37.5862 92.6024 37.5862 93.931Z" stroke="#DCB84C"/>
</g>
</g>
<defs>
<filter id="filter0_di_463_3515" x="-125" y="0" width="314" height="342" filterUnits="userSpaceOnUse" color-interpolation-filters="sRGB">
<feFlood flood-opacity="0" result="BackgroundImageFix"/>
<feColorMatrix in="SourceAlpha" type="matrix" values="0 0 0 0 0 0 0 0 0 0 0 0 0 0 0 0 0 0 127 0" result="hardAlpha"/>
<feOffset dy="4"/>
<feGaussianBlur stdDeviation="2"/>
<feComposite in2="hardAlpha" operator="out"/>
<feColorMatrix type="matrix" values="0 0 0 0 0 0 0 0 0 0 0 0 0 0 0 0 0 0 0.25 0"/>
<feBlend mode="normal" in2="BackgroundImageFix" result="effect1_dropShadow_463_3515"/>
<feBlend mode="normal" in="SourceGraphic" in2="effect1_dropShadow_463_3515" result="shape"/>
<feColorMatrix in="SourceAlpha" type="matrix" values="0 0 0 0 0 0 0 0 0 0 0 0 0 0 0 0 0 0 127 0" result="hardAlpha"/>
<feOffset dy="10"/>
<feGaussianBlur stdDeviation="3"/>
<feComposite in2="hardAlpha" operator="arithmetic" k2="-1" k3="1"/>
<feColorMatrix type="matrix" values="0 0 0 0 0 0 0 0 0 0 0 0 0 0 0 0 0 0 0.25 0"/>
<feBlend mode="normal" in2="shape" result="effect2_innerShadow_463_3515"/>
</filter>
<filter id="filter1_d_463_3515" x="-12" y="36" width="89" height="88" filterUnits="userSpaceOnUse" color-interpolation-filters="sRGB">
<feFlood flood-opacity="0" result="BackgroundImageFix"/>
<feColorMatrix in="SourceAlpha" type="matrix" values="0 0 0 0 0 0 0 0 0 0 0 0 0 0 0 0 0 0 127 0" result="hardAlpha"/>
<feOffset dy="4"/>
<feGaussianBlur stdDeviation="2"/>
<feComposite in2="hardAlpha" operator="out"/>
<feColorMatrix type="matrix" values="0 0 0 0 0 0 0 0 0 0 0 0 0 0 0 0 0 0 0.25 0"/>
<feBlend mode="normal" in2="BackgroundImageFix" result="effect1_dropShadow_463_3515"/>
<feBlend mode="normal" in="SourceGraphic" in2="effect1_dropShadow_463_3515" result="shape"/>
</filter>
<clipPath id="clip0_463_3515">
<rect width="91" height="92" fill="white" transform="translate(-13 29)"/>
</clipPath>
</defs>
</svg>
