<svg width="314" height="342" viewBox="0 0 314 342" fill="none" xmlns="http://www.w3.org/2000/svg">
<g filter="url(#filter0_di_87_650)">
<rect x="4" width="306" height="334" rx="29" fill="#D9D9D9"/>
</g>
<path d="M17.215 229V225.1L17.47 225.79L13.015 218.5H14.2L18.115 224.905H17.485L21.4 218.5H22.51L18.055 225.79L18.31 225.1V229H17.215ZM26.3229 229.075C25.5629 229.075 24.8779 228.905 24.2679 228.565C23.6679 228.215 23.1929 227.74 22.8429 227.14C22.4929 226.53 22.3179 225.835 22.3179 225.055C22.3179 224.265 22.4929 223.57 22.8429 222.97C23.1929 222.37 23.6679 221.9 24.2679 221.56C24.8679 221.22 25.5529 221.05 26.3229 221.05C27.1029 221.05 27.7929 221.22 28.3929 221.56C29.0029 221.9 29.4779 222.37 29.8179 222.97C30.1679 223.57 30.3429 224.265 30.3429 225.055C30.3429 225.835 30.1679 226.53 29.8179 227.14C29.4779 227.74 29.0029 228.215 28.3929 228.565C27.7829 228.905 27.0929 229.075 26.3229 229.075ZM26.3229 228.13C26.8929 228.13 27.3979 228.005 27.8379 227.755C28.2779 227.495 28.6229 227.135 28.8729 226.675C29.1329 226.205 29.2629 225.665 29.2629 225.055C29.2629 224.435 29.1329 223.895 28.8729 223.435C28.6229 222.975 28.2779 222.62 27.8379 222.37C27.3979 222.11 26.8979 221.98 26.3379 221.98C25.7779 221.98 25.2779 222.11 24.8379 222.37C24.3979 222.62 24.0479 222.975 23.7879 223.435C23.5279 223.895 23.3979 224.435 23.3979 225.055C23.3979 225.665 23.5279 226.205 23.7879 226.675C24.0479 227.135 24.3979 227.495 24.8379 227.755C25.2779 228.005 25.7729 228.13 26.3229 228.13ZM35.7722 229.075C35.1022 229.075 34.5172 228.95 34.0172 228.7C33.5172 228.45 33.1272 228.075 32.8472 227.575C32.5772 227.075 32.4422 226.45 32.4422 225.7V221.125H33.5072V225.58C33.5072 226.42 33.7122 227.055 34.1222 227.485C34.5422 227.905 35.1272 228.115 35.8772 228.115C36.4272 228.115 36.9022 228.005 37.3022 227.785C37.7122 227.555 38.0222 227.225 38.2322 226.795C38.4522 226.365 38.5622 225.85 38.5622 225.25V221.125H39.6272V229H38.6072V226.84L38.7722 227.23C38.5222 227.81 38.1322 228.265 37.6022 228.595C37.0822 228.915 36.4722 229.075 35.7722 229.075ZM49.7911 229.075C49.0111 229.075 48.3111 228.905 47.6911 228.565C47.0811 228.215 46.6011 227.74 46.2511 227.14C45.9011 226.53 45.7261 225.835 45.7261 225.055C45.7261 224.265 45.9011 223.57 46.2511 222.97C46.6011 222.37 47.0811 221.9 47.6911 221.56C48.3111 221.22 49.0111 221.05 49.7911 221.05C50.4611 221.05 51.0661 221.18 51.6061 221.44C52.1461 221.7 52.5711 222.09 52.8811 222.61L52.0861 223.15C51.8161 222.75 51.4811 222.455 51.0811 222.265C50.6811 222.075 50.2461 221.98 49.7761 221.98C49.2161 221.98 48.7111 222.11 48.2611 222.37C47.8111 222.62 47.4561 222.975 47.1961 223.435C46.9361 223.895 46.8061 224.435 46.8061 225.055C46.8061 225.675 46.9361 226.215 47.1961 226.675C47.4561 227.135 47.8111 227.495 48.2611 227.755C48.7111 228.005 49.2161 228.13 49.7761 228.13C50.2461 228.13 50.6811 228.035 51.0811 227.845C51.4811 227.655 51.8161 227.365 52.0861 226.975L52.8811 227.515C52.5711 228.025 52.1461 228.415 51.6061 228.685C51.0661 228.945 50.4611 229.075 49.7911 229.075ZM59.9083 229V227.26L59.8633 226.975V224.065C59.8633 223.395 59.6733 222.88 59.2933 222.52C58.9233 222.16 58.3683 221.98 57.6283 221.98C57.1183 221.98 56.6333 222.065 56.1733 222.235C55.7133 222.405 55.3233 222.63 55.0033 222.91L54.5233 222.115C54.9233 221.775 55.4033 221.515 55.9633 221.335C56.5233 221.145 57.1133 221.05 57.7333 221.05C58.7533 221.05 59.5383 221.305 60.0883 221.815C60.6483 222.315 60.9283 223.08 60.9283 224.11V229H59.9083ZM57.1933 229.075C56.6033 229.075 56.0883 228.98 55.6483 228.79C55.2183 228.59 54.8883 228.32 54.6583 227.98C54.4283 227.63 54.3133 227.23 54.3133 226.78C54.3133 226.37 54.4083 226 54.5983 225.67C54.7983 225.33 55.1183 225.06 55.5583 224.86C56.0083 224.65 56.6083 224.545 57.3583 224.545H60.0733V225.34H57.3883C56.6283 225.34 56.0983 225.475 55.7983 225.745C55.5083 226.015 55.3633 226.35 55.3633 226.75C55.3633 227.2 55.5383 227.56 55.8883 227.83C56.2383 228.1 56.7283 228.235 57.3583 228.235C57.9583 228.235 58.4733 228.1 58.9033 227.83C59.3433 227.55 59.6633 227.15 59.8633 226.63L60.1033 227.365C59.9033 227.885 59.5533 228.3 59.0533 228.61C58.5633 228.92 57.9433 229.075 57.1933 229.075ZM67.8409 221.05C68.4809 221.05 69.0409 221.175 69.5209 221.425C70.0109 221.665 70.3909 222.035 70.6609 222.535C70.9409 223.035 71.0809 223.665 71.0809 224.425V229H70.0159V224.53C70.0159 223.7 69.8059 223.075 69.3859 222.655C68.9759 222.225 68.3959 222.01 67.6459 222.01C67.0859 222.01 66.5959 222.125 66.1759 222.355C65.7659 222.575 65.4459 222.9 65.2159 223.33C64.9959 223.75 64.8859 224.26 64.8859 224.86V229H63.8209V221.125H64.8409V223.285L64.6759 222.88C64.9259 222.31 65.3259 221.865 65.8759 221.545C66.4259 221.215 67.0809 221.05 67.8409 221.05ZM81.0184 229.075C80.2684 229.075 79.5934 228.905 78.9934 228.565C78.4034 228.225 77.9384 227.755 77.5984 227.155C77.2584 226.545 77.0884 225.845 77.0884 225.055C77.0884 224.255 77.2584 223.555 77.5984 222.955C77.9384 222.355 78.4034 221.89 78.9934 221.56C79.5934 221.22 80.2684 221.05 81.0184 221.05C81.7084 221.05 82.3234 221.205 82.8634 221.515C83.4134 221.825 83.8484 222.28 84.1684 222.88C84.4984 223.47 84.6634 224.195 84.6634 225.055C84.6634 225.905 84.5034 226.63 84.1834 227.23C83.8634 227.83 83.4284 228.29 82.8784 228.61C82.3384 228.92 81.7184 229.075 81.0184 229.075ZM81.0934 228.13C81.6534 228.13 82.1534 228.005 82.5934 227.755C83.0434 227.495 83.3934 227.135 83.6434 226.675C83.9034 226.205 84.0334 225.665 84.0334 225.055C84.0334 224.435 83.9034 223.895 83.6434 223.435C83.3934 222.975 83.0434 222.62 82.5934 222.37C82.1534 222.11 81.6534 221.98 81.0934 221.98C80.5434 221.98 80.0484 222.11 79.6084 222.37C79.1684 222.62 78.8184 222.975 78.5584 223.435C78.2984 223.895 78.1684 224.435 78.1684 225.055C78.1684 225.665 78.2984 226.205 78.5584 226.675C78.8184 227.135 79.1684 227.495 79.6084 227.755C80.0484 228.005 80.5434 228.13 81.0934 228.13ZM84.0634 229V226.63L84.1684 225.04L84.0184 223.45V217.87H85.0834V229H84.0634ZM91.3945 229.075C90.5745 229.075 89.8545 228.905 89.2345 228.565C88.6145 228.215 88.1295 227.74 87.7795 227.14C87.4295 226.53 87.2545 225.835 87.2545 225.055C87.2545 224.275 87.4195 223.585 87.7495 222.985C88.0895 222.385 88.5495 221.915 89.1295 221.575C89.7195 221.225 90.3795 221.05 91.1095 221.05C91.8495 221.05 92.5045 221.22 93.0745 221.56C93.6545 221.89 94.1095 222.36 94.4395 222.97C94.7695 223.57 94.9345 224.265 94.9345 225.055C94.9345 225.105 94.9295 225.16 94.9195 225.22C94.9195 225.27 94.9195 225.325 94.9195 225.385H88.0645V224.59H94.3495L93.9295 224.905C93.9295 224.335 93.8045 223.83 93.5545 223.39C93.3145 222.94 92.9845 222.59 92.5645 222.34C92.1445 222.09 91.6595 221.965 91.1095 221.965C90.5695 221.965 90.0845 222.09 89.6545 222.34C89.2245 222.59 88.8895 222.94 88.6495 223.39C88.4095 223.84 88.2895 224.355 88.2895 224.935V225.1C88.2895 225.7 88.4195 226.23 88.6795 226.69C88.9495 227.14 89.3195 227.495 89.7895 227.755C90.2695 228.005 90.8145 228.13 91.4245 228.13C91.9045 228.13 92.3495 228.045 92.7595 227.875C93.1795 227.705 93.5395 227.445 93.8395 227.095L94.4395 227.785C94.0895 228.205 93.6495 228.525 93.1195 228.745C92.5995 228.965 92.0245 229.075 91.3945 229.075ZM97.2822 229V220.135C97.2822 219.435 97.4872 218.87 97.8972 218.44C98.3072 218.01 98.8972 217.795 99.6672 217.795C99.9672 217.795 100.257 217.835 100.537 217.915C100.817 217.995 101.052 218.12 101.242 218.29L100.882 219.085C100.732 218.955 100.557 218.86 100.357 218.8C100.157 218.73 99.9422 218.695 99.7122 218.695C99.2622 218.695 98.9172 218.82 98.6772 219.07C98.4372 219.32 98.3172 219.69 98.3172 220.18V221.38L98.3472 221.875V229H97.2822ZM95.8722 222.01V221.125H100.747V222.01H95.8722ZM102.187 229V221.125H103.252V229H102.187ZM102.727 219.385C102.507 219.385 102.322 219.31 102.172 219.16C102.022 219.01 101.947 218.83 101.947 218.62C101.947 218.41 102.022 218.235 102.172 218.095C102.322 217.945 102.507 217.87 102.727 217.87C102.947 217.87 103.132 217.94 103.282 218.08C103.432 218.22 103.507 218.395 103.507 218.605C103.507 218.825 103.432 219.01 103.282 219.16C103.142 219.31 102.957 219.385 102.727 219.385ZM110.263 221.05C110.903 221.05 111.463 221.175 111.943 221.425C112.433 221.665 112.813 222.035 113.083 222.535C113.363 223.035 113.503 223.665 113.503 224.425V229H112.438V224.53C112.438 223.7 112.228 223.075 111.808 222.655C111.398 222.225 110.818 222.01 110.068 222.01C109.508 222.01 109.018 222.125 108.598 222.355C108.188 222.575 107.868 222.9 107.638 223.33C107.418 223.75 107.308 224.26 107.308 224.86V229H106.243V221.125H107.263V223.285L107.098 222.88C107.348 222.31 107.748 221.865 108.298 221.545C108.848 221.215 109.503 221.05 110.263 221.05ZM119.725 229.075C118.905 229.075 118.185 228.905 117.565 228.565C116.945 228.215 116.46 227.74 116.11 227.14C115.76 226.53 115.585 225.835 115.585 225.055C115.585 224.275 115.75 223.585 116.08 222.985C116.42 222.385 116.88 221.915 117.46 221.575C118.05 221.225 118.71 221.05 119.44 221.05C120.18 221.05 120.835 221.22 121.405 221.56C121.985 221.89 122.44 222.36 122.77 222.97C123.1 223.57 123.265 224.265 123.265 225.055C123.265 225.105 123.26 225.16 123.25 225.22C123.25 225.27 123.25 225.325 123.25 225.385H116.395V224.59H122.68L122.26 224.905C122.26 224.335 122.135 223.83 121.885 223.39C121.645 222.94 121.315 222.59 120.895 222.34C120.475 222.09 119.99 221.965 119.44 221.965C118.9 221.965 118.415 222.09 117.985 222.34C117.555 222.59 117.22 222.94 116.98 223.39C116.74 223.84 116.62 224.355 116.62 224.935V225.1C116.62 225.7 116.75 226.23 117.01 226.69C117.28 227.14 117.65 227.495 118.12 227.755C118.6 228.005 119.145 228.13 119.755 228.13C120.235 228.13 120.68 228.045 121.09 227.875C121.51 227.705 121.87 227.445 122.17 227.095L122.77 227.785C122.42 228.205 121.98 228.525 121.45 228.745C120.93 228.965 120.355 229.075 119.725 229.075ZM131.848 229.075C131.108 229.075 130.538 228.875 130.138 228.475C129.738 228.075 129.538 227.51 129.538 226.78V219.385H130.603V226.72C130.603 227.18 130.718 227.535 130.948 227.785C131.188 228.035 131.528 228.16 131.968 228.16C132.438 228.16 132.828 228.025 133.138 227.755L133.513 228.52C133.303 228.71 133.048 228.85 132.748 228.94C132.458 229.03 132.158 229.075 131.848 229.075ZM128.128 222.01V221.125H133.003V222.01H128.128ZM139.472 221.05C140.112 221.05 140.672 221.175 141.152 221.425C141.642 221.665 142.022 222.035 142.292 222.535C142.572 223.035 142.712 223.665 142.712 224.425V229H141.647V224.53C141.647 223.7 141.437 223.075 141.017 222.655C140.607 222.225 140.027 222.01 139.277 222.01C138.717 222.01 138.227 222.125 137.807 222.355C137.397 222.575 137.077 222.9 136.847 223.33C136.627 223.75 136.517 224.26 136.517 224.86V229H135.452V217.87H136.517V223.285L136.307 222.88C136.557 222.31 136.957 221.865 137.507 221.545C138.057 221.215 138.712 221.05 139.472 221.05ZM148.934 229.075C148.114 229.075 147.394 228.905 146.774 228.565C146.154 228.215 145.669 227.74 145.319 227.14C144.969 226.53 144.794 225.835 144.794 225.055C144.794 224.275 144.959 223.585 145.289 222.985C145.629 222.385 146.089 221.915 146.669 221.575C147.259 221.225 147.919 221.05 148.649 221.05C149.389 221.05 150.044 221.22 150.614 221.56C151.194 221.89 151.649 222.36 151.979 222.97C152.309 223.57 152.474 224.265 152.474 225.055C152.474 225.105 152.469 225.16 152.459 225.22C152.459 225.27 152.459 225.325 152.459 225.385H145.604V224.59H151.889L151.469 224.905C151.469 224.335 151.344 223.83 151.094 223.39C150.854 222.94 150.524 222.59 150.104 222.34C149.684 222.09 149.199 221.965 148.649 221.965C148.109 221.965 147.624 222.09 147.194 222.34C146.764 222.59 146.429 222.94 146.189 223.39C145.949 223.84 145.829 224.355 145.829 224.935V225.1C145.829 225.7 145.959 226.23 146.219 226.69C146.489 227.14 146.859 227.495 147.329 227.755C147.809 228.005 148.354 228.13 148.964 228.13C149.444 228.13 149.889 228.045 150.299 227.875C150.719 227.705 151.079 227.445 151.379 227.095L151.979 227.785C151.629 228.205 151.189 228.525 150.659 228.745C150.139 228.965 149.564 229.075 148.934 229.075ZM161.702 229.075C160.952 229.075 160.277 228.905 159.677 228.565C159.087 228.225 158.622 227.755 158.282 227.155C157.942 226.545 157.772 225.845 157.772 225.055C157.772 224.255 157.942 223.555 158.282 222.955C158.622 222.355 159.087 221.89 159.677 221.56C160.277 221.22 160.952 221.05 161.702 221.05C162.392 221.05 163.007 221.205 163.547 221.515C164.097 221.825 164.532 222.28 164.852 222.88C165.182 223.47 165.347 224.195 165.347 225.055C165.347 225.905 165.187 226.63 164.867 227.23C164.547 227.83 164.112 228.29 163.562 228.61C163.022 228.92 162.402 229.075 161.702 229.075ZM161.777 228.13C162.337 228.13 162.837 228.005 163.277 227.755C163.727 227.495 164.077 227.135 164.327 226.675C164.587 226.205 164.717 225.665 164.717 225.055C164.717 224.435 164.587 223.895 164.327 223.435C164.077 222.975 163.727 222.62 163.277 222.37C162.837 222.11 162.337 221.98 161.777 221.98C161.227 221.98 160.732 222.11 160.292 222.37C159.852 222.62 159.502 222.975 159.242 223.435C158.982 223.895 158.852 224.435 158.852 225.055C158.852 225.665 158.982 226.205 159.242 226.675C159.502 227.135 159.852 227.495 160.292 227.755C160.732 228.005 161.227 228.13 161.777 228.13ZM164.747 229V226.63L164.852 225.04L164.702 223.45V217.87H165.767V229H164.747ZM168.733 229V221.125H169.798V229H168.733ZM169.273 219.385C169.053 219.385 168.868 219.31 168.718 219.16C168.568 219.01 168.493 218.83 168.493 218.62C168.493 218.41 168.568 218.235 168.718 218.095C168.868 217.945 169.053 217.87 169.273 217.87C169.493 217.87 169.678 217.94 169.828 218.08C169.978 218.22 170.053 218.395 170.053 218.605C170.053 218.825 169.978 219.01 169.828 219.16C169.688 219.31 169.503 219.385 169.273 219.385ZM172.941 229V220.135C172.941 219.435 173.146 218.87 173.556 218.44C173.966 218.01 174.556 217.795 175.326 217.795C175.626 217.795 175.916 217.835 176.196 217.915C176.476 217.995 176.711 218.12 176.901 218.29L176.541 219.085C176.391 218.955 176.216 218.86 176.016 218.8C175.816 218.73 175.601 218.695 175.371 218.695C174.921 218.695 174.576 218.82 174.336 219.07C174.096 219.32 173.976 219.69 173.976 220.18V221.38L174.006 221.875V229H172.941ZM171.531 222.01V221.125H176.406V222.01H171.531ZM178.024 229V220.135C178.024 219.435 178.229 218.87 178.639 218.44C179.049 218.01 179.639 217.795 180.409 217.795C180.709 217.795 180.999 217.835 181.279 217.915C181.559 217.995 181.794 218.12 181.984 218.29L181.624 219.085C181.474 218.955 181.299 218.86 181.099 218.8C180.899 218.73 180.684 218.695 180.454 218.695C180.004 218.695 179.659 218.82 179.419 219.07C179.179 219.32 179.059 219.69 179.059 220.18V221.38L179.089 221.875V229H178.024ZM176.614 222.01V221.125H181.489V222.01H176.614ZM182.929 229V221.125H183.994V229H182.929ZM183.469 219.385C183.249 219.385 183.064 219.31 182.914 219.16C182.764 219.01 182.689 218.83 182.689 218.62C182.689 218.41 182.764 218.235 182.914 218.095C183.064 217.945 183.249 217.87 183.469 217.87C183.689 217.87 183.874 217.94 184.024 218.08C184.174 218.22 184.249 218.395 184.249 218.605C184.249 218.825 184.174 219.01 184.024 219.16C183.884 219.31 183.699 219.385 183.469 219.385ZM190.255 229.075C189.475 229.075 188.775 228.905 188.155 228.565C187.545 228.215 187.065 227.74 186.715 227.14C186.365 226.53 186.19 225.835 186.19 225.055C186.19 224.265 186.365 223.57 186.715 222.97C187.065 222.37 187.545 221.9 188.155 221.56C188.775 221.22 189.475 221.05 190.255 221.05C190.925 221.05 191.53 221.18 192.07 221.44C192.61 221.7 193.035 222.09 193.345 222.61L192.55 223.15C192.28 222.75 191.945 222.455 191.545 222.265C191.145 222.075 190.71 221.98 190.24 221.98C189.68 221.98 189.175 222.11 188.725 222.37C188.275 222.62 187.92 222.975 187.66 223.435C187.4 223.895 187.27 224.435 187.27 225.055C187.27 225.675 187.4 226.215 187.66 226.675C187.92 227.135 188.275 227.495 188.725 227.755C189.175 228.005 189.68 228.13 190.24 228.13C190.71 228.13 191.145 228.035 191.545 227.845C191.945 227.655 192.28 227.365 192.55 226.975L193.345 227.515C193.035 228.025 192.61 228.415 192.07 228.685C191.53 228.945 190.925 229.075 190.255 229.075ZM198.692 229.075C198.022 229.075 197.437 228.95 196.937 228.7C196.437 228.45 196.047 228.075 195.767 227.575C195.497 227.075 195.362 226.45 195.362 225.7V221.125H196.427V225.58C196.427 226.42 196.632 227.055 197.042 227.485C197.462 227.905 198.047 228.115 198.797 228.115C199.347 228.115 199.822 228.005 200.222 227.785C200.632 227.555 200.942 227.225 201.152 226.795C201.372 226.365 201.482 225.85 201.482 225.25V221.125H202.547V229H201.527V226.84L201.692 227.23C201.442 227.81 201.052 228.265 200.522 228.595C200.002 228.915 199.392 229.075 198.692 229.075ZM205.515 229V217.87H206.58V229H205.515ZM212.078 229.075C211.338 229.075 210.768 228.875 210.368 228.475C209.968 228.075 209.768 227.51 209.768 226.78V219.385H210.833V226.72C210.833 227.18 210.948 227.535 211.178 227.785C211.418 228.035 211.758 228.16 212.198 228.16C212.668 228.16 213.058 228.025 213.368 227.755L213.743 228.52C213.533 228.71 213.278 228.85 212.978 228.94C212.688 229.03 212.388 229.075 212.078 229.075ZM208.358 222.01V221.125H213.233V222.01H208.358ZM215.595 231.985C215.225 231.985 214.87 231.925 214.53 231.805C214.2 231.685 213.915 231.505 213.675 231.265L214.17 230.47C214.37 230.66 214.585 230.805 214.815 230.905C215.055 231.015 215.32 231.07 215.61 231.07C215.96 231.07 216.26 230.97 216.51 230.77C216.77 230.58 217.015 230.24 217.245 229.75L217.755 228.595L217.875 228.43L221.115 221.125H222.165L218.22 229.945C218 230.455 217.755 230.86 217.485 231.16C217.225 231.46 216.94 231.67 216.63 231.79C216.32 231.92 215.975 231.985 215.595 231.985ZM217.695 229.225L214.065 221.125H215.175L218.385 228.355L217.695 229.225ZM229.405 231.91C228.855 231 228.425 229.95 228.115 228.76C227.815 227.56 227.665 226.27 227.665 224.89C227.665 223.51 227.815 222.22 228.115 221.02C228.425 219.81 228.855 218.76 229.405 217.87H230.425C229.835 218.9 229.4 219.995 229.12 221.155C228.85 222.305 228.715 223.55 228.715 224.89C228.715 226.23 228.85 227.48 229.12 228.64C229.4 229.79 229.835 230.88 230.425 231.91H229.405ZM235.872 229.075C235.052 229.075 234.332 228.905 233.712 228.565C233.092 228.215 232.607 227.74 232.257 227.14C231.907 226.53 231.732 225.835 231.732 225.055C231.732 224.275 231.897 223.585 232.227 222.985C232.567 222.385 233.027 221.915 233.607 221.575C234.197 221.225 234.857 221.05 235.587 221.05C236.327 221.05 236.982 221.22 237.552 221.56C238.132 221.89 238.587 222.36 238.917 222.97C239.247 223.57 239.412 224.265 239.412 225.055C239.412 225.105 239.407 225.16 239.397 225.22C239.397 225.27 239.397 225.325 239.397 225.385H232.542V224.59H238.827L238.407 224.905C238.407 224.335 238.282 223.83 238.032 223.39C237.792 222.94 237.462 222.59 237.042 222.34C236.622 222.09 236.137 221.965 235.587 221.965C235.047 221.965 234.562 222.09 234.132 222.34C233.702 222.59 233.367 222.94 233.127 223.39C232.887 223.84 232.767 224.355 232.767 224.935V225.1C232.767 225.7 232.897 226.23 233.157 226.69C233.427 227.14 233.797 227.495 234.267 227.755C234.747 228.005 235.292 228.13 235.902 228.13C236.382 228.13 236.827 228.045 237.237 227.875C237.657 227.705 238.017 227.445 238.317 227.095L238.917 227.785C238.567 228.205 238.127 228.525 237.597 228.745C237.077 228.965 236.502 229.075 235.872 229.075ZM246.295 229V227.26L246.25 226.975V224.065C246.25 223.395 246.06 222.88 245.68 222.52C245.31 222.16 244.755 221.98 244.015 221.98C243.505 221.98 243.02 222.065 242.56 222.235C242.1 222.405 241.71 222.63 241.39 222.91L240.91 222.115C241.31 221.775 241.79 221.515 242.35 221.335C242.91 221.145 243.5 221.05 244.12 221.05C245.14 221.05 245.925 221.305 246.475 221.815C247.035 222.315 247.315 223.08 247.315 224.11V229H246.295ZM243.58 229.075C242.99 229.075 242.475 228.98 242.035 228.79C241.605 228.59 241.275 228.32 241.045 227.98C240.815 227.63 240.7 227.23 240.7 226.78C240.7 226.37 240.795 226 240.985 225.67C241.185 225.33 241.505 225.06 241.945 224.86C242.395 224.65 242.995 224.545 243.745 224.545H246.46V225.34H243.775C243.015 225.34 242.485 225.475 242.185 225.745C241.895 226.015 241.75 226.35 241.75 226.75C241.75 227.2 241.925 227.56 242.275 227.83C242.625 228.1 243.115 228.235 243.745 228.235C244.345 228.235 244.86 228.1 245.29 227.83C245.73 227.55 246.05 227.15 246.25 226.63L246.49 227.365C246.29 227.885 245.94 228.3 245.44 228.61C244.95 228.92 244.33 229.075 243.58 229.075ZM252.323 229.075C251.673 229.075 251.058 228.985 250.478 228.805C249.898 228.615 249.443 228.38 249.113 228.1L249.593 227.26C249.913 227.5 250.323 227.71 250.823 227.89C251.323 228.06 251.848 228.145 252.398 228.145C253.148 228.145 253.688 228.03 254.018 227.8C254.348 227.56 254.513 227.245 254.513 226.855C254.513 226.565 254.418 226.34 254.228 226.18C254.048 226.01 253.808 225.885 253.508 225.805C253.208 225.715 252.873 225.64 252.503 225.58C252.133 225.52 251.763 225.45 251.393 225.37C251.033 225.29 250.703 225.175 250.403 225.025C250.103 224.865 249.858 224.65 249.668 224.38C249.488 224.11 249.398 223.75 249.398 223.3C249.398 222.87 249.518 222.485 249.758 222.145C249.998 221.805 250.348 221.54 250.808 221.35C251.278 221.15 251.848 221.05 252.518 221.05C253.028 221.05 253.538 221.12 254.048 221.26C254.558 221.39 254.978 221.565 255.308 221.785L254.843 222.64C254.493 222.4 254.118 222.23 253.718 222.13C253.318 222.02 252.918 221.965 252.518 221.965C251.808 221.965 251.283 222.09 250.943 222.34C250.613 222.58 250.448 222.89 250.448 223.27C250.448 223.57 250.538 223.805 250.718 223.975C250.908 224.145 251.153 224.28 251.453 224.38C251.763 224.47 252.098 224.545 252.458 224.605C252.828 224.665 253.193 224.74 253.553 224.83C253.923 224.91 254.258 225.025 254.558 225.175C254.868 225.315 255.113 225.52 255.293 225.79C255.483 226.05 255.578 226.395 255.578 226.825C255.578 227.285 255.448 227.685 255.188 228.025C254.938 228.355 254.568 228.615 254.078 228.805C253.598 228.985 253.013 229.075 252.323 229.075ZM257.445 231.985C257.075 231.985 256.72 231.925 256.38 231.805C256.05 231.685 255.765 231.505 255.525 231.265L256.02 230.47C256.22 230.66 256.435 230.805 256.665 230.905C256.905 231.015 257.17 231.07 257.46 231.07C257.81 231.07 258.11 230.97 258.36 230.77C258.62 230.58 258.865 230.24 259.095 229.75L259.605 228.595L259.725 228.43L262.965 221.125H264.015L260.07 229.945C259.85 230.455 259.605 230.86 259.335 231.16C259.075 231.46 258.79 231.67 258.48 231.79C258.17 231.92 257.825 231.985 257.445 231.985ZM259.545 229.225L255.915 221.125H257.025L260.235 228.355L259.545 229.225ZM264.358 231.19L265.018 228.415L265.138 229.06C264.908 229.06 264.713 228.985 264.553 228.835C264.403 228.685 264.328 228.49 264.328 228.25C264.328 228.01 264.403 227.815 264.553 227.665C264.713 227.515 264.903 227.44 265.123 227.44C265.353 227.44 265.538 227.52 265.678 227.68C265.828 227.84 265.903 228.03 265.903 228.25C265.903 228.33 265.898 228.41 265.888 228.49C265.878 228.57 265.858 228.66 265.828 228.76C265.798 228.86 265.758 228.98 265.708 229.12L265.078 231.19H264.358ZM24.325 239.05C24.965 239.05 25.52 239.175 25.99 239.425C26.47 239.665 26.84 240.035 27.1 240.535C27.37 241.035 27.505 241.665 27.505 242.425V247H26.44V242.53C26.44 241.7 26.24 241.075 25.84 240.655C25.45 240.225 24.895 240.01 24.175 240.01C23.635 240.01 23.165 240.125 22.765 240.355C22.375 240.575 22.07 240.9 21.85 241.33C21.64 241.75 21.535 242.26 21.535 242.86V247H20.47V242.53C20.47 241.7 20.27 241.075 19.87 240.655C19.47 240.225 18.91 240.01 18.19 240.01C17.66 240.01 17.195 240.125 16.795 240.355C16.395 240.575 16.085 240.9 15.865 241.33C15.655 241.75 15.55 242.26 15.55 242.86V247H14.485V239.125H15.505V241.255L15.34 240.88C15.58 240.31 15.965 239.865 16.495 239.545C17.035 239.215 17.67 239.05 18.4 239.05C19.17 239.05 19.825 239.245 20.365 239.635C20.905 240.015 21.255 240.59 21.415 241.36L20.995 241.195C21.225 240.555 21.63 240.04 22.21 239.65C22.8 239.25 23.505 239.05 24.325 239.05ZM33.7382 247.075C32.9182 247.075 32.1982 246.905 31.5782 246.565C30.9582 246.215 30.4732 245.74 30.1232 245.14C29.7732 244.53 29.5982 243.835 29.5982 243.055C29.5982 242.275 29.7632 241.585 30.0932 240.985C30.4332 240.385 30.8932 239.915 31.4732 239.575C32.0632 239.225 32.7232 239.05 33.4532 239.05C34.1932 239.05 34.8482 239.22 35.4182 239.56C35.9982 239.89 36.4532 240.36 36.7832 240.97C37.1132 241.57 37.2782 242.265 37.2782 243.055C37.2782 243.105 37.2732 243.16 37.2632 243.22C37.2632 243.27 37.2632 243.325 37.2632 243.385H30.4082V242.59H36.6932L36.2732 242.905C36.2732 242.335 36.1482 241.83 35.8982 241.39C35.6582 240.94 35.3282 240.59 34.9082 240.34C34.4882 240.09 34.0032 239.965 33.4532 239.965C32.9132 239.965 32.4282 240.09 31.9982 240.34C31.5682 240.59 31.2332 240.94 30.9932 241.39C30.7532 241.84 30.6332 242.355 30.6332 242.935V243.1C30.6332 243.7 30.7632 244.23 31.0232 244.69C31.2932 245.14 31.6632 245.495 32.1332 245.755C32.6132 246.005 33.1582 246.13 33.7682 246.13C34.2482 246.13 34.6932 246.045 35.1032 245.875C35.5232 245.705 35.8832 245.445 36.1832 245.095L36.7832 245.785C36.4332 246.205 35.9932 246.525 35.4632 246.745C34.9432 246.965 34.3682 247.075 33.7382 247.075ZM42.5809 247.075C41.8309 247.075 41.1559 246.905 40.5559 246.565C39.9659 246.225 39.5009 245.755 39.1609 245.155C38.8209 244.545 38.6509 243.845 38.6509 243.055C38.6509 242.255 38.8209 241.555 39.1609 240.955C39.5009 240.355 39.9659 239.89 40.5559 239.56C41.1559 239.22 41.8309 239.05 42.5809 239.05C43.2709 239.05 43.8859 239.205 44.4259 239.515C44.9759 239.825 45.4109 240.28 45.7309 240.88C46.0609 241.47 46.2259 242.195 46.2259 243.055C46.2259 243.905 46.0659 244.63 45.7459 245.23C45.4259 245.83 44.9909 246.29 44.4409 246.61C43.9009 246.92 43.2809 247.075 42.5809 247.075ZM42.6559 246.13C43.2159 246.13 43.7159 246.005 44.1559 245.755C44.6059 245.495 44.9559 245.135 45.2059 244.675C45.4659 244.205 45.5959 243.665 45.5959 243.055C45.5959 242.435 45.4659 241.895 45.2059 241.435C44.9559 240.975 44.6059 240.62 44.1559 240.37C43.7159 240.11 43.2159 239.98 42.6559 239.98C42.1059 239.98 41.6109 240.11 41.1709 240.37C40.7309 240.62 40.3809 240.975 40.1209 241.435C39.8609 241.895 39.7309 242.435 39.7309 243.055C39.7309 243.665 39.8609 244.205 40.1209 244.675C40.3809 245.135 40.7309 245.495 41.1709 245.755C41.6109 246.005 42.1059 246.13 42.6559 246.13ZM45.6259 247V244.63L45.7309 243.04L45.5809 241.45V235.87H46.6459V247H45.6259ZM49.612 247V239.125H50.677V247H49.612ZM50.152 237.385C49.932 237.385 49.747 237.31 49.597 237.16C49.447 237.01 49.372 236.83 49.372 236.62C49.372 236.41 49.447 236.235 49.597 236.095C49.747 235.945 49.932 235.87 50.152 235.87C50.372 235.87 50.557 235.94 50.707 236.08C50.857 236.22 50.932 236.395 50.932 236.605C50.932 236.825 50.857 237.01 50.707 237.16C50.567 237.31 50.382 237.385 50.152 237.385ZM56.8953 247.075C56.2253 247.075 55.6403 246.95 55.1403 246.7C54.6403 246.45 54.2503 246.075 53.9703 245.575C53.7003 245.075 53.5653 244.45 53.5653 243.7V239.125H54.6303V243.58C54.6303 244.42 54.8353 245.055 55.2453 245.485C55.6653 245.905 56.2503 246.115 57.0003 246.115C57.5503 246.115 58.0253 246.005 58.4253 245.785C58.8353 245.555 59.1453 245.225 59.3553 244.795C59.5753 244.365 59.6853 243.85 59.6853 243.25V239.125H60.7503V247H59.7303V244.84L59.8953 245.23C59.6453 245.81 59.2553 246.265 58.7253 246.595C58.2053 246.915 57.5953 247.075 56.8953 247.075ZM73.5584 239.05C74.1984 239.05 74.7534 239.175 75.2234 239.425C75.7034 239.665 76.0734 240.035 76.3334 240.535C76.6034 241.035 76.7384 241.665 76.7384 242.425V247H75.6734V242.53C75.6734 241.7 75.4734 241.075 75.0734 240.655C74.6834 240.225 74.1284 240.01 73.4084 240.01C72.8684 240.01 72.3984 240.125 71.9984 240.355C71.6084 240.575 71.3034 240.9 71.0834 241.33C70.8734 241.75 70.7684 242.26 70.7684 242.86V247H69.7034V242.53C69.7034 241.7 69.5034 241.075 69.1034 240.655C68.7034 240.225 68.1434 240.01 67.4234 240.01C66.8934 240.01 66.4284 240.125 66.0284 240.355C65.6284 240.575 65.3184 240.9 65.0984 241.33C64.8884 241.75 64.7834 242.26 64.7834 242.86V247H63.7184V239.125H64.7384V241.255L64.5734 240.88C64.8134 240.31 65.1984 239.865 65.7284 239.545C66.2684 239.215 66.9034 239.05 67.6334 239.05C68.4034 239.05 69.0584 239.245 69.5984 239.635C70.1384 240.015 70.4884 240.59 70.6484 241.36L70.2284 241.195C70.4584 240.555 70.8634 240.04 71.4434 239.65C72.0334 239.25 72.7384 239.05 73.5584 239.05ZM78.9816 249.19L79.6416 246.415L79.7616 247.06C79.5316 247.06 79.3366 246.985 79.1766 246.835C79.0266 246.685 78.9516 246.49 78.9516 246.25C78.9516 246.01 79.0266 245.815 79.1766 245.665C79.3366 245.515 79.5266 245.44 79.7466 245.44C79.9766 245.44 80.1616 245.52 80.3016 245.68C80.4516 245.84 80.5266 246.03 80.5266 246.25C80.5266 246.33 80.5216 246.41 80.5116 246.49C80.5016 246.57 80.4816 246.66 80.4516 246.76C80.4216 246.86 80.3816 246.98 80.3316 247.12L79.7016 249.19H78.9816ZM90.7511 239.05C91.3911 239.05 91.9511 239.175 92.4311 239.425C92.9211 239.665 93.3011 240.035 93.5711 240.535C93.8511 241.035 93.9911 241.665 93.9911 242.425V247H92.9261V242.53C92.9261 241.7 92.7161 241.075 92.2961 240.655C91.8861 240.225 91.3061 240.01 90.5561 240.01C89.9961 240.01 89.5061 240.125 89.0861 240.355C88.6761 240.575 88.3561 240.9 88.1261 241.33C87.9061 241.75 87.7961 242.26 87.7961 242.86V247H86.7311V235.87H87.7961V241.285L87.5861 240.88C87.8361 240.31 88.2361 239.865 88.7861 239.545C89.3361 239.215 89.9911 239.05 90.7511 239.05ZM101.803 247V245.26L101.758 244.975V242.065C101.758 241.395 101.568 240.88 101.188 240.52C100.818 240.16 100.263 239.98 99.5228 239.98C99.0128 239.98 98.5278 240.065 98.0678 240.235C97.6078 240.405 97.2178 240.63 96.8978 240.91L96.4178 240.115C96.8178 239.775 97.2978 239.515 97.8578 239.335C98.4178 239.145 99.0078 239.05 99.6278 239.05C100.648 239.05 101.433 239.305 101.983 239.815C102.543 240.315 102.823 241.08 102.823 242.11V247H101.803ZM99.0878 247.075C98.4978 247.075 97.9828 246.98 97.5428 246.79C97.1128 246.59 96.7828 246.32 96.5528 245.98C96.3228 245.63 96.2078 245.23 96.2078 244.78C96.2078 244.37 96.3028 244 96.4928 243.67C96.6928 243.33 97.0128 243.06 97.4528 242.86C97.9028 242.65 98.5028 242.545 99.2528 242.545H101.968V243.34H99.2828C98.5228 243.34 97.9928 243.475 97.6928 243.745C97.4028 244.015 97.2578 244.35 97.2578 244.75C97.2578 245.2 97.4328 245.56 97.7828 245.83C98.1328 246.1 98.6228 246.235 99.2528 246.235C99.8528 246.235 100.368 246.1 100.798 245.83C101.238 245.55 101.558 245.15 101.758 244.63L101.998 245.365C101.798 245.885 101.448 246.3 100.948 246.61C100.458 246.92 99.8378 247.075 99.0878 247.075ZM105.715 247V239.125H106.735V241.27L106.63 240.895C106.85 240.295 107.22 239.84 107.74 239.53C108.26 239.21 108.905 239.05 109.675 239.05V240.085C109.635 240.085 109.595 240.085 109.555 240.085C109.515 240.075 109.475 240.07 109.435 240.07C108.605 240.07 107.955 240.325 107.485 240.835C107.015 241.335 106.78 242.05 106.78 242.98V247H105.715ZM114.681 247.075C113.931 247.075 113.256 246.905 112.656 246.565C112.066 246.225 111.601 245.755 111.261 245.155C110.921 244.545 110.751 243.845 110.751 243.055C110.751 242.255 110.921 241.555 111.261 240.955C111.601 240.355 112.066 239.89 112.656 239.56C113.256 239.22 113.931 239.05 114.681 239.05C115.371 239.05 115.986 239.205 116.526 239.515C117.076 239.825 117.511 240.28 117.831 240.88C118.161 241.47 118.326 242.195 118.326 243.055C118.326 243.905 118.166 244.63 117.846 245.23C117.526 245.83 117.091 246.29 116.541 246.61C116.001 246.92 115.381 247.075 114.681 247.075ZM114.756 246.13C115.316 246.13 115.816 246.005 116.256 245.755C116.706 245.495 117.056 245.135 117.306 244.675C117.566 244.205 117.696 243.665 117.696 243.055C117.696 242.435 117.566 241.895 117.306 241.435C117.056 240.975 116.706 240.62 116.256 240.37C115.816 240.11 115.316 239.98 114.756 239.98C114.206 239.98 113.711 240.11 113.271 240.37C112.831 240.62 112.481 240.975 112.221 241.435C111.961 241.895 111.831 242.435 111.831 243.055C111.831 243.665 111.961 244.205 112.221 244.675C112.481 245.135 112.831 245.495 113.271 245.755C113.711 246.005 114.206 246.13 114.756 246.13ZM117.726 247V244.63L117.831 243.04L117.681 241.45V235.87H118.746V247H117.726ZM121.847 249.91H120.827C121.427 248.88 121.862 247.79 122.132 246.64C122.412 245.48 122.552 244.23 122.552 242.89C122.552 241.55 122.412 240.305 122.132 239.155C121.862 237.995 121.427 236.9 120.827 235.87H121.847C122.417 236.76 122.852 237.81 123.152 239.02C123.452 240.22 123.602 241.51 123.602 242.89C123.602 244.27 123.452 245.56 123.152 246.76C122.852 247.95 122.417 249 121.847 249.91ZM130.754 247V238.135C130.754 237.435 130.959 236.87 131.369 236.44C131.779 236.01 132.369 235.795 133.139 235.795C133.439 235.795 133.729 235.835 134.009 235.915C134.289 235.995 134.524 236.12 134.714 236.29L134.354 237.085C134.204 236.955 134.029 236.86 133.829 236.8C133.629 236.73 133.414 236.695 133.184 236.695C132.734 236.695 132.389 236.82 132.149 237.07C131.909 237.32 131.789 237.69 131.789 238.18V239.38L131.819 239.875V247H130.754ZM129.344 240.01V239.125H134.219V240.01H129.344ZM138.735 247.075C137.975 247.075 137.29 246.905 136.68 246.565C136.08 246.215 135.605 245.74 135.255 245.14C134.905 244.53 134.73 243.835 134.73 243.055C134.73 242.265 134.905 241.57 135.255 240.97C135.605 240.37 136.08 239.9 136.68 239.56C137.28 239.22 137.965 239.05 138.735 239.05C139.515 239.05 140.205 239.22 140.805 239.56C141.415 239.9 141.89 240.37 142.23 240.97C142.58 241.57 142.755 242.265 142.755 243.055C142.755 243.835 142.58 244.53 142.23 245.14C141.89 245.74 141.415 246.215 140.805 246.565C140.195 246.905 139.505 247.075 138.735 247.075ZM138.735 246.13C139.305 246.13 139.81 246.005 140.25 245.755C140.69 245.495 141.035 245.135 141.285 244.675C141.545 244.205 141.675 243.665 141.675 243.055C141.675 242.435 141.545 241.895 141.285 241.435C141.035 240.975 140.69 240.62 140.25 240.37C139.81 240.11 139.31 239.98 138.75 239.98C138.19 239.98 137.69 240.11 137.25 240.37C136.81 240.62 136.46 240.975 136.2 241.435C135.94 241.895 135.81 242.435 135.81 243.055C135.81 243.665 135.94 244.205 136.2 244.675C136.46 245.135 136.81 245.495 137.25 245.755C137.69 246.005 138.185 246.13 138.735 246.13ZM144.929 247V239.125H145.949V241.27L145.844 240.895C146.064 240.295 146.434 239.84 146.954 239.53C147.474 239.21 148.119 239.05 148.889 239.05V240.085C148.849 240.085 148.809 240.085 148.769 240.085C148.729 240.075 148.689 240.07 148.649 240.07C147.819 240.07 147.169 240.325 146.699 240.835C146.229 241.335 145.994 242.05 145.994 242.98V247H144.929ZM158.221 247.075C157.401 247.075 156.681 246.905 156.061 246.565C155.441 246.215 154.956 245.74 154.606 245.14C154.256 244.53 154.081 243.835 154.081 243.055C154.081 242.275 154.246 241.585 154.576 240.985C154.916 240.385 155.376 239.915 155.956 239.575C156.546 239.225 157.206 239.05 157.936 239.05C158.676 239.05 159.331 239.22 159.901 239.56C160.481 239.89 160.936 240.36 161.266 240.97C161.596 241.57 161.761 242.265 161.761 243.055C161.761 243.105 161.756 243.16 161.746 243.22C161.746 243.27 161.746 243.325 161.746 243.385H154.891V242.59H161.176L160.756 242.905C160.756 242.335 160.631 241.83 160.381 241.39C160.141 240.94 159.811 240.59 159.391 240.34C158.971 240.09 158.486 239.965 157.936 239.965C157.396 239.965 156.911 240.09 156.481 240.34C156.051 240.59 155.716 240.94 155.476 241.39C155.236 241.84 155.116 242.355 155.116 242.935V243.1C155.116 243.7 155.246 244.23 155.506 244.69C155.776 245.14 156.146 245.495 156.616 245.755C157.096 246.005 157.641 246.13 158.251 246.13C158.731 246.13 159.176 246.045 159.586 245.875C160.006 245.705 160.366 245.445 160.666 245.095L161.266 245.785C160.916 246.205 160.476 246.525 159.946 246.745C159.426 246.965 158.851 247.075 158.221 247.075ZM168.644 247V245.26L168.599 244.975V242.065C168.599 241.395 168.409 240.88 168.029 240.52C167.659 240.16 167.104 239.98 166.364 239.98C165.854 239.98 165.369 240.065 164.909 240.235C164.449 240.405 164.059 240.63 163.739 240.91L163.259 240.115C163.659 239.775 164.139 239.515 164.699 239.335C165.259 239.145 165.849 239.05 166.469 239.05C167.489 239.05 168.274 239.305 168.824 239.815C169.384 240.315 169.664 241.08 169.664 242.11V247H168.644ZM165.929 247.075C165.339 247.075 164.824 246.98 164.384 246.79C163.954 246.59 163.624 246.32 163.394 245.98C163.164 245.63 163.049 245.23 163.049 244.78C163.049 244.37 163.144 244 163.334 243.67C163.534 243.33 163.854 243.06 164.294 242.86C164.744 242.65 165.344 242.545 166.094 242.545H168.809V243.34H166.124C165.364 243.34 164.834 243.475 164.534 243.745C164.244 244.015 164.099 244.35 164.099 244.75C164.099 245.2 164.274 245.56 164.624 245.83C164.974 246.1 165.464 246.235 166.094 246.235C166.694 246.235 167.209 246.1 167.639 245.83C168.079 245.55 168.399 245.15 168.599 244.63L168.839 245.365C168.639 245.885 168.289 246.3 167.789 246.61C167.299 246.92 166.679 247.075 165.929 247.075ZM175.826 247.075C175.046 247.075 174.346 246.905 173.726 246.565C173.116 246.215 172.636 245.74 172.286 245.14C171.936 244.53 171.761 243.835 171.761 243.055C171.761 242.265 171.936 241.57 172.286 240.97C172.636 240.37 173.116 239.9 173.726 239.56C174.346 239.22 175.046 239.05 175.826 239.05C176.496 239.05 177.101 239.18 177.641 239.44C178.181 239.7 178.606 240.09 178.916 240.61L178.121 241.15C177.851 240.75 177.516 240.455 177.116 240.265C176.716 240.075 176.281 239.98 175.811 239.98C175.251 239.98 174.746 240.11 174.296 240.37C173.846 240.62 173.491 240.975 173.231 241.435C172.971 241.895 172.841 242.435 172.841 243.055C172.841 243.675 172.971 244.215 173.231 244.675C173.491 245.135 173.846 245.495 174.296 245.755C174.746 246.005 175.251 246.13 175.811 246.13C176.281 246.13 176.716 246.035 177.116 245.845C177.516 245.655 177.851 245.365 178.121 244.975L178.916 245.515C178.606 246.025 178.181 246.415 177.641 246.685C177.101 246.945 176.496 247.075 175.826 247.075ZM184.911 239.05C185.551 239.05 186.111 239.175 186.591 239.425C187.081 239.665 187.461 240.035 187.731 240.535C188.011 241.035 188.151 241.665 188.151 242.425V247H187.086V242.53C187.086 241.7 186.876 241.075 186.456 240.655C186.046 240.225 185.466 240.01 184.716 240.01C184.156 240.01 183.666 240.125 183.246 240.355C182.836 240.575 182.516 240.9 182.286 241.33C182.066 241.75 181.956 242.26 181.956 242.86V247H180.891V235.87H181.956V241.285L181.746 240.88C181.996 240.31 182.396 239.865 182.946 239.545C183.496 239.215 184.151 239.05 184.911 239.05ZM198.089 247.075C197.339 247.075 196.664 246.905 196.064 246.565C195.474 246.225 195.009 245.755 194.669 245.155C194.329 244.555 194.159 243.855 194.159 243.055C194.159 242.265 194.329 241.57 194.669 240.97C195.009 240.36 195.474 239.89 196.064 239.56C196.664 239.22 197.339 239.05 198.089 239.05C198.789 239.05 199.409 239.205 199.949 239.515C200.499 239.825 200.934 240.28 201.254 240.88C201.574 241.47 201.734 242.195 201.734 243.055C201.734 243.915 201.569 244.645 201.239 245.245C200.919 245.835 200.484 246.29 199.934 246.61C199.394 246.92 198.779 247.075 198.089 247.075ZM198.164 246.13C198.724 246.13 199.224 246.005 199.664 245.755C200.114 245.495 200.464 245.135 200.714 244.675C200.974 244.205 201.104 243.665 201.104 243.055C201.104 242.445 200.974 241.91 200.714 241.45C200.464 240.99 200.114 240.63 199.664 240.37C199.224 240.11 198.724 239.98 198.164 239.98C197.614 239.98 197.119 240.11 196.679 240.37C196.239 240.63 195.889 240.99 195.629 241.45C195.369 241.91 195.239 242.445 195.239 243.055C195.239 243.665 195.369 244.205 195.629 244.675C195.889 245.135 196.239 245.495 196.679 245.755C197.119 246.005 197.614 246.13 198.164 246.13ZM201.089 249.91V244.66L201.239 243.07L201.134 241.495V239.125H202.154V249.91H201.089ZM208.375 247.075C207.705 247.075 207.12 246.95 206.62 246.7C206.12 246.45 205.73 246.075 205.45 245.575C205.18 245.075 205.045 244.45 205.045 243.7V239.125H206.11V243.58C206.11 244.42 206.315 245.055 206.725 245.485C207.145 245.905 207.73 246.115 208.48 246.115C209.03 246.115 209.505 246.005 209.905 245.785C210.315 245.555 210.625 245.225 210.835 244.795C211.055 244.365 211.165 243.85 211.165 243.25V239.125H212.23V247H211.21V244.84L211.375 245.23C211.125 245.81 210.735 246.265 210.205 246.595C209.685 246.915 209.075 247.075 208.375 247.075ZM218.543 247.075C217.723 247.075 217.003 246.905 216.383 246.565C215.763 246.215 215.278 245.74 214.928 245.14C214.578 244.53 214.403 243.835 214.403 243.055C214.403 242.275 214.568 241.585 214.898 240.985C215.238 240.385 215.698 239.915 216.278 239.575C216.868 239.225 217.528 239.05 218.258 239.05C218.998 239.05 219.653 239.22 220.223 239.56C220.803 239.89 221.258 240.36 221.588 240.97C221.918 241.57 222.083 242.265 222.083 243.055C222.083 243.105 222.078 243.16 222.068 243.22C222.068 243.27 222.068 243.325 222.068 243.385H215.213V242.59H221.498L221.078 242.905C221.078 242.335 220.953 241.83 220.703 241.39C220.463 240.94 220.133 240.59 219.713 240.34C219.293 240.09 218.808 239.965 218.258 239.965C217.718 239.965 217.233 240.09 216.803 240.34C216.373 240.59 216.038 240.94 215.798 241.39C215.558 241.84 215.438 242.355 215.438 242.935V243.1C215.438 243.7 215.568 244.23 215.828 244.69C216.098 245.14 216.468 245.495 216.938 245.755C217.418 246.005 217.963 246.13 218.573 246.13C219.053 246.13 219.498 246.045 219.908 245.875C220.328 245.705 220.688 245.445 220.988 245.095L221.588 245.785C221.238 246.205 220.798 246.525 220.268 246.745C219.748 246.965 219.173 247.075 218.543 247.075ZM226.366 247.075C225.716 247.075 225.101 246.985 224.521 246.805C223.941 246.615 223.486 246.38 223.156 246.1L223.636 245.26C223.956 245.5 224.366 245.71 224.866 245.89C225.366 246.06 225.891 246.145 226.441 246.145C227.191 246.145 227.731 246.03 228.061 245.8C228.391 245.56 228.556 245.245 228.556 244.855C228.556 244.565 228.461 244.34 228.271 244.18C228.091 244.01 227.851 243.885 227.551 243.805C227.251 243.715 226.916 243.64 226.546 243.58C226.176 243.52 225.806 243.45 225.436 243.37C225.076 243.29 224.746 243.175 224.446 243.025C224.146 242.865 223.901 242.65 223.711 242.38C223.531 242.11 223.441 241.75 223.441 241.3C223.441 240.87 223.561 240.485 223.801 240.145C224.041 239.805 224.391 239.54 224.851 239.35C225.321 239.15 225.891 239.05 226.561 239.05C227.071 239.05 227.581 239.12 228.091 239.26C228.601 239.39 229.021 239.565 229.351 239.785L228.886 240.64C228.536 240.4 228.161 240.23 227.761 240.13C227.361 240.02 226.961 239.965 226.561 239.965C225.851 239.965 225.326 240.09 224.986 240.34C224.656 240.58 224.491 240.89 224.491 241.27C224.491 241.57 224.581 241.805 224.761 241.975C224.951 242.145 225.196 242.28 225.496 242.38C225.806 242.47 226.141 242.545 226.501 242.605C226.871 242.665 227.236 242.74 227.596 242.83C227.966 242.91 228.301 243.025 228.601 243.175C228.911 243.315 229.156 243.52 229.336 243.79C229.526 244.05 229.621 244.395 229.621 244.825C229.621 245.285 229.491 245.685 229.231 246.025C228.981 246.355 228.611 246.615 228.121 246.805C227.641 246.985 227.056 247.075 226.366 247.075ZM234.065 247.075C233.325 247.075 232.755 246.875 232.355 246.475C231.955 246.075 231.755 245.51 231.755 244.78V237.385H232.82V244.72C232.82 245.18 232.935 245.535 233.165 245.785C233.405 246.035 233.745 246.16 234.185 246.16C234.655 246.16 235.045 246.025 235.355 245.755L235.73 246.52C235.52 246.71 235.265 246.85 234.965 246.94C234.675 247.03 234.375 247.075 234.065 247.075ZM230.345 240.01V239.125H235.22V240.01H230.345ZM237.669 247V239.125H238.734V247H237.669ZM238.209 237.385C237.989 237.385 237.804 237.31 237.654 237.16C237.504 237.01 237.429 236.83 237.429 236.62C237.429 236.41 237.504 236.235 237.654 236.095C237.804 235.945 237.989 235.87 238.209 235.87C238.429 235.87 238.614 235.94 238.764 236.08C238.914 236.22 238.989 236.395 238.989 236.605C238.989 236.825 238.914 237.01 238.764 237.16C238.624 237.31 238.439 237.385 238.209 237.385ZM244.907 247.075C244.147 247.075 243.462 246.905 242.852 246.565C242.252 246.215 241.777 245.74 241.427 245.14C241.077 244.53 240.902 243.835 240.902 243.055C240.902 242.265 241.077 241.57 241.427 240.97C241.777 240.37 242.252 239.9 242.852 239.56C243.452 239.22 244.137 239.05 244.907 239.05C245.687 239.05 246.377 239.22 246.977 239.56C247.587 239.9 248.062 240.37 248.402 240.97C248.752 241.57 248.927 242.265 248.927 243.055C248.927 243.835 248.752 244.53 248.402 245.14C248.062 245.74 247.587 246.215 246.977 246.565C246.367 246.905 245.677 247.075 244.907 247.075ZM244.907 246.13C245.477 246.13 245.982 246.005 246.422 245.755C246.862 245.495 247.207 245.135 247.457 244.675C247.717 244.205 247.847 243.665 247.847 243.055C247.847 242.435 247.717 241.895 247.457 241.435C247.207 240.975 246.862 240.62 246.422 240.37C245.982 240.11 245.482 239.98 244.922 239.98C244.362 239.98 243.862 240.11 243.422 240.37C242.982 240.62 242.632 240.975 242.372 241.435C242.112 241.895 241.982 242.435 241.982 243.055C241.982 243.665 242.112 244.205 242.372 244.675C242.632 245.135 242.982 245.495 243.422 245.755C243.862 246.005 244.357 246.13 244.907 246.13ZM255.121 239.05C255.761 239.05 256.321 239.175 256.801 239.425C257.291 239.665 257.671 240.035 257.941 240.535C258.221 241.035 258.361 241.665 258.361 242.425V247H257.296V242.53C257.296 241.7 257.086 241.075 256.666 240.655C256.256 240.225 255.676 240.01 254.926 240.01C254.366 240.01 253.876 240.125 253.456 240.355C253.046 240.575 252.726 240.9 252.496 241.33C252.276 241.75 252.166 242.26 252.166 242.86V247H251.101V239.125H252.121V241.285L251.956 240.88C252.206 240.31 252.606 239.865 253.156 239.545C253.706 239.215 254.361 239.05 255.121 239.05ZM260.593 249.19L261.253 246.415L261.373 247.06C261.143 247.06 260.948 246.985 260.788 246.835C260.638 246.685 260.563 246.49 260.563 246.25C260.563 246.01 260.638 245.815 260.788 245.665C260.948 245.515 261.138 245.44 261.358 245.44C261.588 245.44 261.773 245.52 261.913 245.68C262.063 245.84 262.138 246.03 262.138 246.25C262.138 246.33 262.133 246.41 262.123 246.49C262.113 246.57 262.093 246.66 262.063 246.76C262.033 246.86 261.993 246.98 261.943 247.12L261.313 249.19H260.593ZM17.83 265.075C17.01 265.075 16.29 264.905 15.67 264.565C15.05 264.215 14.565 263.74 14.215 263.14C13.865 262.53 13.69 261.835 13.69 261.055C13.69 260.275 13.855 259.585 14.185 258.985C14.525 258.385 14.985 257.915 15.565 257.575C16.155 257.225 16.815 257.05 17.545 257.05C18.285 257.05 18.94 257.22 19.51 257.56C20.09 257.89 20.545 258.36 20.875 258.97C21.205 259.57 21.37 260.265 21.37 261.055C21.37 261.105 21.365 261.16 21.355 261.22C21.355 261.27 21.355 261.325 21.355 261.385H14.5V260.59H20.785L20.365 260.905C20.365 260.335 20.24 259.83 19.99 259.39C19.75 258.94 19.42 258.59 19 258.34C18.58 258.09 18.095 257.965 17.545 257.965C17.005 257.965 16.52 258.09 16.09 258.34C15.66 258.59 15.325 258.94 15.085 259.39C14.845 259.84 14.725 260.355 14.725 260.935V261.1C14.725 261.7 14.855 262.23 15.115 262.69C15.385 263.14 15.755 263.495 16.225 263.755C16.705 264.005 17.25 264.13 17.86 264.13C18.34 264.13 18.785 264.045 19.195 263.875C19.615 263.705 19.975 263.445 20.275 263.095L20.875 263.785C20.525 264.205 20.085 264.525 19.555 264.745C19.035 264.965 18.46 265.075 17.83 265.075ZM27.5577 257.05C28.1977 257.05 28.7577 257.175 29.2377 257.425C29.7277 257.665 30.1077 258.035 30.3777 258.535C30.6577 259.035 30.7977 259.665 30.7977 260.425V265H29.7327V260.53C29.7327 259.7 29.5227 259.075 29.1027 258.655C28.6927 258.225 28.1127 258.01 27.3627 258.01C26.8027 258.01 26.3127 258.125 25.8927 258.355C25.4827 258.575 25.1627 258.9 24.9327 259.33C24.7127 259.75 24.6027 260.26 24.6027 260.86V265H23.5377V257.125H24.5577V259.285L24.3927 258.88C24.6427 258.31 25.0427 257.865 25.5927 257.545C26.1427 257.215 26.7977 257.05 27.5577 257.05ZM35.7895 265.075C35.1395 265.075 34.5245 264.985 33.9445 264.805C33.3645 264.615 32.9095 264.38 32.5795 264.1L33.0595 263.26C33.3795 263.5 33.7895 263.71 34.2895 263.89C34.7895 264.06 35.3145 264.145 35.8645 264.145C36.6145 264.145 37.1545 264.03 37.4845 263.8C37.8145 263.56 37.9795 263.245 37.9795 262.855C37.9795 262.565 37.8845 262.34 37.6945 262.18C37.5145 262.01 37.2745 261.885 36.9745 261.805C36.6745 261.715 36.3395 261.64 35.9695 261.58C35.5995 261.52 35.2295 261.45 34.8595 261.37C34.4995 261.29 34.1695 261.175 33.8695 261.025C33.5695 260.865 33.3245 260.65 33.1345 260.38C32.9545 260.11 32.8645 259.75 32.8645 259.3C32.8645 258.87 32.9845 258.485 33.2245 258.145C33.4645 257.805 33.8145 257.54 34.2745 257.35C34.7445 257.15 35.3145 257.05 35.9845 257.05C36.4945 257.05 37.0045 257.12 37.5145 257.26C38.0245 257.39 38.4445 257.565 38.7745 257.785L38.3095 258.64C37.9595 258.4 37.5845 258.23 37.1845 258.13C36.7845 258.02 36.3845 257.965 35.9845 257.965C35.2745 257.965 34.7495 258.09 34.4095 258.34C34.0795 258.58 33.9145 258.89 33.9145 259.27C33.9145 259.57 34.0045 259.805 34.1845 259.975C34.3745 260.145 34.6195 260.28 34.9195 260.38C35.2295 260.47 35.5645 260.545 35.9245 260.605C36.2945 260.665 36.6595 260.74 37.0195 260.83C37.3895 260.91 37.7245 261.025 38.0245 261.175C38.3345 261.315 38.5795 261.52 38.7595 261.79C38.9495 262.05 39.0445 262.395 39.0445 262.825C39.0445 263.285 38.9145 263.685 38.6545 264.025C38.4045 264.355 38.0345 264.615 37.5445 264.805C37.0645 264.985 36.4795 265.075 35.7895 265.075ZM44.2537 265.075C43.5837 265.075 42.9987 264.95 42.4987 264.7C41.9987 264.45 41.6087 264.075 41.3287 263.575C41.0587 263.075 40.9237 262.45 40.9237 261.7V257.125H41.9887V261.58C41.9887 262.42 42.1937 263.055 42.6037 263.485C43.0237 263.905 43.6087 264.115 44.3587 264.115C44.9087 264.115 45.3837 264.005 45.7837 263.785C46.1937 263.555 46.5037 263.225 46.7137 262.795C46.9337 262.365 47.0437 261.85 47.0437 261.25V257.125H48.1087V265H47.0887V262.84L47.2537 263.23C47.0037 263.81 46.6137 264.265 46.0837 264.595C45.5637 264.915 44.9537 265.075 44.2537 265.075ZM51.0768 265V257.125H52.0968V259.27L51.9918 258.895C52.2118 258.295 52.5818 257.84 53.1018 257.53C53.6218 257.21 54.2668 257.05 55.0368 257.05V258.085C54.9968 258.085 54.9568 258.085 54.9168 258.085C54.8768 258.075 54.8368 258.07 54.7968 258.07C53.9668 258.07 53.3168 258.325 52.8468 258.835C52.3768 259.335 52.1418 260.05 52.1418 260.98V265H51.0768ZM56.9801 265V257.125H58.0451V265H56.9801ZM57.5201 255.385C57.3001 255.385 57.1151 255.31 56.9651 255.16C56.8151 255.01 56.7401 254.83 56.7401 254.62C56.7401 254.41 56.8151 254.235 56.9651 254.095C57.1151 253.945 57.3001 253.87 57.5201 253.87C57.7401 253.87 57.9251 253.94 58.0751 254.08C58.2251 254.22 58.3001 254.395 58.3001 254.605C58.3001 254.825 58.2251 255.01 58.0751 255.16C57.9351 255.31 57.7501 255.385 57.5201 255.385ZM65.0284 257.05C65.6684 257.05 66.2284 257.175 66.7084 257.425C67.1984 257.665 67.5784 258.035 67.8484 258.535C68.1284 259.035 68.2684 259.665 68.2684 260.425V265H67.2034V260.53C67.2034 259.7 66.9934 259.075 66.5734 258.655C66.1634 258.225 65.5834 258.01 64.8334 258.01C64.2734 258.01 63.7834 258.125 63.3634 258.355C62.9534 258.575 62.6334 258.9 62.4034 259.33C62.1834 259.75 62.0734 260.26 62.0734 260.86V265H61.0084V257.125H62.0284V259.285L61.8634 258.88C62.1134 258.31 62.5134 257.865 63.0634 257.545C63.6134 257.215 64.2684 257.05 65.0284 257.05ZM74.5052 267.985C73.7852 267.985 73.0952 267.88 72.4352 267.67C71.7752 267.46 71.2402 267.16 70.8302 266.77L71.3702 265.96C71.7402 266.29 72.1952 266.55 72.7352 266.74C73.2852 266.94 73.8652 267.04 74.4752 267.04C75.4752 267.04 76.2102 266.805 76.6802 266.335C77.1502 265.875 77.3852 265.155 77.3852 264.175V262.21L77.5352 260.86L77.4302 259.51V257.125H78.4502V264.04C78.4502 265.4 78.1152 266.395 77.4452 267.025C76.7852 267.665 75.8052 267.985 74.5052 267.985ZM74.3102 264.7C73.5602 264.7 72.8852 264.54 72.2852 264.22C71.6852 263.89 71.2102 263.435 70.8602 262.855C70.5202 262.275 70.3502 261.61 70.3502 260.86C70.3502 260.11 70.5202 259.45 70.8602 258.88C71.2102 258.3 71.6852 257.85 72.2852 257.53C72.8852 257.21 73.5602 257.05 74.3102 257.05C75.0102 257.05 75.6402 257.195 76.2002 257.485C76.7602 257.775 77.2052 258.205 77.5352 258.775C77.8652 259.345 78.0302 260.04 78.0302 260.86C78.0302 261.68 77.8652 262.375 77.5352 262.945C77.2052 263.515 76.7602 263.95 76.2002 264.25C75.6402 264.55 75.0102 264.7 74.3102 264.7ZM74.4152 263.755C74.9952 263.755 75.5102 263.635 75.9602 263.395C76.4102 263.145 76.7652 262.805 77.0252 262.375C77.2852 261.935 77.4152 261.43 77.4152 260.86C77.4152 260.29 77.2852 259.79 77.0252 259.36C76.7652 258.93 76.4102 258.595 75.9602 258.355C75.5102 258.105 74.9952 257.98 74.4152 257.98C73.8452 257.98 73.3302 258.105 72.8702 258.355C72.4202 258.595 72.0652 258.93 71.8052 259.36C71.5552 259.79 71.4302 260.29 71.4302 260.86C71.4302 261.43 71.5552 261.935 71.8052 262.375C72.0652 262.805 72.4202 263.145 72.8702 263.395C73.3302 263.635 73.8452 263.755 74.4152 263.755ZM90.2745 265V263.26L90.2295 262.975V260.065C90.2295 259.395 90.0395 258.88 89.6595 258.52C89.2895 258.16 88.7345 257.98 87.9945 257.98C87.4845 257.98 86.9995 258.065 86.5395 258.235C86.0795 258.405 85.6895 258.63 85.3695 258.91L84.8895 258.115C85.2895 257.775 85.7695 257.515 86.3295 257.335C86.8895 257.145 87.4795 257.05 88.0995 257.05C89.1195 257.05 89.9045 257.305 90.4545 257.815C91.0145 258.315 91.2945 259.08 91.2945 260.11V265H90.2745ZM87.5595 265.075C86.9695 265.075 86.4545 264.98 86.0145 264.79C85.5845 264.59 85.2545 264.32 85.0245 263.98C84.7945 263.63 84.6795 263.23 84.6795 262.78C84.6795 262.37 84.7745 262 84.9645 261.67C85.1645 261.33 85.4845 261.06 85.9245 260.86C86.3745 260.65 86.9745 260.545 87.7245 260.545H90.4395V261.34H87.7545C86.9945 261.34 86.4645 261.475 86.1645 261.745C85.8745 262.015 85.7295 262.35 85.7295 262.75C85.7295 263.2 85.9045 263.56 86.2545 263.83C86.6045 264.1 87.0945 264.235 87.7245 264.235C88.3245 264.235 88.8395 264.1 89.2695 263.83C89.7095 263.55 90.0295 263.15 90.2295 262.63L90.4695 263.365C90.2695 263.885 89.9195 264.3 89.4195 264.61C88.9295 264.92 88.3095 265.075 87.5595 265.075ZM100.603 265.075C99.8629 265.075 99.2929 264.875 98.8929 264.475C98.4929 264.075 98.2929 263.51 98.2929 262.78V255.385H99.3579V262.72C99.3579 263.18 99.4729 263.535 99.7029 263.785C99.9429 264.035 100.283 264.16 100.723 264.16C101.193 264.16 101.583 264.025 101.893 263.755L102.268 264.52C102.058 264.71 101.803 264.85 101.503 264.94C101.213 265.03 100.913 265.075 100.603 265.075ZM96.8829 258.01V257.125H101.758V258.01H96.8829ZM109.142 265V263.26L109.097 262.975V260.065C109.097 259.395 108.907 258.88 108.527 258.52C108.157 258.16 107.602 257.98 106.862 257.98C106.352 257.98 105.867 258.065 105.407 258.235C104.947 258.405 104.557 258.63 104.237 258.91L103.757 258.115C104.157 257.775 104.637 257.515 105.197 257.335C105.757 257.145 106.347 257.05 106.967 257.05C107.987 257.05 108.772 257.305 109.322 257.815C109.882 258.315 110.162 259.08 110.162 260.11V265H109.142ZM106.427 265.075C105.837 265.075 105.322 264.98 104.882 264.79C104.452 264.59 104.122 264.32 103.892 263.98C103.662 263.63 103.547 263.23 103.547 262.78C103.547 262.37 103.642 262 103.832 261.67C104.032 261.33 104.352 261.06 104.792 260.86C105.242 260.65 105.842 260.545 106.592 260.545H109.307V261.34H106.622C105.862 261.34 105.332 261.475 105.032 261.745C104.742 262.015 104.597 262.35 104.597 262.75C104.597 263.2 104.772 263.56 105.122 263.83C105.472 264.1 105.962 264.235 106.592 264.235C107.192 264.235 107.707 264.1 108.137 263.83C108.577 263.55 108.897 263.15 109.097 262.63L109.337 263.365C109.137 263.885 108.787 264.3 108.287 264.61C107.797 264.92 107.177 265.075 106.427 265.075ZM113.054 265V257.125H114.074V259.27L113.969 258.895C114.189 258.295 114.559 257.84 115.079 257.53C115.599 257.21 116.244 257.05 117.014 257.05V258.085C116.974 258.085 116.934 258.085 116.894 258.085C116.854 258.075 116.814 258.07 116.774 258.07C115.944 258.07 115.294 258.325 114.824 258.835C114.354 259.335 114.119 260.05 114.119 260.98V265H113.054ZM122.244 267.985C121.524 267.985 120.834 267.88 120.174 267.67C119.514 267.46 118.979 267.16 118.569 266.77L119.109 265.96C119.479 266.29 119.934 266.55 120.474 266.74C121.024 266.94 121.604 267.04 122.214 267.04C123.214 267.04 123.949 266.805 124.419 266.335C124.889 265.875 125.124 265.155 125.124 264.175V262.21L125.274 260.86L125.169 259.51V257.125H126.189V264.04C126.189 265.4 125.854 266.395 125.184 267.025C124.524 267.665 123.544 267.985 122.244 267.985ZM122.049 264.7C121.299 264.7 120.624 264.54 120.024 264.22C119.424 263.89 118.949 263.435 118.599 262.855C118.259 262.275 118.089 261.61 118.089 260.86C118.089 260.11 118.259 259.45 118.599 258.88C118.949 258.3 119.424 257.85 120.024 257.53C120.624 257.21 121.299 257.05 122.049 257.05C122.749 257.05 123.379 257.195 123.939 257.485C124.499 257.775 124.944 258.205 125.274 258.775C125.604 259.345 125.769 260.04 125.769 260.86C125.769 261.68 125.604 262.375 125.274 262.945C124.944 263.515 124.499 263.95 123.939 264.25C123.379 264.55 122.749 264.7 122.049 264.7ZM122.154 263.755C122.734 263.755 123.249 263.635 123.699 263.395C124.149 263.145 124.504 262.805 124.764 262.375C125.024 261.935 125.154 261.43 125.154 260.86C125.154 260.29 125.024 259.79 124.764 259.36C124.504 258.93 124.149 258.595 123.699 258.355C123.249 258.105 122.734 257.98 122.154 257.98C121.584 257.98 121.069 258.105 120.609 258.355C120.159 258.595 119.804 258.93 119.544 259.36C119.294 259.79 119.169 260.29 119.169 260.86C119.169 261.43 119.294 261.935 119.544 262.375C119.804 262.805 120.159 263.145 120.609 263.395C121.069 263.635 121.584 263.755 122.154 263.755ZM132.498 265.075C131.678 265.075 130.958 264.905 130.338 264.565C129.718 264.215 129.233 263.74 128.883 263.14C128.533 262.53 128.358 261.835 128.358 261.055C128.358 260.275 128.523 259.585 128.853 258.985C129.193 258.385 129.653 257.915 130.233 257.575C130.823 257.225 131.483 257.05 132.213 257.05C132.953 257.05 133.608 257.22 134.178 257.56C134.758 257.89 135.213 258.36 135.543 258.97C135.873 259.57 136.038 260.265 136.038 261.055C136.038 261.105 136.033 261.16 136.023 261.22C136.023 261.27 136.023 261.325 136.023 261.385H129.168V260.59H135.453L135.033 260.905C135.033 260.335 134.908 259.83 134.658 259.39C134.418 258.94 134.088 258.59 133.668 258.34C133.248 258.09 132.763 257.965 132.213 257.965C131.673 257.965 131.188 258.09 130.758 258.34C130.328 258.59 129.993 258.94 129.753 259.39C129.513 259.84 129.393 260.355 129.393 260.935V261.1C129.393 261.7 129.523 262.23 129.783 262.69C130.053 263.14 130.423 263.495 130.893 263.755C131.373 264.005 131.918 264.13 132.528 264.13C133.008 264.13 133.453 264.045 133.863 263.875C134.283 263.705 134.643 263.445 134.943 263.095L135.543 263.785C135.193 264.205 134.753 264.525 134.223 264.745C133.703 264.965 133.128 265.075 132.498 265.075ZM140.696 265.075C139.956 265.075 139.386 264.875 138.986 264.475C138.586 264.075 138.386 263.51 138.386 262.78V255.385H139.451V262.72C139.451 263.18 139.566 263.535 139.796 263.785C140.036 264.035 140.376 264.16 140.816 264.16C141.286 264.16 141.676 264.025 141.986 263.755L142.361 264.52C142.151 264.71 141.896 264.85 141.596 264.94C141.306 265.03 141.006 265.075 140.696 265.075ZM136.976 258.01V257.125H141.851V258.01H136.976ZM147.366 265.075C146.546 265.075 145.826 264.905 145.206 264.565C144.586 264.215 144.101 263.74 143.751 263.14C143.401 262.53 143.226 261.835 143.226 261.055C143.226 260.275 143.391 259.585 143.721 258.985C144.061 258.385 144.521 257.915 145.101 257.575C145.691 257.225 146.351 257.05 147.081 257.05C147.821 257.05 148.476 257.22 149.046 257.56C149.626 257.89 150.081 258.36 150.411 258.97C150.741 259.57 150.906 260.265 150.906 261.055C150.906 261.105 150.901 261.16 150.891 261.22C150.891 261.27 150.891 261.325 150.891 261.385H144.036V260.59H150.321L149.901 260.905C149.901 260.335 149.776 259.83 149.526 259.39C149.286 258.94 148.956 258.59 148.536 258.34C148.116 258.09 147.631 257.965 147.081 257.965C146.541 257.965 146.056 258.09 145.626 258.34C145.196 258.59 144.861 258.94 144.621 259.39C144.381 259.84 144.261 260.355 144.261 260.935V261.1C144.261 261.7 144.391 262.23 144.651 262.69C144.921 263.14 145.291 263.495 145.761 263.755C146.241 264.005 146.786 264.13 147.396 264.13C147.876 264.13 148.321 264.045 148.731 263.875C149.151 263.705 149.511 263.445 149.811 263.095L150.411 263.785C150.061 264.205 149.621 264.525 149.091 264.745C148.571 264.965 147.996 265.075 147.366 265.075ZM156.209 265.075C155.459 265.075 154.784 264.905 154.184 264.565C153.594 264.225 153.129 263.755 152.789 263.155C152.449 262.545 152.279 261.845 152.279 261.055C152.279 260.255 152.449 259.555 152.789 258.955C153.129 258.355 153.594 257.89 154.184 257.56C154.784 257.22 155.459 257.05 156.209 257.05C156.899 257.05 157.514 257.205 158.054 257.515C158.604 257.825 159.039 258.28 159.359 258.88C159.689 259.47 159.854 260.195 159.854 261.055C159.854 261.905 159.694 262.63 159.374 263.23C159.054 263.83 158.619 264.29 158.069 264.61C157.529 264.92 156.909 265.075 156.209 265.075ZM156.284 264.13C156.844 264.13 157.344 264.005 157.784 263.755C158.234 263.495 158.584 263.135 158.834 262.675C159.094 262.205 159.224 261.665 159.224 261.055C159.224 260.435 159.094 259.895 158.834 259.435C158.584 258.975 158.234 258.62 157.784 258.37C157.344 258.11 156.844 257.98 156.284 257.98C155.734 257.98 155.239 258.11 154.799 258.37C154.359 258.62 154.009 258.975 153.749 259.435C153.489 259.895 153.359 260.435 153.359 261.055C153.359 261.665 153.489 262.205 153.749 262.675C154.009 263.135 154.359 263.495 154.799 263.755C155.239 264.005 155.734 264.13 156.284 264.13ZM159.254 265V262.63L159.359 261.04L159.209 259.45V253.87H160.274V265H159.254ZM172.101 265V263.26L172.056 262.975V260.065C172.056 259.395 171.866 258.88 171.486 258.52C171.116 258.16 170.561 257.98 169.821 257.98C169.311 257.98 168.826 258.065 168.366 258.235C167.906 258.405 167.516 258.63 167.196 258.91L166.716 258.115C167.116 257.775 167.596 257.515 168.156 257.335C168.716 257.145 169.306 257.05 169.926 257.05C170.946 257.05 171.731 257.305 172.281 257.815C172.841 258.315 173.121 259.08 173.121 260.11V265H172.101ZM169.386 265.075C168.796 265.075 168.281 264.98 167.841 264.79C167.411 264.59 167.081 264.32 166.851 263.98C166.621 263.63 166.506 263.23 166.506 262.78C166.506 262.37 166.601 262 166.791 261.67C166.991 261.33 167.311 261.06 167.751 260.86C168.201 260.65 168.801 260.545 169.551 260.545H172.266V261.34H169.581C168.821 261.34 168.291 261.475 167.991 261.745C167.701 262.015 167.556 262.35 167.556 262.75C167.556 263.2 167.731 263.56 168.081 263.83C168.431 264.1 168.921 264.235 169.551 264.235C170.151 264.235 170.666 264.1 171.096 263.83C171.536 263.55 171.856 263.15 172.056 262.63L172.296 263.365C172.096 263.885 171.746 264.3 171.246 264.61C170.756 264.92 170.136 265.075 169.386 265.075ZM178.128 265.075C177.478 265.075 176.863 264.985 176.283 264.805C175.703 264.615 175.248 264.38 174.918 264.1L175.398 263.26C175.718 263.5 176.128 263.71 176.628 263.89C177.128 264.06 177.653 264.145 178.203 264.145C178.953 264.145 179.493 264.03 179.823 263.8C180.153 263.56 180.318 263.245 180.318 262.855C180.318 262.565 180.223 262.34 180.033 262.18C179.853 262.01 179.613 261.885 179.313 261.805C179.013 261.715 178.678 261.64 178.308 261.58C177.938 261.52 177.568 261.45 177.198 261.37C176.838 261.29 176.508 261.175 176.208 261.025C175.908 260.865 175.663 260.65 175.473 260.38C175.293 260.11 175.203 259.75 175.203 259.3C175.203 258.87 175.323 258.485 175.563 258.145C175.803 257.805 176.153 257.54 176.613 257.35C177.083 257.15 177.653 257.05 178.323 257.05C178.833 257.05 179.343 257.12 179.853 257.26C180.363 257.39 180.783 257.565 181.113 257.785L180.648 258.64C180.298 258.4 179.923 258.23 179.523 258.13C179.123 258.02 178.723 257.965 178.323 257.965C177.613 257.965 177.088 258.09 176.748 258.34C176.418 258.58 176.253 258.89 176.253 259.27C176.253 259.57 176.343 259.805 176.523 259.975C176.713 260.145 176.958 260.28 177.258 260.38C177.568 260.47 177.903 260.545 178.263 260.605C178.633 260.665 178.998 260.74 179.358 260.83C179.728 260.91 180.063 261.025 180.363 261.175C180.673 261.315 180.918 261.52 181.098 261.79C181.288 262.05 181.383 262.395 181.383 262.825C181.383 263.285 181.253 263.685 180.993 264.025C180.743 264.355 180.373 264.615 179.883 264.805C179.403 264.985 178.818 265.075 178.128 265.075ZM185.453 265.075C184.803 265.075 184.188 264.985 183.608 264.805C183.028 264.615 182.573 264.38 182.243 264.1L182.723 263.26C183.043 263.5 183.453 263.71 183.953 263.89C184.453 264.06 184.978 264.145 185.528 264.145C186.278 264.145 186.818 264.03 187.148 263.8C187.478 263.56 187.643 263.245 187.643 262.855C187.643 262.565 187.548 262.34 187.358 262.18C187.178 262.01 186.938 261.885 186.638 261.805C186.338 261.715 186.003 261.64 185.633 261.58C185.263 261.52 184.893 261.45 184.523 261.37C184.163 261.29 183.833 261.175 183.533 261.025C183.233 260.865 182.988 260.65 182.798 260.38C182.618 260.11 182.528 259.75 182.528 259.3C182.528 258.87 182.648 258.485 182.888 258.145C183.128 257.805 183.478 257.54 183.938 257.35C184.408 257.15 184.978 257.05 185.648 257.05C186.158 257.05 186.668 257.12 187.178 257.26C187.688 257.39 188.108 257.565 188.438 257.785L187.973 258.64C187.623 258.4 187.248 258.23 186.848 258.13C186.448 258.02 186.048 257.965 185.648 257.965C184.938 257.965 184.413 258.09 184.073 258.34C183.743 258.58 183.578 258.89 183.578 259.27C183.578 259.57 183.668 259.805 183.848 259.975C184.038 260.145 184.283 260.28 184.583 260.38C184.893 260.47 185.228 260.545 185.588 260.605C185.958 260.665 186.323 260.74 186.683 260.83C187.053 260.91 187.388 261.025 187.688 261.175C187.998 261.315 188.243 261.52 188.423 261.79C188.613 262.05 188.708 262.395 188.708 262.825C188.708 263.285 188.578 263.685 188.318 264.025C188.068 264.355 187.698 264.615 187.208 264.805C186.728 264.985 186.143 265.075 185.453 265.075ZM194.007 265.075C193.187 265.075 192.467 264.905 191.847 264.565C191.227 264.215 190.742 263.74 190.392 263.14C190.042 262.53 189.867 261.835 189.867 261.055C189.867 260.275 190.032 259.585 190.362 258.985C190.702 258.385 191.162 257.915 191.742 257.575C192.332 257.225 192.992 257.05 193.722 257.05C194.462 257.05 195.117 257.22 195.687 257.56C196.267 257.89 196.722 258.36 197.052 258.97C197.382 259.57 197.547 260.265 197.547 261.055C197.547 261.105 197.542 261.16 197.532 261.22C197.532 261.27 197.532 261.325 197.532 261.385H190.677V260.59H196.962L196.542 260.905C196.542 260.335 196.417 259.83 196.167 259.39C195.927 258.94 195.597 258.59 195.177 258.34C194.757 258.09 194.272 257.965 193.722 257.965C193.182 257.965 192.697 258.09 192.267 258.34C191.837 258.59 191.502 258.94 191.262 259.39C191.022 259.84 190.902 260.355 190.902 260.935V261.1C190.902 261.7 191.032 262.23 191.292 262.69C191.562 263.14 191.932 263.495 192.402 263.755C192.882 264.005 193.427 264.13 194.037 264.13C194.517 264.13 194.962 264.045 195.372 263.875C195.792 263.705 196.152 263.445 196.452 263.095L197.052 263.785C196.702 264.205 196.262 264.525 195.732 264.745C195.212 264.965 194.637 265.075 194.007 265.075ZM201.829 265.075C201.179 265.075 200.564 264.985 199.984 264.805C199.404 264.615 198.949 264.38 198.619 264.1L199.099 263.26C199.419 263.5 199.829 263.71 200.329 263.89C200.829 264.06 201.354 264.145 201.904 264.145C202.654 264.145 203.194 264.03 203.524 263.8C203.854 263.56 204.019 263.245 204.019 262.855C204.019 262.565 203.924 262.34 203.734 262.18C203.554 262.01 203.314 261.885 203.014 261.805C202.714 261.715 202.379 261.64 202.009 261.58C201.639 261.52 201.269 261.45 200.899 261.37C200.539 261.29 200.209 261.175 199.909 261.025C199.609 260.865 199.364 260.65 199.174 260.38C198.994 260.11 198.904 259.75 198.904 259.3C198.904 258.87 199.024 258.485 199.264 258.145C199.504 257.805 199.854 257.54 200.314 257.35C200.784 257.15 201.354 257.05 202.024 257.05C202.534 257.05 203.044 257.12 203.554 257.26C204.064 257.39 204.484 257.565 204.814 257.785L204.349 258.64C203.999 258.4 203.624 258.23 203.224 258.13C202.824 258.02 202.424 257.965 202.024 257.965C201.314 257.965 200.789 258.09 200.449 258.34C200.119 258.58 199.954 258.89 199.954 259.27C199.954 259.57 200.044 259.805 200.224 259.975C200.414 260.145 200.659 260.28 200.959 260.38C201.269 260.47 201.604 260.545 201.964 260.605C202.334 260.665 202.699 260.74 203.059 260.83C203.429 260.91 203.764 261.025 204.064 261.175C204.374 261.315 204.619 261.52 204.799 261.79C204.989 262.05 205.084 262.395 205.084 262.825C205.084 263.285 204.954 263.685 204.694 264.025C204.444 264.355 204.074 264.615 203.584 264.805C203.104 264.985 202.519 265.075 201.829 265.075ZM209.154 265.075C208.504 265.075 207.889 264.985 207.309 264.805C206.729 264.615 206.274 264.38 205.944 264.1L206.424 263.26C206.744 263.5 207.154 263.71 207.654 263.89C208.154 264.06 208.679 264.145 209.229 264.145C209.979 264.145 210.519 264.03 210.849 263.8C211.179 263.56 211.344 263.245 211.344 262.855C211.344 262.565 211.249 262.34 211.059 262.18C210.879 262.01 210.639 261.885 210.339 261.805C210.039 261.715 209.704 261.64 209.334 261.58C208.964 261.52 208.594 261.45 208.224 261.37C207.864 261.29 207.534 261.175 207.234 261.025C206.934 260.865 206.689 260.65 206.499 260.38C206.319 260.11 206.229 259.75 206.229 259.3C206.229 258.87 206.349 258.485 206.589 258.145C206.829 257.805 207.179 257.54 207.639 257.35C208.109 257.15 208.679 257.05 209.349 257.05C209.859 257.05 210.369 257.12 210.879 257.26C211.389 257.39 211.809 257.565 212.139 257.785L211.674 258.64C211.324 258.4 210.949 258.23 210.549 258.13C210.149 258.02 209.749 257.965 209.349 257.965C208.639 257.965 208.114 258.09 207.774 258.34C207.444 258.58 207.279 258.89 207.279 259.27C207.279 259.57 207.369 259.805 207.549 259.975C207.739 260.145 207.984 260.28 208.284 260.38C208.594 260.47 208.929 260.545 209.289 260.605C209.659 260.665 210.024 260.74 210.384 260.83C210.754 260.91 211.089 261.025 211.389 261.175C211.699 261.315 211.944 261.52 212.124 261.79C212.314 262.05 212.409 262.395 212.409 262.825C212.409 263.285 212.279 263.685 212.019 264.025C211.769 264.355 211.399 264.615 210.909 264.805C210.429 264.985 209.844 265.075 209.154 265.075ZM224.203 257.05C224.843 257.05 225.398 257.175 225.868 257.425C226.348 257.665 226.718 258.035 226.978 258.535C227.248 259.035 227.383 259.665 227.383 260.425V265H226.318V260.53C226.318 259.7 226.118 259.075 225.718 258.655C225.328 258.225 224.773 258.01 224.053 258.01C223.513 258.01 223.043 258.125 222.643 258.355C222.253 258.575 221.948 258.9 221.728 259.33C221.518 259.75 221.413 260.26 221.413 260.86V265H220.348V260.53C220.348 259.7 220.148 259.075 219.748 258.655C219.348 258.225 218.788 258.01 218.068 258.01C217.538 258.01 217.073 258.125 216.673 258.355C216.273 258.575 215.963 258.9 215.743 259.33C215.533 259.75 215.428 260.26 215.428 260.86V265H214.363V257.125H215.383V259.255L215.218 258.88C215.458 258.31 215.843 257.865 216.373 257.545C216.913 257.215 217.548 257.05 218.278 257.05C219.048 257.05 219.703 257.245 220.243 257.635C220.783 258.015 221.133 258.59 221.293 259.36L220.873 259.195C221.103 258.555 221.508 258.04 222.088 257.65C222.678 257.25 223.383 257.05 224.203 257.05ZM233.616 265.075C232.796 265.075 232.076 264.905 231.456 264.565C230.836 264.215 230.351 263.74 230.001 263.14C229.651 262.53 229.476 261.835 229.476 261.055C229.476 260.275 229.641 259.585 229.971 258.985C230.311 258.385 230.771 257.915 231.351 257.575C231.941 257.225 232.601 257.05 233.331 257.05C234.071 257.05 234.726 257.22 235.296 257.56C235.876 257.89 236.331 258.36 236.661 258.97C236.991 259.57 237.156 260.265 237.156 261.055C237.156 261.105 237.151 261.16 237.141 261.22C237.141 261.27 237.141 261.325 237.141 261.385H230.286V260.59H236.571L236.151 260.905C236.151 260.335 236.026 259.83 235.776 259.39C235.536 258.94 235.206 258.59 234.786 258.34C234.366 258.09 233.881 257.965 233.331 257.965C232.791 257.965 232.306 258.09 231.876 258.34C231.446 258.59 231.111 258.94 230.871 259.39C230.631 259.84 230.511 260.355 230.511 260.935V261.1C230.511 261.7 230.641 262.23 230.901 262.69C231.171 263.14 231.541 263.495 232.011 263.755C232.491 264.005 233.036 264.13 233.646 264.13C234.126 264.13 234.571 264.045 234.981 263.875C235.401 263.705 235.761 263.445 236.061 263.095L236.661 263.785C236.311 264.205 235.871 264.525 235.341 264.745C234.821 264.965 234.246 265.075 233.616 265.075ZM243.344 257.05C243.984 257.05 244.544 257.175 245.024 257.425C245.514 257.665 245.894 258.035 246.164 258.535C246.444 259.035 246.584 259.665 246.584 260.425V265H245.519V260.53C245.519 259.7 245.309 259.075 244.889 258.655C244.479 258.225 243.899 258.01 243.149 258.01C242.589 258.01 242.099 258.125 241.679 258.355C241.269 258.575 240.949 258.9 240.719 259.33C240.499 259.75 240.389 260.26 240.389 260.86V265H239.324V257.125H240.344V259.285L240.179 258.88C240.429 258.31 240.829 257.865 241.379 257.545C241.929 257.215 242.584 257.05 243.344 257.05ZM251.951 265.075C251.211 265.075 250.641 264.875 250.241 264.475C249.841 264.075 249.641 263.51 249.641 262.78V255.385H250.706V262.72C250.706 263.18 250.821 263.535 251.051 263.785C251.291 264.035 251.631 264.16 252.071 264.16C252.541 264.16 252.931 264.025 253.241 263.755L253.616 264.52C253.406 264.71 253.151 264.85 252.851 264.94C252.561 265.03 252.261 265.075 251.951 265.075ZM248.231 258.01V257.125H253.106V258.01H248.231ZM255.806 265.075C255.586 265.075 255.396 264.995 255.236 264.835C255.086 264.675 255.011 264.48 255.011 264.25C255.011 264.01 255.086 263.815 255.236 263.665C255.396 263.515 255.586 263.44 255.806 263.44C256.026 263.44 256.211 263.515 256.361 263.665C256.521 263.815 256.601 264.01 256.601 264.25C256.601 264.48 256.521 264.675 256.361 264.835C256.211 264.995 256.026 265.075 255.806 265.075Z" fill="#434343"/>
<path d="M21.36 187.24C20.28 187.24 19.2733 187.067 18.34 186.72C17.42 186.36 16.62 185.853 15.94 185.2C15.26 184.547 14.7267 183.78 14.34 182.9C13.9667 182.02 13.78 181.053 13.78 180C13.78 178.947 13.9667 177.98 14.34 177.1C14.7267 176.22 15.26 175.453 15.94 174.8C16.6333 174.147 17.44 173.647 18.36 173.3C19.28 172.94 20.2867 172.76 21.38 172.76C22.5933 172.76 23.6867 172.973 24.66 173.4C25.6467 173.813 26.4733 174.427 27.14 175.24L25.06 177.16C24.58 176.613 24.0467 176.207 23.46 175.94C22.8733 175.66 22.2333 175.52 21.54 175.52C20.8867 175.52 20.2867 175.627 19.74 175.84C19.1933 176.053 18.72 176.36 18.32 176.76C17.92 177.16 17.6067 177.633 17.38 178.18C17.1667 178.727 17.06 179.333 17.06 180C17.06 180.667 17.1667 181.273 17.38 181.82C17.6067 182.367 17.92 182.84 18.32 183.24C18.72 183.64 19.1933 183.947 19.74 184.16C20.2867 184.373 20.8867 184.48 21.54 184.48C22.2333 184.48 22.8733 184.347 23.46 184.08C24.0467 183.8 24.58 183.38 25.06 182.82L27.14 184.74C26.4733 185.553 25.6467 186.173 24.66 186.6C23.6867 187.027 22.5867 187.24 21.36 187.24ZM33.3941 187.16C32.5007 187.16 31.7007 186.987 30.9941 186.64C30.3007 186.293 29.7607 185.767 29.3741 185.06C28.9874 184.34 28.7941 183.427 28.7941 182.32V176.24H31.9141V181.86C31.9141 182.753 32.1007 183.413 32.4741 183.84C32.8607 184.253 33.4007 184.46 34.0941 184.46C34.5741 184.46 35.0007 184.36 35.3741 184.16C35.7474 183.947 36.0407 183.627 36.2541 183.2C36.4674 182.76 36.5741 182.213 36.5741 181.56V176.24H39.6941V187H36.7341V184.04L37.2741 184.9C36.9141 185.647 36.3807 186.213 35.6741 186.6C34.9807 186.973 34.2207 187.16 33.3941 187.16ZM46.2045 187.16C45.2845 187.16 44.3979 187.053 43.5445 186.84C42.7045 186.613 42.0379 186.333 41.5445 186L42.5845 183.76C43.0779 184.067 43.6579 184.32 44.3245 184.52C45.0045 184.707 45.6712 184.8 46.3245 184.8C47.0445 184.8 47.5512 184.713 47.8445 184.54C48.1512 184.367 48.3045 184.127 48.3045 183.82C48.3045 183.567 48.1845 183.38 47.9445 183.26C47.7179 183.127 47.4112 183.027 47.0245 182.96C46.6379 182.893 46.2112 182.827 45.7445 182.76C45.2912 182.693 44.8312 182.607 44.3645 182.5C43.8979 182.38 43.4712 182.207 43.0845 181.98C42.6979 181.753 42.3845 181.447 42.1445 181.06C41.9179 180.673 41.8045 180.173 41.8045 179.56C41.8045 178.88 41.9979 178.28 42.3845 177.76C42.7845 177.24 43.3579 176.833 44.1045 176.54C44.8512 176.233 45.7445 176.08 46.7845 176.08C47.5179 176.08 48.2645 176.16 49.0245 176.32C49.7845 176.48 50.4179 176.713 50.9245 177.02L49.8845 179.24C49.3645 178.933 48.8379 178.727 48.3045 178.62C47.7845 178.5 47.2779 178.44 46.7845 178.44C46.0912 178.44 45.5845 178.533 45.2645 178.72C44.9445 178.907 44.7845 179.147 44.7845 179.44C44.7845 179.707 44.8979 179.907 45.1245 180.04C45.3645 180.173 45.6779 180.28 46.0645 180.36C46.4512 180.44 46.8712 180.513 47.3245 180.58C47.7912 180.633 48.2579 180.72 48.7245 180.84C49.1912 180.96 49.6112 181.133 49.9845 181.36C50.3712 181.573 50.6845 181.873 50.9245 182.26C51.1645 182.633 51.2845 183.127 51.2845 183.74C51.2845 184.407 51.0845 185 50.6845 185.52C50.2845 186.027 49.7045 186.427 48.9445 186.72C48.1979 187.013 47.2845 187.16 46.2045 187.16ZM57.6095 187.16C56.3429 187.16 55.3562 186.84 54.6495 186.2C53.9429 185.547 53.5895 184.58 53.5895 183.3V173.86H56.7095V183.26C56.7095 183.713 56.8295 184.067 57.0695 184.32C57.3095 184.56 57.6362 184.68 58.0495 184.68C58.5429 184.68 58.9629 184.547 59.3095 184.28L60.1495 186.48C59.8295 186.707 59.4429 186.88 58.9895 187C58.5495 187.107 58.0895 187.16 57.6095 187.16ZM51.9295 178.88V176.48H59.3895V178.88H51.9295ZM66.6889 187.16C65.5422 187.16 64.5222 186.92 63.6289 186.44C62.7489 185.96 62.0489 185.307 61.5289 184.48C61.0222 183.64 60.7689 182.687 60.7689 181.62C60.7689 180.54 61.0222 179.587 61.5289 178.76C62.0489 177.92 62.7489 177.267 63.6289 176.8C64.5222 176.32 65.5422 176.08 66.6889 176.08C67.8222 176.08 68.8356 176.32 69.7289 176.8C70.6222 177.267 71.3222 177.913 71.8289 178.74C72.3356 179.567 72.5889 180.527 72.5889 181.62C72.5889 182.687 72.3356 183.64 71.8289 184.48C71.3222 185.307 70.6222 185.96 69.7289 186.44C68.8356 186.92 67.8222 187.16 66.6889 187.16ZM66.6889 184.6C67.2089 184.6 67.6756 184.48 68.0889 184.24C68.5022 184 68.8289 183.66 69.0689 183.22C69.3089 182.767 69.4289 182.233 69.4289 181.62C69.4289 180.993 69.3089 180.46 69.0689 180.02C68.8289 179.58 68.5022 179.24 68.0889 179C67.6756 178.76 67.2089 178.64 66.6889 178.64C66.1689 178.64 65.7022 178.76 65.2889 179C64.8756 179.24 64.5422 179.58 64.2889 180.02C64.0489 180.46 63.9289 180.993 63.9289 181.62C63.9289 182.233 64.0489 182.767 64.2889 183.22C64.5422 183.66 64.8756 184 65.2889 184.24C65.7022 184.48 66.1689 184.6 66.6889 184.6ZM88.4544 176.08C89.3077 176.08 90.061 176.253 90.7144 176.6C91.381 176.933 91.901 177.453 92.2744 178.16C92.661 178.853 92.8544 179.747 92.8544 180.84V187H89.7344V181.32C89.7344 180.453 89.5544 179.813 89.1944 179.4C88.8344 178.987 88.3277 178.78 87.6744 178.78C87.221 178.78 86.8144 178.887 86.4544 179.1C86.0944 179.3 85.8144 179.607 85.6144 180.02C85.4144 180.433 85.3144 180.96 85.3144 181.6V187H82.1944V181.32C82.1944 180.453 82.0144 179.813 81.6544 179.4C81.3077 178.987 80.8077 178.78 80.1544 178.78C79.701 178.78 79.2944 178.887 78.9344 179.1C78.5744 179.3 78.2944 179.607 78.0944 180.02C77.8944 180.433 77.7944 180.96 77.7944 181.6V187H74.6744V176.24H77.6544V179.18L77.0944 178.32C77.4677 177.587 77.9944 177.033 78.6744 176.66C79.3677 176.273 80.1544 176.08 81.0344 176.08C82.021 176.08 82.881 176.333 83.6144 176.84C84.361 177.333 84.8544 178.093 85.0944 179.12L83.9944 178.82C84.3544 177.98 84.9277 177.313 85.7144 176.82C86.5144 176.327 87.4277 176.08 88.4544 176.08ZM105.895 187.16C104.882 187.16 103.968 186.933 103.155 186.48C102.342 186.027 101.695 185.387 101.215 184.56C100.748 183.733 100.515 182.753 100.515 181.62C100.515 180.5 100.748 179.527 101.215 178.7C101.695 177.873 102.342 177.233 103.155 176.78C103.968 176.313 104.882 176.08 105.895 176.08C106.842 176.08 107.648 176.28 108.315 176.68C108.995 177.08 109.515 177.687 109.875 178.5C110.235 179.313 110.415 180.353 110.415 181.62C110.415 182.873 110.228 183.913 109.855 184.74C109.482 185.553 108.955 186.16 108.275 186.56C107.595 186.96 106.802 187.16 105.895 187.16ZM106.435 184.6C106.942 184.6 107.402 184.48 107.815 184.24C108.228 184 108.555 183.66 108.795 183.22C109.048 182.767 109.175 182.233 109.175 181.62C109.175 180.993 109.048 180.46 108.795 180.02C108.555 179.58 108.228 179.24 107.815 179C107.402 178.76 106.942 178.64 106.435 178.64C105.915 178.64 105.448 178.76 105.035 179C104.622 179.24 104.288 179.58 104.035 180.02C103.795 180.46 103.675 180.993 103.675 181.62C103.675 182.233 103.795 182.767 104.035 183.22C104.288 183.66 104.622 184 105.035 184.24C105.448 184.48 105.915 184.6 106.435 184.6ZM109.115 190.88V184.82L109.315 181.64L109.255 178.44V176.24H112.235V190.88H109.115ZM119.664 187.16C118.77 187.16 117.97 186.987 117.264 186.64C116.57 186.293 116.03 185.767 115.644 185.06C115.257 184.34 115.064 183.427 115.064 182.32V176.24H118.184V181.86C118.184 182.753 118.37 183.413 118.744 183.84C119.13 184.253 119.67 184.46 120.364 184.46C120.844 184.46 121.27 184.36 121.644 184.16C122.017 183.947 122.31 183.627 122.524 183.2C122.737 182.76 122.844 182.213 122.844 181.56V176.24H125.964V187H123.004V184.04L123.544 184.9C123.184 185.647 122.65 186.213 121.944 186.6C121.25 186.973 120.49 187.16 119.664 187.16ZM134.194 187.16C132.967 187.16 131.887 186.92 130.954 186.44C130.034 185.96 129.321 185.307 128.814 184.48C128.307 183.64 128.054 182.687 128.054 181.62C128.054 180.54 128.301 179.587 128.794 178.76C129.301 177.92 129.987 177.267 130.854 176.8C131.721 176.32 132.701 176.08 133.794 176.08C134.847 176.08 135.794 176.307 136.634 176.76C137.487 177.2 138.161 177.84 138.654 178.68C139.147 179.507 139.394 180.5 139.394 181.66C139.394 181.78 139.387 181.92 139.374 182.08C139.361 182.227 139.347 182.367 139.334 182.5H130.594V180.68H137.694L136.494 181.22C136.494 180.66 136.381 180.173 136.154 179.76C135.927 179.347 135.614 179.027 135.214 178.8C134.814 178.56 134.347 178.44 133.814 178.44C133.281 178.44 132.807 178.56 132.394 178.8C131.994 179.027 131.681 179.353 131.454 179.78C131.227 180.193 131.114 180.687 131.114 181.26V181.74C131.114 182.327 131.241 182.847 131.494 183.3C131.761 183.74 132.127 184.08 132.594 184.32C133.074 184.547 133.634 184.66 134.274 184.66C134.847 184.66 135.347 184.573 135.774 184.4C136.214 184.227 136.614 183.967 136.974 183.62L138.634 185.42C138.141 185.98 137.521 186.413 136.774 186.72C136.027 187.013 135.167 187.16 134.194 187.16ZM145.091 187.16C144.171 187.16 143.285 187.053 142.431 186.84C141.591 186.613 140.925 186.333 140.431 186L141.471 183.76C141.965 184.067 142.545 184.32 143.211 184.52C143.891 184.707 144.558 184.8 145.211 184.8C145.931 184.8 146.438 184.713 146.731 184.54C147.038 184.367 147.191 184.127 147.191 183.82C147.191 183.567 147.071 183.38 146.831 183.26C146.605 183.127 146.298 183.027 145.911 182.96C145.525 182.893 145.098 182.827 144.631 182.76C144.178 182.693 143.718 182.607 143.251 182.5C142.785 182.38 142.358 182.207 141.971 181.98C141.585 181.753 141.271 181.447 141.031 181.06C140.805 180.673 140.691 180.173 140.691 179.56C140.691 178.88 140.885 178.28 141.271 177.76C141.671 177.24 142.245 176.833 142.991 176.54C143.738 176.233 144.631 176.08 145.671 176.08C146.405 176.08 147.151 176.16 147.911 176.32C148.671 176.48 149.305 176.713 149.811 177.02L148.771 179.24C148.251 178.933 147.725 178.727 147.191 178.62C146.671 178.5 146.165 178.44 145.671 178.44C144.978 178.44 144.471 178.533 144.151 178.72C143.831 178.907 143.671 179.147 143.671 179.44C143.671 179.707 143.785 179.907 144.011 180.04C144.251 180.173 144.565 180.28 144.951 180.36C145.338 180.44 145.758 180.513 146.211 180.58C146.678 180.633 147.145 180.72 147.611 180.84C148.078 180.96 148.498 181.133 148.871 181.36C149.258 181.573 149.571 181.873 149.811 182.26C150.051 182.633 150.171 183.127 150.171 183.74C150.171 184.407 149.971 185 149.571 185.52C149.171 186.027 148.591 186.427 147.831 186.72C147.085 187.013 146.171 187.16 145.091 187.16ZM156.496 187.16C155.23 187.16 154.243 186.84 153.536 186.2C152.83 185.547 152.476 184.58 152.476 183.3V173.86H155.596V183.26C155.596 183.713 155.716 184.067 155.956 184.32C156.196 184.56 156.523 184.68 156.936 184.68C157.43 184.68 157.85 184.547 158.196 184.28L159.036 186.48C158.716 186.707 158.33 186.88 157.876 187C157.436 187.107 156.976 187.16 156.496 187.16ZM150.816 178.88V176.48H158.276V178.88H150.816ZM160.788 187V176.24H163.908V187H160.788ZM162.348 174.74C161.774 174.74 161.308 174.573 160.948 174.24C160.588 173.907 160.408 173.493 160.408 173C160.408 172.507 160.588 172.093 160.948 171.76C161.308 171.427 161.774 171.26 162.348 171.26C162.921 171.26 163.388 171.42 163.748 171.74C164.108 172.047 164.288 172.447 164.288 172.94C164.288 173.46 164.108 173.893 163.748 174.24C163.401 174.573 162.934 174.74 162.348 174.74ZM171.923 187.16C170.777 187.16 169.757 186.92 168.863 186.44C167.983 185.96 167.283 185.307 166.763 184.48C166.257 183.64 166.003 182.687 166.003 181.62C166.003 180.54 166.257 179.587 166.763 178.76C167.283 177.92 167.983 177.267 168.863 176.8C169.757 176.32 170.777 176.08 171.923 176.08C173.057 176.08 174.07 176.32 174.963 176.8C175.857 177.267 176.557 177.913 177.063 178.74C177.57 179.567 177.823 180.527 177.823 181.62C177.823 182.687 177.57 183.64 177.063 184.48C176.557 185.307 175.857 185.96 174.963 186.44C174.07 186.92 173.057 187.16 171.923 187.16ZM171.923 184.6C172.443 184.6 172.91 184.48 173.323 184.24C173.737 184 174.063 183.66 174.303 183.22C174.543 182.767 174.663 182.233 174.663 181.62C174.663 180.993 174.543 180.46 174.303 180.02C174.063 179.58 173.737 179.24 173.323 179C172.91 178.76 172.443 178.64 171.923 178.64C171.403 178.64 170.937 178.76 170.523 179C170.11 179.24 169.777 179.58 169.523 180.02C169.283 180.46 169.163 180.993 169.163 181.62C169.163 182.233 169.283 182.767 169.523 183.22C169.777 183.66 170.11 184 170.523 184.24C170.937 184.48 171.403 184.6 171.923 184.6ZM186.449 176.08C187.302 176.08 188.062 176.253 188.729 176.6C189.409 176.933 189.942 177.453 190.329 178.16C190.715 178.853 190.909 179.747 190.909 180.84V187H187.789V181.32C187.789 180.453 187.595 179.813 187.209 179.4C186.835 178.987 186.302 178.78 185.609 178.78C185.115 178.78 184.669 178.887 184.269 179.1C183.882 179.3 183.575 179.613 183.349 180.04C183.135 180.467 183.029 181.013 183.029 181.68V187H179.909V176.24H182.889V179.22L182.329 178.32C182.715 177.6 183.269 177.047 183.989 176.66C184.709 176.273 185.529 176.08 186.449 176.08ZM197.357 187.16C196.437 187.16 195.55 187.053 194.697 186.84C193.857 186.613 193.19 186.333 192.697 186L193.737 183.76C194.23 184.067 194.81 184.32 195.477 184.52C196.157 184.707 196.824 184.8 197.477 184.8C198.197 184.8 198.704 184.713 198.997 184.54C199.304 184.367 199.457 184.127 199.457 183.82C199.457 183.567 199.337 183.38 199.097 183.26C198.87 183.127 198.564 183.027 198.177 182.96C197.79 182.893 197.364 182.827 196.897 182.76C196.444 182.693 195.984 182.607 195.517 182.5C195.05 182.38 194.624 182.207 194.237 181.98C193.85 181.753 193.537 181.447 193.297 181.06C193.07 180.673 192.957 180.173 192.957 179.56C192.957 178.88 193.15 178.28 193.537 177.76C193.937 177.24 194.51 176.833 195.257 176.54C196.004 176.233 196.897 176.08 197.937 176.08C198.67 176.08 199.417 176.16 200.177 176.32C200.937 176.48 201.57 176.713 202.077 177.02L201.037 179.24C200.517 178.933 199.99 178.727 199.457 178.62C198.937 178.5 198.43 178.44 197.937 178.44C197.244 178.44 196.737 178.533 196.417 178.72C196.097 178.907 195.937 179.147 195.937 179.44C195.937 179.707 196.05 179.907 196.277 180.04C196.517 180.173 196.83 180.28 197.217 180.36C197.604 180.44 198.024 180.513 198.477 180.58C198.944 180.633 199.41 180.72 199.877 180.84C200.344 180.96 200.764 181.133 201.137 181.36C201.524 181.573 201.837 181.873 202.077 182.26C202.317 182.633 202.437 183.127 202.437 183.74C202.437 184.407 202.237 185 201.837 185.52C201.437 186.027 200.857 186.427 200.097 186.72C199.35 187.013 198.437 187.16 197.357 187.16ZM214.646 187.16C213.633 187.16 212.719 186.933 211.906 186.48C211.093 186.013 210.446 185.367 209.966 184.54C209.499 183.713 209.266 182.74 209.266 181.62C209.266 180.487 209.499 179.507 209.966 178.68C210.446 177.853 211.093 177.213 211.906 176.76C212.719 176.307 213.633 176.08 214.646 176.08C215.553 176.08 216.346 176.28 217.026 176.68C217.706 177.08 218.233 177.687 218.606 178.5C218.979 179.313 219.166 180.353 219.166 181.62C219.166 182.873 218.986 183.913 218.626 184.74C218.266 185.553 217.746 186.16 217.066 186.56C216.399 186.96 215.593 187.16 214.646 187.16ZM215.186 184.6C215.693 184.6 216.153 184.48 216.566 184.24C216.979 184 217.306 183.66 217.546 183.22C217.799 182.767 217.926 182.233 217.926 181.62C217.926 180.993 217.799 180.46 217.546 180.02C217.306 179.58 216.979 179.24 216.566 179C216.153 178.76 215.693 178.64 215.186 178.64C214.666 178.64 214.199 178.76 213.786 179C213.373 179.24 213.039 179.58 212.786 180.02C212.546 180.46 212.426 180.993 212.426 181.62C212.426 182.233 212.546 182.767 212.786 183.22C213.039 183.66 213.373 184 213.786 184.24C214.199 184.48 214.666 184.6 215.186 184.6ZM218.006 187V184.8L218.066 181.6L217.866 178.42V172.16H220.986V187H218.006ZM223.874 187V176.24H226.994V187H223.874ZM225.434 174.74C224.86 174.74 224.394 174.573 224.034 174.24C223.674 173.907 223.494 173.493 223.494 173C223.494 172.507 223.674 172.093 224.034 171.76C224.394 171.427 224.86 171.26 225.434 171.26C226.007 171.26 226.474 171.42 226.834 171.74C227.194 172.047 227.374 172.447 227.374 172.94C227.374 173.46 227.194 173.893 226.834 174.24C226.487 174.573 226.02 174.74 225.434 174.74ZM230.269 187V176C230.269 174.787 230.629 173.82 231.349 173.1C232.069 172.367 233.096 172 234.429 172C234.883 172 235.316 172.047 235.729 172.14C236.156 172.233 236.516 172.38 236.809 172.58L235.989 174.84C235.816 174.72 235.623 174.627 235.409 174.56C235.196 174.493 234.969 174.46 234.729 174.46C234.276 174.46 233.923 174.593 233.669 174.86C233.429 175.113 233.309 175.5 233.309 176.02V177.02L233.389 178.36V187H230.269ZM228.609 178.88V176.48H236.069V178.88H228.609ZM238.004 187V176C238.004 174.787 238.364 173.82 239.084 173.1C239.804 172.367 240.83 172 242.164 172C242.617 172 243.05 172.047 243.464 172.14C243.89 172.233 244.25 172.38 244.544 172.58L243.724 174.84C243.55 174.72 243.357 174.627 243.144 174.56C242.93 174.493 242.704 174.46 242.464 174.46C242.01 174.46 241.657 174.593 241.404 174.86C241.164 175.113 241.044 175.5 241.044 176.02V177.02L241.124 178.36V187H238.004ZM236.344 178.88V176.48H243.804V178.88H236.344ZM245.564 187V176.24H248.684V187H245.564ZM247.124 174.74C246.55 174.74 246.084 174.573 245.724 174.24C245.364 173.907 245.184 173.493 245.184 173C245.184 172.507 245.364 172.093 245.724 171.76C246.084 171.427 246.55 171.26 247.124 171.26C247.697 171.26 248.164 171.42 248.524 171.74C248.884 172.047 249.064 172.447 249.064 172.94C249.064 173.46 248.884 173.893 248.524 174.24C248.177 174.573 247.71 174.74 247.124 174.74ZM256.769 187.16C255.609 187.16 254.576 186.927 253.669 186.46C252.762 185.98 252.049 185.32 251.529 184.48C251.022 183.64 250.769 182.687 250.769 181.62C250.769 180.54 251.022 179.587 251.529 178.76C252.049 177.92 252.762 177.267 253.669 176.8C254.576 176.32 255.609 176.08 256.769 176.08C257.902 176.08 258.889 176.32 259.729 176.8C260.569 177.267 261.189 177.94 261.589 178.82L259.169 180.12C258.889 179.613 258.536 179.24 258.109 179C257.696 178.76 257.242 178.64 256.749 178.64C256.216 178.64 255.736 178.76 255.309 179C254.882 179.24 254.542 179.58 254.289 180.02C254.049 180.46 253.929 180.993 253.929 181.62C253.929 182.247 254.049 182.78 254.289 183.22C254.542 183.66 254.882 184 255.309 184.24C255.736 184.48 256.216 184.6 256.749 184.6C257.242 184.6 257.696 184.487 258.109 184.26C258.536 184.02 258.889 183.64 259.169 183.12L261.589 184.44C261.189 185.307 260.569 185.98 259.729 186.46C258.889 186.927 257.902 187.16 256.769 187.16ZM267.925 187.16C267.032 187.16 266.232 186.987 265.525 186.64C264.832 186.293 264.292 185.767 263.905 185.06C263.519 184.34 263.325 183.427 263.325 182.32V176.24H266.445V181.86C266.445 182.753 266.632 183.413 267.005 183.84C267.392 184.253 267.932 184.46 268.625 184.46C269.105 184.46 269.532 184.36 269.905 184.16C270.279 183.947 270.572 183.627 270.785 183.2C270.999 182.76 271.105 182.213 271.105 181.56V176.24H274.225V187H271.265V184.04L271.805 184.9C271.445 185.647 270.912 186.213 270.205 186.6C269.512 186.973 268.752 187.16 267.925 187.16ZM277.116 187V172.16H280.236V187H277.116ZM288.332 187.16C287.066 187.16 286.079 186.84 285.372 186.2C284.666 185.547 284.312 184.58 284.312 183.3V173.86H287.432V183.26C287.432 183.713 287.552 184.067 287.792 184.32C288.032 184.56 288.359 184.68 288.772 184.68C289.266 184.68 289.686 184.547 290.032 184.28L290.872 186.48C290.552 186.707 290.166 186.88 289.712 187C289.272 187.107 288.812 187.16 288.332 187.16ZM282.652 178.88V176.48H290.112V178.88H282.652ZM293.788 191.04C293.228 191.04 292.675 190.953 292.128 190.78C291.582 190.607 291.135 190.367 290.788 190.06L291.928 187.84C292.168 188.053 292.442 188.22 292.748 188.34C293.068 188.46 293.382 188.52 293.688 188.52C294.128 188.52 294.475 188.413 294.728 188.2C294.995 188 295.235 187.66 295.448 187.18L296.008 185.86L296.248 185.52L300.108 176.24H303.108L298.248 187.66C297.902 188.527 297.502 189.207 297.048 189.7C296.608 190.193 296.115 190.54 295.568 190.74C295.035 190.94 294.442 191.04 293.788 191.04ZM295.628 187.42L290.828 176.24H294.048L297.768 185.24L295.628 187.42Z" fill="#434343"/>
<g clip-path="url(#clip0_87_650)">
<g filter="url(#filter1_d_87_650)">
<path d="M161.841 51.6455C158.137 51.5774 154.457 52.277 151.021 53.7029C148.815 54.6047 146.732 55.7954 144.821 57.2456C142.667 58.8985 140.752 60.8583 139.133 63.0664C138.223 62.9516 137.306 62.897 136.389 62.9026C124.068 62.9485 114.123 73.2967 114.17 86.0281C114.185 90.7906 115.633 95.4315 118.314 99.3112C120.995 103.191 124.777 106.118 129.14 107.69C130.131 111.032 132.306 113.867 135.233 115.632C138.159 117.397 141.623 117.962 144.935 117.216C148.247 116.47 151.165 114.466 153.109 111.604C155.053 108.741 155.88 105.23 155.427 101.767L174.423 91.8032L174.278 91.515L176.067 90.5572L172.372 83.0689L170.584 84.0008L170.414 83.6832L151.45 93.5912C148.928 91.0435 145.532 89.625 142.001 89.644C139.413 89.6584 136.884 90.4365 134.713 91.8863C132.542 93.3361 130.819 95.3969 129.749 97.8246C127.246 96.3074 125.291 93.9912 124.179 91.2267C123.067 88.4621 122.86 85.3996 123.587 82.5029C124.107 80.4189 125.094 78.49 126.47 76.8717C127.845 75.2533 129.571 73.991 131.507 73.1863C133.443 72.3817 135.536 72.0574 137.617 72.2395C139.697 72.4216 141.707 73.1051 143.484 74.2347C144.243 71.8235 145.456 69.5904 147.054 67.663C148.651 65.7357 150.602 64.152 152.794 63.0025C154.986 61.8531 157.377 61.1604 159.829 60.9643C162.282 60.7681 164.747 61.0723 167.086 61.8594C170.482 63.0206 173.486 65.1554 175.747 68.0135C178.008 70.8717 179.432 74.3347 179.852 77.9965C181.301 77.8494 182.765 78.016 184.149 78.4855C185.532 78.955 186.806 79.7172 187.887 80.7232C188.969 81.7293 189.835 82.9569 190.429 84.3276C191.024 85.6983 191.334 87.1818 191.34 88.6831C191.351 91.3733 190.384 93.9699 188.63 95.9621C186.876 97.9543 184.463 99.1977 181.864 99.4478L174.196 99.4763L174.231 108.792L182.29 108.762L182.684 108.701C185.225 108.467 187.696 107.719 189.956 106.501C192.216 105.282 194.22 103.617 195.855 101.599C197.49 99.5818 198.723 97.252 199.484 94.7431C200.245 92.2341 200.519 89.5952 200.29 86.9769C199.867 82.2608 197.85 77.8473 194.591 74.5071C192.464 72.3144 189.867 70.6661 187.01 69.6943C184.997 64.472 181.537 59.9758 177.061 56.7667C172.585 53.5576 167.291 51.7741 161.841 51.6455ZM142.036 97.0904C143.708 97.0911 145.313 97.7749 146.497 98.9921C147.682 100.209 148.35 101.861 148.355 103.584C148.36 104.437 148.201 105.282 147.888 106.071C147.575 106.86 147.114 107.577 146.532 108.182C145.949 108.787 145.256 109.268 144.493 109.596C143.73 109.924 142.911 110.094 142.084 110.096C141.257 110.101 140.437 109.937 139.67 109.615C138.904 109.292 138.208 108.817 137.62 108.217C137.033 107.616 136.566 106.902 136.247 106.115C135.928 105.328 135.763 104.484 135.761 103.631C135.758 101.911 136.416 100.259 137.592 99.0388C138.769 97.8182 140.367 97.1282 142.036 97.12L142.036 97.0904Z" fill="#6362E3"/>
</g>
</g>
<defs>
<filter id="filter0_di_87_650" x="0" y="0" width="314" height="342" filterUnits="userSpaceOnUse" color-interpolation-filters="sRGB">
<feFlood flood-opacity="0" result="BackgroundImageFix"/>
<feColorMatrix in="SourceAlpha" type="matrix" values="0 0 0 0 0 0 0 0 0 0 0 0 0 0 0 0 0 0 127 0" result="hardAlpha"/>
<feOffset dy="4"/>
<feGaussianBlur stdDeviation="2"/>
<feComposite in2="hardAlpha" operator="out"/>
<feColorMatrix type="matrix" values="0 0 0 0 0 0 0 0 0 0 0 0 0 0 0 0 0 0 0.25 0"/>
<feBlend mode="normal" in2="BackgroundImageFix" result="effect1_dropShadow_87_650"/>
<feBlend mode="normal" in="SourceGraphic" in2="effect1_dropShadow_87_650" result="shape"/>
<feColorMatrix in="SourceAlpha" type="matrix" values="0 0 0 0 0 0 0 0 0 0 0 0 0 0 0 0 0 0 127 0" result="hardAlpha"/>
<feOffset dy="10"/>
<feGaussianBlur stdDeviation="3"/>
<feComposite in2="hardAlpha" operator="arithmetic" k2="-1" k3="1"/>
<feColorMatrix type="matrix" values="0 0 0 0 0 0 0 0 0 0 0 0 0 0 0 0 0 0 0.25 0"/>
<feBlend mode="normal" in2="shape" result="effect2_innerShadow_87_650"/>
</filter>
<filter id="filter1_d_87_650" x="110.17" y="51.6409" width="94.1987" height="73.8962" filterUnits="userSpaceOnUse" color-interpolation-filters="sRGB">
<feFlood flood-opacity="0" result="BackgroundImageFix"/>
<feColorMatrix in="SourceAlpha" type="matrix" values="0 0 0 0 0 0 0 0 0 0 0 0 0 0 0 0 0 0 127 0" result="hardAlpha"/>
<feOffset dy="4"/>
<feGaussianBlur stdDeviation="2"/>
<feComposite in2="hardAlpha" operator="out"/>
<feColorMatrix type="matrix" values="0 0 0 0 0 0 0 0 0 0 0 0 0 0 0 0 0 0 0.25 0"/>
<feBlend mode="normal" in2="BackgroundImageFix" result="effect1_dropShadow_87_650"/>
<feBlend mode="normal" in="SourceGraphic" in2="effect1_dropShadow_87_650" result="shape"/>
</filter>
<clipPath id="clip0_87_650">
<rect width="86.1877" height="88.8246" fill="white" transform="translate(114 40.3208) rotate(-0.213321)"/>
</clipPath>
</defs>
</svg>
