<svg width="309" height="342" viewBox="0 0 309 342" fill="none" xmlns="http://www.w3.org/2000/svg">
<g filter="url(#filter0_di_469_1185)">
<rect x="-1" width="306" height="334" rx="29" fill="#D9D9D9"/>
</g>
<path d="M19.88 187.24C17.8933 187.24 16.34 186.687 15.22 185.58C14.1 184.473 13.54 182.893 13.54 180.84V173H16.78V180.72C16.78 182.053 17.0533 183.013 17.6 183.6C18.1467 184.187 18.9133 184.48 19.9 184.48C20.8867 184.48 21.6533 184.187 22.2 183.6C22.7467 183.013 23.02 182.053 23.02 180.72V173H26.22V180.84C26.22 182.893 25.66 184.473 24.54 185.58C23.42 186.687 21.8667 187.24 19.88 187.24ZM35.5617 187.16C34.6551 187.16 33.8617 186.96 33.1817 186.56C32.5017 186.16 31.9684 185.553 31.5817 184.74C31.2084 183.913 31.0217 182.873 31.0217 181.62C31.0217 180.353 31.2017 179.313 31.5617 178.5C31.9217 177.687 32.4417 177.08 33.1217 176.68C33.8017 176.28 34.6151 176.08 35.5617 176.08C36.5751 176.08 37.4817 176.313 38.2817 176.78C39.0951 177.233 39.7351 177.873 40.2017 178.7C40.6817 179.527 40.9217 180.5 40.9217 181.62C40.9217 182.753 40.6817 183.733 40.2017 184.56C39.7351 185.387 39.0951 186.027 38.2817 186.48C37.4817 186.933 36.5751 187.16 35.5617 187.16ZM29.2017 190.88V176.24H32.1817V178.44L32.1217 181.64L32.3217 184.82V190.88H29.2017ZM35.0217 184.6C35.5417 184.6 36.0017 184.48 36.4017 184.24C36.8151 184 37.1417 183.66 37.3817 183.22C37.6351 182.767 37.7617 182.233 37.7617 181.62C37.7617 180.993 37.6351 180.46 37.3817 180.02C37.1417 179.58 36.8151 179.24 36.4017 179C36.0017 178.76 35.5417 178.64 35.0217 178.64C34.5017 178.64 34.0351 178.76 33.6217 179C33.2084 179.24 32.8817 179.58 32.6417 180.02C32.4017 180.46 32.2817 180.993 32.2817 181.62C32.2817 182.233 32.4017 182.767 32.6417 183.22C32.8817 183.66 33.2084 184 33.6217 184.24C34.0351 184.48 34.5017 184.6 35.0217 184.6ZM43.0103 187V172.16H46.1303V187H43.0103ZM54.1459 187.16C52.9993 187.16 51.9793 186.92 51.0859 186.44C50.2059 185.96 49.5059 185.307 48.9859 184.48C48.4793 183.64 48.2259 182.687 48.2259 181.62C48.2259 180.54 48.4793 179.587 48.9859 178.76C49.5059 177.92 50.2059 177.267 51.0859 176.8C51.9793 176.32 52.9993 176.08 54.1459 176.08C55.2793 176.08 56.2926 176.32 57.1859 176.8C58.0793 177.267 58.7793 177.913 59.2859 178.74C59.7926 179.567 60.0459 180.527 60.0459 181.62C60.0459 182.687 59.7926 183.64 59.2859 184.48C58.7793 185.307 58.0793 185.96 57.1859 186.44C56.2926 186.92 55.2793 187.16 54.1459 187.16ZM54.1459 184.6C54.6659 184.6 55.1326 184.48 55.5459 184.24C55.9593 184 56.2859 183.66 56.5259 183.22C56.7659 182.767 56.8859 182.233 56.8859 181.62C56.8859 180.993 56.7659 180.46 56.5259 180.02C56.2859 179.58 55.9593 179.24 55.5459 179C55.1326 178.76 54.6659 178.64 54.1459 178.64C53.6259 178.64 53.1593 178.76 52.7459 179C52.3326 179.24 51.9993 179.58 51.7459 180.02C51.5059 180.46 51.3859 180.993 51.3859 181.62C51.3859 182.233 51.5059 182.767 51.7459 183.22C51.9993 183.66 52.3326 184 52.7459 184.24C53.1593 184.48 53.6259 184.6 54.1459 184.6ZM68.5556 187V184.9L68.3556 184.44V180.68C68.3556 180.013 68.149 179.493 67.7356 179.12C67.3356 178.747 66.7156 178.56 65.8756 178.56C65.3023 178.56 64.7356 178.653 64.1756 178.84C63.629 179.013 63.1623 179.253 62.7756 179.56L61.6556 177.38C62.2423 176.967 62.949 176.647 63.7756 176.42C64.6023 176.193 65.4423 176.08 66.2956 176.08C67.9356 176.08 69.209 176.467 70.1156 177.24C71.0223 178.013 71.4756 179.22 71.4756 180.86V187H68.5556ZM65.2756 187.16C64.4356 187.16 63.7156 187.02 63.1156 186.74C62.5156 186.447 62.0556 186.053 61.7356 185.56C61.4156 185.067 61.2556 184.513 61.2556 183.9C61.2556 183.26 61.409 182.7 61.7156 182.22C62.0356 181.74 62.5356 181.367 63.2156 181.1C63.8956 180.82 64.7823 180.68 65.8756 180.68H68.7356V182.5H66.2156C65.4823 182.5 64.9756 182.62 64.6956 182.86C64.429 183.1 64.2956 183.4 64.2956 183.76C64.2956 184.16 64.449 184.48 64.7556 184.72C65.0756 184.947 65.509 185.06 66.0556 185.06C66.5756 185.06 67.0423 184.94 67.4556 184.7C67.869 184.447 68.169 184.08 68.3556 183.6L68.8356 185.04C68.609 185.733 68.1956 186.26 67.5956 186.62C66.9956 186.98 66.2223 187.16 65.2756 187.16ZM78.9975 187.16C77.9842 187.16 77.0708 186.933 76.2575 186.48C75.4442 186.013 74.7975 185.367 74.3175 184.54C73.8508 183.713 73.6175 182.74 73.6175 181.62C73.6175 180.487 73.8508 179.507 74.3175 178.68C74.7975 177.853 75.4442 177.213 76.2575 176.76C77.0708 176.307 77.9842 176.08 78.9975 176.08C79.9042 176.08 80.6975 176.28 81.3775 176.68C82.0575 177.08 82.5842 177.687 82.9575 178.5C83.3308 179.313 83.5175 180.353 83.5175 181.62C83.5175 182.873 83.3375 183.913 82.9775 184.74C82.6175 185.553 82.0975 186.16 81.4175 186.56C80.7508 186.96 79.9442 187.16 78.9975 187.16ZM79.5375 184.6C80.0442 184.6 80.5042 184.48 80.9175 184.24C81.3308 184 81.6575 183.66 81.8975 183.22C82.1508 182.767 82.2775 182.233 82.2775 181.62C82.2775 180.993 82.1508 180.46 81.8975 180.02C81.6575 179.58 81.3308 179.24 80.9175 179C80.5042 178.76 80.0442 178.64 79.5375 178.64C79.0175 178.64 78.5508 178.76 78.1375 179C77.7242 179.24 77.3908 179.58 77.1375 180.02C76.8975 180.46 76.7775 180.993 76.7775 181.62C76.7775 182.233 76.8975 182.767 77.1375 183.22C77.3908 183.66 77.7242 184 78.1375 184.24C78.5508 184.48 79.0175 184.6 79.5375 184.6ZM82.3575 187V184.8L82.4175 181.6L82.2175 178.42V172.16H85.3375V187H82.3575ZM97.0892 178.64H103.829V181.16H97.0892V178.64ZM97.3292 184.4H104.949V187H94.1092V173H104.689V175.6H97.3292V184.4ZM105.83 187L110.65 180.68L110.59 182.4L105.97 176.24H109.47L112.39 180.26L111.07 180.3L114.09 176.24H117.41L112.77 182.34V180.66L117.57 187H114.03L110.97 182.72L112.27 182.9L109.23 187H105.83ZM125.489 187V184.9L125.289 184.44V180.68C125.289 180.013 125.083 179.493 124.669 179.12C124.269 178.747 123.649 178.56 122.809 178.56C122.236 178.56 121.669 178.653 121.109 178.84C120.563 179.013 120.096 179.253 119.709 179.56L118.589 177.38C119.176 176.967 119.883 176.647 120.709 176.42C121.536 176.193 122.376 176.08 123.229 176.08C124.869 176.08 126.143 176.467 127.049 177.24C127.956 178.013 128.409 179.22 128.409 180.86V187H125.489ZM122.209 187.16C121.369 187.16 120.649 187.02 120.049 186.74C119.449 186.447 118.989 186.053 118.669 185.56C118.349 185.067 118.189 184.513 118.189 183.9C118.189 183.26 118.343 182.7 118.649 182.22C118.969 181.74 119.469 181.367 120.149 181.1C120.829 180.82 121.716 180.68 122.809 180.68H125.669V182.5H123.149C122.416 182.5 121.909 182.62 121.629 182.86C121.363 183.1 121.229 183.4 121.229 183.76C121.229 184.16 121.383 184.48 121.689 184.72C122.009 184.947 122.443 185.06 122.989 185.06C123.509 185.06 123.976 184.94 124.389 184.7C124.803 184.447 125.103 184.08 125.289 183.6L125.769 185.04C125.543 185.733 125.129 186.26 124.529 186.62C123.929 186.98 123.156 187.16 122.209 187.16ZM145.013 176.08C145.866 176.08 146.62 176.253 147.273 176.6C147.94 176.933 148.46 177.453 148.833 178.16C149.22 178.853 149.413 179.747 149.413 180.84V187H146.293V181.32C146.293 180.453 146.113 179.813 145.753 179.4C145.393 178.987 144.886 178.78 144.233 178.78C143.78 178.78 143.373 178.887 143.013 179.1C142.653 179.3 142.373 179.607 142.173 180.02C141.973 180.433 141.873 180.96 141.873 181.6V187H138.753V181.32C138.753 180.453 138.573 179.813 138.213 179.4C137.866 178.987 137.366 178.78 136.713 178.78C136.26 178.78 135.853 178.887 135.493 179.1C135.133 179.3 134.853 179.607 134.653 180.02C134.453 180.433 134.353 180.96 134.353 181.6V187H131.233V176.24H134.213V179.18L133.653 178.32C134.026 177.587 134.553 177.033 135.233 176.66C135.926 176.273 136.713 176.08 137.593 176.08C138.58 176.08 139.44 176.333 140.173 176.84C140.92 177.333 141.413 178.093 141.653 179.12L140.553 178.82C140.913 177.98 141.486 177.313 142.273 176.82C143.073 176.327 143.986 176.08 145.013 176.08ZM158.094 187V173H160.774L166.734 182.88H165.314L171.174 173H173.834L173.874 187H170.834L170.814 177.66H171.374L166.694 185.52H165.234L160.454 177.66H161.134V187H158.094ZM183.575 187V184.9L183.375 184.44V180.68C183.375 180.013 183.168 179.493 182.755 179.12C182.355 178.747 181.735 178.56 180.895 178.56C180.322 178.56 179.755 178.653 179.195 178.84C178.648 179.013 178.182 179.253 177.795 179.56L176.675 177.38C177.262 176.967 177.968 176.647 178.795 176.42C179.622 176.193 180.462 176.08 181.315 176.08C182.955 176.08 184.228 176.467 185.135 177.24C186.042 178.013 186.495 179.22 186.495 180.86V187H183.575ZM180.295 187.16C179.455 187.16 178.735 187.02 178.135 186.74C177.535 186.447 177.075 186.053 176.755 185.56C176.435 185.067 176.275 184.513 176.275 183.9C176.275 183.26 176.428 182.7 176.735 182.22C177.055 181.74 177.555 181.367 178.235 181.1C178.915 180.82 179.802 180.68 180.895 180.68H183.755V182.5H181.235C180.502 182.5 179.995 182.62 179.715 182.86C179.448 183.1 179.315 183.4 179.315 183.76C179.315 184.16 179.468 184.48 179.775 184.72C180.095 184.947 180.528 185.06 181.075 185.06C181.595 185.06 182.062 184.94 182.475 184.7C182.888 184.447 183.188 184.08 183.375 183.6L183.855 185.04C183.628 185.733 183.215 186.26 182.615 186.62C182.015 186.98 181.242 187.16 180.295 187.16ZM193.719 187.16C192.452 187.16 191.466 186.84 190.759 186.2C190.052 185.547 189.699 184.58 189.699 183.3V173.86H192.819V183.26C192.819 183.713 192.939 184.067 193.179 184.32C193.419 184.56 193.746 184.68 194.159 184.68C194.652 184.68 195.072 184.547 195.419 184.28L196.259 186.48C195.939 186.707 195.552 186.88 195.099 187C194.659 187.107 194.199 187.16 193.719 187.16ZM188.039 178.88V176.48H195.499V178.88H188.039ZM203.018 187.16C201.792 187.16 200.712 186.92 199.778 186.44C198.858 185.96 198.145 185.307 197.638 184.48C197.132 183.64 196.878 182.687 196.878 181.62C196.878 180.54 197.125 179.587 197.618 178.76C198.125 177.92 198.812 177.267 199.678 176.8C200.545 176.32 201.525 176.08 202.618 176.08C203.672 176.08 204.618 176.307 205.458 176.76C206.312 177.2 206.985 177.84 207.478 178.68C207.972 179.507 208.218 180.5 208.218 181.66C208.218 181.78 208.212 181.92 208.198 182.08C208.185 182.227 208.172 182.367 208.158 182.5H199.418V180.68H206.518L205.318 181.22C205.318 180.66 205.205 180.173 204.978 179.76C204.752 179.347 204.438 179.027 204.038 178.8C203.638 178.56 203.172 178.44 202.638 178.44C202.105 178.44 201.632 178.56 201.218 178.8C200.818 179.027 200.505 179.353 200.278 179.78C200.052 180.193 199.938 180.687 199.938 181.26V181.74C199.938 182.327 200.065 182.847 200.318 183.3C200.585 183.74 200.952 184.08 201.418 184.32C201.898 184.547 202.458 184.66 203.098 184.66C203.672 184.66 204.172 184.573 204.598 184.4C205.038 184.227 205.438 183.967 205.798 183.62L207.458 185.42C206.965 185.98 206.345 186.413 205.598 186.72C204.852 187.013 203.992 187.16 203.018 187.16ZM210.295 187V176.24H213.275V179.28L212.855 178.4C213.175 177.64 213.689 177.067 214.395 176.68C215.102 176.28 215.962 176.08 216.975 176.08V178.96C216.842 178.947 216.722 178.94 216.615 178.94C216.509 178.927 216.395 178.92 216.275 178.92C215.422 178.92 214.729 179.167 214.195 179.66C213.675 180.14 213.415 180.893 213.415 181.92V187H210.295ZM218.85 187V176.24H221.97V187H218.85ZM220.41 174.74C219.837 174.74 219.37 174.573 219.01 174.24C218.65 173.907 218.47 173.493 218.47 173C218.47 172.507 218.65 172.093 219.01 171.76C219.37 171.427 219.837 171.26 220.41 171.26C220.983 171.26 221.45 171.42 221.81 171.74C222.17 172.047 222.35 172.447 222.35 172.94C222.35 173.46 222.17 173.893 221.81 174.24C221.463 174.573 220.997 174.74 220.41 174.74ZM231.466 187V184.9L231.266 184.44V180.68C231.266 180.013 231.059 179.493 230.646 179.12C230.246 178.747 229.626 178.56 228.786 178.56C228.212 178.56 227.646 178.653 227.086 178.84C226.539 179.013 226.072 179.253 225.686 179.56L224.566 177.38C225.152 176.967 225.859 176.647 226.686 176.42C227.512 176.193 228.352 176.08 229.206 176.08C230.846 176.08 232.119 176.467 233.026 177.24C233.932 178.013 234.386 179.22 234.386 180.86V187H231.466ZM228.186 187.16C227.346 187.16 226.626 187.02 226.026 186.74C225.426 186.447 224.966 186.053 224.646 185.56C224.326 185.067 224.166 184.513 224.166 183.9C224.166 183.26 224.319 182.7 224.626 182.22C224.946 181.74 225.446 181.367 226.126 181.1C226.806 180.82 227.692 180.68 228.786 180.68H231.646V182.5H229.126C228.392 182.5 227.886 182.62 227.606 182.86C227.339 183.1 227.206 183.4 227.206 183.76C227.206 184.16 227.359 184.48 227.666 184.72C227.986 184.947 228.419 185.06 228.966 185.06C229.486 185.06 229.952 184.94 230.366 184.7C230.779 184.447 231.079 184.08 231.266 183.6L231.746 185.04C231.519 185.733 231.106 186.26 230.506 186.62C229.906 186.98 229.132 187.16 228.186 187.16ZM237.21 187V172.16H240.33V187H237.21ZM246.845 187.16C245.925 187.16 245.038 187.053 244.185 186.84C243.345 186.613 242.678 186.333 242.185 186L243.225 183.76C243.718 184.067 244.298 184.32 244.965 184.52C245.645 184.707 246.312 184.8 246.965 184.8C247.685 184.8 248.192 184.713 248.485 184.54C248.792 184.367 248.945 184.127 248.945 183.82C248.945 183.567 248.825 183.38 248.585 183.26C248.358 183.127 248.052 183.027 247.665 182.96C247.278 182.893 246.852 182.827 246.385 182.76C245.932 182.693 245.472 182.607 245.005 182.5C244.538 182.38 244.112 182.207 243.725 181.98C243.338 181.753 243.025 181.447 242.785 181.06C242.558 180.673 242.445 180.173 242.445 179.56C242.445 178.88 242.638 178.28 243.025 177.76C243.425 177.24 243.998 176.833 244.745 176.54C245.492 176.233 246.385 176.08 247.425 176.08C248.158 176.08 248.905 176.16 249.665 176.32C250.425 176.48 251.058 176.713 251.565 177.02L250.525 179.24C250.005 178.933 249.478 178.727 248.945 178.62C248.425 178.5 247.918 178.44 247.425 178.44C246.732 178.44 246.225 178.533 245.905 178.72C245.585 178.907 245.425 179.147 245.425 179.44C245.425 179.707 245.538 179.907 245.765 180.04C246.005 180.173 246.318 180.28 246.705 180.36C247.092 180.44 247.512 180.513 247.965 180.58C248.432 180.633 248.898 180.72 249.365 180.84C249.832 180.96 250.252 181.133 250.625 181.36C251.012 181.573 251.325 181.873 251.565 182.26C251.805 182.633 251.925 183.127 251.925 183.74C251.925 184.407 251.725 185 251.325 185.52C250.925 186.027 250.345 186.427 249.585 186.72C248.838 187.013 247.925 187.16 246.845 187.16Z" fill="#434343"/>
<path d="M16.215 229V225.1L16.47 225.79L12.015 218.5H13.2L17.115 224.905H16.485L20.4 218.5H21.51L17.055 225.79L17.31 225.1V229H16.215ZM25.3229 229.075C24.5629 229.075 23.8779 228.905 23.2679 228.565C22.6679 228.215 22.1929 227.74 21.8429 227.14C21.4929 226.53 21.3179 225.835 21.3179 225.055C21.3179 224.265 21.4929 223.57 21.8429 222.97C22.1929 222.37 22.6679 221.9 23.2679 221.56C23.8679 221.22 24.5529 221.05 25.3229 221.05C26.1029 221.05 26.7929 221.22 27.3929 221.56C28.0029 221.9 28.4779 222.37 28.8179 222.97C29.1679 223.57 29.3429 224.265 29.3429 225.055C29.3429 225.835 29.1679 226.53 28.8179 227.14C28.4779 227.74 28.0029 228.215 27.3929 228.565C26.7829 228.905 26.0929 229.075 25.3229 229.075ZM25.3229 228.13C25.8929 228.13 26.3979 228.005 26.8379 227.755C27.2779 227.495 27.6229 227.135 27.8729 226.675C28.1329 226.205 28.2629 225.665 28.2629 225.055C28.2629 224.435 28.1329 223.895 27.8729 223.435C27.6229 222.975 27.2779 222.62 26.8379 222.37C26.3979 222.11 25.8979 221.98 25.3379 221.98C24.7779 221.98 24.2779 222.11 23.8379 222.37C23.3979 222.62 23.0479 222.975 22.7879 223.435C22.5279 223.895 22.3979 224.435 22.3979 225.055C22.3979 225.665 22.5279 226.205 22.7879 226.675C23.0479 227.135 23.3979 227.495 23.8379 227.755C24.2779 228.005 24.7729 228.13 25.3229 228.13ZM34.7722 229.075C34.1022 229.075 33.5172 228.95 33.0172 228.7C32.5172 228.45 32.1272 228.075 31.8472 227.575C31.5772 227.075 31.4422 226.45 31.4422 225.7V221.125H32.5072V225.58C32.5072 226.42 32.7122 227.055 33.1222 227.485C33.5422 227.905 34.1272 228.115 34.8772 228.115C35.4272 228.115 35.9022 228.005 36.3022 227.785C36.7122 227.555 37.0222 227.225 37.2322 226.795C37.4522 226.365 37.5622 225.85 37.5622 225.25V221.125H38.6272V229H37.6072V226.84L37.7722 227.23C37.5222 227.81 37.1322 228.265 36.6022 228.595C36.0822 228.915 35.4722 229.075 34.7722 229.075ZM48.7911 229.075C48.0111 229.075 47.3111 228.905 46.6911 228.565C46.0811 228.215 45.6011 227.74 45.2511 227.14C44.9011 226.53 44.7261 225.835 44.7261 225.055C44.7261 224.265 44.9011 223.57 45.2511 222.97C45.6011 222.37 46.0811 221.9 46.6911 221.56C47.3111 221.22 48.0111 221.05 48.7911 221.05C49.4611 221.05 50.0661 221.18 50.6061 221.44C51.1461 221.7 51.5711 222.09 51.8811 222.61L51.0861 223.15C50.8161 222.75 50.4811 222.455 50.0811 222.265C49.6811 222.075 49.2461 221.98 48.7761 221.98C48.2161 221.98 47.7111 222.11 47.2611 222.37C46.8111 222.62 46.4561 222.975 46.1961 223.435C45.9361 223.895 45.8061 224.435 45.8061 225.055C45.8061 225.675 45.9361 226.215 46.1961 226.675C46.4561 227.135 46.8111 227.495 47.2611 227.755C47.7111 228.005 48.2161 228.13 48.7761 228.13C49.2461 228.13 49.6811 228.035 50.0811 227.845C50.4811 227.655 50.8161 227.365 51.0861 226.975L51.8811 227.515C51.5711 228.025 51.1461 228.415 50.6061 228.685C50.0661 228.945 49.4611 229.075 48.7911 229.075ZM58.9083 229V227.26L58.8633 226.975V224.065C58.8633 223.395 58.6733 222.88 58.2933 222.52C57.9233 222.16 57.3683 221.98 56.6283 221.98C56.1183 221.98 55.6333 222.065 55.1733 222.235C54.7133 222.405 54.3233 222.63 54.0033 222.91L53.5233 222.115C53.9233 221.775 54.4033 221.515 54.9633 221.335C55.5233 221.145 56.1133 221.05 56.7333 221.05C57.7533 221.05 58.5383 221.305 59.0883 221.815C59.6483 222.315 59.9283 223.08 59.9283 224.11V229H58.9083ZM56.1933 229.075C55.6033 229.075 55.0883 228.98 54.6483 228.79C54.2183 228.59 53.8883 228.32 53.6583 227.98C53.4283 227.63 53.3133 227.23 53.3133 226.78C53.3133 226.37 53.4083 226 53.5983 225.67C53.7983 225.33 54.1183 225.06 54.5583 224.86C55.0083 224.65 55.6083 224.545 56.3583 224.545H59.0733V225.34H56.3883C55.6283 225.34 55.0983 225.475 54.7983 225.745C54.5083 226.015 54.3633 226.35 54.3633 226.75C54.3633 227.2 54.5383 227.56 54.8883 227.83C55.2383 228.1 55.7283 228.235 56.3583 228.235C56.9583 228.235 57.4733 228.1 57.9033 227.83C58.3433 227.55 58.6633 227.15 58.8633 226.63L59.1033 227.365C58.9033 227.885 58.5533 228.3 58.0533 228.61C57.5633 228.92 56.9433 229.075 56.1933 229.075ZM66.8409 221.05C67.4809 221.05 68.0409 221.175 68.5209 221.425C69.0109 221.665 69.3909 222.035 69.6609 222.535C69.9409 223.035 70.0809 223.665 70.0809 224.425V229H69.0159V224.53C69.0159 223.7 68.8059 223.075 68.3859 222.655C67.9759 222.225 67.3959 222.01 66.6459 222.01C66.0859 222.01 65.5959 222.125 65.1759 222.355C64.7659 222.575 64.4459 222.9 64.2159 223.33C63.9959 223.75 63.8859 224.26 63.8859 224.86V229H62.8209V221.125H63.8409V223.285L63.6759 222.88C63.9259 222.31 64.3259 221.865 64.8759 221.545C65.4259 221.215 66.0809 221.05 66.8409 221.05ZM80.2284 229.075C79.4084 229.075 78.6884 228.905 78.0684 228.565C77.4484 228.215 76.9634 227.74 76.6134 227.14C76.2634 226.53 76.0884 225.835 76.0884 225.055C76.0884 224.275 76.2534 223.585 76.5834 222.985C76.9234 222.385 77.3834 221.915 77.9634 221.575C78.5534 221.225 79.2134 221.05 79.9434 221.05C80.6834 221.05 81.3384 221.22 81.9084 221.56C82.4884 221.89 82.9434 222.36 83.2734 222.97C83.6034 223.57 83.7684 224.265 83.7684 225.055C83.7684 225.105 83.7634 225.16 83.7534 225.22C83.7534 225.27 83.7534 225.325 83.7534 225.385H76.8984V224.59H83.1834L82.7634 224.905C82.7634 224.335 82.6384 223.83 82.3884 223.39C82.1484 222.94 81.8184 222.59 81.3984 222.34C80.9784 222.09 80.4934 221.965 79.9434 221.965C79.4034 221.965 78.9184 222.09 78.4884 222.34C78.0584 222.59 77.7234 222.94 77.4834 223.39C77.2434 223.84 77.1234 224.355 77.1234 224.935V225.1C77.1234 225.7 77.2534 226.23 77.5134 226.69C77.7834 227.14 78.1534 227.495 78.6234 227.755C79.1034 228.005 79.6484 228.13 80.2584 228.13C80.7384 228.13 81.1834 228.045 81.5934 227.875C82.0134 227.705 82.3734 227.445 82.6734 227.095L83.2734 227.785C82.9234 228.205 82.4834 228.525 81.9534 228.745C81.4334 228.965 80.8584 229.075 80.2284 229.075ZM90.6514 229V227.26L90.6064 226.975V224.065C90.6064 223.395 90.4164 222.88 90.0364 222.52C89.6664 222.16 89.1114 221.98 88.3714 221.98C87.8614 221.98 87.3764 222.065 86.9164 222.235C86.4564 222.405 86.0664 222.63 85.7464 222.91L85.2664 222.115C85.6664 221.775 86.1464 221.515 86.7064 221.335C87.2664 221.145 87.8564 221.05 88.4764 221.05C89.4964 221.05 90.2814 221.305 90.8314 221.815C91.3914 222.315 91.6714 223.08 91.6714 224.11V229H90.6514ZM87.9364 229.075C87.3464 229.075 86.8314 228.98 86.3914 228.79C85.9614 228.59 85.6314 228.32 85.4014 227.98C85.1714 227.63 85.0564 227.23 85.0564 226.78C85.0564 226.37 85.1514 226 85.3414 225.67C85.5414 225.33 85.8614 225.06 86.3014 224.86C86.7514 224.65 87.3514 224.545 88.1014 224.545H90.8164V225.34H88.1314C87.3714 225.34 86.8414 225.475 86.5414 225.745C86.2514 226.015 86.1064 226.35 86.1064 226.75C86.1064 227.2 86.2814 227.56 86.6314 227.83C86.9814 228.1 87.4714 228.235 88.1014 228.235C88.7014 228.235 89.2164 228.1 89.6464 227.83C90.0864 227.55 90.4064 227.15 90.6064 226.63L90.8464 227.365C90.6464 227.885 90.2964 228.3 89.7964 228.61C89.3064 228.92 88.6864 229.075 87.9364 229.075ZM96.6791 229.075C96.0291 229.075 95.4141 228.985 94.8341 228.805C94.2541 228.615 93.7991 228.38 93.4691 228.1L93.9491 227.26C94.2691 227.5 94.6791 227.71 95.1791 227.89C95.6791 228.06 96.2041 228.145 96.7541 228.145C97.5041 228.145 98.0441 228.03 98.3741 227.8C98.7041 227.56 98.8691 227.245 98.8691 226.855C98.8691 226.565 98.7741 226.34 98.5841 226.18C98.4041 226.01 98.1641 225.885 97.8641 225.805C97.5641 225.715 97.2291 225.64 96.8591 225.58C96.4891 225.52 96.1191 225.45 95.7491 225.37C95.3891 225.29 95.0591 225.175 94.7591 225.025C94.4591 224.865 94.2141 224.65 94.0241 224.38C93.8441 224.11 93.7541 223.75 93.7541 223.3C93.7541 222.87 93.8741 222.485 94.1141 222.145C94.3541 221.805 94.7041 221.54 95.1641 221.35C95.6341 221.15 96.2041 221.05 96.8741 221.05C97.3841 221.05 97.8941 221.12 98.4041 221.26C98.9141 221.39 99.3341 221.565 99.6641 221.785L99.1991 222.64C98.8491 222.4 98.4741 222.23 98.0741 222.13C97.6741 222.02 97.2741 221.965 96.8741 221.965C96.1641 221.965 95.6391 222.09 95.2991 222.34C94.9691 222.58 94.8041 222.89 94.8041 223.27C94.8041 223.57 94.8941 223.805 95.0741 223.975C95.2641 224.145 95.5091 224.28 95.8091 224.38C96.1191 224.47 96.4541 224.545 96.8141 224.605C97.1841 224.665 97.5491 224.74 97.9091 224.83C98.2791 224.91 98.6141 225.025 98.9141 225.175C99.2241 225.315 99.4691 225.52 99.6491 225.79C99.8391 226.05 99.9341 226.395 99.9341 226.825C99.9341 227.285 99.8041 227.685 99.5441 228.025C99.2941 228.355 98.9241 228.615 98.4341 228.805C97.9541 228.985 97.3691 229.075 96.6791 229.075ZM101.888 229V221.125H102.953V229H101.888ZM102.428 219.385C102.208 219.385 102.023 219.31 101.873 219.16C101.723 219.01 101.648 218.83 101.648 218.62C101.648 218.41 101.723 218.235 101.873 218.095C102.023 217.945 102.208 217.87 102.428 217.87C102.648 217.87 102.833 217.94 102.983 218.08C103.133 218.22 103.208 218.395 103.208 218.605C103.208 218.825 103.133 219.01 102.983 219.16C102.843 219.31 102.658 219.385 102.428 219.385ZM105.917 229V217.87H106.982V229H105.917ZM110.005 231.985C109.635 231.985 109.28 231.925 108.94 231.805C108.61 231.685 108.325 231.505 108.085 231.265L108.58 230.47C108.78 230.66 108.995 230.805 109.225 230.905C109.465 231.015 109.73 231.07 110.02 231.07C110.37 231.07 110.67 230.97 110.92 230.77C111.18 230.58 111.425 230.24 111.655 229.75L112.165 228.595L112.285 228.43L115.525 221.125H116.575L112.63 229.945C112.41 230.455 112.165 230.86 111.895 231.16C111.635 231.46 111.35 231.67 111.04 231.79C110.73 231.92 110.385 231.985 110.005 231.985ZM112.105 229.225L108.475 221.125H109.585L112.795 228.355L112.105 229.225ZM125.256 229.075C124.586 229.075 124.001 228.95 123.501 228.7C123.001 228.45 122.611 228.075 122.331 227.575C122.061 227.075 121.926 226.45 121.926 225.7V221.125H122.991V225.58C122.991 226.42 123.196 227.055 123.606 227.485C124.026 227.905 124.611 228.115 125.361 228.115C125.911 228.115 126.386 228.005 126.786 227.785C127.196 227.555 127.506 227.225 127.716 226.795C127.936 226.365 128.046 225.85 128.046 225.25V221.125H129.111V229H128.091V226.84L128.256 227.23C128.006 227.81 127.616 228.265 127.086 228.595C126.566 228.915 125.956 229.075 125.256 229.075ZM136.144 229.075C135.464 229.075 134.849 228.92 134.299 228.61C133.749 228.29 133.309 227.835 132.979 227.245C132.659 226.645 132.499 225.915 132.499 225.055C132.499 224.195 132.659 223.47 132.979 222.88C133.299 222.28 133.734 221.825 134.284 221.515C134.834 221.205 135.454 221.05 136.144 221.05C136.894 221.05 137.564 221.22 138.154 221.56C138.754 221.89 139.224 222.36 139.564 222.97C139.904 223.57 140.074 224.265 140.074 225.055C140.074 225.855 139.904 226.555 139.564 227.155C139.224 227.755 138.754 228.225 138.154 228.565C137.564 228.905 136.894 229.075 136.144 229.075ZM132.079 231.91V221.125H133.099V223.495L132.994 225.07L133.144 226.66V231.91H132.079ZM136.069 228.13C136.629 228.13 137.129 228.005 137.569 227.755C138.009 227.495 138.359 227.135 138.619 226.675C138.879 226.205 139.009 225.665 139.009 225.055C139.009 224.445 138.879 223.91 138.619 223.45C138.359 222.99 138.009 222.63 137.569 222.37C137.129 222.11 136.629 221.98 136.069 221.98C135.509 221.98 135.004 222.11 134.554 222.37C134.114 222.63 133.764 222.99 133.504 223.45C133.254 223.91 133.129 224.445 133.129 225.055C133.129 225.665 133.254 226.205 133.504 226.675C133.764 227.135 134.114 227.495 134.554 227.755C135.004 228.005 135.509 228.13 136.069 228.13ZM142.245 229V217.87H143.31V229H142.245ZM149.483 229.075C148.723 229.075 148.038 228.905 147.428 228.565C146.828 228.215 146.353 227.74 146.003 227.14C145.653 226.53 145.478 225.835 145.478 225.055C145.478 224.265 145.653 223.57 146.003 222.97C146.353 222.37 146.828 221.9 147.428 221.56C148.028 221.22 148.713 221.05 149.483 221.05C150.263 221.05 150.953 221.22 151.553 221.56C152.163 221.9 152.638 222.37 152.978 222.97C153.328 223.57 153.503 224.265 153.503 225.055C153.503 225.835 153.328 226.53 152.978 227.14C152.638 227.74 152.163 228.215 151.553 228.565C150.943 228.905 150.253 229.075 149.483 229.075ZM149.483 228.13C150.053 228.13 150.558 228.005 150.998 227.755C151.438 227.495 151.783 227.135 152.033 226.675C152.293 226.205 152.423 225.665 152.423 225.055C152.423 224.435 152.293 223.895 152.033 223.435C151.783 222.975 151.438 222.62 150.998 222.37C150.558 222.11 150.058 221.98 149.498 221.98C148.938 221.98 148.438 222.11 147.998 222.37C147.558 222.62 147.208 222.975 146.948 223.435C146.688 223.895 146.558 224.435 146.558 225.055C146.558 225.665 146.688 226.205 146.948 226.675C147.208 227.135 147.558 227.495 147.998 227.755C148.438 228.005 148.933 228.13 149.483 228.13ZM160.568 229V227.26L160.523 226.975V224.065C160.523 223.395 160.333 222.88 159.953 222.52C159.583 222.16 159.028 221.98 158.288 221.98C157.778 221.98 157.293 222.065 156.833 222.235C156.373 222.405 155.983 222.63 155.663 222.91L155.183 222.115C155.583 221.775 156.063 221.515 156.623 221.335C157.183 221.145 157.773 221.05 158.393 221.05C159.413 221.05 160.198 221.305 160.748 221.815C161.308 222.315 161.588 223.08 161.588 224.11V229H160.568ZM157.853 229.075C157.263 229.075 156.748 228.98 156.308 228.79C155.878 228.59 155.548 228.32 155.318 227.98C155.088 227.63 154.973 227.23 154.973 226.78C154.973 226.37 155.068 226 155.258 225.67C155.458 225.33 155.778 225.06 156.218 224.86C156.668 224.65 157.268 224.545 158.018 224.545H160.733V225.34H158.048C157.288 225.34 156.758 225.475 156.458 225.745C156.168 226.015 156.023 226.35 156.023 226.75C156.023 227.2 156.198 227.56 156.548 227.83C156.898 228.1 157.388 228.235 158.018 228.235C158.618 228.235 159.133 228.1 159.563 227.83C160.003 227.55 160.323 227.15 160.523 226.63L160.763 227.365C160.563 227.885 160.213 228.3 159.713 228.61C159.223 228.92 158.603 229.075 157.853 229.075ZM167.616 229.075C166.866 229.075 166.191 228.905 165.591 228.565C165.001 228.225 164.536 227.755 164.196 227.155C163.856 226.545 163.686 225.845 163.686 225.055C163.686 224.255 163.856 223.555 164.196 222.955C164.536 222.355 165.001 221.89 165.591 221.56C166.191 221.22 166.866 221.05 167.616 221.05C168.306 221.05 168.921 221.205 169.461 221.515C170.011 221.825 170.446 222.28 170.766 222.88C171.096 223.47 171.261 224.195 171.261 225.055C171.261 225.905 171.101 226.63 170.781 227.23C170.461 227.83 170.026 228.29 169.476 228.61C168.936 228.92 168.316 229.075 167.616 229.075ZM167.691 228.13C168.251 228.13 168.751 228.005 169.191 227.755C169.641 227.495 169.991 227.135 170.241 226.675C170.501 226.205 170.631 225.665 170.631 225.055C170.631 224.435 170.501 223.895 170.241 223.435C169.991 222.975 169.641 222.62 169.191 222.37C168.751 222.11 168.251 221.98 167.691 221.98C167.141 221.98 166.646 222.11 166.206 222.37C165.766 222.62 165.416 222.975 165.156 223.435C164.896 223.895 164.766 224.435 164.766 225.055C164.766 225.665 164.896 226.205 165.156 226.675C165.416 227.135 165.766 227.495 166.206 227.755C166.646 228.005 167.141 228.13 167.691 228.13ZM170.661 229V226.63L170.766 225.04L170.616 223.45V217.87H171.681V229H170.661ZM178.633 231.985C178.263 231.985 177.908 231.925 177.568 231.805C177.238 231.685 176.953 231.505 176.713 231.265L177.208 230.47C177.408 230.66 177.623 230.805 177.853 230.905C178.093 231.015 178.358 231.07 178.648 231.07C178.998 231.07 179.298 230.97 179.548 230.77C179.808 230.58 180.053 230.24 180.283 229.75L180.793 228.595L180.913 228.43L184.153 221.125H185.203L181.258 229.945C181.038 230.455 180.793 230.86 180.523 231.16C180.263 231.46 179.978 231.67 179.668 231.79C179.358 231.92 179.013 231.985 178.633 231.985ZM180.733 229.225L177.103 221.125H178.213L181.423 228.355L180.733 229.225ZM189.693 229.075C188.933 229.075 188.248 228.905 187.638 228.565C187.038 228.215 186.563 227.74 186.213 227.14C185.863 226.53 185.688 225.835 185.688 225.055C185.688 224.265 185.863 223.57 186.213 222.97C186.563 222.37 187.038 221.9 187.638 221.56C188.238 221.22 188.923 221.05 189.693 221.05C190.473 221.05 191.163 221.22 191.763 221.56C192.373 221.9 192.848 222.37 193.188 222.97C193.538 223.57 193.713 224.265 193.713 225.055C193.713 225.835 193.538 226.53 193.188 227.14C192.848 227.74 192.373 228.215 191.763 228.565C191.153 228.905 190.463 229.075 189.693 229.075ZM189.693 228.13C190.263 228.13 190.768 228.005 191.208 227.755C191.648 227.495 191.993 227.135 192.243 226.675C192.503 226.205 192.633 225.665 192.633 225.055C192.633 224.435 192.503 223.895 192.243 223.435C191.993 222.975 191.648 222.62 191.208 222.37C190.768 222.11 190.268 221.98 189.708 221.98C189.148 221.98 188.648 222.11 188.208 222.37C187.768 222.62 187.418 222.975 187.158 223.435C186.898 223.895 186.768 224.435 186.768 225.055C186.768 225.665 186.898 226.205 187.158 226.675C187.418 227.135 187.768 227.495 188.208 227.755C188.648 228.005 189.143 228.13 189.693 228.13ZM199.142 229.075C198.472 229.075 197.887 228.95 197.387 228.7C196.887 228.45 196.497 228.075 196.217 227.575C195.947 227.075 195.812 226.45 195.812 225.7V221.125H196.877V225.58C196.877 226.42 197.082 227.055 197.492 227.485C197.912 227.905 198.497 228.115 199.247 228.115C199.797 228.115 200.272 228.005 200.672 227.785C201.082 227.555 201.392 227.225 201.602 226.795C201.822 226.365 201.932 225.85 201.932 225.25V221.125H202.997V229H201.977V226.84L202.142 227.23C201.892 227.81 201.502 228.265 200.972 228.595C200.452 228.915 199.842 229.075 199.142 229.075ZM205.965 229V221.125H206.985V223.27L206.88 222.895C207.1 222.295 207.47 221.84 207.99 221.53C208.51 221.21 209.155 221.05 209.925 221.05V222.085C209.885 222.085 209.845 222.085 209.805 222.085C209.765 222.075 209.725 222.07 209.685 222.07C208.855 222.07 208.205 222.325 207.735 222.835C207.265 223.335 207.03 224.05 207.03 224.98V229H205.965ZM219.257 229.075C218.437 229.075 217.717 228.905 217.097 228.565C216.477 228.215 215.992 227.74 215.642 227.14C215.292 226.53 215.117 225.835 215.117 225.055C215.117 224.275 215.282 223.585 215.612 222.985C215.952 222.385 216.412 221.915 216.992 221.575C217.582 221.225 218.242 221.05 218.972 221.05C219.712 221.05 220.367 221.22 220.937 221.56C221.517 221.89 221.972 222.36 222.302 222.97C222.632 223.57 222.797 224.265 222.797 225.055C222.797 225.105 222.792 225.16 222.782 225.22C222.782 225.27 222.782 225.325 222.782 225.385H215.927V224.59H222.212L221.792 224.905C221.792 224.335 221.667 223.83 221.417 223.39C221.177 222.94 220.847 222.59 220.427 222.34C220.007 222.09 219.522 221.965 218.972 221.965C218.432 221.965 217.947 222.09 217.517 222.34C217.087 222.59 216.752 222.94 216.512 223.39C216.272 223.84 216.152 224.355 216.152 224.935V225.1C216.152 225.7 216.282 226.23 216.542 226.69C216.812 227.14 217.182 227.495 217.652 227.755C218.132 228.005 218.677 228.13 219.287 228.13C219.767 228.13 220.212 228.045 220.622 227.875C221.042 227.705 221.402 227.445 221.702 227.095L222.302 227.785C221.952 228.205 221.512 228.525 220.982 228.745C220.462 228.965 219.887 229.075 219.257 229.075ZM223.545 229L226.875 224.68L226.86 225.205L223.695 221.125H224.895L227.49 224.5L227.04 224.485L229.635 221.125H230.805L227.61 225.25L227.625 224.68L230.985 229H229.77L227.025 225.4L227.445 225.46L224.745 229H223.545ZM237.546 229V227.26L237.501 226.975V224.065C237.501 223.395 237.311 222.88 236.931 222.52C236.561 222.16 236.006 221.98 235.266 221.98C234.756 221.98 234.271 222.065 233.811 222.235C233.351 222.405 232.961 222.63 232.641 222.91L232.161 222.115C232.561 221.775 233.041 221.515 233.601 221.335C234.161 221.145 234.751 221.05 235.371 221.05C236.391 221.05 237.176 221.305 237.726 221.815C238.286 222.315 238.566 223.08 238.566 224.11V229H237.546ZM234.831 229.075C234.241 229.075 233.726 228.98 233.286 228.79C232.856 228.59 232.526 228.32 232.296 227.98C232.066 227.63 231.951 227.23 231.951 226.78C231.951 226.37 232.046 226 232.236 225.67C232.436 225.33 232.756 225.06 233.196 224.86C233.646 224.65 234.246 224.545 234.996 224.545H237.711V225.34H235.026C234.266 225.34 233.736 225.475 233.436 225.745C233.146 226.015 233.001 226.35 233.001 226.75C233.001 227.2 233.176 227.56 233.526 227.83C233.876 228.1 234.366 228.235 234.996 228.235C235.596 228.235 236.111 228.1 236.541 227.83C236.981 227.55 237.301 227.15 237.501 226.63L237.741 227.365C237.541 227.885 237.191 228.3 236.691 228.61C236.201 228.92 235.581 229.075 234.831 229.075ZM251.299 221.05C251.939 221.05 252.494 221.175 252.964 221.425C253.444 221.665 253.814 222.035 254.074 222.535C254.344 223.035 254.479 223.665 254.479 224.425V229H253.414V224.53C253.414 223.7 253.214 223.075 252.814 222.655C252.424 222.225 251.869 222.01 251.149 222.01C250.609 222.01 250.139 222.125 249.739 222.355C249.349 222.575 249.044 222.9 248.824 223.33C248.614 223.75 248.509 224.26 248.509 224.86V229H247.444V224.53C247.444 223.7 247.244 223.075 246.844 222.655C246.444 222.225 245.884 222.01 245.164 222.01C244.634 222.01 244.169 222.125 243.769 222.355C243.369 222.575 243.059 222.9 242.839 223.33C242.629 223.75 242.524 224.26 242.524 224.86V229H241.459V221.125H242.479V223.255L242.314 222.88C242.554 222.31 242.939 221.865 243.469 221.545C244.009 221.215 244.644 221.05 245.374 221.05C246.144 221.05 246.799 221.245 247.339 221.635C247.879 222.015 248.229 222.59 248.389 223.36L247.969 223.195C248.199 222.555 248.604 222.04 249.184 221.65C249.774 221.25 250.479 221.05 251.299 221.05ZM23.325 239.05C23.965 239.05 24.52 239.175 24.99 239.425C25.47 239.665 25.84 240.035 26.1 240.535C26.37 241.035 26.505 241.665 26.505 242.425V247H25.44V242.53C25.44 241.7 25.24 241.075 24.84 240.655C24.45 240.225 23.895 240.01 23.175 240.01C22.635 240.01 22.165 240.125 21.765 240.355C21.375 240.575 21.07 240.9 20.85 241.33C20.64 241.75 20.535 242.26 20.535 242.86V247H19.47V242.53C19.47 241.7 19.27 241.075 18.87 240.655C18.47 240.225 17.91 240.01 17.19 240.01C16.66 240.01 16.195 240.125 15.795 240.355C15.395 240.575 15.085 240.9 14.865 241.33C14.655 241.75 14.55 242.26 14.55 242.86V247H13.485V239.125H14.505V241.255L14.34 240.88C14.58 240.31 14.965 239.865 15.495 239.545C16.035 239.215 16.67 239.05 17.4 239.05C18.17 239.05 18.825 239.245 19.365 239.635C19.905 240.015 20.255 240.59 20.415 241.36L19.995 241.195C20.225 240.555 20.63 240.04 21.21 239.65C21.8 239.25 22.505 239.05 23.325 239.05ZM34.3282 247V245.26L34.2832 244.975V242.065C34.2832 241.395 34.0932 240.88 33.7132 240.52C33.3432 240.16 32.7882 239.98 32.0482 239.98C31.5382 239.98 31.0532 240.065 30.5932 240.235C30.1332 240.405 29.7432 240.63 29.4232 240.91L28.9432 240.115C29.3432 239.775 29.8232 239.515 30.3832 239.335C30.9432 239.145 31.5332 239.05 32.1532 239.05C33.1732 239.05 33.9582 239.305 34.5082 239.815C35.0682 240.315 35.3482 241.08 35.3482 242.11V247H34.3282ZM31.6132 247.075C31.0232 247.075 30.5082 246.98 30.0682 246.79C29.6382 246.59 29.3082 246.32 29.0782 245.98C28.8482 245.63 28.7332 245.23 28.7332 244.78C28.7332 244.37 28.8282 244 29.0182 243.67C29.2182 243.33 29.5382 243.06 29.9782 242.86C30.4282 242.65 31.0282 242.545 31.7782 242.545H34.4932V243.34H31.8082C31.0482 243.34 30.5182 243.475 30.2182 243.745C29.9282 244.015 29.7832 244.35 29.7832 244.75C29.7832 245.2 29.9582 245.56 30.3082 245.83C30.6582 246.1 31.1482 246.235 31.7782 246.235C32.3782 246.235 32.8932 246.1 33.3232 245.83C33.7632 245.55 34.0832 245.15 34.2832 244.63L34.5232 245.365C34.3232 245.885 33.9732 246.3 33.4732 246.61C32.9832 246.92 32.3632 247.075 31.6132 247.075ZM40.7309 247.075C39.9909 247.075 39.4209 246.875 39.0209 246.475C38.6209 246.075 38.4209 245.51 38.4209 244.78V237.385H39.4859V244.72C39.4859 245.18 39.6009 245.535 39.8309 245.785C40.0709 246.035 40.4109 246.16 40.8509 246.16C41.3209 246.16 41.7109 246.025 42.0209 245.755L42.3959 246.52C42.1859 246.71 41.9309 246.85 41.6309 246.94C41.3409 247.03 41.0409 247.075 40.7309 247.075ZM37.0109 240.01V239.125H41.8859V240.01H37.0109ZM47.4013 247.075C46.5813 247.075 45.8613 246.905 45.2413 246.565C44.6213 246.215 44.1363 245.74 43.7863 245.14C43.4363 244.53 43.2613 243.835 43.2613 243.055C43.2613 242.275 43.4263 241.585 43.7563 240.985C44.0963 240.385 44.5563 239.915 45.1363 239.575C45.7263 239.225 46.3863 239.05 47.1163 239.05C47.8563 239.05 48.5113 239.22 49.0813 239.56C49.6613 239.89 50.1163 240.36 50.4463 240.97C50.7763 241.57 50.9413 242.265 50.9413 243.055C50.9413 243.105 50.9363 243.16 50.9263 243.22C50.9263 243.27 50.9263 243.325 50.9263 243.385H44.0713V242.59H50.3563L49.9363 242.905C49.9363 242.335 49.8113 241.83 49.5613 241.39C49.3213 240.94 48.9913 240.59 48.5713 240.34C48.1513 240.09 47.6663 239.965 47.1163 239.965C46.5763 239.965 46.0913 240.09 45.6613 240.34C45.2313 240.59 44.8963 240.94 44.6563 241.39C44.4163 241.84 44.2963 242.355 44.2963 242.935V243.1C44.2963 243.7 44.4263 244.23 44.6863 244.69C44.9563 245.14 45.3263 245.495 45.7963 245.755C46.2763 246.005 46.8213 246.13 47.4313 246.13C47.9113 246.13 48.3563 246.045 48.7663 245.875C49.1863 245.705 49.5463 245.445 49.8463 245.095L50.4463 245.785C50.0963 246.205 49.6563 246.525 49.1263 246.745C48.6063 246.965 48.0313 247.075 47.4013 247.075ZM53.109 247V239.125H54.129V241.27L54.024 240.895C54.244 240.295 54.614 239.84 55.134 239.53C55.654 239.21 56.299 239.05 57.069 239.05V240.085C57.029 240.085 56.989 240.085 56.949 240.085C56.909 240.075 56.869 240.07 56.829 240.07C55.999 240.07 55.349 240.325 54.879 240.835C54.409 241.335 54.174 242.05 54.174 242.98V247H53.109ZM59.0123 247V239.125H60.0773V247H59.0123ZM59.5523 237.385C59.3323 237.385 59.1473 237.31 58.9973 237.16C58.8473 237.01 58.7723 236.83 58.7723 236.62C58.7723 236.41 58.8473 236.235 58.9973 236.095C59.1473 235.945 59.3323 235.87 59.5523 235.87C59.7723 235.87 59.9573 235.94 60.1073 236.08C60.2573 236.22 60.3323 236.395 60.3323 236.605C60.3323 236.825 60.2573 237.01 60.1073 237.16C59.9673 237.31 59.7823 237.385 59.5523 237.385ZM67.9757 247V245.26L67.9307 244.975V242.065C67.9307 241.395 67.7407 240.88 67.3607 240.52C66.9907 240.16 66.4357 239.98 65.6957 239.98C65.1857 239.98 64.7007 240.065 64.2407 240.235C63.7807 240.405 63.3907 240.63 63.0707 240.91L62.5907 240.115C62.9907 239.775 63.4707 239.515 64.0307 239.335C64.5907 239.145 65.1807 239.05 65.8007 239.05C66.8207 239.05 67.6057 239.305 68.1557 239.815C68.7157 240.315 68.9957 241.08 68.9957 242.11V247H67.9757ZM65.2607 247.075C64.6707 247.075 64.1557 246.98 63.7157 246.79C63.2857 246.59 62.9557 246.32 62.7257 245.98C62.4957 245.63 62.3807 245.23 62.3807 244.78C62.3807 244.37 62.4757 244 62.6657 243.67C62.8657 243.33 63.1857 243.06 63.6257 242.86C64.0757 242.65 64.6757 242.545 65.4257 242.545H68.1407V243.34H65.4557C64.6957 243.34 64.1657 243.475 63.8657 243.745C63.5757 244.015 63.4307 244.35 63.4307 244.75C63.4307 245.2 63.6057 245.56 63.9557 245.83C64.3057 246.1 64.7957 246.235 65.4257 246.235C66.0257 246.235 66.5407 246.1 66.9707 245.83C67.4107 245.55 67.7307 245.15 67.9307 244.63L68.1707 245.365C67.9707 245.885 67.6207 246.3 67.1207 246.61C66.6307 246.92 66.0107 247.075 65.2607 247.075ZM71.8883 247V235.87H72.9533V247H71.8883ZM78.0316 247.075C77.3816 247.075 76.7666 246.985 76.1866 246.805C75.6066 246.615 75.1516 246.38 74.8216 246.1L75.3016 245.26C75.6216 245.5 76.0316 245.71 76.5316 245.89C77.0316 246.06 77.5566 246.145 78.1066 246.145C78.8566 246.145 79.3966 246.03 79.7266 245.8C80.0566 245.56 80.2216 245.245 80.2216 244.855C80.2216 244.565 80.1266 244.34 79.9366 244.18C79.7566 244.01 79.5166 243.885 79.2166 243.805C78.9166 243.715 78.5816 243.64 78.2116 243.58C77.8416 243.52 77.4716 243.45 77.1016 243.37C76.7416 243.29 76.4116 243.175 76.1116 243.025C75.8116 242.865 75.5666 242.65 75.3766 242.38C75.1966 242.11 75.1066 241.75 75.1066 241.3C75.1066 240.87 75.2266 240.485 75.4666 240.145C75.7066 239.805 76.0566 239.54 76.5166 239.35C76.9866 239.15 77.5566 239.05 78.2266 239.05C78.7366 239.05 79.2466 239.12 79.7566 239.26C80.2666 239.39 80.6866 239.565 81.0166 239.785L80.5516 240.64C80.2016 240.4 79.8266 240.23 79.4266 240.13C79.0266 240.02 78.6266 239.965 78.2266 239.965C77.5166 239.965 76.9916 240.09 76.6516 240.34C76.3216 240.58 76.1566 240.89 76.1566 241.27C76.1566 241.57 76.2466 241.805 76.4266 241.975C76.6166 242.145 76.8616 242.28 77.1616 242.38C77.4716 242.47 77.8066 242.545 78.1666 242.605C78.5366 242.665 78.9016 242.74 79.2616 242.83C79.6316 242.91 79.9666 243.025 80.2666 243.175C80.5766 243.315 80.8216 243.52 81.0016 243.79C81.1916 244.05 81.2866 244.395 81.2866 244.825C81.2866 245.285 81.1566 245.685 80.8966 246.025C80.6466 246.355 80.2766 246.615 79.7866 246.805C79.3066 246.985 78.7216 247.075 78.0316 247.075ZM86.5216 249.19L87.1816 246.415L87.3016 247.06C87.0716 247.06 86.8766 246.985 86.7166 246.835C86.5666 246.685 86.4916 246.49 86.4916 246.25C86.4916 246.01 86.5666 245.815 86.7166 245.665C86.8766 245.515 87.0666 245.44 87.2866 245.44C87.5166 245.44 87.7016 245.52 87.8416 245.68C87.9916 245.84 88.0666 246.03 88.0666 246.25C88.0666 246.33 88.0616 246.41 88.0516 246.49C88.0416 246.57 88.0216 246.66 87.9916 246.76C87.9616 246.86 87.9216 246.98 87.8716 247.12L87.2416 249.19H86.5216ZM92.8161 247L97.6161 236.5H98.7111L103.511 247H102.341L97.9311 237.145H98.3811L93.9711 247H92.8161ZM94.7061 244.195L95.0361 243.295H101.141L101.471 244.195H94.7061ZM105.248 247V236.5H106.358V247H105.248ZM116.835 249.985C116.115 249.985 115.425 249.88 114.765 249.67C114.105 249.46 113.57 249.16 113.16 248.77L113.7 247.96C114.07 248.29 114.525 248.55 115.065 248.74C115.615 248.94 116.195 249.04 116.805 249.04C117.805 249.04 118.54 248.805 119.01 248.335C119.48 247.875 119.715 247.155 119.715 246.175V244.21L119.865 242.86L119.76 241.51V239.125H120.78V246.04C120.78 247.4 120.445 248.395 119.775 249.025C119.115 249.665 118.135 249.985 116.835 249.985ZM116.64 246.7C115.89 246.7 115.215 246.54 114.615 246.22C114.015 245.89 113.54 245.435 113.19 244.855C112.85 244.275 112.68 243.61 112.68 242.86C112.68 242.11 112.85 241.45 113.19 240.88C113.54 240.3 114.015 239.85 114.615 239.53C115.215 239.21 115.89 239.05 116.64 239.05C117.34 239.05 117.97 239.195 118.53 239.485C119.09 239.775 119.535 240.205 119.865 240.775C120.195 241.345 120.36 242.04 120.36 242.86C120.36 243.68 120.195 244.375 119.865 244.945C119.535 245.515 119.09 245.95 118.53 246.25C117.97 246.55 117.34 246.7 116.64 246.7ZM116.745 245.755C117.325 245.755 117.84 245.635 118.29 245.395C118.74 245.145 119.095 244.805 119.355 244.375C119.615 243.935 119.745 243.43 119.745 242.86C119.745 242.29 119.615 241.79 119.355 241.36C119.095 240.93 118.74 240.595 118.29 240.355C117.84 240.105 117.325 239.98 116.745 239.98C116.175 239.98 115.66 240.105 115.2 240.355C114.75 240.595 114.395 240.93 114.135 241.36C113.885 241.79 113.76 242.29 113.76 242.86C113.76 243.43 113.885 243.935 114.135 244.375C114.395 244.805 114.75 245.145 115.2 245.395C115.66 245.635 116.175 245.755 116.745 245.755ZM127.089 247.075C126.269 247.075 125.549 246.905 124.929 246.565C124.309 246.215 123.824 245.74 123.474 245.14C123.124 244.53 122.949 243.835 122.949 243.055C122.949 242.275 123.114 241.585 123.444 240.985C123.784 240.385 124.244 239.915 124.824 239.575C125.414 239.225 126.074 239.05 126.804 239.05C127.544 239.05 128.199 239.22 128.769 239.56C129.349 239.89 129.804 240.36 130.134 240.97C130.464 241.57 130.629 242.265 130.629 243.055C130.629 243.105 130.624 243.16 130.614 243.22C130.614 243.27 130.614 243.325 130.614 243.385H123.759V242.59H130.044L129.624 242.905C129.624 242.335 129.499 241.83 129.249 241.39C129.009 240.94 128.679 240.59 128.259 240.34C127.839 240.09 127.354 239.965 126.804 239.965C126.264 239.965 125.779 240.09 125.349 240.34C124.919 240.59 124.584 240.94 124.344 241.39C124.104 241.84 123.984 242.355 123.984 242.935V243.1C123.984 243.7 124.114 244.23 124.374 244.69C124.644 245.14 125.014 245.495 125.484 245.755C125.964 246.005 126.509 246.13 127.119 246.13C127.599 246.13 128.044 246.045 128.454 245.875C128.874 245.705 129.234 245.445 129.534 245.095L130.134 245.785C129.784 246.205 129.344 246.525 128.814 246.745C128.294 246.965 127.719 247.075 127.089 247.075ZM136.817 239.05C137.457 239.05 138.017 239.175 138.497 239.425C138.987 239.665 139.367 240.035 139.637 240.535C139.917 241.035 140.057 241.665 140.057 242.425V247H138.992V242.53C138.992 241.7 138.782 241.075 138.362 240.655C137.952 240.225 137.372 240.01 136.622 240.01C136.062 240.01 135.572 240.125 135.152 240.355C134.742 240.575 134.422 240.9 134.192 241.33C133.972 241.75 133.862 242.26 133.862 242.86V247H132.797V239.125H133.817V241.285L133.652 240.88C133.902 240.31 134.302 239.865 134.852 239.545C135.402 239.215 136.057 239.05 136.817 239.05ZM146.278 247.075C145.458 247.075 144.738 246.905 144.118 246.565C143.498 246.215 143.013 245.74 142.663 245.14C142.313 244.53 142.138 243.835 142.138 243.055C142.138 242.275 142.303 241.585 142.633 240.985C142.973 240.385 143.433 239.915 144.013 239.575C144.603 239.225 145.263 239.05 145.993 239.05C146.733 239.05 147.388 239.22 147.958 239.56C148.538 239.89 148.993 240.36 149.323 240.97C149.653 241.57 149.818 242.265 149.818 243.055C149.818 243.105 149.813 243.16 149.803 243.22C149.803 243.27 149.803 243.325 149.803 243.385H142.948V242.59H149.233L148.813 242.905C148.813 242.335 148.688 241.83 148.438 241.39C148.198 240.94 147.868 240.59 147.448 240.34C147.028 240.09 146.543 239.965 145.993 239.965C145.453 239.965 144.968 240.09 144.538 240.34C144.108 240.59 143.773 240.94 143.533 241.39C143.293 241.84 143.173 242.355 143.173 242.935V243.1C143.173 243.7 143.303 244.23 143.563 244.69C143.833 245.14 144.203 245.495 144.673 245.755C145.153 246.005 145.698 246.13 146.308 246.13C146.788 246.13 147.233 246.045 147.643 245.875C148.063 245.705 148.423 245.445 148.723 245.095L149.323 245.785C148.973 246.205 148.533 246.525 148.003 246.745C147.483 246.965 146.908 247.075 146.278 247.075ZM151.986 247V239.125H153.006V241.27L152.901 240.895C153.121 240.295 153.491 239.84 154.011 239.53C154.531 239.21 155.176 239.05 155.946 239.05V240.085C155.906 240.085 155.866 240.085 155.826 240.085C155.786 240.075 155.746 240.07 155.706 240.07C154.876 240.07 154.226 240.325 153.756 240.835C153.286 241.335 153.051 242.05 153.051 242.98V247H151.986ZM162.238 247V245.26L162.193 244.975V242.065C162.193 241.395 162.003 240.88 161.623 240.52C161.253 240.16 160.698 239.98 159.958 239.98C159.448 239.98 158.963 240.065 158.503 240.235C158.043 240.405 157.653 240.63 157.333 240.91L156.853 240.115C157.253 239.775 157.733 239.515 158.293 239.335C158.853 239.145 159.443 239.05 160.063 239.05C161.083 239.05 161.868 239.305 162.418 239.815C162.978 240.315 163.258 241.08 163.258 242.11V247H162.238ZM159.523 247.075C158.933 247.075 158.418 246.98 157.978 246.79C157.548 246.59 157.218 246.32 156.988 245.98C156.758 245.63 156.643 245.23 156.643 244.78C156.643 244.37 156.738 244 156.928 243.67C157.128 243.33 157.448 243.06 157.888 242.86C158.338 242.65 158.938 242.545 159.688 242.545H162.403V243.34H159.718C158.958 243.34 158.428 243.475 158.128 243.745C157.838 244.015 157.693 244.35 157.693 244.75C157.693 245.2 157.868 245.56 158.218 245.83C158.568 246.1 159.058 246.235 159.688 246.235C160.288 246.235 160.803 246.1 161.233 245.83C161.673 245.55 161.993 245.15 162.193 244.63L162.433 245.365C162.233 245.885 161.883 246.3 161.383 246.61C160.893 246.92 160.273 247.075 159.523 247.075ZM168.641 247.075C167.901 247.075 167.331 246.875 166.931 246.475C166.531 246.075 166.331 245.51 166.331 244.78V237.385H167.396V244.72C167.396 245.18 167.511 245.535 167.741 245.785C167.981 246.035 168.321 246.16 168.761 246.16C169.231 246.16 169.621 246.025 169.931 245.755L170.306 246.52C170.096 246.71 169.841 246.85 169.541 246.94C169.251 247.03 168.951 247.075 168.641 247.075ZM164.921 240.01V239.125H169.796V240.01H164.921ZM175.311 247.075C174.491 247.075 173.771 246.905 173.151 246.565C172.531 246.215 172.046 245.74 171.696 245.14C171.346 244.53 171.171 243.835 171.171 243.055C171.171 242.275 171.336 241.585 171.666 240.985C172.006 240.385 172.466 239.915 173.046 239.575C173.636 239.225 174.296 239.05 175.026 239.05C175.766 239.05 176.421 239.22 176.991 239.56C177.571 239.89 178.026 240.36 178.356 240.97C178.686 241.57 178.851 242.265 178.851 243.055C178.851 243.105 178.846 243.16 178.836 243.22C178.836 243.27 178.836 243.325 178.836 243.385H171.981V242.59H178.266L177.846 242.905C177.846 242.335 177.721 241.83 177.471 241.39C177.231 240.94 176.901 240.59 176.481 240.34C176.061 240.09 175.576 239.965 175.026 239.965C174.486 239.965 174.001 240.09 173.571 240.34C173.141 240.59 172.806 240.94 172.566 241.39C172.326 241.84 172.206 242.355 172.206 242.935V243.1C172.206 243.7 172.336 244.23 172.596 244.69C172.866 245.14 173.236 245.495 173.706 245.755C174.186 246.005 174.731 246.13 175.341 246.13C175.821 246.13 176.266 246.045 176.676 245.875C177.096 245.705 177.456 245.445 177.756 245.095L178.356 245.785C178.006 246.205 177.566 246.525 177.036 246.745C176.516 246.965 175.941 247.075 175.311 247.075ZM183.134 247.075C182.484 247.075 181.869 246.985 181.289 246.805C180.709 246.615 180.254 246.38 179.924 246.1L180.404 245.26C180.724 245.5 181.134 245.71 181.634 245.89C182.134 246.06 182.659 246.145 183.209 246.145C183.959 246.145 184.499 246.03 184.829 245.8C185.159 245.56 185.324 245.245 185.324 244.855C185.324 244.565 185.229 244.34 185.039 244.18C184.859 244.01 184.619 243.885 184.319 243.805C184.019 243.715 183.684 243.64 183.314 243.58C182.944 243.52 182.574 243.45 182.204 243.37C181.844 243.29 181.514 243.175 181.214 243.025C180.914 242.865 180.669 242.65 180.479 242.38C180.299 242.11 180.209 241.75 180.209 241.3C180.209 240.87 180.329 240.485 180.569 240.145C180.809 239.805 181.159 239.54 181.619 239.35C182.089 239.15 182.659 239.05 183.329 239.05C183.839 239.05 184.349 239.12 184.859 239.26C185.369 239.39 185.789 239.565 186.119 239.785L185.654 240.64C185.304 240.4 184.929 240.23 184.529 240.13C184.129 240.02 183.729 239.965 183.329 239.965C182.619 239.965 182.094 240.09 181.754 240.34C181.424 240.58 181.259 240.89 181.259 241.27C181.259 241.57 181.349 241.805 181.529 241.975C181.719 242.145 181.964 242.28 182.264 242.38C182.574 242.47 182.909 242.545 183.269 242.605C183.639 242.665 184.004 242.74 184.364 242.83C184.734 242.91 185.069 243.025 185.369 243.175C185.679 243.315 185.924 243.52 186.104 243.79C186.294 244.05 186.389 244.395 186.389 244.825C186.389 245.285 186.259 245.685 185.999 246.025C185.749 246.355 185.379 246.615 184.889 246.805C184.409 246.985 183.824 247.075 183.134 247.075ZM195.404 247.075C194.654 247.075 193.979 246.905 193.379 246.565C192.789 246.225 192.324 245.755 191.984 245.155C191.644 244.555 191.474 243.855 191.474 243.055C191.474 242.265 191.644 241.57 191.984 240.97C192.324 240.36 192.789 239.89 193.379 239.56C193.979 239.22 194.654 239.05 195.404 239.05C196.104 239.05 196.724 239.205 197.264 239.515C197.814 239.825 198.249 240.28 198.569 240.88C198.889 241.47 199.049 242.195 199.049 243.055C199.049 243.915 198.884 244.645 198.554 245.245C198.234 245.835 197.799 246.29 197.249 246.61C196.709 246.92 196.094 247.075 195.404 247.075ZM195.479 246.13C196.039 246.13 196.539 246.005 196.979 245.755C197.429 245.495 197.779 245.135 198.029 244.675C198.289 244.205 198.419 243.665 198.419 243.055C198.419 242.445 198.289 241.91 198.029 241.45C197.779 240.99 197.429 240.63 196.979 240.37C196.539 240.11 196.039 239.98 195.479 239.98C194.929 239.98 194.434 240.11 193.994 240.37C193.554 240.63 193.204 240.99 192.944 241.45C192.684 241.91 192.554 242.445 192.554 243.055C192.554 243.665 192.684 244.205 192.944 244.675C193.204 245.135 193.554 245.495 193.994 245.755C194.434 246.005 194.929 246.13 195.479 246.13ZM198.404 249.91V244.66L198.554 243.07L198.449 241.495V239.125H199.469V249.91H198.404ZM205.69 247.075C205.02 247.075 204.435 246.95 203.935 246.7C203.435 246.45 203.045 246.075 202.765 245.575C202.495 245.075 202.36 244.45 202.36 243.7V239.125H203.425V243.58C203.425 244.42 203.63 245.055 204.04 245.485C204.46 245.905 205.045 246.115 205.795 246.115C206.345 246.115 206.82 246.005 207.22 245.785C207.63 245.555 207.94 245.225 208.15 244.795C208.37 244.365 208.48 243.85 208.48 243.25V239.125H209.545V247H208.525V244.84L208.69 245.23C208.44 245.81 208.05 246.265 207.52 246.595C207 246.915 206.39 247.075 205.69 247.075ZM215.858 247.075C215.038 247.075 214.318 246.905 213.698 246.565C213.078 246.215 212.593 245.74 212.243 245.14C211.893 244.53 211.718 243.835 211.718 243.055C211.718 242.275 211.883 241.585 212.213 240.985C212.553 240.385 213.013 239.915 213.593 239.575C214.183 239.225 214.843 239.05 215.573 239.05C216.313 239.05 216.968 239.22 217.538 239.56C218.118 239.89 218.573 240.36 218.903 240.97C219.233 241.57 219.398 242.265 219.398 243.055C219.398 243.105 219.393 243.16 219.383 243.22C219.383 243.27 219.383 243.325 219.383 243.385H212.528V242.59H218.813L218.393 242.905C218.393 242.335 218.268 241.83 218.018 241.39C217.778 240.94 217.448 240.59 217.028 240.34C216.608 240.09 216.123 239.965 215.573 239.965C215.033 239.965 214.548 240.09 214.118 240.34C213.688 240.59 213.353 240.94 213.113 241.39C212.873 241.84 212.753 242.355 212.753 242.935V243.1C212.753 243.7 212.883 244.23 213.143 244.69C213.413 245.14 213.783 245.495 214.253 245.755C214.733 246.005 215.278 246.13 215.888 246.13C216.368 246.13 216.813 246.045 217.223 245.875C217.643 245.705 218.003 245.445 218.303 245.095L218.903 245.785C218.553 246.205 218.113 246.525 217.583 246.745C217.063 246.965 216.488 247.075 215.858 247.075ZM223.681 247.075C223.031 247.075 222.416 246.985 221.836 246.805C221.256 246.615 220.801 246.38 220.471 246.1L220.951 245.26C221.271 245.5 221.681 245.71 222.181 245.89C222.681 246.06 223.206 246.145 223.756 246.145C224.506 246.145 225.046 246.03 225.376 245.8C225.706 245.56 225.871 245.245 225.871 244.855C225.871 244.565 225.776 244.34 225.586 244.18C225.406 244.01 225.166 243.885 224.866 243.805C224.566 243.715 224.231 243.64 223.861 243.58C223.491 243.52 223.121 243.45 222.751 243.37C222.391 243.29 222.061 243.175 221.761 243.025C221.461 242.865 221.216 242.65 221.026 242.38C220.846 242.11 220.756 241.75 220.756 241.3C220.756 240.87 220.876 240.485 221.116 240.145C221.356 239.805 221.706 239.54 222.166 239.35C222.636 239.15 223.206 239.05 223.876 239.05C224.386 239.05 224.896 239.12 225.406 239.26C225.916 239.39 226.336 239.565 226.666 239.785L226.201 240.64C225.851 240.4 225.476 240.23 225.076 240.13C224.676 240.02 224.276 239.965 223.876 239.965C223.166 239.965 222.641 240.09 222.301 240.34C221.971 240.58 221.806 240.89 221.806 241.27C221.806 241.57 221.896 241.805 222.076 241.975C222.266 242.145 222.511 242.28 222.811 242.38C223.121 242.47 223.456 242.545 223.816 242.605C224.186 242.665 224.551 242.74 224.911 242.83C225.281 242.91 225.616 243.025 225.916 243.175C226.226 243.315 226.471 243.52 226.651 243.79C226.841 244.05 226.936 244.395 226.936 244.825C226.936 245.285 226.806 245.685 226.546 246.025C226.296 246.355 225.926 246.615 225.436 246.805C224.956 246.985 224.371 247.075 223.681 247.075ZM231.38 247.075C230.64 247.075 230.07 246.875 229.67 246.475C229.27 246.075 229.07 245.51 229.07 244.78V237.385H230.135V244.72C230.135 245.18 230.25 245.535 230.48 245.785C230.72 246.035 231.06 246.16 231.5 246.16C231.97 246.16 232.36 246.025 232.67 245.755L233.045 246.52C232.835 246.71 232.58 246.85 232.28 246.94C231.99 247.03 231.69 247.075 231.38 247.075ZM227.66 240.01V239.125H232.535V240.01H227.66ZM234.984 247V239.125H236.049V247H234.984ZM235.524 237.385C235.304 237.385 235.119 237.31 234.969 237.16C234.819 237.01 234.744 236.83 234.744 236.62C234.744 236.41 234.819 236.235 234.969 236.095C235.119 235.945 235.304 235.87 235.524 235.87C235.744 235.87 235.929 235.94 236.079 236.08C236.229 236.22 236.304 236.395 236.304 236.605C236.304 236.825 236.229 237.01 236.079 237.16C235.939 237.31 235.754 237.385 235.524 237.385ZM242.222 247.075C241.462 247.075 240.777 246.905 240.167 246.565C239.567 246.215 239.092 245.74 238.742 245.14C238.392 244.53 238.217 243.835 238.217 243.055C238.217 242.265 238.392 241.57 238.742 240.97C239.092 240.37 239.567 239.9 240.167 239.56C240.767 239.22 241.452 239.05 242.222 239.05C243.002 239.05 243.692 239.22 244.292 239.56C244.902 239.9 245.377 240.37 245.717 240.97C246.067 241.57 246.242 242.265 246.242 243.055C246.242 243.835 246.067 244.53 245.717 245.14C245.377 245.74 244.902 246.215 244.292 246.565C243.682 246.905 242.992 247.075 242.222 247.075ZM242.222 246.13C242.792 246.13 243.297 246.005 243.737 245.755C244.177 245.495 244.522 245.135 244.772 244.675C245.032 244.205 245.162 243.665 245.162 243.055C245.162 242.435 245.032 241.895 244.772 241.435C244.522 240.975 244.177 240.62 243.737 240.37C243.297 240.11 242.797 239.98 242.237 239.98C241.677 239.98 241.177 240.11 240.737 240.37C240.297 240.62 239.947 240.975 239.687 241.435C239.427 241.895 239.297 242.435 239.297 243.055C239.297 243.665 239.427 244.205 239.687 244.675C239.947 245.135 240.297 245.495 240.737 245.755C241.177 246.005 241.672 246.13 242.222 246.13ZM252.437 239.05C253.077 239.05 253.637 239.175 254.117 239.425C254.607 239.665 254.987 240.035 255.257 240.535C255.537 241.035 255.677 241.665 255.677 242.425V247H254.612V242.53C254.612 241.7 254.402 241.075 253.982 240.655C253.572 240.225 252.992 240.01 252.242 240.01C251.682 240.01 251.192 240.125 250.772 240.355C250.362 240.575 250.042 240.9 249.812 241.33C249.592 241.75 249.482 242.26 249.482 242.86V247H248.417V239.125H249.437V241.285L249.272 240.88C249.522 240.31 249.922 239.865 250.472 239.545C251.022 239.215 251.677 239.05 252.437 239.05ZM260.668 247.075C260.018 247.075 259.403 246.985 258.823 246.805C258.243 246.615 257.788 246.38 257.458 246.1L257.938 245.26C258.258 245.5 258.668 245.71 259.168 245.89C259.668 246.06 260.193 246.145 260.743 246.145C261.493 246.145 262.033 246.03 262.363 245.8C262.693 245.56 262.858 245.245 262.858 244.855C262.858 244.565 262.763 244.34 262.573 244.18C262.393 244.01 262.153 243.885 261.853 243.805C261.553 243.715 261.218 243.64 260.848 243.58C260.478 243.52 260.108 243.45 259.738 243.37C259.378 243.29 259.048 243.175 258.748 243.025C258.448 242.865 258.203 242.65 258.013 242.38C257.833 242.11 257.743 241.75 257.743 241.3C257.743 240.87 257.863 240.485 258.103 240.145C258.343 239.805 258.693 239.54 259.153 239.35C259.623 239.15 260.193 239.05 260.863 239.05C261.373 239.05 261.883 239.12 262.393 239.26C262.903 239.39 263.323 239.565 263.653 239.785L263.188 240.64C262.838 240.4 262.463 240.23 262.063 240.13C261.663 240.02 261.263 239.965 260.863 239.965C260.153 239.965 259.628 240.09 259.288 240.34C258.958 240.58 258.793 240.89 258.793 241.27C258.793 241.57 258.883 241.805 259.063 241.975C259.253 242.145 259.498 242.28 259.798 242.38C260.108 242.47 260.443 242.545 260.803 242.605C261.173 242.665 261.538 242.74 261.898 242.83C262.268 242.91 262.603 243.025 262.903 243.175C263.213 243.315 263.458 243.52 263.638 243.79C263.828 244.05 263.923 244.395 263.923 244.825C263.923 245.285 263.793 245.685 263.533 246.025C263.283 246.355 262.913 246.615 262.423 246.805C261.943 246.985 261.358 247.075 260.668 247.075ZM15.975 265.075C15.235 265.075 14.665 264.875 14.265 264.475C13.865 264.075 13.665 263.51 13.665 262.78V255.385H14.73V262.72C14.73 263.18 14.845 263.535 15.075 263.785C15.315 264.035 15.655 264.16 16.095 264.16C16.565 264.16 16.955 264.025 17.265 263.755L17.64 264.52C17.43 264.71 17.175 264.85 16.875 264.94C16.585 265.03 16.285 265.075 15.975 265.075ZM12.255 258.01V257.125H17.13V258.01H12.255ZM24.5138 265V263.26L24.4688 262.975V260.065C24.4688 259.395 24.2788 258.88 23.8988 258.52C23.5288 258.16 22.9738 257.98 22.2338 257.98C21.7238 257.98 21.2388 258.065 20.7788 258.235C20.3188 258.405 19.9288 258.63 19.6088 258.91L19.1288 258.115C19.5288 257.775 20.0088 257.515 20.5688 257.335C21.1288 257.145 21.7188 257.05 22.3388 257.05C23.3588 257.05 24.1438 257.305 24.6938 257.815C25.2538 258.315 25.5338 259.08 25.5338 260.11V265H24.5138ZM21.7988 265.075C21.2088 265.075 20.6938 264.98 20.2538 264.79C19.8238 264.59 19.4938 264.32 19.2638 263.98C19.0338 263.63 18.9188 263.23 18.9188 262.78C18.9188 262.37 19.0138 262 19.2038 261.67C19.4038 261.33 19.7238 261.06 20.1638 260.86C20.6138 260.65 21.2138 260.545 21.9638 260.545H24.6788V261.34H21.9938C21.2338 261.34 20.7038 261.475 20.4038 261.745C20.1138 262.015 19.9688 262.35 19.9688 262.75C19.9688 263.2 20.1438 263.56 20.4938 263.83C20.8438 264.1 21.3338 264.235 21.9638 264.235C22.5638 264.235 23.0788 264.1 23.5088 263.83C23.9488 263.55 24.2688 263.15 24.4688 262.63L24.7088 263.365C24.5088 263.885 24.1588 264.3 23.6588 264.61C23.1688 264.92 22.5488 265.075 21.7988 265.075ZM28.4264 265V257.125H29.4914V265H28.4264ZM28.9664 255.385C28.7464 255.385 28.5614 255.31 28.4114 255.16C28.2614 255.01 28.1864 254.83 28.1864 254.62C28.1864 254.41 28.2614 254.235 28.4114 254.095C28.5614 253.945 28.7464 253.87 28.9664 253.87C29.1864 253.87 29.3714 253.94 29.5214 254.08C29.6714 254.22 29.7464 254.395 29.7464 254.605C29.7464 254.825 29.6714 255.01 29.5214 255.16C29.3814 255.31 29.1964 255.385 28.9664 255.385ZM32.4547 265V253.87H33.5197V265H32.4547ZM39.693 265.075C38.933 265.075 38.248 264.905 37.638 264.565C37.038 264.215 36.563 263.74 36.213 263.14C35.863 262.53 35.688 261.835 35.688 261.055C35.688 260.265 35.863 259.57 36.213 258.97C36.563 258.37 37.038 257.9 37.638 257.56C38.238 257.22 38.923 257.05 39.693 257.05C40.473 257.05 41.163 257.22 41.763 257.56C42.373 257.9 42.848 258.37 43.188 258.97C43.538 259.57 43.713 260.265 43.713 261.055C43.713 261.835 43.538 262.53 43.188 263.14C42.848 263.74 42.373 264.215 41.763 264.565C41.153 264.905 40.463 265.075 39.693 265.075ZM39.693 264.13C40.263 264.13 40.768 264.005 41.208 263.755C41.648 263.495 41.993 263.135 42.243 262.675C42.503 262.205 42.633 261.665 42.633 261.055C42.633 260.435 42.503 259.895 42.243 259.435C41.993 258.975 41.648 258.62 41.208 258.37C40.768 258.11 40.268 257.98 39.708 257.98C39.148 257.98 38.648 258.11 38.208 258.37C37.768 258.62 37.418 258.975 37.158 259.435C36.898 259.895 36.768 260.435 36.768 261.055C36.768 261.665 36.898 262.205 37.158 262.675C37.418 263.135 37.768 263.495 38.208 263.755C38.648 264.005 39.143 264.13 39.693 264.13ZM45.8873 265V257.125H46.9073V259.27L46.8023 258.895C47.0223 258.295 47.3923 257.84 47.9123 257.53C48.4323 257.21 49.0773 257.05 49.8473 257.05V258.085C49.8073 258.085 49.7673 258.085 49.7273 258.085C49.6873 258.075 49.6473 258.07 49.6073 258.07C48.7773 258.07 48.1273 258.325 47.6573 258.835C47.1873 259.335 46.9523 260.05 46.9523 260.98V265H45.8873ZM55.0624 265.075C54.2424 265.075 53.5224 264.905 52.9024 264.565C52.2824 264.215 51.7974 263.74 51.4474 263.14C51.0974 262.53 50.9224 261.835 50.9224 261.055C50.9224 260.275 51.0874 259.585 51.4174 258.985C51.7574 258.385 52.2174 257.915 52.7974 257.575C53.3874 257.225 54.0474 257.05 54.7774 257.05C55.5174 257.05 56.1724 257.22 56.7424 257.56C57.3224 257.89 57.7774 258.36 58.1074 258.97C58.4374 259.57 58.6024 260.265 58.6024 261.055C58.6024 261.105 58.5974 261.16 58.5874 261.22C58.5874 261.27 58.5874 261.325 58.5874 261.385H51.7324V260.59H58.0174L57.5974 260.905C57.5974 260.335 57.4724 259.83 57.2224 259.39C56.9824 258.94 56.6524 258.59 56.2324 258.34C55.8124 258.09 55.3274 257.965 54.7774 257.965C54.2374 257.965 53.7524 258.09 53.3224 258.34C52.8924 258.59 52.5574 258.94 52.3174 259.39C52.0774 259.84 51.9574 260.355 51.9574 260.935V261.1C51.9574 261.7 52.0874 262.23 52.3474 262.69C52.6174 263.14 52.9874 263.495 53.4574 263.755C53.9374 264.005 54.4824 264.13 55.0924 264.13C55.5724 264.13 56.0174 264.045 56.4274 263.875C56.8474 263.705 57.2074 263.445 57.5074 263.095L58.1074 263.785C57.7574 264.205 57.3174 264.525 56.7874 264.745C56.2674 264.965 55.6924 265.075 55.0624 265.075ZM63.9052 265.075C63.1552 265.075 62.4802 264.905 61.8802 264.565C61.2902 264.225 60.8252 263.755 60.4852 263.155C60.1452 262.545 59.9752 261.845 59.9752 261.055C59.9752 260.255 60.1452 259.555 60.4852 258.955C60.8252 258.355 61.2902 257.89 61.8802 257.56C62.4802 257.22 63.1552 257.05 63.9052 257.05C64.5952 257.05 65.2102 257.205 65.7502 257.515C66.3002 257.825 66.7352 258.28 67.0552 258.88C67.3852 259.47 67.5502 260.195 67.5502 261.055C67.5502 261.905 67.3902 262.63 67.0702 263.23C66.7502 263.83 66.3152 264.29 65.7652 264.61C65.2252 264.92 64.6052 265.075 63.9052 265.075ZM63.9802 264.13C64.5402 264.13 65.0402 264.005 65.4802 263.755C65.9302 263.495 66.2802 263.135 66.5302 262.675C66.7902 262.205 66.9202 261.665 66.9202 261.055C66.9202 260.435 66.7902 259.895 66.5302 259.435C66.2802 258.975 65.9302 258.62 65.4802 258.37C65.0402 258.11 64.5402 257.98 63.9802 257.98C63.4302 257.98 62.9352 258.11 62.4952 258.37C62.0552 258.62 61.7052 258.975 61.4452 259.435C61.1852 259.895 61.0552 260.435 61.0552 261.055C61.0552 261.665 61.1852 262.205 61.4452 262.675C61.7052 263.135 62.0552 263.495 62.4952 263.755C62.9352 264.005 63.4302 264.13 63.9802 264.13ZM66.9502 265V262.63L67.0552 261.04L66.9052 259.45V253.87H67.9702V265H66.9502ZM77.352 265.075C76.612 265.075 76.042 264.875 75.642 264.475C75.242 264.075 75.042 263.51 75.042 262.78V255.385H76.107V262.72C76.107 263.18 76.222 263.535 76.452 263.785C76.692 264.035 77.032 264.16 77.472 264.16C77.942 264.16 78.332 264.025 78.642 263.755L79.017 264.52C78.807 264.71 78.552 264.85 78.252 264.94C77.962 265.03 77.662 265.075 77.352 265.075ZM73.632 258.01V257.125H78.507V258.01H73.632ZM83.8874 265.075C83.1274 265.075 82.4424 264.905 81.8324 264.565C81.2324 264.215 80.7574 263.74 80.4074 263.14C80.0574 262.53 79.8824 261.835 79.8824 261.055C79.8824 260.265 80.0574 259.57 80.4074 258.97C80.7574 258.37 81.2324 257.9 81.8324 257.56C82.4324 257.22 83.1174 257.05 83.8874 257.05C84.6674 257.05 85.3574 257.22 85.9574 257.56C86.5674 257.9 87.0424 258.37 87.3824 258.97C87.7324 259.57 87.9074 260.265 87.9074 261.055C87.9074 261.835 87.7324 262.53 87.3824 263.14C87.0424 263.74 86.5674 264.215 85.9574 264.565C85.3474 264.905 84.6574 265.075 83.8874 265.075ZM83.8874 264.13C84.4574 264.13 84.9624 264.005 85.4024 263.755C85.8424 263.495 86.1874 263.135 86.4374 262.675C86.6974 262.205 86.8274 261.665 86.8274 261.055C86.8274 260.435 86.6974 259.895 86.4374 259.435C86.1874 258.975 85.8424 258.62 85.4024 258.37C84.9624 258.11 84.4624 257.98 83.9024 257.98C83.3424 257.98 82.8424 258.11 82.4024 258.37C81.9624 258.62 81.6124 258.975 81.3524 259.435C81.0924 259.895 80.9624 260.435 80.9624 261.055C80.9624 261.665 81.0924 262.205 81.3524 262.675C81.6124 263.135 81.9624 263.495 82.4024 263.755C82.8424 264.005 83.3374 264.13 83.8874 264.13ZM94.0675 267.985C93.6975 267.985 93.3425 267.925 93.0025 267.805C92.6725 267.685 92.3875 267.505 92.1475 267.265L92.6425 266.47C92.8425 266.66 93.0575 266.805 93.2875 266.905C93.5275 267.015 93.7925 267.07 94.0825 267.07C94.4325 267.07 94.7325 266.97 94.9825 266.77C95.2425 266.58 95.4875 266.24 95.7175 265.75L96.2275 264.595L96.3475 264.43L99.5875 257.125H100.637L96.6925 265.945C96.4725 266.455 96.2275 266.86 95.9575 267.16C95.6975 267.46 95.4125 267.67 95.1025 267.79C94.7925 267.92 94.4475 267.985 94.0675 267.985ZM96.1675 265.225L92.5375 257.125H93.6475L96.8575 264.355L96.1675 265.225ZM105.128 265.075C104.368 265.075 103.683 264.905 103.073 264.565C102.473 264.215 101.998 263.74 101.648 263.14C101.298 262.53 101.123 261.835 101.123 261.055C101.123 260.265 101.298 259.57 101.648 258.97C101.998 258.37 102.473 257.9 103.073 257.56C103.673 257.22 104.358 257.05 105.128 257.05C105.908 257.05 106.598 257.22 107.198 257.56C107.808 257.9 108.283 258.37 108.623 258.97C108.973 259.57 109.148 260.265 109.148 261.055C109.148 261.835 108.973 262.53 108.623 263.14C108.283 263.74 107.808 264.215 107.198 264.565C106.588 264.905 105.898 265.075 105.128 265.075ZM105.128 264.13C105.698 264.13 106.203 264.005 106.643 263.755C107.083 263.495 107.428 263.135 107.678 262.675C107.938 262.205 108.068 261.665 108.068 261.055C108.068 260.435 107.938 259.895 107.678 259.435C107.428 258.975 107.083 258.62 106.643 258.37C106.203 258.11 105.703 257.98 105.143 257.98C104.583 257.98 104.083 258.11 103.643 258.37C103.203 258.62 102.853 258.975 102.593 259.435C102.333 259.895 102.203 260.435 102.203 261.055C102.203 261.665 102.333 262.205 102.593 262.675C102.853 263.135 103.203 263.495 103.643 263.755C104.083 264.005 104.578 264.13 105.128 264.13ZM114.577 265.075C113.907 265.075 113.322 264.95 112.822 264.7C112.322 264.45 111.932 264.075 111.652 263.575C111.382 263.075 111.247 262.45 111.247 261.7V257.125H112.312V261.58C112.312 262.42 112.517 263.055 112.927 263.485C113.347 263.905 113.932 264.115 114.682 264.115C115.232 264.115 115.707 264.005 116.107 263.785C116.517 263.555 116.827 263.225 117.037 262.795C117.257 262.365 117.367 261.85 117.367 261.25V257.125H118.432V265H117.412V262.84L117.577 263.23C117.327 263.81 116.937 264.265 116.407 264.595C115.887 264.915 115.277 265.075 114.577 265.075ZM121.4 265V257.125H122.42V259.27L122.315 258.895C122.535 258.295 122.905 257.84 123.425 257.53C123.945 257.21 124.59 257.05 125.36 257.05V258.085C125.32 258.085 125.28 258.085 125.24 258.085C125.2 258.075 125.16 258.07 125.12 258.07C124.29 258.07 123.64 258.325 123.17 258.835C122.7 259.335 122.465 260.05 122.465 260.98V265H121.4ZM133.461 265.075C132.811 265.075 132.196 264.985 131.616 264.805C131.036 264.615 130.581 264.38 130.251 264.1L130.731 263.26C131.051 263.5 131.461 263.71 131.961 263.89C132.461 264.06 132.986 264.145 133.536 264.145C134.286 264.145 134.826 264.03 135.156 263.8C135.486 263.56 135.651 263.245 135.651 262.855C135.651 262.565 135.556 262.34 135.366 262.18C135.186 262.01 134.946 261.885 134.646 261.805C134.346 261.715 134.011 261.64 133.641 261.58C133.271 261.52 132.901 261.45 132.531 261.37C132.171 261.29 131.841 261.175 131.541 261.025C131.241 260.865 130.996 260.65 130.806 260.38C130.626 260.11 130.536 259.75 130.536 259.3C130.536 258.87 130.656 258.485 130.896 258.145C131.136 257.805 131.486 257.54 131.946 257.35C132.416 257.15 132.986 257.05 133.656 257.05C134.166 257.05 134.676 257.12 135.186 257.26C135.696 257.39 136.116 257.565 136.446 257.785L135.981 258.64C135.631 258.4 135.256 258.23 134.856 258.13C134.456 258.02 134.056 257.965 133.656 257.965C132.946 257.965 132.421 258.09 132.081 258.34C131.751 258.58 131.586 258.89 131.586 259.27C131.586 259.57 131.676 259.805 131.856 259.975C132.046 260.145 132.291 260.28 132.591 260.38C132.901 260.47 133.236 260.545 133.596 260.605C133.966 260.665 134.331 260.74 134.691 260.83C135.061 260.91 135.396 261.025 135.696 261.175C136.006 261.315 136.251 261.52 136.431 261.79C136.621 262.05 136.716 262.395 136.716 262.825C136.716 263.285 136.586 263.685 136.326 264.025C136.076 264.355 135.706 264.615 135.216 264.805C134.736 264.985 134.151 265.075 133.461 265.075ZM142.736 265.075C142.056 265.075 141.441 264.92 140.891 264.61C140.341 264.29 139.901 263.835 139.571 263.245C139.251 262.645 139.091 261.915 139.091 261.055C139.091 260.195 139.251 259.47 139.571 258.88C139.891 258.28 140.326 257.825 140.876 257.515C141.426 257.205 142.046 257.05 142.736 257.05C143.486 257.05 144.156 257.22 144.746 257.56C145.346 257.89 145.816 258.36 146.156 258.97C146.496 259.57 146.666 260.265 146.666 261.055C146.666 261.855 146.496 262.555 146.156 263.155C145.816 263.755 145.346 264.225 144.746 264.565C144.156 264.905 143.486 265.075 142.736 265.075ZM138.671 267.91V257.125H139.691V259.495L139.586 261.07L139.736 262.66V267.91H138.671ZM142.661 264.13C143.221 264.13 143.721 264.005 144.161 263.755C144.601 263.495 144.951 263.135 145.211 262.675C145.471 262.205 145.601 261.665 145.601 261.055C145.601 260.445 145.471 259.91 145.211 259.45C144.951 258.99 144.601 258.63 144.161 258.37C143.721 258.11 143.221 257.98 142.661 257.98C142.101 257.98 141.596 258.11 141.146 258.37C140.706 258.63 140.356 258.99 140.096 259.45C139.846 259.91 139.721 260.445 139.721 261.055C139.721 261.665 139.846 262.205 140.096 262.675C140.356 263.135 140.706 263.495 141.146 263.755C141.596 264.005 142.101 264.13 142.661 264.13ZM152.182 265.075C151.362 265.075 150.642 264.905 150.022 264.565C149.402 264.215 148.917 263.74 148.567 263.14C148.217 262.53 148.042 261.835 148.042 261.055C148.042 260.275 148.207 259.585 148.537 258.985C148.877 258.385 149.337 257.915 149.917 257.575C150.507 257.225 151.167 257.05 151.897 257.05C152.637 257.05 153.292 257.22 153.862 257.56C154.442 257.89 154.897 258.36 155.227 258.97C155.557 259.57 155.722 260.265 155.722 261.055C155.722 261.105 155.717 261.16 155.707 261.22C155.707 261.27 155.707 261.325 155.707 261.385H148.852V260.59H155.137L154.717 260.905C154.717 260.335 154.592 259.83 154.342 259.39C154.102 258.94 153.772 258.59 153.352 258.34C152.932 258.09 152.447 257.965 151.897 257.965C151.357 257.965 150.872 258.09 150.442 258.34C150.012 258.59 149.677 258.94 149.437 259.39C149.197 259.84 149.077 260.355 149.077 260.935V261.1C149.077 261.7 149.207 262.23 149.467 262.69C149.737 263.14 150.107 263.495 150.577 263.755C151.057 264.005 151.602 264.13 152.212 264.13C152.692 264.13 153.137 264.045 153.547 263.875C153.967 263.705 154.327 263.445 154.627 263.095L155.227 263.785C154.877 264.205 154.437 264.525 153.907 264.745C153.387 264.965 152.812 265.075 152.182 265.075ZM161.159 265.075C160.379 265.075 159.679 264.905 159.059 264.565C158.449 264.215 157.969 263.74 157.619 263.14C157.269 262.53 157.094 261.835 157.094 261.055C157.094 260.265 157.269 259.57 157.619 258.97C157.969 258.37 158.449 257.9 159.059 257.56C159.679 257.22 160.379 257.05 161.159 257.05C161.829 257.05 162.434 257.18 162.974 257.44C163.514 257.7 163.939 258.09 164.249 258.61L163.454 259.15C163.184 258.75 162.849 258.455 162.449 258.265C162.049 258.075 161.614 257.98 161.144 257.98C160.584 257.98 160.079 258.11 159.629 258.37C159.179 258.62 158.824 258.975 158.564 259.435C158.304 259.895 158.174 260.435 158.174 261.055C158.174 261.675 158.304 262.215 158.564 262.675C158.824 263.135 159.179 263.495 159.629 263.755C160.079 264.005 160.584 264.13 161.144 264.13C161.614 264.13 162.049 264.035 162.449 263.845C162.849 263.655 163.184 263.365 163.454 262.975L164.249 263.515C163.939 264.025 163.514 264.415 162.974 264.685C162.434 264.945 161.829 265.075 161.159 265.075ZM166.224 265V257.125H167.289V265H166.224ZM166.764 255.385C166.544 255.385 166.359 255.31 166.209 255.16C166.059 255.01 165.984 254.83 165.984 254.62C165.984 254.41 166.059 254.235 166.209 254.095C166.359 253.945 166.544 253.87 166.764 253.87C166.984 253.87 167.169 253.94 167.319 254.08C167.469 254.22 167.544 254.395 167.544 254.605C167.544 254.825 167.469 255.01 167.319 255.16C167.179 255.31 166.994 255.385 166.764 255.385ZM170.433 265V256.135C170.433 255.435 170.638 254.87 171.048 254.44C171.458 254.01 172.048 253.795 172.818 253.795C173.118 253.795 173.408 253.835 173.688 253.915C173.968 253.995 174.203 254.12 174.393 254.29L174.033 255.085C173.883 254.955 173.708 254.86 173.508 254.8C173.308 254.73 173.093 254.695 172.863 254.695C172.413 254.695 172.068 254.82 171.828 255.07C171.588 255.32 171.468 255.69 171.468 256.18V257.38L171.498 257.875V265H170.433ZM169.023 258.01V257.125H173.898V258.01H169.023ZM175.338 265V257.125H176.403V265H175.338ZM175.878 255.385C175.658 255.385 175.473 255.31 175.323 255.16C175.173 255.01 175.098 254.83 175.098 254.62C175.098 254.41 175.173 254.235 175.323 254.095C175.473 253.945 175.658 253.87 175.878 253.87C176.098 253.87 176.283 253.94 176.433 254.08C176.583 254.22 176.658 254.395 176.658 254.605C176.658 254.825 176.583 255.01 176.433 255.16C176.293 255.31 176.108 255.385 175.878 255.385ZM182.663 265.075C181.883 265.075 181.183 264.905 180.563 264.565C179.953 264.215 179.473 263.74 179.123 263.14C178.773 262.53 178.598 261.835 178.598 261.055C178.598 260.265 178.773 259.57 179.123 258.97C179.473 258.37 179.953 257.9 180.563 257.56C181.183 257.22 181.883 257.05 182.663 257.05C183.333 257.05 183.938 257.18 184.478 257.44C185.018 257.7 185.443 258.09 185.753 258.61L184.958 259.15C184.688 258.75 184.353 258.455 183.953 258.265C183.553 258.075 183.118 257.98 182.648 257.98C182.088 257.98 181.583 258.11 181.133 258.37C180.683 258.62 180.328 258.975 180.068 259.435C179.808 259.895 179.678 260.435 179.678 261.055C179.678 261.675 179.808 262.215 180.068 262.675C180.328 263.135 180.683 263.495 181.133 263.755C181.583 264.005 182.088 264.13 182.648 264.13C183.118 264.13 183.553 264.035 183.953 263.845C184.353 263.655 184.688 263.365 184.958 262.975L185.753 263.515C185.443 264.025 185.018 264.415 184.478 264.685C183.938 264.945 183.333 265.075 182.663 265.075ZM195.041 265.075C194.261 265.075 193.561 264.905 192.941 264.565C192.331 264.215 191.851 263.74 191.501 263.14C191.151 262.53 190.976 261.835 190.976 261.055C190.976 260.265 191.151 259.57 191.501 258.97C191.851 258.37 192.331 257.9 192.941 257.56C193.561 257.22 194.261 257.05 195.041 257.05C195.711 257.05 196.316 257.18 196.856 257.44C197.396 257.7 197.821 258.09 198.131 258.61L197.336 259.15C197.066 258.75 196.731 258.455 196.331 258.265C195.931 258.075 195.496 257.98 195.026 257.98C194.466 257.98 193.961 258.11 193.511 258.37C193.061 258.62 192.706 258.975 192.446 259.435C192.186 259.895 192.056 260.435 192.056 261.055C192.056 261.675 192.186 262.215 192.446 262.675C192.706 263.135 193.061 263.495 193.511 263.755C193.961 264.005 194.466 264.13 195.026 264.13C195.496 264.13 195.931 264.035 196.331 263.845C196.731 263.655 197.066 263.365 197.336 262.975L198.131 263.515C197.821 264.025 197.396 264.415 196.856 264.685C196.316 264.945 195.711 265.075 195.041 265.075ZM203.301 265.075C202.541 265.075 201.856 264.905 201.246 264.565C200.646 264.215 200.171 263.74 199.821 263.14C199.471 262.53 199.296 261.835 199.296 261.055C199.296 260.265 199.471 259.57 199.821 258.97C200.171 258.37 200.646 257.9 201.246 257.56C201.846 257.22 202.531 257.05 203.301 257.05C204.081 257.05 204.771 257.22 205.371 257.56C205.981 257.9 206.456 258.37 206.796 258.97C207.146 259.57 207.321 260.265 207.321 261.055C207.321 261.835 207.146 262.53 206.796 263.14C206.456 263.74 205.981 264.215 205.371 264.565C204.761 264.905 204.071 265.075 203.301 265.075ZM203.301 264.13C203.871 264.13 204.376 264.005 204.816 263.755C205.256 263.495 205.601 263.135 205.851 262.675C206.111 262.205 206.241 261.665 206.241 261.055C206.241 260.435 206.111 259.895 205.851 259.435C205.601 258.975 205.256 258.62 204.816 258.37C204.376 258.11 203.876 257.98 203.316 257.98C202.756 257.98 202.256 258.11 201.816 258.37C201.376 258.62 201.026 258.975 200.766 259.435C200.506 259.895 200.376 260.435 200.376 261.055C200.376 261.665 200.506 262.205 200.766 262.675C201.026 263.135 201.376 263.495 201.816 263.755C202.256 264.005 202.751 264.13 203.301 264.13ZM213.516 257.05C214.156 257.05 214.716 257.175 215.196 257.425C215.686 257.665 216.066 258.035 216.336 258.535C216.616 259.035 216.756 259.665 216.756 260.425V265H215.691V260.53C215.691 259.7 215.481 259.075 215.061 258.655C214.651 258.225 214.071 258.01 213.321 258.01C212.761 258.01 212.271 258.125 211.851 258.355C211.441 258.575 211.121 258.9 210.891 259.33C210.671 259.75 210.561 260.26 210.561 260.86V265H209.496V257.125H210.516V259.285L210.351 258.88C210.601 258.31 211.001 257.865 211.551 257.545C212.101 257.215 212.756 257.05 213.516 257.05ZM222.122 265.075C221.382 265.075 220.812 264.875 220.412 264.475C220.012 264.075 219.812 263.51 219.812 262.78V255.385H220.877V262.72C220.877 263.18 220.992 263.535 221.222 263.785C221.462 264.035 221.802 264.16 222.242 264.16C222.712 264.16 223.102 264.025 223.412 263.755L223.787 264.52C223.577 264.71 223.322 264.85 223.022 264.94C222.732 265.03 222.432 265.075 222.122 265.075ZM218.402 258.01V257.125H223.277V258.01H218.402ZM228.793 265.075C227.973 265.075 227.253 264.905 226.633 264.565C226.013 264.215 225.528 263.74 225.178 263.14C224.828 262.53 224.653 261.835 224.653 261.055C224.653 260.275 224.818 259.585 225.148 258.985C225.488 258.385 225.948 257.915 226.528 257.575C227.118 257.225 227.778 257.05 228.508 257.05C229.248 257.05 229.903 257.22 230.473 257.56C231.053 257.89 231.508 258.36 231.838 258.97C232.168 259.57 232.333 260.265 232.333 261.055C232.333 261.105 232.328 261.16 232.318 261.22C232.318 261.27 232.318 261.325 232.318 261.385H225.463V260.59H231.748L231.328 260.905C231.328 260.335 231.203 259.83 230.953 259.39C230.713 258.94 230.383 258.59 229.963 258.34C229.543 258.09 229.058 257.965 228.508 257.965C227.968 257.965 227.483 258.09 227.053 258.34C226.623 258.59 226.288 258.94 226.048 259.39C225.808 259.84 225.688 260.355 225.688 260.935V261.1C225.688 261.7 225.818 262.23 226.078 262.69C226.348 263.14 226.718 263.495 227.188 263.755C227.668 264.005 228.213 264.13 228.823 264.13C229.303 264.13 229.748 264.045 230.158 263.875C230.578 263.705 230.938 263.445 231.238 263.095L231.838 263.785C231.488 264.205 231.048 264.525 230.518 264.745C229.998 264.965 229.423 265.075 228.793 265.075ZM238.521 257.05C239.161 257.05 239.721 257.175 240.201 257.425C240.691 257.665 241.071 258.035 241.341 258.535C241.621 259.035 241.761 259.665 241.761 260.425V265H240.696V260.53C240.696 259.7 240.486 259.075 240.066 258.655C239.656 258.225 239.076 258.01 238.326 258.01C237.766 258.01 237.276 258.125 236.856 258.355C236.446 258.575 236.126 258.9 235.896 259.33C235.676 259.75 235.566 260.26 235.566 260.86V265H234.501V257.125H235.521V259.285L235.356 258.88C235.606 258.31 236.006 257.865 236.556 257.545C237.106 257.215 237.761 257.05 238.521 257.05ZM247.127 265.075C246.387 265.075 245.817 264.875 245.417 264.475C245.017 264.075 244.817 263.51 244.817 262.78V255.385H245.882V262.72C245.882 263.18 245.997 263.535 246.227 263.785C246.467 264.035 246.807 264.16 247.247 264.16C247.717 264.16 248.107 264.025 248.417 263.755L248.792 264.52C248.582 264.71 248.327 264.85 248.027 264.94C247.737 265.03 247.437 265.075 247.127 265.075ZM243.407 258.01V257.125H248.282V258.01H243.407ZM250.983 265.075C250.763 265.075 250.573 264.995 250.413 264.835C250.263 264.675 250.188 264.48 250.188 264.25C250.188 264.01 250.263 263.815 250.413 263.665C250.573 263.515 250.763 263.44 250.983 263.44C251.203 263.44 251.388 263.515 251.538 263.665C251.698 263.815 251.778 264.01 251.778 264.25C251.778 264.48 251.698 264.675 251.538 264.835C251.388 264.995 251.203 265.075 250.983 265.075Z" fill="#434343"/>
<g clip-path="url(#clip0_469_1185)">
<g filter="url(#filter1_d_469_1185)">
<path d="M128.5 71.6333V69.2H126.2V71.6333H128.5ZM146.9 71.6333V69.2H144.6V71.6333H146.9ZM146.9 91.1H144.6V93.5333H146.9V91.1ZM179.1 57.0333H181.4V56.0259L180.728 55.3105L179.1 57.0333ZM165.3 42.4333L166.928 40.7105L166.252 40H165.3V42.4333ZM128.5 74.0667H133.1V69.2H128.5V74.0667ZM130.8 93.5333V81.3667H126.2V93.5333H130.8ZM130.8 81.3667V71.6333H126.2V81.3667H130.8ZM133.1 78.9333H128.5V83.8H133.1V78.9333ZM135.4 76.5C135.4 77.1454 135.158 77.7643 134.726 78.2206C134.295 78.677 133.71 78.9333 133.1 78.9333V83.8C134.93 83.8 136.685 83.0309 137.979 81.6619C139.273 80.2929 140 78.4361 140 76.5H135.4ZM133.1 74.0667C133.71 74.0667 134.295 74.323 134.726 74.7794C135.158 75.2357 135.4 75.8546 135.4 76.5H140C140 74.5639 139.273 72.7071 137.979 71.3381C136.685 69.9691 134.93 69.2 133.1 69.2V74.0667ZM144.6 71.6333V91.1H149.2V71.6333H144.6ZM146.9 93.5333H151.5V88.6667H146.9V93.5333ZM158.4 86.2333V76.5H153.8V86.2333H158.4ZM151.5 69.2H146.9V74.0667H151.5V69.2ZM158.4 76.5C158.4 74.5639 157.673 72.7071 156.379 71.3381C155.085 69.9691 153.33 69.2 151.5 69.2V74.0667C152.11 74.0667 152.695 74.323 153.126 74.7794C153.558 75.2357 153.8 75.8546 153.8 76.5H158.4ZM151.5 93.5333C153.33 93.5333 155.085 92.7642 156.379 91.3952C157.673 90.0262 158.4 88.1694 158.4 86.2333H153.8C153.8 86.8787 153.558 87.4976 153.126 87.954C152.695 88.4103 152.11 88.6667 151.5 88.6667V93.5333ZM163 69.2V93.5333H167.6V69.2H163ZM165.3 74.0667H176.8V69.2H165.3V74.0667ZM165.3 83.8H172.2V78.9333H165.3V83.8ZM126.2 64.3333V47.3H121.6V64.3333H126.2ZM176.8 57.0333V64.3333H181.4V57.0333H176.8ZM128.5 44.8667H165.3V40H128.5V44.8667ZM163.672 44.1561L177.472 58.7561L180.728 55.3105L166.928 40.7105L163.672 44.1561ZM126.2 47.3C126.2 46.6546 126.442 46.0357 126.874 45.5794C127.305 45.123 127.89 44.8667 128.5 44.8667V40C126.67 40 124.915 40.7691 123.621 42.1381C122.327 43.5071 121.6 45.3639 121.6 47.3H126.2ZM121.6 98.4V105.7H126.2V98.4H121.6ZM128.5 113H174.5V108.133H128.5V113ZM181.4 105.7V98.4H176.8V105.7H181.4ZM174.5 113C176.33 113 178.085 112.231 179.379 110.862C180.673 109.493 181.4 107.636 181.4 105.7H176.8C176.8 106.345 176.558 106.964 176.126 107.421C175.695 107.877 175.11 108.133 174.5 108.133V113ZM121.6 105.7C121.6 107.636 122.327 109.493 123.621 110.862C124.915 112.231 126.67 113 128.5 113V108.133C127.89 108.133 127.305 107.877 126.874 107.421C126.442 106.964 126.2 106.345 126.2 105.7H121.6Z" fill="#6362E3"/>
</g>
</g>
<defs>
<filter id="filter0_di_469_1185" x="-5" y="0" width="314" height="342" filterUnits="userSpaceOnUse" color-interpolation-filters="sRGB">
<feFlood flood-opacity="0" result="BackgroundImageFix"/>
<feColorMatrix in="SourceAlpha" type="matrix" values="0 0 0 0 0 0 0 0 0 0 0 0 0 0 0 0 0 0 127 0" result="hardAlpha"/>
<feOffset dy="4"/>
<feGaussianBlur stdDeviation="2"/>
<feComposite in2="hardAlpha" operator="out"/>
<feColorMatrix type="matrix" values="0 0 0 0 0 0 0 0 0 0 0 0 0 0 0 0 0 0 0.25 0"/>
<feBlend mode="normal" in2="BackgroundImageFix" result="effect1_dropShadow_469_1185"/>
<feBlend mode="normal" in="SourceGraphic" in2="effect1_dropShadow_469_1185" result="shape"/>
<feColorMatrix in="SourceAlpha" type="matrix" values="0 0 0 0 0 0 0 0 0 0 0 0 0 0 0 0 0 0 127 0" result="hardAlpha"/>
<feOffset dy="10"/>
<feGaussianBlur stdDeviation="3"/>
<feComposite in2="hardAlpha" operator="arithmetic" k2="-1" k3="1"/>
<feColorMatrix type="matrix" values="0 0 0 0 0 0 0 0 0 0 0 0 0 0 0 0 0 0 0.25 0"/>
<feBlend mode="normal" in2="shape" result="effect2_innerShadow_469_1185"/>
</filter>
<filter id="filter1_d_469_1185" x="115.6" y="40" width="71.8" height="85" filterUnits="userSpaceOnUse" color-interpolation-filters="sRGB">
<feFlood flood-opacity="0" result="BackgroundImageFix"/>
<feColorMatrix in="SourceAlpha" type="matrix" values="0 0 0 0 0 0 0 0 0 0 0 0 0 0 0 0 0 0 127 0" result="hardAlpha"/>
<feOffset dy="6"/>
<feGaussianBlur stdDeviation="3"/>
<feComposite in2="hardAlpha" operator="out"/>
<feColorMatrix type="matrix" values="0 0 0 0 0 0 0 0 0 0 0 0 0 0 0 0 0 0 0.25 0"/>
<feBlend mode="normal" in2="BackgroundImageFix" result="effect1_dropShadow_469_1185"/>
<feBlend mode="normal" in="SourceGraphic" in2="effect1_dropShadow_469_1185" result="shape"/>
</filter>
<clipPath id="clip0_469_1185">
<rect width="69" height="73" fill="white" transform="translate(117 40)"/>
</clipPath>
</defs>
</svg>
