<svg width="314" height="342" viewBox="0 0 314 342" fill="none" xmlns="http://www.w3.org/2000/svg">
<g filter="url(#filter0_di_87_727)">
<rect x="4" width="306" height="334" rx="29" fill="#D9D9D9"/>
</g>
<path d="M17.215 229V225.1L17.47 225.79L13.015 218.5H14.2L18.115 224.905H17.485L21.4 218.5H22.51L18.055 225.79L18.31 225.1V229H17.215ZM26.3229 229.075C25.5629 229.075 24.8779 228.905 24.2679 228.565C23.6679 228.215 23.1929 227.74 22.8429 227.14C22.4929 226.53 22.3179 225.835 22.3179 225.055C22.3179 224.265 22.4929 223.57 22.8429 222.97C23.1929 222.37 23.6679 221.9 24.2679 221.56C24.8679 221.22 25.5529 221.05 26.3229 221.05C27.1029 221.05 27.7929 221.22 28.3929 221.56C29.0029 221.9 29.4779 222.37 29.8179 222.97C30.1679 223.57 30.3429 224.265 30.3429 225.055C30.3429 225.835 30.1679 226.53 29.8179 227.14C29.4779 227.74 29.0029 228.215 28.3929 228.565C27.7829 228.905 27.0929 229.075 26.3229 229.075ZM26.3229 228.13C26.8929 228.13 27.3979 228.005 27.8379 227.755C28.2779 227.495 28.6229 227.135 28.8729 226.675C29.1329 226.205 29.2629 225.665 29.2629 225.055C29.2629 224.435 29.1329 223.895 28.8729 223.435C28.6229 222.975 28.2779 222.62 27.8379 222.37C27.3979 222.11 26.8979 221.98 26.3379 221.98C25.7779 221.98 25.2779 222.11 24.8379 222.37C24.3979 222.62 24.0479 222.975 23.7879 223.435C23.5279 223.895 23.3979 224.435 23.3979 225.055C23.3979 225.665 23.5279 226.205 23.7879 226.675C24.0479 227.135 24.3979 227.495 24.8379 227.755C25.2779 228.005 25.7729 228.13 26.3229 228.13ZM35.7722 229.075C35.1022 229.075 34.5172 228.95 34.0172 228.7C33.5172 228.45 33.1272 228.075 32.8472 227.575C32.5772 227.075 32.4422 226.45 32.4422 225.7V221.125H33.5072V225.58C33.5072 226.42 33.7122 227.055 34.1222 227.485C34.5422 227.905 35.1272 228.115 35.8772 228.115C36.4272 228.115 36.9022 228.005 37.3022 227.785C37.7122 227.555 38.0222 227.225 38.2322 226.795C38.4522 226.365 38.5622 225.85 38.5622 225.25V221.125H39.6272V229H38.6072V226.84L38.7722 227.23C38.5222 227.81 38.1322 228.265 37.6022 228.595C37.0822 228.915 36.4722 229.075 35.7722 229.075ZM49.7911 229.075C49.0111 229.075 48.3111 228.905 47.6911 228.565C47.0811 228.215 46.6011 227.74 46.2511 227.14C45.9011 226.53 45.7261 225.835 45.7261 225.055C45.7261 224.265 45.9011 223.57 46.2511 222.97C46.6011 222.37 47.0811 221.9 47.6911 221.56C48.3111 221.22 49.0111 221.05 49.7911 221.05C50.4611 221.05 51.0661 221.18 51.6061 221.44C52.1461 221.7 52.5711 222.09 52.8811 222.61L52.0861 223.15C51.8161 222.75 51.4811 222.455 51.0811 222.265C50.6811 222.075 50.2461 221.98 49.7761 221.98C49.2161 221.98 48.7111 222.11 48.2611 222.37C47.8111 222.62 47.4561 222.975 47.1961 223.435C46.9361 223.895 46.8061 224.435 46.8061 225.055C46.8061 225.675 46.9361 226.215 47.1961 226.675C47.4561 227.135 47.8111 227.495 48.2611 227.755C48.7111 228.005 49.2161 228.13 49.7761 228.13C50.2461 228.13 50.6811 228.035 51.0811 227.845C51.4811 227.655 51.8161 227.365 52.0861 226.975L52.8811 227.515C52.5711 228.025 52.1461 228.415 51.6061 228.685C51.0661 228.945 50.4611 229.075 49.7911 229.075ZM59.9083 229V227.26L59.8633 226.975V224.065C59.8633 223.395 59.6733 222.88 59.2933 222.52C58.9233 222.16 58.3683 221.98 57.6283 221.98C57.1183 221.98 56.6333 222.065 56.1733 222.235C55.7133 222.405 55.3233 222.63 55.0033 222.91L54.5233 222.115C54.9233 221.775 55.4033 221.515 55.9633 221.335C56.5233 221.145 57.1133 221.05 57.7333 221.05C58.7533 221.05 59.5383 221.305 60.0883 221.815C60.6483 222.315 60.9283 223.08 60.9283 224.11V229H59.9083ZM57.1933 229.075C56.6033 229.075 56.0883 228.98 55.6483 228.79C55.2183 228.59 54.8883 228.32 54.6583 227.98C54.4283 227.63 54.3133 227.23 54.3133 226.78C54.3133 226.37 54.4083 226 54.5983 225.67C54.7983 225.33 55.1183 225.06 55.5583 224.86C56.0083 224.65 56.6083 224.545 57.3583 224.545H60.0733V225.34H57.3883C56.6283 225.34 56.0983 225.475 55.7983 225.745C55.5083 226.015 55.3633 226.35 55.3633 226.75C55.3633 227.2 55.5383 227.56 55.8883 227.83C56.2383 228.1 56.7283 228.235 57.3583 228.235C57.9583 228.235 58.4733 228.1 58.9033 227.83C59.3433 227.55 59.6633 227.15 59.8633 226.63L60.1033 227.365C59.9033 227.885 59.5533 228.3 59.0533 228.61C58.5633 228.92 57.9433 229.075 57.1933 229.075ZM67.8409 221.05C68.4809 221.05 69.0409 221.175 69.5209 221.425C70.0109 221.665 70.3909 222.035 70.6609 222.535C70.9409 223.035 71.0809 223.665 71.0809 224.425V229H70.0159V224.53C70.0159 223.7 69.8059 223.075 69.3859 222.655C68.9759 222.225 68.3959 222.01 67.6459 222.01C67.0859 222.01 66.5959 222.125 66.1759 222.355C65.7659 222.575 65.4459 222.9 65.2159 223.33C64.9959 223.75 64.8859 224.26 64.8859 224.86V229H63.8209V221.125H64.8409V223.285L64.6759 222.88C64.9259 222.31 65.3259 221.865 65.8759 221.545C66.4259 221.215 67.0809 221.05 67.8409 221.05ZM81.2434 231.985C80.5234 231.985 79.8334 231.88 79.1734 231.67C78.5134 231.46 77.9784 231.16 77.5684 230.77L78.1084 229.96C78.4784 230.29 78.9334 230.55 79.4734 230.74C80.0234 230.94 80.6034 231.04 81.2134 231.04C82.2134 231.04 82.9484 230.805 83.4184 230.335C83.8884 229.875 84.1234 229.155 84.1234 228.175V226.21L84.2734 224.86L84.1684 223.51V221.125H85.1884V228.04C85.1884 229.4 84.8534 230.395 84.1834 231.025C83.5234 231.665 82.5434 231.985 81.2434 231.985ZM81.0484 228.7C80.2984 228.7 79.6234 228.54 79.0234 228.22C78.4234 227.89 77.9484 227.435 77.5984 226.855C77.2584 226.275 77.0884 225.61 77.0884 224.86C77.0884 224.11 77.2584 223.45 77.5984 222.88C77.9484 222.3 78.4234 221.85 79.0234 221.53C79.6234 221.21 80.2984 221.05 81.0484 221.05C81.7484 221.05 82.3784 221.195 82.9384 221.485C83.4984 221.775 83.9434 222.205 84.2734 222.775C84.6034 223.345 84.7684 224.04 84.7684 224.86C84.7684 225.68 84.6034 226.375 84.2734 226.945C83.9434 227.515 83.4984 227.95 82.9384 228.25C82.3784 228.55 81.7484 228.7 81.0484 228.7ZM81.1534 227.755C81.7334 227.755 82.2484 227.635 82.6984 227.395C83.1484 227.145 83.5034 226.805 83.7634 226.375C84.0234 225.935 84.1534 225.43 84.1534 224.86C84.1534 224.29 84.0234 223.79 83.7634 223.36C83.5034 222.93 83.1484 222.595 82.6984 222.355C82.2484 222.105 81.7334 221.98 81.1534 221.98C80.5834 221.98 80.0684 222.105 79.6084 222.355C79.1584 222.595 78.8034 222.93 78.5434 223.36C78.2934 223.79 78.1684 224.29 78.1684 224.86C78.1684 225.43 78.2934 225.935 78.5434 226.375C78.8034 226.805 79.1584 227.145 79.6084 227.395C80.0684 227.635 80.5834 227.755 81.1534 227.755ZM91.497 229.075C90.677 229.075 89.957 228.905 89.337 228.565C88.717 228.215 88.232 227.74 87.882 227.14C87.532 226.53 87.357 225.835 87.357 225.055C87.357 224.275 87.522 223.585 87.852 222.985C88.192 222.385 88.652 221.915 89.232 221.575C89.822 221.225 90.482 221.05 91.212 221.05C91.952 221.05 92.607 221.22 93.177 221.56C93.757 221.89 94.212 222.36 94.542 222.97C94.872 223.57 95.037 224.265 95.037 225.055C95.037 225.105 95.032 225.16 95.022 225.22C95.022 225.27 95.022 225.325 95.022 225.385H88.167V224.59H94.452L94.032 224.905C94.032 224.335 93.907 223.83 93.657 223.39C93.417 222.94 93.087 222.59 92.667 222.34C92.247 222.09 91.762 221.965 91.212 221.965C90.672 221.965 90.187 222.09 89.757 222.34C89.327 222.59 88.992 222.94 88.752 223.39C88.512 223.84 88.392 224.355 88.392 224.935V225.1C88.392 225.7 88.522 226.23 88.782 226.69C89.052 227.14 89.422 227.495 89.892 227.755C90.372 228.005 90.917 228.13 91.527 228.13C92.007 228.13 92.452 228.045 92.862 227.875C93.282 227.705 93.642 227.445 93.942 227.095L94.542 227.785C94.192 228.205 93.752 228.525 93.222 228.745C92.702 228.965 92.127 229.075 91.497 229.075ZM101.225 221.05C101.865 221.05 102.425 221.175 102.905 221.425C103.395 221.665 103.775 222.035 104.045 222.535C104.325 223.035 104.465 223.665 104.465 224.425V229H103.4V224.53C103.4 223.7 103.19 223.075 102.77 222.655C102.36 222.225 101.78 222.01 101.03 222.01C100.47 222.01 99.9797 222.125 99.5597 222.355C99.1497 222.575 98.8297 222.9 98.5997 223.33C98.3797 223.75 98.2697 224.26 98.2697 224.86V229H97.2047V221.125H98.2247V223.285L98.0597 222.88C98.3097 222.31 98.7097 221.865 99.2597 221.545C99.8097 221.215 100.465 221.05 101.225 221.05ZM110.686 229.075C109.866 229.075 109.146 228.905 108.526 228.565C107.906 228.215 107.421 227.74 107.071 227.14C106.721 226.53 106.546 225.835 106.546 225.055C106.546 224.275 106.711 223.585 107.041 222.985C107.381 222.385 107.841 221.915 108.421 221.575C109.011 221.225 109.671 221.05 110.401 221.05C111.141 221.05 111.796 221.22 112.366 221.56C112.946 221.89 113.401 222.36 113.731 222.97C114.061 223.57 114.226 224.265 114.226 225.055C114.226 225.105 114.221 225.16 114.211 225.22C114.211 225.27 114.211 225.325 114.211 225.385H107.356V224.59H113.641L113.221 224.905C113.221 224.335 113.096 223.83 112.846 223.39C112.606 222.94 112.276 222.59 111.856 222.34C111.436 222.09 110.951 221.965 110.401 221.965C109.861 221.965 109.376 222.09 108.946 222.34C108.516 222.59 108.181 222.94 107.941 223.39C107.701 223.84 107.581 224.355 107.581 224.935V225.1C107.581 225.7 107.711 226.23 107.971 226.69C108.241 227.14 108.611 227.495 109.081 227.755C109.561 228.005 110.106 228.13 110.716 228.13C111.196 228.13 111.641 228.045 112.051 227.875C112.471 227.705 112.831 227.445 113.131 227.095L113.731 227.785C113.381 228.205 112.941 228.525 112.411 228.745C111.891 228.965 111.316 229.075 110.686 229.075ZM116.394 229V221.125H117.414V223.27L117.309 222.895C117.529 222.295 117.899 221.84 118.419 221.53C118.939 221.21 119.584 221.05 120.354 221.05V222.085C120.314 222.085 120.274 222.085 120.234 222.085C120.194 222.075 120.154 222.07 120.114 222.07C119.284 222.07 118.634 222.325 118.164 222.835C117.694 223.335 117.459 224.05 117.459 224.98V229H116.394ZM126.647 229V227.26L126.602 226.975V224.065C126.602 223.395 126.412 222.88 126.032 222.52C125.662 222.16 125.107 221.98 124.367 221.98C123.857 221.98 123.372 222.065 122.912 222.235C122.452 222.405 122.062 222.63 121.742 222.91L121.262 222.115C121.662 221.775 122.142 221.515 122.702 221.335C123.262 221.145 123.852 221.05 124.472 221.05C125.492 221.05 126.277 221.305 126.827 221.815C127.387 222.315 127.667 223.08 127.667 224.11V229H126.647ZM123.932 229.075C123.342 229.075 122.827 228.98 122.387 228.79C121.957 228.59 121.627 228.32 121.397 227.98C121.167 227.63 121.052 227.23 121.052 226.78C121.052 226.37 121.147 226 121.337 225.67C121.537 225.33 121.857 225.06 122.297 224.86C122.747 224.65 123.347 224.545 124.097 224.545H126.812V225.34H124.127C123.367 225.34 122.837 225.475 122.537 225.745C122.247 226.015 122.102 226.35 122.102 226.75C122.102 227.2 122.277 227.56 122.627 227.83C122.977 228.1 123.467 228.235 124.097 228.235C124.697 228.235 125.212 228.1 125.642 227.83C126.082 227.55 126.402 227.15 126.602 226.63L126.842 227.365C126.642 227.885 126.292 228.3 125.792 228.61C125.302 228.92 124.682 229.075 123.932 229.075ZM133.049 229.075C132.309 229.075 131.739 228.875 131.339 228.475C130.939 228.075 130.739 227.51 130.739 226.78V219.385H131.804V226.72C131.804 227.18 131.919 227.535 132.149 227.785C132.389 228.035 132.729 228.16 133.169 228.16C133.639 228.16 134.029 228.025 134.339 227.755L134.714 228.52C134.504 228.71 134.249 228.85 133.949 228.94C133.659 229.03 133.359 229.075 133.049 229.075ZM129.329 222.01V221.125H134.204V222.01H129.329ZM139.72 229.075C138.9 229.075 138.18 228.905 137.56 228.565C136.94 228.215 136.455 227.74 136.105 227.14C135.755 226.53 135.58 225.835 135.58 225.055C135.58 224.275 135.745 223.585 136.075 222.985C136.415 222.385 136.875 221.915 137.455 221.575C138.045 221.225 138.705 221.05 139.435 221.05C140.175 221.05 140.83 221.22 141.4 221.56C141.98 221.89 142.435 222.36 142.765 222.97C143.095 223.57 143.26 224.265 143.26 225.055C143.26 225.105 143.255 225.16 143.245 225.22C143.245 225.27 143.245 225.325 143.245 225.385H136.39V224.59H142.675L142.255 224.905C142.255 224.335 142.13 223.83 141.88 223.39C141.64 222.94 141.31 222.59 140.89 222.34C140.47 222.09 139.985 221.965 139.435 221.965C138.895 221.965 138.41 222.09 137.98 222.34C137.55 222.59 137.215 222.94 136.975 223.39C136.735 223.84 136.615 224.355 136.615 224.935V225.1C136.615 225.7 136.745 226.23 137.005 226.69C137.275 227.14 137.645 227.495 138.115 227.755C138.595 228.005 139.14 228.13 139.75 228.13C140.23 228.13 140.675 228.045 141.085 227.875C141.505 227.705 141.865 227.445 142.165 227.095L142.765 227.785C142.415 228.205 141.975 228.525 141.445 228.745C140.925 228.965 140.35 229.075 139.72 229.075ZM159.193 221.05C159.833 221.05 160.388 221.175 160.858 221.425C161.338 221.665 161.708 222.035 161.968 222.535C162.238 223.035 162.373 223.665 162.373 224.425V229H161.308V224.53C161.308 223.7 161.108 223.075 160.708 222.655C160.318 222.225 159.763 222.01 159.043 222.01C158.503 222.01 158.033 222.125 157.633 222.355C157.243 222.575 156.938 222.9 156.718 223.33C156.508 223.75 156.403 224.26 156.403 224.86V229H155.338V224.53C155.338 223.7 155.138 223.075 154.738 222.655C154.338 222.225 153.778 222.01 153.058 222.01C152.528 222.01 152.063 222.125 151.663 222.355C151.263 222.575 150.953 222.9 150.733 223.33C150.523 223.75 150.418 224.26 150.418 224.86V229H149.353V221.125H150.373V223.255L150.208 222.88C150.448 222.31 150.833 221.865 151.363 221.545C151.903 221.215 152.538 221.05 153.268 221.05C154.038 221.05 154.693 221.245 155.233 221.635C155.773 222.015 156.123 222.59 156.283 223.36L155.863 223.195C156.093 222.555 156.498 222.04 157.078 221.65C157.668 221.25 158.373 221.05 159.193 221.05ZM168.516 229.075C167.846 229.075 167.261 228.95 166.761 228.7C166.261 228.45 165.871 228.075 165.591 227.575C165.321 227.075 165.186 226.45 165.186 225.7V221.125H166.251V225.58C166.251 226.42 166.456 227.055 166.866 227.485C167.286 227.905 167.871 228.115 168.621 228.115C169.171 228.115 169.646 228.005 170.046 227.785C170.456 227.555 170.766 227.225 170.976 226.795C171.196 226.365 171.306 225.85 171.306 225.25V221.125H172.371V229H171.351V226.84L171.516 227.23C171.266 227.81 170.876 228.265 170.346 228.595C169.826 228.915 169.216 229.075 168.516 229.075ZM175.339 229V217.87H176.404V229H175.339ZM181.902 229.075C181.162 229.075 180.592 228.875 180.192 228.475C179.792 228.075 179.592 227.51 179.592 226.78V219.385H180.657V226.72C180.657 227.18 180.772 227.535 181.002 227.785C181.242 228.035 181.582 228.16 182.022 228.16C182.492 228.16 182.882 228.025 183.192 227.755L183.567 228.52C183.357 228.71 183.102 228.85 182.802 228.94C182.512 229.03 182.212 229.075 181.902 229.075ZM178.182 222.01V221.125H183.057V222.01H178.182ZM185.506 229V221.125H186.571V229H185.506ZM186.046 219.385C185.826 219.385 185.641 219.31 185.491 219.16C185.341 219.01 185.266 218.83 185.266 218.62C185.266 218.41 185.341 218.235 185.491 218.095C185.641 217.945 185.826 217.87 186.046 217.87C186.266 217.87 186.451 217.94 186.601 218.08C186.751 218.22 186.826 218.395 186.826 218.605C186.826 218.825 186.751 219.01 186.601 219.16C186.461 219.31 186.276 219.385 186.046 219.385ZM193.599 229.075C192.919 229.075 192.304 228.92 191.754 228.61C191.204 228.29 190.764 227.835 190.434 227.245C190.114 226.645 189.954 225.915 189.954 225.055C189.954 224.195 190.114 223.47 190.434 222.88C190.754 222.28 191.189 221.825 191.739 221.515C192.289 221.205 192.909 221.05 193.599 221.05C194.349 221.05 195.019 221.22 195.609 221.56C196.209 221.89 196.679 222.36 197.019 222.97C197.359 223.57 197.529 224.265 197.529 225.055C197.529 225.855 197.359 226.555 197.019 227.155C196.679 227.755 196.209 228.225 195.609 228.565C195.019 228.905 194.349 229.075 193.599 229.075ZM189.534 231.91V221.125H190.554V223.495L190.449 225.07L190.599 226.66V231.91H189.534ZM193.524 228.13C194.084 228.13 194.584 228.005 195.024 227.755C195.464 227.495 195.814 227.135 196.074 226.675C196.334 226.205 196.464 225.665 196.464 225.055C196.464 224.445 196.334 223.91 196.074 223.45C195.814 222.99 195.464 222.63 195.024 222.37C194.584 222.11 194.084 221.98 193.524 221.98C192.964 221.98 192.459 222.11 192.009 222.37C191.569 222.63 191.219 222.99 190.959 223.45C190.709 223.91 190.584 224.445 190.584 225.055C190.584 225.665 190.709 226.205 190.959 226.675C191.219 227.135 191.569 227.495 192.009 227.755C192.459 228.005 192.964 228.13 193.524 228.13ZM199.7 229V217.87H200.765V229H199.7ZM207.073 229.075C206.253 229.075 205.533 228.905 204.913 228.565C204.293 228.215 203.808 227.74 203.458 227.14C203.108 226.53 202.933 225.835 202.933 225.055C202.933 224.275 203.098 223.585 203.428 222.985C203.768 222.385 204.228 221.915 204.808 221.575C205.398 221.225 206.058 221.05 206.788 221.05C207.528 221.05 208.183 221.22 208.753 221.56C209.333 221.89 209.788 222.36 210.118 222.97C210.448 223.57 210.613 224.265 210.613 225.055C210.613 225.105 210.608 225.16 210.598 225.22C210.598 225.27 210.598 225.325 210.598 225.385H203.743V224.59H210.028L209.608 224.905C209.608 224.335 209.483 223.83 209.233 223.39C208.993 222.94 208.663 222.59 208.243 222.34C207.823 222.09 207.338 221.965 206.788 221.965C206.248 221.965 205.763 222.09 205.333 222.34C204.903 222.59 204.568 222.94 204.328 223.39C204.088 223.84 203.968 224.355 203.968 224.935V225.1C203.968 225.7 204.098 226.23 204.358 226.69C204.628 227.14 204.998 227.495 205.468 227.755C205.948 228.005 206.493 228.13 207.103 228.13C207.583 228.13 208.028 228.045 208.438 227.875C208.858 227.705 209.218 227.445 209.518 227.095L210.118 227.785C209.768 228.205 209.328 228.525 208.798 228.745C208.278 228.965 207.703 229.075 207.073 229.075ZM218.732 229L215.237 221.125H216.347L219.557 228.43H219.032L222.287 221.125H223.337L219.827 229H218.732ZM227.962 229.075C227.142 229.075 226.422 228.905 225.802 228.565C225.182 228.215 224.697 227.74 224.347 227.14C223.997 226.53 223.822 225.835 223.822 225.055C223.822 224.275 223.987 223.585 224.317 222.985C224.657 222.385 225.117 221.915 225.697 221.575C226.287 221.225 226.947 221.05 227.677 221.05C228.417 221.05 229.072 221.22 229.642 221.56C230.222 221.89 230.677 222.36 231.007 222.97C231.337 223.57 231.502 224.265 231.502 225.055C231.502 225.105 231.497 225.16 231.487 225.22C231.487 225.27 231.487 225.325 231.487 225.385H224.632V224.59H230.917L230.497 224.905C230.497 224.335 230.372 223.83 230.122 223.39C229.882 222.94 229.552 222.59 229.132 222.34C228.712 222.09 228.227 221.965 227.677 221.965C227.137 221.965 226.652 222.09 226.222 222.34C225.792 222.59 225.457 222.94 225.217 223.39C224.977 223.84 224.857 224.355 224.857 224.935V225.1C224.857 225.7 224.987 226.23 225.247 226.69C225.517 227.14 225.887 227.495 226.357 227.755C226.837 228.005 227.382 228.13 227.992 228.13C228.472 228.13 228.917 228.045 229.327 227.875C229.747 227.705 230.107 227.445 230.407 227.095L231.007 227.785C230.657 228.205 230.217 228.525 229.687 228.745C229.167 228.965 228.592 229.075 227.962 229.075ZM233.67 229V221.125H234.69V223.27L234.585 222.895C234.805 222.295 235.175 221.84 235.695 221.53C236.215 221.21 236.86 221.05 237.63 221.05V222.085C237.59 222.085 237.55 222.085 237.51 222.085C237.47 222.075 237.43 222.07 237.39 222.07C236.56 222.07 235.91 222.325 235.44 222.835C234.97 223.335 234.735 224.05 234.735 224.98V229H233.67ZM241.776 229.075C241.126 229.075 240.511 228.985 239.931 228.805C239.351 228.615 238.896 228.38 238.566 228.1L239.046 227.26C239.366 227.5 239.776 227.71 240.276 227.89C240.776 228.06 241.301 228.145 241.851 228.145C242.601 228.145 243.141 228.03 243.471 227.8C243.801 227.56 243.966 227.245 243.966 226.855C243.966 226.565 243.871 226.34 243.681 226.18C243.501 226.01 243.261 225.885 242.961 225.805C242.661 225.715 242.326 225.64 241.956 225.58C241.586 225.52 241.216 225.45 240.846 225.37C240.486 225.29 240.156 225.175 239.856 225.025C239.556 224.865 239.311 224.65 239.121 224.38C238.941 224.11 238.851 223.75 238.851 223.3C238.851 222.87 238.971 222.485 239.211 222.145C239.451 221.805 239.801 221.54 240.261 221.35C240.731 221.15 241.301 221.05 241.971 221.05C242.481 221.05 242.991 221.12 243.501 221.26C244.011 221.39 244.431 221.565 244.761 221.785L244.296 222.64C243.946 222.4 243.571 222.23 243.171 222.13C242.771 222.02 242.371 221.965 241.971 221.965C241.261 221.965 240.736 222.09 240.396 222.34C240.066 222.58 239.901 222.89 239.901 223.27C239.901 223.57 239.991 223.805 240.171 223.975C240.361 224.145 240.606 224.28 240.906 224.38C241.216 224.47 241.551 224.545 241.911 224.605C242.281 224.665 242.646 224.74 243.006 224.83C243.376 224.91 243.711 225.025 244.011 225.175C244.321 225.315 244.566 225.52 244.746 225.79C244.936 226.05 245.031 226.395 245.031 226.825C245.031 227.285 244.901 227.685 244.641 228.025C244.391 228.355 244.021 228.615 243.531 228.805C243.051 228.985 242.466 229.075 241.776 229.075ZM246.985 229V221.125H248.05V229H246.985ZM247.525 219.385C247.305 219.385 247.12 219.31 246.97 219.16C246.82 219.01 246.745 218.83 246.745 218.62C246.745 218.41 246.82 218.235 246.97 218.095C247.12 217.945 247.305 217.87 247.525 217.87C247.745 217.87 247.93 217.94 248.08 218.08C248.23 218.22 248.305 218.395 248.305 218.605C248.305 218.825 248.23 219.01 248.08 219.16C247.94 219.31 247.755 219.385 247.525 219.385ZM254.223 229.075C253.463 229.075 252.778 228.905 252.168 228.565C251.568 228.215 251.093 227.74 250.743 227.14C250.393 226.53 250.218 225.835 250.218 225.055C250.218 224.265 250.393 223.57 250.743 222.97C251.093 222.37 251.568 221.9 252.168 221.56C252.768 221.22 253.453 221.05 254.223 221.05C255.003 221.05 255.693 221.22 256.293 221.56C256.903 221.9 257.378 222.37 257.718 222.97C258.068 223.57 258.243 224.265 258.243 225.055C258.243 225.835 258.068 226.53 257.718 227.14C257.378 227.74 256.903 228.215 256.293 228.565C255.683 228.905 254.993 229.075 254.223 229.075ZM254.223 228.13C254.793 228.13 255.298 228.005 255.738 227.755C256.178 227.495 256.523 227.135 256.773 226.675C257.033 226.205 257.163 225.665 257.163 225.055C257.163 224.435 257.033 223.895 256.773 223.435C256.523 222.975 256.178 222.62 255.738 222.37C255.298 222.11 254.798 221.98 254.238 221.98C253.678 221.98 253.178 222.11 252.738 222.37C252.298 222.62 251.948 222.975 251.688 223.435C251.428 223.895 251.298 224.435 251.298 225.055C251.298 225.665 251.428 226.205 251.688 226.675C251.948 227.135 252.298 227.495 252.738 227.755C253.178 228.005 253.673 228.13 254.223 228.13ZM264.438 221.05C265.078 221.05 265.638 221.175 266.118 221.425C266.608 221.665 266.988 222.035 267.258 222.535C267.538 223.035 267.678 223.665 267.678 224.425V229H266.613V224.53C266.613 223.7 266.403 223.075 265.983 222.655C265.573 222.225 264.993 222.01 264.243 222.01C263.683 222.01 263.193 222.125 262.773 222.355C262.363 222.575 262.043 222.9 261.813 223.33C261.593 223.75 261.483 224.26 261.483 224.86V229H260.418V221.125H261.438V223.285L261.273 222.88C261.523 222.31 261.923 221.865 262.473 221.545C263.023 221.215 263.678 221.05 264.438 221.05ZM272.669 229.075C272.019 229.075 271.404 228.985 270.824 228.805C270.244 228.615 269.789 228.38 269.459 228.1L269.939 227.26C270.259 227.5 270.669 227.71 271.169 227.89C271.669 228.06 272.194 228.145 272.744 228.145C273.494 228.145 274.034 228.03 274.364 227.8C274.694 227.56 274.859 227.245 274.859 226.855C274.859 226.565 274.764 226.34 274.574 226.18C274.394 226.01 274.154 225.885 273.854 225.805C273.554 225.715 273.219 225.64 272.849 225.58C272.479 225.52 272.109 225.45 271.739 225.37C271.379 225.29 271.049 225.175 270.749 225.025C270.449 224.865 270.204 224.65 270.014 224.38C269.834 224.11 269.744 223.75 269.744 223.3C269.744 222.87 269.864 222.485 270.104 222.145C270.344 221.805 270.694 221.54 271.154 221.35C271.624 221.15 272.194 221.05 272.864 221.05C273.374 221.05 273.884 221.12 274.394 221.26C274.904 221.39 275.324 221.565 275.654 221.785L275.189 222.64C274.839 222.4 274.464 222.23 274.064 222.13C273.664 222.02 273.264 221.965 272.864 221.965C272.154 221.965 271.629 222.09 271.289 222.34C270.959 222.58 270.794 222.89 270.794 223.27C270.794 223.57 270.884 223.805 271.064 223.975C271.254 224.145 271.499 224.28 271.799 224.38C272.109 224.47 272.444 224.545 272.804 224.605C273.174 224.665 273.539 224.74 273.899 224.83C274.269 224.91 274.604 225.025 274.904 225.175C275.214 225.315 275.459 225.52 275.639 225.79C275.829 226.05 275.924 226.395 275.924 226.825C275.924 227.285 275.794 227.685 275.534 228.025C275.284 228.355 274.914 228.615 274.424 228.805C273.944 228.985 273.359 229.075 272.669 229.075ZM19.42 247V245.26L19.375 244.975V242.065C19.375 241.395 19.185 240.88 18.805 240.52C18.435 240.16 17.88 239.98 17.14 239.98C16.63 239.98 16.145 240.065 15.685 240.235C15.225 240.405 14.835 240.63 14.515 240.91L14.035 240.115C14.435 239.775 14.915 239.515 15.475 239.335C16.035 239.145 16.625 239.05 17.245 239.05C18.265 239.05 19.05 239.305 19.6 239.815C20.16 240.315 20.44 241.08 20.44 242.11V247H19.42ZM16.705 247.075C16.115 247.075 15.6 246.98 15.16 246.79C14.73 246.59 14.4 246.32 14.17 245.98C13.94 245.63 13.825 245.23 13.825 244.78C13.825 244.37 13.92 244 14.11 243.67C14.31 243.33 14.63 243.06 15.07 242.86C15.52 242.65 16.12 242.545 16.87 242.545H19.585V243.34H16.9C16.14 243.34 15.61 243.475 15.31 243.745C15.02 244.015 14.875 244.35 14.875 244.75C14.875 245.2 15.05 245.56 15.4 245.83C15.75 246.1 16.24 246.235 16.87 246.235C17.47 246.235 17.985 246.1 18.415 245.83C18.855 245.55 19.175 245.15 19.375 244.63L19.615 245.365C19.415 245.885 19.065 246.3 18.565 246.61C18.075 246.92 17.455 247.075 16.705 247.075ZM27.3527 239.05C27.9927 239.05 28.5527 239.175 29.0327 239.425C29.5227 239.665 29.9027 240.035 30.1727 240.535C30.4527 241.035 30.5927 241.665 30.5927 242.425V247H29.5277V242.53C29.5277 241.7 29.3177 241.075 28.8977 240.655C28.4877 240.225 27.9077 240.01 27.1577 240.01C26.5977 240.01 26.1077 240.125 25.6877 240.355C25.2777 240.575 24.9577 240.9 24.7277 241.33C24.5077 241.75 24.3977 242.26 24.3977 242.86V247H23.3327V239.125H24.3527V241.285L24.1877 240.88C24.4377 240.31 24.8377 239.865 25.3877 239.545C25.9377 239.215 26.5927 239.05 27.3527 239.05ZM36.6044 247.075C35.8544 247.075 35.1794 246.905 34.5794 246.565C33.9894 246.225 33.5244 245.755 33.1844 245.155C32.8444 244.545 32.6744 243.845 32.6744 243.055C32.6744 242.255 32.8444 241.555 33.1844 240.955C33.5244 240.355 33.9894 239.89 34.5794 239.56C35.1794 239.22 35.8544 239.05 36.6044 239.05C37.2944 239.05 37.9094 239.205 38.4494 239.515C38.9994 239.825 39.4344 240.28 39.7544 240.88C40.0844 241.47 40.2494 242.195 40.2494 243.055C40.2494 243.905 40.0894 244.63 39.7694 245.23C39.4494 245.83 39.0144 246.29 38.4644 246.61C37.9244 246.92 37.3044 247.075 36.6044 247.075ZM36.6794 246.13C37.2394 246.13 37.7394 246.005 38.1794 245.755C38.6294 245.495 38.9794 245.135 39.2294 244.675C39.4894 244.205 39.6194 243.665 39.6194 243.055C39.6194 242.435 39.4894 241.895 39.2294 241.435C38.9794 240.975 38.6294 240.62 38.1794 240.37C37.7394 240.11 37.2394 239.98 36.6794 239.98C36.1294 239.98 35.6344 240.11 35.1944 240.37C34.7544 240.62 34.4044 240.975 34.1444 241.435C33.8844 241.895 33.7544 242.435 33.7544 243.055C33.7544 243.665 33.8844 244.205 34.1444 244.675C34.4044 245.135 34.7544 245.495 35.1944 245.755C35.6344 246.005 36.1294 246.13 36.6794 246.13ZM39.6494 247V244.63L39.7544 243.04L39.6044 241.45V235.87H40.6694V247H39.6494ZM47.5612 247V239.125H48.5812V241.27L48.4762 240.895C48.6962 240.295 49.0662 239.84 49.5862 239.53C50.1062 239.21 50.7512 239.05 51.5212 239.05V240.085C51.4812 240.085 51.4412 240.085 51.4012 240.085C51.3612 240.075 51.3212 240.07 51.2812 240.07C50.4512 240.07 49.8012 240.325 49.3312 240.835C48.8612 241.335 48.6262 242.05 48.6262 242.98V247H47.5612ZM56.7363 247.075C55.9163 247.075 55.1963 246.905 54.5763 246.565C53.9563 246.215 53.4713 245.74 53.1213 245.14C52.7713 244.53 52.5963 243.835 52.5963 243.055C52.5963 242.275 52.7613 241.585 53.0913 240.985C53.4313 240.385 53.8913 239.915 54.4713 239.575C55.0613 239.225 55.7213 239.05 56.4513 239.05C57.1913 239.05 57.8463 239.22 58.4163 239.56C58.9963 239.89 59.4513 240.36 59.7813 240.97C60.1113 241.57 60.2763 242.265 60.2763 243.055C60.2763 243.105 60.2713 243.16 60.2613 243.22C60.2613 243.27 60.2613 243.325 60.2613 243.385H53.4063V242.59H59.6913L59.2713 242.905C59.2713 242.335 59.1463 241.83 58.8963 241.39C58.6563 240.94 58.3263 240.59 57.9063 240.34C57.4863 240.09 57.0013 239.965 56.4513 239.965C55.9113 239.965 55.4263 240.09 54.9963 240.34C54.5663 240.59 54.2313 240.94 53.9913 241.39C53.7513 241.84 53.6313 242.355 53.6313 242.935V243.1C53.6313 243.7 53.7613 244.23 54.0213 244.69C54.2913 245.14 54.6613 245.495 55.1313 245.755C55.6113 246.005 56.1563 246.13 56.7663 246.13C57.2463 246.13 57.6913 246.045 58.1013 245.875C58.5213 245.705 58.8813 245.445 59.1813 245.095L59.7813 245.785C59.4313 246.205 58.9913 246.525 58.4613 246.745C57.9413 246.965 57.3663 247.075 56.7363 247.075ZM67.1593 247V245.26L67.1143 244.975V242.065C67.1143 241.395 66.9243 240.88 66.5443 240.52C66.1743 240.16 65.6193 239.98 64.8793 239.98C64.3693 239.98 63.8843 240.065 63.4243 240.235C62.9643 240.405 62.5743 240.63 62.2543 240.91L61.7743 240.115C62.1743 239.775 62.6543 239.515 63.2143 239.335C63.7743 239.145 64.3643 239.05 64.9843 239.05C66.0043 239.05 66.7893 239.305 67.3393 239.815C67.8993 240.315 68.1793 241.08 68.1793 242.11V247H67.1593ZM64.4443 247.075C63.8543 247.075 63.3393 246.98 62.8993 246.79C62.4693 246.59 62.1393 246.32 61.9093 245.98C61.6793 245.63 61.5643 245.23 61.5643 244.78C61.5643 244.37 61.6593 244 61.8493 243.67C62.0493 243.33 62.3693 243.06 62.8093 242.86C63.2593 242.65 63.8593 242.545 64.6093 242.545H67.3243V243.34H64.6393C63.8793 243.34 63.3493 243.475 63.0493 243.745C62.7593 244.015 62.6143 244.35 62.6143 244.75C62.6143 245.2 62.7893 245.56 63.1393 245.83C63.4893 246.1 63.9793 246.235 64.6093 246.235C65.2093 246.235 65.7243 246.1 66.1543 245.83C66.5943 245.55 66.9143 245.15 67.1143 244.63L67.3543 245.365C67.1543 245.885 66.8043 246.3 66.3043 246.61C65.8143 246.92 65.1943 247.075 64.4443 247.075ZM71.0719 247V239.125H72.0919V241.27L71.9869 240.895C72.2069 240.295 72.5769 239.84 73.0969 239.53C73.6169 239.21 74.2619 239.05 75.0319 239.05V240.085C74.9919 240.085 74.9519 240.085 74.9119 240.085C74.8719 240.075 74.8319 240.07 74.7919 240.07C73.9619 240.07 73.3119 240.325 72.8419 240.835C72.3719 241.335 72.1369 242.05 72.1369 242.98V247H71.0719ZM76.9752 247V239.125H77.9952V241.27L77.8902 240.895C78.1102 240.295 78.4802 239.84 79.0002 239.53C79.5202 239.21 80.1652 239.05 80.9352 239.05V240.085C80.8952 240.085 80.8552 240.085 80.8152 240.085C80.7752 240.075 80.7352 240.07 80.6952 240.07C79.8652 240.07 79.2152 240.325 78.7452 240.835C78.2752 241.335 78.0402 242.05 78.0402 242.98V247H76.9752ZM87.2276 247V245.26L87.1826 244.975V242.065C87.1826 241.395 86.9926 240.88 86.6126 240.52C86.2426 240.16 85.6876 239.98 84.9476 239.98C84.4376 239.98 83.9526 240.065 83.4926 240.235C83.0326 240.405 82.6426 240.63 82.3226 240.91L81.8426 240.115C82.2426 239.775 82.7226 239.515 83.2826 239.335C83.8426 239.145 84.4326 239.05 85.0526 239.05C86.0726 239.05 86.8576 239.305 87.4076 239.815C87.9676 240.315 88.2476 241.08 88.2476 242.11V247H87.2276ZM84.5126 247.075C83.9226 247.075 83.4076 246.98 82.9676 246.79C82.5376 246.59 82.2076 246.32 81.9776 245.98C81.7476 245.63 81.6326 245.23 81.6326 244.78C81.6326 244.37 81.7276 244 81.9176 243.67C82.1176 243.33 82.4376 243.06 82.8776 242.86C83.3276 242.65 83.9276 242.545 84.6776 242.545H87.3926V243.34H84.7076C83.9476 243.34 83.4176 243.475 83.1176 243.745C82.8276 244.015 82.6826 244.35 82.6826 244.75C82.6826 245.2 82.8576 245.56 83.2076 245.83C83.5576 246.1 84.0476 246.235 84.6776 246.235C85.2776 246.235 85.7926 246.1 86.2226 245.83C86.6626 245.55 86.9826 245.15 87.1826 244.63L87.4226 245.365C87.2226 245.885 86.8726 246.3 86.3726 246.61C85.8826 246.92 85.2626 247.075 84.5126 247.075ZM95.1603 239.05C95.8003 239.05 96.3603 239.175 96.8403 239.425C97.3303 239.665 97.7103 240.035 97.9803 240.535C98.2603 241.035 98.4003 241.665 98.4003 242.425V247H97.3353V242.53C97.3353 241.7 97.1253 241.075 96.7053 240.655C96.2953 240.225 95.7153 240.01 94.9653 240.01C94.4053 240.01 93.9153 240.125 93.4953 240.355C93.0853 240.575 92.7653 240.9 92.5353 241.33C92.3153 241.75 92.2053 242.26 92.2053 242.86V247H91.1403V239.125H92.1603V241.285L91.9953 240.88C92.2453 240.31 92.6453 239.865 93.1953 239.545C93.7453 239.215 94.4003 239.05 95.1603 239.05ZM104.637 249.985C103.917 249.985 103.227 249.88 102.567 249.67C101.907 249.46 101.372 249.16 100.962 248.77L101.502 247.96C101.872 248.29 102.327 248.55 102.867 248.74C103.417 248.94 103.997 249.04 104.607 249.04C105.607 249.04 106.342 248.805 106.812 248.335C107.282 247.875 107.517 247.155 107.517 246.175V244.21L107.667 242.86L107.562 241.51V239.125H108.582V246.04C108.582 247.4 108.247 248.395 107.577 249.025C106.917 249.665 105.937 249.985 104.637 249.985ZM104.442 246.7C103.692 246.7 103.017 246.54 102.417 246.22C101.817 245.89 101.342 245.435 100.992 244.855C100.652 244.275 100.482 243.61 100.482 242.86C100.482 242.11 100.652 241.45 100.992 240.88C101.342 240.3 101.817 239.85 102.417 239.53C103.017 239.21 103.692 239.05 104.442 239.05C105.142 239.05 105.772 239.195 106.332 239.485C106.892 239.775 107.337 240.205 107.667 240.775C107.997 241.345 108.162 242.04 108.162 242.86C108.162 243.68 107.997 244.375 107.667 244.945C107.337 245.515 106.892 245.95 106.332 246.25C105.772 246.55 105.142 246.7 104.442 246.7ZM104.547 245.755C105.127 245.755 105.642 245.635 106.092 245.395C106.542 245.145 106.897 244.805 107.157 244.375C107.417 243.935 107.547 243.43 107.547 242.86C107.547 242.29 107.417 241.79 107.157 241.36C106.897 240.93 106.542 240.595 106.092 240.355C105.642 240.105 105.127 239.98 104.547 239.98C103.977 239.98 103.462 240.105 103.002 240.355C102.552 240.595 102.197 240.93 101.937 241.36C101.687 241.79 101.562 242.29 101.562 242.86C101.562 243.43 101.687 243.935 101.937 244.375C102.197 244.805 102.552 245.145 103.002 245.395C103.462 245.635 103.977 245.755 104.547 245.755ZM114.891 247.075C114.071 247.075 113.351 246.905 112.731 246.565C112.111 246.215 111.626 245.74 111.276 245.14C110.926 244.53 110.751 243.835 110.751 243.055C110.751 242.275 110.916 241.585 111.246 240.985C111.586 240.385 112.046 239.915 112.626 239.575C113.216 239.225 113.876 239.05 114.606 239.05C115.346 239.05 116.001 239.22 116.571 239.56C117.151 239.89 117.606 240.36 117.936 240.97C118.266 241.57 118.431 242.265 118.431 243.055C118.431 243.105 118.426 243.16 118.416 243.22C118.416 243.27 118.416 243.325 118.416 243.385H111.561V242.59H117.846L117.426 242.905C117.426 242.335 117.301 241.83 117.051 241.39C116.811 240.94 116.481 240.59 116.061 240.34C115.641 240.09 115.156 239.965 114.606 239.965C114.066 239.965 113.581 240.09 113.151 240.34C112.721 240.59 112.386 240.94 112.146 241.39C111.906 241.84 111.786 242.355 111.786 242.935V243.1C111.786 243.7 111.916 244.23 112.176 244.69C112.446 245.14 112.816 245.495 113.286 245.755C113.766 246.005 114.311 246.13 114.921 246.13C115.401 246.13 115.846 246.045 116.256 245.875C116.676 245.705 117.036 245.445 117.336 245.095L117.936 245.785C117.586 246.205 117.146 246.525 116.616 246.745C116.096 246.965 115.521 247.075 114.891 247.075ZM127.659 247.075C126.909 247.075 126.234 246.905 125.634 246.565C125.044 246.225 124.579 245.755 124.239 245.155C123.899 244.555 123.729 243.855 123.729 243.055C123.729 242.265 123.899 241.57 124.239 240.97C124.579 240.36 125.044 239.89 125.634 239.56C126.234 239.22 126.909 239.05 127.659 239.05C128.359 239.05 128.979 239.205 129.519 239.515C130.069 239.825 130.504 240.28 130.824 240.88C131.144 241.47 131.304 242.195 131.304 243.055C131.304 243.915 131.139 244.645 130.809 245.245C130.489 245.835 130.054 246.29 129.504 246.61C128.964 246.92 128.349 247.075 127.659 247.075ZM127.734 246.13C128.294 246.13 128.794 246.005 129.234 245.755C129.684 245.495 130.034 245.135 130.284 244.675C130.544 244.205 130.674 243.665 130.674 243.055C130.674 242.445 130.544 241.91 130.284 241.45C130.034 240.99 129.684 240.63 129.234 240.37C128.794 240.11 128.294 239.98 127.734 239.98C127.184 239.98 126.689 240.11 126.249 240.37C125.809 240.63 125.459 240.99 125.199 241.45C124.939 241.91 124.809 242.445 124.809 243.055C124.809 243.665 124.939 244.205 125.199 244.675C125.459 245.135 125.809 245.495 126.249 245.755C126.689 246.005 127.184 246.13 127.734 246.13ZM130.659 249.91V244.66L130.809 243.07L130.704 241.495V239.125H131.724V249.91H130.659ZM137.945 247.075C137.275 247.075 136.69 246.95 136.19 246.7C135.69 246.45 135.3 246.075 135.02 245.575C134.75 245.075 134.615 244.45 134.615 243.7V239.125H135.68V243.58C135.68 244.42 135.885 245.055 136.295 245.485C136.715 245.905 137.3 246.115 138.05 246.115C138.6 246.115 139.075 246.005 139.475 245.785C139.885 245.555 140.195 245.225 140.405 244.795C140.625 244.365 140.735 243.85 140.735 243.25V239.125H141.8V247H140.78V244.84L140.945 245.23C140.695 245.81 140.305 246.265 139.775 246.595C139.255 246.915 138.645 247.075 137.945 247.075ZM148.113 247.075C147.293 247.075 146.573 246.905 145.953 246.565C145.333 246.215 144.848 245.74 144.498 245.14C144.148 244.53 143.973 243.835 143.973 243.055C143.973 242.275 144.138 241.585 144.468 240.985C144.808 240.385 145.268 239.915 145.848 239.575C146.438 239.225 147.098 239.05 147.828 239.05C148.568 239.05 149.223 239.22 149.793 239.56C150.373 239.89 150.828 240.36 151.158 240.97C151.488 241.57 151.653 242.265 151.653 243.055C151.653 243.105 151.648 243.16 151.638 243.22C151.638 243.27 151.638 243.325 151.638 243.385H144.783V242.59H151.068L150.648 242.905C150.648 242.335 150.523 241.83 150.273 241.39C150.033 240.94 149.703 240.59 149.283 240.34C148.863 240.09 148.378 239.965 147.828 239.965C147.288 239.965 146.803 240.09 146.373 240.34C145.943 240.59 145.608 240.94 145.368 241.39C145.128 241.84 145.008 242.355 145.008 242.935V243.1C145.008 243.7 145.138 244.23 145.398 244.69C145.668 245.14 146.038 245.495 146.508 245.755C146.988 246.005 147.533 246.13 148.143 246.13C148.623 246.13 149.068 246.045 149.478 245.875C149.898 245.705 150.258 245.445 150.558 245.095L151.158 245.785C150.808 246.205 150.368 246.525 149.838 246.745C149.318 246.965 148.743 247.075 148.113 247.075ZM155.936 247.075C155.286 247.075 154.671 246.985 154.091 246.805C153.511 246.615 153.056 246.38 152.726 246.1L153.206 245.26C153.526 245.5 153.936 245.71 154.436 245.89C154.936 246.06 155.461 246.145 156.011 246.145C156.761 246.145 157.301 246.03 157.631 245.8C157.961 245.56 158.126 245.245 158.126 244.855C158.126 244.565 158.031 244.34 157.841 244.18C157.661 244.01 157.421 243.885 157.121 243.805C156.821 243.715 156.486 243.64 156.116 243.58C155.746 243.52 155.376 243.45 155.006 243.37C154.646 243.29 154.316 243.175 154.016 243.025C153.716 242.865 153.471 242.65 153.281 242.38C153.101 242.11 153.011 241.75 153.011 241.3C153.011 240.87 153.131 240.485 153.371 240.145C153.611 239.805 153.961 239.54 154.421 239.35C154.891 239.15 155.461 239.05 156.131 239.05C156.641 239.05 157.151 239.12 157.661 239.26C158.171 239.39 158.591 239.565 158.921 239.785L158.456 240.64C158.106 240.4 157.731 240.23 157.331 240.13C156.931 240.02 156.531 239.965 156.131 239.965C155.421 239.965 154.896 240.09 154.556 240.34C154.226 240.58 154.061 240.89 154.061 241.27C154.061 241.57 154.151 241.805 154.331 241.975C154.521 242.145 154.766 242.28 155.066 242.38C155.376 242.47 155.711 242.545 156.071 242.605C156.441 242.665 156.806 242.74 157.166 242.83C157.536 242.91 157.871 243.025 158.171 243.175C158.481 243.315 158.726 243.52 158.906 243.79C159.096 244.05 159.191 244.395 159.191 244.825C159.191 245.285 159.061 245.685 158.801 246.025C158.551 246.355 158.181 246.615 157.691 246.805C157.211 246.985 156.626 247.075 155.936 247.075ZM163.635 247.075C162.895 247.075 162.325 246.875 161.925 246.475C161.525 246.075 161.325 245.51 161.325 244.78V237.385H162.39V244.72C162.39 245.18 162.505 245.535 162.735 245.785C162.975 246.035 163.315 246.16 163.755 246.16C164.225 246.16 164.615 246.025 164.925 245.755L165.3 246.52C165.09 246.71 164.835 246.85 164.535 246.94C164.245 247.03 163.945 247.075 163.635 247.075ZM159.915 240.01V239.125H164.79V240.01H159.915ZM167.239 247V239.125H168.304V247H167.239ZM167.779 237.385C167.559 237.385 167.374 237.31 167.224 237.16C167.074 237.01 166.999 236.83 166.999 236.62C166.999 236.41 167.074 236.235 167.224 236.095C167.374 235.945 167.559 235.87 167.779 235.87C167.999 235.87 168.184 235.94 168.334 236.08C168.484 236.22 168.559 236.395 168.559 236.605C168.559 236.825 168.484 237.01 168.334 237.16C168.194 237.31 168.009 237.385 167.779 237.385ZM174.477 247.075C173.717 247.075 173.032 246.905 172.422 246.565C171.822 246.215 171.347 245.74 170.997 245.14C170.647 244.53 170.472 243.835 170.472 243.055C170.472 242.265 170.647 241.57 170.997 240.97C171.347 240.37 171.822 239.9 172.422 239.56C173.022 239.22 173.707 239.05 174.477 239.05C175.257 239.05 175.947 239.22 176.547 239.56C177.157 239.9 177.632 240.37 177.972 240.97C178.322 241.57 178.497 242.265 178.497 243.055C178.497 243.835 178.322 244.53 177.972 245.14C177.632 245.74 177.157 246.215 176.547 246.565C175.937 246.905 175.247 247.075 174.477 247.075ZM174.477 246.13C175.047 246.13 175.552 246.005 175.992 245.755C176.432 245.495 176.777 245.135 177.027 244.675C177.287 244.205 177.417 243.665 177.417 243.055C177.417 242.435 177.287 241.895 177.027 241.435C176.777 240.975 176.432 240.62 175.992 240.37C175.552 240.11 175.052 239.98 174.492 239.98C173.932 239.98 173.432 240.11 172.992 240.37C172.552 240.62 172.202 240.975 171.942 241.435C171.682 241.895 171.552 242.435 171.552 243.055C171.552 243.665 171.682 244.205 171.942 244.675C172.202 245.135 172.552 245.495 172.992 245.755C173.432 246.005 173.927 246.13 174.477 246.13ZM184.692 239.05C185.332 239.05 185.892 239.175 186.372 239.425C186.862 239.665 187.242 240.035 187.512 240.535C187.792 241.035 187.932 241.665 187.932 242.425V247H186.867V242.53C186.867 241.7 186.657 241.075 186.237 240.655C185.827 240.225 185.247 240.01 184.497 240.01C183.937 240.01 183.447 240.125 183.027 240.355C182.617 240.575 182.297 240.9 182.067 241.33C181.847 241.75 181.737 242.26 181.737 242.86V247H180.672V239.125H181.692V241.285L181.527 240.88C181.777 240.31 182.177 239.865 182.727 239.545C183.277 239.215 183.932 239.05 184.692 239.05ZM192.923 247.075C192.273 247.075 191.658 246.985 191.078 246.805C190.498 246.615 190.043 246.38 189.713 246.1L190.193 245.26C190.513 245.5 190.923 245.71 191.423 245.89C191.923 246.06 192.448 246.145 192.998 246.145C193.748 246.145 194.288 246.03 194.618 245.8C194.948 245.56 195.113 245.245 195.113 244.855C195.113 244.565 195.018 244.34 194.828 244.18C194.648 244.01 194.408 243.885 194.108 243.805C193.808 243.715 193.473 243.64 193.103 243.58C192.733 243.52 192.363 243.45 191.993 243.37C191.633 243.29 191.303 243.175 191.003 243.025C190.703 242.865 190.458 242.65 190.268 242.38C190.088 242.11 189.998 241.75 189.998 241.3C189.998 240.87 190.118 240.485 190.358 240.145C190.598 239.805 190.948 239.54 191.408 239.35C191.878 239.15 192.448 239.05 193.118 239.05C193.628 239.05 194.138 239.12 194.648 239.26C195.158 239.39 195.578 239.565 195.908 239.785L195.443 240.64C195.093 240.4 194.718 240.23 194.318 240.13C193.918 240.02 193.518 239.965 193.118 239.965C192.408 239.965 191.883 240.09 191.543 240.34C191.213 240.58 191.048 240.89 191.048 241.27C191.048 241.57 191.138 241.805 191.318 241.975C191.508 242.145 191.753 242.28 192.053 242.38C192.363 242.47 192.698 242.545 193.058 242.605C193.428 242.665 193.793 242.74 194.153 242.83C194.523 242.91 194.858 243.025 195.158 243.175C195.468 243.315 195.713 243.52 195.893 243.79C196.083 244.05 196.178 244.395 196.178 244.825C196.178 245.285 196.048 245.685 195.788 246.025C195.538 246.355 195.168 246.615 194.678 246.805C194.198 246.985 193.613 247.075 192.923 247.075ZM202.238 247V238.135C202.238 237.435 202.443 236.87 202.853 236.44C203.263 236.01 203.853 235.795 204.623 235.795C204.923 235.795 205.213 235.835 205.493 235.915C205.773 235.995 206.008 236.12 206.198 236.29L205.838 237.085C205.688 236.955 205.513 236.86 205.313 236.8C205.113 236.73 204.898 236.695 204.668 236.695C204.218 236.695 203.873 236.82 203.633 237.07C203.393 237.32 203.273 237.69 203.273 238.18V239.38L203.303 239.875V247H202.238ZM200.828 240.01V239.125H205.703V240.01H200.828ZM210.219 247.075C209.459 247.075 208.774 246.905 208.164 246.565C207.564 246.215 207.089 245.74 206.739 245.14C206.389 244.53 206.214 243.835 206.214 243.055C206.214 242.265 206.389 241.57 206.739 240.97C207.089 240.37 207.564 239.9 208.164 239.56C208.764 239.22 209.449 239.05 210.219 239.05C210.999 239.05 211.689 239.22 212.289 239.56C212.899 239.9 213.374 240.37 213.714 240.97C214.064 241.57 214.239 242.265 214.239 243.055C214.239 243.835 214.064 244.53 213.714 245.14C213.374 245.74 212.899 246.215 212.289 246.565C211.679 246.905 210.989 247.075 210.219 247.075ZM210.219 246.13C210.789 246.13 211.294 246.005 211.734 245.755C212.174 245.495 212.519 245.135 212.769 244.675C213.029 244.205 213.159 243.665 213.159 243.055C213.159 242.435 213.029 241.895 212.769 241.435C212.519 240.975 212.174 240.62 211.734 240.37C211.294 240.11 210.794 239.98 210.234 239.98C209.674 239.98 209.174 240.11 208.734 240.37C208.294 240.62 207.944 240.975 207.684 241.435C207.424 241.895 207.294 242.435 207.294 243.055C207.294 243.665 207.424 244.205 207.684 244.675C207.944 245.135 208.294 245.495 208.734 245.755C209.174 246.005 209.669 246.13 210.219 246.13ZM216.414 247V239.125H217.434V241.27L217.329 240.895C217.549 240.295 217.919 239.84 218.439 239.53C218.959 239.21 219.604 239.05 220.374 239.05V240.085C220.334 240.085 220.294 240.085 220.254 240.085C220.214 240.075 220.174 240.07 220.134 240.07C219.304 240.07 218.654 240.325 218.184 240.835C217.714 241.335 217.479 242.05 217.479 242.98V247H216.414ZM231.295 247V245.26L231.25 244.975V242.065C231.25 241.395 231.06 240.88 230.68 240.52C230.31 240.16 229.755 239.98 229.015 239.98C228.505 239.98 228.02 240.065 227.56 240.235C227.1 240.405 226.71 240.63 226.39 240.91L225.91 240.115C226.31 239.775 226.79 239.515 227.35 239.335C227.91 239.145 228.5 239.05 229.12 239.05C230.14 239.05 230.925 239.305 231.475 239.815C232.035 240.315 232.315 241.08 232.315 242.11V247H231.295ZM228.58 247.075C227.99 247.075 227.475 246.98 227.035 246.79C226.605 246.59 226.275 246.32 226.045 245.98C225.815 245.63 225.7 245.23 225.7 244.78C225.7 244.37 225.795 244 225.985 243.67C226.185 243.33 226.505 243.06 226.945 242.86C227.395 242.65 227.995 242.545 228.745 242.545H231.46V243.34H228.775C228.015 243.34 227.485 243.475 227.185 243.745C226.895 244.015 226.75 244.35 226.75 244.75C226.75 245.2 226.925 245.56 227.275 245.83C227.625 246.1 228.115 246.235 228.745 246.235C229.345 246.235 229.86 246.1 230.29 245.83C230.73 245.55 231.05 245.15 231.25 244.63L231.49 245.365C231.29 245.885 230.94 246.3 230.44 246.61C229.95 246.92 229.33 247.075 228.58 247.075ZM17.62 265.075C16.87 265.075 16.195 264.905 15.595 264.565C15.005 264.225 14.54 263.755 14.2 263.155C13.86 262.545 13.69 261.845 13.69 261.055C13.69 260.255 13.86 259.555 14.2 258.955C14.54 258.355 15.005 257.89 15.595 257.56C16.195 257.22 16.87 257.05 17.62 257.05C18.31 257.05 18.925 257.205 19.465 257.515C20.015 257.825 20.45 258.28 20.77 258.88C21.1 259.47 21.265 260.195 21.265 261.055C21.265 261.905 21.105 262.63 20.785 263.23C20.465 263.83 20.03 264.29 19.48 264.61C18.94 264.92 18.32 265.075 17.62 265.075ZM17.695 264.13C18.255 264.13 18.755 264.005 19.195 263.755C19.645 263.495 19.995 263.135 20.245 262.675C20.505 262.205 20.635 261.665 20.635 261.055C20.635 260.435 20.505 259.895 20.245 259.435C19.995 258.975 19.645 258.62 19.195 258.37C18.755 258.11 18.255 257.98 17.695 257.98C17.145 257.98 16.65 258.11 16.21 258.37C15.77 258.62 15.42 258.975 15.16 259.435C14.9 259.895 14.77 260.435 14.77 261.055C14.77 261.665 14.9 262.205 15.16 262.675C15.42 263.135 15.77 263.495 16.21 263.755C16.65 264.005 17.145 264.13 17.695 264.13ZM20.665 265V262.63L20.77 261.04L20.62 259.45V253.87H21.685V265H20.665ZM24.711 267.985C24.341 267.985 23.986 267.925 23.646 267.805C23.316 267.685 23.031 267.505 22.791 267.265L23.286 266.47C23.486 266.66 23.701 266.805 23.931 266.905C24.171 267.015 24.436 267.07 24.726 267.07C25.076 267.07 25.376 266.97 25.626 266.77C25.886 266.58 26.131 266.24 26.361 265.75L26.871 264.595L26.991 264.43L30.231 257.125H31.281L27.336 265.945C27.116 266.455 26.871 266.86 26.601 267.16C26.341 267.46 26.056 267.67 25.746 267.79C25.436 267.92 25.091 267.985 24.711 267.985ZM26.811 265.225L23.181 257.125H24.291L27.501 264.355L26.811 265.225ZM36.8009 257.05C37.4409 257.05 38.0009 257.175 38.4809 257.425C38.9709 257.665 39.3509 258.035 39.6209 258.535C39.9009 259.035 40.0409 259.665 40.0409 260.425V265H38.9759V260.53C38.9759 259.7 38.7659 259.075 38.3459 258.655C37.9359 258.225 37.3559 258.01 36.6059 258.01C36.0459 258.01 35.5559 258.125 35.1359 258.355C34.7259 258.575 34.4059 258.9 34.1759 259.33C33.9559 259.75 33.8459 260.26 33.8459 260.86V265H32.7809V257.125H33.8009V259.285L33.6359 258.88C33.8859 258.31 34.2859 257.865 34.8359 257.545C35.3859 257.215 36.0409 257.05 36.8009 257.05ZM47.8526 265V263.26L47.8076 262.975V260.065C47.8076 259.395 47.6176 258.88 47.2376 258.52C46.8676 258.16 46.3126 257.98 45.5726 257.98C45.0626 257.98 44.5776 258.065 44.1176 258.235C43.6576 258.405 43.2676 258.63 42.9476 258.91L42.4676 258.115C42.8676 257.775 43.3476 257.515 43.9076 257.335C44.4676 257.145 45.0576 257.05 45.6776 257.05C46.6976 257.05 47.4826 257.305 48.0326 257.815C48.5926 258.315 48.8726 259.08 48.8726 260.11V265H47.8526ZM45.1376 265.075C44.5476 265.075 44.0326 264.98 43.5926 264.79C43.1626 264.59 42.8326 264.32 42.6026 263.98C42.3726 263.63 42.2576 263.23 42.2576 262.78C42.2576 262.37 42.3526 262 42.5426 261.67C42.7426 261.33 43.0626 261.06 43.5026 260.86C43.9526 260.65 44.5526 260.545 45.3026 260.545H48.0176V261.34H45.3326C44.5726 261.34 44.0426 261.475 43.7426 261.745C43.4526 262.015 43.3076 262.35 43.3076 262.75C43.3076 263.2 43.4826 263.56 43.8326 263.83C44.1826 264.1 44.6726 264.235 45.3026 264.235C45.9026 264.235 46.4176 264.1 46.8476 263.83C47.2876 263.55 47.6076 263.15 47.8076 262.63L48.0476 263.365C47.8476 263.885 47.4976 264.3 46.9976 264.61C46.5076 264.92 45.8876 265.075 45.1376 265.075ZM61.6053 257.05C62.2453 257.05 62.8003 257.175 63.2703 257.425C63.7503 257.665 64.1203 258.035 64.3803 258.535C64.6503 259.035 64.7853 259.665 64.7853 260.425V265H63.7203V260.53C63.7203 259.7 63.5203 259.075 63.1203 258.655C62.7303 258.225 62.1753 258.01 61.4553 258.01C60.9153 258.01 60.4453 258.125 60.0453 258.355C59.6553 258.575 59.3503 258.9 59.1303 259.33C58.9203 259.75 58.8153 260.26 58.8153 260.86V265H57.7503V260.53C57.7503 259.7 57.5503 259.075 57.1503 258.655C56.7503 258.225 56.1903 258.01 55.4703 258.01C54.9403 258.01 54.4753 258.125 54.0753 258.355C53.6753 258.575 53.3653 258.9 53.1453 259.33C52.9353 259.75 52.8303 260.26 52.8303 260.86V265H51.7653V257.125H52.7853V259.255L52.6203 258.88C52.8603 258.31 53.2453 257.865 53.7753 257.545C54.3153 257.215 54.9503 257.05 55.6803 257.05C56.4503 257.05 57.1053 257.245 57.6453 257.635C58.1853 258.015 58.5353 258.59 58.6953 259.36L58.2753 259.195C58.5053 258.555 58.9103 258.04 59.4903 257.65C60.0803 257.25 60.7853 257.05 61.6053 257.05ZM67.6735 265V257.125H68.7385V265H67.6735ZM68.2135 255.385C67.9935 255.385 67.8085 255.31 67.6585 255.16C67.5085 255.01 67.4335 254.83 67.4335 254.62C67.4335 254.41 67.5085 254.235 67.6585 254.095C67.8085 253.945 67.9935 253.87 68.2135 253.87C68.4335 253.87 68.6185 253.94 68.7685 254.08C68.9185 254.22 68.9935 254.395 68.9935 254.605C68.9935 254.825 68.9185 255.01 68.7685 255.16C68.6285 255.31 68.4435 255.385 68.2135 255.385ZM74.9718 265.075C74.1918 265.075 73.4918 264.905 72.8718 264.565C72.2618 264.215 71.7818 263.74 71.4318 263.14C71.0818 262.53 70.9068 261.835 70.9068 261.055C70.9068 260.265 71.0818 259.57 71.4318 258.97C71.7818 258.37 72.2618 257.9 72.8718 257.56C73.4918 257.22 74.1918 257.05 74.9718 257.05C75.6418 257.05 76.2468 257.18 76.7868 257.44C77.3268 257.7 77.7518 258.09 78.0618 258.61L77.2668 259.15C76.9968 258.75 76.6618 258.455 76.2618 258.265C75.8618 258.075 75.4268 257.98 74.9568 257.98C74.3968 257.98 73.8918 258.11 73.4418 258.37C72.9918 258.62 72.6368 258.975 72.3768 259.435C72.1168 259.895 71.9868 260.435 71.9868 261.055C71.9868 261.675 72.1168 262.215 72.3768 262.675C72.6368 263.135 72.9918 263.495 73.4418 263.755C73.8918 264.005 74.3968 264.13 74.9568 264.13C75.4268 264.13 75.8618 264.035 76.2618 263.845C76.6618 263.655 76.9968 263.365 77.2668 262.975L78.0618 263.515C77.7518 264.025 77.3268 264.415 76.7868 264.685C76.2468 264.945 75.6418 265.075 74.9718 265.075ZM89.0147 265V263.26L88.9697 262.975V260.065C88.9697 259.395 88.7797 258.88 88.3997 258.52C88.0297 258.16 87.4747 257.98 86.7347 257.98C86.2247 257.98 85.7397 258.065 85.2797 258.235C84.8197 258.405 84.4297 258.63 84.1097 258.91L83.6297 258.115C84.0297 257.775 84.5097 257.515 85.0697 257.335C85.6297 257.145 86.2197 257.05 86.8397 257.05C87.8597 257.05 88.6447 257.305 89.1947 257.815C89.7547 258.315 90.0347 259.08 90.0347 260.11V265H89.0147ZM86.2997 265.075C85.7097 265.075 85.1947 264.98 84.7547 264.79C84.3247 264.59 83.9947 264.32 83.7647 263.98C83.5347 263.63 83.4197 263.23 83.4197 262.78C83.4197 262.37 83.5147 262 83.7047 261.67C83.9047 261.33 84.2247 261.06 84.6647 260.86C85.1147 260.65 85.7147 260.545 86.4647 260.545H89.1797V261.34H86.4947C85.7347 261.34 85.2047 261.475 84.9047 261.745C84.6147 262.015 84.4697 262.35 84.4697 262.75C84.4697 263.2 84.6447 263.56 84.9947 263.83C85.3447 264.1 85.8347 264.235 86.4647 264.235C87.0647 264.235 87.5797 264.1 88.0097 263.83C88.4497 263.55 88.7697 263.15 88.9697 262.63L89.2097 263.365C89.0097 263.885 88.6597 264.3 88.1597 264.61C87.6697 264.92 87.0497 265.075 86.2997 265.075ZM95.0424 265.075C94.3924 265.075 93.7774 264.985 93.1974 264.805C92.6174 264.615 92.1624 264.38 91.8324 264.1L92.3124 263.26C92.6324 263.5 93.0424 263.71 93.5424 263.89C94.0424 264.06 94.5674 264.145 95.1174 264.145C95.8674 264.145 96.4074 264.03 96.7374 263.8C97.0674 263.56 97.2324 263.245 97.2324 262.855C97.2324 262.565 97.1374 262.34 96.9474 262.18C96.7674 262.01 96.5274 261.885 96.2274 261.805C95.9274 261.715 95.5924 261.64 95.2224 261.58C94.8524 261.52 94.4824 261.45 94.1124 261.37C93.7524 261.29 93.4224 261.175 93.1224 261.025C92.8224 260.865 92.5774 260.65 92.3874 260.38C92.2074 260.11 92.1174 259.75 92.1174 259.3C92.1174 258.87 92.2374 258.485 92.4774 258.145C92.7174 257.805 93.0674 257.54 93.5274 257.35C93.9974 257.15 94.5674 257.05 95.2374 257.05C95.7474 257.05 96.2574 257.12 96.7674 257.26C97.2774 257.39 97.6974 257.565 98.0274 257.785L97.5624 258.64C97.2124 258.4 96.8374 258.23 96.4374 258.13C96.0374 258.02 95.6374 257.965 95.2374 257.965C94.5274 257.965 94.0024 258.09 93.6624 258.34C93.3324 258.58 93.1674 258.89 93.1674 259.27C93.1674 259.57 93.2574 259.805 93.4374 259.975C93.6274 260.145 93.8724 260.28 94.1724 260.38C94.4824 260.47 94.8174 260.545 95.1774 260.605C95.5474 260.665 95.9124 260.74 96.2724 260.83C96.6424 260.91 96.9774 261.025 97.2774 261.175C97.5874 261.315 97.8324 261.52 98.0124 261.79C98.2024 262.05 98.2974 262.395 98.2974 262.825C98.2974 263.285 98.1674 263.685 97.9074 264.025C97.6574 264.355 97.2874 264.615 96.7974 264.805C96.3174 264.985 95.7324 265.075 95.0424 265.075ZM102.367 265.075C101.717 265.075 101.102 264.985 100.522 264.805C99.9416 264.615 99.4866 264.38 99.1566 264.1L99.6366 263.26C99.9566 263.5 100.367 263.71 100.867 263.89C101.367 264.06 101.892 264.145 102.442 264.145C103.192 264.145 103.732 264.03 104.062 263.8C104.392 263.56 104.557 263.245 104.557 262.855C104.557 262.565 104.462 262.34 104.272 262.18C104.092 262.01 103.852 261.885 103.552 261.805C103.252 261.715 102.917 261.64 102.547 261.58C102.177 261.52 101.807 261.45 101.437 261.37C101.077 261.29 100.747 261.175 100.447 261.025C100.147 260.865 99.9016 260.65 99.7116 260.38C99.5316 260.11 99.4416 259.75 99.4416 259.3C99.4416 258.87 99.5616 258.485 99.8016 258.145C100.042 257.805 100.392 257.54 100.852 257.35C101.322 257.15 101.892 257.05 102.562 257.05C103.072 257.05 103.582 257.12 104.092 257.26C104.602 257.39 105.022 257.565 105.352 257.785L104.887 258.64C104.537 258.4 104.162 258.23 103.762 258.13C103.362 258.02 102.962 257.965 102.562 257.965C101.852 257.965 101.327 258.09 100.987 258.34C100.657 258.58 100.492 258.89 100.492 259.27C100.492 259.57 100.582 259.805 100.762 259.975C100.952 260.145 101.197 260.28 101.497 260.38C101.807 260.47 102.142 260.545 102.502 260.605C102.872 260.665 103.237 260.74 103.597 260.83C103.967 260.91 104.302 261.025 104.602 261.175C104.912 261.315 105.157 261.52 105.337 261.79C105.527 262.05 105.622 262.395 105.622 262.825C105.622 263.285 105.492 263.685 105.232 264.025C104.982 264.355 104.612 264.615 104.122 264.805C103.642 264.985 103.057 265.075 102.367 265.075ZM110.921 265.075C110.101 265.075 109.381 264.905 108.761 264.565C108.141 264.215 107.656 263.74 107.306 263.14C106.956 262.53 106.781 261.835 106.781 261.055C106.781 260.275 106.946 259.585 107.276 258.985C107.616 258.385 108.076 257.915 108.656 257.575C109.246 257.225 109.906 257.05 110.636 257.05C111.376 257.05 112.031 257.22 112.601 257.56C113.181 257.89 113.636 258.36 113.966 258.97C114.296 259.57 114.461 260.265 114.461 261.055C114.461 261.105 114.456 261.16 114.446 261.22C114.446 261.27 114.446 261.325 114.446 261.385H107.591V260.59H113.876L113.456 260.905C113.456 260.335 113.331 259.83 113.081 259.39C112.841 258.94 112.511 258.59 112.091 258.34C111.671 258.09 111.186 257.965 110.636 257.965C110.096 257.965 109.611 258.09 109.181 258.34C108.751 258.59 108.416 258.94 108.176 259.39C107.936 259.84 107.816 260.355 107.816 260.935V261.1C107.816 261.7 107.946 262.23 108.206 262.69C108.476 263.14 108.846 263.495 109.316 263.755C109.796 264.005 110.341 264.13 110.951 264.13C111.431 264.13 111.876 264.045 112.286 263.875C112.706 263.705 113.066 263.445 113.366 263.095L113.966 263.785C113.616 264.205 113.176 264.525 112.646 264.745C112.126 264.965 111.551 265.075 110.921 265.075ZM118.744 265.075C118.094 265.075 117.479 264.985 116.899 264.805C116.319 264.615 115.864 264.38 115.534 264.1L116.014 263.26C116.334 263.5 116.744 263.71 117.244 263.89C117.744 264.06 118.269 264.145 118.819 264.145C119.569 264.145 120.109 264.03 120.439 263.8C120.769 263.56 120.934 263.245 120.934 262.855C120.934 262.565 120.839 262.34 120.649 262.18C120.469 262.01 120.229 261.885 119.929 261.805C119.629 261.715 119.294 261.64 118.924 261.58C118.554 261.52 118.184 261.45 117.814 261.37C117.454 261.29 117.124 261.175 116.824 261.025C116.524 260.865 116.279 260.65 116.089 260.38C115.909 260.11 115.819 259.75 115.819 259.3C115.819 258.87 115.939 258.485 116.179 258.145C116.419 257.805 116.769 257.54 117.229 257.35C117.699 257.15 118.269 257.05 118.939 257.05C119.449 257.05 119.959 257.12 120.469 257.26C120.979 257.39 121.399 257.565 121.729 257.785L121.264 258.64C120.914 258.4 120.539 258.23 120.139 258.13C119.739 258.02 119.339 257.965 118.939 257.965C118.229 257.965 117.704 258.09 117.364 258.34C117.034 258.58 116.869 258.89 116.869 259.27C116.869 259.57 116.959 259.805 117.139 259.975C117.329 260.145 117.574 260.28 117.874 260.38C118.184 260.47 118.519 260.545 118.879 260.605C119.249 260.665 119.614 260.74 119.974 260.83C120.344 260.91 120.679 261.025 120.979 261.175C121.289 261.315 121.534 261.52 121.714 261.79C121.904 262.05 121.999 262.395 121.999 262.825C121.999 263.285 121.869 263.685 121.609 264.025C121.359 264.355 120.989 264.615 120.499 264.805C120.019 264.985 119.434 265.075 118.744 265.075ZM126.068 265.075C125.418 265.075 124.803 264.985 124.223 264.805C123.643 264.615 123.188 264.38 122.858 264.1L123.338 263.26C123.658 263.5 124.068 263.71 124.568 263.89C125.068 264.06 125.593 264.145 126.143 264.145C126.893 264.145 127.433 264.03 127.763 263.8C128.093 263.56 128.258 263.245 128.258 262.855C128.258 262.565 128.163 262.34 127.973 262.18C127.793 262.01 127.553 261.885 127.253 261.805C126.953 261.715 126.618 261.64 126.248 261.58C125.878 261.52 125.508 261.45 125.138 261.37C124.778 261.29 124.448 261.175 124.148 261.025C123.848 260.865 123.603 260.65 123.413 260.38C123.233 260.11 123.143 259.75 123.143 259.3C123.143 258.87 123.263 258.485 123.503 258.145C123.743 257.805 124.093 257.54 124.553 257.35C125.023 257.15 125.593 257.05 126.263 257.05C126.773 257.05 127.283 257.12 127.793 257.26C128.303 257.39 128.723 257.565 129.053 257.785L128.588 258.64C128.238 258.4 127.863 258.23 127.463 258.13C127.063 258.02 126.663 257.965 126.263 257.965C125.553 257.965 125.028 258.09 124.688 258.34C124.358 258.58 124.193 258.89 124.193 259.27C124.193 259.57 124.283 259.805 124.463 259.975C124.653 260.145 124.898 260.28 125.198 260.38C125.508 260.47 125.843 260.545 126.203 260.605C126.573 260.665 126.938 260.74 127.298 260.83C127.668 260.91 128.003 261.025 128.303 261.175C128.613 261.315 128.858 261.52 129.038 261.79C129.228 262.05 129.323 262.395 129.323 262.825C129.323 263.285 129.193 263.685 128.933 264.025C128.683 264.355 128.313 264.615 127.823 264.805C127.343 264.985 126.758 265.075 126.068 265.075ZM141.117 257.05C141.757 257.05 142.312 257.175 142.782 257.425C143.262 257.665 143.632 258.035 143.892 258.535C144.162 259.035 144.297 259.665 144.297 260.425V265H143.232V260.53C143.232 259.7 143.032 259.075 142.632 258.655C142.242 258.225 141.687 258.01 140.967 258.01C140.427 258.01 139.957 258.125 139.557 258.355C139.167 258.575 138.862 258.9 138.642 259.33C138.432 259.75 138.327 260.26 138.327 260.86V265H137.262V260.53C137.262 259.7 137.062 259.075 136.662 258.655C136.262 258.225 135.702 258.01 134.982 258.01C134.452 258.01 133.987 258.125 133.587 258.355C133.187 258.575 132.877 258.9 132.657 259.33C132.447 259.75 132.342 260.26 132.342 260.86V265H131.277V257.125H132.297V259.255L132.132 258.88C132.372 258.31 132.757 257.865 133.287 257.545C133.827 257.215 134.462 257.05 135.192 257.05C135.962 257.05 136.617 257.245 137.157 257.635C137.697 258.015 138.047 258.59 138.207 259.36L137.787 259.195C138.017 258.555 138.422 258.04 139.002 257.65C139.592 257.25 140.297 257.05 141.117 257.05ZM150.53 265.075C149.71 265.075 148.99 264.905 148.37 264.565C147.75 264.215 147.265 263.74 146.915 263.14C146.565 262.53 146.39 261.835 146.39 261.055C146.39 260.275 146.555 259.585 146.885 258.985C147.225 258.385 147.685 257.915 148.265 257.575C148.855 257.225 149.515 257.05 150.245 257.05C150.985 257.05 151.64 257.22 152.21 257.56C152.79 257.89 153.245 258.36 153.575 258.97C153.905 259.57 154.07 260.265 154.07 261.055C154.07 261.105 154.065 261.16 154.055 261.22C154.055 261.27 154.055 261.325 154.055 261.385H147.2V260.59H153.485L153.065 260.905C153.065 260.335 152.94 259.83 152.69 259.39C152.45 258.94 152.12 258.59 151.7 258.34C151.28 258.09 150.795 257.965 150.245 257.965C149.705 257.965 149.22 258.09 148.79 258.34C148.36 258.59 148.025 258.94 147.785 259.39C147.545 259.84 147.425 260.355 147.425 260.935V261.1C147.425 261.7 147.555 262.23 147.815 262.69C148.085 263.14 148.455 263.495 148.925 263.755C149.405 264.005 149.95 264.13 150.56 264.13C151.04 264.13 151.485 264.045 151.895 263.875C152.315 263.705 152.675 263.445 152.975 263.095L153.575 263.785C153.225 264.205 152.785 264.525 152.255 264.745C151.735 264.965 151.16 265.075 150.53 265.075ZM160.258 257.05C160.898 257.05 161.458 257.175 161.938 257.425C162.428 257.665 162.808 258.035 163.078 258.535C163.358 259.035 163.498 259.665 163.498 260.425V265H162.433V260.53C162.433 259.7 162.223 259.075 161.803 258.655C161.393 258.225 160.813 258.01 160.063 258.01C159.503 258.01 159.013 258.125 158.593 258.355C158.183 258.575 157.863 258.9 157.633 259.33C157.413 259.75 157.303 260.26 157.303 260.86V265H156.238V257.125H157.258V259.285L157.093 258.88C157.343 258.31 157.743 257.865 158.293 257.545C158.843 257.215 159.498 257.05 160.258 257.05ZM168.865 265.075C168.125 265.075 167.555 264.875 167.155 264.475C166.755 264.075 166.555 263.51 166.555 262.78V255.385H167.62V262.72C167.62 263.18 167.735 263.535 167.965 263.785C168.205 264.035 168.545 264.16 168.985 264.16C169.455 264.16 169.845 264.025 170.155 263.755L170.53 264.52C170.32 264.71 170.065 264.85 169.765 264.94C169.475 265.03 169.175 265.075 168.865 265.075ZM165.145 258.01V257.125H170.02V258.01H165.145ZM179.739 265.075C178.919 265.075 178.199 264.905 177.579 264.565C176.959 264.215 176.474 263.74 176.124 263.14C175.774 262.53 175.599 261.835 175.599 261.055C175.599 260.275 175.764 259.585 176.094 258.985C176.434 258.385 176.894 257.915 177.474 257.575C178.064 257.225 178.724 257.05 179.454 257.05C180.194 257.05 180.849 257.22 181.419 257.56C181.999 257.89 182.454 258.36 182.784 258.97C183.114 259.57 183.279 260.265 183.279 261.055C183.279 261.105 183.274 261.16 183.264 261.22C183.264 261.27 183.264 261.325 183.264 261.385H176.409V260.59H182.694L182.274 260.905C182.274 260.335 182.149 259.83 181.899 259.39C181.659 258.94 181.329 258.59 180.909 258.34C180.489 258.09 180.004 257.965 179.454 257.965C178.914 257.965 178.429 258.09 177.999 258.34C177.569 258.59 177.234 258.94 176.994 259.39C176.754 259.84 176.634 260.355 176.634 260.935V261.1C176.634 261.7 176.764 262.23 177.024 262.69C177.294 263.14 177.664 263.495 178.134 263.755C178.614 264.005 179.159 264.13 179.769 264.13C180.249 264.13 180.694 264.045 181.104 263.875C181.524 263.705 181.884 263.445 182.184 263.095L182.784 263.785C182.434 264.205 181.994 264.525 181.464 264.745C180.944 264.965 180.369 265.075 179.739 265.075ZM184.027 265L187.357 260.68L187.342 261.205L184.177 257.125H185.377L187.972 260.5L187.522 260.485L190.117 257.125H191.287L188.092 261.25L188.107 260.68L191.467 265H190.252L187.507 261.4L187.927 261.46L185.227 265H184.027ZM197.305 265.075C196.625 265.075 196.01 264.92 195.46 264.61C194.91 264.29 194.47 263.835 194.14 263.245C193.82 262.645 193.66 261.915 193.66 261.055C193.66 260.195 193.82 259.47 194.14 258.88C194.46 258.28 194.895 257.825 195.445 257.515C195.995 257.205 196.615 257.05 197.305 257.05C198.055 257.05 198.725 257.22 199.315 257.56C199.915 257.89 200.385 258.36 200.725 258.97C201.065 259.57 201.235 260.265 201.235 261.055C201.235 261.855 201.065 262.555 200.725 263.155C200.385 263.755 199.915 264.225 199.315 264.565C198.725 264.905 198.055 265.075 197.305 265.075ZM193.24 267.91V257.125H194.26V259.495L194.155 261.07L194.305 262.66V267.91H193.24ZM197.23 264.13C197.79 264.13 198.29 264.005 198.73 263.755C199.17 263.495 199.52 263.135 199.78 262.675C200.04 262.205 200.17 261.665 200.17 261.055C200.17 260.445 200.04 259.91 199.78 259.45C199.52 258.99 199.17 258.63 198.73 258.37C198.29 258.11 197.79 257.98 197.23 257.98C196.67 257.98 196.165 258.11 195.715 258.37C195.275 258.63 194.925 258.99 194.665 259.45C194.415 259.91 194.29 260.445 194.29 261.055C194.29 261.665 194.415 262.205 194.665 262.675C194.925 263.135 195.275 263.495 195.715 263.755C196.165 264.005 196.67 264.13 197.23 264.13ZM206.751 265.075C205.931 265.075 205.211 264.905 204.591 264.565C203.971 264.215 203.486 263.74 203.136 263.14C202.786 262.53 202.611 261.835 202.611 261.055C202.611 260.275 202.776 259.585 203.106 258.985C203.446 258.385 203.906 257.915 204.486 257.575C205.076 257.225 205.736 257.05 206.466 257.05C207.206 257.05 207.861 257.22 208.431 257.56C209.011 257.89 209.466 258.36 209.796 258.97C210.126 259.57 210.291 260.265 210.291 261.055C210.291 261.105 210.286 261.16 210.276 261.22C210.276 261.27 210.276 261.325 210.276 261.385H203.421V260.59H209.706L209.286 260.905C209.286 260.335 209.161 259.83 208.911 259.39C208.671 258.94 208.341 258.59 207.921 258.34C207.501 258.09 207.016 257.965 206.466 257.965C205.926 257.965 205.441 258.09 205.011 258.34C204.581 258.59 204.246 258.94 204.006 259.39C203.766 259.84 203.646 260.355 203.646 260.935V261.1C203.646 261.7 203.776 262.23 204.036 262.69C204.306 263.14 204.676 263.495 205.146 263.755C205.626 264.005 206.171 264.13 206.781 264.13C207.261 264.13 207.706 264.045 208.116 263.875C208.536 263.705 208.896 263.445 209.196 263.095L209.796 263.785C209.446 264.205 209.006 264.525 208.476 264.745C207.956 264.965 207.381 265.075 206.751 265.075ZM212.459 265V257.125H213.479V259.27L213.374 258.895C213.594 258.295 213.964 257.84 214.484 257.53C215.004 257.21 215.649 257.05 216.419 257.05V258.085C216.379 258.085 216.339 258.085 216.299 258.085C216.259 258.075 216.219 258.07 216.179 258.07C215.349 258.07 214.699 258.325 214.229 258.835C213.759 259.335 213.524 260.05 213.524 260.98V265H212.459ZM218.362 265V257.125H219.427V265H218.362ZM218.902 255.385C218.682 255.385 218.497 255.31 218.347 255.16C218.197 255.01 218.122 254.83 218.122 254.62C218.122 254.41 218.197 254.235 218.347 254.095C218.497 253.945 218.682 253.87 218.902 253.87C219.122 253.87 219.307 253.94 219.457 254.08C219.607 254.22 219.682 254.395 219.682 254.605C219.682 254.825 219.607 255.01 219.457 255.16C219.317 255.31 219.132 255.385 218.902 255.385ZM225.735 265.075C224.915 265.075 224.195 264.905 223.575 264.565C222.955 264.215 222.47 263.74 222.12 263.14C221.77 262.53 221.595 261.835 221.595 261.055C221.595 260.275 221.76 259.585 222.09 258.985C222.43 258.385 222.89 257.915 223.47 257.575C224.06 257.225 224.72 257.05 225.45 257.05C226.19 257.05 226.845 257.22 227.415 257.56C227.995 257.89 228.45 258.36 228.78 258.97C229.11 259.57 229.275 260.265 229.275 261.055C229.275 261.105 229.27 261.16 229.26 261.22C229.26 261.27 229.26 261.325 229.26 261.385H222.405V260.59H228.69L228.27 260.905C228.27 260.335 228.145 259.83 227.895 259.39C227.655 258.94 227.325 258.59 226.905 258.34C226.485 258.09 226 257.965 225.45 257.965C224.91 257.965 224.425 258.09 223.995 258.34C223.565 258.59 223.23 258.94 222.99 259.39C222.75 259.84 222.63 260.355 222.63 260.935V261.1C222.63 261.7 222.76 262.23 223.02 262.69C223.29 263.14 223.66 263.495 224.13 263.755C224.61 264.005 225.155 264.13 225.765 264.13C226.245 264.13 226.69 264.045 227.1 263.875C227.52 263.705 227.88 263.445 228.18 263.095L228.78 263.785C228.43 264.205 227.99 264.525 227.46 264.745C226.94 264.965 226.365 265.075 225.735 265.075ZM235.463 257.05C236.103 257.05 236.663 257.175 237.143 257.425C237.633 257.665 238.013 258.035 238.283 258.535C238.563 259.035 238.703 259.665 238.703 260.425V265H237.638V260.53C237.638 259.7 237.428 259.075 237.008 258.655C236.598 258.225 236.018 258.01 235.268 258.01C234.708 258.01 234.218 258.125 233.798 258.355C233.388 258.575 233.068 258.9 232.838 259.33C232.618 259.75 232.508 260.26 232.508 260.86V265H231.443V257.125H232.463V259.285L232.298 258.88C232.548 258.31 232.948 257.865 233.498 257.545C234.048 257.215 234.703 257.05 235.463 257.05ZM244.85 265.075C244.07 265.075 243.37 264.905 242.75 264.565C242.14 264.215 241.66 263.74 241.31 263.14C240.96 262.53 240.785 261.835 240.785 261.055C240.785 260.265 240.96 259.57 241.31 258.97C241.66 258.37 242.14 257.9 242.75 257.56C243.37 257.22 244.07 257.05 244.85 257.05C245.52 257.05 246.125 257.18 246.665 257.44C247.205 257.7 247.63 258.09 247.94 258.61L247.145 259.15C246.875 258.75 246.54 258.455 246.14 258.265C245.74 258.075 245.305 257.98 244.835 257.98C244.275 257.98 243.77 258.11 243.32 258.37C242.87 258.62 242.515 258.975 242.255 259.435C241.995 259.895 241.865 260.435 241.865 261.055C241.865 261.675 241.995 262.215 242.255 262.675C242.515 263.135 242.87 263.495 243.32 263.755C243.77 264.005 244.275 264.13 244.835 264.13C245.305 264.13 245.74 264.035 246.14 263.845C246.54 263.655 246.875 263.365 247.145 262.975L247.94 263.515C247.63 264.025 247.205 264.415 246.665 264.685C246.125 264.945 245.52 265.075 244.85 265.075ZM253.245 265.075C252.425 265.075 251.705 264.905 251.085 264.565C250.465 264.215 249.98 263.74 249.63 263.14C249.28 262.53 249.105 261.835 249.105 261.055C249.105 260.275 249.27 259.585 249.6 258.985C249.94 258.385 250.4 257.915 250.98 257.575C251.57 257.225 252.23 257.05 252.96 257.05C253.7 257.05 254.355 257.22 254.925 257.56C255.505 257.89 255.96 258.36 256.29 258.97C256.62 259.57 256.785 260.265 256.785 261.055C256.785 261.105 256.78 261.16 256.77 261.22C256.77 261.27 256.77 261.325 256.77 261.385H249.915V260.59H256.2L255.78 260.905C255.78 260.335 255.655 259.83 255.405 259.39C255.165 258.94 254.835 258.59 254.415 258.34C253.995 258.09 253.51 257.965 252.96 257.965C252.42 257.965 251.935 258.09 251.505 258.34C251.075 258.59 250.74 258.94 250.5 259.39C250.26 259.84 250.14 260.355 250.14 260.935V261.1C250.14 261.7 250.27 262.23 250.53 262.69C250.8 263.14 251.17 263.495 251.64 263.755C252.12 264.005 252.665 264.13 253.275 264.13C253.755 264.13 254.2 264.045 254.61 263.875C255.03 263.705 255.39 263.445 255.69 263.095L256.29 263.785C255.94 264.205 255.5 264.525 254.97 264.745C254.45 264.965 253.875 265.075 253.245 265.075ZM259.058 265.075C258.838 265.075 258.648 264.995 258.488 264.835C258.338 264.675 258.263 264.48 258.263 264.25C258.263 264.01 258.338 263.815 258.488 263.665C258.648 263.515 258.838 263.44 259.058 263.44C259.278 263.44 259.463 263.515 259.613 263.665C259.773 263.815 259.853 264.01 259.853 264.25C259.853 264.48 259.773 264.675 259.613 264.835C259.463 264.995 259.278 265.075 259.058 265.075Z" fill="#434343"/>
<path d="M14.66 187V173H17.34L23.3 182.88H21.88L27.74 173H30.4L30.44 187H27.4L27.38 177.66H27.94L23.26 185.52H21.8L17.02 177.66H17.7V187H14.66ZM38.0816 187.16C37.1882 187.16 36.3882 186.987 35.6816 186.64C34.9882 186.293 34.4482 185.767 34.0616 185.06C33.6749 184.34 33.4816 183.427 33.4816 182.32V176.24H36.6016V181.86C36.6016 182.753 36.7882 183.413 37.1616 183.84C37.5482 184.253 38.0882 184.46 38.7816 184.46C39.2616 184.46 39.6882 184.36 40.0616 184.16C40.4349 183.947 40.7282 183.627 40.9416 183.2C41.1549 182.76 41.2616 182.213 41.2616 181.56V176.24H44.3816V187H41.4216V184.04L41.9616 184.9C41.6016 185.647 41.0682 186.213 40.3616 186.6C39.6682 186.973 38.9082 187.16 38.0816 187.16ZM47.272 187V172.16H50.392V187H47.272ZM58.4884 187.16C57.2218 187.16 56.2351 186.84 55.5284 186.2C54.8218 185.547 54.4684 184.58 54.4684 183.3V173.86H57.5884V183.26C57.5884 183.713 57.7084 184.067 57.9484 184.32C58.1884 184.56 58.5151 184.68 58.9284 184.68C59.4218 184.68 59.8418 184.547 60.1884 184.28L61.0284 186.48C60.7084 186.707 60.3218 186.88 59.8684 187C59.4284 187.107 58.9684 187.16 58.4884 187.16ZM52.8084 178.88V176.48H60.2684V178.88H52.8084ZM62.7798 187V176.24H65.8998V187H62.7798ZM64.3398 174.74C63.7665 174.74 63.2998 174.573 62.9398 174.24C62.5798 173.907 62.3998 173.493 62.3998 173C62.3998 172.507 62.5798 172.093 62.9398 171.76C63.2998 171.427 63.7665 171.26 64.3398 171.26C64.9132 171.26 65.3798 171.42 65.7398 171.74C66.0998 172.047 66.2798 172.447 66.2798 172.94C66.2798 173.46 66.0998 173.893 65.7398 174.24C65.3932 174.573 64.9265 174.74 64.3398 174.74ZM75.1555 187.16C74.2488 187.16 73.4555 186.96 72.7755 186.56C72.0955 186.16 71.5621 185.553 71.1755 184.74C70.8021 183.913 70.6155 182.873 70.6155 181.62C70.6155 180.353 70.7955 179.313 71.1555 178.5C71.5155 177.687 72.0355 177.08 72.7155 176.68C73.3955 176.28 74.2088 176.08 75.1555 176.08C76.1688 176.08 77.0755 176.313 77.8755 176.78C78.6888 177.233 79.3288 177.873 79.7955 178.7C80.2755 179.527 80.5155 180.5 80.5155 181.62C80.5155 182.753 80.2755 183.733 79.7955 184.56C79.3288 185.387 78.6888 186.027 77.8755 186.48C77.0755 186.933 76.1688 187.16 75.1555 187.16ZM68.7955 190.88V176.24H71.7755V178.44L71.7155 181.64L71.9155 184.82V190.88H68.7955ZM74.6155 184.6C75.1355 184.6 75.5955 184.48 75.9955 184.24C76.4088 184 76.7355 183.66 76.9755 183.22C77.2288 182.767 77.3555 182.233 77.3555 181.62C77.3555 180.993 77.2288 180.46 76.9755 180.02C76.7355 179.58 76.4088 179.24 75.9955 179C75.5955 178.76 75.1355 178.64 74.6155 178.64C74.0955 178.64 73.6288 178.76 73.2155 179C72.8021 179.24 72.4755 179.58 72.2355 180.02C71.9955 180.46 71.8755 180.993 71.8755 181.62C71.8755 182.233 71.9955 182.767 72.2355 183.22C72.4755 183.66 72.8021 184 73.2155 184.24C73.6288 184.48 74.0955 184.6 74.6155 184.6ZM82.6041 187V172.16H85.7241V187H82.6041ZM93.9597 187.16C92.733 187.16 91.653 186.92 90.7197 186.44C89.7997 185.96 89.0864 185.307 88.5797 184.48C88.073 183.64 87.8197 182.687 87.8197 181.62C87.8197 180.54 88.0664 179.587 88.5597 178.76C89.0664 177.92 89.753 177.267 90.6197 176.8C91.4864 176.32 92.4664 176.08 93.5597 176.08C94.613 176.08 95.5597 176.307 96.3997 176.76C97.253 177.2 97.9264 177.84 98.4197 178.68C98.913 179.507 99.1597 180.5 99.1597 181.66C99.1597 181.78 99.153 181.92 99.1397 182.08C99.1264 182.227 99.113 182.367 99.0997 182.5H90.3597V180.68H97.4597L96.2597 181.22C96.2597 180.66 96.1464 180.173 95.9197 179.76C95.693 179.347 95.3797 179.027 94.9797 178.8C94.5797 178.56 94.113 178.44 93.5797 178.44C93.0464 178.44 92.573 178.56 92.1597 178.8C91.7597 179.027 91.4464 179.353 91.2197 179.78C90.993 180.193 90.8797 180.687 90.8797 181.26V181.74C90.8797 182.327 91.0064 182.847 91.2597 183.3C91.5264 183.74 91.893 184.08 92.3597 184.32C92.8397 184.547 93.3997 184.66 94.0397 184.66C94.613 184.66 95.113 184.573 95.5397 184.4C95.9797 184.227 96.3797 183.967 96.7397 183.62L98.3997 185.42C97.9064 185.98 97.2864 186.413 96.5397 186.72C95.793 187.013 94.933 187.16 93.9597 187.16ZM110.101 178.64H116.841V181.16H110.101V178.64ZM110.341 184.4H117.961V187H107.121V173H117.701V175.6H110.341V184.4ZM118.842 187L123.662 180.68L123.602 182.4L118.982 176.24H122.482L125.402 180.26L124.082 180.3L127.102 176.24H130.422L125.782 182.34V180.66L130.582 187H127.042L123.982 182.72L125.282 182.9L122.242 187H118.842ZM138.501 187V184.9L138.301 184.44V180.68C138.301 180.013 138.094 179.493 137.681 179.12C137.281 178.747 136.661 178.56 135.821 178.56C135.248 178.56 134.681 178.653 134.121 178.84C133.574 179.013 133.108 179.253 132.721 179.56L131.601 177.38C132.188 176.967 132.894 176.647 133.721 176.42C134.548 176.193 135.388 176.08 136.241 176.08C137.881 176.08 139.154 176.467 140.061 177.24C140.968 178.013 141.421 179.22 141.421 180.86V187H138.501ZM135.221 187.16C134.381 187.16 133.661 187.02 133.061 186.74C132.461 186.447 132.001 186.053 131.681 185.56C131.361 185.067 131.201 184.513 131.201 183.9C131.201 183.26 131.354 182.7 131.661 182.22C131.981 181.74 132.481 181.367 133.161 181.1C133.841 180.82 134.728 180.68 135.821 180.68H138.681V182.5H136.161C135.428 182.5 134.921 182.62 134.641 182.86C134.374 183.1 134.241 183.4 134.241 183.76C134.241 184.16 134.394 184.48 134.701 184.72C135.021 184.947 135.454 185.06 136.001 185.06C136.521 185.06 136.988 184.94 137.401 184.7C137.814 184.447 138.114 184.08 138.301 183.6L138.781 185.04C138.554 185.733 138.141 186.26 137.541 186.62C136.941 186.98 136.168 187.16 135.221 187.16ZM158.025 176.08C158.878 176.08 159.631 176.253 160.285 176.6C160.951 176.933 161.471 177.453 161.845 178.16C162.231 178.853 162.425 179.747 162.425 180.84V187H159.305V181.32C159.305 180.453 159.125 179.813 158.765 179.4C158.405 178.987 157.898 178.78 157.245 178.78C156.791 178.78 156.385 178.887 156.025 179.1C155.665 179.3 155.385 179.607 155.185 180.02C154.985 180.433 154.885 180.96 154.885 181.6V187H151.765V181.32C151.765 180.453 151.585 179.813 151.225 179.4C150.878 178.987 150.378 178.78 149.725 178.78C149.271 178.78 148.865 178.887 148.505 179.1C148.145 179.3 147.865 179.607 147.665 180.02C147.465 180.433 147.365 180.96 147.365 181.6V187H144.245V176.24H147.225V179.18L146.665 178.32C147.038 177.587 147.565 177.033 148.245 176.66C148.938 176.273 149.725 176.08 150.605 176.08C151.591 176.08 152.451 176.333 153.185 176.84C153.931 177.333 154.425 178.093 154.665 179.12L153.565 178.82C153.925 177.98 154.498 177.313 155.285 176.82C156.085 176.327 156.998 176.08 158.025 176.08ZM174.105 179.3H180.825V181.9H174.105V179.3ZM174.345 187H171.105V173H181.685V175.6H174.345V187ZM188.525 187.16C187.378 187.16 186.358 186.92 185.465 186.44C184.585 185.96 183.885 185.307 183.365 184.48C182.858 183.64 182.605 182.687 182.605 181.62C182.605 180.54 182.858 179.587 183.365 178.76C183.885 177.92 184.585 177.267 185.465 176.8C186.358 176.32 187.378 176.08 188.525 176.08C189.658 176.08 190.672 176.32 191.565 176.8C192.458 177.267 193.158 177.913 193.665 178.74C194.172 179.567 194.425 180.527 194.425 181.62C194.425 182.687 194.172 183.64 193.665 184.48C193.158 185.307 192.458 185.96 191.565 186.44C190.672 186.92 189.658 187.16 188.525 187.16ZM188.525 184.6C189.045 184.6 189.512 184.48 189.925 184.24C190.338 184 190.665 183.66 190.905 183.22C191.145 182.767 191.265 182.233 191.265 181.62C191.265 180.993 191.145 180.46 190.905 180.02C190.665 179.58 190.338 179.24 189.925 179C189.512 178.76 189.045 178.64 188.525 178.64C188.005 178.64 187.538 178.76 187.125 179C186.712 179.24 186.378 179.58 186.125 180.02C185.885 180.46 185.765 180.993 185.765 181.62C185.765 182.233 185.885 182.767 186.125 183.22C186.378 183.66 186.712 184 187.125 184.24C187.538 184.48 188.005 184.6 188.525 184.6ZM196.51 187V176.24H199.49V179.28L199.07 178.4C199.39 177.64 199.904 177.067 200.61 176.68C201.317 176.28 202.177 176.08 203.19 176.08V178.96C203.057 178.947 202.937 178.94 202.83 178.94C202.724 178.927 202.61 178.92 202.49 178.92C201.637 178.92 200.944 179.167 200.41 179.66C199.89 180.14 199.63 180.893 199.63 181.92V187H196.51ZM218.845 176.08C219.698 176.08 220.452 176.253 221.105 176.6C221.772 176.933 222.292 177.453 222.665 178.16C223.052 178.853 223.245 179.747 223.245 180.84V187H220.125V181.32C220.125 180.453 219.945 179.813 219.585 179.4C219.225 178.987 218.718 178.78 218.065 178.78C217.612 178.78 217.205 178.887 216.845 179.1C216.485 179.3 216.205 179.607 216.005 180.02C215.805 180.433 215.705 180.96 215.705 181.6V187H212.585V181.32C212.585 180.453 212.405 179.813 212.045 179.4C211.698 178.987 211.198 178.78 210.545 178.78C210.092 178.78 209.685 178.887 209.325 179.1C208.965 179.3 208.685 179.607 208.485 180.02C208.285 180.433 208.185 180.96 208.185 181.6V187H205.065V176.24H208.045V179.18L207.485 178.32C207.858 177.587 208.385 177.033 209.065 176.66C209.758 176.273 210.545 176.08 211.425 176.08C212.412 176.08 213.272 176.333 214.005 176.84C214.752 177.333 215.245 178.093 215.485 179.12L214.385 178.82C214.745 177.98 215.318 177.313 216.105 176.82C216.905 176.327 217.818 176.08 218.845 176.08ZM229.662 187.16C228.742 187.16 227.855 187.053 227.002 186.84C226.162 186.613 225.495 186.333 225.002 186L226.042 183.76C226.535 184.067 227.115 184.32 227.782 184.52C228.462 184.707 229.128 184.8 229.782 184.8C230.502 184.8 231.008 184.713 231.302 184.54C231.608 184.367 231.762 184.127 231.762 183.82C231.762 183.567 231.642 183.38 231.402 183.26C231.175 183.127 230.868 183.027 230.482 182.96C230.095 182.893 229.668 182.827 229.202 182.76C228.748 182.693 228.288 182.607 227.822 182.5C227.355 182.38 226.928 182.207 226.542 181.98C226.155 181.753 225.842 181.447 225.602 181.06C225.375 180.673 225.262 180.173 225.262 179.56C225.262 178.88 225.455 178.28 225.842 177.76C226.242 177.24 226.815 176.833 227.562 176.54C228.308 176.233 229.202 176.08 230.242 176.08C230.975 176.08 231.722 176.16 232.482 176.32C233.242 176.48 233.875 176.713 234.382 177.02L233.342 179.24C232.822 178.933 232.295 178.727 231.762 178.62C231.242 178.5 230.735 178.44 230.242 178.44C229.548 178.44 229.042 178.533 228.722 178.72C228.402 178.907 228.242 179.147 228.242 179.44C228.242 179.707 228.355 179.907 228.582 180.04C228.822 180.173 229.135 180.28 229.522 180.36C229.908 180.44 230.328 180.513 230.782 180.58C231.248 180.633 231.715 180.72 232.182 180.84C232.648 180.96 233.068 181.133 233.442 181.36C233.828 181.573 234.142 181.873 234.382 182.26C234.622 182.633 234.742 183.127 234.742 183.74C234.742 184.407 234.542 185 234.142 185.52C233.742 186.027 233.162 186.427 232.402 186.72C231.655 187.013 230.742 187.16 229.662 187.16Z" fill="#434343"/>
<g clip-path="url(#clip0_87_727)">
<g filter="url(#filter1_d_87_727)">
<path d="M193.625 131H119.375C115.963 131 113.188 128.309 113.188 125V107H119.375V125H193.625V107H199.812V125C199.812 128.309 197.037 131 193.625 131Z" fill="#6362E3"/>
</g>
<g filter="url(#filter2_d_87_727)">
<path d="M159.594 98V110C159.594 110.796 159.92 111.559 160.5 112.121C161.08 112.684 161.867 113 162.688 113H175.062C175.883 113 176.67 112.684 177.25 112.121C177.83 111.559 178.156 110.796 178.156 110V98C178.156 97.2044 177.83 96.4413 177.25 95.8787C176.67 95.3161 175.883 95 175.062 95H162.688C161.867 95 161.08 95.3161 160.5 95.8787C159.92 96.4413 159.594 97.2044 159.594 98ZM165.781 101H171.969V107H165.781V101ZM134.844 98V110C134.844 110.796 135.17 111.559 135.75 112.121C136.33 112.684 137.117 113 137.938 113H150.312C151.133 113 151.92 112.684 152.5 112.121C153.08 111.559 153.406 110.796 153.406 110V98C153.406 97.2044 153.08 96.4413 152.5 95.8787C151.92 95.3161 151.133 95 150.312 95H137.938C137.117 95 136.33 95.3161 135.75 95.8787C135.17 96.4413 134.844 97.2044 134.844 98ZM141.031 101H147.219V107H141.031V101ZM159.594 74V86C159.594 86.7956 159.92 87.5587 160.5 88.1213C161.08 88.6839 161.867 89 162.688 89H175.062C175.883 89 176.67 88.6839 177.25 88.1213C177.83 87.5587 178.156 86.7956 178.156 86V74C178.156 73.2044 177.83 72.4413 177.25 71.8787C176.67 71.3161 175.883 71 175.062 71H162.688C161.867 71 161.08 71.3161 160.5 71.8787C159.92 72.4413 159.594 73.2044 159.594 74ZM165.781 77H171.969V83H165.781V77ZM122.469 62V86C122.469 86.7956 122.795 87.5587 123.375 88.1213C123.955 88.6839 124.742 89 125.562 89H150.312C151.133 89 151.92 88.6839 152.5 88.1213C153.08 87.5587 153.406 86.7956 153.406 86V62C153.406 61.2044 153.08 60.4413 152.5 59.8787C151.92 59.3161 151.133 59 150.312 59H125.562C124.742 59 123.955 59.3161 123.375 59.8787C122.795 60.4413 122.469 61.2044 122.469 62ZM128.656 65H147.219V83H128.656V65Z" fill="#6362E3"/>
</g>
</g>
<defs>
<filter id="filter0_di_87_727" x="0" y="0" width="314" height="342" filterUnits="userSpaceOnUse" color-interpolation-filters="sRGB">
<feFlood flood-opacity="0" result="BackgroundImageFix"/>
<feColorMatrix in="SourceAlpha" type="matrix" values="0 0 0 0 0 0 0 0 0 0 0 0 0 0 0 0 0 0 127 0" result="hardAlpha"/>
<feOffset dy="4"/>
<feGaussianBlur stdDeviation="2"/>
<feComposite in2="hardAlpha" operator="out"/>
<feColorMatrix type="matrix" values="0 0 0 0 0 0 0 0 0 0 0 0 0 0 0 0 0 0 0.25 0"/>
<feBlend mode="normal" in2="BackgroundImageFix" result="effect1_dropShadow_87_727"/>
<feBlend mode="normal" in="SourceGraphic" in2="effect1_dropShadow_87_727" result="shape"/>
<feColorMatrix in="SourceAlpha" type="matrix" values="0 0 0 0 0 0 0 0 0 0 0 0 0 0 0 0 0 0 127 0" result="hardAlpha"/>
<feOffset dy="10"/>
<feGaussianBlur stdDeviation="3"/>
<feComposite in2="hardAlpha" operator="arithmetic" k2="-1" k3="1"/>
<feColorMatrix type="matrix" values="0 0 0 0 0 0 0 0 0 0 0 0 0 0 0 0 0 0 0.25 0"/>
<feBlend mode="normal" in2="shape" result="effect2_innerShadow_87_727"/>
</filter>
<filter id="filter1_d_87_727" x="109.188" y="107" width="94.625" height="32" filterUnits="userSpaceOnUse" color-interpolation-filters="sRGB">
<feFlood flood-opacity="0" result="BackgroundImageFix"/>
<feColorMatrix in="SourceAlpha" type="matrix" values="0 0 0 0 0 0 0 0 0 0 0 0 0 0 0 0 0 0 127 0" result="hardAlpha"/>
<feOffset dy="4"/>
<feGaussianBlur stdDeviation="2"/>
<feComposite in2="hardAlpha" operator="out"/>
<feColorMatrix type="matrix" values="0 0 0 0 0 0 0 0 0 0 0 0 0 0 0 0 0 0 0.25 0"/>
<feBlend mode="normal" in2="BackgroundImageFix" result="effect1_dropShadow_87_727"/>
<feBlend mode="normal" in="SourceGraphic" in2="effect1_dropShadow_87_727" result="shape"/>
</filter>
<filter id="filter2_d_87_727" x="118.469" y="59" width="63.6875" height="63" filterUnits="userSpaceOnUse" color-interpolation-filters="sRGB">
<feFlood flood-opacity="0" result="BackgroundImageFix"/>
<feColorMatrix in="SourceAlpha" type="matrix" values="0 0 0 0 0 0 0 0 0 0 0 0 0 0 0 0 0 0 127 0" result="hardAlpha"/>
<feOffset dy="5"/>
<feGaussianBlur stdDeviation="2"/>
<feComposite in2="hardAlpha" operator="out"/>
<feColorMatrix type="matrix" values="0 0 0 0 0 0 0 0 0 0 0 0 0 0 0 0 0 0 0.25 0"/>
<feBlend mode="normal" in2="BackgroundImageFix" result="effect1_dropShadow_87_727"/>
<feBlend mode="normal" in="SourceGraphic" in2="effect1_dropShadow_87_727" result="shape"/>
</filter>
<clipPath id="clip0_87_727">
<rect width="104" height="104" fill="white" transform="translate(105 32)"/>
</clipPath>
</defs>
</svg>
