<svg width="198" height="342" viewBox="0 0 198 342" fill="none" xmlns="http://www.w3.org/2000/svg">
<g filter="url(#filter0_di_463_3462)">
<rect x="4" width="306" height="334" rx="29" fill="#D9D9D9"/>
</g>
<path d="M25.36 187.24C24.28 187.24 23.2733 187.067 22.34 186.72C21.42 186.36 20.62 185.853 19.94 185.2C19.26 184.547 18.7267 183.78 18.34 182.9C17.9667 182.02 17.78 181.053 17.78 180C17.78 178.947 17.9667 177.98 18.34 177.1C18.7267 176.22 19.26 175.453 19.94 174.8C20.6333 174.147 21.44 173.647 22.36 173.3C23.28 172.94 24.2867 172.76 25.38 172.76C26.5933 172.76 27.6867 172.973 28.66 173.4C29.6467 173.813 30.4733 174.427 31.14 175.24L29.06 177.16C28.58 176.613 28.0467 176.207 27.46 175.94C26.8733 175.66 26.2333 175.52 25.54 175.52C24.8867 175.52 24.2867 175.627 23.74 175.84C23.1933 176.053 22.72 176.36 22.32 176.76C21.92 177.16 21.6067 177.633 21.38 178.18C21.1667 178.727 21.06 179.333 21.06 180C21.06 180.667 21.1667 181.273 21.38 181.82C21.6067 182.367 21.92 182.84 22.32 183.24C22.72 183.64 23.1933 183.947 23.74 184.16C24.2867 184.373 24.8867 184.48 25.54 184.48C26.2333 184.48 26.8733 184.347 27.46 184.08C28.0467 183.8 28.58 183.38 29.06 182.82L31.14 184.74C30.4733 185.553 29.6467 186.173 28.66 186.6C27.6867 187.027 26.5867 187.24 25.36 187.24ZM37.3941 187.16C36.5007 187.16 35.7007 186.987 34.9941 186.64C34.3007 186.293 33.7607 185.767 33.3741 185.06C32.9874 184.34 32.7941 183.427 32.7941 182.32V176.24H35.9141V181.86C35.9141 182.753 36.1007 183.413 36.4741 183.84C36.8607 184.253 37.4007 184.46 38.0941 184.46C38.5741 184.46 39.0007 184.36 39.3741 184.16C39.7474 183.947 40.0407 183.627 40.2541 183.2C40.4674 182.76 40.5741 182.213 40.5741 181.56V176.24H43.6941V187H40.7341V184.04L41.2741 184.9C40.9141 185.647 40.3807 186.213 39.6741 186.6C38.9807 186.973 38.2207 187.16 37.3941 187.16ZM50.2045 187.16C49.2845 187.16 48.3979 187.053 47.5445 186.84C46.7045 186.613 46.0379 186.333 45.5445 186L46.5845 183.76C47.0779 184.067 47.6579 184.32 48.3245 184.52C49.0045 184.707 49.6712 184.8 50.3245 184.8C51.0445 184.8 51.5512 184.713 51.8445 184.54C52.1512 184.367 52.3045 184.127 52.3045 183.82C52.3045 183.567 52.1845 183.38 51.9445 183.26C51.7179 183.127 51.4112 183.027 51.0245 182.96C50.6379 182.893 50.2112 182.827 49.7445 182.76C49.2912 182.693 48.8312 182.607 48.3645 182.5C47.8979 182.38 47.4712 182.207 47.0845 181.98C46.6979 181.753 46.3845 181.447 46.1445 181.06C45.9179 180.673 45.8045 180.173 45.8045 179.56C45.8045 178.88 45.9979 178.28 46.3845 177.76C46.7845 177.24 47.3579 176.833 48.1045 176.54C48.8512 176.233 49.7445 176.08 50.7845 176.08C51.5179 176.08 52.2645 176.16 53.0245 176.32C53.7845 176.48 54.4179 176.713 54.9245 177.02L53.8845 179.24C53.3645 178.933 52.8379 178.727 52.3045 178.62C51.7845 178.5 51.2779 178.44 50.7845 178.44C50.0912 178.44 49.5845 178.533 49.2645 178.72C48.9445 178.907 48.7845 179.147 48.7845 179.44C48.7845 179.707 48.8979 179.907 49.1245 180.04C49.3645 180.173 49.6779 180.28 50.0645 180.36C50.4512 180.44 50.8712 180.513 51.3245 180.58C51.7912 180.633 52.2579 180.72 52.7245 180.84C53.1912 180.96 53.6112 181.133 53.9845 181.36C54.3712 181.573 54.6845 181.873 54.9245 182.26C55.1645 182.633 55.2845 183.127 55.2845 183.74C55.2845 184.407 55.0845 185 54.6845 185.52C54.2845 186.027 53.7045 186.427 52.9445 186.72C52.1979 187.013 51.2845 187.16 50.2045 187.16ZM61.6095 187.16C60.3429 187.16 59.3562 186.84 58.6495 186.2C57.9429 185.547 57.5895 184.58 57.5895 183.3V173.86H60.7095V183.26C60.7095 183.713 60.8295 184.067 61.0695 184.32C61.3095 184.56 61.6362 184.68 62.0495 184.68C62.5429 184.68 62.9629 184.547 63.3095 184.28L64.1495 186.48C63.8295 186.707 63.4429 186.88 62.9895 187C62.5495 187.107 62.0895 187.16 61.6095 187.16ZM55.9295 178.88V176.48H63.3895V178.88H55.9295ZM70.6889 187.16C69.5422 187.16 68.5222 186.92 67.6289 186.44C66.7489 185.96 66.0489 185.307 65.5289 184.48C65.0222 183.64 64.7689 182.687 64.7689 181.62C64.7689 180.54 65.0222 179.587 65.5289 178.76C66.0489 177.92 66.7489 177.267 67.6289 176.8C68.5222 176.32 69.5422 176.08 70.6889 176.08C71.8222 176.08 72.8356 176.32 73.7289 176.8C74.6222 177.267 75.3222 177.913 75.8289 178.74C76.3356 179.567 76.5889 180.527 76.5889 181.62C76.5889 182.687 76.3356 183.64 75.8289 184.48C75.3222 185.307 74.6222 185.96 73.7289 186.44C72.8356 186.92 71.8222 187.16 70.6889 187.16ZM70.6889 184.6C71.2089 184.6 71.6756 184.48 72.0889 184.24C72.5022 184 72.8289 183.66 73.0689 183.22C73.3089 182.767 73.4289 182.233 73.4289 181.62C73.4289 180.993 73.3089 180.46 73.0689 180.02C72.8289 179.58 72.5022 179.24 72.0889 179C71.6756 178.76 71.2089 178.64 70.6889 178.64C70.1689 178.64 69.7022 178.76 69.2889 179C68.8756 179.24 68.5422 179.58 68.2889 180.02C68.0489 180.46 67.9289 180.993 67.9289 181.62C67.9289 182.233 68.0489 182.767 68.2889 183.22C68.5422 183.66 68.8756 184 69.2889 184.24C69.7022 184.48 70.1689 184.6 70.6889 184.6ZM92.4544 176.08C93.3077 176.08 94.061 176.253 94.7144 176.6C95.381 176.933 95.901 177.453 96.2744 178.16C96.661 178.853 96.8544 179.747 96.8544 180.84V187H93.7344V181.32C93.7344 180.453 93.5544 179.813 93.1944 179.4C92.8344 178.987 92.3277 178.78 91.6744 178.78C91.221 178.78 90.8144 178.887 90.4544 179.1C90.0944 179.3 89.8144 179.607 89.6144 180.02C89.4144 180.433 89.3144 180.96 89.3144 181.6V187H86.1944V181.32C86.1944 180.453 86.0144 179.813 85.6544 179.4C85.3077 178.987 84.8077 178.78 84.1544 178.78C83.701 178.78 83.2944 178.887 82.9344 179.1C82.5744 179.3 82.2944 179.607 82.0944 180.02C81.8944 180.433 81.7944 180.96 81.7944 181.6V187H78.6744V176.24H81.6544V179.18L81.0944 178.32C81.4677 177.587 81.9944 177.033 82.6744 176.66C83.3677 176.273 84.1544 176.08 85.0344 176.08C86.021 176.08 86.881 176.333 87.6144 176.84C88.361 177.333 88.8544 178.093 89.0944 179.12L87.9944 178.82C88.3544 177.98 88.9277 177.313 89.7144 176.82C90.5144 176.327 91.4277 176.08 92.4544 176.08ZM109.715 187.16C108.448 187.16 107.462 186.84 106.755 186.2C106.048 185.547 105.695 184.58 105.695 183.3V173.86H108.815V183.26C108.815 183.713 108.935 184.067 109.175 184.32C109.415 184.56 109.742 184.68 110.155 184.68C110.648 184.68 111.068 184.547 111.415 184.28L112.255 186.48C111.935 186.707 111.548 186.88 111.095 187C110.655 187.107 110.195 187.16 109.715 187.16ZM104.035 178.88V176.48H111.495V178.88H104.035ZM120.546 176.08C121.4 176.08 122.16 176.253 122.826 176.6C123.506 176.933 124.04 177.453 124.426 178.16C124.813 178.853 125.006 179.747 125.006 180.84V187H121.886V181.32C121.886 180.453 121.693 179.813 121.306 179.4C120.933 178.987 120.4 178.78 119.706 178.78C119.213 178.78 118.766 178.887 118.366 179.1C117.98 179.3 117.673 179.613 117.446 180.04C117.233 180.467 117.126 181.013 117.126 181.68V187H114.006V172.16H117.126V179.22L116.426 178.32C116.813 177.6 117.366 177.047 118.086 176.66C118.806 176.273 119.626 176.08 120.546 176.08ZM133.253 187.16C132.026 187.16 130.946 186.92 130.013 186.44C129.093 185.96 128.379 185.307 127.873 184.48C127.366 183.64 127.113 182.687 127.113 181.62C127.113 180.54 127.359 179.587 127.853 178.76C128.359 177.92 129.046 177.267 129.913 176.8C130.779 176.32 131.759 176.08 132.853 176.08C133.906 176.08 134.853 176.307 135.693 176.76C136.546 177.2 137.219 177.84 137.713 178.68C138.206 179.507 138.453 180.5 138.453 181.66C138.453 181.78 138.446 181.92 138.433 182.08C138.419 182.227 138.406 182.367 138.393 182.5H129.653V180.68H136.753L135.553 181.22C135.553 180.66 135.439 180.173 135.213 179.76C134.986 179.347 134.673 179.027 134.273 178.8C133.873 178.56 133.406 178.44 132.873 178.44C132.339 178.44 131.866 178.56 131.453 178.8C131.053 179.027 130.739 179.353 130.513 179.78C130.286 180.193 130.173 180.687 130.173 181.26V181.74C130.173 182.327 130.299 182.847 130.553 183.3C130.819 183.74 131.186 184.08 131.653 184.32C132.133 184.547 132.693 184.66 133.333 184.66C133.906 184.66 134.406 184.573 134.833 184.4C135.273 184.227 135.673 183.967 136.033 183.62L137.693 185.42C137.199 185.98 136.579 186.413 135.833 186.72C135.086 187.013 134.226 187.16 133.253 187.16ZM150.774 187.16C149.761 187.16 148.847 186.933 148.034 186.48C147.221 186.027 146.574 185.387 146.094 184.56C145.627 183.733 145.394 182.753 145.394 181.62C145.394 180.5 145.627 179.527 146.094 178.7C146.574 177.873 147.221 177.233 148.034 176.78C148.847 176.313 149.761 176.08 150.774 176.08C151.721 176.08 152.527 176.28 153.194 176.68C153.874 177.08 154.394 177.687 154.754 178.5C155.114 179.313 155.294 180.353 155.294 181.62C155.294 182.873 155.107 183.913 154.734 184.74C154.361 185.553 153.834 186.16 153.154 186.56C152.474 186.96 151.681 187.16 150.774 187.16ZM151.314 184.6C151.821 184.6 152.281 184.48 152.694 184.24C153.107 184 153.434 183.66 153.674 183.22C153.927 182.767 154.054 182.233 154.054 181.62C154.054 180.993 153.927 180.46 153.674 180.02C153.434 179.58 153.107 179.24 152.694 179C152.281 178.76 151.821 178.64 151.314 178.64C150.794 178.64 150.327 178.76 149.914 179C149.501 179.24 149.167 179.58 148.914 180.02C148.674 180.46 148.554 180.993 148.554 181.62C148.554 182.233 148.674 182.767 148.914 183.22C149.167 183.66 149.501 184 149.914 184.24C150.327 184.48 150.794 184.6 151.314 184.6ZM153.994 190.88V184.82L154.194 181.64L154.134 178.44V176.24H157.114V190.88H153.994ZM164.543 187.16C163.649 187.16 162.849 186.987 162.143 186.64C161.449 186.293 160.909 185.767 160.523 185.06C160.136 184.34 159.943 183.427 159.943 182.32V176.24H163.063V181.86C163.063 182.753 163.249 183.413 163.623 183.84C164.009 184.253 164.549 184.46 165.243 184.46C165.723 184.46 166.149 184.36 166.523 184.16C166.896 183.947 167.189 183.627 167.403 183.2C167.616 182.76 167.723 182.213 167.723 181.56V176.24H170.843V187H167.883V184.04L168.423 184.9C168.063 185.647 167.529 186.213 166.823 186.6C166.129 186.973 165.369 187.16 164.543 187.16ZM179.073 187.16C177.846 187.16 176.766 186.92 175.833 186.44C174.913 185.96 174.2 185.307 173.693 184.48C173.186 183.64 172.933 182.687 172.933 181.62C172.933 180.54 173.18 179.587 173.673 178.76C174.18 177.92 174.866 177.267 175.733 176.8C176.6 176.32 177.58 176.08 178.673 176.08C179.726 176.08 180.673 176.307 181.513 176.76C182.366 177.2 183.04 177.84 183.533 178.68C184.026 179.507 184.273 180.5 184.273 181.66C184.273 181.78 184.266 181.92 184.253 182.08C184.24 182.227 184.226 182.367 184.213 182.5H175.473V180.68H182.573L181.373 181.22C181.373 180.66 181.26 180.173 181.033 179.76C180.806 179.347 180.493 179.027 180.093 178.8C179.693 178.56 179.226 178.44 178.693 178.44C178.16 178.44 177.686 178.56 177.273 178.8C176.873 179.027 176.56 179.353 176.333 179.78C176.106 180.193 175.993 180.687 175.993 181.26V181.74C175.993 182.327 176.12 182.847 176.373 183.3C176.64 183.74 177.006 184.08 177.473 184.32C177.953 184.547 178.513 184.66 179.153 184.66C179.726 184.66 180.226 184.573 180.653 184.4C181.093 184.227 181.493 183.967 181.853 183.62L183.513 185.42C183.02 185.98 182.4 186.413 181.653 186.72C180.906 187.013 180.046 187.16 179.073 187.16ZM189.97 187.16C189.05 187.16 188.163 187.053 187.31 186.84C186.47 186.613 185.803 186.333 185.31 186L186.35 183.76C186.843 184.067 187.423 184.32 188.09 184.52C188.77 184.707 189.437 184.8 190.09 184.8C190.81 184.8 191.317 184.713 191.61 184.54C191.917 184.367 192.07 184.127 192.07 183.82C192.07 183.567 191.95 183.38 191.71 183.26C191.483 183.127 191.177 183.027 190.79 182.96C190.403 182.893 189.977 182.827 189.51 182.76C189.057 182.693 188.597 182.607 188.13 182.5C187.663 182.38 187.237 182.207 186.85 181.98C186.463 181.753 186.15 181.447 185.91 181.06C185.683 180.673 185.57 180.173 185.57 179.56C185.57 178.88 185.763 178.28 186.15 177.76C186.55 177.24 187.123 176.833 187.87 176.54C188.617 176.233 189.51 176.08 190.55 176.08C191.283 176.08 192.03 176.16 192.79 176.32C193.55 176.48 194.183 176.713 194.69 177.02L193.65 179.24C193.13 178.933 192.603 178.727 192.07 178.62C191.55 178.5 191.043 178.44 190.55 178.44C189.857 178.44 189.35 178.533 189.03 178.72C188.71 178.907 188.55 179.147 188.55 179.44C188.55 179.707 188.663 179.907 188.89 180.04C189.13 180.173 189.443 180.28 189.83 180.36C190.217 180.44 190.637 180.513 191.09 180.58C191.557 180.633 192.023 180.72 192.49 180.84C192.957 180.96 193.377 181.133 193.75 181.36C194.137 181.573 194.45 181.873 194.69 182.26C194.93 182.633 195.05 183.127 195.05 183.74C195.05 184.407 194.85 185 194.45 185.52C194.05 186.027 193.47 186.427 192.71 186.72C191.963 187.013 191.05 187.16 189.97 187.16ZM201.375 187.16C200.108 187.16 199.122 186.84 198.415 186.2C197.708 185.547 197.355 184.58 197.355 183.3V173.86H200.475V183.26C200.475 183.713 200.595 184.067 200.835 184.32C201.075 184.56 201.402 184.68 201.815 184.68C202.308 184.68 202.728 184.547 203.075 184.28L203.915 186.48C203.595 186.707 203.208 186.88 202.755 187C202.315 187.107 201.855 187.16 201.375 187.16ZM195.695 178.88V176.48H203.155V178.88H195.695ZM205.667 187V176.24H208.787V187H205.667ZM207.227 174.74C206.653 174.74 206.187 174.573 205.827 174.24C205.467 173.907 205.287 173.493 205.287 173C205.287 172.507 205.467 172.093 205.827 171.76C206.187 171.427 206.653 171.26 207.227 171.26C207.8 171.26 208.267 171.42 208.627 171.74C208.987 172.047 209.167 172.447 209.167 172.94C209.167 173.46 208.987 173.893 208.627 174.24C208.28 174.573 207.813 174.74 207.227 174.74ZM216.802 187.16C215.656 187.16 214.636 186.92 213.742 186.44C212.862 185.96 212.162 185.307 211.642 184.48C211.136 183.64 210.882 182.687 210.882 181.62C210.882 180.54 211.136 179.587 211.642 178.76C212.162 177.92 212.862 177.267 213.742 176.8C214.636 176.32 215.656 176.08 216.802 176.08C217.936 176.08 218.949 176.32 219.842 176.8C220.736 177.267 221.436 177.913 221.942 178.74C222.449 179.567 222.702 180.527 222.702 181.62C222.702 182.687 222.449 183.64 221.942 184.48C221.436 185.307 220.736 185.96 219.842 186.44C218.949 186.92 217.936 187.16 216.802 187.16ZM216.802 184.6C217.322 184.6 217.789 184.48 218.202 184.24C218.616 184 218.942 183.66 219.182 183.22C219.422 182.767 219.542 182.233 219.542 181.62C219.542 180.993 219.422 180.46 219.182 180.02C218.942 179.58 218.616 179.24 218.202 179C217.789 178.76 217.322 178.64 216.802 178.64C216.282 178.64 215.816 178.76 215.402 179C214.989 179.24 214.656 179.58 214.402 180.02C214.162 180.46 214.042 180.993 214.042 181.62C214.042 182.233 214.162 182.767 214.402 183.22C214.656 183.66 214.989 184 215.402 184.24C215.816 184.48 216.282 184.6 216.802 184.6ZM231.328 176.08C232.181 176.08 232.941 176.253 233.608 176.6C234.288 176.933 234.821 177.453 235.208 178.16C235.594 178.853 235.788 179.747 235.788 180.84V187H232.668V181.32C232.668 180.453 232.474 179.813 232.088 179.4C231.714 178.987 231.181 178.78 230.488 178.78C229.994 178.78 229.548 178.887 229.148 179.1C228.761 179.3 228.454 179.613 228.228 180.04C228.014 180.467 227.908 181.013 227.908 181.68V187H224.788V176.24H227.768V179.22L227.208 178.32C227.594 177.6 228.148 177.047 228.868 176.66C229.588 176.273 230.408 176.08 231.328 176.08ZM248.68 187.16C247.413 187.16 246.427 186.84 245.72 186.2C245.013 185.547 244.66 184.58 244.66 183.3V173.86H247.78V183.26C247.78 183.713 247.9 184.067 248.14 184.32C248.38 184.56 248.707 184.68 249.12 184.68C249.613 184.68 250.033 184.547 250.38 184.28L251.22 186.48C250.9 186.707 250.513 186.88 250.06 187C249.62 187.107 249.16 187.16 248.68 187.16ZM243 178.88V176.48H250.46V178.88H243ZM254.136 191.04C253.576 191.04 253.023 190.953 252.476 190.78C251.929 190.607 251.483 190.367 251.136 190.06L252.276 187.84C252.516 188.053 252.789 188.22 253.096 188.34C253.416 188.46 253.729 188.52 254.036 188.52C254.476 188.52 254.823 188.413 255.076 188.2C255.343 188 255.583 187.66 255.796 187.18L256.356 185.86L256.596 185.52L260.456 176.24H263.456L258.596 187.66C258.249 188.527 257.849 189.207 257.396 189.7C256.956 190.193 256.463 190.54 255.916 190.74C255.383 190.94 254.789 191.04 254.136 191.04ZM255.976 187.42L251.176 176.24H254.396L258.116 185.24L255.976 187.42ZM271.089 187.16C270.182 187.16 269.389 186.96 268.709 186.56C268.029 186.16 267.496 185.553 267.109 184.74C266.736 183.913 266.549 182.873 266.549 181.62C266.549 180.353 266.729 179.313 267.089 178.5C267.449 177.687 267.969 177.08 268.649 176.68C269.329 176.28 270.142 176.08 271.089 176.08C272.102 176.08 273.009 176.313 273.809 176.78C274.622 177.233 275.262 177.873 275.729 178.7C276.209 179.527 276.449 180.5 276.449 181.62C276.449 182.753 276.209 183.733 275.729 184.56C275.262 185.387 274.622 186.027 273.809 186.48C273.009 186.933 272.102 187.16 271.089 187.16ZM264.729 190.88V176.24H267.709V178.44L267.649 181.64L267.849 184.82V190.88H264.729ZM270.549 184.6C271.069 184.6 271.529 184.48 271.929 184.24C272.342 184 272.669 183.66 272.909 183.22C273.162 182.767 273.289 182.233 273.289 181.62C273.289 180.993 273.162 180.46 272.909 180.02C272.669 179.58 272.342 179.24 271.929 179C271.529 178.76 271.069 178.64 270.549 178.64C270.029 178.64 269.562 178.76 269.149 179C268.736 179.24 268.409 179.58 268.169 180.02C267.929 180.46 267.809 180.993 267.809 181.62C267.809 182.233 267.929 182.767 268.169 183.22C268.409 183.66 268.736 184 269.149 184.24C269.562 184.48 270.029 184.6 270.549 184.6ZM283.878 187.16C282.651 187.16 281.571 186.92 280.638 186.44C279.718 185.96 279.004 185.307 278.498 184.48C277.991 183.64 277.738 182.687 277.738 181.62C277.738 180.54 277.984 179.587 278.478 178.76C278.984 177.92 279.671 177.267 280.538 176.8C281.404 176.32 282.384 176.08 283.478 176.08C284.531 176.08 285.478 176.307 286.318 176.76C287.171 177.2 287.844 177.84 288.338 178.68C288.831 179.507 289.078 180.5 289.078 181.66C289.078 181.78 289.071 181.92 289.058 182.08C289.044 182.227 289.031 182.367 289.018 182.5H280.278V180.68H287.378L286.178 181.22C286.178 180.66 286.064 180.173 285.838 179.76C285.611 179.347 285.298 179.027 284.898 178.8C284.498 178.56 284.031 178.44 283.498 178.44C282.964 178.44 282.491 178.56 282.078 178.8C281.678 179.027 281.364 179.353 281.138 179.78C280.911 180.193 280.798 180.687 280.798 181.26V181.74C280.798 182.327 280.924 182.847 281.178 183.3C281.444 183.74 281.811 184.08 282.278 184.32C282.758 184.547 283.318 184.66 283.958 184.66C284.531 184.66 285.031 184.573 285.458 184.4C285.898 184.227 286.298 183.967 286.658 183.62L288.318 185.42C287.824 185.98 287.204 186.413 286.458 186.72C285.711 187.013 284.851 187.16 283.878 187.16Z" fill="#434343"/>
<path d="M21.215 229V225.1L21.47 225.79L17.015 218.5H18.2L22.115 224.905H21.485L25.4 218.5H26.51L22.055 225.79L22.31 225.1V229H21.215ZM30.3229 229.075C29.5629 229.075 28.8779 228.905 28.2679 228.565C27.6679 228.215 27.1929 227.74 26.8429 227.14C26.4929 226.53 26.3179 225.835 26.3179 225.055C26.3179 224.265 26.4929 223.57 26.8429 222.97C27.1929 222.37 27.6679 221.9 28.2679 221.56C28.8679 221.22 29.5529 221.05 30.3229 221.05C31.1029 221.05 31.7929 221.22 32.3929 221.56C33.0029 221.9 33.4779 222.37 33.8179 222.97C34.1679 223.57 34.3429 224.265 34.3429 225.055C34.3429 225.835 34.1679 226.53 33.8179 227.14C33.4779 227.74 33.0029 228.215 32.3929 228.565C31.7829 228.905 31.0929 229.075 30.3229 229.075ZM30.3229 228.13C30.8929 228.13 31.3979 228.005 31.8379 227.755C32.2779 227.495 32.6229 227.135 32.8729 226.675C33.1329 226.205 33.2629 225.665 33.2629 225.055C33.2629 224.435 33.1329 223.895 32.8729 223.435C32.6229 222.975 32.2779 222.62 31.8379 222.37C31.3979 222.11 30.8979 221.98 30.3379 221.98C29.7779 221.98 29.2779 222.11 28.8379 222.37C28.3979 222.62 28.0479 222.975 27.7879 223.435C27.5279 223.895 27.3979 224.435 27.3979 225.055C27.3979 225.665 27.5279 226.205 27.7879 226.675C28.0479 227.135 28.3979 227.495 28.8379 227.755C29.2779 228.005 29.7729 228.13 30.3229 228.13ZM39.7722 229.075C39.1022 229.075 38.5172 228.95 38.0172 228.7C37.5172 228.45 37.1272 228.075 36.8472 227.575C36.5772 227.075 36.4422 226.45 36.4422 225.7V221.125H37.5072V225.58C37.5072 226.42 37.7122 227.055 38.1222 227.485C38.5422 227.905 39.1272 228.115 39.8772 228.115C40.4272 228.115 40.9022 228.005 41.3022 227.785C41.7122 227.555 42.0222 227.225 42.2322 226.795C42.4522 226.365 42.5622 225.85 42.5622 225.25V221.125H43.6272V229H42.6072V226.84L42.7722 227.23C42.5222 227.81 42.1322 228.265 41.6022 228.595C41.0822 228.915 40.4722 229.075 39.7722 229.075ZM53.7911 229.075C53.0111 229.075 52.3111 228.905 51.6911 228.565C51.0811 228.215 50.6011 227.74 50.2511 227.14C49.9011 226.53 49.7261 225.835 49.7261 225.055C49.7261 224.265 49.9011 223.57 50.2511 222.97C50.6011 222.37 51.0811 221.9 51.6911 221.56C52.3111 221.22 53.0111 221.05 53.7911 221.05C54.4611 221.05 55.0661 221.18 55.6061 221.44C56.1461 221.7 56.5711 222.09 56.8811 222.61L56.0861 223.15C55.8161 222.75 55.4811 222.455 55.0811 222.265C54.6811 222.075 54.2461 221.98 53.7761 221.98C53.2161 221.98 52.7111 222.11 52.2611 222.37C51.8111 222.62 51.4561 222.975 51.1961 223.435C50.9361 223.895 50.8061 224.435 50.8061 225.055C50.8061 225.675 50.9361 226.215 51.1961 226.675C51.4561 227.135 51.8111 227.495 52.2611 227.755C52.7111 228.005 53.2161 228.13 53.7761 228.13C54.2461 228.13 54.6811 228.035 55.0811 227.845C55.4811 227.655 55.8161 227.365 56.0861 226.975L56.8811 227.515C56.5711 228.025 56.1461 228.415 55.6061 228.685C55.0661 228.945 54.4611 229.075 53.7911 229.075ZM63.9083 229V227.26L63.8633 226.975V224.065C63.8633 223.395 63.6733 222.88 63.2933 222.52C62.9233 222.16 62.3683 221.98 61.6283 221.98C61.1183 221.98 60.6333 222.065 60.1733 222.235C59.7133 222.405 59.3233 222.63 59.0033 222.91L58.5233 222.115C58.9233 221.775 59.4033 221.515 59.9633 221.335C60.5233 221.145 61.1133 221.05 61.7333 221.05C62.7533 221.05 63.5383 221.305 64.0883 221.815C64.6483 222.315 64.9283 223.08 64.9283 224.11V229H63.9083ZM61.1933 229.075C60.6033 229.075 60.0883 228.98 59.6483 228.79C59.2183 228.59 58.8883 228.32 58.6583 227.98C58.4283 227.63 58.3133 227.23 58.3133 226.78C58.3133 226.37 58.4083 226 58.5983 225.67C58.7983 225.33 59.1183 225.06 59.5583 224.86C60.0083 224.65 60.6083 224.545 61.3583 224.545H64.0733V225.34H61.3883C60.6283 225.34 60.0983 225.475 59.7983 225.745C59.5083 226.015 59.3633 226.35 59.3633 226.75C59.3633 227.2 59.5383 227.56 59.8883 227.83C60.2383 228.1 60.7283 228.235 61.3583 228.235C61.9583 228.235 62.4733 228.1 62.9033 227.83C63.3433 227.55 63.6633 227.15 63.8633 226.63L64.1033 227.365C63.9033 227.885 63.5533 228.3 63.0533 228.61C62.5633 228.92 61.9433 229.075 61.1933 229.075ZM71.8409 221.05C72.4809 221.05 73.0409 221.175 73.5209 221.425C74.0109 221.665 74.3909 222.035 74.6609 222.535C74.9409 223.035 75.0809 223.665 75.0809 224.425V229H74.0159V224.53C74.0159 223.7 73.8059 223.075 73.3859 222.655C72.9759 222.225 72.3959 222.01 71.6459 222.01C71.0859 222.01 70.5959 222.125 70.1759 222.355C69.7659 222.575 69.4459 222.9 69.2159 223.33C68.9959 223.75 68.8859 224.26 68.8859 224.86V229H67.8209V221.125H68.8409V223.285L68.6759 222.88C68.9259 222.31 69.3259 221.865 69.8759 221.545C70.4259 221.215 71.0809 221.05 71.8409 221.05ZM83.9984 229.075C83.3484 229.075 82.7334 228.985 82.1534 228.805C81.5734 228.615 81.1184 228.38 80.7884 228.1L81.2684 227.26C81.5884 227.5 81.9984 227.71 82.4984 227.89C82.9984 228.06 83.5234 228.145 84.0734 228.145C84.8234 228.145 85.3634 228.03 85.6934 227.8C86.0234 227.56 86.1884 227.245 86.1884 226.855C86.1884 226.565 86.0934 226.34 85.9034 226.18C85.7234 226.01 85.4834 225.885 85.1834 225.805C84.8834 225.715 84.5484 225.64 84.1784 225.58C83.8084 225.52 83.4384 225.45 83.0684 225.37C82.7084 225.29 82.3784 225.175 82.0784 225.025C81.7784 224.865 81.5334 224.65 81.3434 224.38C81.1634 224.11 81.0734 223.75 81.0734 223.3C81.0734 222.87 81.1934 222.485 81.4334 222.145C81.6734 221.805 82.0234 221.54 82.4834 221.35C82.9534 221.15 83.5234 221.05 84.1934 221.05C84.7034 221.05 85.2134 221.12 85.7234 221.26C86.2334 221.39 86.6534 221.565 86.9834 221.785L86.5184 222.64C86.1684 222.4 85.7934 222.23 85.3934 222.13C84.9934 222.02 84.5934 221.965 84.1934 221.965C83.4834 221.965 82.9584 222.09 82.6184 222.34C82.2884 222.58 82.1234 222.89 82.1234 223.27C82.1234 223.57 82.2134 223.805 82.3934 223.975C82.5834 224.145 82.8284 224.28 83.1284 224.38C83.4384 224.47 83.7734 224.545 84.1334 224.605C84.5034 224.665 84.8684 224.74 85.2284 224.83C85.5984 224.91 85.9334 225.025 86.2334 225.175C86.5434 225.315 86.7884 225.52 86.9684 225.79C87.1584 226.05 87.2534 226.395 87.2534 226.825C87.2534 227.285 87.1234 227.685 86.8634 228.025C86.6134 228.355 86.2434 228.615 85.7534 228.805C85.2734 228.985 84.6884 229.075 83.9984 229.075ZM92.5527 229.075C91.7327 229.075 91.0127 228.905 90.3927 228.565C89.7727 228.215 89.2877 227.74 88.9377 227.14C88.5877 226.53 88.4127 225.835 88.4127 225.055C88.4127 224.275 88.5777 223.585 88.9077 222.985C89.2477 222.385 89.7077 221.915 90.2877 221.575C90.8777 221.225 91.5377 221.05 92.2677 221.05C93.0077 221.05 93.6627 221.22 94.2327 221.56C94.8127 221.89 95.2677 222.36 95.5977 222.97C95.9277 223.57 96.0927 224.265 96.0927 225.055C96.0927 225.105 96.0877 225.16 96.0777 225.22C96.0777 225.27 96.0777 225.325 96.0777 225.385H89.2227V224.59H95.5077L95.0877 224.905C95.0877 224.335 94.9627 223.83 94.7127 223.39C94.4727 222.94 94.1427 222.59 93.7227 222.34C93.3027 222.09 92.8177 221.965 92.2677 221.965C91.7277 221.965 91.2427 222.09 90.8127 222.34C90.3827 222.59 90.0477 222.94 89.8077 223.39C89.5677 223.84 89.4477 224.355 89.4477 224.935V225.1C89.4477 225.7 89.5777 226.23 89.8377 226.69C90.1077 227.14 90.4777 227.495 90.9477 227.755C91.4277 228.005 91.9727 228.13 92.5827 228.13C93.0627 228.13 93.5077 228.045 93.9177 227.875C94.3377 227.705 94.6977 227.445 94.9977 227.095L95.5977 227.785C95.2477 228.205 94.8077 228.525 94.2777 228.745C93.7577 228.965 93.1827 229.075 92.5527 229.075ZM98.2604 229V217.87H99.3254V229H98.2604ZM105.634 229.075C104.814 229.075 104.094 228.905 103.474 228.565C102.854 228.215 102.369 227.74 102.019 227.14C101.669 226.53 101.494 225.835 101.494 225.055C101.494 224.275 101.659 223.585 101.989 222.985C102.329 222.385 102.789 221.915 103.369 221.575C103.959 221.225 104.619 221.05 105.349 221.05C106.089 221.05 106.744 221.22 107.314 221.56C107.894 221.89 108.349 222.36 108.679 222.97C109.009 223.57 109.174 224.265 109.174 225.055C109.174 225.105 109.169 225.16 109.159 225.22C109.159 225.27 109.159 225.325 109.159 225.385H102.304V224.59H108.589L108.169 224.905C108.169 224.335 108.044 223.83 107.794 223.39C107.554 222.94 107.224 222.59 106.804 222.34C106.384 222.09 105.899 221.965 105.349 221.965C104.809 221.965 104.324 222.09 103.894 222.34C103.464 222.59 103.129 222.94 102.889 223.39C102.649 223.84 102.529 224.355 102.529 224.935V225.1C102.529 225.7 102.659 226.23 102.919 226.69C103.189 227.14 103.559 227.495 104.029 227.755C104.509 228.005 105.054 228.13 105.664 228.13C106.144 228.13 106.589 228.045 106.999 227.875C107.419 227.705 107.779 227.445 108.079 227.095L108.679 227.785C108.329 228.205 107.889 228.525 107.359 228.745C106.839 228.965 106.264 229.075 105.634 229.075ZM114.611 229.075C113.831 229.075 113.131 228.905 112.511 228.565C111.901 228.215 111.421 227.74 111.071 227.14C110.721 226.53 110.546 225.835 110.546 225.055C110.546 224.265 110.721 223.57 111.071 222.97C111.421 222.37 111.901 221.9 112.511 221.56C113.131 221.22 113.831 221.05 114.611 221.05C115.281 221.05 115.886 221.18 116.426 221.44C116.966 221.7 117.391 222.09 117.701 222.61L116.906 223.15C116.636 222.75 116.301 222.455 115.901 222.265C115.501 222.075 115.066 221.98 114.596 221.98C114.036 221.98 113.531 222.11 113.081 222.37C112.631 222.62 112.276 222.975 112.016 223.435C111.756 223.895 111.626 224.435 111.626 225.055C111.626 225.675 111.756 226.215 112.016 226.675C112.276 227.135 112.631 227.495 113.081 227.755C113.531 228.005 114.036 228.13 114.596 228.13C115.066 228.13 115.501 228.035 115.901 227.845C116.301 227.655 116.636 227.365 116.906 226.975L117.701 227.515C117.391 228.025 116.966 228.415 116.426 228.685C115.886 228.945 115.281 229.075 114.611 229.075ZM122.371 229.075C121.631 229.075 121.061 228.875 120.661 228.475C120.261 228.075 120.061 227.51 120.061 226.78V219.385H121.126V226.72C121.126 227.18 121.241 227.535 121.471 227.785C121.711 228.035 122.051 228.16 122.491 228.16C122.961 228.16 123.351 228.025 123.661 227.755L124.036 228.52C123.826 228.71 123.571 228.85 123.271 228.94C122.981 229.03 122.681 229.075 122.371 229.075ZM118.651 222.01V221.125H123.526V222.01H118.651ZM133.036 229.075C132.286 229.075 131.611 228.905 131.011 228.565C130.421 228.225 129.956 227.755 129.616 227.155C129.276 226.555 129.106 225.855 129.106 225.055C129.106 224.265 129.276 223.57 129.616 222.97C129.956 222.36 130.421 221.89 131.011 221.56C131.611 221.22 132.286 221.05 133.036 221.05C133.736 221.05 134.356 221.205 134.896 221.515C135.446 221.825 135.881 222.28 136.201 222.88C136.521 223.47 136.681 224.195 136.681 225.055C136.681 225.915 136.516 226.645 136.186 227.245C135.866 227.835 135.431 228.29 134.881 228.61C134.341 228.92 133.726 229.075 133.036 229.075ZM133.111 228.13C133.671 228.13 134.171 228.005 134.611 227.755C135.061 227.495 135.411 227.135 135.661 226.675C135.921 226.205 136.051 225.665 136.051 225.055C136.051 224.445 135.921 223.91 135.661 223.45C135.411 222.99 135.061 222.63 134.611 222.37C134.171 222.11 133.671 221.98 133.111 221.98C132.561 221.98 132.066 222.11 131.626 222.37C131.186 222.63 130.836 222.99 130.576 223.45C130.316 223.91 130.186 224.445 130.186 225.055C130.186 225.665 130.316 226.205 130.576 226.675C130.836 227.135 131.186 227.495 131.626 227.755C132.066 228.005 132.561 228.13 133.111 228.13ZM136.036 231.91V226.66L136.186 225.07L136.081 223.495V221.125H137.101V231.91H136.036ZM143.322 229.075C142.652 229.075 142.067 228.95 141.567 228.7C141.067 228.45 140.677 228.075 140.397 227.575C140.127 227.075 139.992 226.45 139.992 225.7V221.125H141.057V225.58C141.057 226.42 141.262 227.055 141.672 227.485C142.092 227.905 142.677 228.115 143.427 228.115C143.977 228.115 144.452 228.005 144.852 227.785C145.262 227.555 145.572 227.225 145.782 226.795C146.002 226.365 146.112 225.85 146.112 225.25V221.125H147.177V229H146.157V226.84L146.322 227.23C146.072 227.81 145.682 228.265 145.152 228.595C144.632 228.915 144.022 229.075 143.322 229.075ZM153.49 229.075C152.67 229.075 151.95 228.905 151.33 228.565C150.71 228.215 150.225 227.74 149.875 227.14C149.525 226.53 149.35 225.835 149.35 225.055C149.35 224.275 149.515 223.585 149.845 222.985C150.185 222.385 150.645 221.915 151.225 221.575C151.815 221.225 152.475 221.05 153.205 221.05C153.945 221.05 154.6 221.22 155.17 221.56C155.75 221.89 156.205 222.36 156.535 222.97C156.865 223.57 157.03 224.265 157.03 225.055C157.03 225.105 157.025 225.16 157.015 225.22C157.015 225.27 157.015 225.325 157.015 225.385H150.16V224.59H156.445L156.025 224.905C156.025 224.335 155.9 223.83 155.65 223.39C155.41 222.94 155.08 222.59 154.66 222.34C154.24 222.09 153.755 221.965 153.205 221.965C152.665 221.965 152.18 222.09 151.75 222.34C151.32 222.59 150.985 222.94 150.745 223.39C150.505 223.84 150.385 224.355 150.385 224.935V225.1C150.385 225.7 150.515 226.23 150.775 226.69C151.045 227.14 151.415 227.495 151.885 227.755C152.365 228.005 152.91 228.13 153.52 228.13C154 228.13 154.445 228.045 154.855 227.875C155.275 227.705 155.635 227.445 155.935 227.095L156.535 227.785C156.185 228.205 155.745 228.525 155.215 228.745C154.695 228.965 154.12 229.075 153.49 229.075ZM161.313 229.075C160.663 229.075 160.048 228.985 159.468 228.805C158.888 228.615 158.433 228.38 158.103 228.1L158.583 227.26C158.903 227.5 159.313 227.71 159.813 227.89C160.313 228.06 160.838 228.145 161.388 228.145C162.138 228.145 162.678 228.03 163.008 227.8C163.338 227.56 163.503 227.245 163.503 226.855C163.503 226.565 163.408 226.34 163.218 226.18C163.038 226.01 162.798 225.885 162.498 225.805C162.198 225.715 161.863 225.64 161.493 225.58C161.123 225.52 160.753 225.45 160.383 225.37C160.023 225.29 159.693 225.175 159.393 225.025C159.093 224.865 158.848 224.65 158.658 224.38C158.478 224.11 158.388 223.75 158.388 223.3C158.388 222.87 158.508 222.485 158.748 222.145C158.988 221.805 159.338 221.54 159.798 221.35C160.268 221.15 160.838 221.05 161.508 221.05C162.018 221.05 162.528 221.12 163.038 221.26C163.548 221.39 163.968 221.565 164.298 221.785L163.833 222.64C163.483 222.4 163.108 222.23 162.708 222.13C162.308 222.02 161.908 221.965 161.508 221.965C160.798 221.965 160.273 222.09 159.933 222.34C159.603 222.58 159.438 222.89 159.438 223.27C159.438 223.57 159.528 223.805 159.708 223.975C159.898 224.145 160.143 224.28 160.443 224.38C160.753 224.47 161.088 224.545 161.448 224.605C161.818 224.665 162.183 224.74 162.543 224.83C162.913 224.91 163.248 225.025 163.548 225.175C163.858 225.315 164.103 225.52 164.283 225.79C164.473 226.05 164.568 226.395 164.568 226.825C164.568 227.285 164.438 227.685 164.178 228.025C163.928 228.355 163.558 228.615 163.068 228.805C162.588 228.985 162.003 229.075 161.313 229.075ZM169.012 229.075C168.272 229.075 167.702 228.875 167.302 228.475C166.902 228.075 166.702 227.51 166.702 226.78V219.385H167.767V226.72C167.767 227.18 167.882 227.535 168.112 227.785C168.352 228.035 168.692 228.16 169.132 228.16C169.602 228.16 169.992 228.025 170.302 227.755L170.677 228.52C170.467 228.71 170.212 228.85 169.912 228.94C169.622 229.03 169.322 229.075 169.012 229.075ZM165.292 222.01V221.125H170.167V222.01H165.292ZM172.616 229V221.125H173.681V229H172.616ZM173.156 219.385C172.936 219.385 172.751 219.31 172.601 219.16C172.451 219.01 172.376 218.83 172.376 218.62C172.376 218.41 172.451 218.235 172.601 218.095C172.751 217.945 172.936 217.87 173.156 217.87C173.376 217.87 173.561 217.94 173.711 218.08C173.861 218.22 173.936 218.395 173.936 218.605C173.936 218.825 173.861 219.01 173.711 219.16C173.571 219.31 173.386 219.385 173.156 219.385ZM179.854 229.075C179.094 229.075 178.409 228.905 177.799 228.565C177.199 228.215 176.724 227.74 176.374 227.14C176.024 226.53 175.849 225.835 175.849 225.055C175.849 224.265 176.024 223.57 176.374 222.97C176.724 222.37 177.199 221.9 177.799 221.56C178.399 221.22 179.084 221.05 179.854 221.05C180.634 221.05 181.324 221.22 181.924 221.56C182.534 221.9 183.009 222.37 183.349 222.97C183.699 223.57 183.874 224.265 183.874 225.055C183.874 225.835 183.699 226.53 183.349 227.14C183.009 227.74 182.534 228.215 181.924 228.565C181.314 228.905 180.624 229.075 179.854 229.075ZM179.854 228.13C180.424 228.13 180.929 228.005 181.369 227.755C181.809 227.495 182.154 227.135 182.404 226.675C182.664 226.205 182.794 225.665 182.794 225.055C182.794 224.435 182.664 223.895 182.404 223.435C182.154 222.975 181.809 222.62 181.369 222.37C180.929 222.11 180.429 221.98 179.869 221.98C179.309 221.98 178.809 222.11 178.369 222.37C177.929 222.62 177.579 222.975 177.319 223.435C177.059 223.895 176.929 224.435 176.929 225.055C176.929 225.665 177.059 226.205 177.319 226.675C177.579 227.135 177.929 227.495 178.369 227.755C178.809 228.005 179.304 228.13 179.854 228.13ZM190.068 221.05C190.708 221.05 191.268 221.175 191.748 221.425C192.238 221.665 192.618 222.035 192.888 222.535C193.168 223.035 193.308 223.665 193.308 224.425V229H192.243V224.53C192.243 223.7 192.033 223.075 191.613 222.655C191.203 222.225 190.623 222.01 189.873 222.01C189.313 222.01 188.823 222.125 188.403 222.355C187.993 222.575 187.673 222.9 187.443 223.33C187.223 223.75 187.113 224.26 187.113 224.86V229H186.048V221.125H187.068V223.285L186.903 222.88C187.153 222.31 187.553 221.865 188.103 221.545C188.653 221.215 189.308 221.05 190.068 221.05ZM202.601 229.075C201.861 229.075 201.291 228.875 200.891 228.475C200.491 228.075 200.291 227.51 200.291 226.78V219.385H201.356V226.72C201.356 227.18 201.471 227.535 201.701 227.785C201.941 228.035 202.281 228.16 202.721 228.16C203.191 228.16 203.581 228.025 203.891 227.755L204.266 228.52C204.056 228.71 203.801 228.85 203.501 228.94C203.211 229.03 202.911 229.075 202.601 229.075ZM198.881 222.01V221.125H203.756V222.01H198.881ZM206.118 231.985C205.748 231.985 205.393 231.925 205.053 231.805C204.723 231.685 204.438 231.505 204.198 231.265L204.693 230.47C204.893 230.66 205.108 230.805 205.338 230.905C205.578 231.015 205.843 231.07 206.133 231.07C206.483 231.07 206.783 230.97 207.033 230.77C207.293 230.58 207.538 230.24 207.768 229.75L208.278 228.595L208.398 228.43L211.638 221.125H212.688L208.743 229.945C208.523 230.455 208.278 230.86 208.008 231.16C207.748 231.46 207.463 231.67 207.153 231.79C206.843 231.92 206.498 231.985 206.118 231.985ZM208.218 229.225L204.588 221.125H205.698L208.908 228.355L208.218 229.225ZM218.253 229.075C217.573 229.075 216.958 228.92 216.408 228.61C215.858 228.29 215.418 227.835 215.088 227.245C214.768 226.645 214.608 225.915 214.608 225.055C214.608 224.195 214.768 223.47 215.088 222.88C215.408 222.28 215.843 221.825 216.393 221.515C216.943 221.205 217.563 221.05 218.253 221.05C219.003 221.05 219.673 221.22 220.263 221.56C220.863 221.89 221.333 222.36 221.673 222.97C222.013 223.57 222.183 224.265 222.183 225.055C222.183 225.855 222.013 226.555 221.673 227.155C221.333 227.755 220.863 228.225 220.263 228.565C219.673 228.905 219.003 229.075 218.253 229.075ZM214.188 231.91V221.125H215.208V223.495L215.103 225.07L215.253 226.66V231.91H214.188ZM218.178 228.13C218.738 228.13 219.238 228.005 219.678 227.755C220.118 227.495 220.468 227.135 220.728 226.675C220.988 226.205 221.118 225.665 221.118 225.055C221.118 224.445 220.988 223.91 220.728 223.45C220.468 222.99 220.118 222.63 219.678 222.37C219.238 222.11 218.738 221.98 218.178 221.98C217.618 221.98 217.113 222.11 216.663 222.37C216.223 222.63 215.873 222.99 215.613 223.45C215.363 223.91 215.238 224.445 215.238 225.055C215.238 225.665 215.363 226.205 215.613 226.675C215.873 227.135 216.223 227.495 216.663 227.755C217.113 228.005 217.618 228.13 218.178 228.13ZM227.699 229.075C226.879 229.075 226.159 228.905 225.539 228.565C224.919 228.215 224.434 227.74 224.084 227.14C223.734 226.53 223.559 225.835 223.559 225.055C223.559 224.275 223.724 223.585 224.054 222.985C224.394 222.385 224.854 221.915 225.434 221.575C226.024 221.225 226.684 221.05 227.414 221.05C228.154 221.05 228.809 221.22 229.379 221.56C229.959 221.89 230.414 222.36 230.744 222.97C231.074 223.57 231.239 224.265 231.239 225.055C231.239 225.105 231.234 225.16 231.224 225.22C231.224 225.27 231.224 225.325 231.224 225.385H224.369V224.59H230.654L230.234 224.905C230.234 224.335 230.109 223.83 229.859 223.39C229.619 222.94 229.289 222.59 228.869 222.34C228.449 222.09 227.964 221.965 227.414 221.965C226.874 221.965 226.389 222.09 225.959 222.34C225.529 222.59 225.194 222.94 224.954 223.39C224.714 223.84 224.594 224.355 224.594 224.935V225.1C224.594 225.7 224.724 226.23 224.984 226.69C225.254 227.14 225.624 227.495 226.094 227.755C226.574 228.005 227.119 228.13 227.729 228.13C228.209 228.13 228.654 228.045 229.064 227.875C229.484 227.705 229.844 227.445 230.144 227.095L230.744 227.785C230.394 228.205 229.954 228.525 229.424 228.745C228.904 228.965 228.329 229.075 227.699 229.075ZM235.522 229.075C234.872 229.075 234.257 228.985 233.677 228.805C233.097 228.615 232.642 228.38 232.312 228.1L232.792 227.26C233.112 227.5 233.522 227.71 234.022 227.89C234.522 228.06 235.047 228.145 235.597 228.145C236.347 228.145 236.887 228.03 237.217 227.8C237.547 227.56 237.712 227.245 237.712 226.855C237.712 226.565 237.617 226.34 237.427 226.18C237.247 226.01 237.007 225.885 236.707 225.805C236.407 225.715 236.072 225.64 235.702 225.58C235.332 225.52 234.962 225.45 234.592 225.37C234.232 225.29 233.902 225.175 233.602 225.025C233.302 224.865 233.057 224.65 232.867 224.38C232.687 224.11 232.597 223.75 232.597 223.3C232.597 222.87 232.717 222.485 232.957 222.145C233.197 221.805 233.547 221.54 234.007 221.35C234.477 221.15 235.047 221.05 235.717 221.05C236.227 221.05 236.737 221.12 237.247 221.26C237.757 221.39 238.177 221.565 238.507 221.785L238.042 222.64C237.692 222.4 237.317 222.23 236.917 222.13C236.517 222.02 236.117 221.965 235.717 221.965C235.007 221.965 234.482 222.09 234.142 222.34C233.812 222.58 233.647 222.89 233.647 223.27C233.647 223.57 233.737 223.805 233.917 223.975C234.107 224.145 234.352 224.28 234.652 224.38C234.962 224.47 235.297 224.545 235.657 224.605C236.027 224.665 236.392 224.74 236.752 224.83C237.122 224.91 237.457 225.025 237.757 225.175C238.067 225.315 238.312 225.52 238.492 225.79C238.682 226.05 238.777 226.395 238.777 226.825C238.777 227.285 238.647 227.685 238.387 228.025C238.137 228.355 237.767 228.615 237.277 228.805C236.797 228.985 236.212 229.075 235.522 229.075ZM249.592 229V227.26L249.547 226.975V224.065C249.547 223.395 249.357 222.88 248.977 222.52C248.607 222.16 248.052 221.98 247.312 221.98C246.802 221.98 246.317 222.065 245.857 222.235C245.397 222.405 245.007 222.63 244.687 222.91L244.207 222.115C244.607 221.775 245.087 221.515 245.647 221.335C246.207 221.145 246.797 221.05 247.417 221.05C248.437 221.05 249.222 221.305 249.772 221.815C250.332 222.315 250.612 223.08 250.612 224.11V229H249.592ZM246.877 229.075C246.287 229.075 245.772 228.98 245.332 228.79C244.902 228.59 244.572 228.32 244.342 227.98C244.112 227.63 243.997 227.23 243.997 226.78C243.997 226.37 244.092 226 244.282 225.67C244.482 225.33 244.802 225.06 245.242 224.86C245.692 224.65 246.292 224.545 247.042 224.545H249.757V225.34H247.072C246.312 225.34 245.782 225.475 245.482 225.745C245.192 226.015 245.047 226.35 245.047 226.75C245.047 227.2 245.222 227.56 245.572 227.83C245.922 228.1 246.412 228.235 247.042 228.235C247.642 228.235 248.157 228.1 248.587 227.83C249.027 227.55 249.347 227.15 249.547 226.63L249.787 227.365C249.587 227.885 249.237 228.3 248.737 228.61C248.247 228.92 247.627 229.075 246.877 229.075ZM257.525 221.05C258.165 221.05 258.725 221.175 259.205 221.425C259.695 221.665 260.075 222.035 260.345 222.535C260.625 223.035 260.765 223.665 260.765 224.425V229H259.7V224.53C259.7 223.7 259.49 223.075 259.07 222.655C258.66 222.225 258.08 222.01 257.33 222.01C256.77 222.01 256.28 222.125 255.86 222.355C255.45 222.575 255.13 222.9 254.9 223.33C254.68 223.75 254.57 224.26 254.57 224.86V229H253.505V221.125H254.525V223.285L254.36 222.88C254.61 222.31 255.01 221.865 255.56 221.545C256.11 221.215 256.765 221.05 257.525 221.05ZM266.776 229.075C266.026 229.075 265.351 228.905 264.751 228.565C264.161 228.225 263.696 227.755 263.356 227.155C263.016 226.545 262.846 225.845 262.846 225.055C262.846 224.255 263.016 223.555 263.356 222.955C263.696 222.355 264.161 221.89 264.751 221.56C265.351 221.22 266.026 221.05 266.776 221.05C267.466 221.05 268.081 221.205 268.621 221.515C269.171 221.825 269.606 222.28 269.926 222.88C270.256 223.47 270.421 224.195 270.421 225.055C270.421 225.905 270.261 226.63 269.941 227.23C269.621 227.83 269.186 228.29 268.636 228.61C268.096 228.92 267.476 229.075 266.776 229.075ZM266.851 228.13C267.411 228.13 267.911 228.005 268.351 227.755C268.801 227.495 269.151 227.135 269.401 226.675C269.661 226.205 269.791 225.665 269.791 225.055C269.791 224.435 269.661 223.895 269.401 223.435C269.151 222.975 268.801 222.62 268.351 222.37C267.911 222.11 267.411 221.98 266.851 221.98C266.301 221.98 265.806 222.11 265.366 222.37C264.926 222.62 264.576 222.975 264.316 223.435C264.056 223.895 263.926 224.435 263.926 225.055C263.926 225.665 264.056 226.205 264.316 226.675C264.576 227.135 264.926 227.495 265.366 227.755C265.806 228.005 266.301 228.13 266.851 228.13ZM269.821 229V226.63L269.926 225.04L269.776 223.45V217.87H270.841V229H269.821ZM21.755 247.075C20.975 247.075 20.275 246.905 19.655 246.565C19.045 246.215 18.565 245.74 18.215 245.14C17.865 244.53 17.69 243.835 17.69 243.055C17.69 242.265 17.865 241.57 18.215 240.97C18.565 240.37 19.045 239.9 19.655 239.56C20.275 239.22 20.975 239.05 21.755 239.05C22.425 239.05 23.03 239.18 23.57 239.44C24.11 239.7 24.535 240.09 24.845 240.61L24.05 241.15C23.78 240.75 23.445 240.455 23.045 240.265C22.645 240.075 22.21 239.98 21.74 239.98C21.18 239.98 20.675 240.11 20.225 240.37C19.775 240.62 19.42 240.975 19.16 241.435C18.9 241.895 18.77 242.435 18.77 243.055C18.77 243.675 18.9 244.215 19.16 244.675C19.42 245.135 19.775 245.495 20.225 245.755C20.675 246.005 21.18 246.13 21.74 246.13C22.21 246.13 22.645 246.035 23.045 245.845C23.445 245.655 23.78 245.365 24.05 244.975L24.845 245.515C24.535 246.025 24.11 246.415 23.57 246.685C23.03 246.945 22.425 247.075 21.755 247.075ZM30.1921 247.075C29.5221 247.075 28.9371 246.95 28.4371 246.7C27.9371 246.45 27.5471 246.075 27.2671 245.575C26.9971 245.075 26.8621 244.45 26.8621 243.7V239.125H27.9271V243.58C27.9271 244.42 28.1321 245.055 28.5421 245.485C28.9621 245.905 29.5471 246.115 30.2971 246.115C30.8471 246.115 31.3221 246.005 31.7221 245.785C32.1321 245.555 32.4421 245.225 32.6521 244.795C32.8721 244.365 32.9821 243.85 32.9821 243.25V239.125H34.0471V247H33.0271V244.84L33.1921 245.23C32.9421 245.81 32.5521 246.265 32.0221 246.595C31.5021 246.915 30.8921 247.075 30.1921 247.075ZM39.1303 247.075C38.4803 247.075 37.8653 246.985 37.2853 246.805C36.7053 246.615 36.2503 246.38 35.9203 246.1L36.4003 245.26C36.7203 245.5 37.1303 245.71 37.6303 245.89C38.1303 246.06 38.6553 246.145 39.2053 246.145C39.9553 246.145 40.4953 246.03 40.8253 245.8C41.1553 245.56 41.3203 245.245 41.3203 244.855C41.3203 244.565 41.2253 244.34 41.0353 244.18C40.8553 244.01 40.6153 243.885 40.3153 243.805C40.0153 243.715 39.6803 243.64 39.3103 243.58C38.9403 243.52 38.5703 243.45 38.2003 243.37C37.8403 243.29 37.5103 243.175 37.2103 243.025C36.9103 242.865 36.6653 242.65 36.4753 242.38C36.2953 242.11 36.2053 241.75 36.2053 241.3C36.2053 240.87 36.3253 240.485 36.5653 240.145C36.8053 239.805 37.1553 239.54 37.6153 239.35C38.0853 239.15 38.6553 239.05 39.3253 239.05C39.8353 239.05 40.3453 239.12 40.8553 239.26C41.3653 239.39 41.7853 239.565 42.1153 239.785L41.6503 240.64C41.3003 240.4 40.9253 240.23 40.5253 240.13C40.1253 240.02 39.7253 239.965 39.3253 239.965C38.6153 239.965 38.0903 240.09 37.7503 240.34C37.4203 240.58 37.2553 240.89 37.2553 241.27C37.2553 241.57 37.3453 241.805 37.5253 241.975C37.7153 242.145 37.9603 242.28 38.2603 242.38C38.5703 242.47 38.9053 242.545 39.2653 242.605C39.6353 242.665 40.0003 242.74 40.3603 242.83C40.7303 242.91 41.0653 243.025 41.3653 243.175C41.6753 243.315 41.9203 243.52 42.1003 243.79C42.2903 244.05 42.3853 244.395 42.3853 244.825C42.3853 245.285 42.2553 245.685 41.9953 246.025C41.7453 246.355 41.3753 246.615 40.8853 246.805C40.4053 246.985 39.8203 247.075 39.1303 247.075ZM46.8295 247.075C46.0895 247.075 45.5195 246.875 45.1195 246.475C44.7195 246.075 44.5195 245.51 44.5195 244.78V237.385H45.5845V244.72C45.5845 245.18 45.6995 245.535 45.9295 245.785C46.1695 246.035 46.5095 246.16 46.9495 246.16C47.4195 246.16 47.8095 246.025 48.1195 245.755L48.4945 246.52C48.2845 246.71 48.0295 246.85 47.7295 246.94C47.4395 247.03 47.1395 247.075 46.8295 247.075ZM43.1095 240.01V239.125H47.9845V240.01H43.1095ZM53.3649 247.075C52.6049 247.075 51.9199 246.905 51.3099 246.565C50.7099 246.215 50.2349 245.74 49.8849 245.14C49.5349 244.53 49.3599 243.835 49.3599 243.055C49.3599 242.265 49.5349 241.57 49.8849 240.97C50.2349 240.37 50.7099 239.9 51.3099 239.56C51.9099 239.22 52.5949 239.05 53.3649 239.05C54.1449 239.05 54.8349 239.22 55.4349 239.56C56.0449 239.9 56.5199 240.37 56.8599 240.97C57.2099 241.57 57.3849 242.265 57.3849 243.055C57.3849 243.835 57.2099 244.53 56.8599 245.14C56.5199 245.74 56.0449 246.215 55.4349 246.565C54.8249 246.905 54.1349 247.075 53.3649 247.075ZM53.3649 246.13C53.9349 246.13 54.4399 246.005 54.8799 245.755C55.3199 245.495 55.6649 245.135 55.9149 244.675C56.1749 244.205 56.3049 243.665 56.3049 243.055C56.3049 242.435 56.1749 241.895 55.9149 241.435C55.6649 240.975 55.3199 240.62 54.8799 240.37C54.4399 240.11 53.9399 239.98 53.3799 239.98C52.8199 239.98 52.3199 240.11 51.8799 240.37C51.4399 240.62 51.0899 240.975 50.8299 241.435C50.5699 241.895 50.4399 242.435 50.4399 243.055C50.4399 243.665 50.5699 244.205 50.8299 244.675C51.0899 245.135 51.4399 245.495 51.8799 245.755C52.3199 246.005 52.8149 246.13 53.3649 246.13ZM69.3992 239.05C70.0392 239.05 70.5942 239.175 71.0642 239.425C71.5442 239.665 71.9142 240.035 72.1742 240.535C72.4442 241.035 72.5792 241.665 72.5792 242.425V247H71.5142V242.53C71.5142 241.7 71.3142 241.075 70.9142 240.655C70.5242 240.225 69.9692 240.01 69.2492 240.01C68.7092 240.01 68.2392 240.125 67.8392 240.355C67.4492 240.575 67.1442 240.9 66.9242 241.33C66.7142 241.75 66.6092 242.26 66.6092 242.86V247H65.5442V242.53C65.5442 241.7 65.3442 241.075 64.9442 240.655C64.5442 240.225 63.9842 240.01 63.2642 240.01C62.7342 240.01 62.2692 240.125 61.8692 240.355C61.4692 240.575 61.1592 240.9 60.9392 241.33C60.7292 241.75 60.6242 242.26 60.6242 242.86V247H59.5592V239.125H60.5792V241.255L60.4142 240.88C60.6542 240.31 61.0392 239.865 61.5692 239.545C62.1092 239.215 62.7442 239.05 63.4742 239.05C64.2442 239.05 64.8992 239.245 65.4392 239.635C65.9792 240.015 66.3292 240.59 66.4892 241.36L66.0692 241.195C66.2992 240.555 66.7042 240.04 67.2842 239.65C67.8742 239.25 68.5792 239.05 69.3992 239.05ZM75.4674 247V239.125H76.5324V247H75.4674ZM76.0074 237.385C75.7874 237.385 75.6024 237.31 75.4524 237.16C75.3024 237.01 75.2274 236.83 75.2274 236.62C75.2274 236.41 75.3024 236.235 75.4524 236.095C75.6024 235.945 75.7874 235.87 76.0074 235.87C76.2274 235.87 76.4124 235.94 76.5624 236.08C76.7124 236.22 76.7874 236.395 76.7874 236.605C76.7874 236.825 76.7124 237.01 76.5624 237.16C76.4224 237.31 76.2374 237.385 76.0074 237.385ZM78.6407 247V246.295L83.8907 239.65L84.1157 240.01H78.7307V239.125H84.9557V239.815L79.7207 246.475L79.4507 246.115H85.0607V247H78.6407ZM90.37 247.075C89.55 247.075 88.83 246.905 88.21 246.565C87.59 246.215 87.105 245.74 86.755 245.14C86.405 244.53 86.23 243.835 86.23 243.055C86.23 242.275 86.395 241.585 86.725 240.985C87.065 240.385 87.525 239.915 88.105 239.575C88.695 239.225 89.355 239.05 90.085 239.05C90.825 239.05 91.48 239.22 92.05 239.56C92.63 239.89 93.085 240.36 93.415 240.97C93.745 241.57 93.91 242.265 93.91 243.055C93.91 243.105 93.905 243.16 93.895 243.22C93.895 243.27 93.895 243.325 93.895 243.385H87.04V242.59H93.325L92.905 242.905C92.905 242.335 92.78 241.83 92.53 241.39C92.29 240.94 91.96 240.59 91.54 240.34C91.12 240.09 90.635 239.965 90.085 239.965C89.545 239.965 89.06 240.09 88.63 240.34C88.2 240.59 87.865 240.94 87.625 241.39C87.385 241.84 87.265 242.355 87.265 242.935V243.1C87.265 243.7 87.395 244.23 87.655 244.69C87.925 245.14 88.295 245.495 88.765 245.755C89.245 246.005 89.79 246.13 90.4 246.13C90.88 246.13 91.325 246.045 91.735 245.875C92.155 245.705 92.515 245.445 92.815 245.095L93.415 245.785C93.065 246.205 92.625 246.525 92.095 246.745C91.575 246.965 91 247.075 90.37 247.075ZM104.939 247V245.26L104.894 244.975V242.065C104.894 241.395 104.704 240.88 104.324 240.52C103.954 240.16 103.399 239.98 102.659 239.98C102.149 239.98 101.664 240.065 101.204 240.235C100.744 240.405 100.354 240.63 100.034 240.91L99.5536 240.115C99.9536 239.775 100.434 239.515 100.994 239.335C101.554 239.145 102.144 239.05 102.764 239.05C103.784 239.05 104.569 239.305 105.119 239.815C105.679 240.315 105.959 241.08 105.959 242.11V247H104.939ZM102.224 247.075C101.634 247.075 101.119 246.98 100.679 246.79C100.249 246.59 99.9186 246.32 99.6886 245.98C99.4586 245.63 99.3436 245.23 99.3436 244.78C99.3436 244.37 99.4386 244 99.6286 243.67C99.8286 243.33 100.149 243.06 100.589 242.86C101.039 242.65 101.639 242.545 102.389 242.545H105.104V243.34H102.419C101.659 243.34 101.129 243.475 100.829 243.745C100.539 244.015 100.394 244.35 100.394 244.75C100.394 245.2 100.569 245.56 100.919 245.83C101.269 246.1 101.759 246.235 102.389 246.235C102.989 246.235 103.504 246.1 103.934 245.83C104.374 245.55 104.694 245.15 104.894 244.63L105.134 245.365C104.934 245.885 104.584 246.3 104.084 246.61C103.594 246.92 102.974 247.075 102.224 247.075ZM112.871 239.05C113.511 239.05 114.071 239.175 114.551 239.425C115.041 239.665 115.421 240.035 115.691 240.535C115.971 241.035 116.111 241.665 116.111 242.425V247H115.046V242.53C115.046 241.7 114.836 241.075 114.416 240.655C114.006 240.225 113.426 240.01 112.676 240.01C112.116 240.01 111.626 240.125 111.206 240.355C110.796 240.575 110.476 240.9 110.246 241.33C110.026 241.75 109.916 242.26 109.916 242.86V247H108.851V239.125H109.871V241.285L109.706 240.88C109.956 240.31 110.356 239.865 110.906 239.545C111.456 239.215 112.111 239.05 112.871 239.05ZM121.103 247.075C120.453 247.075 119.838 246.985 119.258 246.805C118.678 246.615 118.223 246.38 117.893 246.1L118.373 245.26C118.693 245.5 119.103 245.71 119.603 245.89C120.103 246.06 120.628 246.145 121.178 246.145C121.928 246.145 122.468 246.03 122.798 245.8C123.128 245.56 123.293 245.245 123.293 244.855C123.293 244.565 123.198 244.34 123.008 244.18C122.828 244.01 122.588 243.885 122.288 243.805C121.988 243.715 121.653 243.64 121.283 243.58C120.913 243.52 120.543 243.45 120.173 243.37C119.813 243.29 119.483 243.175 119.183 243.025C118.883 242.865 118.638 242.65 118.448 242.38C118.268 242.11 118.178 241.75 118.178 241.3C118.178 240.87 118.298 240.485 118.538 240.145C118.778 239.805 119.128 239.54 119.588 239.35C120.058 239.15 120.628 239.05 121.298 239.05C121.808 239.05 122.318 239.12 122.828 239.26C123.338 239.39 123.758 239.565 124.088 239.785L123.623 240.64C123.273 240.4 122.898 240.23 122.498 240.13C122.098 240.02 121.698 239.965 121.298 239.965C120.588 239.965 120.063 240.09 119.723 240.34C119.393 240.58 119.228 240.89 119.228 241.27C119.228 241.57 119.318 241.805 119.498 241.975C119.688 242.145 119.933 242.28 120.233 242.38C120.543 242.47 120.878 242.545 121.238 242.605C121.608 242.665 121.973 242.74 122.333 242.83C122.703 242.91 123.038 243.025 123.338 243.175C123.648 243.315 123.893 243.52 124.073 243.79C124.263 244.05 124.358 244.395 124.358 244.825C124.358 245.285 124.228 245.685 123.968 246.025C123.718 246.355 123.348 246.615 122.858 246.805C122.378 246.985 121.793 247.075 121.103 247.075ZM127.771 247L124.801 239.125H125.821L128.521 246.43H128.056L130.831 239.125H131.746L134.491 246.43H134.026L136.771 239.125H137.746L134.761 247H133.756L131.116 240.13H131.431L128.776 247H127.771ZM142.475 247.075C141.655 247.075 140.935 246.905 140.315 246.565C139.695 246.215 139.21 245.74 138.86 245.14C138.51 244.53 138.335 243.835 138.335 243.055C138.335 242.275 138.5 241.585 138.83 240.985C139.17 240.385 139.63 239.915 140.21 239.575C140.8 239.225 141.46 239.05 142.19 239.05C142.93 239.05 143.585 239.22 144.155 239.56C144.735 239.89 145.19 240.36 145.52 240.97C145.85 241.57 146.015 242.265 146.015 243.055C146.015 243.105 146.01 243.16 146 243.22C146 243.27 146 243.325 146 243.385H139.145V242.59H145.43L145.01 242.905C145.01 242.335 144.885 241.83 144.635 241.39C144.395 240.94 144.065 240.59 143.645 240.34C143.225 240.09 142.74 239.965 142.19 239.965C141.65 239.965 141.165 240.09 140.735 240.34C140.305 240.59 139.97 240.94 139.73 241.39C139.49 241.84 139.37 242.355 139.37 242.935V243.1C139.37 243.7 139.5 244.23 139.76 244.69C140.03 245.14 140.4 245.495 140.87 245.755C141.35 246.005 141.895 246.13 142.505 246.13C142.985 246.13 143.43 246.045 143.84 245.875C144.26 245.705 144.62 245.445 144.92 245.095L145.52 245.785C145.17 246.205 144.73 246.525 144.2 246.745C143.68 246.965 143.105 247.075 142.475 247.075ZM148.182 247V239.125H149.202V241.27L149.097 240.895C149.317 240.295 149.687 239.84 150.207 239.53C150.727 239.21 151.372 239.05 152.142 239.05V240.085C152.102 240.085 152.062 240.085 152.022 240.085C151.982 240.075 151.942 240.07 151.902 240.07C151.072 240.07 150.422 240.325 149.952 240.835C149.482 241.335 149.247 242.05 149.247 242.98V247H148.182ZM161.339 247.075C160.579 247.075 159.894 246.905 159.284 246.565C158.684 246.215 158.209 245.74 157.859 245.14C157.509 244.53 157.334 243.835 157.334 243.055C157.334 242.265 157.509 241.57 157.859 240.97C158.209 240.37 158.684 239.9 159.284 239.56C159.884 239.22 160.569 239.05 161.339 239.05C162.119 239.05 162.809 239.22 163.409 239.56C164.019 239.9 164.494 240.37 164.834 240.97C165.184 241.57 165.359 242.265 165.359 243.055C165.359 243.835 165.184 244.53 164.834 245.14C164.494 245.74 164.019 246.215 163.409 246.565C162.799 246.905 162.109 247.075 161.339 247.075ZM161.339 246.13C161.909 246.13 162.414 246.005 162.854 245.755C163.294 245.495 163.639 245.135 163.889 244.675C164.149 244.205 164.279 243.665 164.279 243.055C164.279 242.435 164.149 241.895 163.889 241.435C163.639 240.975 163.294 240.62 162.854 240.37C162.414 240.11 161.914 239.98 161.354 239.98C160.794 239.98 160.294 240.11 159.854 240.37C159.414 240.62 159.064 240.975 158.804 241.435C158.544 241.895 158.414 242.435 158.414 243.055C158.414 243.665 158.544 244.205 158.804 244.675C159.064 245.135 159.414 245.495 159.854 245.755C160.294 246.005 160.789 246.13 161.339 246.13ZM171.598 247.075C170.918 247.075 170.303 246.92 169.753 246.61C169.203 246.29 168.763 245.835 168.433 245.245C168.113 244.645 167.953 243.915 167.953 243.055C167.953 242.195 168.113 241.47 168.433 240.88C168.753 240.28 169.188 239.825 169.738 239.515C170.288 239.205 170.908 239.05 171.598 239.05C172.348 239.05 173.018 239.22 173.608 239.56C174.208 239.89 174.678 240.36 175.018 240.97C175.358 241.57 175.528 242.265 175.528 243.055C175.528 243.855 175.358 244.555 175.018 245.155C174.678 245.755 174.208 246.225 173.608 246.565C173.018 246.905 172.348 247.075 171.598 247.075ZM167.533 249.91V239.125H168.553V241.495L168.448 243.07L168.598 244.66V249.91H167.533ZM171.523 246.13C172.083 246.13 172.583 246.005 173.023 245.755C173.463 245.495 173.813 245.135 174.073 244.675C174.333 244.205 174.463 243.665 174.463 243.055C174.463 242.445 174.333 241.91 174.073 241.45C173.813 240.99 173.463 240.63 173.023 240.37C172.583 240.11 172.083 239.98 171.523 239.98C170.963 239.98 170.458 240.11 170.008 240.37C169.568 240.63 169.218 240.99 168.958 241.45C168.708 241.91 168.583 242.445 168.583 243.055C168.583 243.665 168.708 244.205 168.958 244.675C169.218 245.135 169.568 245.495 170.008 245.755C170.458 246.005 170.963 246.13 171.523 246.13ZM180.189 247.075C179.449 247.075 178.879 246.875 178.479 246.475C178.079 246.075 177.879 245.51 177.879 244.78V237.385H178.944V244.72C178.944 245.18 179.059 245.535 179.289 245.785C179.529 246.035 179.869 246.16 180.309 246.16C180.779 246.16 181.169 246.025 181.479 245.755L181.854 246.52C181.644 246.71 181.389 246.85 181.089 246.94C180.799 247.03 180.499 247.075 180.189 247.075ZM176.469 240.01V239.125H181.344V240.01H176.469ZM183.793 247V239.125H184.858V247H183.793ZM184.333 237.385C184.113 237.385 183.928 237.31 183.778 237.16C183.628 237.01 183.553 236.83 183.553 236.62C183.553 236.41 183.628 236.235 183.778 236.095C183.928 235.945 184.113 235.87 184.333 235.87C184.553 235.87 184.738 235.94 184.888 236.08C185.038 236.22 185.113 236.395 185.113 236.605C185.113 236.825 185.038 237.01 184.888 237.16C184.748 237.31 184.563 237.385 184.333 237.385ZM191.031 247.075C190.271 247.075 189.586 246.905 188.976 246.565C188.376 246.215 187.901 245.74 187.551 245.14C187.201 244.53 187.026 243.835 187.026 243.055C187.026 242.265 187.201 241.57 187.551 240.97C187.901 240.37 188.376 239.9 188.976 239.56C189.576 239.22 190.261 239.05 191.031 239.05C191.811 239.05 192.501 239.22 193.101 239.56C193.711 239.9 194.186 240.37 194.526 240.97C194.876 241.57 195.051 242.265 195.051 243.055C195.051 243.835 194.876 244.53 194.526 245.14C194.186 245.74 193.711 246.215 193.101 246.565C192.491 246.905 191.801 247.075 191.031 247.075ZM191.031 246.13C191.601 246.13 192.106 246.005 192.546 245.755C192.986 245.495 193.331 245.135 193.581 244.675C193.841 244.205 193.971 243.665 193.971 243.055C193.971 242.435 193.841 241.895 193.581 241.435C193.331 240.975 192.986 240.62 192.546 240.37C192.106 240.11 191.606 239.98 191.046 239.98C190.486 239.98 189.986 240.11 189.546 240.37C189.106 240.62 188.756 240.975 188.496 241.435C188.236 241.895 188.106 242.435 188.106 243.055C188.106 243.665 188.236 244.205 188.496 244.675C188.756 245.135 189.106 245.495 189.546 245.755C189.986 246.005 190.481 246.13 191.031 246.13ZM201.245 239.05C201.885 239.05 202.445 239.175 202.925 239.425C203.415 239.665 203.795 240.035 204.065 240.535C204.345 241.035 204.485 241.665 204.485 242.425V247H203.42V242.53C203.42 241.7 203.21 241.075 202.79 240.655C202.38 240.225 201.8 240.01 201.05 240.01C200.49 240.01 200 240.125 199.58 240.355C199.17 240.575 198.85 240.9 198.62 241.33C198.4 241.75 198.29 242.26 198.29 242.86V247H197.225V239.125H198.245V241.285L198.08 240.88C198.33 240.31 198.73 239.865 199.28 239.545C199.83 239.215 200.485 239.05 201.245 239.05ZM209.477 247.075C208.827 247.075 208.212 246.985 207.632 246.805C207.052 246.615 206.597 246.38 206.267 246.1L206.747 245.26C207.067 245.5 207.477 245.71 207.977 245.89C208.477 246.06 209.002 246.145 209.552 246.145C210.302 246.145 210.842 246.03 211.172 245.8C211.502 245.56 211.667 245.245 211.667 244.855C211.667 244.565 211.572 244.34 211.382 244.18C211.202 244.01 210.962 243.885 210.662 243.805C210.362 243.715 210.027 243.64 209.657 243.58C209.287 243.52 208.917 243.45 208.547 243.37C208.187 243.29 207.857 243.175 207.557 243.025C207.257 242.865 207.012 242.65 206.822 242.38C206.642 242.11 206.552 241.75 206.552 241.3C206.552 240.87 206.672 240.485 206.912 240.145C207.152 239.805 207.502 239.54 207.962 239.35C208.432 239.15 209.002 239.05 209.672 239.05C210.182 239.05 210.692 239.12 211.202 239.26C211.712 239.39 212.132 239.565 212.462 239.785L211.997 240.64C211.647 240.4 211.272 240.23 210.872 240.13C210.472 240.02 210.072 239.965 209.672 239.965C208.962 239.965 208.437 240.09 208.097 240.34C207.767 240.58 207.602 240.89 207.602 241.27C207.602 241.57 207.692 241.805 207.872 241.975C208.062 242.145 208.307 242.28 208.607 242.38C208.917 242.47 209.252 242.545 209.612 242.605C209.982 242.665 210.347 242.74 210.707 242.83C211.077 242.91 211.412 243.025 211.712 243.175C212.022 243.315 212.267 243.52 212.447 243.79C212.637 244.05 212.732 244.395 212.732 244.825C212.732 245.285 212.602 245.685 212.342 246.025C212.092 246.355 211.722 246.615 211.232 246.805C210.752 246.985 210.167 247.075 209.477 247.075ZM218.792 247V238.135C218.792 237.435 218.997 236.87 219.407 236.44C219.817 236.01 220.407 235.795 221.177 235.795C221.477 235.795 221.767 235.835 222.047 235.915C222.327 235.995 222.562 236.12 222.752 236.29L222.392 237.085C222.242 236.955 222.067 236.86 221.867 236.8C221.667 236.73 221.452 236.695 221.222 236.695C220.772 236.695 220.427 236.82 220.187 237.07C219.947 237.32 219.827 237.69 219.827 238.18V239.38L219.857 239.875V247H218.792ZM217.382 240.01V239.125H222.257V240.01H217.382ZM226.773 247.075C226.013 247.075 225.328 246.905 224.718 246.565C224.118 246.215 223.643 245.74 223.293 245.14C222.943 244.53 222.768 243.835 222.768 243.055C222.768 242.265 222.943 241.57 223.293 240.97C223.643 240.37 224.118 239.9 224.718 239.56C225.318 239.22 226.003 239.05 226.773 239.05C227.553 239.05 228.243 239.22 228.843 239.56C229.453 239.9 229.928 240.37 230.268 240.97C230.618 241.57 230.793 242.265 230.793 243.055C230.793 243.835 230.618 244.53 230.268 245.14C229.928 245.74 229.453 246.215 228.843 246.565C228.233 246.905 227.543 247.075 226.773 247.075ZM226.773 246.13C227.343 246.13 227.848 246.005 228.288 245.755C228.728 245.495 229.073 245.135 229.323 244.675C229.583 244.205 229.713 243.665 229.713 243.055C229.713 242.435 229.583 241.895 229.323 241.435C229.073 240.975 228.728 240.62 228.288 240.37C227.848 240.11 227.348 239.98 226.788 239.98C226.228 239.98 225.728 240.11 225.288 240.37C224.848 240.62 224.498 240.975 224.238 241.435C223.978 241.895 223.848 242.435 223.848 243.055C223.848 243.665 223.978 244.205 224.238 244.675C224.498 245.135 224.848 245.495 225.288 245.755C225.728 246.005 226.223 246.13 226.773 246.13ZM232.967 247V239.125H233.987V241.27L233.882 240.895C234.102 240.295 234.472 239.84 234.992 239.53C235.512 239.21 236.157 239.05 236.927 239.05V240.085C236.887 240.085 236.847 240.085 236.807 240.085C236.767 240.075 236.727 240.07 236.687 240.07C235.857 240.07 235.207 240.325 234.737 240.835C234.267 241.335 234.032 242.05 234.032 242.98V247H232.967ZM28.325 257.05C28.965 257.05 29.52 257.175 29.99 257.425C30.47 257.665 30.84 258.035 31.1 258.535C31.37 259.035 31.505 259.665 31.505 260.425V265H30.44V260.53C30.44 259.7 30.24 259.075 29.84 258.655C29.45 258.225 28.895 258.01 28.175 258.01C27.635 258.01 27.165 258.125 26.765 258.355C26.375 258.575 26.07 258.9 25.85 259.33C25.64 259.75 25.535 260.26 25.535 260.86V265H24.47V260.53C24.47 259.7 24.27 259.075 23.87 258.655C23.47 258.225 22.91 258.01 22.19 258.01C21.66 258.01 21.195 258.125 20.795 258.355C20.395 258.575 20.085 258.9 19.865 259.33C19.655 259.75 19.55 260.26 19.55 260.86V265H18.485V257.125H19.505V259.255L19.34 258.88C19.58 258.31 19.965 257.865 20.495 257.545C21.035 257.215 21.67 257.05 22.4 257.05C23.17 257.05 23.825 257.245 24.365 257.635C24.905 258.015 25.255 258.59 25.415 259.36L24.995 259.195C25.225 258.555 25.63 258.04 26.21 257.65C26.8 257.25 27.505 257.05 28.325 257.05ZM37.6482 265.075C36.9782 265.075 36.3932 264.95 35.8932 264.7C35.3932 264.45 35.0032 264.075 34.7232 263.575C34.4532 263.075 34.3182 262.45 34.3182 261.7V257.125H35.3832V261.58C35.3832 262.42 35.5882 263.055 35.9982 263.485C36.4182 263.905 37.0032 264.115 37.7532 264.115C38.3032 264.115 38.7782 264.005 39.1782 263.785C39.5882 263.555 39.8982 263.225 40.1082 262.795C40.3282 262.365 40.4382 261.85 40.4382 261.25V257.125H41.5032V265H40.4832V262.84L40.6482 263.23C40.3982 263.81 40.0082 264.265 39.4782 264.595C38.9582 264.915 38.3482 265.075 37.6482 265.075ZM44.4713 265V253.87H45.5363V265H44.4713ZM51.0336 265.075C50.2936 265.075 49.7236 264.875 49.3236 264.475C48.9236 264.075 48.7236 263.51 48.7236 262.78V255.385H49.7886V262.72C49.7886 263.18 49.9036 263.535 50.1336 263.785C50.3736 264.035 50.7136 264.16 51.1536 264.16C51.6236 264.16 52.0136 264.025 52.3236 263.755L52.6986 264.52C52.4886 264.71 52.2336 264.85 51.9336 264.94C51.6436 265.03 51.3436 265.075 51.0336 265.075ZM47.3136 258.01V257.125H52.1886V258.01H47.3136ZM54.6373 265V257.125H55.7023V265H54.6373ZM55.1773 255.385C54.9573 255.385 54.7723 255.31 54.6223 255.16C54.4723 255.01 54.3973 254.83 54.3973 254.62C54.3973 254.41 54.4723 254.235 54.6223 254.095C54.7723 253.945 54.9573 253.87 55.1773 253.87C55.3973 253.87 55.5823 253.94 55.7323 254.08C55.8823 254.22 55.9573 254.395 55.9573 254.605C55.9573 254.825 55.8823 255.01 55.7323 255.16C55.5923 255.31 55.4073 255.385 55.1773 255.385ZM62.7307 265.075C62.0507 265.075 61.4357 264.92 60.8857 264.61C60.3357 264.29 59.8957 263.835 59.5657 263.245C59.2457 262.645 59.0857 261.915 59.0857 261.055C59.0857 260.195 59.2457 259.47 59.5657 258.88C59.8857 258.28 60.3207 257.825 60.8707 257.515C61.4207 257.205 62.0407 257.05 62.7307 257.05C63.4807 257.05 64.1507 257.22 64.7407 257.56C65.3407 257.89 65.8107 258.36 66.1507 258.97C66.4907 259.57 66.6607 260.265 66.6607 261.055C66.6607 261.855 66.4907 262.555 66.1507 263.155C65.8107 263.755 65.3407 264.225 64.7407 264.565C64.1507 264.905 63.4807 265.075 62.7307 265.075ZM58.6657 267.91V257.125H59.6857V259.495L59.5807 261.07L59.7307 262.66V267.91H58.6657ZM62.6557 264.13C63.2157 264.13 63.7157 264.005 64.1557 263.755C64.5957 263.495 64.9457 263.135 65.2057 262.675C65.4657 262.205 65.5957 261.665 65.5957 261.055C65.5957 260.445 65.4657 259.91 65.2057 259.45C64.9457 258.99 64.5957 258.63 64.1557 258.37C63.7157 258.11 63.2157 257.98 62.6557 257.98C62.0957 257.98 61.5907 258.11 61.1407 258.37C60.7007 258.63 60.3507 258.99 60.0907 259.45C59.8407 259.91 59.7157 260.445 59.7157 261.055C59.7157 261.665 59.8407 262.205 60.0907 262.675C60.3507 263.135 60.7007 263.495 61.1407 263.755C61.5907 264.005 62.0957 264.13 62.6557 264.13ZM68.8317 265V253.87H69.8967V265H68.8317ZM76.205 265.075C75.385 265.075 74.665 264.905 74.045 264.565C73.425 264.215 72.94 263.74 72.59 263.14C72.24 262.53 72.065 261.835 72.065 261.055C72.065 260.275 72.23 259.585 72.56 258.985C72.9 258.385 73.36 257.915 73.94 257.575C74.53 257.225 75.19 257.05 75.92 257.05C76.66 257.05 77.315 257.22 77.885 257.56C78.465 257.89 78.92 258.36 79.25 258.97C79.58 259.57 79.745 260.265 79.745 261.055C79.745 261.105 79.74 261.16 79.73 261.22C79.73 261.27 79.73 261.325 79.73 261.385H72.875V260.59H79.16L78.74 260.905C78.74 260.335 78.615 259.83 78.365 259.39C78.125 258.94 77.795 258.59 77.375 258.34C76.955 258.09 76.47 257.965 75.92 257.965C75.38 257.965 74.895 258.09 74.465 258.34C74.035 258.59 73.7 258.94 73.46 259.39C73.22 259.84 73.1 260.355 73.1 260.935V261.1C73.1 261.7 73.23 262.23 73.49 262.69C73.76 263.14 74.13 263.495 74.6 263.755C75.08 264.005 75.625 264.13 76.235 264.13C76.715 264.13 77.16 264.045 77.57 263.875C77.99 263.705 78.35 263.445 78.65 263.095L79.25 263.785C78.9 264.205 78.46 264.525 77.93 264.745C77.41 264.965 76.835 265.075 76.205 265.075ZM81.4742 261.4V260.47H85.4042V261.4H81.4742ZM91.2032 265.075C90.4232 265.075 89.7232 264.905 89.1032 264.565C88.4932 264.215 88.0132 263.74 87.6632 263.14C87.3132 262.53 87.1382 261.835 87.1382 261.055C87.1382 260.265 87.3132 259.57 87.6632 258.97C88.0132 258.37 88.4932 257.9 89.1032 257.56C89.7232 257.22 90.4232 257.05 91.2032 257.05C91.8732 257.05 92.4782 257.18 93.0182 257.44C93.5582 257.7 93.9832 258.09 94.2932 258.61L93.4982 259.15C93.2282 258.75 92.8932 258.455 92.4932 258.265C92.0932 258.075 91.6582 257.98 91.1882 257.98C90.6282 257.98 90.1232 258.11 89.6732 258.37C89.2232 258.62 88.8682 258.975 88.6082 259.435C88.3482 259.895 88.2182 260.435 88.2182 261.055C88.2182 261.675 88.3482 262.215 88.6082 262.675C88.8682 263.135 89.2232 263.495 89.6732 263.755C90.1232 264.005 90.6282 264.13 91.1882 264.13C91.6582 264.13 92.0932 264.035 92.4932 263.845C92.8932 263.655 93.2282 263.365 93.4982 262.975L94.2932 263.515C93.9832 264.025 93.5582 264.415 93.0182 264.685C92.4782 264.945 91.8732 265.075 91.2032 265.075ZM100.288 257.05C100.928 257.05 101.488 257.175 101.968 257.425C102.458 257.665 102.838 258.035 103.108 258.535C103.388 259.035 103.528 259.665 103.528 260.425V265H102.463V260.53C102.463 259.7 102.253 259.075 101.833 258.655C101.423 258.225 100.843 258.01 100.093 258.01C99.5332 258.01 99.0432 258.125 98.6232 258.355C98.2132 258.575 97.8932 258.9 97.6632 259.33C97.4432 259.75 97.3332 260.26 97.3332 260.86V265H96.2682V253.87H97.3332V259.285L97.1232 258.88C97.3732 258.31 97.7732 257.865 98.3232 257.545C98.8732 257.215 99.5282 257.05 100.288 257.05ZM109.615 265.075C108.855 265.075 108.17 264.905 107.56 264.565C106.96 264.215 106.485 263.74 106.135 263.14C105.785 262.53 105.61 261.835 105.61 261.055C105.61 260.265 105.785 259.57 106.135 258.97C106.485 258.37 106.96 257.9 107.56 257.56C108.16 257.22 108.845 257.05 109.615 257.05C110.395 257.05 111.085 257.22 111.685 257.56C112.295 257.9 112.77 258.37 113.11 258.97C113.46 259.57 113.635 260.265 113.635 261.055C113.635 261.835 113.46 262.53 113.11 263.14C112.77 263.74 112.295 264.215 111.685 264.565C111.075 264.905 110.385 265.075 109.615 265.075ZM109.615 264.13C110.185 264.13 110.69 264.005 111.13 263.755C111.57 263.495 111.915 263.135 112.165 262.675C112.425 262.205 112.555 261.665 112.555 261.055C112.555 260.435 112.425 259.895 112.165 259.435C111.915 258.975 111.57 258.62 111.13 258.37C110.69 258.11 110.19 257.98 109.63 257.98C109.07 257.98 108.57 258.11 108.13 258.37C107.69 258.62 107.34 258.975 107.08 259.435C106.82 259.895 106.69 260.435 106.69 261.055C106.69 261.665 106.82 262.205 107.08 262.675C107.34 263.135 107.69 263.495 108.13 263.755C108.57 264.005 109.065 264.13 109.615 264.13ZM115.809 265V257.125H116.874V265H115.809ZM116.349 255.385C116.129 255.385 115.944 255.31 115.794 255.16C115.644 255.01 115.569 254.83 115.569 254.62C115.569 254.41 115.644 254.235 115.794 254.095C115.944 253.945 116.129 253.87 116.349 253.87C116.569 253.87 116.754 253.94 116.904 254.08C117.054 254.22 117.129 254.395 117.129 254.605C117.129 254.825 117.054 255.01 116.904 255.16C116.764 255.31 116.579 255.385 116.349 255.385ZM123.108 265.075C122.328 265.075 121.628 264.905 121.008 264.565C120.398 264.215 119.918 263.74 119.568 263.14C119.218 262.53 119.043 261.835 119.043 261.055C119.043 260.265 119.218 259.57 119.568 258.97C119.918 258.37 120.398 257.9 121.008 257.56C121.628 257.22 122.328 257.05 123.108 257.05C123.778 257.05 124.383 257.18 124.923 257.44C125.463 257.7 125.888 258.09 126.198 258.61L125.403 259.15C125.133 258.75 124.798 258.455 124.398 258.265C123.998 258.075 123.563 257.98 123.093 257.98C122.533 257.98 122.028 258.11 121.578 258.37C121.128 258.62 120.773 258.975 120.513 259.435C120.253 259.895 120.123 260.435 120.123 261.055C120.123 261.675 120.253 262.215 120.513 262.675C120.773 263.135 121.128 263.495 121.578 263.755C122.028 264.005 122.533 264.13 123.093 264.13C123.563 264.13 123.998 264.035 124.398 263.845C124.798 263.655 125.133 263.365 125.403 262.975L126.198 263.515C125.888 264.025 125.463 264.415 124.923 264.685C124.383 264.945 123.778 265.075 123.108 265.075ZM131.503 265.075C130.683 265.075 129.963 264.905 129.343 264.565C128.723 264.215 128.238 263.74 127.888 263.14C127.538 262.53 127.363 261.835 127.363 261.055C127.363 260.275 127.528 259.585 127.858 258.985C128.198 258.385 128.658 257.915 129.238 257.575C129.828 257.225 130.488 257.05 131.218 257.05C131.958 257.05 132.613 257.22 133.183 257.56C133.763 257.89 134.218 258.36 134.548 258.97C134.878 259.57 135.043 260.265 135.043 261.055C135.043 261.105 135.038 261.16 135.028 261.22C135.028 261.27 135.028 261.325 135.028 261.385H128.173V260.59H134.458L134.038 260.905C134.038 260.335 133.913 259.83 133.663 259.39C133.423 258.94 133.093 258.59 132.673 258.34C132.253 258.09 131.768 257.965 131.218 257.965C130.678 257.965 130.193 258.09 129.763 258.34C129.333 258.59 128.998 258.94 128.758 259.39C128.518 259.84 128.398 260.355 128.398 260.935V261.1C128.398 261.7 128.528 262.23 128.788 262.69C129.058 263.14 129.428 263.495 129.898 263.755C130.378 264.005 130.923 264.13 131.533 264.13C132.013 264.13 132.458 264.045 132.868 263.875C133.288 263.705 133.648 263.445 133.948 263.095L134.548 263.785C134.198 264.205 133.758 264.525 133.228 264.745C132.708 264.965 132.133 265.075 131.503 265.075ZM137.316 265.075C137.096 265.075 136.906 264.995 136.746 264.835C136.596 264.675 136.521 264.48 136.521 264.25C136.521 264.01 136.596 263.815 136.746 263.665C136.906 263.515 137.096 263.44 137.316 263.44C137.536 263.44 137.721 263.515 137.871 263.665C138.031 263.815 138.111 264.01 138.111 264.25C138.111 264.48 138.031 264.675 137.871 264.835C137.721 264.995 137.536 265.075 137.316 265.075Z" fill="#434343"/>
<g clip-path="url(#clip0_463_3462)">
<g filter="url(#filter1_d_463_3462)">
<path d="M192.676 66.3621C191.447 65.0966 190.179 63.7897 189.764 62.8C189.394 61.9172 189.366 60.1 189.341 58.5C189.289 55.0517 189.223 50.7621 186.136 47.7172C183.05 44.6724 178.71 44.6138 175.219 44.5517C173.599 44.5276 171.759 44.5 170.865 44.1345C169.863 43.7241 168.54 42.4724 167.258 41.2586C164.787 38.9172 161.707 36 157.5 36C153.293 36 150.213 38.9172 147.742 41.2586C146.46 42.4724 145.137 43.7241 144.135 44.1345C143.241 44.5 141.401 44.5276 139.781 44.5517C136.29 44.6207 131.947 44.669 128.871 47.7241C125.795 50.7793 125.728 55.0517 125.659 58.5C125.634 60.1 125.606 61.9172 125.236 62.8C124.821 63.7897 123.553 65.0966 122.324 66.3621C119.954 68.8035 117 71.8621 117 76C117 80.1379 119.954 83.1966 122.324 85.6552C123.553 86.9207 124.821 88.2276 125.236 89.2172C125.606 90.1 125.634 91.9172 125.659 93.5172C125.711 96.9655 125.777 101.255 128.864 104.3C131.95 107.345 136.29 107.403 139.781 107.466C141.401 107.49 143.241 107.517 144.135 107.883C145.137 108.293 146.46 109.545 147.742 110.759C150.213 113.083 153.31 116 157.5 116C161.69 116 164.787 113.083 167.258 110.741C168.54 109.528 169.863 108.276 170.865 107.866C171.759 107.5 173.599 107.472 175.219 107.448C178.71 107.397 183.053 107.331 186.136 104.283C189.219 101.234 189.279 96.9483 189.341 93.5C189.366 91.9 189.394 90.0828 189.764 89.2C190.179 88.2103 191.447 86.9035 192.676 85.6379C195.046 83.1966 198 80.1552 198 76C198 71.8448 195.046 68.8035 192.676 66.3621ZM186.629 79.9103C184.946 81.6345 183.039 83.6069 182.023 86.0345C181.039 88.3793 181 90.9172 180.976 93.3759C180.948 95.2241 180.91 97.7586 180.225 98.431C179.541 99.1035 176.978 99.1448 175.107 99.1724C172.618 99.2103 170.048 99.2483 167.674 100.207C165.23 101.21 163.229 103.093 161.473 104.755C160.216 105.945 158.338 107.724 157.5 107.724C156.662 107.724 154.784 105.945 153.541 104.769C151.795 103.107 149.798 101.224 147.34 100.221C144.966 99.2483 142.396 99.2103 139.907 99.1862C138.036 99.1586 135.469 99.1207 134.789 98.4448C134.108 97.769 134.066 95.2379 134.038 93.3897C134 90.931 133.961 88.3931 132.991 86.0483C131.975 83.6345 130.068 81.6586 128.385 79.9241C127.181 78.6828 125.379 76.8276 125.379 76C125.379 75.1724 127.181 73.3172 128.371 72.0897C130.054 70.3655 131.961 68.3931 132.977 65.9655C133.961 63.6207 134 61.0828 134.024 58.6241C134.066 56.7759 134.108 54.2414 134.806 53.5862C135.504 52.931 138.053 52.8724 139.924 52.8448C142.414 52.8069 144.983 52.769 147.358 51.8103C149.802 50.8069 151.802 48.9241 153.558 47.2621C154.784 46.0552 156.662 44.2759 157.5 44.2759C158.338 44.2759 160.216 46.0552 161.459 47.231C163.205 48.8931 165.202 50.7759 167.66 51.7793C170.034 52.7517 172.604 52.7897 175.093 52.8138C176.964 52.8414 179.531 52.8793 180.211 53.5552C180.892 54.231 180.934 56.7621 180.962 58.6103C181 61.069 181.039 63.6069 182.009 65.9517C183.025 68.3655 184.932 70.3414 186.615 72.0759C187.805 73.3035 189.607 75.1586 189.607 75.9862C189.607 76.8138 187.819 78.6828 186.629 79.9103ZM163.086 93.931C163.086 95.0222 162.759 96.0889 162.145 96.9963C161.531 97.9036 160.658 98.6107 159.638 99.0283C158.617 99.4459 157.494 99.5551 156.41 99.3423C155.327 99.1294 154.331 98.6039 153.55 97.8323C152.769 97.0607 152.237 96.0776 152.021 95.0074C151.806 93.9372 151.916 92.8278 152.339 91.8197C152.762 90.8115 153.478 89.9499 154.396 89.3436C155.315 88.7374 156.395 88.4138 157.5 88.4138C158.982 88.4138 160.402 88.9951 161.45 90.0298C162.498 91.0644 163.086 92.4678 163.086 93.931ZM172.862 69.1034C172.862 75.4379 168.082 80.7862 161.595 82.4C161.377 83.3993 160.792 84.2835 159.953 84.8819C159.114 85.4804 158.08 85.7509 157.051 85.6413C156.021 85.5316 155.07 85.0496 154.379 84.2881C153.689 83.5266 153.308 82.5396 153.31 81.5172V78.7586C153.31 77.6612 153.752 76.6087 154.537 75.8327C155.323 75.0566 156.389 74.6207 157.5 74.6207C161.341 74.6207 164.483 72.1448 164.483 69.1034C164.483 66.0621 161.341 63.5862 157.5 63.5862C153.659 63.5862 150.517 66.0621 150.517 69.1034V70.4828C150.517 71.5802 150.076 72.6327 149.29 73.4087C148.504 74.1847 147.439 74.6207 146.328 74.6207C145.216 74.6207 144.151 74.1847 143.365 73.4087C142.579 72.6327 142.138 71.5802 142.138 70.4828V69.1034C142.138 61.4966 149.03 55.3103 157.5 55.3103C165.97 55.3103 172.862 61.4966 172.862 69.1034Z" fill="#FFD863"/>
<path d="M186.988 80.2584L186.986 80.2596C185.293 81.9944 183.458 83.9018 182.485 86.2275L182.484 86.2281C181.544 88.4683 181.501 90.9077 181.476 93.3808L181.476 93.3834L181.476 93.3942C181.462 94.3112 181.445 95.4251 181.344 96.3961C181.294 96.8835 181.22 97.352 181.109 97.7512C181.003 98.135 180.843 98.5249 180.576 98.7877C180.31 99.0488 179.918 99.2047 179.531 99.3093C179.128 99.4182 178.655 99.4907 178.162 99.541C177.176 99.6414 176.046 99.6586 175.114 99.6724M186.988 80.2584L175.097 99.1726C172.611 99.2104 170.045 99.2495 167.674 100.207M186.988 80.2584C187.581 79.6462 188.34 78.8581 188.95 78.1159C189.255 77.7453 189.533 77.3741 189.738 77.0328C189.929 76.7131 190.107 76.3395 190.107 75.9862C190.107 75.6315 189.927 75.2581 189.734 74.9396C189.528 74.5996 189.248 74.2301 188.942 73.8614C188.334 73.13 187.58 72.3528 186.99 71.7446L186.974 71.7278L186.973 71.7277C185.28 69.9819 183.445 68.0714 182.471 65.7591C181.543 63.5174 181.501 61.0778 181.462 58.6028M186.988 80.2584L147.169 51.3472M175.114 99.6724L175.107 99.1724L175.115 99.6724C175.115 99.6724 175.114 99.6724 175.114 99.6724ZM175.114 99.6724C172.609 99.7105 170.136 99.7526 167.863 100.67M167.863 100.67C167.863 100.67 167.863 100.67 167.864 100.669L167.674 100.207M167.863 100.67C167.862 100.67 167.862 100.67 167.861 100.671L167.674 100.207M167.863 100.67C165.519 101.632 163.584 103.446 161.817 105.118L161.804 105.131C161.18 105.721 160.388 106.471 159.645 107.074C159.27 107.378 158.896 107.655 158.552 107.858C158.229 108.049 157.854 108.224 157.5 108.224C157.146 108.224 156.771 108.049 156.448 107.858C156.104 107.655 155.731 107.379 155.357 107.076C154.617 106.475 153.83 105.731 153.214 105.148L153.197 105.132L153.196 105.131C151.44 103.459 149.508 101.646 147.151 100.684L147.151 100.683C144.879 99.753 142.406 99.7105 139.902 99.6862L139.9 99.6862L139.889 99.686C138.96 99.6723 137.833 99.6557 136.851 99.5561C136.358 99.5061 135.885 99.4337 135.482 99.3245C135.095 99.2197 134.702 99.063 134.436 98.7997C134.171 98.5365 134.013 98.1471 133.906 97.7633C133.796 97.3642 133.722 96.896 133.671 96.4088C133.569 95.4345 133.552 94.3169 133.538 93.3975L167.674 100.207M128.012 71.7416L128.014 71.7404C129.707 70.0056 131.542 68.0982 132.515 65.7725L132.516 65.7719C133.456 63.5317 133.499 61.0923 133.524 58.6192L133.524 58.6128L133.524 58.6128C133.525 58.5707 133.526 58.5281 133.527 58.4852C133.547 57.5931 133.571 56.5314 133.672 55.6037C133.725 55.1173 133.801 54.6497 133.914 54.2521C134.024 53.8702 134.188 53.4805 134.464 53.2216C134.731 52.9707 135.121 52.8184 135.508 52.7148C135.91 52.6072 136.382 52.5342 136.873 52.4829C137.857 52.3802 138.984 52.3586 139.917 52.3449M128.012 71.7416L139.917 52.3449M128.012 71.7416L127.996 71.7586C127.406 72.3668 126.652 73.1439 126.044 73.8752C125.738 74.2439 125.458 74.6134 125.252 74.9534C125.059 75.2718 124.879 75.6453 124.879 76C124.879 76.3547 125.059 76.7282 125.252 77.0469C125.458 77.3871 125.739 77.7571 126.046 78.1267C126.657 78.8612 127.416 79.6435 128.014 80.2591L128.027 80.2723C129.72 82.0181 131.555 83.9287 132.529 86.2409M128.012 71.7416L132.529 86.2409M139.917 52.3449C142.423 52.3067 144.896 52.2646 147.169 51.3472M139.917 52.3449L147.169 51.3472M147.169 51.3472C149.511 50.3853 151.445 48.5737 153.211 46.9023C153.824 46.2986 154.612 45.5397 155.358 44.9295C155.73 44.6243 156.104 44.3466 156.448 44.1427C156.771 43.9511 157.146 43.7759 157.5 43.7759C157.854 43.7759 158.229 43.951 158.552 44.1418C158.896 44.345 159.269 44.6214 159.643 44.9242C160.383 45.5247 161.17 46.2691 161.786 46.8517L161.803 46.8678L161.804 46.8689C163.56 48.5407 165.492 50.3542 167.849 51.3164L167.849 51.3166C170.121 52.247 172.594 52.2895 175.098 52.3138L175.1 52.3138L175.111 52.314C176.04 52.3277 177.167 52.3443 178.149 52.4439C178.642 52.4939 179.115 52.5663 179.518 52.6755C179.905 52.7803 180.298 52.937 180.564 53.2003C180.829 53.4635 180.987 53.8529 181.094 54.2367C181.204 54.6358 181.278 55.104 181.329 55.5912C181.431 56.5656 181.448 57.6833 181.462 58.6028M181.462 58.6028L180.962 58.6103L181.462 58.6025C181.462 58.6026 181.462 58.6027 181.462 58.6028ZM132.529 86.2409C133.457 88.4826 133.499 90.9222 133.538 93.3972L132.529 86.2409ZM189.303 62.9933L189.303 62.9935C189.543 63.565 190.008 64.1888 190.535 64.8032C191.07 65.4257 191.705 66.0802 192.317 66.7104C194.716 69.1811 197.5 72.08 197.5 76C197.5 79.92 194.716 82.8189 192.317 85.2896C191.705 85.9198 191.07 86.5743 190.535 87.1968C190.008 87.8112 189.543 88.435 189.303 89.0065L189.303 89.0067C189.083 89.5302 188.981 90.2779 188.924 91.0443C188.867 91.8243 188.854 92.6914 188.842 93.4865L188.841 93.4909C188.778 96.9778 188.701 101.044 185.785 103.927C182.867 106.812 178.74 106.896 175.211 106.948L175.205 106.948C174.4 106.96 173.523 106.973 172.734 107.03C171.958 107.086 171.203 107.187 170.676 107.403L170.676 107.403C170.099 107.639 169.468 108.098 168.845 108.619C168.215 109.146 167.553 109.774 166.915 110.378C164.416 112.745 161.46 115.5 157.5 115.5C153.54 115.5 150.585 112.746 148.085 110.395C147.447 109.791 146.784 109.163 146.155 108.636C145.532 108.115 144.901 107.656 144.324 107.42L144.324 107.42C143.797 107.204 143.042 107.103 142.266 107.047C141.477 106.991 140.6 106.978 139.795 106.966L139.79 106.966C139.79 106.966 139.79 106.966 139.79 106.966C136.259 106.903 132.136 106.826 129.215 103.944C126.296 101.065 126.211 96.9944 126.159 93.5097L126.159 93.5096L126.158 93.5036C126.146 92.7086 126.133 91.8415 126.076 91.0616C126.019 90.2952 125.917 89.5474 125.697 89.0239L125.697 89.0237C125.457 88.4523 124.992 87.8284 124.465 87.214C123.931 86.5917 123.295 85.9373 122.683 85.3073C120.284 82.8185 117.5 79.903 117.5 76C117.5 72.097 120.284 69.1807 122.683 66.7104C123.295 66.0802 123.93 65.4257 124.465 64.8032C124.992 64.1888 125.457 63.565 125.697 62.9935L125.697 62.9933C125.917 62.4698 126.019 61.7221 126.076 60.9557C126.133 60.1758 126.146 59.3087 126.158 58.5136L126.159 58.5101C126.159 58.5097 126.159 58.5093 126.159 58.5089C126.229 55.0228 126.313 50.9692 129.223 48.0789C132.118 45.203 136.214 45.1222 139.736 45.0527L139.789 45.0517L139.791 45.0516L139.795 45.0516C140.6 45.0396 141.477 45.0265 142.266 44.9698C143.042 44.9141 143.797 44.813 144.324 44.5973L144.324 44.5972C144.901 44.361 145.532 43.9023 146.155 43.3812C146.785 42.8536 147.447 42.2261 148.085 41.6216C150.585 39.2542 153.523 36.5 157.5 36.5C161.477 36.5 164.415 39.2542 166.915 41.6216C167.553 42.2261 168.215 42.8536 168.845 43.3812C169.468 43.9023 170.099 44.361 170.676 44.5972L170.676 44.5973C171.203 44.813 171.958 44.9141 172.734 44.9698C173.523 45.0265 174.4 45.0396 175.205 45.0516L175.21 45.0516C175.21 45.0517 175.21 45.0517 175.211 45.0517C178.741 45.1144 182.864 45.1913 185.785 48.0732C188.704 50.9526 188.789 55.0228 188.841 58.5076L188.842 58.5135C188.854 59.3086 188.867 60.1757 188.924 60.9557C188.981 61.7221 189.083 62.4698 189.303 62.9933ZM161.475 81.9148L161.173 81.9898L161.107 82.2933C160.915 83.1703 160.401 83.9478 159.662 84.4749C158.923 85.002 158.012 85.2409 157.104 85.1441C156.196 85.0473 155.357 84.6221 154.75 83.9522C154.142 83.2824 153.808 82.4154 153.81 81.5185V81.5172V78.7586C153.81 77.7958 154.198 76.8711 154.889 76.1884C155.58 75.5055 156.519 75.1207 157.5 75.1207C161.5 75.1207 164.983 72.5247 164.983 69.1034C164.983 65.6822 161.5 63.0862 157.5 63.0862C153.5 63.0862 150.017 65.6822 150.017 69.1034V70.4828C150.017 71.4456 149.63 72.3702 148.939 73.053C148.247 73.7359 147.308 74.1207 146.328 74.1207C145.347 74.1207 144.408 73.7359 143.716 73.053C143.025 72.3702 142.638 71.4456 142.638 70.4828V69.1034C142.638 61.822 149.254 55.8103 157.5 55.8103C165.746 55.8103 172.362 61.822 172.362 69.1034C172.362 75.1696 167.779 80.3465 161.475 81.9148ZM162.586 93.931C162.586 94.922 162.289 95.8912 161.731 96.7161C161.172 97.5411 160.379 98.185 159.448 98.5655C158.518 98.9461 157.494 99.0457 156.507 98.8516C155.519 98.6576 154.612 98.1787 153.901 97.4766C153.19 96.7745 152.707 95.8807 152.511 94.9087C152.316 93.9367 152.416 92.9291 152.8 92.0131C153.184 91.097 153.835 90.313 154.672 89.7609C155.508 89.2088 156.493 88.9138 157.5 88.9138C158.851 88.9138 160.145 89.4439 161.099 90.3855C162.052 91.3269 162.586 92.6024 162.586 93.931Z" stroke="#DCB84C"/>
</g>
</g>
<defs>
<filter id="filter0_di_463_3462" x="0" y="0" width="314" height="342" filterUnits="userSpaceOnUse" color-interpolation-filters="sRGB">
<feFlood flood-opacity="0" result="BackgroundImageFix"/>
<feColorMatrix in="SourceAlpha" type="matrix" values="0 0 0 0 0 0 0 0 0 0 0 0 0 0 0 0 0 0 127 0" result="hardAlpha"/>
<feOffset dy="4"/>
<feGaussianBlur stdDeviation="2"/>
<feComposite in2="hardAlpha" operator="out"/>
<feColorMatrix type="matrix" values="0 0 0 0 0 0 0 0 0 0 0 0 0 0 0 0 0 0 0.25 0"/>
<feBlend mode="normal" in2="BackgroundImageFix" result="effect1_dropShadow_463_3462"/>
<feBlend mode="normal" in="SourceGraphic" in2="effect1_dropShadow_463_3462" result="shape"/>
<feColorMatrix in="SourceAlpha" type="matrix" values="0 0 0 0 0 0 0 0 0 0 0 0 0 0 0 0 0 0 127 0" result="hardAlpha"/>
<feOffset dy="10"/>
<feGaussianBlur stdDeviation="3"/>
<feComposite in2="hardAlpha" operator="arithmetic" k2="-1" k3="1"/>
<feColorMatrix type="matrix" values="0 0 0 0 0 0 0 0 0 0 0 0 0 0 0 0 0 0 0.25 0"/>
<feBlend mode="normal" in2="shape" result="effect2_innerShadow_463_3462"/>
</filter>
<filter id="filter1_d_463_3462" x="113" y="36" width="89" height="88" filterUnits="userSpaceOnUse" color-interpolation-filters="sRGB">
<feFlood flood-opacity="0" result="BackgroundImageFix"/>
<feColorMatrix in="SourceAlpha" type="matrix" values="0 0 0 0 0 0 0 0 0 0 0 0 0 0 0 0 0 0 127 0" result="hardAlpha"/>
<feOffset dy="4"/>
<feGaussianBlur stdDeviation="2"/>
<feComposite in2="hardAlpha" operator="out"/>
<feColorMatrix type="matrix" values="0 0 0 0 0 0 0 0 0 0 0 0 0 0 0 0 0 0 0.25 0"/>
<feBlend mode="normal" in2="BackgroundImageFix" result="effect1_dropShadow_463_3462"/>
<feBlend mode="normal" in="SourceGraphic" in2="effect1_dropShadow_463_3462" result="shape"/>
</filter>
<clipPath id="clip0_463_3462">
<rect width="91" height="92" fill="white" transform="translate(112 29)"/>
</clipPath>
</defs>
</svg>
