<svg width="194" height="334" viewBox="0 0 194 334" fill="none" xmlns="http://www.w3.org/2000/svg">
<g clip-path="url(#clip0_87_599)">
<g filter="url(#filter0_di_87_599)">
<rect width="306" height="334" rx="29" fill="#D9D9D9"/>
</g>
<path d="M21.36 187.24C20.28 187.24 19.2733 187.067 18.34 186.72C17.42 186.36 16.62 185.853 15.94 185.2C15.26 184.547 14.7267 183.78 14.34 182.9C13.9667 182.02 13.78 181.053 13.78 180C13.78 178.947 13.9667 177.98 14.34 177.1C14.7267 176.22 15.26 175.453 15.94 174.8C16.6333 174.147 17.44 173.647 18.36 173.3C19.28 172.94 20.2867 172.76 21.38 172.76C22.5933 172.76 23.6867 172.973 24.66 173.4C25.6467 173.813 26.4733 174.427 27.14 175.24L25.06 177.16C24.58 176.613 24.0467 176.207 23.46 175.94C22.8733 175.66 22.2333 175.52 21.54 175.52C20.8867 175.52 20.2867 175.627 19.74 175.84C19.1933 176.053 18.72 176.36 18.32 176.76C17.92 177.16 17.6067 177.633 17.38 178.18C17.1667 178.727 17.06 179.333 17.06 180C17.06 180.667 17.1667 181.273 17.38 181.82C17.6067 182.367 17.92 182.84 18.32 183.24C18.72 183.64 19.1933 183.947 19.74 184.16C20.2867 184.373 20.8867 184.48 21.54 184.48C22.2333 184.48 22.8733 184.347 23.46 184.08C24.0467 183.8 24.58 183.38 25.06 182.82L27.14 184.74C26.4733 185.553 25.6467 186.173 24.66 186.6C23.6867 187.027 22.5867 187.24 21.36 187.24ZM33.3941 187.16C32.5007 187.16 31.7007 186.987 30.9941 186.64C30.3007 186.293 29.7607 185.767 29.3741 185.06C28.9874 184.34 28.7941 183.427 28.7941 182.32V176.24H31.9141V181.86C31.9141 182.753 32.1007 183.413 32.4741 183.84C32.8607 184.253 33.4007 184.46 34.0941 184.46C34.5741 184.46 35.0007 184.36 35.3741 184.16C35.7474 183.947 36.0407 183.627 36.2541 183.2C36.4674 182.76 36.5741 182.213 36.5741 181.56V176.24H39.6941V187H36.7341V184.04L37.2741 184.9C36.9141 185.647 36.3807 186.213 35.6741 186.6C34.9807 186.973 34.2207 187.16 33.3941 187.16ZM46.2045 187.16C45.2845 187.16 44.3979 187.053 43.5445 186.84C42.7045 186.613 42.0379 186.333 41.5445 186L42.5845 183.76C43.0779 184.067 43.6579 184.32 44.3245 184.52C45.0045 184.707 45.6712 184.8 46.3245 184.8C47.0445 184.8 47.5512 184.713 47.8445 184.54C48.1512 184.367 48.3045 184.127 48.3045 183.82C48.3045 183.567 48.1845 183.38 47.9445 183.26C47.7179 183.127 47.4112 183.027 47.0245 182.96C46.6379 182.893 46.2112 182.827 45.7445 182.76C45.2912 182.693 44.8312 182.607 44.3645 182.5C43.8979 182.38 43.4712 182.207 43.0845 181.98C42.6979 181.753 42.3845 181.447 42.1445 181.06C41.9179 180.673 41.8045 180.173 41.8045 179.56C41.8045 178.88 41.9979 178.28 42.3845 177.76C42.7845 177.24 43.3579 176.833 44.1045 176.54C44.8512 176.233 45.7445 176.08 46.7845 176.08C47.5179 176.08 48.2645 176.16 49.0245 176.32C49.7845 176.48 50.4179 176.713 50.9245 177.02L49.8845 179.24C49.3645 178.933 48.8379 178.727 48.3045 178.62C47.7845 178.5 47.2779 178.44 46.7845 178.44C46.0912 178.44 45.5845 178.533 45.2645 178.72C44.9445 178.907 44.7845 179.147 44.7845 179.44C44.7845 179.707 44.8979 179.907 45.1245 180.04C45.3645 180.173 45.6779 180.28 46.0645 180.36C46.4512 180.44 46.8712 180.513 47.3245 180.58C47.7912 180.633 48.2579 180.72 48.7245 180.84C49.1912 180.96 49.6112 181.133 49.9845 181.36C50.3712 181.573 50.6845 181.873 50.9245 182.26C51.1645 182.633 51.2845 183.127 51.2845 183.74C51.2845 184.407 51.0845 185 50.6845 185.52C50.2845 186.027 49.7045 186.427 48.9445 186.72C48.1979 187.013 47.2845 187.16 46.2045 187.16ZM57.6095 187.16C56.3429 187.16 55.3562 186.84 54.6495 186.2C53.9429 185.547 53.5895 184.58 53.5895 183.3V173.86H56.7095V183.26C56.7095 183.713 56.8295 184.067 57.0695 184.32C57.3095 184.56 57.6362 184.68 58.0495 184.68C58.5429 184.68 58.9629 184.547 59.3095 184.28L60.1495 186.48C59.8295 186.707 59.4429 186.88 58.9895 187C58.5495 187.107 58.0895 187.16 57.6095 187.16ZM51.9295 178.88V176.48H59.3895V178.88H51.9295ZM66.6889 187.16C65.5422 187.16 64.5222 186.92 63.6289 186.44C62.7489 185.96 62.0489 185.307 61.5289 184.48C61.0222 183.64 60.7689 182.687 60.7689 181.62C60.7689 180.54 61.0222 179.587 61.5289 178.76C62.0489 177.92 62.7489 177.267 63.6289 176.8C64.5222 176.32 65.5422 176.08 66.6889 176.08C67.8222 176.08 68.8356 176.32 69.7289 176.8C70.6222 177.267 71.3222 177.913 71.8289 178.74C72.3356 179.567 72.5889 180.527 72.5889 181.62C72.5889 182.687 72.3356 183.64 71.8289 184.48C71.3222 185.307 70.6222 185.96 69.7289 186.44C68.8356 186.92 67.8222 187.16 66.6889 187.16ZM66.6889 184.6C67.2089 184.6 67.6756 184.48 68.0889 184.24C68.5022 184 68.8289 183.66 69.0689 183.22C69.3089 182.767 69.4289 182.233 69.4289 181.62C69.4289 180.993 69.3089 180.46 69.0689 180.02C68.8289 179.58 68.5022 179.24 68.0889 179C67.6756 178.76 67.2089 178.64 66.6889 178.64C66.1689 178.64 65.7022 178.76 65.2889 179C64.8756 179.24 64.5422 179.58 64.2889 180.02C64.0489 180.46 63.9289 180.993 63.9289 181.62C63.9289 182.233 64.0489 182.767 64.2889 183.22C64.5422 183.66 64.8756 184 65.2889 184.24C65.7022 184.48 66.1689 184.6 66.6889 184.6ZM88.4544 176.08C89.3077 176.08 90.061 176.253 90.7144 176.6C91.381 176.933 91.901 177.453 92.2744 178.16C92.661 178.853 92.8544 179.747 92.8544 180.84V187H89.7344V181.32C89.7344 180.453 89.5544 179.813 89.1944 179.4C88.8344 178.987 88.3277 178.78 87.6744 178.78C87.221 178.78 86.8144 178.887 86.4544 179.1C86.0944 179.3 85.8144 179.607 85.6144 180.02C85.4144 180.433 85.3144 180.96 85.3144 181.6V187H82.1944V181.32C82.1944 180.453 82.0144 179.813 81.6544 179.4C81.3077 178.987 80.8077 178.78 80.1544 178.78C79.701 178.78 79.2944 178.887 78.9344 179.1C78.5744 179.3 78.2944 179.607 78.0944 180.02C77.8944 180.433 77.7944 180.96 77.7944 181.6V187H74.6744V176.24H77.6544V179.18L77.0944 178.32C77.4677 177.587 77.9944 177.033 78.6744 176.66C79.3677 176.273 80.1544 176.08 81.0344 176.08C82.021 176.08 82.881 176.333 83.6144 176.84C84.361 177.333 84.8544 178.093 85.0944 179.12L83.9944 178.82C84.3544 177.98 84.9277 177.313 85.7144 176.82C86.5144 176.327 87.4277 176.08 88.4544 176.08ZM105.715 187.16C104.448 187.16 103.462 186.84 102.755 186.2C102.048 185.547 101.695 184.58 101.695 183.3V173.86H104.815V183.26C104.815 183.713 104.935 184.067 105.175 184.32C105.415 184.56 105.742 184.68 106.155 184.68C106.648 184.68 107.068 184.547 107.415 184.28L108.255 186.48C107.935 186.707 107.548 186.88 107.095 187C106.655 187.107 106.195 187.16 105.715 187.16ZM100.035 178.88V176.48H107.495V178.88H100.035ZM116.546 176.08C117.4 176.08 118.16 176.253 118.826 176.6C119.506 176.933 120.04 177.453 120.426 178.16C120.813 178.853 121.006 179.747 121.006 180.84V187H117.886V181.32C117.886 180.453 117.693 179.813 117.306 179.4C116.933 178.987 116.4 178.78 115.706 178.78C115.213 178.78 114.766 178.887 114.366 179.1C113.98 179.3 113.673 179.613 113.446 180.04C113.233 180.467 113.126 181.013 113.126 181.68V187H110.006V172.16H113.126V179.22L112.426 178.32C112.813 177.6 113.366 177.047 114.086 176.66C114.806 176.273 115.626 176.08 116.546 176.08ZM129.253 187.16C128.026 187.16 126.946 186.92 126.013 186.44C125.093 185.96 124.379 185.307 123.873 184.48C123.366 183.64 123.113 182.687 123.113 181.62C123.113 180.54 123.359 179.587 123.853 178.76C124.359 177.92 125.046 177.267 125.913 176.8C126.779 176.32 127.759 176.08 128.853 176.08C129.906 176.08 130.853 176.307 131.693 176.76C132.546 177.2 133.219 177.84 133.713 178.68C134.206 179.507 134.453 180.5 134.453 181.66C134.453 181.78 134.446 181.92 134.433 182.08C134.419 182.227 134.406 182.367 134.393 182.5H125.653V180.68H132.753L131.553 181.22C131.553 180.66 131.439 180.173 131.213 179.76C130.986 179.347 130.673 179.027 130.273 178.8C129.873 178.56 129.406 178.44 128.873 178.44C128.339 178.44 127.866 178.56 127.453 178.8C127.053 179.027 126.739 179.353 126.513 179.78C126.286 180.193 126.173 180.687 126.173 181.26V181.74C126.173 182.327 126.299 182.847 126.553 183.3C126.819 183.74 127.186 184.08 127.653 184.32C128.133 184.547 128.693 184.66 129.333 184.66C129.906 184.66 130.406 184.573 130.833 184.4C131.273 184.227 131.673 183.967 132.033 183.62L133.693 185.42C133.199 185.98 132.579 186.413 131.833 186.72C131.086 187.013 130.226 187.16 129.253 187.16ZM146.774 187.16C145.761 187.16 144.847 186.933 144.034 186.48C143.221 186.027 142.574 185.387 142.094 184.56C141.627 183.733 141.394 182.753 141.394 181.62C141.394 180.5 141.627 179.527 142.094 178.7C142.574 177.873 143.221 177.233 144.034 176.78C144.847 176.313 145.761 176.08 146.774 176.08C147.721 176.08 148.527 176.28 149.194 176.68C149.874 177.08 150.394 177.687 150.754 178.5C151.114 179.313 151.294 180.353 151.294 181.62C151.294 182.873 151.107 183.913 150.734 184.74C150.361 185.553 149.834 186.16 149.154 186.56C148.474 186.96 147.681 187.16 146.774 187.16ZM147.314 184.6C147.821 184.6 148.281 184.48 148.694 184.24C149.107 184 149.434 183.66 149.674 183.22C149.927 182.767 150.054 182.233 150.054 181.62C150.054 180.993 149.927 180.46 149.674 180.02C149.434 179.58 149.107 179.24 148.694 179C148.281 178.76 147.821 178.64 147.314 178.64C146.794 178.64 146.327 178.76 145.914 179C145.501 179.24 145.167 179.58 144.914 180.02C144.674 180.46 144.554 180.993 144.554 181.62C144.554 182.233 144.674 182.767 144.914 183.22C145.167 183.66 145.501 184 145.914 184.24C146.327 184.48 146.794 184.6 147.314 184.6ZM149.994 190.88V184.82L150.194 181.64L150.134 178.44V176.24H153.114V190.88H149.994ZM160.543 187.16C159.649 187.16 158.849 186.987 158.143 186.64C157.449 186.293 156.909 185.767 156.523 185.06C156.136 184.34 155.943 183.427 155.943 182.32V176.24H159.063V181.86C159.063 182.753 159.249 183.413 159.623 183.84C160.009 184.253 160.549 184.46 161.243 184.46C161.723 184.46 162.149 184.36 162.523 184.16C162.896 183.947 163.189 183.627 163.403 183.2C163.616 182.76 163.723 182.213 163.723 181.56V176.24H166.843V187H163.883V184.04L164.423 184.9C164.063 185.647 163.529 186.213 162.823 186.6C162.129 186.973 161.369 187.16 160.543 187.16ZM175.073 187.16C173.846 187.16 172.766 186.92 171.833 186.44C170.913 185.96 170.2 185.307 169.693 184.48C169.186 183.64 168.933 182.687 168.933 181.62C168.933 180.54 169.18 179.587 169.673 178.76C170.18 177.92 170.866 177.267 171.733 176.8C172.6 176.32 173.58 176.08 174.673 176.08C175.726 176.08 176.673 176.307 177.513 176.76C178.366 177.2 179.04 177.84 179.533 178.68C180.026 179.507 180.273 180.5 180.273 181.66C180.273 181.78 180.266 181.92 180.253 182.08C180.24 182.227 180.226 182.367 180.213 182.5H171.473V180.68H178.573L177.373 181.22C177.373 180.66 177.26 180.173 177.033 179.76C176.806 179.347 176.493 179.027 176.093 178.8C175.693 178.56 175.226 178.44 174.693 178.44C174.16 178.44 173.686 178.56 173.273 178.8C172.873 179.027 172.56 179.353 172.333 179.78C172.106 180.193 171.993 180.687 171.993 181.26V181.74C171.993 182.327 172.12 182.847 172.373 183.3C172.64 183.74 173.006 184.08 173.473 184.32C173.953 184.547 174.513 184.66 175.153 184.66C175.726 184.66 176.226 184.573 176.653 184.4C177.093 184.227 177.493 183.967 177.853 183.62L179.513 185.42C179.02 185.98 178.4 186.413 177.653 186.72C176.906 187.013 176.046 187.16 175.073 187.16ZM185.97 187.16C185.05 187.16 184.163 187.053 183.31 186.84C182.47 186.613 181.803 186.333 181.31 186L182.35 183.76C182.843 184.067 183.423 184.32 184.09 184.52C184.77 184.707 185.437 184.8 186.09 184.8C186.81 184.8 187.317 184.713 187.61 184.54C187.917 184.367 188.07 184.127 188.07 183.82C188.07 183.567 187.95 183.38 187.71 183.26C187.483 183.127 187.177 183.027 186.79 182.96C186.403 182.893 185.977 182.827 185.51 182.76C185.057 182.693 184.597 182.607 184.13 182.5C183.663 182.38 183.237 182.207 182.85 181.98C182.463 181.753 182.15 181.447 181.91 181.06C181.683 180.673 181.57 180.173 181.57 179.56C181.57 178.88 181.763 178.28 182.15 177.76C182.55 177.24 183.123 176.833 183.87 176.54C184.617 176.233 185.51 176.08 186.55 176.08C187.283 176.08 188.03 176.16 188.79 176.32C189.55 176.48 190.183 176.713 190.69 177.02L189.65 179.24C189.13 178.933 188.603 178.727 188.07 178.62C187.55 178.5 187.043 178.44 186.55 178.44C185.857 178.44 185.35 178.533 185.03 178.72C184.71 178.907 184.55 179.147 184.55 179.44C184.55 179.707 184.663 179.907 184.89 180.04C185.13 180.173 185.443 180.28 185.83 180.36C186.217 180.44 186.637 180.513 187.09 180.58C187.557 180.633 188.023 180.72 188.49 180.84C188.957 180.96 189.377 181.133 189.75 181.36C190.137 181.573 190.45 181.873 190.69 182.26C190.93 182.633 191.05 183.127 191.05 183.74C191.05 184.407 190.85 185 190.45 185.52C190.05 186.027 189.47 186.427 188.71 186.72C187.963 187.013 187.05 187.16 185.97 187.16ZM197.375 187.16C196.108 187.16 195.122 186.84 194.415 186.2C193.708 185.547 193.355 184.58 193.355 183.3V173.86H196.475V183.26C196.475 183.713 196.595 184.067 196.835 184.32C197.075 184.56 197.402 184.68 197.815 184.68C198.308 184.68 198.728 184.547 199.075 184.28L199.915 186.48C199.595 186.707 199.208 186.88 198.755 187C198.315 187.107 197.855 187.16 197.375 187.16ZM191.695 178.88V176.48H199.155V178.88H191.695ZM201.667 187V176.24H204.787V187H201.667ZM203.227 174.74C202.653 174.74 202.187 174.573 201.827 174.24C201.467 173.907 201.287 173.493 201.287 173C201.287 172.507 201.467 172.093 201.827 171.76C202.187 171.427 202.653 171.26 203.227 171.26C203.8 171.26 204.267 171.42 204.627 171.74C204.987 172.047 205.167 172.447 205.167 172.94C205.167 173.46 204.987 173.893 204.627 174.24C204.28 174.573 203.813 174.74 203.227 174.74ZM212.802 187.16C211.656 187.16 210.636 186.92 209.742 186.44C208.862 185.96 208.162 185.307 207.642 184.48C207.136 183.64 206.882 182.687 206.882 181.62C206.882 180.54 207.136 179.587 207.642 178.76C208.162 177.92 208.862 177.267 209.742 176.8C210.636 176.32 211.656 176.08 212.802 176.08C213.936 176.08 214.949 176.32 215.842 176.8C216.736 177.267 217.436 177.913 217.942 178.74C218.449 179.567 218.702 180.527 218.702 181.62C218.702 182.687 218.449 183.64 217.942 184.48C217.436 185.307 216.736 185.96 215.842 186.44C214.949 186.92 213.936 187.16 212.802 187.16ZM212.802 184.6C213.322 184.6 213.789 184.48 214.202 184.24C214.616 184 214.942 183.66 215.182 183.22C215.422 182.767 215.542 182.233 215.542 181.62C215.542 180.993 215.422 180.46 215.182 180.02C214.942 179.58 214.616 179.24 214.202 179C213.789 178.76 213.322 178.64 212.802 178.64C212.282 178.64 211.816 178.76 211.402 179C210.989 179.24 210.656 179.58 210.402 180.02C210.162 180.46 210.042 180.993 210.042 181.62C210.042 182.233 210.162 182.767 210.402 183.22C210.656 183.66 210.989 184 211.402 184.24C211.816 184.48 212.282 184.6 212.802 184.6ZM227.328 176.08C228.181 176.08 228.941 176.253 229.608 176.6C230.288 176.933 230.821 177.453 231.208 178.16C231.594 178.853 231.788 179.747 231.788 180.84V187H228.668V181.32C228.668 180.453 228.474 179.813 228.088 179.4C227.714 178.987 227.181 178.78 226.488 178.78C225.994 178.78 225.548 178.887 225.148 179.1C224.761 179.3 224.454 179.613 224.228 180.04C224.014 180.467 223.908 181.013 223.908 181.68V187H220.788V176.24H223.768V179.22L223.208 178.32C223.594 177.6 224.148 177.047 224.868 176.66C225.588 176.273 226.408 176.08 227.328 176.08ZM244.68 187.16C243.413 187.16 242.427 186.84 241.72 186.2C241.013 185.547 240.66 184.58 240.66 183.3V173.86H243.78V183.26C243.78 183.713 243.9 184.067 244.14 184.32C244.38 184.56 244.707 184.68 245.12 184.68C245.613 184.68 246.033 184.547 246.38 184.28L247.22 186.48C246.9 186.707 246.513 186.88 246.06 187C245.62 187.107 245.16 187.16 244.68 187.16ZM239 178.88V176.48H246.46V178.88H239ZM250.136 191.04C249.576 191.04 249.023 190.953 248.476 190.78C247.929 190.607 247.483 190.367 247.136 190.06L248.276 187.84C248.516 188.053 248.789 188.22 249.096 188.34C249.416 188.46 249.729 188.52 250.036 188.52C250.476 188.52 250.823 188.413 251.076 188.2C251.343 188 251.583 187.66 251.796 187.18L252.356 185.86L252.596 185.52L256.456 176.24H259.456L254.596 187.66C254.249 188.527 253.849 189.207 253.396 189.7C252.956 190.193 252.463 190.54 251.916 190.74C251.383 190.94 250.789 191.04 250.136 191.04ZM251.976 187.42L247.176 176.24H250.396L254.116 185.24L251.976 187.42ZM267.089 187.16C266.182 187.16 265.389 186.96 264.709 186.56C264.029 186.16 263.496 185.553 263.109 184.74C262.736 183.913 262.549 182.873 262.549 181.62C262.549 180.353 262.729 179.313 263.089 178.5C263.449 177.687 263.969 177.08 264.649 176.68C265.329 176.28 266.142 176.08 267.089 176.08C268.102 176.08 269.009 176.313 269.809 176.78C270.622 177.233 271.262 177.873 271.729 178.7C272.209 179.527 272.449 180.5 272.449 181.62C272.449 182.753 272.209 183.733 271.729 184.56C271.262 185.387 270.622 186.027 269.809 186.48C269.009 186.933 268.102 187.16 267.089 187.16ZM260.729 190.88V176.24H263.709V178.44L263.649 181.64L263.849 184.82V190.88H260.729ZM266.549 184.6C267.069 184.6 267.529 184.48 267.929 184.24C268.342 184 268.669 183.66 268.909 183.22C269.162 182.767 269.289 182.233 269.289 181.62C269.289 180.993 269.162 180.46 268.909 180.02C268.669 179.58 268.342 179.24 267.929 179C267.529 178.76 267.069 178.64 266.549 178.64C266.029 178.64 265.562 178.76 265.149 179C264.736 179.24 264.409 179.58 264.169 180.02C263.929 180.46 263.809 180.993 263.809 181.62C263.809 182.233 263.929 182.767 264.169 183.22C264.409 183.66 264.736 184 265.149 184.24C265.562 184.48 266.029 184.6 266.549 184.6ZM279.878 187.16C278.651 187.16 277.571 186.92 276.638 186.44C275.718 185.96 275.004 185.307 274.498 184.48C273.991 183.64 273.738 182.687 273.738 181.62C273.738 180.54 273.984 179.587 274.478 178.76C274.984 177.92 275.671 177.267 276.538 176.8C277.404 176.32 278.384 176.08 279.478 176.08C280.531 176.08 281.478 176.307 282.318 176.76C283.171 177.2 283.844 177.84 284.338 178.68C284.831 179.507 285.078 180.5 285.078 181.66C285.078 181.78 285.071 181.92 285.058 182.08C285.044 182.227 285.031 182.367 285.018 182.5H276.278V180.68H283.378L282.178 181.22C282.178 180.66 282.064 180.173 281.838 179.76C281.611 179.347 281.298 179.027 280.898 178.8C280.498 178.56 280.031 178.44 279.498 178.44C278.964 178.44 278.491 178.56 278.078 178.8C277.678 179.027 277.364 179.353 277.138 179.78C276.911 180.193 276.798 180.687 276.798 181.26V181.74C276.798 182.327 276.924 182.847 277.178 183.3C277.444 183.74 277.811 184.08 278.278 184.32C278.758 184.547 279.318 184.66 279.958 184.66C280.531 184.66 281.031 184.573 281.458 184.4C281.898 184.227 282.298 183.967 282.658 183.62L284.318 185.42C283.824 185.98 283.204 186.413 282.458 186.72C281.711 187.013 280.851 187.16 279.878 187.16Z" fill="#434343"/>
<path d="M17.215 229V225.1L17.47 225.79L13.015 218.5H14.2L18.115 224.905H17.485L21.4 218.5H22.51L18.055 225.79L18.31 225.1V229H17.215ZM26.3229 229.075C25.5629 229.075 24.8779 228.905 24.2679 228.565C23.6679 228.215 23.1929 227.74 22.8429 227.14C22.4929 226.53 22.3179 225.835 22.3179 225.055C22.3179 224.265 22.4929 223.57 22.8429 222.97C23.1929 222.37 23.6679 221.9 24.2679 221.56C24.8679 221.22 25.5529 221.05 26.3229 221.05C27.1029 221.05 27.7929 221.22 28.3929 221.56C29.0029 221.9 29.4779 222.37 29.8179 222.97C30.1679 223.57 30.3429 224.265 30.3429 225.055C30.3429 225.835 30.1679 226.53 29.8179 227.14C29.4779 227.74 29.0029 228.215 28.3929 228.565C27.7829 228.905 27.0929 229.075 26.3229 229.075ZM26.3229 228.13C26.8929 228.13 27.3979 228.005 27.8379 227.755C28.2779 227.495 28.6229 227.135 28.8729 226.675C29.1329 226.205 29.2629 225.665 29.2629 225.055C29.2629 224.435 29.1329 223.895 28.8729 223.435C28.6229 222.975 28.2779 222.62 27.8379 222.37C27.3979 222.11 26.8979 221.98 26.3379 221.98C25.7779 221.98 25.2779 222.11 24.8379 222.37C24.3979 222.62 24.0479 222.975 23.7879 223.435C23.5279 223.895 23.3979 224.435 23.3979 225.055C23.3979 225.665 23.5279 226.205 23.7879 226.675C24.0479 227.135 24.3979 227.495 24.8379 227.755C25.2779 228.005 25.7729 228.13 26.3229 228.13ZM35.7722 229.075C35.1022 229.075 34.5172 228.95 34.0172 228.7C33.5172 228.45 33.1272 228.075 32.8472 227.575C32.5772 227.075 32.4422 226.45 32.4422 225.7V221.125H33.5072V225.58C33.5072 226.42 33.7122 227.055 34.1222 227.485C34.5422 227.905 35.1272 228.115 35.8772 228.115C36.4272 228.115 36.9022 228.005 37.3022 227.785C37.7122 227.555 38.0222 227.225 38.2322 226.795C38.4522 226.365 38.5622 225.85 38.5622 225.25V221.125H39.6272V229H38.6072V226.84L38.7722 227.23C38.5222 227.81 38.1322 228.265 37.6022 228.595C37.0822 228.915 36.4722 229.075 35.7722 229.075ZM49.7911 229.075C49.0111 229.075 48.3111 228.905 47.6911 228.565C47.0811 228.215 46.6011 227.74 46.2511 227.14C45.9011 226.53 45.7261 225.835 45.7261 225.055C45.7261 224.265 45.9011 223.57 46.2511 222.97C46.6011 222.37 47.0811 221.9 47.6911 221.56C48.3111 221.22 49.0111 221.05 49.7911 221.05C50.4611 221.05 51.0661 221.18 51.6061 221.44C52.1461 221.7 52.5711 222.09 52.8811 222.61L52.0861 223.15C51.8161 222.75 51.4811 222.455 51.0811 222.265C50.6811 222.075 50.2461 221.98 49.7761 221.98C49.2161 221.98 48.7111 222.11 48.2611 222.37C47.8111 222.62 47.4561 222.975 47.1961 223.435C46.9361 223.895 46.8061 224.435 46.8061 225.055C46.8061 225.675 46.9361 226.215 47.1961 226.675C47.4561 227.135 47.8111 227.495 48.2611 227.755C48.7111 228.005 49.2161 228.13 49.7761 228.13C50.2461 228.13 50.6811 228.035 51.0811 227.845C51.4811 227.655 51.8161 227.365 52.0861 226.975L52.8811 227.515C52.5711 228.025 52.1461 228.415 51.6061 228.685C51.0661 228.945 50.4611 229.075 49.7911 229.075ZM59.9083 229V227.26L59.8633 226.975V224.065C59.8633 223.395 59.6733 222.88 59.2933 222.52C58.9233 222.16 58.3683 221.98 57.6283 221.98C57.1183 221.98 56.6333 222.065 56.1733 222.235C55.7133 222.405 55.3233 222.63 55.0033 222.91L54.5233 222.115C54.9233 221.775 55.4033 221.515 55.9633 221.335C56.5233 221.145 57.1133 221.05 57.7333 221.05C58.7533 221.05 59.5383 221.305 60.0883 221.815C60.6483 222.315 60.9283 223.08 60.9283 224.11V229H59.9083ZM57.1933 229.075C56.6033 229.075 56.0883 228.98 55.6483 228.79C55.2183 228.59 54.8883 228.32 54.6583 227.98C54.4283 227.63 54.3133 227.23 54.3133 226.78C54.3133 226.37 54.4083 226 54.5983 225.67C54.7983 225.33 55.1183 225.06 55.5583 224.86C56.0083 224.65 56.6083 224.545 57.3583 224.545H60.0733V225.34H57.3883C56.6283 225.34 56.0983 225.475 55.7983 225.745C55.5083 226.015 55.3633 226.35 55.3633 226.75C55.3633 227.2 55.5383 227.56 55.8883 227.83C56.2383 228.1 56.7283 228.235 57.3583 228.235C57.9583 228.235 58.4733 228.1 58.9033 227.83C59.3433 227.55 59.6633 227.15 59.8633 226.63L60.1033 227.365C59.9033 227.885 59.5533 228.3 59.0533 228.61C58.5633 228.92 57.9433 229.075 57.1933 229.075ZM67.8409 221.05C68.4809 221.05 69.0409 221.175 69.5209 221.425C70.0109 221.665 70.3909 222.035 70.6609 222.535C70.9409 223.035 71.0809 223.665 71.0809 224.425V229H70.0159V224.53C70.0159 223.7 69.8059 223.075 69.3859 222.655C68.9759 222.225 68.3959 222.01 67.6459 222.01C67.0859 222.01 66.5959 222.125 66.1759 222.355C65.7659 222.575 65.4459 222.9 65.2159 223.33C64.9959 223.75 64.8859 224.26 64.8859 224.86V229H63.8209V221.125H64.8409V223.285L64.6759 222.88C64.9259 222.31 65.3259 221.865 65.8759 221.545C66.4259 221.215 67.0809 221.05 67.8409 221.05ZM79.9984 229.075C79.3484 229.075 78.7334 228.985 78.1534 228.805C77.5734 228.615 77.1184 228.38 76.7884 228.1L77.2684 227.26C77.5884 227.5 77.9984 227.71 78.4984 227.89C78.9984 228.06 79.5234 228.145 80.0734 228.145C80.8234 228.145 81.3634 228.03 81.6934 227.8C82.0234 227.56 82.1884 227.245 82.1884 226.855C82.1884 226.565 82.0934 226.34 81.9034 226.18C81.7234 226.01 81.4834 225.885 81.1834 225.805C80.8834 225.715 80.5484 225.64 80.1784 225.58C79.8084 225.52 79.4384 225.45 79.0684 225.37C78.7084 225.29 78.3784 225.175 78.0784 225.025C77.7784 224.865 77.5334 224.65 77.3434 224.38C77.1634 224.11 77.0734 223.75 77.0734 223.3C77.0734 222.87 77.1934 222.485 77.4334 222.145C77.6734 221.805 78.0234 221.54 78.4834 221.35C78.9534 221.15 79.5234 221.05 80.1934 221.05C80.7034 221.05 81.2134 221.12 81.7234 221.26C82.2334 221.39 82.6534 221.565 82.9834 221.785L82.5184 222.64C82.1684 222.4 81.7934 222.23 81.3934 222.13C80.9934 222.02 80.5934 221.965 80.1934 221.965C79.4834 221.965 78.9584 222.09 78.6184 222.34C78.2884 222.58 78.1234 222.89 78.1234 223.27C78.1234 223.57 78.2134 223.805 78.3934 223.975C78.5834 224.145 78.8284 224.28 79.1284 224.38C79.4384 224.47 79.7734 224.545 80.1334 224.605C80.5034 224.665 80.8684 224.74 81.2284 224.83C81.5984 224.91 81.9334 225.025 82.2334 225.175C82.5434 225.315 82.7884 225.52 82.9684 225.79C83.1584 226.05 83.2534 226.395 83.2534 226.825C83.2534 227.285 83.1234 227.685 82.8634 228.025C82.6134 228.355 82.2434 228.615 81.7534 228.805C81.2734 228.985 80.6884 229.075 79.9984 229.075ZM88.5527 229.075C87.7327 229.075 87.0127 228.905 86.3927 228.565C85.7727 228.215 85.2877 227.74 84.9377 227.14C84.5877 226.53 84.4127 225.835 84.4127 225.055C84.4127 224.275 84.5777 223.585 84.9077 222.985C85.2477 222.385 85.7077 221.915 86.2877 221.575C86.8777 221.225 87.5377 221.05 88.2677 221.05C89.0077 221.05 89.6627 221.22 90.2327 221.56C90.8127 221.89 91.2677 222.36 91.5977 222.97C91.9277 223.57 92.0927 224.265 92.0927 225.055C92.0927 225.105 92.0877 225.16 92.0777 225.22C92.0777 225.27 92.0777 225.325 92.0777 225.385H85.2227V224.59H91.5077L91.0877 224.905C91.0877 224.335 90.9627 223.83 90.7127 223.39C90.4727 222.94 90.1427 222.59 89.7227 222.34C89.3027 222.09 88.8177 221.965 88.2677 221.965C87.7277 221.965 87.2427 222.09 86.8127 222.34C86.3827 222.59 86.0477 222.94 85.8077 223.39C85.5677 223.84 85.4477 224.355 85.4477 224.935V225.1C85.4477 225.7 85.5777 226.23 85.8377 226.69C86.1077 227.14 86.4777 227.495 86.9477 227.755C87.4277 228.005 87.9727 228.13 88.5827 228.13C89.0627 228.13 89.5077 228.045 89.9177 227.875C90.3377 227.705 90.6977 227.445 90.9977 227.095L91.5977 227.785C91.2477 228.205 90.8077 228.525 90.2777 228.745C89.7577 228.965 89.1827 229.075 88.5527 229.075ZM94.2604 229V217.87H95.3254V229H94.2604ZM101.634 229.075C100.814 229.075 100.094 228.905 99.4737 228.565C98.8537 228.215 98.3687 227.74 98.0187 227.14C97.6687 226.53 97.4937 225.835 97.4937 225.055C97.4937 224.275 97.6587 223.585 97.9887 222.985C98.3287 222.385 98.7887 221.915 99.3687 221.575C99.9587 221.225 100.619 221.05 101.349 221.05C102.089 221.05 102.744 221.22 103.314 221.56C103.894 221.89 104.349 222.36 104.679 222.97C105.009 223.57 105.174 224.265 105.174 225.055C105.174 225.105 105.169 225.16 105.159 225.22C105.159 225.27 105.159 225.325 105.159 225.385H98.3037V224.59H104.589L104.169 224.905C104.169 224.335 104.044 223.83 103.794 223.39C103.554 222.94 103.224 222.59 102.804 222.34C102.384 222.09 101.899 221.965 101.349 221.965C100.809 221.965 100.324 222.09 99.8937 222.34C99.4637 222.59 99.1287 222.94 98.8887 223.39C98.6487 223.84 98.5287 224.355 98.5287 224.935V225.1C98.5287 225.7 98.6587 226.23 98.9187 226.69C99.1887 227.14 99.5587 227.495 100.029 227.755C100.509 228.005 101.054 228.13 101.664 228.13C102.144 228.13 102.589 228.045 102.999 227.875C103.419 227.705 103.779 227.445 104.079 227.095L104.679 227.785C104.329 228.205 103.889 228.525 103.359 228.745C102.839 228.965 102.264 229.075 101.634 229.075ZM110.611 229.075C109.831 229.075 109.131 228.905 108.511 228.565C107.901 228.215 107.421 227.74 107.071 227.14C106.721 226.53 106.546 225.835 106.546 225.055C106.546 224.265 106.721 223.57 107.071 222.97C107.421 222.37 107.901 221.9 108.511 221.56C109.131 221.22 109.831 221.05 110.611 221.05C111.281 221.05 111.886 221.18 112.426 221.44C112.966 221.7 113.391 222.09 113.701 222.61L112.906 223.15C112.636 222.75 112.301 222.455 111.901 222.265C111.501 222.075 111.066 221.98 110.596 221.98C110.036 221.98 109.531 222.11 109.081 222.37C108.631 222.62 108.276 222.975 108.016 223.435C107.756 223.895 107.626 224.435 107.626 225.055C107.626 225.675 107.756 226.215 108.016 226.675C108.276 227.135 108.631 227.495 109.081 227.755C109.531 228.005 110.036 228.13 110.596 228.13C111.066 228.13 111.501 228.035 111.901 227.845C112.301 227.655 112.636 227.365 112.906 226.975L113.701 227.515C113.391 228.025 112.966 228.415 112.426 228.685C111.886 228.945 111.281 229.075 110.611 229.075ZM118.371 229.075C117.631 229.075 117.061 228.875 116.661 228.475C116.261 228.075 116.061 227.51 116.061 226.78V219.385H117.126V226.72C117.126 227.18 117.241 227.535 117.471 227.785C117.711 228.035 118.051 228.16 118.491 228.16C118.961 228.16 119.351 228.025 119.661 227.755L120.036 228.52C119.826 228.71 119.571 228.85 119.271 228.94C118.981 229.03 118.681 229.075 118.371 229.075ZM114.651 222.01V221.125H119.526V222.01H114.651ZM129.036 229.075C128.286 229.075 127.611 228.905 127.011 228.565C126.421 228.225 125.956 227.755 125.616 227.155C125.276 226.555 125.106 225.855 125.106 225.055C125.106 224.265 125.276 223.57 125.616 222.97C125.956 222.36 126.421 221.89 127.011 221.56C127.611 221.22 128.286 221.05 129.036 221.05C129.736 221.05 130.356 221.205 130.896 221.515C131.446 221.825 131.881 222.28 132.201 222.88C132.521 223.47 132.681 224.195 132.681 225.055C132.681 225.915 132.516 226.645 132.186 227.245C131.866 227.835 131.431 228.29 130.881 228.61C130.341 228.92 129.726 229.075 129.036 229.075ZM129.111 228.13C129.671 228.13 130.171 228.005 130.611 227.755C131.061 227.495 131.411 227.135 131.661 226.675C131.921 226.205 132.051 225.665 132.051 225.055C132.051 224.445 131.921 223.91 131.661 223.45C131.411 222.99 131.061 222.63 130.611 222.37C130.171 222.11 129.671 221.98 129.111 221.98C128.561 221.98 128.066 222.11 127.626 222.37C127.186 222.63 126.836 222.99 126.576 223.45C126.316 223.91 126.186 224.445 126.186 225.055C126.186 225.665 126.316 226.205 126.576 226.675C126.836 227.135 127.186 227.495 127.626 227.755C128.066 228.005 128.561 228.13 129.111 228.13ZM132.036 231.91V226.66L132.186 225.07L132.081 223.495V221.125H133.101V231.91H132.036ZM139.322 229.075C138.652 229.075 138.067 228.95 137.567 228.7C137.067 228.45 136.677 228.075 136.397 227.575C136.127 227.075 135.992 226.45 135.992 225.7V221.125H137.057V225.58C137.057 226.42 137.262 227.055 137.672 227.485C138.092 227.905 138.677 228.115 139.427 228.115C139.977 228.115 140.452 228.005 140.852 227.785C141.262 227.555 141.572 227.225 141.782 226.795C142.002 226.365 142.112 225.85 142.112 225.25V221.125H143.177V229H142.157V226.84L142.322 227.23C142.072 227.81 141.682 228.265 141.152 228.595C140.632 228.915 140.022 229.075 139.322 229.075ZM149.49 229.075C148.67 229.075 147.95 228.905 147.33 228.565C146.71 228.215 146.225 227.74 145.875 227.14C145.525 226.53 145.35 225.835 145.35 225.055C145.35 224.275 145.515 223.585 145.845 222.985C146.185 222.385 146.645 221.915 147.225 221.575C147.815 221.225 148.475 221.05 149.205 221.05C149.945 221.05 150.6 221.22 151.17 221.56C151.75 221.89 152.205 222.36 152.535 222.97C152.865 223.57 153.03 224.265 153.03 225.055C153.03 225.105 153.025 225.16 153.015 225.22C153.015 225.27 153.015 225.325 153.015 225.385H146.16V224.59H152.445L152.025 224.905C152.025 224.335 151.9 223.83 151.65 223.39C151.41 222.94 151.08 222.59 150.66 222.34C150.24 222.09 149.755 221.965 149.205 221.965C148.665 221.965 148.18 222.09 147.75 222.34C147.32 222.59 146.985 222.94 146.745 223.39C146.505 223.84 146.385 224.355 146.385 224.935V225.1C146.385 225.7 146.515 226.23 146.775 226.69C147.045 227.14 147.415 227.495 147.885 227.755C148.365 228.005 148.91 228.13 149.52 228.13C150 228.13 150.445 228.045 150.855 227.875C151.275 227.705 151.635 227.445 151.935 227.095L152.535 227.785C152.185 228.205 151.745 228.525 151.215 228.745C150.695 228.965 150.12 229.075 149.49 229.075ZM157.313 229.075C156.663 229.075 156.048 228.985 155.468 228.805C154.888 228.615 154.433 228.38 154.103 228.1L154.583 227.26C154.903 227.5 155.313 227.71 155.813 227.89C156.313 228.06 156.838 228.145 157.388 228.145C158.138 228.145 158.678 228.03 159.008 227.8C159.338 227.56 159.503 227.245 159.503 226.855C159.503 226.565 159.408 226.34 159.218 226.18C159.038 226.01 158.798 225.885 158.498 225.805C158.198 225.715 157.863 225.64 157.493 225.58C157.123 225.52 156.753 225.45 156.383 225.37C156.023 225.29 155.693 225.175 155.393 225.025C155.093 224.865 154.848 224.65 154.658 224.38C154.478 224.11 154.388 223.75 154.388 223.3C154.388 222.87 154.508 222.485 154.748 222.145C154.988 221.805 155.338 221.54 155.798 221.35C156.268 221.15 156.838 221.05 157.508 221.05C158.018 221.05 158.528 221.12 159.038 221.26C159.548 221.39 159.968 221.565 160.298 221.785L159.833 222.64C159.483 222.4 159.108 222.23 158.708 222.13C158.308 222.02 157.908 221.965 157.508 221.965C156.798 221.965 156.273 222.09 155.933 222.34C155.603 222.58 155.438 222.89 155.438 223.27C155.438 223.57 155.528 223.805 155.708 223.975C155.898 224.145 156.143 224.28 156.443 224.38C156.753 224.47 157.088 224.545 157.448 224.605C157.818 224.665 158.183 224.74 158.543 224.83C158.913 224.91 159.248 225.025 159.548 225.175C159.858 225.315 160.103 225.52 160.283 225.79C160.473 226.05 160.568 226.395 160.568 226.825C160.568 227.285 160.438 227.685 160.178 228.025C159.928 228.355 159.558 228.615 159.068 228.805C158.588 228.985 158.003 229.075 157.313 229.075ZM165.012 229.075C164.272 229.075 163.702 228.875 163.302 228.475C162.902 228.075 162.702 227.51 162.702 226.78V219.385H163.767V226.72C163.767 227.18 163.882 227.535 164.112 227.785C164.352 228.035 164.692 228.16 165.132 228.16C165.602 228.16 165.992 228.025 166.302 227.755L166.677 228.52C166.467 228.71 166.212 228.85 165.912 228.94C165.622 229.03 165.322 229.075 165.012 229.075ZM161.292 222.01V221.125H166.167V222.01H161.292ZM168.616 229V221.125H169.681V229H168.616ZM169.156 219.385C168.936 219.385 168.751 219.31 168.601 219.16C168.451 219.01 168.376 218.83 168.376 218.62C168.376 218.41 168.451 218.235 168.601 218.095C168.751 217.945 168.936 217.87 169.156 217.87C169.376 217.87 169.561 217.94 169.711 218.08C169.861 218.22 169.936 218.395 169.936 218.605C169.936 218.825 169.861 219.01 169.711 219.16C169.571 219.31 169.386 219.385 169.156 219.385ZM175.854 229.075C175.094 229.075 174.409 228.905 173.799 228.565C173.199 228.215 172.724 227.74 172.374 227.14C172.024 226.53 171.849 225.835 171.849 225.055C171.849 224.265 172.024 223.57 172.374 222.97C172.724 222.37 173.199 221.9 173.799 221.56C174.399 221.22 175.084 221.05 175.854 221.05C176.634 221.05 177.324 221.22 177.924 221.56C178.534 221.9 179.009 222.37 179.349 222.97C179.699 223.57 179.874 224.265 179.874 225.055C179.874 225.835 179.699 226.53 179.349 227.14C179.009 227.74 178.534 228.215 177.924 228.565C177.314 228.905 176.624 229.075 175.854 229.075ZM175.854 228.13C176.424 228.13 176.929 228.005 177.369 227.755C177.809 227.495 178.154 227.135 178.404 226.675C178.664 226.205 178.794 225.665 178.794 225.055C178.794 224.435 178.664 223.895 178.404 223.435C178.154 222.975 177.809 222.62 177.369 222.37C176.929 222.11 176.429 221.98 175.869 221.98C175.309 221.98 174.809 222.11 174.369 222.37C173.929 222.62 173.579 222.975 173.319 223.435C173.059 223.895 172.929 224.435 172.929 225.055C172.929 225.665 173.059 226.205 173.319 226.675C173.579 227.135 173.929 227.495 174.369 227.755C174.809 228.005 175.304 228.13 175.854 228.13ZM186.068 221.05C186.708 221.05 187.268 221.175 187.748 221.425C188.238 221.665 188.618 222.035 188.888 222.535C189.168 223.035 189.308 223.665 189.308 224.425V229H188.243V224.53C188.243 223.7 188.033 223.075 187.613 222.655C187.203 222.225 186.623 222.01 185.873 222.01C185.313 222.01 184.823 222.125 184.403 222.355C183.993 222.575 183.673 222.9 183.443 223.33C183.223 223.75 183.113 224.26 183.113 224.86V229H182.048V221.125H183.068V223.285L182.903 222.88C183.153 222.31 183.553 221.865 184.103 221.545C184.653 221.215 185.308 221.05 186.068 221.05ZM198.601 229.075C197.861 229.075 197.291 228.875 196.891 228.475C196.491 228.075 196.291 227.51 196.291 226.78V219.385H197.356V226.72C197.356 227.18 197.471 227.535 197.701 227.785C197.941 228.035 198.281 228.16 198.721 228.16C199.191 228.16 199.581 228.025 199.891 227.755L200.266 228.52C200.056 228.71 199.801 228.85 199.501 228.94C199.211 229.03 198.911 229.075 198.601 229.075ZM194.881 222.01V221.125H199.756V222.01H194.881ZM202.118 231.985C201.748 231.985 201.393 231.925 201.053 231.805C200.723 231.685 200.438 231.505 200.198 231.265L200.693 230.47C200.893 230.66 201.108 230.805 201.338 230.905C201.578 231.015 201.843 231.07 202.133 231.07C202.483 231.07 202.783 230.97 203.033 230.77C203.293 230.58 203.538 230.24 203.768 229.75L204.278 228.595L204.398 228.43L207.638 221.125H208.688L204.743 229.945C204.523 230.455 204.278 230.86 204.008 231.16C203.748 231.46 203.463 231.67 203.153 231.79C202.843 231.92 202.498 231.985 202.118 231.985ZM204.218 229.225L200.588 221.125H201.698L204.908 228.355L204.218 229.225ZM214.253 229.075C213.573 229.075 212.958 228.92 212.408 228.61C211.858 228.29 211.418 227.835 211.088 227.245C210.768 226.645 210.608 225.915 210.608 225.055C210.608 224.195 210.768 223.47 211.088 222.88C211.408 222.28 211.843 221.825 212.393 221.515C212.943 221.205 213.563 221.05 214.253 221.05C215.003 221.05 215.673 221.22 216.263 221.56C216.863 221.89 217.333 222.36 217.673 222.97C218.013 223.57 218.183 224.265 218.183 225.055C218.183 225.855 218.013 226.555 217.673 227.155C217.333 227.755 216.863 228.225 216.263 228.565C215.673 228.905 215.003 229.075 214.253 229.075ZM210.188 231.91V221.125H211.208V223.495L211.103 225.07L211.253 226.66V231.91H210.188ZM214.178 228.13C214.738 228.13 215.238 228.005 215.678 227.755C216.118 227.495 216.468 227.135 216.728 226.675C216.988 226.205 217.118 225.665 217.118 225.055C217.118 224.445 216.988 223.91 216.728 223.45C216.468 222.99 216.118 222.63 215.678 222.37C215.238 222.11 214.738 221.98 214.178 221.98C213.618 221.98 213.113 222.11 212.663 222.37C212.223 222.63 211.873 222.99 211.613 223.45C211.363 223.91 211.238 224.445 211.238 225.055C211.238 225.665 211.363 226.205 211.613 226.675C211.873 227.135 212.223 227.495 212.663 227.755C213.113 228.005 213.618 228.13 214.178 228.13ZM223.699 229.075C222.879 229.075 222.159 228.905 221.539 228.565C220.919 228.215 220.434 227.74 220.084 227.14C219.734 226.53 219.559 225.835 219.559 225.055C219.559 224.275 219.724 223.585 220.054 222.985C220.394 222.385 220.854 221.915 221.434 221.575C222.024 221.225 222.684 221.05 223.414 221.05C224.154 221.05 224.809 221.22 225.379 221.56C225.959 221.89 226.414 222.36 226.744 222.97C227.074 223.57 227.239 224.265 227.239 225.055C227.239 225.105 227.234 225.16 227.224 225.22C227.224 225.27 227.224 225.325 227.224 225.385H220.369V224.59H226.654L226.234 224.905C226.234 224.335 226.109 223.83 225.859 223.39C225.619 222.94 225.289 222.59 224.869 222.34C224.449 222.09 223.964 221.965 223.414 221.965C222.874 221.965 222.389 222.09 221.959 222.34C221.529 222.59 221.194 222.94 220.954 223.39C220.714 223.84 220.594 224.355 220.594 224.935V225.1C220.594 225.7 220.724 226.23 220.984 226.69C221.254 227.14 221.624 227.495 222.094 227.755C222.574 228.005 223.119 228.13 223.729 228.13C224.209 228.13 224.654 228.045 225.064 227.875C225.484 227.705 225.844 227.445 226.144 227.095L226.744 227.785C226.394 228.205 225.954 228.525 225.424 228.745C224.904 228.965 224.329 229.075 223.699 229.075ZM231.522 229.075C230.872 229.075 230.257 228.985 229.677 228.805C229.097 228.615 228.642 228.38 228.312 228.1L228.792 227.26C229.112 227.5 229.522 227.71 230.022 227.89C230.522 228.06 231.047 228.145 231.597 228.145C232.347 228.145 232.887 228.03 233.217 227.8C233.547 227.56 233.712 227.245 233.712 226.855C233.712 226.565 233.617 226.34 233.427 226.18C233.247 226.01 233.007 225.885 232.707 225.805C232.407 225.715 232.072 225.64 231.702 225.58C231.332 225.52 230.962 225.45 230.592 225.37C230.232 225.29 229.902 225.175 229.602 225.025C229.302 224.865 229.057 224.65 228.867 224.38C228.687 224.11 228.597 223.75 228.597 223.3C228.597 222.87 228.717 222.485 228.957 222.145C229.197 221.805 229.547 221.54 230.007 221.35C230.477 221.15 231.047 221.05 231.717 221.05C232.227 221.05 232.737 221.12 233.247 221.26C233.757 221.39 234.177 221.565 234.507 221.785L234.042 222.64C233.692 222.4 233.317 222.23 232.917 222.13C232.517 222.02 232.117 221.965 231.717 221.965C231.007 221.965 230.482 222.09 230.142 222.34C229.812 222.58 229.647 222.89 229.647 223.27C229.647 223.57 229.737 223.805 229.917 223.975C230.107 224.145 230.352 224.28 230.652 224.38C230.962 224.47 231.297 224.545 231.657 224.605C232.027 224.665 232.392 224.74 232.752 224.83C233.122 224.91 233.457 225.025 233.757 225.175C234.067 225.315 234.312 225.52 234.492 225.79C234.682 226.05 234.777 226.395 234.777 226.825C234.777 227.285 234.647 227.685 234.387 228.025C234.137 228.355 233.767 228.615 233.277 228.805C232.797 228.985 232.212 229.075 231.522 229.075ZM245.592 229V227.26L245.547 226.975V224.065C245.547 223.395 245.357 222.88 244.977 222.52C244.607 222.16 244.052 221.98 243.312 221.98C242.802 221.98 242.317 222.065 241.857 222.235C241.397 222.405 241.007 222.63 240.687 222.91L240.207 222.115C240.607 221.775 241.087 221.515 241.647 221.335C242.207 221.145 242.797 221.05 243.417 221.05C244.437 221.05 245.222 221.305 245.772 221.815C246.332 222.315 246.612 223.08 246.612 224.11V229H245.592ZM242.877 229.075C242.287 229.075 241.772 228.98 241.332 228.79C240.902 228.59 240.572 228.32 240.342 227.98C240.112 227.63 239.997 227.23 239.997 226.78C239.997 226.37 240.092 226 240.282 225.67C240.482 225.33 240.802 225.06 241.242 224.86C241.692 224.65 242.292 224.545 243.042 224.545H245.757V225.34H243.072C242.312 225.34 241.782 225.475 241.482 225.745C241.192 226.015 241.047 226.35 241.047 226.75C241.047 227.2 241.222 227.56 241.572 227.83C241.922 228.1 242.412 228.235 243.042 228.235C243.642 228.235 244.157 228.1 244.587 227.83C245.027 227.55 245.347 227.15 245.547 226.63L245.787 227.365C245.587 227.885 245.237 228.3 244.737 228.61C244.247 228.92 243.627 229.075 242.877 229.075ZM253.525 221.05C254.165 221.05 254.725 221.175 255.205 221.425C255.695 221.665 256.075 222.035 256.345 222.535C256.625 223.035 256.765 223.665 256.765 224.425V229H255.7V224.53C255.7 223.7 255.49 223.075 255.07 222.655C254.66 222.225 254.08 222.01 253.33 222.01C252.77 222.01 252.28 222.125 251.86 222.355C251.45 222.575 251.13 222.9 250.9 223.33C250.68 223.75 250.57 224.26 250.57 224.86V229H249.505V221.125H250.525V223.285L250.36 222.88C250.61 222.31 251.01 221.865 251.56 221.545C252.11 221.215 252.765 221.05 253.525 221.05ZM262.776 229.075C262.026 229.075 261.351 228.905 260.751 228.565C260.161 228.225 259.696 227.755 259.356 227.155C259.016 226.545 258.846 225.845 258.846 225.055C258.846 224.255 259.016 223.555 259.356 222.955C259.696 222.355 260.161 221.89 260.751 221.56C261.351 221.22 262.026 221.05 262.776 221.05C263.466 221.05 264.081 221.205 264.621 221.515C265.171 221.825 265.606 222.28 265.926 222.88C266.256 223.47 266.421 224.195 266.421 225.055C266.421 225.905 266.261 226.63 265.941 227.23C265.621 227.83 265.186 228.29 264.636 228.61C264.096 228.92 263.476 229.075 262.776 229.075ZM262.851 228.13C263.411 228.13 263.911 228.005 264.351 227.755C264.801 227.495 265.151 227.135 265.401 226.675C265.661 226.205 265.791 225.665 265.791 225.055C265.791 224.435 265.661 223.895 265.401 223.435C265.151 222.975 264.801 222.62 264.351 222.37C263.911 222.11 263.411 221.98 262.851 221.98C262.301 221.98 261.806 222.11 261.366 222.37C260.926 222.62 260.576 222.975 260.316 223.435C260.056 223.895 259.926 224.435 259.926 225.055C259.926 225.665 260.056 226.205 260.316 226.675C260.576 227.135 260.926 227.495 261.366 227.755C261.806 228.005 262.301 228.13 262.851 228.13ZM265.821 229V226.63L265.926 225.04L265.776 223.45V217.87H266.841V229H265.821ZM17.755 247.075C16.975 247.075 16.275 246.905 15.655 246.565C15.045 246.215 14.565 245.74 14.215 245.14C13.865 244.53 13.69 243.835 13.69 243.055C13.69 242.265 13.865 241.57 14.215 240.97C14.565 240.37 15.045 239.9 15.655 239.56C16.275 239.22 16.975 239.05 17.755 239.05C18.425 239.05 19.03 239.18 19.57 239.44C20.11 239.7 20.535 240.09 20.845 240.61L20.05 241.15C19.78 240.75 19.445 240.455 19.045 240.265C18.645 240.075 18.21 239.98 17.74 239.98C17.18 239.98 16.675 240.11 16.225 240.37C15.775 240.62 15.42 240.975 15.16 241.435C14.9 241.895 14.77 242.435 14.77 243.055C14.77 243.675 14.9 244.215 15.16 244.675C15.42 245.135 15.775 245.495 16.225 245.755C16.675 246.005 17.18 246.13 17.74 246.13C18.21 246.13 18.645 246.035 19.045 245.845C19.445 245.655 19.78 245.365 20.05 244.975L20.845 245.515C20.535 246.025 20.11 246.415 19.57 246.685C19.03 246.945 18.425 247.075 17.755 247.075ZM26.1921 247.075C25.5221 247.075 24.9371 246.95 24.4371 246.7C23.9371 246.45 23.5471 246.075 23.2671 245.575C22.9971 245.075 22.8621 244.45 22.8621 243.7V239.125H23.9271V243.58C23.9271 244.42 24.1321 245.055 24.5421 245.485C24.9621 245.905 25.5471 246.115 26.2971 246.115C26.8471 246.115 27.3221 246.005 27.7221 245.785C28.1321 245.555 28.4421 245.225 28.6521 244.795C28.8721 244.365 28.9821 243.85 28.9821 243.25V239.125H30.0471V247H29.0271V244.84L29.1921 245.23C28.9421 245.81 28.5521 246.265 28.0221 246.595C27.5021 246.915 26.8921 247.075 26.1921 247.075ZM35.1303 247.075C34.4803 247.075 33.8653 246.985 33.2853 246.805C32.7053 246.615 32.2503 246.38 31.9203 246.1L32.4003 245.26C32.7203 245.5 33.1303 245.71 33.6303 245.89C34.1303 246.06 34.6553 246.145 35.2053 246.145C35.9553 246.145 36.4953 246.03 36.8253 245.8C37.1553 245.56 37.3203 245.245 37.3203 244.855C37.3203 244.565 37.2253 244.34 37.0353 244.18C36.8553 244.01 36.6153 243.885 36.3153 243.805C36.0153 243.715 35.6803 243.64 35.3103 243.58C34.9403 243.52 34.5703 243.45 34.2003 243.37C33.8403 243.29 33.5103 243.175 33.2103 243.025C32.9103 242.865 32.6653 242.65 32.4753 242.38C32.2953 242.11 32.2053 241.75 32.2053 241.3C32.2053 240.87 32.3253 240.485 32.5653 240.145C32.8053 239.805 33.1553 239.54 33.6153 239.35C34.0853 239.15 34.6553 239.05 35.3253 239.05C35.8353 239.05 36.3453 239.12 36.8553 239.26C37.3653 239.39 37.7853 239.565 38.1153 239.785L37.6503 240.64C37.3003 240.4 36.9253 240.23 36.5253 240.13C36.1253 240.02 35.7253 239.965 35.3253 239.965C34.6153 239.965 34.0903 240.09 33.7503 240.34C33.4203 240.58 33.2553 240.89 33.2553 241.27C33.2553 241.57 33.3453 241.805 33.5253 241.975C33.7153 242.145 33.9603 242.28 34.2603 242.38C34.5703 242.47 34.9053 242.545 35.2653 242.605C35.6353 242.665 36.0003 242.74 36.3603 242.83C36.7303 242.91 37.0653 243.025 37.3653 243.175C37.6753 243.315 37.9203 243.52 38.1003 243.79C38.2903 244.05 38.3853 244.395 38.3853 244.825C38.3853 245.285 38.2553 245.685 37.9953 246.025C37.7453 246.355 37.3753 246.615 36.8853 246.805C36.4053 246.985 35.8203 247.075 35.1303 247.075ZM42.8295 247.075C42.0895 247.075 41.5195 246.875 41.1195 246.475C40.7195 246.075 40.5195 245.51 40.5195 244.78V237.385H41.5845V244.72C41.5845 245.18 41.6995 245.535 41.9295 245.785C42.1695 246.035 42.5095 246.16 42.9495 246.16C43.4195 246.16 43.8095 246.025 44.1195 245.755L44.4945 246.52C44.2845 246.71 44.0295 246.85 43.7295 246.94C43.4395 247.03 43.1395 247.075 42.8295 247.075ZM39.1095 240.01V239.125H43.9845V240.01H39.1095ZM49.3649 247.075C48.6049 247.075 47.9199 246.905 47.3099 246.565C46.7099 246.215 46.2349 245.74 45.8849 245.14C45.5349 244.53 45.3599 243.835 45.3599 243.055C45.3599 242.265 45.5349 241.57 45.8849 240.97C46.2349 240.37 46.7099 239.9 47.3099 239.56C47.9099 239.22 48.5949 239.05 49.3649 239.05C50.1449 239.05 50.8349 239.22 51.4349 239.56C52.0449 239.9 52.5199 240.37 52.8599 240.97C53.2099 241.57 53.3849 242.265 53.3849 243.055C53.3849 243.835 53.2099 244.53 52.8599 245.14C52.5199 245.74 52.0449 246.215 51.4349 246.565C50.8249 246.905 50.1349 247.075 49.3649 247.075ZM49.3649 246.13C49.9349 246.13 50.4399 246.005 50.8799 245.755C51.3199 245.495 51.6649 245.135 51.9149 244.675C52.1749 244.205 52.3049 243.665 52.3049 243.055C52.3049 242.435 52.1749 241.895 51.9149 241.435C51.6649 240.975 51.3199 240.62 50.8799 240.37C50.4399 240.11 49.9399 239.98 49.3799 239.98C48.8199 239.98 48.3199 240.11 47.8799 240.37C47.4399 240.62 47.0899 240.975 46.8299 241.435C46.5699 241.895 46.4399 242.435 46.4399 243.055C46.4399 243.665 46.5699 244.205 46.8299 244.675C47.0899 245.135 47.4399 245.495 47.8799 245.755C48.3199 246.005 48.8149 246.13 49.3649 246.13ZM65.3992 239.05C66.0392 239.05 66.5942 239.175 67.0642 239.425C67.5442 239.665 67.9142 240.035 68.1742 240.535C68.4442 241.035 68.5792 241.665 68.5792 242.425V247H67.5142V242.53C67.5142 241.7 67.3142 241.075 66.9142 240.655C66.5242 240.225 65.9692 240.01 65.2492 240.01C64.7092 240.01 64.2392 240.125 63.8392 240.355C63.4492 240.575 63.1442 240.9 62.9242 241.33C62.7142 241.75 62.6092 242.26 62.6092 242.86V247H61.5442V242.53C61.5442 241.7 61.3442 241.075 60.9442 240.655C60.5442 240.225 59.9842 240.01 59.2642 240.01C58.7342 240.01 58.2692 240.125 57.8692 240.355C57.4692 240.575 57.1592 240.9 56.9392 241.33C56.7292 241.75 56.6242 242.26 56.6242 242.86V247H55.5592V239.125H56.5792V241.255L56.4142 240.88C56.6542 240.31 57.0392 239.865 57.5692 239.545C58.1092 239.215 58.7442 239.05 59.4742 239.05C60.2442 239.05 60.8992 239.245 61.4392 239.635C61.9792 240.015 62.3292 240.59 62.4892 241.36L62.0692 241.195C62.2992 240.555 62.7042 240.04 63.2842 239.65C63.8742 239.25 64.5792 239.05 65.3992 239.05ZM71.4674 247V239.125H72.5324V247H71.4674ZM72.0074 237.385C71.7874 237.385 71.6024 237.31 71.4524 237.16C71.3024 237.01 71.2274 236.83 71.2274 236.62C71.2274 236.41 71.3024 236.235 71.4524 236.095C71.6024 235.945 71.7874 235.87 72.0074 235.87C72.2274 235.87 72.4124 235.94 72.5624 236.08C72.7124 236.22 72.7874 236.395 72.7874 236.605C72.7874 236.825 72.7124 237.01 72.5624 237.16C72.4224 237.31 72.2374 237.385 72.0074 237.385ZM74.6407 247V246.295L79.8907 239.65L80.1157 240.01H74.7307V239.125H80.9557V239.815L75.7207 246.475L75.4507 246.115H81.0607V247H74.6407ZM86.37 247.075C85.55 247.075 84.83 246.905 84.21 246.565C83.59 246.215 83.105 245.74 82.755 245.14C82.405 244.53 82.23 243.835 82.23 243.055C82.23 242.275 82.395 241.585 82.725 240.985C83.065 240.385 83.525 239.915 84.105 239.575C84.695 239.225 85.355 239.05 86.085 239.05C86.825 239.05 87.48 239.22 88.05 239.56C88.63 239.89 89.085 240.36 89.415 240.97C89.745 241.57 89.91 242.265 89.91 243.055C89.91 243.105 89.905 243.16 89.895 243.22C89.895 243.27 89.895 243.325 89.895 243.385H83.04V242.59H89.325L88.905 242.905C88.905 242.335 88.78 241.83 88.53 241.39C88.29 240.94 87.96 240.59 87.54 240.34C87.12 240.09 86.635 239.965 86.085 239.965C85.545 239.965 85.06 240.09 84.63 240.34C84.2 240.59 83.865 240.94 83.625 241.39C83.385 241.84 83.265 242.355 83.265 242.935V243.1C83.265 243.7 83.395 244.23 83.655 244.69C83.925 245.14 84.295 245.495 84.765 245.755C85.245 246.005 85.79 246.13 86.4 246.13C86.88 246.13 87.325 246.045 87.735 245.875C88.155 245.705 88.515 245.445 88.815 245.095L89.415 245.785C89.065 246.205 88.625 246.525 88.095 246.745C87.575 246.965 87 247.075 86.37 247.075ZM100.939 247V245.26L100.894 244.975V242.065C100.894 241.395 100.704 240.88 100.324 240.52C99.9536 240.16 99.3986 239.98 98.6586 239.98C98.1486 239.98 97.6636 240.065 97.2036 240.235C96.7436 240.405 96.3536 240.63 96.0336 240.91L95.5536 240.115C95.9536 239.775 96.4336 239.515 96.9936 239.335C97.5536 239.145 98.1436 239.05 98.7636 239.05C99.7836 239.05 100.569 239.305 101.119 239.815C101.679 240.315 101.959 241.08 101.959 242.11V247H100.939ZM98.2236 247.075C97.6336 247.075 97.1186 246.98 96.6786 246.79C96.2486 246.59 95.9186 246.32 95.6886 245.98C95.4586 245.63 95.3436 245.23 95.3436 244.78C95.3436 244.37 95.4386 244 95.6286 243.67C95.8286 243.33 96.1486 243.06 96.5886 242.86C97.0386 242.65 97.6386 242.545 98.3886 242.545H101.104V243.34H98.4186C97.6586 243.34 97.1286 243.475 96.8286 243.745C96.5386 244.015 96.3936 244.35 96.3936 244.75C96.3936 245.2 96.5686 245.56 96.9186 245.83C97.2686 246.1 97.7586 246.235 98.3886 246.235C98.9886 246.235 99.5036 246.1 99.9336 245.83C100.374 245.55 100.694 245.15 100.894 244.63L101.134 245.365C100.934 245.885 100.584 246.3 100.084 246.61C99.5936 246.92 98.9736 247.075 98.2236 247.075ZM108.871 239.05C109.511 239.05 110.071 239.175 110.551 239.425C111.041 239.665 111.421 240.035 111.691 240.535C111.971 241.035 112.111 241.665 112.111 242.425V247H111.046V242.53C111.046 241.7 110.836 241.075 110.416 240.655C110.006 240.225 109.426 240.01 108.676 240.01C108.116 240.01 107.626 240.125 107.206 240.355C106.796 240.575 106.476 240.9 106.246 241.33C106.026 241.75 105.916 242.26 105.916 242.86V247H104.851V239.125H105.871V241.285L105.706 240.88C105.956 240.31 106.356 239.865 106.906 239.545C107.456 239.215 108.111 239.05 108.871 239.05ZM117.103 247.075C116.453 247.075 115.838 246.985 115.258 246.805C114.678 246.615 114.223 246.38 113.893 246.1L114.373 245.26C114.693 245.5 115.103 245.71 115.603 245.89C116.103 246.06 116.628 246.145 117.178 246.145C117.928 246.145 118.468 246.03 118.798 245.8C119.128 245.56 119.293 245.245 119.293 244.855C119.293 244.565 119.198 244.34 119.008 244.18C118.828 244.01 118.588 243.885 118.288 243.805C117.988 243.715 117.653 243.64 117.283 243.58C116.913 243.52 116.543 243.45 116.173 243.37C115.813 243.29 115.483 243.175 115.183 243.025C114.883 242.865 114.638 242.65 114.448 242.38C114.268 242.11 114.178 241.75 114.178 241.3C114.178 240.87 114.298 240.485 114.538 240.145C114.778 239.805 115.128 239.54 115.588 239.35C116.058 239.15 116.628 239.05 117.298 239.05C117.808 239.05 118.318 239.12 118.828 239.26C119.338 239.39 119.758 239.565 120.088 239.785L119.623 240.64C119.273 240.4 118.898 240.23 118.498 240.13C118.098 240.02 117.698 239.965 117.298 239.965C116.588 239.965 116.063 240.09 115.723 240.34C115.393 240.58 115.228 240.89 115.228 241.27C115.228 241.57 115.318 241.805 115.498 241.975C115.688 242.145 115.933 242.28 116.233 242.38C116.543 242.47 116.878 242.545 117.238 242.605C117.608 242.665 117.973 242.74 118.333 242.83C118.703 242.91 119.038 243.025 119.338 243.175C119.648 243.315 119.893 243.52 120.073 243.79C120.263 244.05 120.358 244.395 120.358 244.825C120.358 245.285 120.228 245.685 119.968 246.025C119.718 246.355 119.348 246.615 118.858 246.805C118.378 246.985 117.793 247.075 117.103 247.075ZM123.771 247L120.801 239.125H121.821L124.521 246.43H124.056L126.831 239.125H127.746L130.491 246.43H130.026L132.771 239.125H133.746L130.761 247H129.756L127.116 240.13H127.431L124.776 247H123.771ZM138.475 247.075C137.655 247.075 136.935 246.905 136.315 246.565C135.695 246.215 135.21 245.74 134.86 245.14C134.51 244.53 134.335 243.835 134.335 243.055C134.335 242.275 134.5 241.585 134.83 240.985C135.17 240.385 135.63 239.915 136.21 239.575C136.8 239.225 137.46 239.05 138.19 239.05C138.93 239.05 139.585 239.22 140.155 239.56C140.735 239.89 141.19 240.36 141.52 240.97C141.85 241.57 142.015 242.265 142.015 243.055C142.015 243.105 142.01 243.16 142 243.22C142 243.27 142 243.325 142 243.385H135.145V242.59H141.43L141.01 242.905C141.01 242.335 140.885 241.83 140.635 241.39C140.395 240.94 140.065 240.59 139.645 240.34C139.225 240.09 138.74 239.965 138.19 239.965C137.65 239.965 137.165 240.09 136.735 240.34C136.305 240.59 135.97 240.94 135.73 241.39C135.49 241.84 135.37 242.355 135.37 242.935V243.1C135.37 243.7 135.5 244.23 135.76 244.69C136.03 245.14 136.4 245.495 136.87 245.755C137.35 246.005 137.895 246.13 138.505 246.13C138.985 246.13 139.43 246.045 139.84 245.875C140.26 245.705 140.62 245.445 140.92 245.095L141.52 245.785C141.17 246.205 140.73 246.525 140.2 246.745C139.68 246.965 139.105 247.075 138.475 247.075ZM144.182 247V239.125H145.202V241.27L145.097 240.895C145.317 240.295 145.687 239.84 146.207 239.53C146.727 239.21 147.372 239.05 148.142 239.05V240.085C148.102 240.085 148.062 240.085 148.022 240.085C147.982 240.075 147.942 240.07 147.902 240.07C147.072 240.07 146.422 240.325 145.952 240.835C145.482 241.335 145.247 242.05 145.247 242.98V247H144.182ZM157.339 247.075C156.579 247.075 155.894 246.905 155.284 246.565C154.684 246.215 154.209 245.74 153.859 245.14C153.509 244.53 153.334 243.835 153.334 243.055C153.334 242.265 153.509 241.57 153.859 240.97C154.209 240.37 154.684 239.9 155.284 239.56C155.884 239.22 156.569 239.05 157.339 239.05C158.119 239.05 158.809 239.22 159.409 239.56C160.019 239.9 160.494 240.37 160.834 240.97C161.184 241.57 161.359 242.265 161.359 243.055C161.359 243.835 161.184 244.53 160.834 245.14C160.494 245.74 160.019 246.215 159.409 246.565C158.799 246.905 158.109 247.075 157.339 247.075ZM157.339 246.13C157.909 246.13 158.414 246.005 158.854 245.755C159.294 245.495 159.639 245.135 159.889 244.675C160.149 244.205 160.279 243.665 160.279 243.055C160.279 242.435 160.149 241.895 159.889 241.435C159.639 240.975 159.294 240.62 158.854 240.37C158.414 240.11 157.914 239.98 157.354 239.98C156.794 239.98 156.294 240.11 155.854 240.37C155.414 240.62 155.064 240.975 154.804 241.435C154.544 241.895 154.414 242.435 154.414 243.055C154.414 243.665 154.544 244.205 154.804 244.675C155.064 245.135 155.414 245.495 155.854 245.755C156.294 246.005 156.789 246.13 157.339 246.13ZM167.598 247.075C166.918 247.075 166.303 246.92 165.753 246.61C165.203 246.29 164.763 245.835 164.433 245.245C164.113 244.645 163.953 243.915 163.953 243.055C163.953 242.195 164.113 241.47 164.433 240.88C164.753 240.28 165.188 239.825 165.738 239.515C166.288 239.205 166.908 239.05 167.598 239.05C168.348 239.05 169.018 239.22 169.608 239.56C170.208 239.89 170.678 240.36 171.018 240.97C171.358 241.57 171.528 242.265 171.528 243.055C171.528 243.855 171.358 244.555 171.018 245.155C170.678 245.755 170.208 246.225 169.608 246.565C169.018 246.905 168.348 247.075 167.598 247.075ZM163.533 249.91V239.125H164.553V241.495L164.448 243.07L164.598 244.66V249.91H163.533ZM167.523 246.13C168.083 246.13 168.583 246.005 169.023 245.755C169.463 245.495 169.813 245.135 170.073 244.675C170.333 244.205 170.463 243.665 170.463 243.055C170.463 242.445 170.333 241.91 170.073 241.45C169.813 240.99 169.463 240.63 169.023 240.37C168.583 240.11 168.083 239.98 167.523 239.98C166.963 239.98 166.458 240.11 166.008 240.37C165.568 240.63 165.218 240.99 164.958 241.45C164.708 241.91 164.583 242.445 164.583 243.055C164.583 243.665 164.708 244.205 164.958 244.675C165.218 245.135 165.568 245.495 166.008 245.755C166.458 246.005 166.963 246.13 167.523 246.13ZM176.189 247.075C175.449 247.075 174.879 246.875 174.479 246.475C174.079 246.075 173.879 245.51 173.879 244.78V237.385H174.944V244.72C174.944 245.18 175.059 245.535 175.289 245.785C175.529 246.035 175.869 246.16 176.309 246.16C176.779 246.16 177.169 246.025 177.479 245.755L177.854 246.52C177.644 246.71 177.389 246.85 177.089 246.94C176.799 247.03 176.499 247.075 176.189 247.075ZM172.469 240.01V239.125H177.344V240.01H172.469ZM179.793 247V239.125H180.858V247H179.793ZM180.333 237.385C180.113 237.385 179.928 237.31 179.778 237.16C179.628 237.01 179.553 236.83 179.553 236.62C179.553 236.41 179.628 236.235 179.778 236.095C179.928 235.945 180.113 235.87 180.333 235.87C180.553 235.87 180.738 235.94 180.888 236.08C181.038 236.22 181.113 236.395 181.113 236.605C181.113 236.825 181.038 237.01 180.888 237.16C180.748 237.31 180.563 237.385 180.333 237.385ZM187.031 247.075C186.271 247.075 185.586 246.905 184.976 246.565C184.376 246.215 183.901 245.74 183.551 245.14C183.201 244.53 183.026 243.835 183.026 243.055C183.026 242.265 183.201 241.57 183.551 240.97C183.901 240.37 184.376 239.9 184.976 239.56C185.576 239.22 186.261 239.05 187.031 239.05C187.811 239.05 188.501 239.22 189.101 239.56C189.711 239.9 190.186 240.37 190.526 240.97C190.876 241.57 191.051 242.265 191.051 243.055C191.051 243.835 190.876 244.53 190.526 245.14C190.186 245.74 189.711 246.215 189.101 246.565C188.491 246.905 187.801 247.075 187.031 247.075ZM187.031 246.13C187.601 246.13 188.106 246.005 188.546 245.755C188.986 245.495 189.331 245.135 189.581 244.675C189.841 244.205 189.971 243.665 189.971 243.055C189.971 242.435 189.841 241.895 189.581 241.435C189.331 240.975 188.986 240.62 188.546 240.37C188.106 240.11 187.606 239.98 187.046 239.98C186.486 239.98 185.986 240.11 185.546 240.37C185.106 240.62 184.756 240.975 184.496 241.435C184.236 241.895 184.106 242.435 184.106 243.055C184.106 243.665 184.236 244.205 184.496 244.675C184.756 245.135 185.106 245.495 185.546 245.755C185.986 246.005 186.481 246.13 187.031 246.13ZM197.245 239.05C197.885 239.05 198.445 239.175 198.925 239.425C199.415 239.665 199.795 240.035 200.065 240.535C200.345 241.035 200.485 241.665 200.485 242.425V247H199.42V242.53C199.42 241.7 199.21 241.075 198.79 240.655C198.38 240.225 197.8 240.01 197.05 240.01C196.49 240.01 196 240.125 195.58 240.355C195.17 240.575 194.85 240.9 194.62 241.33C194.4 241.75 194.29 242.26 194.29 242.86V247H193.225V239.125H194.245V241.285L194.08 240.88C194.33 240.31 194.73 239.865 195.28 239.545C195.83 239.215 196.485 239.05 197.245 239.05ZM205.477 247.075C204.827 247.075 204.212 246.985 203.632 246.805C203.052 246.615 202.597 246.38 202.267 246.1L202.747 245.26C203.067 245.5 203.477 245.71 203.977 245.89C204.477 246.06 205.002 246.145 205.552 246.145C206.302 246.145 206.842 246.03 207.172 245.8C207.502 245.56 207.667 245.245 207.667 244.855C207.667 244.565 207.572 244.34 207.382 244.18C207.202 244.01 206.962 243.885 206.662 243.805C206.362 243.715 206.027 243.64 205.657 243.58C205.287 243.52 204.917 243.45 204.547 243.37C204.187 243.29 203.857 243.175 203.557 243.025C203.257 242.865 203.012 242.65 202.822 242.38C202.642 242.11 202.552 241.75 202.552 241.3C202.552 240.87 202.672 240.485 202.912 240.145C203.152 239.805 203.502 239.54 203.962 239.35C204.432 239.15 205.002 239.05 205.672 239.05C206.182 239.05 206.692 239.12 207.202 239.26C207.712 239.39 208.132 239.565 208.462 239.785L207.997 240.64C207.647 240.4 207.272 240.23 206.872 240.13C206.472 240.02 206.072 239.965 205.672 239.965C204.962 239.965 204.437 240.09 204.097 240.34C203.767 240.58 203.602 240.89 203.602 241.27C203.602 241.57 203.692 241.805 203.872 241.975C204.062 242.145 204.307 242.28 204.607 242.38C204.917 242.47 205.252 242.545 205.612 242.605C205.982 242.665 206.347 242.74 206.707 242.83C207.077 242.91 207.412 243.025 207.712 243.175C208.022 243.315 208.267 243.52 208.447 243.79C208.637 244.05 208.732 244.395 208.732 244.825C208.732 245.285 208.602 245.685 208.342 246.025C208.092 246.355 207.722 246.615 207.232 246.805C206.752 246.985 206.167 247.075 205.477 247.075ZM214.792 247V238.135C214.792 237.435 214.997 236.87 215.407 236.44C215.817 236.01 216.407 235.795 217.177 235.795C217.477 235.795 217.767 235.835 218.047 235.915C218.327 235.995 218.562 236.12 218.752 236.29L218.392 237.085C218.242 236.955 218.067 236.86 217.867 236.8C217.667 236.73 217.452 236.695 217.222 236.695C216.772 236.695 216.427 236.82 216.187 237.07C215.947 237.32 215.827 237.69 215.827 238.18V239.38L215.857 239.875V247H214.792ZM213.382 240.01V239.125H218.257V240.01H213.382ZM222.773 247.075C222.013 247.075 221.328 246.905 220.718 246.565C220.118 246.215 219.643 245.74 219.293 245.14C218.943 244.53 218.768 243.835 218.768 243.055C218.768 242.265 218.943 241.57 219.293 240.97C219.643 240.37 220.118 239.9 220.718 239.56C221.318 239.22 222.003 239.05 222.773 239.05C223.553 239.05 224.243 239.22 224.843 239.56C225.453 239.9 225.928 240.37 226.268 240.97C226.618 241.57 226.793 242.265 226.793 243.055C226.793 243.835 226.618 244.53 226.268 245.14C225.928 245.74 225.453 246.215 224.843 246.565C224.233 246.905 223.543 247.075 222.773 247.075ZM222.773 246.13C223.343 246.13 223.848 246.005 224.288 245.755C224.728 245.495 225.073 245.135 225.323 244.675C225.583 244.205 225.713 243.665 225.713 243.055C225.713 242.435 225.583 241.895 225.323 241.435C225.073 240.975 224.728 240.62 224.288 240.37C223.848 240.11 223.348 239.98 222.788 239.98C222.228 239.98 221.728 240.11 221.288 240.37C220.848 240.62 220.498 240.975 220.238 241.435C219.978 241.895 219.848 242.435 219.848 243.055C219.848 243.665 219.978 244.205 220.238 244.675C220.498 245.135 220.848 245.495 221.288 245.755C221.728 246.005 222.223 246.13 222.773 246.13ZM228.967 247V239.125H229.987V241.27L229.882 240.895C230.102 240.295 230.472 239.84 230.992 239.53C231.512 239.21 232.157 239.05 232.927 239.05V240.085C232.887 240.085 232.847 240.085 232.807 240.085C232.767 240.075 232.727 240.07 232.687 240.07C231.857 240.07 231.207 240.325 230.737 240.835C230.267 241.335 230.032 242.05 230.032 242.98V247H228.967ZM24.325 257.05C24.965 257.05 25.52 257.175 25.99 257.425C26.47 257.665 26.84 258.035 27.1 258.535C27.37 259.035 27.505 259.665 27.505 260.425V265H26.44V260.53C26.44 259.7 26.24 259.075 25.84 258.655C25.45 258.225 24.895 258.01 24.175 258.01C23.635 258.01 23.165 258.125 22.765 258.355C22.375 258.575 22.07 258.9 21.85 259.33C21.64 259.75 21.535 260.26 21.535 260.86V265H20.47V260.53C20.47 259.7 20.27 259.075 19.87 258.655C19.47 258.225 18.91 258.01 18.19 258.01C17.66 258.01 17.195 258.125 16.795 258.355C16.395 258.575 16.085 258.9 15.865 259.33C15.655 259.75 15.55 260.26 15.55 260.86V265H14.485V257.125H15.505V259.255L15.34 258.88C15.58 258.31 15.965 257.865 16.495 257.545C17.035 257.215 17.67 257.05 18.4 257.05C19.17 257.05 19.825 257.245 20.365 257.635C20.905 258.015 21.255 258.59 21.415 259.36L20.995 259.195C21.225 258.555 21.63 258.04 22.21 257.65C22.8 257.25 23.505 257.05 24.325 257.05ZM33.6482 265.075C32.9782 265.075 32.3932 264.95 31.8932 264.7C31.3932 264.45 31.0032 264.075 30.7232 263.575C30.4532 263.075 30.3182 262.45 30.3182 261.7V257.125H31.3832V261.58C31.3832 262.42 31.5882 263.055 31.9982 263.485C32.4182 263.905 33.0032 264.115 33.7532 264.115C34.3032 264.115 34.7782 264.005 35.1782 263.785C35.5882 263.555 35.8982 263.225 36.1082 262.795C36.3282 262.365 36.4382 261.85 36.4382 261.25V257.125H37.5032V265H36.4832V262.84L36.6482 263.23C36.3982 263.81 36.0082 264.265 35.4782 264.595C34.9582 264.915 34.3482 265.075 33.6482 265.075ZM40.4713 265V253.87H41.5363V265H40.4713ZM47.0336 265.075C46.2936 265.075 45.7236 264.875 45.3236 264.475C44.9236 264.075 44.7236 263.51 44.7236 262.78V255.385H45.7886V262.72C45.7886 263.18 45.9036 263.535 46.1336 263.785C46.3736 264.035 46.7136 264.16 47.1536 264.16C47.6236 264.16 48.0136 264.025 48.3236 263.755L48.6986 264.52C48.4886 264.71 48.2336 264.85 47.9336 264.94C47.6436 265.03 47.3436 265.075 47.0336 265.075ZM43.3136 258.01V257.125H48.1886V258.01H43.3136ZM50.6373 265V257.125H51.7023V265H50.6373ZM51.1773 255.385C50.9573 255.385 50.7723 255.31 50.6223 255.16C50.4723 255.01 50.3973 254.83 50.3973 254.62C50.3973 254.41 50.4723 254.235 50.6223 254.095C50.7723 253.945 50.9573 253.87 51.1773 253.87C51.3973 253.87 51.5823 253.94 51.7323 254.08C51.8823 254.22 51.9573 254.395 51.9573 254.605C51.9573 254.825 51.8823 255.01 51.7323 255.16C51.5923 255.31 51.4073 255.385 51.1773 255.385ZM58.7307 265.075C58.0507 265.075 57.4357 264.92 56.8857 264.61C56.3357 264.29 55.8957 263.835 55.5657 263.245C55.2457 262.645 55.0857 261.915 55.0857 261.055C55.0857 260.195 55.2457 259.47 55.5657 258.88C55.8857 258.28 56.3207 257.825 56.8707 257.515C57.4207 257.205 58.0407 257.05 58.7307 257.05C59.4807 257.05 60.1507 257.22 60.7407 257.56C61.3407 257.89 61.8107 258.36 62.1507 258.97C62.4907 259.57 62.6607 260.265 62.6607 261.055C62.6607 261.855 62.4907 262.555 62.1507 263.155C61.8107 263.755 61.3407 264.225 60.7407 264.565C60.1507 264.905 59.4807 265.075 58.7307 265.075ZM54.6657 267.91V257.125H55.6857V259.495L55.5807 261.07L55.7307 262.66V267.91H54.6657ZM58.6557 264.13C59.2157 264.13 59.7157 264.005 60.1557 263.755C60.5957 263.495 60.9457 263.135 61.2057 262.675C61.4657 262.205 61.5957 261.665 61.5957 261.055C61.5957 260.445 61.4657 259.91 61.2057 259.45C60.9457 258.99 60.5957 258.63 60.1557 258.37C59.7157 258.11 59.2157 257.98 58.6557 257.98C58.0957 257.98 57.5907 258.11 57.1407 258.37C56.7007 258.63 56.3507 258.99 56.0907 259.45C55.8407 259.91 55.7157 260.445 55.7157 261.055C55.7157 261.665 55.8407 262.205 56.0907 262.675C56.3507 263.135 56.7007 263.495 57.1407 263.755C57.5907 264.005 58.0957 264.13 58.6557 264.13ZM64.8317 265V253.87H65.8967V265H64.8317ZM72.205 265.075C71.385 265.075 70.665 264.905 70.045 264.565C69.425 264.215 68.94 263.74 68.59 263.14C68.24 262.53 68.065 261.835 68.065 261.055C68.065 260.275 68.23 259.585 68.56 258.985C68.9 258.385 69.36 257.915 69.94 257.575C70.53 257.225 71.19 257.05 71.92 257.05C72.66 257.05 73.315 257.22 73.885 257.56C74.465 257.89 74.92 258.36 75.25 258.97C75.58 259.57 75.745 260.265 75.745 261.055C75.745 261.105 75.74 261.16 75.73 261.22C75.73 261.27 75.73 261.325 75.73 261.385H68.875V260.59H75.16L74.74 260.905C74.74 260.335 74.615 259.83 74.365 259.39C74.125 258.94 73.795 258.59 73.375 258.34C72.955 258.09 72.47 257.965 71.92 257.965C71.38 257.965 70.895 258.09 70.465 258.34C70.035 258.59 69.7 258.94 69.46 259.39C69.22 259.84 69.1 260.355 69.1 260.935V261.1C69.1 261.7 69.23 262.23 69.49 262.69C69.76 263.14 70.13 263.495 70.6 263.755C71.08 264.005 71.625 264.13 72.235 264.13C72.715 264.13 73.16 264.045 73.57 263.875C73.99 263.705 74.35 263.445 74.65 263.095L75.25 263.785C74.9 264.205 74.46 264.525 73.93 264.745C73.41 264.965 72.835 265.075 72.205 265.075ZM77.4742 261.4V260.47H81.4042V261.4H77.4742ZM87.2032 265.075C86.4232 265.075 85.7232 264.905 85.1032 264.565C84.4932 264.215 84.0132 263.74 83.6632 263.14C83.3132 262.53 83.1382 261.835 83.1382 261.055C83.1382 260.265 83.3132 259.57 83.6632 258.97C84.0132 258.37 84.4932 257.9 85.1032 257.56C85.7232 257.22 86.4232 257.05 87.2032 257.05C87.8732 257.05 88.4782 257.18 89.0182 257.44C89.5582 257.7 89.9832 258.09 90.2932 258.61L89.4982 259.15C89.2282 258.75 88.8932 258.455 88.4932 258.265C88.0932 258.075 87.6582 257.98 87.1882 257.98C86.6282 257.98 86.1232 258.11 85.6732 258.37C85.2232 258.62 84.8682 258.975 84.6082 259.435C84.3482 259.895 84.2182 260.435 84.2182 261.055C84.2182 261.675 84.3482 262.215 84.6082 262.675C84.8682 263.135 85.2232 263.495 85.6732 263.755C86.1232 264.005 86.6282 264.13 87.1882 264.13C87.6582 264.13 88.0932 264.035 88.4932 263.845C88.8932 263.655 89.2282 263.365 89.4982 262.975L90.2932 263.515C89.9832 264.025 89.5582 264.415 89.0182 264.685C88.4782 264.945 87.8732 265.075 87.2032 265.075ZM96.2882 257.05C96.9282 257.05 97.4882 257.175 97.9682 257.425C98.4582 257.665 98.8382 258.035 99.1082 258.535C99.3882 259.035 99.5282 259.665 99.5282 260.425V265H98.4632V260.53C98.4632 259.7 98.2532 259.075 97.8332 258.655C97.4232 258.225 96.8432 258.01 96.0932 258.01C95.5332 258.01 95.0432 258.125 94.6232 258.355C94.2132 258.575 93.8932 258.9 93.6632 259.33C93.4432 259.75 93.3332 260.26 93.3332 260.86V265H92.2682V253.87H93.3332V259.285L93.1232 258.88C93.3732 258.31 93.7732 257.865 94.3232 257.545C94.8732 257.215 95.5282 257.05 96.2882 257.05ZM105.615 265.075C104.855 265.075 104.17 264.905 103.56 264.565C102.96 264.215 102.485 263.74 102.135 263.14C101.785 262.53 101.61 261.835 101.61 261.055C101.61 260.265 101.785 259.57 102.135 258.97C102.485 258.37 102.96 257.9 103.56 257.56C104.16 257.22 104.845 257.05 105.615 257.05C106.395 257.05 107.085 257.22 107.685 257.56C108.295 257.9 108.77 258.37 109.11 258.97C109.46 259.57 109.635 260.265 109.635 261.055C109.635 261.835 109.46 262.53 109.11 263.14C108.77 263.74 108.295 264.215 107.685 264.565C107.075 264.905 106.385 265.075 105.615 265.075ZM105.615 264.13C106.185 264.13 106.69 264.005 107.13 263.755C107.57 263.495 107.915 263.135 108.165 262.675C108.425 262.205 108.555 261.665 108.555 261.055C108.555 260.435 108.425 259.895 108.165 259.435C107.915 258.975 107.57 258.62 107.13 258.37C106.69 258.11 106.19 257.98 105.63 257.98C105.07 257.98 104.57 258.11 104.13 258.37C103.69 258.62 103.34 258.975 103.08 259.435C102.82 259.895 102.69 260.435 102.69 261.055C102.69 261.665 102.82 262.205 103.08 262.675C103.34 263.135 103.69 263.495 104.13 263.755C104.57 264.005 105.065 264.13 105.615 264.13ZM111.809 265V257.125H112.874V265H111.809ZM112.349 255.385C112.129 255.385 111.944 255.31 111.794 255.16C111.644 255.01 111.569 254.83 111.569 254.62C111.569 254.41 111.644 254.235 111.794 254.095C111.944 253.945 112.129 253.87 112.349 253.87C112.569 253.87 112.754 253.94 112.904 254.08C113.054 254.22 113.129 254.395 113.129 254.605C113.129 254.825 113.054 255.01 112.904 255.16C112.764 255.31 112.579 255.385 112.349 255.385ZM119.108 265.075C118.328 265.075 117.628 264.905 117.008 264.565C116.398 264.215 115.918 263.74 115.568 263.14C115.218 262.53 115.043 261.835 115.043 261.055C115.043 260.265 115.218 259.57 115.568 258.97C115.918 258.37 116.398 257.9 117.008 257.56C117.628 257.22 118.328 257.05 119.108 257.05C119.778 257.05 120.383 257.18 120.923 257.44C121.463 257.7 121.888 258.09 122.198 258.61L121.403 259.15C121.133 258.75 120.798 258.455 120.398 258.265C119.998 258.075 119.563 257.98 119.093 257.98C118.533 257.98 118.028 258.11 117.578 258.37C117.128 258.62 116.773 258.975 116.513 259.435C116.253 259.895 116.123 260.435 116.123 261.055C116.123 261.675 116.253 262.215 116.513 262.675C116.773 263.135 117.128 263.495 117.578 263.755C118.028 264.005 118.533 264.13 119.093 264.13C119.563 264.13 119.998 264.035 120.398 263.845C120.798 263.655 121.133 263.365 121.403 262.975L122.198 263.515C121.888 264.025 121.463 264.415 120.923 264.685C120.383 264.945 119.778 265.075 119.108 265.075ZM127.503 265.075C126.683 265.075 125.963 264.905 125.343 264.565C124.723 264.215 124.238 263.74 123.888 263.14C123.538 262.53 123.363 261.835 123.363 261.055C123.363 260.275 123.528 259.585 123.858 258.985C124.198 258.385 124.658 257.915 125.238 257.575C125.828 257.225 126.488 257.05 127.218 257.05C127.958 257.05 128.613 257.22 129.183 257.56C129.763 257.89 130.218 258.36 130.548 258.97C130.878 259.57 131.043 260.265 131.043 261.055C131.043 261.105 131.038 261.16 131.028 261.22C131.028 261.27 131.028 261.325 131.028 261.385H124.173V260.59H130.458L130.038 260.905C130.038 260.335 129.913 259.83 129.663 259.39C129.423 258.94 129.093 258.59 128.673 258.34C128.253 258.09 127.768 257.965 127.218 257.965C126.678 257.965 126.193 258.09 125.763 258.34C125.333 258.59 124.998 258.94 124.758 259.39C124.518 259.84 124.398 260.355 124.398 260.935V261.1C124.398 261.7 124.528 262.23 124.788 262.69C125.058 263.14 125.428 263.495 125.898 263.755C126.378 264.005 126.923 264.13 127.533 264.13C128.013 264.13 128.458 264.045 128.868 263.875C129.288 263.705 129.648 263.445 129.948 263.095L130.548 263.785C130.198 264.205 129.758 264.525 129.228 264.745C128.708 264.965 128.133 265.075 127.503 265.075ZM133.316 265.075C133.096 265.075 132.906 264.995 132.746 264.835C132.596 264.675 132.521 264.48 132.521 264.25C132.521 264.01 132.596 263.815 132.746 263.665C132.906 263.515 133.096 263.44 133.316 263.44C133.536 263.44 133.721 263.515 133.871 263.665C134.031 263.815 134.111 264.01 134.111 264.25C134.111 264.48 134.031 264.675 133.871 264.835C133.721 264.995 133.536 265.075 133.316 265.075Z" fill="#434343"/>
<g clip-path="url(#clip1_87_599)">
<g filter="url(#filter1_d_87_599)">
<path d="M188.676 66.3621C187.447 65.0966 186.179 63.7897 185.764 62.8C185.394 61.9172 185.366 60.1 185.341 58.5C185.289 55.0517 185.223 50.7621 182.136 47.7172C179.05 44.6724 174.71 44.6138 171.219 44.5517C169.599 44.5276 167.759 44.5 166.865 44.1345C165.863 43.7241 164.54 42.4724 163.258 41.2586C160.787 38.9172 157.707 36 153.5 36C149.293 36 146.213 38.9172 143.742 41.2586C142.46 42.4724 141.137 43.7241 140.135 44.1345C139.241 44.5 137.401 44.5276 135.781 44.5517C132.29 44.6207 127.947 44.669 124.871 47.7241C121.795 50.7793 121.728 55.0517 121.659 58.5C121.634 60.1 121.606 61.9172 121.236 62.8C120.821 63.7897 119.553 65.0966 118.324 66.3621C115.954 68.8034 113 71.8621 113 76C113 80.1379 115.954 83.1966 118.324 85.6552C119.553 86.9207 120.821 88.2276 121.236 89.2172C121.606 90.1 121.634 91.9172 121.659 93.5172C121.711 96.9655 121.777 101.255 124.864 104.3C127.95 107.345 132.29 107.403 135.781 107.466C137.401 107.49 139.241 107.517 140.135 107.883C141.137 108.293 142.46 109.545 143.742 110.759C146.213 113.083 149.31 116 153.5 116C157.69 116 160.787 113.083 163.258 110.741C164.54 109.528 165.863 108.276 166.865 107.866C167.759 107.5 169.599 107.472 171.219 107.448C174.71 107.397 179.053 107.331 182.136 104.283C185.219 101.234 185.279 96.9483 185.341 93.5C185.366 91.9 185.394 90.0828 185.764 89.2C186.179 88.2103 187.447 86.9034 188.676 85.6379C191.046 83.1966 194 80.1552 194 76C194 71.8448 191.046 68.8034 188.676 66.3621ZM182.629 79.9103C180.946 81.6345 179.039 83.6069 178.023 86.0345C177.039 88.3793 177 90.9172 176.976 93.3759C176.948 95.2241 176.91 97.7586 176.225 98.431C175.541 99.1035 172.978 99.1448 171.107 99.1724C168.618 99.2103 166.048 99.2483 163.674 100.207C161.23 101.21 159.229 103.093 157.473 104.755C156.216 105.945 154.338 107.724 153.5 107.724C152.662 107.724 150.784 105.945 149.541 104.769C147.795 103.107 145.798 101.224 143.34 100.221C140.966 99.2483 138.396 99.2103 135.907 99.1862C134.036 99.1586 131.469 99.1207 130.789 98.4448C130.108 97.769 130.066 95.2379 130.038 93.3897C130 90.931 129.961 88.3931 128.991 86.0483C127.975 83.6345 126.068 81.6586 124.385 79.9241C123.181 78.6828 121.379 76.8276 121.379 76C121.379 75.1724 123.181 73.3172 124.371 72.0897C126.054 70.3655 127.961 68.3931 128.977 65.9655C129.961 63.6207 130 61.0828 130.024 58.6241C130.066 56.7759 130.108 54.2414 130.806 53.5862C131.504 52.931 134.053 52.8724 135.924 52.8448C138.414 52.8069 140.983 52.769 143.358 51.8103C145.802 50.8069 147.802 48.9241 149.558 47.2621C150.784 46.0552 152.662 44.2759 153.5 44.2759C154.338 44.2759 156.216 46.0552 157.459 47.231C159.205 48.8931 161.202 50.7759 163.66 51.7793C166.034 52.7517 168.604 52.7897 171.093 52.8138C172.964 52.8414 175.531 52.8793 176.211 53.5552C176.892 54.231 176.934 56.7621 176.962 58.6103C177 61.069 177.039 63.6069 178.009 65.9517C179.025 68.3655 180.932 70.3414 182.615 72.0759C183.805 73.3034 185.607 75.1586 185.607 75.9862C185.607 76.8138 183.819 78.6828 182.629 79.9103ZM159.086 93.931C159.086 95.0222 158.759 96.0889 158.145 96.9963C157.531 97.9036 156.658 98.6107 155.638 99.0283C154.617 99.4459 153.494 99.5551 152.41 99.3423C151.327 99.1294 150.331 98.6039 149.55 97.8323C148.769 97.0607 148.237 96.0776 148.021 95.0074C147.806 93.9372 147.916 92.8278 148.339 91.8197C148.762 90.8115 149.478 89.9499 150.396 89.3436C151.315 88.7374 152.395 88.4138 153.5 88.4138C154.982 88.4138 156.402 88.9951 157.45 90.0298C158.498 91.0644 159.086 92.4678 159.086 93.931ZM168.862 69.1034C168.862 75.4379 164.082 80.7862 157.595 82.4C157.377 83.3993 156.792 84.2835 155.953 84.8819C155.114 85.4804 154.08 85.7509 153.051 85.6413C152.021 85.5316 151.07 85.0496 150.379 84.2881C149.689 83.5266 149.308 82.5396 149.31 81.5172V78.7586C149.31 77.6612 149.752 76.6087 150.537 75.8327C151.323 75.0566 152.389 74.6207 153.5 74.6207C157.341 74.6207 160.483 72.1448 160.483 69.1034C160.483 66.0621 157.341 63.5862 153.5 63.5862C149.659 63.5862 146.517 66.0621 146.517 69.1034V70.4828C146.517 71.5802 146.076 72.6327 145.29 73.4087C144.504 74.1847 143.439 74.6207 142.328 74.6207C141.216 74.6207 140.151 74.1847 139.365 73.4087C138.579 72.6327 138.138 71.5802 138.138 70.4828V69.1034C138.138 61.4966 145.03 55.3103 153.5 55.3103C161.97 55.3103 168.862 61.4966 168.862 69.1034Z" fill="#FFD863"/>
<path d="M185.303 62.9935L185.303 62.9933C185.083 62.4698 184.981 61.7221 184.924 60.9557C184.867 60.1757 184.854 59.3086 184.842 58.5135L184.841 58.5076C184.789 55.0228 184.704 50.9526 181.785 48.0732C178.864 45.1912 174.741 45.1144 171.21 45.0517C171.21 45.0517 171.21 45.0516 171.21 45.0516L171.206 45.0516C170.4 45.0396 169.523 45.0265 168.734 44.9698C167.958 44.9141 167.203 44.813 166.676 44.5973L166.676 44.5972C166.099 44.361 165.468 43.9023 164.845 43.3812C164.215 42.8536 163.553 42.2261 162.915 41.6216M185.303 62.9935L162.915 41.6216M185.303 62.9935C185.543 63.565 186.008 64.1888 186.535 64.8032C187.07 65.4257 187.705 66.0802 188.317 66.7104C190.716 69.1811 193.5 72.08 193.5 76C193.5 79.92 190.716 82.8189 188.317 85.2896C187.705 85.9198 187.07 86.5743 186.535 87.1968C186.008 87.8112 185.543 88.435 185.303 89.0065L185.303 89.0067C185.083 89.5302 184.981 90.2779 184.924 91.0443C184.867 91.8243 184.854 92.6914 184.842 93.4865L184.841 93.4909C184.778 96.9778 184.701 101.044 181.785 103.927C178.867 106.812 174.74 106.896 171.211 106.948L171.206 106.948C170.401 106.96 169.523 106.973 168.734 107.03C167.958 107.086 167.203 107.187 166.676 107.403L166.676 107.403C166.099 107.639 165.468 108.098 164.845 108.619C164.215 109.146 163.553 109.774 162.915 110.378C160.416 112.745 157.46 115.5 153.5 115.5C149.54 115.5 146.585 112.746 144.085 110.395C143.447 109.791 142.784 109.163 142.155 108.636C141.532 108.115 140.901 107.656 140.324 107.42L140.324 107.42C139.797 107.204 139.042 107.103 138.266 107.047C137.477 106.991 136.599 106.978 135.794 106.966L135.79 106.966C132.259 106.903 128.136 106.826 125.215 103.944C122.296 101.065 122.211 96.9944 122.159 93.5097L122.159 93.5096L122.158 93.5037C122.146 92.7086 122.133 91.8415 122.076 91.0616C122.019 90.2952 121.917 89.5474 121.697 89.0239L121.697 89.0237C121.457 88.4523 120.992 87.8284 120.465 87.214C119.931 86.5918 119.296 85.9376 118.684 85.3077C116.284 82.8189 113.5 79.9033 113.5 76C113.5 72.097 116.284 69.1806 118.683 66.7104C119.295 66.0802 119.93 65.4257 120.465 64.8032C120.992 64.1888 121.457 63.565 121.697 62.9935L121.697 62.9933C121.917 62.4698 122.019 61.7221 122.076 60.9557C122.133 60.1757 122.146 59.3086 122.158 58.5136L122.159 58.5101C122.159 58.5097 122.159 58.5094 122.159 58.509C122.229 55.0228 122.313 50.9692 125.223 48.0789C128.118 45.203 132.214 45.1222 135.736 45.0527L135.789 45.0517L135.791 45.0516L135.794 45.0516C136.6 45.0396 137.477 45.0265 138.266 44.9698C139.042 44.9141 139.797 44.813 140.324 44.5973L140.324 44.5972M185.303 62.9935L140.324 44.5972M162.915 41.6216C160.415 39.2542 157.477 36.5 153.5 36.5C149.523 36.5 146.585 39.2542 144.085 41.6216M162.915 41.6216H144.085M144.085 41.6216C143.447 42.2261 142.785 42.8536 142.155 43.3812M144.085 41.6216L142.155 43.3812M140.324 44.5972C140.901 44.361 141.532 43.9023 142.155 43.3812M140.324 44.5972L142.155 43.3812M182.988 80.2584L182.986 80.2596C181.293 81.9944 179.458 83.9018 178.485 86.2275L178.484 86.2281C177.544 88.4683 177.501 90.9077 177.476 93.3808L177.476 93.3834L177.476 93.3942C177.462 94.3112 177.445 95.4251 177.344 96.3961C177.293 96.8835 177.22 97.352 177.109 97.7512C177.003 98.135 176.843 98.5249 176.576 98.7877C176.31 99.0488 175.918 99.2047 175.531 99.3093C175.128 99.4182 174.655 99.4907 174.162 99.541C173.176 99.6414 172.046 99.6586 171.115 99.6724L182.988 80.2584ZM182.988 80.2584C183.581 79.6462 184.34 78.8581 184.95 78.1159C185.255 77.7453 185.533 77.3741 185.738 77.0328C185.929 76.7131 186.107 76.3395 186.107 75.9862C186.107 75.6315 185.927 75.2581 185.734 74.9396C185.528 74.5996 185.248 74.2301 184.942 73.8614C184.334 73.13 183.58 72.3528 182.99 71.7446L182.974 71.7278L182.973 71.7277C181.28 69.9819 179.445 68.0714 178.471 65.7591C177.543 63.5174 177.501 61.0778 177.462 58.6028M182.988 80.2584L143.358 51.8103M149.197 105.132L149.196 105.131C147.44 103.459 145.508 101.646 143.151 100.684L143.151 100.683C140.879 99.753 138.406 99.7105 135.902 99.6862L135.9 99.6862L135.889 99.686C134.96 99.6723 133.833 99.6557 132.851 99.5561C132.358 99.5061 131.885 99.4337 131.482 99.3245C131.095 99.2197 130.702 99.063 130.436 98.7997C130.171 98.5365 130.013 98.1471 129.906 97.7633C129.796 97.3642 129.722 96.896 129.671 96.4088C129.569 95.4345 129.552 94.3169 129.538 93.3975C129.499 90.9223 129.457 88.4826 128.529 86.2409C127.555 83.9286 125.72 82.0181 124.027 80.2723L124.014 80.2592C123.416 79.6436 122.657 78.8613 122.046 78.1267C121.739 77.7571 121.458 77.3871 121.252 77.0469C121.059 76.7282 120.879 76.3547 120.879 76C120.879 75.6453 121.059 75.2718 121.252 74.9534C121.458 74.6134 121.738 74.2439 122.044 73.8752C122.652 73.1439 123.406 72.3667 123.996 71.7585L124.012 71.7416L124.014 71.7404C125.707 70.0056 127.542 68.0982 128.515 65.7725L128.516 65.7719C129.456 63.5317 129.499 61.0923 129.524 58.6192L129.524 58.6128L129.524 58.6128C129.525 58.5707 129.526 58.5281 129.527 58.4852C129.547 57.5931 129.571 56.5314 129.672 55.6037C129.725 55.1173 129.801 54.6497 129.914 54.2521C130.024 53.8702 130.188 53.4805 130.464 53.2216C130.731 52.9707 131.121 52.8184 131.508 52.7148C131.91 52.6072 132.382 52.5342 132.873 52.4829C133.857 52.3802 134.984 52.3586 135.917 52.3449M149.197 105.132L135.934 52.8447C138.421 52.8068 140.987 52.7677 143.358 51.8103M149.197 105.132L149.214 105.148C149.83 105.731 150.617 106.475 151.357 107.076C151.731 107.379 152.104 107.655 152.448 107.858C152.771 108.049 153.146 108.224 153.5 108.224C153.854 108.224 154.229 108.049 154.552 107.858C154.896 107.655 155.27 107.378 155.645 107.074C156.388 106.471 157.18 105.721 157.804 105.131L157.817 105.118C159.584 103.446 161.519 101.633 163.862 100.67M149.197 105.132L163.862 100.67M135.917 52.3449L135.924 52.8448L135.917 52.3449C135.917 52.3449 135.917 52.3449 135.917 52.3449ZM135.917 52.3449C138.423 52.3067 140.896 52.2646 143.169 51.3472M143.169 51.3472C143.169 51.3474 143.168 51.3476 143.168 51.3478L143.358 51.8103M143.169 51.3472C143.17 51.347 143.17 51.3469 143.17 51.3467L143.358 51.8103M143.169 51.3472C145.511 50.3853 147.445 48.5737 149.211 46.9023C149.824 46.2986 150.612 45.5398 151.358 44.9295C151.73 44.6243 152.104 44.3466 152.448 44.1427C152.771 43.9511 153.146 43.7759 153.5 43.7759C153.854 43.7759 154.229 43.951 154.552 44.1418C154.896 44.345 155.269 44.6214 155.643 44.9242C156.383 45.5246 157.17 46.269 157.786 46.8516L157.803 46.8678L157.804 46.8689C159.56 48.5407 161.492 50.3542 163.849 51.3164L163.849 51.3166C166.121 52.247 168.594 52.2895 171.098 52.3138L171.1 52.3138L171.111 52.314C172.04 52.3277 173.167 52.3443 174.149 52.4439C174.642 52.4939 175.115 52.5663 175.518 52.6755C175.905 52.7803 176.298 52.937 176.564 53.2003C176.829 53.4635 176.987 53.8529 177.094 54.2367C177.204 54.6358 177.278 55.104 177.329 55.5912C177.431 56.5656 177.448 57.6833 177.462 58.6028M177.462 58.6028L176.962 58.6103L177.462 58.6025C177.462 58.6026 177.462 58.6027 177.462 58.6028ZM163.862 100.67C166.135 99.7526 168.608 99.7105 171.114 99.6724L163.862 100.67ZM157.475 81.9148L157.173 81.9898L157.107 82.2933C156.915 83.1703 156.401 83.9478 155.662 84.4749C154.923 85.002 154.012 85.2409 153.104 85.1441C152.196 85.0473 151.357 84.6221 150.75 83.9522C150.142 83.2824 149.808 82.4154 149.81 81.5185V81.5172V78.7586C149.81 77.7958 150.198 76.8711 150.889 76.1884C151.58 75.5055 152.519 75.1207 153.5 75.1207C157.5 75.1207 160.983 72.5247 160.983 69.1034C160.983 65.6822 157.5 63.0862 153.5 63.0862C149.5 63.0862 146.017 65.6822 146.017 69.1034V70.4828C146.017 71.4456 145.63 72.3702 144.939 73.053C144.247 73.7359 143.308 74.1207 142.328 74.1207C141.347 74.1207 140.408 73.7359 139.716 73.053C139.025 72.3702 138.638 71.4456 138.638 70.4828V69.1034C138.638 61.822 145.254 55.8103 153.5 55.8103C161.746 55.8103 168.362 61.822 168.362 69.1034C168.362 75.1696 163.779 80.3465 157.475 81.9148ZM158.586 93.931C158.586 94.922 158.289 95.8912 157.731 96.7161C157.172 97.5411 156.379 98.185 155.448 98.5655C154.518 98.9461 153.494 99.0457 152.507 98.8516C151.519 98.6576 150.612 98.1787 149.901 97.4766C149.19 96.7745 148.707 95.8807 148.511 94.9087C148.316 93.9367 148.416 92.9291 148.8 92.0131C149.184 91.097 149.835 90.313 150.672 89.7609C151.508 89.2088 152.493 88.9138 153.5 88.9138C154.851 88.9138 156.145 89.4439 157.099 90.3855C158.052 91.3269 158.586 92.6024 158.586 93.931Z" stroke="#DCB84C"/>
</g>
</g>
</g>
<defs>
<filter id="filter0_di_87_599" x="-4" y="0" width="314" height="342" filterUnits="userSpaceOnUse" color-interpolation-filters="sRGB">
<feFlood flood-opacity="0" result="BackgroundImageFix"/>
<feColorMatrix in="SourceAlpha" type="matrix" values="0 0 0 0 0 0 0 0 0 0 0 0 0 0 0 0 0 0 127 0" result="hardAlpha"/>
<feOffset dy="4"/>
<feGaussianBlur stdDeviation="2"/>
<feComposite in2="hardAlpha" operator="out"/>
<feColorMatrix type="matrix" values="0 0 0 0 0 0 0 0 0 0 0 0 0 0 0 0 0 0 0.25 0"/>
<feBlend mode="normal" in2="BackgroundImageFix" result="effect1_dropShadow_87_599"/>
<feBlend mode="normal" in="SourceGraphic" in2="effect1_dropShadow_87_599" result="shape"/>
<feColorMatrix in="SourceAlpha" type="matrix" values="0 0 0 0 0 0 0 0 0 0 0 0 0 0 0 0 0 0 127 0" result="hardAlpha"/>
<feOffset dy="10"/>
<feGaussianBlur stdDeviation="3"/>
<feComposite in2="hardAlpha" operator="arithmetic" k2="-1" k3="1"/>
<feColorMatrix type="matrix" values="0 0 0 0 0 0 0 0 0 0 0 0 0 0 0 0 0 0 0.25 0"/>
<feBlend mode="normal" in2="shape" result="effect2_innerShadow_87_599"/>
</filter>
<filter id="filter1_d_87_599" x="109" y="36" width="89" height="88" filterUnits="userSpaceOnUse" color-interpolation-filters="sRGB">
<feFlood flood-opacity="0" result="BackgroundImageFix"/>
<feColorMatrix in="SourceAlpha" type="matrix" values="0 0 0 0 0 0 0 0 0 0 0 0 0 0 0 0 0 0 127 0" result="hardAlpha"/>
<feOffset dy="4"/>
<feGaussianBlur stdDeviation="2"/>
<feComposite in2="hardAlpha" operator="out"/>
<feColorMatrix type="matrix" values="0 0 0 0 0 0 0 0 0 0 0 0 0 0 0 0 0 0 0.25 0"/>
<feBlend mode="normal" in2="BackgroundImageFix" result="effect1_dropShadow_87_599"/>
<feBlend mode="normal" in="SourceGraphic" in2="effect1_dropShadow_87_599" result="shape"/>
</filter>
<clipPath id="clip0_87_599">
<rect width="194" height="334" fill="white"/>
</clipPath>
<clipPath id="clip1_87_599">
<rect width="91" height="92" fill="white" transform="translate(108 29)"/>
</clipPath>
</defs>
</svg>
