<svg width="314" height="342" viewBox="0 0 314 342" fill="none" xmlns="http://www.w3.org/2000/svg">
<g filter="url(#filter0_di_87_645)">
<rect x="4" width="306" height="334" rx="29" fill="#D9D9D9"/>
</g>
<g filter="url(#filter1_d_87_645)">
<path d="M180.034 58.6047L207 70.5648V103.04L180.034 115L153.021 103.123V89.7924L138.013 96.3954L111 84.5183L111.047 51.9601L138.013 40L164.979 51.9601L165.026 65.2907L180.034 58.6047ZM197.292 72.1844L180.034 64.5847L162.775 72.1844L180.034 79.8256L197.292 72.1844ZM155.272 53.5797L138.013 45.9801L120.755 53.5797L138.013 61.2209L155.272 53.5797ZM117.05 57.8987L117.003 81.196L135.012 89.1279V65.8306L117.05 57.8987ZM141.015 89.1279L153.067 83.8538V70.5648L159.023 67.9485L158.977 57.8987L141.015 65.8306V89.1279ZM159.07 76.5033L159.023 99.8007L177.032 107.733V84.4352L159.07 76.5033ZM183.035 107.733L200.997 99.7591V76.5033L183.035 84.4352V107.733Z" fill="#FFD863"/>
<path d="M152.819 89.3347L138.013 95.8491L111.5 84.1921L111.546 52.2856L138.013 40.547L164.481 52.2858L164.526 65.2925L164.529 66.0596L165.23 65.7474L180.034 59.1518L206.5 70.89V102.715L180.033 114.453L153.521 102.797V89.7924V89.0261L152.819 89.3347ZM197.495 72.6416L198.53 72.1831L197.494 71.7268L180.235 64.1271L180.034 64.0384L179.832 64.1271L162.574 71.7268L161.537 72.1831L162.573 72.6416L179.831 80.2828L180.034 80.3724L180.236 80.2828L197.495 72.6416ZM155.474 54.0369L156.509 53.5785L155.473 53.1221L138.215 45.5225L138.013 45.4337L137.812 45.5225L120.553 53.1221L119.517 53.5785L120.552 54.0369L137.811 61.6781L138.013 61.7677L138.216 61.6781L155.474 54.0369ZM117.252 57.4413L116.551 57.132L116.55 57.8977L116.503 81.195L116.502 81.5219L116.801 81.6536L134.81 89.5855L135.512 89.8945V89.1279V65.8306V65.5048L135.214 65.3732L117.252 57.4413ZM140.515 89.1279V89.8925L141.215 89.586L153.268 84.3119L153.567 84.1808V83.8538V70.8913L159.225 68.4063L159.525 68.2743L159.523 67.9462L159.477 57.8963L159.473 57.1329L158.775 57.4413L140.813 65.3732L140.515 65.5048V65.8306V89.1279ZM159.272 76.0459L158.572 75.7366L158.57 76.5023L158.523 99.7997L158.523 100.127L158.822 100.258L176.831 108.19L177.532 108.499V107.733V84.4352V84.1094L177.234 83.9778L159.272 76.0459ZM182.535 107.733V108.502L183.238 108.19L201.2 100.216L201.497 100.084V99.7591V76.5033V75.7359L200.795 76.0459L182.833 83.9778L182.535 84.1094V84.4352V107.733Z" stroke="#DCB84C"/>
</g>
<path d="M18.7 223.585H24.25V224.545H18.7V223.585ZM18.82 229H17.71V218.5H24.91V219.46H18.82V229ZM29.9685 229.075C29.2985 229.075 28.7135 228.95 28.2135 228.7C27.7135 228.45 27.3235 228.075 27.0435 227.575C26.7735 227.075 26.6385 226.45 26.6385 225.7V221.125H27.7035V225.58C27.7035 226.42 27.9085 227.055 28.3185 227.485C28.7385 227.905 29.3235 228.115 30.0735 228.115C30.6235 228.115 31.0985 228.005 31.4985 227.785C31.9085 227.555 32.2185 227.225 32.4285 226.795C32.6485 226.365 32.7585 225.85 32.7585 225.25V221.125H33.8235V229H32.8035V226.84L32.9685 227.23C32.7185 227.81 32.3285 228.265 31.7985 228.595C31.2785 228.915 30.6685 229.075 29.9685 229.075ZM36.7916 229V217.87H37.8566V229H36.7916ZM40.82 229V217.87H41.885V229H40.82ZM52.0441 229.075C51.2641 229.075 50.5641 228.905 49.9441 228.565C49.3341 228.215 48.8541 227.74 48.5041 227.14C48.1541 226.53 47.9791 225.835 47.9791 225.055C47.9791 224.265 48.1541 223.57 48.5041 222.97C48.8541 222.37 49.3341 221.9 49.9441 221.56C50.5641 221.22 51.2641 221.05 52.0441 221.05C52.7141 221.05 53.3191 221.18 53.8591 221.44C54.3991 221.7 54.8241 222.09 55.1341 222.61L54.3391 223.15C54.0691 222.75 53.7341 222.455 53.3341 222.265C52.9341 222.075 52.4991 221.98 52.0291 221.98C51.4691 221.98 50.9641 222.11 50.5141 222.37C50.0641 222.62 49.7091 222.975 49.4491 223.435C49.1891 223.895 49.0591 224.435 49.0591 225.055C49.0591 225.675 49.1891 226.215 49.4491 226.675C49.7091 227.135 50.0641 227.495 50.5141 227.755C50.9641 228.005 51.4691 228.13 52.0291 228.13C52.4991 228.13 52.9341 228.035 53.3341 227.845C53.7341 227.655 54.0691 227.365 54.3391 226.975L55.1341 227.515C54.8241 228.025 54.3991 228.415 53.8591 228.685C53.3191 228.945 52.7141 229.075 52.0441 229.075ZM60.4812 229.075C59.8112 229.075 59.2262 228.95 58.7262 228.7C58.2262 228.45 57.8362 228.075 57.5562 227.575C57.2862 227.075 57.1512 226.45 57.1512 225.7V221.125H58.2162V225.58C58.2162 226.42 58.4212 227.055 58.8312 227.485C59.2512 227.905 59.8362 228.115 60.5862 228.115C61.1362 228.115 61.6112 228.005 62.0112 227.785C62.4212 227.555 62.7312 227.225 62.9412 226.795C63.1612 226.365 63.2712 225.85 63.2712 225.25V221.125H64.3362V229H63.3162V226.84L63.4812 227.23C63.2312 227.81 62.8412 228.265 62.3112 228.595C61.7912 228.915 61.1812 229.075 60.4812 229.075ZM69.4193 229.075C68.7693 229.075 68.1543 228.985 67.5743 228.805C66.9943 228.615 66.5393 228.38 66.2093 228.1L66.6893 227.26C67.0093 227.5 67.4193 227.71 67.9193 227.89C68.4193 228.06 68.9443 228.145 69.4943 228.145C70.2443 228.145 70.7843 228.03 71.1143 227.8C71.4443 227.56 71.6093 227.245 71.6093 226.855C71.6093 226.565 71.5143 226.34 71.3243 226.18C71.1443 226.01 70.9043 225.885 70.6043 225.805C70.3043 225.715 69.9693 225.64 69.5993 225.58C69.2293 225.52 68.8593 225.45 68.4893 225.37C68.1293 225.29 67.7993 225.175 67.4993 225.025C67.1993 224.865 66.9543 224.65 66.7643 224.38C66.5843 224.11 66.4943 223.75 66.4943 223.3C66.4943 222.87 66.6143 222.485 66.8543 222.145C67.0943 221.805 67.4443 221.54 67.9043 221.35C68.3743 221.15 68.9443 221.05 69.6143 221.05C70.1243 221.05 70.6343 221.12 71.1443 221.26C71.6543 221.39 72.0743 221.565 72.4043 221.785L71.9393 222.64C71.5893 222.4 71.2143 222.23 70.8143 222.13C70.4143 222.02 70.0143 221.965 69.6143 221.965C68.9043 221.965 68.3793 222.09 68.0393 222.34C67.7093 222.58 67.5443 222.89 67.5443 223.27C67.5443 223.57 67.6343 223.805 67.8143 223.975C68.0043 224.145 68.2493 224.28 68.5493 224.38C68.8593 224.47 69.1943 224.545 69.5543 224.605C69.9243 224.665 70.2893 224.74 70.6493 224.83C71.0193 224.91 71.3543 225.025 71.6543 225.175C71.9643 225.315 72.2093 225.52 72.3893 225.79C72.5793 226.05 72.6743 226.395 72.6743 226.825C72.6743 227.285 72.5443 227.685 72.2843 228.025C72.0343 228.355 71.6643 228.615 71.1743 228.805C70.6943 228.985 70.1093 229.075 69.4193 229.075ZM77.1186 229.075C76.3786 229.075 75.8086 228.875 75.4086 228.475C75.0086 228.075 74.8086 227.51 74.8086 226.78V219.385H75.8736V226.72C75.8736 227.18 75.9886 227.535 76.2186 227.785C76.4586 228.035 76.7986 228.16 77.2386 228.16C77.7086 228.16 78.0986 228.025 78.4086 227.755L78.7836 228.52C78.5736 228.71 78.3186 228.85 78.0186 228.94C77.7286 229.03 77.4286 229.075 77.1186 229.075ZM73.3986 222.01V221.125H78.2736V222.01H73.3986ZM83.654 229.075C82.894 229.075 82.209 228.905 81.599 228.565C80.999 228.215 80.524 227.74 80.174 227.14C79.824 226.53 79.649 225.835 79.649 225.055C79.649 224.265 79.824 223.57 80.174 222.97C80.524 222.37 80.999 221.9 81.599 221.56C82.199 221.22 82.884 221.05 83.654 221.05C84.434 221.05 85.124 221.22 85.724 221.56C86.334 221.9 86.809 222.37 87.149 222.97C87.499 223.57 87.674 224.265 87.674 225.055C87.674 225.835 87.499 226.53 87.149 227.14C86.809 227.74 86.334 228.215 85.724 228.565C85.114 228.905 84.424 229.075 83.654 229.075ZM83.654 228.13C84.224 228.13 84.729 228.005 85.169 227.755C85.609 227.495 85.954 227.135 86.204 226.675C86.464 226.205 86.594 225.665 86.594 225.055C86.594 224.435 86.464 223.895 86.204 223.435C85.954 222.975 85.609 222.62 85.169 222.37C84.729 222.11 84.229 221.98 83.669 221.98C83.109 221.98 82.609 222.11 82.169 222.37C81.729 222.62 81.379 222.975 81.119 223.435C80.859 223.895 80.729 224.435 80.729 225.055C80.729 225.665 80.859 226.205 81.119 226.675C81.379 227.135 81.729 227.495 82.169 227.755C82.609 228.005 83.104 228.13 83.654 228.13ZM99.6883 221.05C100.328 221.05 100.883 221.175 101.353 221.425C101.833 221.665 102.203 222.035 102.463 222.535C102.733 223.035 102.868 223.665 102.868 224.425V229H101.803V224.53C101.803 223.7 101.603 223.075 101.203 222.655C100.813 222.225 100.258 222.01 99.5383 222.01C98.9983 222.01 98.5283 222.125 98.1283 222.355C97.7383 222.575 97.4333 222.9 97.2133 223.33C97.0033 223.75 96.8983 224.26 96.8983 224.86V229H95.8333V224.53C95.8333 223.7 95.6333 223.075 95.2333 222.655C94.8333 222.225 94.2733 222.01 93.5533 222.01C93.0233 222.01 92.5583 222.125 92.1583 222.355C91.7583 222.575 91.4483 222.9 91.2283 223.33C91.0183 223.75 90.9133 224.26 90.9133 224.86V229H89.8483V221.125H90.8683V223.255L90.7033 222.88C90.9433 222.31 91.3283 221.865 91.8583 221.545C92.3983 221.215 93.0333 221.05 93.7633 221.05C94.5333 221.05 95.1883 221.245 95.7283 221.635C96.2683 222.015 96.6183 222.59 96.7783 223.36L96.3583 223.195C96.5883 222.555 96.9933 222.04 97.5733 221.65C98.1633 221.25 98.8683 221.05 99.6883 221.05ZM105.756 229V221.125H106.821V229H105.756ZM106.296 219.385C106.076 219.385 105.891 219.31 105.741 219.16C105.591 219.01 105.516 218.83 105.516 218.62C105.516 218.41 105.591 218.235 105.741 218.095C105.891 217.945 106.076 217.87 106.296 217.87C106.516 217.87 106.701 217.94 106.851 218.08C107.001 218.22 107.076 218.395 107.076 218.605C107.076 218.825 107.001 219.01 106.851 219.16C106.711 219.31 106.526 219.385 106.296 219.385ZM108.93 229V228.295L114.18 221.65L114.405 222.01H109.02V221.125H115.245V221.815L110.01 228.475L109.74 228.115H115.35V229H108.93ZM122.381 229V227.26L122.336 226.975V224.065C122.336 223.395 122.146 222.88 121.766 222.52C121.396 222.16 120.841 221.98 120.101 221.98C119.591 221.98 119.106 222.065 118.646 222.235C118.186 222.405 117.796 222.63 117.476 222.91L116.996 222.115C117.396 221.775 117.876 221.515 118.436 221.335C118.996 221.145 119.586 221.05 120.206 221.05C121.226 221.05 122.011 221.305 122.561 221.815C123.121 222.315 123.401 223.08 123.401 224.11V229H122.381ZM119.666 229.075C119.076 229.075 118.561 228.98 118.121 228.79C117.691 228.59 117.361 228.32 117.131 227.98C116.901 227.63 116.786 227.23 116.786 226.78C116.786 226.37 116.881 226 117.071 225.67C117.271 225.33 117.591 225.06 118.031 224.86C118.481 224.65 119.081 224.545 119.831 224.545H122.546V225.34H119.861C119.101 225.34 118.571 225.475 118.271 225.745C117.981 226.015 117.836 226.35 117.836 226.75C117.836 227.2 118.011 227.56 118.361 227.83C118.711 228.1 119.201 228.235 119.831 228.235C120.431 228.235 120.946 228.1 121.376 227.83C121.816 227.55 122.136 227.15 122.336 226.63L122.576 227.365C122.376 227.885 122.026 228.3 121.526 228.61C121.036 228.92 120.416 229.075 119.666 229.075ZM128.784 229.075C128.044 229.075 127.474 228.875 127.074 228.475C126.674 228.075 126.474 227.51 126.474 226.78V219.385H127.539V226.72C127.539 227.18 127.654 227.535 127.884 227.785C128.124 228.035 128.464 228.16 128.904 228.16C129.374 228.16 129.764 228.025 130.074 227.755L130.449 228.52C130.239 228.71 129.984 228.85 129.684 228.94C129.394 229.03 129.094 229.075 128.784 229.075ZM125.064 222.01V221.125H129.939V222.01H125.064ZM132.387 229V221.125H133.452V229H132.387ZM132.927 219.385C132.707 219.385 132.522 219.31 132.372 219.16C132.222 219.01 132.147 218.83 132.147 218.62C132.147 218.41 132.222 218.235 132.372 218.095C132.522 217.945 132.707 217.87 132.927 217.87C133.147 217.87 133.332 217.94 133.482 218.08C133.632 218.22 133.707 218.395 133.707 218.605C133.707 218.825 133.632 219.01 133.482 219.16C133.342 219.31 133.157 219.385 132.927 219.385ZM139.626 229.075C138.866 229.075 138.181 228.905 137.571 228.565C136.971 228.215 136.496 227.74 136.146 227.14C135.796 226.53 135.621 225.835 135.621 225.055C135.621 224.265 135.796 223.57 136.146 222.97C136.496 222.37 136.971 221.9 137.571 221.56C138.171 221.22 138.856 221.05 139.626 221.05C140.406 221.05 141.096 221.22 141.696 221.56C142.306 221.9 142.781 222.37 143.121 222.97C143.471 223.57 143.646 224.265 143.646 225.055C143.646 225.835 143.471 226.53 143.121 227.14C142.781 227.74 142.306 228.215 141.696 228.565C141.086 228.905 140.396 229.075 139.626 229.075ZM139.626 228.13C140.196 228.13 140.701 228.005 141.141 227.755C141.581 227.495 141.926 227.135 142.176 226.675C142.436 226.205 142.566 225.665 142.566 225.055C142.566 224.435 142.436 223.895 142.176 223.435C141.926 222.975 141.581 222.62 141.141 222.37C140.701 222.11 140.201 221.98 139.641 221.98C139.081 221.98 138.581 222.11 138.141 222.37C137.701 222.62 137.351 222.975 137.091 223.435C136.831 223.895 136.701 224.435 136.701 225.055C136.701 225.665 136.831 226.205 137.091 226.675C137.351 227.135 137.701 227.495 138.141 227.755C138.581 228.005 139.076 228.13 139.626 228.13ZM149.84 221.05C150.48 221.05 151.04 221.175 151.52 221.425C152.01 221.665 152.39 222.035 152.66 222.535C152.94 223.035 153.08 223.665 153.08 224.425V229H152.015V224.53C152.015 223.7 151.805 223.075 151.385 222.655C150.975 222.225 150.395 222.01 149.645 222.01C149.085 222.01 148.595 222.125 148.175 222.355C147.765 222.575 147.445 222.9 147.215 223.33C146.995 223.75 146.885 224.26 146.885 224.86V229H145.82V221.125H146.84V223.285L146.675 222.88C146.925 222.31 147.325 221.865 147.875 221.545C148.425 221.215 149.08 221.05 149.84 221.05ZM156.062 222.685C155.842 222.685 155.652 222.605 155.492 222.445C155.342 222.285 155.267 222.09 155.267 221.86C155.267 221.62 155.342 221.425 155.492 221.275C155.652 221.125 155.842 221.05 156.062 221.05C156.282 221.05 156.467 221.125 156.617 221.275C156.777 221.425 156.857 221.62 156.857 221.86C156.857 222.09 156.777 222.285 156.617 222.445C156.467 222.605 156.282 222.685 156.062 222.685ZM156.062 229.075C155.842 229.075 155.652 228.995 155.492 228.835C155.342 228.675 155.267 228.48 155.267 228.25C155.267 228.01 155.342 227.815 155.492 227.665C155.652 227.515 155.842 227.44 156.062 227.44C156.282 227.44 156.467 227.515 156.617 227.665C156.777 227.815 156.857 228.01 156.857 228.25C156.857 228.48 156.777 228.675 156.617 228.835C156.467 228.995 156.282 229.075 156.062 229.075ZM164.276 223.195H169.826V224.14H164.276V223.195ZM164.396 228.04H170.711V229H163.286V218.5H170.486V219.46H164.396V228.04ZM176.113 229.075C175.363 229.075 174.688 228.905 174.088 228.565C173.498 228.225 173.033 227.755 172.693 227.155C172.353 226.545 172.183 225.845 172.183 225.055C172.183 224.255 172.353 223.555 172.693 222.955C173.033 222.355 173.498 221.89 174.088 221.56C174.688 221.22 175.363 221.05 176.113 221.05C176.803 221.05 177.418 221.205 177.958 221.515C178.508 221.825 178.943 222.28 179.263 222.88C179.593 223.47 179.758 224.195 179.758 225.055C179.758 225.905 179.598 226.63 179.278 227.23C178.958 227.83 178.523 228.29 177.973 228.61C177.433 228.92 176.813 229.075 176.113 229.075ZM176.188 228.13C176.748 228.13 177.248 228.005 177.688 227.755C178.138 227.495 178.488 227.135 178.738 226.675C178.998 226.205 179.128 225.665 179.128 225.055C179.128 224.435 178.998 223.895 178.738 223.435C178.488 222.975 178.138 222.62 177.688 222.37C177.248 222.11 176.748 221.98 176.188 221.98C175.638 221.98 175.143 222.11 174.703 222.37C174.263 222.62 173.913 222.975 173.653 223.435C173.393 223.895 173.263 224.435 173.263 225.055C173.263 225.665 173.393 226.205 173.653 226.675C173.913 227.135 174.263 227.495 174.703 227.755C175.143 228.005 175.638 228.13 176.188 228.13ZM179.158 229V226.63L179.263 225.04L179.113 223.45V217.87H180.178V229H179.158ZM183.144 229V221.125H184.209V229H183.144ZM183.684 219.385C183.464 219.385 183.279 219.31 183.129 219.16C182.979 219.01 182.904 218.83 182.904 218.62C182.904 218.41 182.979 218.235 183.129 218.095C183.279 217.945 183.464 217.87 183.684 217.87C183.904 217.87 184.089 217.94 184.239 218.08C184.389 218.22 184.464 218.395 184.464 218.605C184.464 218.825 184.389 219.01 184.239 219.16C184.099 219.31 183.914 219.385 183.684 219.385ZM189.663 229.075C188.923 229.075 188.353 228.875 187.953 228.475C187.553 228.075 187.353 227.51 187.353 226.78V219.385H188.418V226.72C188.418 227.18 188.533 227.535 188.763 227.785C189.003 228.035 189.343 228.16 189.783 228.16C190.253 228.16 190.643 228.025 190.953 227.755L191.328 228.52C191.118 228.71 190.863 228.85 190.563 228.94C190.273 229.03 189.973 229.075 189.663 229.075ZM185.943 222.01V221.125H190.818V222.01H185.943ZM192.768 231.19L193.428 228.415L193.548 229.06C193.318 229.06 193.123 228.985 192.963 228.835C192.813 228.685 192.738 228.49 192.738 228.25C192.738 228.01 192.813 227.815 192.963 227.665C193.123 227.515 193.313 227.44 193.533 227.44C193.763 227.44 193.948 227.52 194.088 227.68C194.238 227.84 194.313 228.03 194.313 228.25C194.313 228.33 194.308 228.41 194.298 228.49C194.288 228.57 194.268 228.66 194.238 228.76C194.208 228.86 194.168 228.98 194.118 229.12L193.488 231.19H192.768ZM200.517 229V221.125H201.537V223.27L201.432 222.895C201.652 222.295 202.022 221.84 202.542 221.53C203.062 221.21 203.707 221.05 204.477 221.05V222.085C204.437 222.085 204.397 222.085 204.357 222.085C204.317 222.075 204.277 222.07 204.237 222.07C203.407 222.07 202.757 222.325 202.287 222.835C201.817 223.335 201.582 224.05 201.582 224.98V229H200.517ZM209.692 229.075C208.872 229.075 208.152 228.905 207.532 228.565C206.912 228.215 206.427 227.74 206.077 227.14C205.727 226.53 205.552 225.835 205.552 225.055C205.552 224.275 205.717 223.585 206.047 222.985C206.387 222.385 206.847 221.915 207.427 221.575C208.017 221.225 208.677 221.05 209.407 221.05C210.147 221.05 210.802 221.22 211.372 221.56C211.952 221.89 212.407 222.36 212.737 222.97C213.067 223.57 213.232 224.265 213.232 225.055C213.232 225.105 213.227 225.16 213.217 225.22C213.217 225.27 213.217 225.325 213.217 225.385H206.362V224.59H212.647L212.227 224.905C212.227 224.335 212.102 223.83 211.852 223.39C211.612 222.94 211.282 222.59 210.862 222.34C210.442 222.09 209.957 221.965 209.407 221.965C208.867 221.965 208.382 222.09 207.952 222.34C207.522 222.59 207.187 222.94 206.947 223.39C206.707 223.84 206.587 224.355 206.587 224.935V225.1C206.587 225.7 206.717 226.23 206.977 226.69C207.247 227.14 207.617 227.495 208.087 227.755C208.567 228.005 209.112 228.13 209.722 228.13C210.202 228.13 210.647 228.045 211.057 227.875C211.477 227.705 211.837 227.445 212.137 227.095L212.737 227.785C212.387 228.205 211.947 228.525 211.417 228.745C210.897 228.965 210.322 229.075 209.692 229.075ZM225.24 221.05C225.88 221.05 226.435 221.175 226.905 221.425C227.385 221.665 227.755 222.035 228.015 222.535C228.285 223.035 228.42 223.665 228.42 224.425V229H227.355V224.53C227.355 223.7 227.155 223.075 226.755 222.655C226.365 222.225 225.81 222.01 225.09 222.01C224.55 222.01 224.08 222.125 223.68 222.355C223.29 222.575 222.985 222.9 222.765 223.33C222.555 223.75 222.45 224.26 222.45 224.86V229H221.385V224.53C221.385 223.7 221.185 223.075 220.785 222.655C220.385 222.225 219.825 222.01 219.105 222.01C218.575 222.01 218.11 222.125 217.71 222.355C217.31 222.575 217 222.9 216.78 223.33C216.57 223.75 216.465 224.26 216.465 224.86V229H215.4V221.125H216.42V223.255L216.255 222.88C216.495 222.31 216.88 221.865 217.41 221.545C217.95 221.215 218.585 221.05 219.315 221.05C220.085 221.05 220.74 221.245 221.28 221.635C221.82 222.015 222.17 222.59 222.33 223.36L221.91 223.195C222.14 222.555 222.545 222.04 223.125 221.65C223.715 221.25 224.42 221.05 225.24 221.05ZM234.518 229.075C233.758 229.075 233.073 228.905 232.463 228.565C231.863 228.215 231.388 227.74 231.038 227.14C230.688 226.53 230.513 225.835 230.513 225.055C230.513 224.265 230.688 223.57 231.038 222.97C231.388 222.37 231.863 221.9 232.463 221.56C233.063 221.22 233.748 221.05 234.518 221.05C235.298 221.05 235.988 221.22 236.588 221.56C237.198 221.9 237.673 222.37 238.013 222.97C238.363 223.57 238.538 224.265 238.538 225.055C238.538 225.835 238.363 226.53 238.013 227.14C237.673 227.74 237.198 228.215 236.588 228.565C235.978 228.905 235.288 229.075 234.518 229.075ZM234.518 228.13C235.088 228.13 235.593 228.005 236.033 227.755C236.473 227.495 236.818 227.135 237.068 226.675C237.328 226.205 237.458 225.665 237.458 225.055C237.458 224.435 237.328 223.895 237.068 223.435C236.818 222.975 236.473 222.62 236.033 222.37C235.593 222.11 235.093 221.98 234.533 221.98C233.973 221.98 233.473 222.11 233.033 222.37C232.593 222.62 232.243 222.975 231.983 223.435C231.723 223.895 231.593 224.435 231.593 225.055C231.593 225.665 231.723 226.205 231.983 226.675C232.243 227.135 232.593 227.495 233.033 227.755C233.473 228.005 233.968 228.13 234.518 228.13ZM242.518 229L239.023 221.125H240.133L243.343 228.43H242.818L246.073 221.125H247.123L243.613 229H242.518ZM251.748 229.075C250.928 229.075 250.208 228.905 249.588 228.565C248.968 228.215 248.483 227.74 248.133 227.14C247.783 226.53 247.608 225.835 247.608 225.055C247.608 224.275 247.773 223.585 248.103 222.985C248.443 222.385 248.903 221.915 249.483 221.575C250.073 221.225 250.733 221.05 251.463 221.05C252.203 221.05 252.858 221.22 253.428 221.56C254.008 221.89 254.463 222.36 254.793 222.97C255.123 223.57 255.288 224.265 255.288 225.055C255.288 225.105 255.283 225.16 255.273 225.22C255.273 225.27 255.273 225.325 255.273 225.385H248.418V224.59H254.703L254.283 224.905C254.283 224.335 254.158 223.83 253.908 223.39C253.668 222.94 253.338 222.59 252.918 222.34C252.498 222.09 252.013 221.965 251.463 221.965C250.923 221.965 250.438 222.09 250.008 222.34C249.578 222.59 249.243 222.94 249.003 223.39C248.763 223.84 248.643 224.355 248.643 224.935V225.1C248.643 225.7 248.773 226.23 249.033 226.69C249.303 227.14 249.673 227.495 250.143 227.755C250.623 228.005 251.168 228.13 251.778 228.13C252.258 228.13 252.703 228.045 253.113 227.875C253.533 227.705 253.893 227.445 254.193 227.095L254.793 227.785C254.443 228.205 254.003 228.525 253.473 228.745C252.953 228.965 252.378 229.075 251.748 229.075ZM256.811 231.19L257.471 228.415L257.591 229.06C257.361 229.06 257.166 228.985 257.006 228.835C256.856 228.685 256.781 228.49 256.781 228.25C256.781 228.01 256.856 227.815 257.006 227.665C257.166 227.515 257.356 227.44 257.576 227.44C257.806 227.44 257.991 227.52 258.131 227.68C258.281 227.84 258.356 228.03 258.356 228.25C258.356 228.33 258.351 228.41 258.341 228.49C258.331 228.57 258.311 228.66 258.281 228.76C258.251 228.86 258.211 228.98 258.161 229.12L257.531 231.19H256.811ZM17.485 247V239.125H18.505V241.27L18.4 240.895C18.62 240.295 18.99 239.84 19.51 239.53C20.03 239.21 20.675 239.05 21.445 239.05V240.085C21.405 240.085 21.365 240.085 21.325 240.085C21.285 240.075 21.245 240.07 21.205 240.07C20.375 240.07 19.725 240.325 19.255 240.835C18.785 241.335 18.55 242.05 18.55 242.98V247H17.485ZM26.6601 247.075C25.8401 247.075 25.1201 246.905 24.5001 246.565C23.8801 246.215 23.3951 245.74 23.0451 245.14C22.6951 244.53 22.5201 243.835 22.5201 243.055C22.5201 242.275 22.6851 241.585 23.0151 240.985C23.3551 240.385 23.8151 239.915 24.3951 239.575C24.9851 239.225 25.6451 239.05 26.3751 239.05C27.1151 239.05 27.7701 239.22 28.3401 239.56C28.9201 239.89 29.3751 240.36 29.7051 240.97C30.0351 241.57 30.2001 242.265 30.2001 243.055C30.2001 243.105 30.1951 243.16 30.1851 243.22C30.1851 243.27 30.1851 243.325 30.1851 243.385H23.3301V242.59H29.6151L29.1951 242.905C29.1951 242.335 29.0701 241.83 28.8201 241.39C28.5801 240.94 28.2501 240.59 27.8301 240.34C27.4101 240.09 26.9251 239.965 26.3751 239.965C25.8351 239.965 25.3501 240.09 24.9201 240.34C24.4901 240.59 24.1551 240.94 23.9151 241.39C23.6751 241.84 23.5551 242.355 23.5551 242.935V243.1C23.5551 243.7 23.6851 244.23 23.9451 244.69C24.2151 245.14 24.5851 245.495 25.0551 245.755C25.5351 246.005 26.0801 246.13 26.6901 246.13C27.1701 246.13 27.6151 246.045 28.0251 245.875C28.4451 245.705 28.8051 245.445 29.1051 245.095L29.7051 245.785C29.3551 246.205 28.9151 246.525 28.3851 246.745C27.8651 246.965 27.2901 247.075 26.6601 247.075ZM35.7278 249.985C35.0078 249.985 34.3178 249.88 33.6578 249.67C32.9978 249.46 32.4628 249.16 32.0528 248.77L32.5928 247.96C32.9628 248.29 33.4178 248.55 33.9578 248.74C34.5078 248.94 35.0878 249.04 35.6978 249.04C36.6978 249.04 37.4328 248.805 37.9028 248.335C38.3728 247.875 38.6078 247.155 38.6078 246.175V244.21L38.7578 242.86L38.6528 241.51V239.125H39.6728V246.04C39.6728 247.4 39.3378 248.395 38.6678 249.025C38.0078 249.665 37.0278 249.985 35.7278 249.985ZM35.5328 246.7C34.7828 246.7 34.1078 246.54 33.5078 246.22C32.9078 245.89 32.4328 245.435 32.0828 244.855C31.7428 244.275 31.5728 243.61 31.5728 242.86C31.5728 242.11 31.7428 241.45 32.0828 240.88C32.4328 240.3 32.9078 239.85 33.5078 239.53C34.1078 239.21 34.7828 239.05 35.5328 239.05C36.2328 239.05 36.8628 239.195 37.4228 239.485C37.9828 239.775 38.4278 240.205 38.7578 240.775C39.0878 241.345 39.2528 242.04 39.2528 242.86C39.2528 243.68 39.0878 244.375 38.7578 244.945C38.4278 245.515 37.9828 245.95 37.4228 246.25C36.8628 246.55 36.2328 246.7 35.5328 246.7ZM35.6378 245.755C36.2178 245.755 36.7328 245.635 37.1828 245.395C37.6328 245.145 37.9878 244.805 38.2478 244.375C38.5078 243.935 38.6378 243.43 38.6378 242.86C38.6378 242.29 38.5078 241.79 38.2478 241.36C37.9878 240.93 37.6328 240.595 37.1828 240.355C36.7328 240.105 36.2178 239.98 35.6378 239.98C35.0678 239.98 34.5528 240.105 34.0928 240.355C33.6428 240.595 33.2878 240.93 33.0278 241.36C32.7778 241.79 32.6528 242.29 32.6528 242.86C32.6528 243.43 32.7778 243.935 33.0278 244.375C33.2878 244.805 33.6428 245.145 34.0928 245.395C34.5528 245.635 35.0678 245.755 35.6378 245.755ZM45.9814 247.075C45.1614 247.075 44.4414 246.905 43.8214 246.565C43.2014 246.215 42.7164 245.74 42.3664 245.14C42.0164 244.53 41.8414 243.835 41.8414 243.055C41.8414 242.275 42.0064 241.585 42.3364 240.985C42.6764 240.385 43.1364 239.915 43.7164 239.575C44.3064 239.225 44.9664 239.05 45.6964 239.05C46.4364 239.05 47.0914 239.22 47.6614 239.56C48.2414 239.89 48.6964 240.36 49.0264 240.97C49.3564 241.57 49.5214 242.265 49.5214 243.055C49.5214 243.105 49.5164 243.16 49.5064 243.22C49.5064 243.27 49.5064 243.325 49.5064 243.385H42.6514V242.59H48.9364L48.5164 242.905C48.5164 242.335 48.3914 241.83 48.1414 241.39C47.9014 240.94 47.5714 240.59 47.1514 240.34C46.7314 240.09 46.2464 239.965 45.6964 239.965C45.1564 239.965 44.6714 240.09 44.2414 240.34C43.8114 240.59 43.4764 240.94 43.2364 241.39C42.9964 241.84 42.8764 242.355 42.8764 242.935V243.1C42.8764 243.7 43.0064 244.23 43.2664 244.69C43.5364 245.14 43.9064 245.495 44.3764 245.755C44.8564 246.005 45.4014 246.13 46.0114 246.13C46.4914 246.13 46.9364 246.045 47.3464 245.875C47.7664 245.705 48.1264 245.445 48.4264 245.095L49.0264 245.785C48.6764 246.205 48.2364 246.525 47.7064 246.745C47.1864 246.965 46.6114 247.075 45.9814 247.075ZM55.7091 239.05C56.3491 239.05 56.9091 239.175 57.3891 239.425C57.8791 239.665 58.2591 240.035 58.5291 240.535C58.8091 241.035 58.9491 241.665 58.9491 242.425V247H57.8841V242.53C57.8841 241.7 57.6741 241.075 57.2541 240.655C56.8441 240.225 56.2641 240.01 55.5141 240.01C54.9541 240.01 54.4641 240.125 54.0441 240.355C53.6341 240.575 53.3141 240.9 53.0841 241.33C52.8641 241.75 52.7541 242.26 52.7541 242.86V247H51.6891V239.125H52.7091V241.285L52.5441 240.88C52.7941 240.31 53.1941 239.865 53.7441 239.545C54.2941 239.215 54.9491 239.05 55.7091 239.05ZM65.1708 247.075C64.3508 247.075 63.6308 246.905 63.0108 246.565C62.3908 246.215 61.9058 245.74 61.5558 245.14C61.2058 244.53 61.0308 243.835 61.0308 243.055C61.0308 242.275 61.1958 241.585 61.5258 240.985C61.8658 240.385 62.3258 239.915 62.9058 239.575C63.4958 239.225 64.1558 239.05 64.8858 239.05C65.6258 239.05 66.2808 239.22 66.8508 239.56C67.4308 239.89 67.8858 240.36 68.2158 240.97C68.5458 241.57 68.7108 242.265 68.7108 243.055C68.7108 243.105 68.7058 243.16 68.6958 243.22C68.6958 243.27 68.6958 243.325 68.6958 243.385H61.8408V242.59H68.1258L67.7058 242.905C67.7058 242.335 67.5808 241.83 67.3308 241.39C67.0908 240.94 66.7608 240.59 66.3408 240.34C65.9208 240.09 65.4358 239.965 64.8858 239.965C64.3458 239.965 63.8608 240.09 63.4308 240.34C63.0008 240.59 62.6658 240.94 62.4258 241.39C62.1858 241.84 62.0658 242.355 62.0658 242.935V243.1C62.0658 243.7 62.1958 244.23 62.4558 244.69C62.7258 245.14 63.0958 245.495 63.5658 245.755C64.0458 246.005 64.5908 246.13 65.2008 246.13C65.6808 246.13 66.1258 246.045 66.5358 245.875C66.9558 245.705 67.3158 245.445 67.6158 245.095L68.2158 245.785C67.8658 246.205 67.4258 246.525 66.8958 246.745C66.3758 246.965 65.8008 247.075 65.1708 247.075ZM70.8786 247V239.125H71.8986V241.27L71.7936 240.895C72.0136 240.295 72.3836 239.84 72.9036 239.53C73.4236 239.21 74.0686 239.05 74.8386 239.05V240.085C74.7986 240.085 74.7586 240.085 74.7186 240.085C74.6786 240.075 74.6386 240.07 74.5986 240.07C73.7686 240.07 73.1186 240.325 72.6486 240.835C72.1786 241.335 71.9436 242.05 71.9436 242.98V247H70.8786ZM81.1309 247V245.26L81.0859 244.975V242.065C81.0859 241.395 80.8959 240.88 80.5159 240.52C80.1459 240.16 79.5909 239.98 78.8509 239.98C78.3409 239.98 77.8559 240.065 77.3959 240.235C76.9359 240.405 76.5459 240.63 76.2259 240.91L75.7459 240.115C76.1459 239.775 76.6259 239.515 77.1859 239.335C77.7459 239.145 78.3359 239.05 78.9559 239.05C79.9759 239.05 80.7609 239.305 81.3109 239.815C81.8709 240.315 82.1509 241.08 82.1509 242.11V247H81.1309ZM78.4159 247.075C77.8259 247.075 77.3109 246.98 76.8709 246.79C76.4409 246.59 76.1109 246.32 75.8809 245.98C75.6509 245.63 75.5359 245.23 75.5359 244.78C75.5359 244.37 75.6309 244 75.8209 243.67C76.0209 243.33 76.3409 243.06 76.7809 242.86C77.2309 242.65 77.8309 242.545 78.5809 242.545H81.2959V243.34H78.6109C77.8509 243.34 77.3209 243.475 77.0209 243.745C76.7309 244.015 76.5859 244.35 76.5859 244.75C76.5859 245.2 76.7609 245.56 77.1109 245.83C77.4609 246.1 77.9509 246.235 78.5809 246.235C79.1809 246.235 79.6959 246.1 80.1259 245.83C80.5659 245.55 80.8859 245.15 81.0859 244.63L81.3259 245.365C81.1259 245.885 80.7759 246.3 80.2759 246.61C79.7859 246.92 79.1659 247.075 78.4159 247.075ZM87.5336 247.075C86.7936 247.075 86.2236 246.875 85.8236 246.475C85.4236 246.075 85.2236 245.51 85.2236 244.78V237.385H86.2886V244.72C86.2886 245.18 86.4036 245.535 86.6336 245.785C86.8736 246.035 87.2136 246.16 87.6536 246.16C88.1236 246.16 88.5136 246.025 88.8236 245.755L89.1986 246.52C88.9886 246.71 88.7336 246.85 88.4336 246.94C88.1436 247.03 87.8436 247.075 87.5336 247.075ZM83.8136 240.01V239.125H88.6886V240.01H83.8136ZM94.204 247.075C93.384 247.075 92.664 246.905 92.044 246.565C91.424 246.215 90.939 245.74 90.589 245.14C90.239 244.53 90.064 243.835 90.064 243.055C90.064 242.275 90.229 241.585 90.559 240.985C90.899 240.385 91.359 239.915 91.939 239.575C92.529 239.225 93.189 239.05 93.919 239.05C94.659 239.05 95.314 239.22 95.884 239.56C96.464 239.89 96.919 240.36 97.249 240.97C97.579 241.57 97.744 242.265 97.744 243.055C97.744 243.105 97.739 243.16 97.729 243.22C97.729 243.27 97.729 243.325 97.729 243.385H90.874V242.59H97.159L96.739 242.905C96.739 242.335 96.614 241.83 96.364 241.39C96.124 240.94 95.794 240.59 95.374 240.34C94.954 240.09 94.469 239.965 93.919 239.965C93.379 239.965 92.894 240.09 92.464 240.34C92.034 240.59 91.699 240.94 91.459 241.39C91.219 241.84 91.099 242.355 91.099 242.935V243.1C91.099 243.7 91.229 244.23 91.489 244.69C91.759 245.14 92.129 245.495 92.599 245.755C93.079 246.005 93.624 246.13 94.234 246.13C94.714 246.13 95.159 246.045 95.569 245.875C95.989 245.705 96.349 245.445 96.649 245.095L97.249 245.785C96.899 246.205 96.459 246.525 95.929 246.745C95.409 246.965 94.834 247.075 94.204 247.075ZM99.2668 249.19L99.9268 246.415L100.047 247.06C99.8168 247.06 99.6218 246.985 99.4618 246.835C99.3118 246.685 99.2368 246.49 99.2368 246.25C99.2368 246.01 99.3118 245.815 99.4618 245.665C99.6218 245.515 99.8118 245.44 100.032 245.44C100.262 245.44 100.447 245.52 100.587 245.68C100.737 245.84 100.812 246.03 100.812 246.25C100.812 246.33 100.807 246.41 100.797 246.49C100.787 246.57 100.767 246.66 100.737 246.76C100.707 246.86 100.667 246.98 100.617 247.12L99.9868 249.19H99.2668ZM111.951 247V245.26L111.906 244.975V242.065C111.906 241.395 111.716 240.88 111.336 240.52C110.966 240.16 110.411 239.98 109.671 239.98C109.161 239.98 108.676 240.065 108.216 240.235C107.756 240.405 107.366 240.63 107.046 240.91L106.566 240.115C106.966 239.775 107.446 239.515 108.006 239.335C108.566 239.145 109.156 239.05 109.776 239.05C110.796 239.05 111.581 239.305 112.131 239.815C112.691 240.315 112.971 241.08 112.971 242.11V247H111.951ZM109.236 247.075C108.646 247.075 108.131 246.98 107.691 246.79C107.261 246.59 106.931 246.32 106.701 245.98C106.471 245.63 106.356 245.23 106.356 244.78C106.356 244.37 106.451 244 106.641 243.67C106.841 243.33 107.161 243.06 107.601 242.86C108.051 242.65 108.651 242.545 109.401 242.545H112.116V243.34H109.431C108.671 243.34 108.141 243.475 107.841 243.745C107.551 244.015 107.406 244.35 107.406 244.75C107.406 245.2 107.581 245.56 107.931 245.83C108.281 246.1 108.771 246.235 109.401 246.235C110.001 246.235 110.516 246.1 110.946 245.83C111.386 245.55 111.706 245.15 111.906 244.63L112.146 245.365C111.946 245.885 111.596 246.3 111.096 246.61C110.606 246.92 109.986 247.075 109.236 247.075ZM119.884 239.05C120.524 239.05 121.084 239.175 121.564 239.425C122.054 239.665 122.434 240.035 122.704 240.535C122.984 241.035 123.124 241.665 123.124 242.425V247H122.059V242.53C122.059 241.7 121.849 241.075 121.429 240.655C121.019 240.225 120.439 240.01 119.689 240.01C119.129 240.01 118.639 240.125 118.219 240.355C117.809 240.575 117.489 240.9 117.259 241.33C117.039 241.75 116.929 242.26 116.929 242.86V247H115.864V239.125H116.884V241.285L116.719 240.88C116.969 240.31 117.369 239.865 117.919 239.545C118.469 239.215 119.124 239.05 119.884 239.05ZM129.136 247.075C128.386 247.075 127.711 246.905 127.111 246.565C126.521 246.225 126.056 245.755 125.716 245.155C125.376 244.545 125.206 243.845 125.206 243.055C125.206 242.255 125.376 241.555 125.716 240.955C126.056 240.355 126.521 239.89 127.111 239.56C127.711 239.22 128.386 239.05 129.136 239.05C129.826 239.05 130.441 239.205 130.981 239.515C131.531 239.825 131.966 240.28 132.286 240.88C132.616 241.47 132.781 242.195 132.781 243.055C132.781 243.905 132.621 244.63 132.301 245.23C131.981 245.83 131.546 246.29 130.996 246.61C130.456 246.92 129.836 247.075 129.136 247.075ZM129.211 246.13C129.771 246.13 130.271 246.005 130.711 245.755C131.161 245.495 131.511 245.135 131.761 244.675C132.021 244.205 132.151 243.665 132.151 243.055C132.151 242.435 132.021 241.895 131.761 241.435C131.511 240.975 131.161 240.62 130.711 240.37C130.271 240.11 129.771 239.98 129.211 239.98C128.661 239.98 128.166 240.11 127.726 240.37C127.286 240.62 126.936 240.975 126.676 241.435C126.416 241.895 126.286 242.435 126.286 243.055C126.286 243.665 126.416 244.205 126.676 244.675C126.936 245.135 127.286 245.495 127.726 245.755C128.166 246.005 128.661 246.13 129.211 246.13ZM132.181 247V244.63L132.286 243.04L132.136 241.45V235.87H133.201V247H132.181ZM149.932 239.05C150.572 239.05 151.127 239.175 151.597 239.425C152.077 239.665 152.447 240.035 152.707 240.535C152.977 241.035 153.112 241.665 153.112 242.425V247H152.047V242.53C152.047 241.7 151.847 241.075 151.447 240.655C151.057 240.225 150.502 240.01 149.782 240.01C149.242 240.01 148.772 240.125 148.372 240.355C147.982 240.575 147.677 240.9 147.457 241.33C147.247 241.75 147.142 242.26 147.142 242.86V247H146.077V242.53C146.077 241.7 145.877 241.075 145.477 240.655C145.077 240.225 144.517 240.01 143.797 240.01C143.267 240.01 142.802 240.125 142.402 240.355C142.002 240.575 141.692 240.9 141.472 241.33C141.262 241.75 141.157 242.26 141.157 242.86V247H140.092V239.125H141.112V241.255L140.947 240.88C141.187 240.31 141.572 239.865 142.102 239.545C142.642 239.215 143.277 239.05 144.007 239.05C144.777 239.05 145.432 239.245 145.972 239.635C146.512 240.015 146.862 240.59 147.022 241.36L146.602 241.195C146.832 240.555 147.237 240.04 147.817 239.65C148.407 239.25 149.112 239.05 149.932 239.05ZM160.936 247V245.26L160.891 244.975V242.065C160.891 241.395 160.701 240.88 160.321 240.52C159.951 240.16 159.396 239.98 158.656 239.98C158.146 239.98 157.661 240.065 157.201 240.235C156.741 240.405 156.351 240.63 156.031 240.91L155.551 240.115C155.951 239.775 156.431 239.515 156.991 239.335C157.551 239.145 158.141 239.05 158.761 239.05C159.781 239.05 160.566 239.305 161.116 239.815C161.676 240.315 161.956 241.08 161.956 242.11V247H160.936ZM158.221 247.075C157.631 247.075 157.116 246.98 156.676 246.79C156.246 246.59 155.916 246.32 155.686 245.98C155.456 245.63 155.341 245.23 155.341 244.78C155.341 244.37 155.436 244 155.626 243.67C155.826 243.33 156.146 243.06 156.586 242.86C157.036 242.65 157.636 242.545 158.386 242.545H161.101V243.34H158.416C157.656 243.34 157.126 243.475 156.826 243.745C156.536 244.015 156.391 244.35 156.391 244.75C156.391 245.2 156.566 245.56 156.916 245.83C157.266 246.1 157.756 246.235 158.386 246.235C158.986 246.235 159.501 246.1 159.931 245.83C160.371 245.55 160.691 245.15 160.891 244.63L161.131 245.365C160.931 245.885 160.581 246.3 160.081 246.61C159.591 246.92 158.971 247.075 158.221 247.075ZM168.868 239.05C169.508 239.05 170.068 239.175 170.548 239.425C171.038 239.665 171.418 240.035 171.688 240.535C171.968 241.035 172.108 241.665 172.108 242.425V247H171.043V242.53C171.043 241.7 170.833 241.075 170.413 240.655C170.003 240.225 169.423 240.01 168.673 240.01C168.113 240.01 167.623 240.125 167.203 240.355C166.793 240.575 166.473 240.9 166.243 241.33C166.023 241.75 165.913 242.26 165.913 242.86V247H164.848V239.125H165.868V241.285L165.703 240.88C165.953 240.31 166.353 239.865 166.903 239.545C167.453 239.215 168.108 239.05 168.868 239.05ZM178.24 247.075C177.57 247.075 176.985 246.95 176.485 246.7C175.985 246.45 175.595 246.075 175.315 245.575C175.045 245.075 174.91 244.45 174.91 243.7V239.125H175.975V243.58C175.975 244.42 176.18 245.055 176.59 245.485C177.01 245.905 177.595 246.115 178.345 246.115C178.895 246.115 179.37 246.005 179.77 245.785C180.18 245.555 180.49 245.225 180.7 244.795C180.92 244.365 181.03 243.85 181.03 243.25V239.125H182.095V247H181.075V244.84L181.24 245.23C180.99 245.81 180.6 246.265 180.07 246.595C179.55 246.915 178.94 247.075 178.24 247.075ZM189.998 247V245.26L189.953 244.975V242.065C189.953 241.395 189.763 240.88 189.383 240.52C189.013 240.16 188.458 239.98 187.718 239.98C187.208 239.98 186.723 240.065 186.263 240.235C185.803 240.405 185.413 240.63 185.093 240.91L184.613 240.115C185.013 239.775 185.493 239.515 186.053 239.335C186.613 239.145 187.203 239.05 187.823 239.05C188.843 239.05 189.628 239.305 190.178 239.815C190.738 240.315 191.018 241.08 191.018 242.11V247H189.998ZM187.283 247.075C186.693 247.075 186.178 246.98 185.738 246.79C185.308 246.59 184.978 246.32 184.748 245.98C184.518 245.63 184.403 245.23 184.403 244.78C184.403 244.37 184.498 244 184.688 243.67C184.888 243.33 185.208 243.06 185.648 242.86C186.098 242.65 186.698 242.545 187.448 242.545H190.163V243.34H187.478C186.718 243.34 186.188 243.475 185.888 243.745C185.598 244.015 185.453 244.35 185.453 244.75C185.453 245.2 185.628 245.56 185.978 245.83C186.328 246.1 186.818 246.235 187.448 246.235C188.048 246.235 188.563 246.1 188.993 245.83C189.433 245.55 189.753 245.15 189.953 244.63L190.193 245.365C189.993 245.885 189.643 246.3 189.143 246.61C188.653 246.92 188.033 247.075 187.283 247.075ZM193.911 247V235.87H194.976V247H193.911ZM197.939 247V235.87H199.004V247H197.939ZM202.027 249.985C201.657 249.985 201.302 249.925 200.962 249.805C200.632 249.685 200.347 249.505 200.107 249.265L200.602 248.47C200.802 248.66 201.017 248.805 201.247 248.905C201.487 249.015 201.752 249.07 202.042 249.07C202.392 249.07 202.692 248.97 202.942 248.77C203.202 248.58 203.447 248.24 203.677 247.75L204.187 246.595L204.307 246.43L207.547 239.125H208.597L204.652 247.945C204.432 248.455 204.187 248.86 203.917 249.16C203.657 249.46 203.372 249.67 203.062 249.79C202.752 249.92 202.407 249.985 202.027 249.985ZM204.127 247.225L200.497 239.125H201.607L204.817 246.355L204.127 247.225ZM214.203 247V238.135C214.203 237.435 214.408 236.87 214.818 236.44C215.228 236.01 215.818 235.795 216.588 235.795C216.888 235.795 217.178 235.835 217.458 235.915C217.738 235.995 217.973 236.12 218.163 236.29L217.803 237.085C217.653 236.955 217.478 236.86 217.278 236.8C217.078 236.73 216.863 236.695 216.633 236.695C216.183 236.695 215.838 236.82 215.598 237.07C215.358 237.32 215.238 237.69 215.238 238.18V239.38L215.268 239.875V247H214.203ZM212.793 240.01V239.125H217.668V240.01H212.793ZM219.108 247V239.125H220.173V247H219.108ZM219.648 237.385C219.428 237.385 219.243 237.31 219.093 237.16C218.943 237.01 218.868 236.83 218.868 236.62C218.868 236.41 218.943 236.235 219.093 236.095C219.243 235.945 219.428 235.87 219.648 235.87C219.868 235.87 220.053 235.94 220.203 236.08C220.353 236.22 220.428 236.395 220.428 236.605C220.428 236.825 220.353 237.01 220.203 237.16C220.063 237.31 219.878 237.385 219.648 237.385ZM227.184 239.05C227.824 239.05 228.384 239.175 228.864 239.425C229.354 239.665 229.734 240.035 230.004 240.535C230.284 241.035 230.424 241.665 230.424 242.425V247H229.359V242.53C229.359 241.7 229.149 241.075 228.729 240.655C228.319 240.225 227.739 240.01 226.989 240.01C226.429 240.01 225.939 240.125 225.519 240.355C225.109 240.575 224.789 240.9 224.559 241.33C224.339 241.75 224.229 242.26 224.229 242.86V247H223.164V239.125H224.184V241.285L224.019 240.88C224.269 240.31 224.669 239.865 225.219 239.545C225.769 239.215 226.424 239.05 227.184 239.05ZM236.645 247.075C235.825 247.075 235.105 246.905 234.485 246.565C233.865 246.215 233.38 245.74 233.03 245.14C232.68 244.53 232.505 243.835 232.505 243.055C232.505 242.275 232.67 241.585 233 240.985C233.34 240.385 233.8 239.915 234.38 239.575C234.97 239.225 235.63 239.05 236.36 239.05C237.1 239.05 237.755 239.22 238.325 239.56C238.905 239.89 239.36 240.36 239.69 240.97C240.02 241.57 240.185 242.265 240.185 243.055C240.185 243.105 240.18 243.16 240.17 243.22C240.17 243.27 240.17 243.325 240.17 243.385H233.315V242.59H239.6L239.18 242.905C239.18 242.335 239.055 241.83 238.805 241.39C238.565 240.94 238.235 240.59 237.815 240.34C237.395 240.09 236.91 239.965 236.36 239.965C235.82 239.965 235.335 240.09 234.905 240.34C234.475 240.59 234.14 240.94 233.9 241.39C233.66 241.84 233.54 242.355 233.54 242.935V243.1C233.54 243.7 233.67 244.23 233.93 244.69C234.2 245.14 234.57 245.495 235.04 245.755C235.52 246.005 236.065 246.13 236.675 246.13C237.155 246.13 237.6 246.045 238.01 245.875C238.43 245.705 238.79 245.445 239.09 245.095L239.69 245.785C239.34 246.205 238.9 246.525 238.37 246.745C237.85 246.965 237.275 247.075 236.645 247.075ZM241.915 243.4V242.47H245.845V243.4H241.915ZM250.864 247.075C250.124 247.075 249.554 246.875 249.154 246.475C248.754 246.075 248.554 245.51 248.554 244.78V237.385H249.619V244.72C249.619 245.18 249.734 245.535 249.964 245.785C250.204 246.035 250.544 246.16 250.984 246.16C251.454 246.16 251.844 246.025 252.154 245.755L252.529 246.52C252.319 246.71 252.064 246.85 251.764 246.94C251.474 247.03 251.174 247.075 250.864 247.075ZM247.144 240.01V239.125H252.019V240.01H247.144ZM257.722 247.075C257.052 247.075 256.467 246.95 255.967 246.7C255.467 246.45 255.077 246.075 254.797 245.575C254.527 245.075 254.392 244.45 254.392 243.7V239.125H255.457V243.58C255.457 244.42 255.662 245.055 256.072 245.485C256.492 245.905 257.077 246.115 257.827 246.115C258.377 246.115 258.852 246.005 259.252 245.785C259.662 245.555 259.972 245.225 260.182 244.795C260.402 244.365 260.512 243.85 260.512 243.25V239.125H261.577V247H260.557V244.84L260.722 245.23C260.472 245.81 260.082 246.265 259.552 246.595C259.032 246.915 258.422 247.075 257.722 247.075ZM268.566 239.05C269.206 239.05 269.766 239.175 270.246 239.425C270.736 239.665 271.116 240.035 271.386 240.535C271.666 241.035 271.806 241.665 271.806 242.425V247H270.741V242.53C270.741 241.7 270.531 241.075 270.111 240.655C269.701 240.225 269.121 240.01 268.371 240.01C267.811 240.01 267.321 240.125 266.901 240.355C266.491 240.575 266.171 240.9 265.941 241.33C265.721 241.75 265.611 242.26 265.611 242.86V247H264.546V239.125H265.566V241.285L265.401 240.88C265.651 240.31 266.051 239.865 266.601 239.545C267.151 239.215 267.806 239.05 268.566 239.05ZM278.027 247.075C277.207 247.075 276.487 246.905 275.867 246.565C275.247 246.215 274.762 245.74 274.412 245.14C274.062 244.53 273.887 243.835 273.887 243.055C273.887 242.275 274.052 241.585 274.382 240.985C274.722 240.385 275.182 239.915 275.762 239.575C276.352 239.225 277.012 239.05 277.742 239.05C278.482 239.05 279.137 239.22 279.707 239.56C280.287 239.89 280.742 240.36 281.072 240.97C281.402 241.57 281.567 242.265 281.567 243.055C281.567 243.105 281.562 243.16 281.552 243.22C281.552 243.27 281.552 243.325 281.552 243.385H274.697V242.59H280.982L280.562 242.905C280.562 242.335 280.437 241.83 280.187 241.39C279.947 240.94 279.617 240.59 279.197 240.34C278.777 240.09 278.292 239.965 277.742 239.965C277.202 239.965 276.717 240.09 276.287 240.34C275.857 240.59 275.522 240.94 275.282 241.39C275.042 241.84 274.922 242.355 274.922 242.935V243.1C274.922 243.7 275.052 244.23 275.312 244.69C275.582 245.14 275.952 245.495 276.422 245.755C276.902 246.005 277.447 246.13 278.057 246.13C278.537 246.13 278.982 246.045 279.392 245.875C279.812 245.705 280.172 245.445 280.472 245.095L281.072 245.785C280.722 246.205 280.282 246.525 279.752 246.745C279.232 246.965 278.657 247.075 278.027 247.075ZM22.42 265V263.26L22.375 262.975V260.065C22.375 259.395 22.185 258.88 21.805 258.52C21.435 258.16 20.88 257.98 20.14 257.98C19.63 257.98 19.145 258.065 18.685 258.235C18.225 258.405 17.835 258.63 17.515 258.91L17.035 258.115C17.435 257.775 17.915 257.515 18.475 257.335C19.035 257.145 19.625 257.05 20.245 257.05C21.265 257.05 22.05 257.305 22.6 257.815C23.16 258.315 23.44 259.08 23.44 260.11V265H22.42ZM19.705 265.075C19.115 265.075 18.6 264.98 18.16 264.79C17.73 264.59 17.4 264.32 17.17 263.98C16.94 263.63 16.825 263.23 16.825 262.78C16.825 262.37 16.92 262 17.11 261.67C17.31 261.33 17.63 261.06 18.07 260.86C18.52 260.65 19.12 260.545 19.87 260.545H22.585V261.34H19.9C19.14 261.34 18.61 261.475 18.31 261.745C18.02 262.015 17.875 262.35 17.875 262.75C17.875 263.2 18.05 263.56 18.4 263.83C18.75 264.1 19.24 264.235 19.87 264.235C20.47 264.235 20.985 264.1 21.415 263.83C21.855 263.55 22.175 263.15 22.375 262.63L22.615 263.365C22.415 263.885 22.065 264.3 21.565 264.61C21.075 264.92 20.455 265.075 19.705 265.075ZM30.3527 257.05C30.9927 257.05 31.5527 257.175 32.0327 257.425C32.5227 257.665 32.9027 258.035 33.1727 258.535C33.4527 259.035 33.5927 259.665 33.5927 260.425V265H32.5277V260.53C32.5277 259.7 32.3177 259.075 31.8977 258.655C31.4877 258.225 30.9077 258.01 30.1577 258.01C29.5977 258.01 29.1077 258.125 28.6877 258.355C28.2777 258.575 27.9577 258.9 27.7277 259.33C27.5077 259.75 27.3977 260.26 27.3977 260.86V265H26.3327V257.125H27.3527V259.285L27.1877 258.88C27.4377 258.31 27.8377 257.865 28.3877 257.545C28.9377 257.215 29.5927 257.05 30.3527 257.05ZM36.3829 267.985C36.0129 267.985 35.6579 267.925 35.3179 267.805C34.9879 267.685 34.7029 267.505 34.4629 267.265L34.9579 266.47C35.1579 266.66 35.3729 266.805 35.6029 266.905C35.8429 267.015 36.1079 267.07 36.3979 267.07C36.7479 267.07 37.0479 266.97 37.2979 266.77C37.5579 266.58 37.8029 266.24 38.0329 265.75L38.5429 264.595L38.6629 264.43L41.9029 257.125H42.9529L39.0079 265.945C38.7879 266.455 38.5429 266.86 38.2729 267.16C38.0129 267.46 37.7279 267.67 37.4179 267.79C37.1079 267.92 36.7629 267.985 36.3829 267.985ZM38.4829 265.225L34.8529 257.125H35.9629L39.1729 264.355L38.4829 265.225ZM51.5136 265.075C50.7636 265.075 50.0886 264.905 49.4886 264.565C48.8986 264.225 48.4336 263.755 48.0936 263.155C47.7536 262.555 47.5836 261.855 47.5836 261.055C47.5836 260.265 47.7536 259.57 48.0936 258.97C48.4336 258.36 48.8986 257.89 49.4886 257.56C50.0886 257.22 50.7636 257.05 51.5136 257.05C52.2136 257.05 52.8336 257.205 53.3736 257.515C53.9236 257.825 54.3586 258.28 54.6786 258.88C54.9986 259.47 55.1586 260.195 55.1586 261.055C55.1586 261.915 54.9936 262.645 54.6636 263.245C54.3436 263.835 53.9086 264.29 53.3586 264.61C52.8186 264.92 52.2036 265.075 51.5136 265.075ZM51.5886 264.13C52.1486 264.13 52.6486 264.005 53.0886 263.755C53.5386 263.495 53.8886 263.135 54.1386 262.675C54.3986 262.205 54.5286 261.665 54.5286 261.055C54.5286 260.445 54.3986 259.91 54.1386 259.45C53.8886 258.99 53.5386 258.63 53.0886 258.37C52.6486 258.11 52.1486 257.98 51.5886 257.98C51.0386 257.98 50.5436 258.11 50.1036 258.37C49.6636 258.63 49.3136 258.99 49.0536 259.45C48.7936 259.91 48.6636 260.445 48.6636 261.055C48.6636 261.665 48.7936 262.205 49.0536 262.675C49.3136 263.135 49.6636 263.495 50.1036 263.755C50.5436 264.005 51.0386 264.13 51.5886 264.13ZM54.5136 267.91V262.66L54.6636 261.07L54.5586 259.495V257.125H55.5786V267.91H54.5136ZM61.7996 265.075C61.1296 265.075 60.5446 264.95 60.0446 264.7C59.5446 264.45 59.1546 264.075 58.8746 263.575C58.6046 263.075 58.4696 262.45 58.4696 261.7V257.125H59.5346V261.58C59.5346 262.42 59.7396 263.055 60.1496 263.485C60.5696 263.905 61.1546 264.115 61.9046 264.115C62.4546 264.115 62.9296 264.005 63.3296 263.785C63.7396 263.555 64.0496 263.225 64.2596 262.795C64.4796 262.365 64.5896 261.85 64.5896 261.25V257.125H65.6546V265H64.6346V262.84L64.7996 263.23C64.5496 263.81 64.1596 264.265 63.6296 264.595C63.1096 264.915 62.4996 265.075 61.7996 265.075ZM71.9677 265.075C71.1477 265.075 70.4277 264.905 69.8077 264.565C69.1877 264.215 68.7027 263.74 68.3527 263.14C68.0027 262.53 67.8277 261.835 67.8277 261.055C67.8277 260.275 67.9927 259.585 68.3227 258.985C68.6627 258.385 69.1227 257.915 69.7027 257.575C70.2927 257.225 70.9527 257.05 71.6827 257.05C72.4227 257.05 73.0777 257.22 73.6477 257.56C74.2277 257.89 74.6827 258.36 75.0127 258.97C75.3427 259.57 75.5077 260.265 75.5077 261.055C75.5077 261.105 75.5027 261.16 75.4927 261.22C75.4927 261.27 75.4927 261.325 75.4927 261.385H68.6377V260.59H74.9227L74.5027 260.905C74.5027 260.335 74.3777 259.83 74.1277 259.39C73.8877 258.94 73.5577 258.59 73.1377 258.34C72.7177 258.09 72.2327 257.965 71.6827 257.965C71.1427 257.965 70.6577 258.09 70.2277 258.34C69.7977 258.59 69.4627 258.94 69.2227 259.39C68.9827 259.84 68.8627 260.355 68.8627 260.935V261.1C68.8627 261.7 68.9927 262.23 69.2527 262.69C69.5227 263.14 69.8927 263.495 70.3627 263.755C70.8427 264.005 71.3877 264.13 71.9977 264.13C72.4777 264.13 72.9227 264.045 73.3327 263.875C73.7527 263.705 74.1127 263.445 74.4127 263.095L75.0127 263.785C74.6627 264.205 74.2227 264.525 73.6927 264.745C73.1727 264.965 72.5977 265.075 71.9677 265.075ZM79.7904 265.075C79.1404 265.075 78.5254 264.985 77.9454 264.805C77.3654 264.615 76.9104 264.38 76.5804 264.1L77.0604 263.26C77.3804 263.5 77.7904 263.71 78.2904 263.89C78.7904 264.06 79.3154 264.145 79.8654 264.145C80.6154 264.145 81.1554 264.03 81.4854 263.8C81.8154 263.56 81.9804 263.245 81.9804 262.855C81.9804 262.565 81.8854 262.34 81.6954 262.18C81.5154 262.01 81.2754 261.885 80.9754 261.805C80.6754 261.715 80.3404 261.64 79.9704 261.58C79.6004 261.52 79.2304 261.45 78.8604 261.37C78.5004 261.29 78.1704 261.175 77.8704 261.025C77.5704 260.865 77.3254 260.65 77.1354 260.38C76.9554 260.11 76.8654 259.75 76.8654 259.3C76.8654 258.87 76.9854 258.485 77.2254 258.145C77.4654 257.805 77.8154 257.54 78.2754 257.35C78.7454 257.15 79.3154 257.05 79.9854 257.05C80.4954 257.05 81.0054 257.12 81.5154 257.26C82.0254 257.39 82.4454 257.565 82.7754 257.785L82.3104 258.64C81.9604 258.4 81.5854 258.23 81.1854 258.13C80.7854 258.02 80.3854 257.965 79.9854 257.965C79.2754 257.965 78.7504 258.09 78.4104 258.34C78.0804 258.58 77.9154 258.89 77.9154 259.27C77.9154 259.57 78.0054 259.805 78.1854 259.975C78.3754 260.145 78.6204 260.28 78.9204 260.38C79.2304 260.47 79.5654 260.545 79.9254 260.605C80.2954 260.665 80.6604 260.74 81.0204 260.83C81.3904 260.91 81.7254 261.025 82.0254 261.175C82.3354 261.315 82.5804 261.52 82.7604 261.79C82.9504 262.05 83.0454 262.395 83.0454 262.825C83.0454 263.285 82.9154 263.685 82.6554 264.025C82.4054 264.355 82.0354 264.615 81.5454 264.805C81.0654 264.985 80.4804 265.075 79.7904 265.075ZM87.4896 265.075C86.7496 265.075 86.1796 264.875 85.7796 264.475C85.3796 264.075 85.1796 263.51 85.1796 262.78V255.385H86.2446V262.72C86.2446 263.18 86.3596 263.535 86.5896 263.785C86.8296 264.035 87.1696 264.16 87.6096 264.16C88.0796 264.16 88.4696 264.025 88.7796 263.755L89.1546 264.52C88.9446 264.71 88.6896 264.85 88.3896 264.94C88.0996 265.03 87.7996 265.075 87.4896 265.075ZM83.7696 258.01V257.125H88.6446V258.01H83.7696ZM91.0934 265V257.125H92.1584V265H91.0934ZM91.6334 255.385C91.4134 255.385 91.2284 255.31 91.0784 255.16C90.9284 255.01 90.8534 254.83 90.8534 254.62C90.8534 254.41 90.9284 254.235 91.0784 254.095C91.2284 253.945 91.4134 253.87 91.6334 253.87C91.8534 253.87 92.0384 253.94 92.1884 254.08C92.3384 254.22 92.4134 254.395 92.4134 254.605C92.4134 254.825 92.3384 255.01 92.1884 255.16C92.0484 255.31 91.8634 255.385 91.6334 255.385ZM98.3317 265.075C97.5717 265.075 96.8867 264.905 96.2767 264.565C95.6767 264.215 95.2017 263.74 94.8517 263.14C94.5017 262.53 94.3267 261.835 94.3267 261.055C94.3267 260.265 94.5017 259.57 94.8517 258.97C95.2017 258.37 95.6767 257.9 96.2767 257.56C96.8767 257.22 97.5617 257.05 98.3317 257.05C99.1117 257.05 99.8017 257.22 100.402 257.56C101.012 257.9 101.487 258.37 101.827 258.97C102.177 259.57 102.352 260.265 102.352 261.055C102.352 261.835 102.177 262.53 101.827 263.14C101.487 263.74 101.012 264.215 100.402 264.565C99.7917 264.905 99.1017 265.075 98.3317 265.075ZM98.3317 264.13C98.9017 264.13 99.4067 264.005 99.8467 263.755C100.287 263.495 100.632 263.135 100.882 262.675C101.142 262.205 101.272 261.665 101.272 261.055C101.272 260.435 101.142 259.895 100.882 259.435C100.632 258.975 100.287 258.62 99.8467 258.37C99.4067 258.11 98.9067 257.98 98.3467 257.98C97.7867 257.98 97.2867 258.11 96.8467 258.37C96.4067 258.62 96.0567 258.975 95.7967 259.435C95.5367 259.895 95.4067 260.435 95.4067 261.055C95.4067 261.665 95.5367 262.205 95.7967 262.675C96.0567 263.135 96.4067 263.495 96.8467 263.755C97.2867 264.005 97.7817 264.13 98.3317 264.13ZM108.546 257.05C109.186 257.05 109.746 257.175 110.226 257.425C110.716 257.665 111.096 258.035 111.366 258.535C111.646 259.035 111.786 259.665 111.786 260.425V265H110.721V260.53C110.721 259.7 110.511 259.075 110.091 258.655C109.681 258.225 109.101 258.01 108.351 258.01C107.791 258.01 107.301 258.125 106.881 258.355C106.471 258.575 106.151 258.9 105.921 259.33C105.701 259.75 105.591 260.26 105.591 260.86V265H104.526V257.125H105.546V259.285L105.381 258.88C105.631 258.31 106.031 257.865 106.581 257.545C107.131 257.215 107.786 257.05 108.546 257.05ZM114.768 265.075C114.548 265.075 114.358 264.995 114.198 264.835C114.048 264.675 113.973 264.48 113.973 264.25C113.973 264.01 114.048 263.815 114.198 263.665C114.358 263.515 114.548 263.44 114.768 263.44C114.988 263.44 115.173 263.515 115.323 263.665C115.483 263.815 115.563 264.01 115.563 264.25C115.563 264.48 115.483 264.675 115.323 264.835C115.173 264.995 114.988 265.075 114.768 265.075Z" fill="#434343"/>
<path d="M20.64 178.64H27.38V181.16H20.64V178.64ZM20.88 184.4H28.5V187H17.66V173H28.24V175.6H20.88V184.4ZM35.4194 187.16C34.406 187.16 33.4927 186.933 32.6794 186.48C31.866 186.013 31.2194 185.367 30.7394 184.54C30.2727 183.713 30.0394 182.74 30.0394 181.62C30.0394 180.487 30.2727 179.507 30.7394 178.68C31.2194 177.853 31.866 177.213 32.6794 176.76C33.4927 176.307 34.406 176.08 35.4194 176.08C36.326 176.08 37.1194 176.28 37.7994 176.68C38.4794 177.08 39.006 177.687 39.3794 178.5C39.7527 179.313 39.9394 180.353 39.9394 181.62C39.9394 182.873 39.7594 183.913 39.3994 184.74C39.0394 185.553 38.5194 186.16 37.8394 186.56C37.1727 186.96 36.366 187.16 35.4194 187.16ZM35.9594 184.6C36.466 184.6 36.926 184.48 37.3394 184.24C37.7527 184 38.0794 183.66 38.3194 183.22C38.5727 182.767 38.6994 182.233 38.6994 181.62C38.6994 180.993 38.5727 180.46 38.3194 180.02C38.0794 179.58 37.7527 179.24 37.3394 179C36.926 178.76 36.466 178.64 35.9594 178.64C35.4394 178.64 34.9727 178.76 34.5594 179C34.146 179.24 33.8127 179.58 33.5594 180.02C33.3194 180.46 33.1994 180.993 33.1994 181.62C33.1994 182.233 33.3194 182.767 33.5594 183.22C33.8127 183.66 34.146 184 34.5594 184.24C34.9727 184.48 35.4394 184.6 35.9594 184.6ZM38.7794 187V184.8L38.8394 181.6L38.6394 178.42V172.16H41.7594V187H38.7794ZM44.647 187V176.24H47.767V187H44.647ZM46.207 174.74C45.6337 174.74 45.167 174.573 44.807 174.24C44.447 173.907 44.267 173.493 44.267 173C44.267 172.507 44.447 172.093 44.807 171.76C45.167 171.427 45.6337 171.26 46.207 171.26C46.7804 171.26 47.247 171.42 47.607 171.74C47.967 172.047 48.147 172.447 48.147 172.94C48.147 173.46 47.967 173.893 47.607 174.24C47.2604 174.573 46.7937 174.74 46.207 174.74ZM55.0627 187.16C53.796 187.16 52.8093 186.84 52.1027 186.2C51.396 185.547 51.0427 184.58 51.0427 183.3V173.86H54.1627V183.26C54.1627 183.713 54.2827 184.067 54.5227 184.32C54.7627 184.56 55.0893 184.68 55.5027 184.68C55.996 184.68 56.416 184.547 56.7627 184.28L57.6027 186.48C57.2827 186.707 56.896 186.88 56.4427 187C56.0027 187.107 55.5427 187.16 55.0627 187.16ZM49.3827 178.88V176.48H56.8427V178.88H49.3827ZM70.0781 191.04C69.0648 191.04 68.0848 190.913 67.1381 190.66C66.2048 190.42 65.4248 190.053 64.7981 189.56L66.0381 187.32C66.4915 187.693 67.0648 187.987 67.7581 188.2C68.4648 188.427 69.1581 188.54 69.8381 188.54C70.9448 188.54 71.7448 188.293 72.2381 187.8C72.7448 187.307 72.9981 186.573 72.9981 185.6V183.98L73.1981 181.28L73.1581 178.56V176.24H76.1181V185.2C76.1181 187.2 75.5981 188.673 74.5581 189.62C73.5181 190.567 72.0248 191.04 70.0781 191.04ZM69.5981 186.48C68.5981 186.48 67.6915 186.267 66.8781 185.84C66.0781 185.4 65.4315 184.793 64.9381 184.02C64.4581 183.233 64.2181 182.32 64.2181 181.28C64.2181 180.227 64.4581 179.313 64.9381 178.54C65.4315 177.753 66.0781 177.147 66.8781 176.72C67.6915 176.293 68.5981 176.08 69.5981 176.08C70.5048 176.08 71.3048 176.267 71.9981 176.64C72.6915 177 73.2315 177.567 73.6181 178.34C74.0048 179.1 74.1981 180.08 74.1981 181.28C74.1981 182.467 74.0048 183.447 73.6181 184.22C73.2315 184.98 72.6915 185.547 71.9981 185.92C71.3048 186.293 70.5048 186.48 69.5981 186.48ZM70.2181 183.92C70.7648 183.92 71.2515 183.813 71.6781 183.6C72.1048 183.373 72.4381 183.06 72.6781 182.66C72.9181 182.26 73.0381 181.8 73.0381 181.28C73.0381 180.747 72.9181 180.287 72.6781 179.9C72.4381 179.5 72.1048 179.193 71.6781 178.98C71.2515 178.753 70.7648 178.64 70.2181 178.64C69.6715 178.64 69.1848 178.753 68.7581 178.98C68.3315 179.193 67.9915 179.5 67.7381 179.9C67.4981 180.287 67.3781 180.747 67.3781 181.28C67.3781 181.8 67.4981 182.26 67.7381 182.66C67.9915 183.06 68.3315 183.373 68.7581 183.6C69.1848 183.813 69.6715 183.92 70.2181 183.92ZM84.362 187.16C83.1354 187.16 82.0554 186.92 81.122 186.44C80.202 185.96 79.4887 185.307 78.982 184.48C78.4754 183.64 78.222 182.687 78.222 181.62C78.222 180.54 78.4687 179.587 78.962 178.76C79.4687 177.92 80.1554 177.267 81.022 176.8C81.8887 176.32 82.8687 176.08 83.962 176.08C85.0154 176.08 85.962 176.307 86.802 176.76C87.6554 177.2 88.3287 177.84 88.822 178.68C89.3154 179.507 89.562 180.5 89.562 181.66C89.562 181.78 89.5554 181.92 89.542 182.08C89.5287 182.227 89.5154 182.367 89.502 182.5H80.762V180.68H87.862L86.662 181.22C86.662 180.66 86.5487 180.173 86.322 179.76C86.0954 179.347 85.782 179.027 85.382 178.8C84.982 178.56 84.5154 178.44 83.982 178.44C83.4487 178.44 82.9754 178.56 82.562 178.8C82.162 179.027 81.8487 179.353 81.622 179.78C81.3954 180.193 81.282 180.687 81.282 181.26V181.74C81.282 182.327 81.4087 182.847 81.662 183.3C81.9287 183.74 82.2954 184.08 82.762 184.32C83.242 184.547 83.802 184.66 84.442 184.66C85.0154 184.66 85.5154 184.573 85.942 184.4C86.382 184.227 86.782 183.967 87.142 183.62L88.802 185.42C88.3087 185.98 87.6887 186.413 86.942 186.72C86.1954 187.013 85.3354 187.16 84.362 187.16ZM98.1792 176.08C99.0326 176.08 99.7926 176.253 100.459 176.6C101.139 176.933 101.673 177.453 102.059 178.16C102.446 178.853 102.639 179.747 102.639 180.84V187H99.5192V181.32C99.5192 180.453 99.3259 179.813 98.9392 179.4C98.5659 178.987 98.0326 178.78 97.3392 178.78C96.8459 178.78 96.3992 178.887 95.9992 179.1C95.6126 179.3 95.3059 179.613 95.0792 180.04C94.8659 180.467 94.7592 181.013 94.7592 181.68V187H91.6392V176.24H94.6192V179.22L94.0592 178.32C94.4459 177.6 94.9992 177.047 95.7192 176.66C96.4392 176.273 97.2592 176.08 98.1792 176.08ZM110.885 187.16C109.659 187.16 108.579 186.92 107.645 186.44C106.725 185.96 106.012 185.307 105.505 184.48C104.999 183.64 104.745 182.687 104.745 181.62C104.745 180.54 104.992 179.587 105.485 178.76C105.992 177.92 106.679 177.267 107.545 176.8C108.412 176.32 109.392 176.08 110.485 176.08C111.539 176.08 112.485 176.307 113.325 176.76C114.179 177.2 114.852 177.84 115.345 178.68C115.839 179.507 116.085 180.5 116.085 181.66C116.085 181.78 116.079 181.92 116.065 182.08C116.052 182.227 116.039 182.367 116.025 182.5H107.285V180.68H114.385L113.185 181.22C113.185 180.66 113.072 180.173 112.845 179.76C112.619 179.347 112.305 179.027 111.905 178.8C111.505 178.56 111.039 178.44 110.505 178.44C109.972 178.44 109.499 178.56 109.085 178.8C108.685 179.027 108.372 179.353 108.145 179.78C107.919 180.193 107.805 180.687 107.805 181.26V181.74C107.805 182.327 107.932 182.847 108.185 183.3C108.452 183.74 108.819 184.08 109.285 184.32C109.765 184.547 110.325 184.66 110.965 184.66C111.539 184.66 112.039 184.573 112.465 184.4C112.905 184.227 113.305 183.967 113.665 183.62L115.325 185.42C114.832 185.98 114.212 186.413 113.465 186.72C112.719 187.013 111.859 187.16 110.885 187.16ZM118.163 187V176.24H121.143V179.28L120.723 178.4C121.043 177.64 121.556 177.067 122.263 176.68C122.969 176.28 123.829 176.08 124.843 176.08V178.96C124.709 178.947 124.589 178.94 124.483 178.94C124.376 178.927 124.263 178.92 124.143 178.92C123.289 178.92 122.596 179.167 122.063 179.66C121.543 180.14 121.283 180.893 121.283 181.92V187H118.163ZM132.595 187V184.9L132.395 184.44V180.68C132.395 180.013 132.188 179.493 131.775 179.12C131.375 178.747 130.755 178.56 129.915 178.56C129.341 178.56 128.775 178.653 128.215 178.84C127.668 179.013 127.201 179.253 126.815 179.56L125.695 177.38C126.281 176.967 126.988 176.647 127.815 176.42C128.641 176.193 129.481 176.08 130.335 176.08C131.975 176.08 133.248 176.467 134.155 177.24C135.061 178.013 135.515 179.22 135.515 180.86V187H132.595ZM129.315 187.16C128.475 187.16 127.755 187.02 127.155 186.74C126.555 186.447 126.095 186.053 125.775 185.56C125.455 185.067 125.295 184.513 125.295 183.9C125.295 183.26 125.448 182.7 125.755 182.22C126.075 181.74 126.575 181.367 127.255 181.1C127.935 180.82 128.821 180.68 129.915 180.68H132.775V182.5H130.255C129.521 182.5 129.015 182.62 128.735 182.86C128.468 183.1 128.335 183.4 128.335 183.76C128.335 184.16 128.488 184.48 128.795 184.72C129.115 184.947 129.548 185.06 130.095 185.06C130.615 185.06 131.081 184.94 131.495 184.7C131.908 184.447 132.208 184.08 132.395 183.6L132.875 185.04C132.648 185.733 132.235 186.26 131.635 186.62C131.035 186.98 130.261 187.16 129.315 187.16ZM142.738 187.16C141.472 187.16 140.485 186.84 139.778 186.2C139.072 185.547 138.718 184.58 138.718 183.3V173.86H141.838V183.26C141.838 183.713 141.958 184.067 142.198 184.32C142.438 184.56 142.765 184.68 143.178 184.68C143.672 184.68 144.092 184.547 144.438 184.28L145.278 186.48C144.958 186.707 144.572 186.88 144.118 187C143.678 187.107 143.218 187.16 142.738 187.16ZM137.058 178.88V176.48H144.518V178.88H137.058ZM152.038 187.16C150.811 187.16 149.731 186.92 148.798 186.44C147.878 185.96 147.164 185.307 146.658 184.48C146.151 183.64 145.898 182.687 145.898 181.62C145.898 180.54 146.144 179.587 146.638 178.76C147.144 177.92 147.831 177.267 148.698 176.8C149.564 176.32 150.544 176.08 151.638 176.08C152.691 176.08 153.638 176.307 154.478 176.76C155.331 177.2 156.004 177.84 156.498 178.68C156.991 179.507 157.238 180.5 157.238 181.66C157.238 181.78 157.231 181.92 157.218 182.08C157.204 182.227 157.191 182.367 157.178 182.5H148.438V180.68H155.538L154.338 181.22C154.338 180.66 154.224 180.173 153.998 179.76C153.771 179.347 153.458 179.027 153.058 178.8C152.658 178.56 152.191 178.44 151.658 178.44C151.124 178.44 150.651 178.56 150.238 178.8C149.838 179.027 149.524 179.353 149.298 179.78C149.071 180.193 148.958 180.687 148.958 181.26V181.74C148.958 182.327 149.084 182.847 149.338 183.3C149.604 183.74 149.971 184.08 150.438 184.32C150.918 184.547 151.478 184.66 152.118 184.66C152.691 184.66 153.191 184.573 153.618 184.4C154.058 184.227 154.458 183.967 154.818 183.62L156.478 185.42C155.984 185.98 155.364 186.413 154.618 186.72C153.871 187.013 153.011 187.16 152.038 187.16ZM163.935 187.16C162.922 187.16 162.008 186.933 161.195 186.48C160.382 186.013 159.735 185.367 159.255 184.54C158.788 183.713 158.555 182.74 158.555 181.62C158.555 180.487 158.788 179.507 159.255 178.68C159.735 177.853 160.382 177.213 161.195 176.76C162.008 176.307 162.922 176.08 163.935 176.08C164.842 176.08 165.635 176.28 166.315 176.68C166.995 177.08 167.522 177.687 167.895 178.5C168.268 179.313 168.455 180.353 168.455 181.62C168.455 182.873 168.275 183.913 167.915 184.74C167.555 185.553 167.035 186.16 166.355 186.56C165.688 186.96 164.882 187.16 163.935 187.16ZM164.475 184.6C164.982 184.6 165.442 184.48 165.855 184.24C166.268 184 166.595 183.66 166.835 183.22C167.088 182.767 167.215 182.233 167.215 181.62C167.215 180.993 167.088 180.46 166.835 180.02C166.595 179.58 166.268 179.24 165.855 179C165.442 178.76 164.982 178.64 164.475 178.64C163.955 178.64 163.488 178.76 163.075 179C162.662 179.24 162.328 179.58 162.075 180.02C161.835 180.46 161.715 180.993 161.715 181.62C161.715 182.233 161.835 182.767 162.075 183.22C162.328 183.66 162.662 184 163.075 184.24C163.488 184.48 163.955 184.6 164.475 184.6ZM167.295 187V184.8L167.355 181.6L167.155 178.42V172.16H170.275V187H167.295ZM184.167 187.16C182.94 187.16 181.86 186.92 180.927 186.44C180.007 185.96 179.293 185.307 178.787 184.48C178.28 183.64 178.027 182.687 178.027 181.62C178.027 180.54 178.273 179.587 178.767 178.76C179.273 177.92 179.96 177.267 180.827 176.8C181.693 176.32 182.673 176.08 183.767 176.08C184.82 176.08 185.767 176.307 186.607 176.76C187.46 177.2 188.133 177.84 188.627 178.68C189.12 179.507 189.367 180.5 189.367 181.66C189.367 181.78 189.36 181.92 189.347 182.08C189.333 182.227 189.32 182.367 189.307 182.5H180.567V180.68H187.667L186.467 181.22C186.467 180.66 186.353 180.173 186.127 179.76C185.9 179.347 185.587 179.027 185.187 178.8C184.787 178.56 184.32 178.44 183.787 178.44C183.253 178.44 182.78 178.56 182.367 178.8C181.967 179.027 181.653 179.353 181.427 179.78C181.2 180.193 181.087 180.687 181.087 181.26V181.74C181.087 182.327 181.213 182.847 181.467 183.3C181.733 183.74 182.1 184.08 182.567 184.32C183.047 184.547 183.607 184.66 184.247 184.66C184.82 184.66 185.32 184.573 185.747 184.4C186.187 184.227 186.587 183.967 186.947 183.62L188.607 185.42C188.113 185.98 187.493 186.413 186.747 186.72C186 187.013 185.14 187.16 184.167 187.16ZM189.791 187L194.611 180.68L194.551 182.4L189.931 176.24H193.431L196.351 180.26L195.031 180.3L198.051 176.24H201.371L196.731 182.34V180.66L201.531 187H197.991L194.931 182.72L196.231 182.9L193.191 187H189.791ZM209.45 187V184.9L209.25 184.44V180.68C209.25 180.013 209.043 179.493 208.63 179.12C208.23 178.747 207.61 178.56 206.77 178.56C206.197 178.56 205.63 178.653 205.07 178.84C204.523 179.013 204.057 179.253 203.67 179.56L202.55 177.38C203.137 176.967 203.843 176.647 204.67 176.42C205.497 176.193 206.337 176.08 207.19 176.08C208.83 176.08 210.103 176.467 211.01 177.24C211.917 178.013 212.37 179.22 212.37 180.86V187H209.45ZM206.17 187.16C205.33 187.16 204.61 187.02 204.01 186.74C203.41 186.447 202.95 186.053 202.63 185.56C202.31 185.067 202.15 184.513 202.15 183.9C202.15 183.26 202.303 182.7 202.61 182.22C202.93 181.74 203.43 181.367 204.11 181.1C204.79 180.82 205.677 180.68 206.77 180.68H209.63V182.5H207.11C206.377 182.5 205.87 182.62 205.59 182.86C205.323 183.1 205.19 183.4 205.19 183.76C205.19 184.16 205.343 184.48 205.65 184.72C205.97 184.947 206.403 185.06 206.95 185.06C207.47 185.06 207.937 184.94 208.35 184.7C208.763 184.447 209.063 184.08 209.25 183.6L209.73 185.04C209.503 185.733 209.09 186.26 208.49 186.62C207.89 186.98 207.117 187.16 206.17 187.16ZM228.974 176.08C229.827 176.08 230.581 176.253 231.234 176.6C231.901 176.933 232.421 177.453 232.794 178.16C233.181 178.853 233.374 179.747 233.374 180.84V187H230.254V181.32C230.254 180.453 230.074 179.813 229.714 179.4C229.354 178.987 228.847 178.78 228.194 178.78C227.741 178.78 227.334 178.887 226.974 179.1C226.614 179.3 226.334 179.607 226.134 180.02C225.934 180.433 225.834 180.96 225.834 181.6V187H222.714V181.32C222.714 180.453 222.534 179.813 222.174 179.4C221.827 178.987 221.327 178.78 220.674 178.78C220.221 178.78 219.814 178.887 219.454 179.1C219.094 179.3 218.814 179.607 218.614 180.02C218.414 180.433 218.314 180.96 218.314 181.6V187H215.194V176.24H218.174V179.18L217.614 178.32C217.987 177.587 218.514 177.033 219.194 176.66C219.887 176.273 220.674 176.08 221.554 176.08C222.541 176.08 223.401 176.333 224.134 176.84C224.881 177.333 225.374 178.093 225.614 179.12L224.514 178.82C224.874 177.98 225.447 177.313 226.234 176.82C227.034 176.327 227.947 176.08 228.974 176.08Z" fill="#434343"/>
<defs>
<filter id="filter0_di_87_645" x="0" y="0" width="314" height="342" filterUnits="userSpaceOnUse" color-interpolation-filters="sRGB">
<feFlood flood-opacity="0" result="BackgroundImageFix"/>
<feColorMatrix in="SourceAlpha" type="matrix" values="0 0 0 0 0 0 0 0 0 0 0 0 0 0 0 0 0 0 127 0" result="hardAlpha"/>
<feOffset dy="4"/>
<feGaussianBlur stdDeviation="2"/>
<feComposite in2="hardAlpha" operator="out"/>
<feColorMatrix type="matrix" values="0 0 0 0 0 0 0 0 0 0 0 0 0 0 0 0 0 0 0.25 0"/>
<feBlend mode="normal" in2="BackgroundImageFix" result="effect1_dropShadow_87_645"/>
<feBlend mode="normal" in="SourceGraphic" in2="effect1_dropShadow_87_645" result="shape"/>
<feColorMatrix in="SourceAlpha" type="matrix" values="0 0 0 0 0 0 0 0 0 0 0 0 0 0 0 0 0 0 127 0" result="hardAlpha"/>
<feOffset dy="10"/>
<feGaussianBlur stdDeviation="3"/>
<feComposite in2="hardAlpha" operator="arithmetic" k2="-1" k3="1"/>
<feColorMatrix type="matrix" values="0 0 0 0 0 0 0 0 0 0 0 0 0 0 0 0 0 0 0.25 0"/>
<feBlend mode="normal" in2="shape" result="effect2_innerShadow_87_645"/>
</filter>
<filter id="filter1_d_87_645" x="107" y="40" width="104" height="83" filterUnits="userSpaceOnUse" color-interpolation-filters="sRGB">
<feFlood flood-opacity="0" result="BackgroundImageFix"/>
<feColorMatrix in="SourceAlpha" type="matrix" values="0 0 0 0 0 0 0 0 0 0 0 0 0 0 0 0 0 0 127 0" result="hardAlpha"/>
<feOffset dy="4"/>
<feGaussianBlur stdDeviation="2"/>
<feComposite in2="hardAlpha" operator="out"/>
<feColorMatrix type="matrix" values="0 0 0 0 0 0 0 0 0 0 0 0 0 0 0 0 0 0 0.25 0"/>
<feBlend mode="normal" in2="BackgroundImageFix" result="effect1_dropShadow_87_645"/>
<feBlend mode="normal" in="SourceGraphic" in2="effect1_dropShadow_87_645" result="shape"/>
</filter>
</defs>
</svg>
