<svg width="184" height="334" viewBox="0 0 184 334" fill="none" xmlns="http://www.w3.org/2000/svg">
<g clip-path="url(#clip0_90_752)">
<g filter="url(#filter0_di_90_752)">
<rect width="306" height="334" rx="29" fill="#D9D9D9"/>
</g>
<path d="M13.71 229V218.5H14.625L19.425 226.69H18.945L23.7 218.5H24.615V229H23.55V220.165H23.805L19.425 227.665H18.9L14.49 220.165H14.775V229H13.71ZM32.7462 229V227.26L32.7012 226.975V224.065C32.7012 223.395 32.5112 222.88 32.1312 222.52C31.7612 222.16 31.2062 221.98 30.4662 221.98C29.9562 221.98 29.4712 222.065 29.0112 222.235C28.5512 222.405 28.1612 222.63 27.8412 222.91L27.3612 222.115C27.7612 221.775 28.2412 221.515 28.8012 221.335C29.3612 221.145 29.9512 221.05 30.5712 221.05C31.5912 221.05 32.3762 221.305 32.9262 221.815C33.4862 222.315 33.7662 223.08 33.7662 224.11V229H32.7462ZM30.0312 229.075C29.4412 229.075 28.9262 228.98 28.4862 228.79C28.0562 228.59 27.7262 228.32 27.4962 227.98C27.2662 227.63 27.1512 227.23 27.1512 226.78C27.1512 226.37 27.2462 226 27.4362 225.67C27.6362 225.33 27.9562 225.06 28.3962 224.86C28.8462 224.65 29.4462 224.545 30.1962 224.545H32.9112V225.34H30.2262C29.4662 225.34 28.9362 225.475 28.6362 225.745C28.3462 226.015 28.2012 226.35 28.2012 226.75C28.2012 227.2 28.3762 227.56 28.7262 227.83C29.0762 228.1 29.5662 228.235 30.1962 228.235C30.7962 228.235 31.3112 228.1 31.7412 227.83C32.1812 227.55 32.5012 227.15 32.7012 226.63L32.9412 227.365C32.7412 227.885 32.3912 228.3 31.8912 228.61C31.4012 228.92 30.7812 229.075 30.0312 229.075ZM40.6788 221.05C41.3188 221.05 41.8788 221.175 42.3588 221.425C42.8488 221.665 43.2288 222.035 43.4988 222.535C43.7788 223.035 43.9188 223.665 43.9188 224.425V229H42.8538V224.53C42.8538 223.7 42.6438 223.075 42.2238 222.655C41.8138 222.225 41.2338 222.01 40.4838 222.01C39.9238 222.01 39.4338 222.125 39.0138 222.355C38.6038 222.575 38.2838 222.9 38.0538 223.33C37.8338 223.75 37.7238 224.26 37.7238 224.86V229H36.6588V221.125H37.6788V223.285L37.5138 222.88C37.7638 222.31 38.1638 221.865 38.7138 221.545C39.2638 221.215 39.9188 221.05 40.6788 221.05ZM50.0505 229.075C49.3805 229.075 48.7955 228.95 48.2955 228.7C47.7955 228.45 47.4055 228.075 47.1255 227.575C46.8555 227.075 46.7205 226.45 46.7205 225.7V221.125H47.7855V225.58C47.7855 226.42 47.9905 227.055 48.4005 227.485C48.8205 227.905 49.4055 228.115 50.1555 228.115C50.7055 228.115 51.1805 228.005 51.5805 227.785C51.9905 227.555 52.3005 227.225 52.5105 226.795C52.7305 226.365 52.8405 225.85 52.8405 225.25V221.125H53.9055V229H52.8855V226.84L53.0505 227.23C52.8005 227.81 52.4105 228.265 51.8805 228.595C51.3605 228.915 50.7505 229.075 50.0505 229.075ZM61.8087 229V227.26L61.7637 226.975V224.065C61.7637 223.395 61.5737 222.88 61.1937 222.52C60.8237 222.16 60.2687 221.98 59.5287 221.98C59.0187 221.98 58.5337 222.065 58.0737 222.235C57.6137 222.405 57.2237 222.63 56.9037 222.91L56.4237 222.115C56.8237 221.775 57.3037 221.515 57.8637 221.335C58.4237 221.145 59.0137 221.05 59.6337 221.05C60.6537 221.05 61.4387 221.305 61.9887 221.815C62.5487 222.315 62.8287 223.08 62.8287 224.11V229H61.8087ZM59.0937 229.075C58.5037 229.075 57.9887 228.98 57.5487 228.79C57.1187 228.59 56.7887 228.32 56.5587 227.98C56.3287 227.63 56.2137 227.23 56.2137 226.78C56.2137 226.37 56.3087 226 56.4987 225.67C56.6987 225.33 57.0187 225.06 57.4587 224.86C57.9087 224.65 58.5087 224.545 59.2587 224.545H61.9737V225.34H59.2887C58.5287 225.34 57.9987 225.475 57.6987 225.745C57.4087 226.015 57.2637 226.35 57.2637 226.75C57.2637 227.2 57.4387 227.56 57.7887 227.83C58.1387 228.1 58.6287 228.235 59.2587 228.235C59.8587 228.235 60.3737 228.1 60.8037 227.83C61.2437 227.55 61.5637 227.15 61.7637 226.63L62.0037 227.365C61.8037 227.885 61.4537 228.3 60.9537 228.61C60.4637 228.92 59.8437 229.075 59.0937 229.075ZM65.7213 229V217.87H66.7863V229H65.7213ZM69.7496 229V217.87H70.8146V229H69.7496ZM73.838 231.985C73.468 231.985 73.113 231.925 72.773 231.805C72.443 231.685 72.158 231.505 71.918 231.265L72.413 230.47C72.613 230.66 72.828 230.805 73.058 230.905C73.298 231.015 73.563 231.07 73.853 231.07C74.203 231.07 74.503 230.97 74.753 230.77C75.013 230.58 75.258 230.24 75.488 229.75L75.998 228.595L76.118 228.43L79.358 221.125H80.408L76.463 229.945C76.243 230.455 75.998 230.86 75.728 231.16C75.468 231.46 75.183 231.67 74.873 231.79C74.563 231.92 74.218 231.985 73.838 231.985ZM75.938 229.225L72.308 221.125H73.418L76.628 228.355L75.938 229.225ZM89.0886 229.075C88.4186 229.075 87.8336 228.95 87.3336 228.7C86.8336 228.45 86.4436 228.075 86.1636 227.575C85.8936 227.075 85.7586 226.45 85.7586 225.7V221.125H86.8236V225.58C86.8236 226.42 87.0286 227.055 87.4386 227.485C87.8586 227.905 88.4436 228.115 89.1936 228.115C89.7436 228.115 90.2186 228.005 90.6186 227.785C91.0286 227.555 91.3386 227.225 91.5486 226.795C91.7686 226.365 91.8786 225.85 91.8786 225.25V221.125H92.9436V229H91.9236V226.84L92.0886 227.23C91.8386 227.81 91.4486 228.265 90.9186 228.595C90.3986 228.915 89.7886 229.075 89.0886 229.075ZM98.0268 229.075C97.3768 229.075 96.7618 228.985 96.1818 228.805C95.6018 228.615 95.1468 228.38 94.8168 228.1L95.2968 227.26C95.6168 227.5 96.0268 227.71 96.5268 227.89C97.0268 228.06 97.5518 228.145 98.1018 228.145C98.8518 228.145 99.3918 228.03 99.7218 227.8C100.052 227.56 100.217 227.245 100.217 226.855C100.217 226.565 100.122 226.34 99.9318 226.18C99.7518 226.01 99.5118 225.885 99.2118 225.805C98.9118 225.715 98.5768 225.64 98.2068 225.58C97.8368 225.52 97.4668 225.45 97.0968 225.37C96.7368 225.29 96.4068 225.175 96.1068 225.025C95.8068 224.865 95.5618 224.65 95.3718 224.38C95.1918 224.11 95.1018 223.75 95.1018 223.3C95.1018 222.87 95.2218 222.485 95.4618 222.145C95.7018 221.805 96.0518 221.54 96.5118 221.35C96.9818 221.15 97.5518 221.05 98.2218 221.05C98.7318 221.05 99.2418 221.12 99.7518 221.26C100.262 221.39 100.682 221.565 101.012 221.785L100.547 222.64C100.197 222.4 99.8218 222.23 99.4218 222.13C99.0218 222.02 98.6218 221.965 98.2218 221.965C97.5118 221.965 96.9868 222.09 96.6468 222.34C96.3168 222.58 96.1518 222.89 96.1518 223.27C96.1518 223.57 96.2418 223.805 96.4218 223.975C96.6118 224.145 96.8568 224.28 97.1568 224.38C97.4668 224.47 97.8018 224.545 98.1618 224.605C98.5318 224.665 98.8968 224.74 99.2568 224.83C99.6268 224.91 99.9618 225.025 100.262 225.175C100.572 225.315 100.817 225.52 100.997 225.79C101.187 226.05 101.282 226.395 101.282 226.825C101.282 227.285 101.152 227.685 100.892 228.025C100.642 228.355 100.272 228.615 99.7818 228.805C99.3018 228.985 98.7168 229.075 98.0268 229.075ZM106.581 229.075C105.761 229.075 105.041 228.905 104.421 228.565C103.801 228.215 103.316 227.74 102.966 227.14C102.616 226.53 102.441 225.835 102.441 225.055C102.441 224.275 102.606 223.585 102.936 222.985C103.276 222.385 103.736 221.915 104.316 221.575C104.906 221.225 105.566 221.05 106.296 221.05C107.036 221.05 107.691 221.22 108.261 221.56C108.841 221.89 109.296 222.36 109.626 222.97C109.956 223.57 110.121 224.265 110.121 225.055C110.121 225.105 110.116 225.16 110.106 225.22C110.106 225.27 110.106 225.325 110.106 225.385H103.251V224.59H109.536L109.116 224.905C109.116 224.335 108.991 223.83 108.741 223.39C108.501 222.94 108.171 222.59 107.751 222.34C107.331 222.09 106.846 221.965 106.296 221.965C105.756 221.965 105.271 222.09 104.841 222.34C104.411 222.59 104.076 222.94 103.836 223.39C103.596 223.84 103.476 224.355 103.476 224.935V225.1C103.476 225.7 103.606 226.23 103.866 226.69C104.136 227.14 104.506 227.495 104.976 227.755C105.456 228.005 106.001 228.13 106.611 228.13C107.091 228.13 107.536 228.045 107.946 227.875C108.366 227.705 108.726 227.445 109.026 227.095L109.626 227.785C109.276 228.205 108.836 228.525 108.306 228.745C107.786 228.965 107.211 229.075 106.581 229.075ZM118.704 229.075C117.964 229.075 117.394 228.875 116.994 228.475C116.594 228.075 116.394 227.51 116.394 226.78V219.385H117.459V226.72C117.459 227.18 117.574 227.535 117.804 227.785C118.044 228.035 118.384 228.16 118.824 228.16C119.294 228.16 119.684 228.025 119.994 227.755L120.369 228.52C120.159 228.71 119.904 228.85 119.604 228.94C119.314 229.03 119.014 229.075 118.704 229.075ZM114.984 222.01V221.125H119.859V222.01H114.984ZM126.328 221.05C126.968 221.05 127.528 221.175 128.008 221.425C128.498 221.665 128.878 222.035 129.148 222.535C129.428 223.035 129.568 223.665 129.568 224.425V229H128.503V224.53C128.503 223.7 128.293 223.075 127.873 222.655C127.463 222.225 126.883 222.01 126.133 222.01C125.573 222.01 125.083 222.125 124.663 222.355C124.253 222.575 123.933 222.9 123.703 223.33C123.483 223.75 123.373 224.26 123.373 224.86V229H122.308V217.87H123.373V223.285L123.163 222.88C123.413 222.31 123.813 221.865 124.363 221.545C124.913 221.215 125.568 221.05 126.328 221.05ZM135.79 229.075C134.97 229.075 134.25 228.905 133.63 228.565C133.01 228.215 132.525 227.74 132.175 227.14C131.825 226.53 131.65 225.835 131.65 225.055C131.65 224.275 131.815 223.585 132.145 222.985C132.485 222.385 132.945 221.915 133.525 221.575C134.115 221.225 134.775 221.05 135.505 221.05C136.245 221.05 136.9 221.22 137.47 221.56C138.05 221.89 138.505 222.36 138.835 222.97C139.165 223.57 139.33 224.265 139.33 225.055C139.33 225.105 139.325 225.16 139.315 225.22C139.315 225.27 139.315 225.325 139.315 225.385H132.46V224.59H138.745L138.325 224.905C138.325 224.335 138.2 223.83 137.95 223.39C137.71 222.94 137.38 222.59 136.96 222.34C136.54 222.09 136.055 221.965 135.505 221.965C134.965 221.965 134.48 222.09 134.05 222.34C133.62 222.59 133.285 222.94 133.045 223.39C132.805 223.84 132.685 224.355 132.685 224.935V225.1C132.685 225.7 132.815 226.23 133.075 226.69C133.345 227.14 133.715 227.495 134.185 227.755C134.665 228.005 135.21 228.13 135.82 228.13C136.3 228.13 136.745 228.045 137.155 227.875C137.575 227.705 137.935 227.445 138.235 227.095L138.835 227.785C138.485 228.205 138.045 228.525 137.515 228.745C136.995 228.965 136.42 229.075 135.79 229.075ZM145.423 229V221.125H146.488V229H145.423ZM145.963 219.385C145.743 219.385 145.558 219.31 145.408 219.16C145.258 219.01 145.183 218.83 145.183 218.62C145.183 218.41 145.258 218.235 145.408 218.095C145.558 217.945 145.743 217.87 145.963 217.87C146.183 217.87 146.368 217.94 146.518 218.08C146.668 218.22 146.743 218.395 146.743 218.605C146.743 218.825 146.668 219.01 146.518 219.16C146.378 219.31 146.193 219.385 145.963 219.385ZM153.472 221.05C154.112 221.05 154.672 221.175 155.152 221.425C155.642 221.665 156.022 222.035 156.292 222.535C156.572 223.035 156.712 223.665 156.712 224.425V229H155.647V224.53C155.647 223.7 155.437 223.075 155.017 222.655C154.607 222.225 154.027 222.01 153.277 222.01C152.717 222.01 152.227 222.125 151.807 222.355C151.397 222.575 151.077 222.9 150.847 223.33C150.627 223.75 150.517 224.26 150.517 224.86V229H149.452V221.125H150.472V223.285L150.307 222.88C150.557 222.31 150.957 221.865 151.507 221.545C152.057 221.215 152.712 221.05 153.472 221.05ZM163.654 229.075C162.974 229.075 162.359 228.92 161.809 228.61C161.259 228.29 160.819 227.835 160.489 227.245C160.169 226.645 160.009 225.915 160.009 225.055C160.009 224.195 160.169 223.47 160.489 222.88C160.809 222.28 161.244 221.825 161.794 221.515C162.344 221.205 162.964 221.05 163.654 221.05C164.404 221.05 165.074 221.22 165.664 221.56C166.264 221.89 166.734 222.36 167.074 222.97C167.414 223.57 167.584 224.265 167.584 225.055C167.584 225.855 167.414 226.555 167.074 227.155C166.734 227.755 166.264 228.225 165.664 228.565C165.074 228.905 164.404 229.075 163.654 229.075ZM159.589 231.91V221.125H160.609V223.495L160.504 225.07L160.654 226.66V231.91H159.589ZM163.579 228.13C164.139 228.13 164.639 228.005 165.079 227.755C165.519 227.495 165.869 227.135 166.129 226.675C166.389 226.205 166.519 225.665 166.519 225.055C166.519 224.445 166.389 223.91 166.129 223.45C165.869 222.99 165.519 222.63 165.079 222.37C164.639 222.11 164.139 221.98 163.579 221.98C163.019 221.98 162.514 222.11 162.064 222.37C161.624 222.63 161.274 222.99 161.014 223.45C160.764 223.91 160.639 224.445 160.639 225.055C160.639 225.665 160.764 226.205 161.014 226.675C161.274 227.135 161.624 227.495 162.064 227.755C162.514 228.005 163.019 228.13 163.579 228.13ZM173.01 229.075C172.34 229.075 171.755 228.95 171.255 228.7C170.755 228.45 170.365 228.075 170.085 227.575C169.815 227.075 169.68 226.45 169.68 225.7V221.125H170.745V225.58C170.745 226.42 170.95 227.055 171.36 227.485C171.78 227.905 172.365 228.115 173.115 228.115C173.665 228.115 174.14 228.005 174.54 227.785C174.95 227.555 175.26 227.225 175.47 226.795C175.69 226.365 175.8 225.85 175.8 225.25V221.125H176.865V229H175.845V226.84L176.01 227.23C175.76 227.81 175.37 228.265 174.84 228.595C174.32 228.915 173.71 229.075 173.01 229.075ZM182.323 229.075C181.583 229.075 181.013 228.875 180.613 228.475C180.213 228.075 180.013 227.51 180.013 226.78V219.385H181.078V226.72C181.078 227.18 181.193 227.535 181.423 227.785C181.663 228.035 182.003 228.16 182.443 228.16C182.913 228.16 183.303 228.025 183.613 227.755L183.988 228.52C183.778 228.71 183.523 228.85 183.223 228.94C182.933 229.03 182.633 229.075 182.323 229.075ZM178.603 222.01V221.125H183.478V222.01H178.603ZM191.967 229.075C191.317 229.075 190.702 228.985 190.122 228.805C189.542 228.615 189.087 228.38 188.757 228.1L189.237 227.26C189.557 227.5 189.967 227.71 190.467 227.89C190.967 228.06 191.492 228.145 192.042 228.145C192.792 228.145 193.332 228.03 193.662 227.8C193.992 227.56 194.157 227.245 194.157 226.855C194.157 226.565 194.062 226.34 193.872 226.18C193.692 226.01 193.452 225.885 193.152 225.805C192.852 225.715 192.517 225.64 192.147 225.58C191.777 225.52 191.407 225.45 191.037 225.37C190.677 225.29 190.347 225.175 190.047 225.025C189.747 224.865 189.502 224.65 189.312 224.38C189.132 224.11 189.042 223.75 189.042 223.3C189.042 222.87 189.162 222.485 189.402 222.145C189.642 221.805 189.992 221.54 190.452 221.35C190.922 221.15 191.492 221.05 192.162 221.05C192.672 221.05 193.182 221.12 193.692 221.26C194.202 221.39 194.622 221.565 194.952 221.785L194.487 222.64C194.137 222.4 193.762 222.23 193.362 222.13C192.962 222.02 192.562 221.965 192.162 221.965C191.452 221.965 190.927 222.09 190.587 222.34C190.257 222.58 190.092 222.89 190.092 223.27C190.092 223.57 190.182 223.805 190.362 223.975C190.552 224.145 190.797 224.28 191.097 224.38C191.407 224.47 191.742 224.545 192.102 224.605C192.472 224.665 192.837 224.74 193.197 224.83C193.567 224.91 193.902 225.025 194.202 225.175C194.512 225.315 194.757 225.52 194.937 225.79C195.127 226.05 195.222 226.395 195.222 226.825C195.222 227.285 195.092 227.685 194.832 228.025C194.582 228.355 194.212 228.615 193.722 228.805C193.242 228.985 192.657 229.075 191.967 229.075ZM201.241 229.075C200.561 229.075 199.946 228.92 199.396 228.61C198.846 228.29 198.406 227.835 198.076 227.245C197.756 226.645 197.596 225.915 197.596 225.055C197.596 224.195 197.756 223.47 198.076 222.88C198.396 222.28 198.831 221.825 199.381 221.515C199.931 221.205 200.551 221.05 201.241 221.05C201.991 221.05 202.661 221.22 203.251 221.56C203.851 221.89 204.321 222.36 204.661 222.97C205.001 223.57 205.171 224.265 205.171 225.055C205.171 225.855 205.001 226.555 204.661 227.155C204.321 227.755 203.851 228.225 203.251 228.565C202.661 228.905 201.991 229.075 201.241 229.075ZM197.176 231.91V221.125H198.196V223.495L198.091 225.07L198.241 226.66V231.91H197.176ZM201.166 228.13C201.726 228.13 202.226 228.005 202.666 227.755C203.106 227.495 203.456 227.135 203.716 226.675C203.976 226.205 204.106 225.665 204.106 225.055C204.106 224.445 203.976 223.91 203.716 223.45C203.456 222.99 203.106 222.63 202.666 222.37C202.226 222.11 201.726 221.98 201.166 221.98C200.606 221.98 200.101 222.11 199.651 222.37C199.211 222.63 198.861 222.99 198.601 223.45C198.351 223.91 198.226 224.445 198.226 225.055C198.226 225.665 198.351 226.205 198.601 226.675C198.861 227.135 199.211 227.495 199.651 227.755C200.101 228.005 200.606 228.13 201.166 228.13ZM212.233 229V227.26L212.188 226.975V224.065C212.188 223.395 211.998 222.88 211.618 222.52C211.248 222.16 210.693 221.98 209.953 221.98C209.443 221.98 208.958 222.065 208.498 222.235C208.038 222.405 207.648 222.63 207.328 222.91L206.848 222.115C207.248 221.775 207.728 221.515 208.288 221.335C208.848 221.145 209.438 221.05 210.058 221.05C211.078 221.05 211.863 221.305 212.413 221.815C212.973 222.315 213.253 223.08 213.253 224.11V229H212.233ZM209.518 229.075C208.928 229.075 208.413 228.98 207.973 228.79C207.543 228.59 207.213 228.32 206.983 227.98C206.753 227.63 206.638 227.23 206.638 226.78C206.638 226.37 206.733 226 206.923 225.67C207.123 225.33 207.443 225.06 207.883 224.86C208.333 224.65 208.933 224.545 209.683 224.545H212.398V225.34H209.713C208.953 225.34 208.423 225.475 208.123 225.745C207.833 226.015 207.688 226.35 207.688 226.75C207.688 227.2 207.863 227.56 208.213 227.83C208.563 228.1 209.053 228.235 209.683 228.235C210.283 228.235 210.798 228.1 211.228 227.83C211.668 227.55 211.988 227.15 212.188 226.63L212.428 227.365C212.228 227.885 211.878 228.3 211.378 228.61C210.888 228.92 210.268 229.075 209.518 229.075ZM219.416 229.075C218.636 229.075 217.936 228.905 217.316 228.565C216.706 228.215 216.226 227.74 215.876 227.14C215.526 226.53 215.351 225.835 215.351 225.055C215.351 224.265 215.526 223.57 215.876 222.97C216.226 222.37 216.706 221.9 217.316 221.56C217.936 221.22 218.636 221.05 219.416 221.05C220.086 221.05 220.691 221.18 221.231 221.44C221.771 221.7 222.196 222.09 222.506 222.61L221.711 223.15C221.441 222.75 221.106 222.455 220.706 222.265C220.306 222.075 219.871 221.98 219.401 221.98C218.841 221.98 218.336 222.11 217.886 222.37C217.436 222.62 217.081 222.975 216.821 223.435C216.561 223.895 216.431 224.435 216.431 225.055C216.431 225.675 216.561 226.215 216.821 226.675C217.081 227.135 217.436 227.495 217.886 227.755C218.336 228.005 218.841 228.13 219.401 228.13C219.871 228.13 220.306 228.035 220.706 227.845C221.106 227.655 221.441 227.365 221.711 226.975L222.506 227.515C222.196 228.025 221.771 228.415 221.231 228.685C220.691 228.945 220.086 229.075 219.416 229.075ZM227.811 229.075C226.991 229.075 226.271 228.905 225.651 228.565C225.031 228.215 224.546 227.74 224.196 227.14C223.846 226.53 223.671 225.835 223.671 225.055C223.671 224.275 223.836 223.585 224.166 222.985C224.506 222.385 224.966 221.915 225.546 221.575C226.136 221.225 226.796 221.05 227.526 221.05C228.266 221.05 228.921 221.22 229.491 221.56C230.071 221.89 230.526 222.36 230.856 222.97C231.186 223.57 231.351 224.265 231.351 225.055C231.351 225.105 231.346 225.16 231.336 225.22C231.336 225.27 231.336 225.325 231.336 225.385H224.481V224.59H230.766L230.346 224.905C230.346 224.335 230.221 223.83 229.971 223.39C229.731 222.94 229.401 222.59 228.981 222.34C228.561 222.09 228.076 221.965 227.526 221.965C226.986 221.965 226.501 222.09 226.071 222.34C225.641 222.59 225.306 222.94 225.066 223.39C224.826 223.84 224.706 224.355 224.706 224.935V225.1C224.706 225.7 224.836 226.23 225.096 226.69C225.366 227.14 225.736 227.495 226.206 227.755C226.686 228.005 227.231 228.13 227.841 228.13C228.321 228.13 228.766 228.045 229.176 227.875C229.596 227.705 229.956 227.445 230.256 227.095L230.856 227.785C230.506 228.205 230.066 228.525 229.536 228.745C229.016 228.965 228.441 229.075 227.811 229.075ZM237.625 229V220.135C237.625 219.435 237.83 218.87 238.24 218.44C238.65 218.01 239.24 217.795 240.01 217.795C240.31 217.795 240.6 217.835 240.88 217.915C241.16 217.995 241.395 218.12 241.585 218.29L241.225 219.085C241.075 218.955 240.9 218.86 240.7 218.8C240.5 218.73 240.285 218.695 240.055 218.695C239.605 218.695 239.26 218.82 239.02 219.07C238.78 219.32 238.66 219.69 238.66 220.18V221.38L238.69 221.875V229H237.625ZM236.215 222.01V221.125H241.09V222.01H236.215ZM245.606 229.075C244.846 229.075 244.161 228.905 243.551 228.565C242.951 228.215 242.476 227.74 242.126 227.14C241.776 226.53 241.601 225.835 241.601 225.055C241.601 224.265 241.776 223.57 242.126 222.97C242.476 222.37 242.951 221.9 243.551 221.56C244.151 221.22 244.836 221.05 245.606 221.05C246.386 221.05 247.076 221.22 247.676 221.56C248.286 221.9 248.761 222.37 249.101 222.97C249.451 223.57 249.626 224.265 249.626 225.055C249.626 225.835 249.451 226.53 249.101 227.14C248.761 227.74 248.286 228.215 247.676 228.565C247.066 228.905 246.376 229.075 245.606 229.075ZM245.606 228.13C246.176 228.13 246.681 228.005 247.121 227.755C247.561 227.495 247.906 227.135 248.156 226.675C248.416 226.205 248.546 225.665 248.546 225.055C248.546 224.435 248.416 223.895 248.156 223.435C247.906 222.975 247.561 222.62 247.121 222.37C246.681 222.11 246.181 221.98 245.621 221.98C245.061 221.98 244.561 222.11 244.121 222.37C243.681 222.62 243.331 222.975 243.071 223.435C242.811 223.895 242.681 224.435 242.681 225.055C242.681 225.665 242.811 226.205 243.071 226.675C243.331 227.135 243.681 227.495 244.121 227.755C244.561 228.005 245.056 228.13 245.606 228.13ZM251.8 229V221.125H252.82V223.27L252.715 222.895C252.935 222.295 253.305 221.84 253.825 221.53C254.345 221.21 254.99 221.05 255.76 221.05V222.085C255.72 222.085 255.68 222.085 255.64 222.085C255.6 222.075 255.56 222.07 255.52 222.07C254.69 222.07 254.04 222.325 253.57 222.835C253.1 223.335 252.865 224.05 252.865 224.98V229H251.8ZM13.545 249.985C13.175 249.985 12.82 249.925 12.48 249.805C12.15 249.685 11.865 249.505 11.625 249.265L12.12 248.47C12.32 248.66 12.535 248.805 12.765 248.905C13.005 249.015 13.27 249.07 13.56 249.07C13.91 249.07 14.21 248.97 14.46 248.77C14.72 248.58 14.965 248.24 15.195 247.75L15.705 246.595L15.825 246.43L19.065 239.125H20.115L16.17 247.945C15.95 248.455 15.705 248.86 15.435 249.16C15.175 249.46 14.89 249.67 14.58 249.79C14.27 249.92 13.925 249.985 13.545 249.985ZM15.645 247.225L12.015 239.125H13.125L16.335 246.355L15.645 247.225ZM24.6052 247.075C23.8452 247.075 23.1602 246.905 22.5502 246.565C21.9502 246.215 21.4752 245.74 21.1252 245.14C20.7752 244.53 20.6002 243.835 20.6002 243.055C20.6002 242.265 20.7752 241.57 21.1252 240.97C21.4752 240.37 21.9502 239.9 22.5502 239.56C23.1502 239.22 23.8352 239.05 24.6052 239.05C25.3852 239.05 26.0752 239.22 26.6752 239.56C27.2852 239.9 27.7602 240.37 28.1002 240.97C28.4502 241.57 28.6252 242.265 28.6252 243.055C28.6252 243.835 28.4502 244.53 28.1002 245.14C27.7602 245.74 27.2852 246.215 26.6752 246.565C26.0652 246.905 25.3752 247.075 24.6052 247.075ZM24.6052 246.13C25.1752 246.13 25.6802 246.005 26.1202 245.755C26.5602 245.495 26.9052 245.135 27.1552 244.675C27.4152 244.205 27.5452 243.665 27.5452 243.055C27.5452 242.435 27.4152 241.895 27.1552 241.435C26.9052 240.975 26.5602 240.62 26.1202 240.37C25.6802 240.11 25.1802 239.98 24.6202 239.98C24.0602 239.98 23.5602 240.11 23.1202 240.37C22.6802 240.62 22.3302 240.975 22.0702 241.435C21.8102 241.895 21.6802 242.435 21.6802 243.055C21.6802 243.665 21.8102 244.205 22.0702 244.675C22.3302 245.135 22.6802 245.495 23.1202 245.755C23.5602 246.005 24.0552 246.13 24.6052 246.13ZM34.0545 247.075C33.3845 247.075 32.7995 246.95 32.2995 246.7C31.7995 246.45 31.4095 246.075 31.1295 245.575C30.8595 245.075 30.7245 244.45 30.7245 243.7V239.125H31.7895V243.58C31.7895 244.42 31.9945 245.055 32.4045 245.485C32.8245 245.905 33.4095 246.115 34.1595 246.115C34.7095 246.115 35.1845 246.005 35.5845 245.785C35.9945 245.555 36.3045 245.225 36.5145 244.795C36.7345 244.365 36.8445 243.85 36.8445 243.25V239.125H37.9095V247H36.8895V244.84L37.0545 245.23C36.8045 245.81 36.4145 246.265 35.8845 246.595C35.3645 246.915 34.7545 247.075 34.0545 247.075ZM40.8776 247V239.125H41.8976V241.27L41.7926 240.895C42.0126 240.295 42.3826 239.84 42.9026 239.53C43.4226 239.21 44.0676 239.05 44.8376 239.05V240.085C44.7976 240.085 44.7576 240.085 44.7176 240.085C44.6776 240.075 44.6376 240.07 44.5976 240.07C43.7676 240.07 43.1176 240.325 42.6476 240.835C42.1776 241.335 41.9426 242.05 41.9426 242.98V247H40.8776ZM53.9589 247.075C53.2089 247.075 52.5339 246.905 51.9339 246.565C51.3439 246.225 50.8789 245.755 50.5389 245.155C50.1989 244.545 50.0289 243.845 50.0289 243.055C50.0289 242.255 50.1989 241.555 50.5389 240.955C50.8789 240.355 51.3439 239.89 51.9339 239.56C52.5339 239.22 53.2089 239.05 53.9589 239.05C54.6489 239.05 55.2639 239.205 55.8039 239.515C56.3539 239.825 56.7889 240.28 57.1089 240.88C57.4389 241.47 57.6039 242.195 57.6039 243.055C57.6039 243.905 57.4439 244.63 57.1239 245.23C56.8039 245.83 56.3689 246.29 55.8189 246.61C55.2789 246.92 54.6589 247.075 53.9589 247.075ZM54.0339 246.13C54.5939 246.13 55.0939 246.005 55.5339 245.755C55.9839 245.495 56.3339 245.135 56.5839 244.675C56.8439 244.205 56.9739 243.665 56.9739 243.055C56.9739 242.435 56.8439 241.895 56.5839 241.435C56.3339 240.975 55.9839 240.62 55.5339 240.37C55.0939 240.11 54.5939 239.98 54.0339 239.98C53.4839 239.98 52.9889 240.11 52.5489 240.37C52.1089 240.62 51.7589 240.975 51.4989 241.435C51.2389 241.895 51.1089 242.435 51.1089 243.055C51.1089 243.665 51.2389 244.205 51.4989 244.675C51.7589 245.135 52.1089 245.495 52.5489 245.755C52.9889 246.005 53.4839 246.13 54.0339 246.13ZM57.0039 247V244.63L57.1089 243.04L56.9589 241.45V235.87H58.0239V247H57.0039ZM64.3349 247.075C63.5149 247.075 62.7949 246.905 62.1749 246.565C61.5549 246.215 61.0699 245.74 60.7199 245.14C60.3699 244.53 60.1949 243.835 60.1949 243.055C60.1949 242.275 60.3599 241.585 60.6899 240.985C61.0299 240.385 61.4899 239.915 62.0699 239.575C62.6599 239.225 63.3199 239.05 64.0499 239.05C64.7899 239.05 65.4449 239.22 66.0149 239.56C66.5949 239.89 67.0499 240.36 67.3799 240.97C67.7099 241.57 67.8749 242.265 67.8749 243.055C67.8749 243.105 67.8699 243.16 67.8599 243.22C67.8599 243.27 67.8599 243.325 67.8599 243.385H61.0049V242.59H67.2899L66.8699 242.905C66.8699 242.335 66.7449 241.83 66.4949 241.39C66.2549 240.94 65.9249 240.59 65.5049 240.34C65.0849 240.09 64.5999 239.965 64.0499 239.965C63.5099 239.965 63.0249 240.09 62.5949 240.34C62.1649 240.59 61.8299 240.94 61.5899 241.39C61.3499 241.84 61.2299 242.355 61.2299 242.935V243.1C61.2299 243.7 61.3599 244.23 61.6199 244.69C61.8899 245.14 62.2599 245.495 62.7299 245.755C63.2099 246.005 63.7549 246.13 64.3649 246.13C64.8449 246.13 65.2899 246.045 65.6999 245.875C66.1199 245.705 66.4799 245.445 66.7799 245.095L67.3799 245.785C67.0299 246.205 66.5899 246.525 66.0599 246.745C65.5399 246.965 64.9649 247.075 64.3349 247.075ZM72.1576 247.075C71.5076 247.075 70.8926 246.985 70.3126 246.805C69.7326 246.615 69.2776 246.38 68.9476 246.1L69.4276 245.26C69.7476 245.5 70.1576 245.71 70.6576 245.89C71.1576 246.06 71.6826 246.145 72.2326 246.145C72.9826 246.145 73.5226 246.03 73.8526 245.8C74.1826 245.56 74.3476 245.245 74.3476 244.855C74.3476 244.565 74.2526 244.34 74.0626 244.18C73.8826 244.01 73.6426 243.885 73.3426 243.805C73.0426 243.715 72.7076 243.64 72.3376 243.58C71.9676 243.52 71.5976 243.45 71.2276 243.37C70.8676 243.29 70.5376 243.175 70.2376 243.025C69.9376 242.865 69.6926 242.65 69.5026 242.38C69.3226 242.11 69.2326 241.75 69.2326 241.3C69.2326 240.87 69.3526 240.485 69.5926 240.145C69.8326 239.805 70.1826 239.54 70.6426 239.35C71.1126 239.15 71.6826 239.05 72.3526 239.05C72.8626 239.05 73.3726 239.12 73.8826 239.26C74.3926 239.39 74.8126 239.565 75.1426 239.785L74.6776 240.64C74.3276 240.4 73.9526 240.23 73.5526 240.13C73.1526 240.02 72.7526 239.965 72.3526 239.965C71.6426 239.965 71.1176 240.09 70.7776 240.34C70.4476 240.58 70.2826 240.89 70.2826 241.27C70.2826 241.57 70.3726 241.805 70.5526 241.975C70.7426 242.145 70.9876 242.28 71.2876 242.38C71.5976 242.47 71.9326 242.545 72.2926 242.605C72.6626 242.665 73.0276 242.74 73.3876 242.83C73.7576 242.91 74.0926 243.025 74.3926 243.175C74.7026 243.315 74.9476 243.52 75.1276 243.79C75.3176 244.05 75.4126 244.395 75.4126 244.825C75.4126 245.285 75.2826 245.685 75.0226 246.025C74.7726 246.355 74.4026 246.615 73.9126 246.805C73.4326 246.985 72.8476 247.075 72.1576 247.075ZM77.3668 247V239.125H78.4318V247H77.3668ZM77.9068 237.385C77.6868 237.385 77.5018 237.31 77.3518 237.16C77.2018 237.01 77.1268 236.83 77.1268 236.62C77.1268 236.41 77.2018 236.235 77.3518 236.095C77.5018 235.945 77.6868 235.87 77.9068 235.87C78.1268 235.87 78.3118 235.94 78.4618 236.08C78.6118 236.22 78.6868 236.395 78.6868 236.605C78.6868 236.825 78.6118 237.01 78.4618 237.16C78.3218 237.31 78.1368 237.385 77.9068 237.385ZM81.3952 247V239.125H82.4152V241.27L82.3102 240.895C82.5302 240.295 82.9002 239.84 83.4202 239.53C83.9402 239.21 84.5852 239.05 85.3552 239.05V240.085C85.3152 240.085 85.2752 240.085 85.2352 240.085C85.1952 240.075 85.1552 240.07 85.1152 240.07C84.2852 240.07 83.6352 240.325 83.1652 240.835C82.6952 241.335 82.4602 242.05 82.4602 242.98V247H81.3952ZM90.5702 247.075C89.7502 247.075 89.0302 246.905 88.4102 246.565C87.7902 246.215 87.3052 245.74 86.9552 245.14C86.6052 244.53 86.4302 243.835 86.4302 243.055C86.4302 242.275 86.5952 241.585 86.9252 240.985C87.2652 240.385 87.7252 239.915 88.3052 239.575C88.8952 239.225 89.5552 239.05 90.2852 239.05C91.0252 239.05 91.6802 239.22 92.2502 239.56C92.8302 239.89 93.2852 240.36 93.6152 240.97C93.9452 241.57 94.1102 242.265 94.1102 243.055C94.1102 243.105 94.1052 243.16 94.0952 243.22C94.0952 243.27 94.0952 243.325 94.0952 243.385H87.2402V242.59H93.5252L93.1052 242.905C93.1052 242.335 92.9802 241.83 92.7302 241.39C92.4902 240.94 92.1602 240.59 91.7402 240.34C91.3202 240.09 90.8352 239.965 90.2852 239.965C89.7452 239.965 89.2602 240.09 88.8302 240.34C88.4002 240.59 88.0652 240.94 87.8252 241.39C87.5852 241.84 87.4652 242.355 87.4652 242.935V243.1C87.4652 243.7 87.5952 244.23 87.8552 244.69C88.1252 245.14 88.4952 245.495 88.9652 245.755C89.4452 246.005 89.9902 246.13 90.6002 246.13C91.0802 246.13 91.5252 246.045 91.9352 245.875C92.3552 245.705 92.7152 245.445 93.0152 245.095L93.6152 245.785C93.2652 246.205 92.8252 246.525 92.2952 246.745C91.7752 246.965 91.2002 247.075 90.5702 247.075ZM99.413 247.075C98.663 247.075 97.988 246.905 97.388 246.565C96.798 246.225 96.333 245.755 95.993 245.155C95.653 244.545 95.483 243.845 95.483 243.055C95.483 242.255 95.653 241.555 95.993 240.955C96.333 240.355 96.798 239.89 97.388 239.56C97.988 239.22 98.663 239.05 99.413 239.05C100.103 239.05 100.718 239.205 101.258 239.515C101.808 239.825 102.243 240.28 102.563 240.88C102.893 241.47 103.058 242.195 103.058 243.055C103.058 243.905 102.898 244.63 102.578 245.23C102.258 245.83 101.823 246.29 101.273 246.61C100.733 246.92 100.113 247.075 99.413 247.075ZM99.488 246.13C100.048 246.13 100.548 246.005 100.988 245.755C101.438 245.495 101.788 245.135 102.038 244.675C102.298 244.205 102.428 243.665 102.428 243.055C102.428 242.435 102.298 241.895 102.038 241.435C101.788 240.975 101.438 240.62 100.988 240.37C100.548 240.11 100.048 239.98 99.488 239.98C98.938 239.98 98.443 240.11 98.003 240.37C97.563 240.62 97.213 240.975 96.953 241.435C96.693 241.895 96.563 242.435 96.563 243.055C96.563 243.665 96.693 244.205 96.953 244.675C97.213 245.135 97.563 245.495 98.003 245.755C98.443 246.005 98.938 246.13 99.488 246.13ZM102.458 247V244.63L102.563 243.04L102.413 241.45V235.87H103.478V247H102.458ZM112.86 247.075C112.12 247.075 111.55 246.875 111.15 246.475C110.75 246.075 110.55 245.51 110.55 244.78V237.385H111.615V244.72C111.615 245.18 111.73 245.535 111.96 245.785C112.2 246.035 112.54 246.16 112.98 246.16C113.45 246.16 113.84 246.025 114.15 245.755L114.525 246.52C114.315 246.71 114.06 246.85 113.76 246.94C113.47 247.03 113.17 247.075 112.86 247.075ZM109.14 240.01V239.125H114.015V240.01H109.14ZM119.53 247.075C118.71 247.075 117.99 246.905 117.37 246.565C116.75 246.215 116.265 245.74 115.915 245.14C115.565 244.53 115.39 243.835 115.39 243.055C115.39 242.275 115.555 241.585 115.885 240.985C116.225 240.385 116.685 239.915 117.265 239.575C117.855 239.225 118.515 239.05 119.245 239.05C119.985 239.05 120.64 239.22 121.21 239.56C121.79 239.89 122.245 240.36 122.575 240.97C122.905 241.57 123.07 242.265 123.07 243.055C123.07 243.105 123.065 243.16 123.055 243.22C123.055 243.27 123.055 243.325 123.055 243.385H116.2V242.59H122.485L122.065 242.905C122.065 242.335 121.94 241.83 121.69 241.39C121.45 240.94 121.12 240.59 120.7 240.34C120.28 240.09 119.795 239.965 119.245 239.965C118.705 239.965 118.22 240.09 117.79 240.34C117.36 240.59 117.025 240.94 116.785 241.39C116.545 241.84 116.425 242.355 116.425 242.935V243.1C116.425 243.7 116.555 244.23 116.815 244.69C117.085 245.14 117.455 245.495 117.925 245.755C118.405 246.005 118.95 246.13 119.56 246.13C120.04 246.13 120.485 246.045 120.895 245.875C121.315 245.705 121.675 245.445 121.975 245.095L122.575 245.785C122.225 246.205 121.785 246.525 121.255 246.745C120.735 246.965 120.16 247.075 119.53 247.075ZM123.818 247L127.148 242.68L127.133 243.205L123.968 239.125H125.168L127.763 242.5L127.313 242.485L129.908 239.125H131.078L127.883 243.25L127.898 242.68L131.258 247H130.043L127.298 243.4L127.718 243.46L125.018 247H123.818ZM135.521 247.075C134.781 247.075 134.211 246.875 133.811 246.475C133.411 246.075 133.211 245.51 133.211 244.78V237.385H134.276V244.72C134.276 245.18 134.391 245.535 134.621 245.785C134.861 246.035 135.201 246.16 135.641 246.16C136.111 246.16 136.501 246.025 136.811 245.755L137.186 246.52C136.976 246.71 136.721 246.85 136.421 246.94C136.131 247.03 135.831 247.075 135.521 247.075ZM131.801 240.01V239.125H136.676V240.01H131.801Z" fill="#434343"/>
<path d="M16.56 187V175.64H12.08V173H24.28V175.64H19.8V187H16.56ZM26.5188 191.04C25.9588 191.04 25.4054 190.953 24.8588 190.78C24.3121 190.607 23.8654 190.367 23.5187 190.06L24.6588 187.84C24.8988 188.053 25.1721 188.22 25.4788 188.34C25.7988 188.46 26.1121 188.52 26.4188 188.52C26.8588 188.52 27.2054 188.413 27.4588 188.2C27.7254 188 27.9654 187.66 28.1788 187.18L28.7388 185.86L28.9788 185.52L32.8388 176.24H35.8388L30.9788 187.66C30.6321 188.527 30.2321 189.207 29.7788 189.7C29.3388 190.193 28.8454 190.54 28.2988 190.74C27.7654 190.94 27.1721 191.04 26.5188 191.04ZM28.3588 187.42L23.5587 176.24H26.7788L30.4988 185.24L28.3588 187.42ZM43.4719 187.16C42.5652 187.16 41.7719 186.96 41.0919 186.56C40.4119 186.16 39.8785 185.553 39.4919 184.74C39.1185 183.913 38.9319 182.873 38.9319 181.62C38.9319 180.353 39.1119 179.313 39.4719 178.5C39.8319 177.687 40.3519 177.08 41.0319 176.68C41.7119 176.28 42.5252 176.08 43.4719 176.08C44.4852 176.08 45.3919 176.313 46.1919 176.78C47.0052 177.233 47.6452 177.873 48.1119 178.7C48.5919 179.527 48.8319 180.5 48.8319 181.62C48.8319 182.753 48.5919 183.733 48.1119 184.56C47.6452 185.387 47.0052 186.027 46.1919 186.48C45.3919 186.933 44.4852 187.16 43.4719 187.16ZM37.1119 190.88V176.24H40.0919V178.44L40.0319 181.64L40.2319 184.82V190.88H37.1119ZM42.9319 184.6C43.4519 184.6 43.9119 184.48 44.3119 184.24C44.7252 184 45.0519 183.66 45.2919 183.22C45.5452 182.767 45.6719 182.233 45.6719 181.62C45.6719 180.993 45.5452 180.46 45.2919 180.02C45.0519 179.58 44.7252 179.24 44.3119 179C43.9119 178.76 43.4519 178.64 42.9319 178.64C42.4119 178.64 41.9452 178.76 41.5319 179C41.1185 179.24 40.7919 179.58 40.5519 180.02C40.3119 180.46 40.1919 180.993 40.1919 181.62C40.1919 182.233 40.3119 182.767 40.5519 183.22C40.7919 183.66 41.1185 184 41.5319 184.24C41.9452 184.48 42.4119 184.6 42.9319 184.6ZM56.2605 187.16C55.0338 187.16 53.9538 186.92 53.0205 186.44C52.1005 185.96 51.3871 185.307 50.8805 184.48C50.3738 183.64 50.1205 182.687 50.1205 181.62C50.1205 180.54 50.3671 179.587 50.8605 178.76C51.3671 177.92 52.0538 177.267 52.9205 176.8C53.7871 176.32 54.7671 176.08 55.8605 176.08C56.9138 176.08 57.8605 176.307 58.7005 176.76C59.5538 177.2 60.2271 177.84 60.7205 178.68C61.2138 179.507 61.4605 180.5 61.4605 181.66C61.4605 181.78 61.4538 181.92 61.4405 182.08C61.4271 182.227 61.4138 182.367 61.4005 182.5H52.6605V180.68H59.7605L58.5605 181.22C58.5605 180.66 58.4471 180.173 58.2205 179.76C57.9938 179.347 57.6805 179.027 57.2805 178.8C56.8805 178.56 56.4138 178.44 55.8805 178.44C55.3471 178.44 54.8738 178.56 54.4605 178.8C54.0605 179.027 53.7471 179.353 53.5205 179.78C53.2938 180.193 53.1805 180.687 53.1805 181.26V181.74C53.1805 182.327 53.3071 182.847 53.5605 183.3C53.8271 183.74 54.1938 184.08 54.6605 184.32C55.1405 184.547 55.7005 184.66 56.3405 184.66C56.9138 184.66 57.4138 184.573 57.8405 184.4C58.2805 184.227 58.6805 183.967 59.0405 183.62L60.7005 185.42C60.2071 185.98 59.5871 186.413 58.8405 186.72C58.0938 187.013 57.2338 187.16 56.2605 187.16ZM69.2017 187V176.24H72.3217V187H69.2017ZM70.7617 174.74C70.1884 174.74 69.7217 174.573 69.3617 174.24C69.0017 173.907 68.8217 173.493 68.8217 173C68.8217 172.507 69.0017 172.093 69.3617 171.76C69.7217 171.427 70.1884 171.26 70.7617 171.26C71.3351 171.26 71.8017 171.42 72.1617 171.74C72.5217 172.047 72.7017 172.447 72.7017 172.94C72.7017 173.46 72.5217 173.893 72.1617 174.24C71.8151 174.573 71.3484 174.74 70.7617 174.74ZM79.6173 187.16C78.3507 187.16 77.364 186.84 76.6573 186.2C75.9507 185.547 75.5973 184.58 75.5973 183.3V173.86H78.7173V183.26C78.7173 183.713 78.8373 184.067 79.0773 184.32C79.3173 184.56 79.644 184.68 80.0573 184.68C80.5507 184.68 80.9707 184.547 81.3173 184.28L82.1573 186.48C81.8373 186.707 81.4507 186.88 80.9973 187C80.5573 187.107 80.0973 187.16 79.6173 187.16ZM73.9373 178.88V176.48H81.3973V178.88H73.9373ZM96.0128 187.24C94.0261 187.24 92.4728 186.687 91.3528 185.58C90.2328 184.473 89.6728 182.893 89.6728 180.84V173H92.9128V180.72C92.9128 182.053 93.1861 183.013 93.7328 183.6C94.2795 184.187 95.0461 184.48 96.0328 184.48C97.0195 184.48 97.7861 184.187 98.3328 183.6C98.8795 183.013 99.1528 182.053 99.1528 180.72V173H102.353V180.84C102.353 182.893 101.793 184.473 100.673 185.58C99.5528 186.687 97.9995 187.24 96.0128 187.24ZM111.695 187.16C110.788 187.16 109.995 186.96 109.315 186.56C108.635 186.16 108.101 185.553 107.715 184.74C107.341 183.913 107.155 182.873 107.155 181.62C107.155 180.353 107.335 179.313 107.695 178.5C108.055 177.687 108.575 177.08 109.255 176.68C109.935 176.28 110.748 176.08 111.695 176.08C112.708 176.08 113.615 176.313 114.415 176.78C115.228 177.233 115.868 177.873 116.335 178.7C116.815 179.527 117.055 180.5 117.055 181.62C117.055 182.753 116.815 183.733 116.335 184.56C115.868 185.387 115.228 186.027 114.415 186.48C113.615 186.933 112.708 187.16 111.695 187.16ZM105.335 190.88V176.24H108.315V178.44L108.255 181.64L108.455 184.82V190.88H105.335ZM111.155 184.6C111.675 184.6 112.135 184.48 112.535 184.24C112.948 184 113.275 183.66 113.515 183.22C113.768 182.767 113.895 182.233 113.895 181.62C113.895 180.993 113.768 180.46 113.515 180.02C113.275 179.58 112.948 179.24 112.535 179C112.135 178.76 111.675 178.64 111.155 178.64C110.635 178.64 110.168 178.76 109.755 179C109.341 179.24 109.015 179.58 108.775 180.02C108.535 180.46 108.415 180.993 108.415 181.62C108.415 182.233 108.535 182.767 108.775 183.22C109.015 183.66 109.341 184 109.755 184.24C110.168 184.48 110.635 184.6 111.155 184.6Z" fill="#434343"/>
<g filter="url(#filter1_d_90_752)">
<path d="M135.062 64.8125C134.217 64.8125 133.406 65.1582 132.809 65.7736C132.211 66.3889 131.875 67.2235 131.875 68.0938C131.875 68.964 132.211 69.7986 132.809 70.4139C133.406 71.0293 134.217 71.375 135.062 71.375H166.938C167.783 71.375 168.594 71.0293 169.191 70.4139C169.789 69.7986 170.125 68.964 170.125 68.0938C170.125 67.2235 169.789 66.3889 169.191 65.7736C168.594 65.1582 167.783 64.8125 166.938 64.8125H135.062ZM135.062 81.2188C134.217 81.2188 133.406 81.5645 132.809 82.1798C132.211 82.7952 131.875 83.6298 131.875 84.5C131.875 85.3702 132.211 86.2048 132.809 86.8202C133.406 87.4356 134.217 87.7812 135.062 87.7812H154.188C155.033 87.7812 155.844 87.4356 156.441 86.8202C157.039 86.2048 157.375 85.3702 157.375 84.5C157.375 83.6298 157.039 82.7952 156.441 82.1798C155.844 81.5645 155.033 81.2188 154.188 81.2188H135.062ZM135.062 97.625C134.217 97.625 133.406 97.9707 132.809 98.5861C132.211 99.2014 131.875 100.036 131.875 100.906C131.875 101.776 132.211 102.611 132.809 103.226C133.406 103.842 134.217 104.188 135.062 104.188H166.938C167.783 104.188 168.594 103.842 169.191 103.226C169.789 102.611 170.125 101.776 170.125 100.906C170.125 100.036 169.789 99.2014 169.191 98.5861C168.594 97.9707 167.783 97.625 166.938 97.625H135.062ZM128.688 45.125C124.461 45.125 120.407 46.8535 117.418 49.9303C114.429 53.007 112.75 57.18 112.75 61.5312V107.469C112.75 111.82 114.429 115.993 117.418 119.07C120.407 122.146 124.461 123.875 128.688 123.875H173.312C177.539 123.875 181.593 122.146 184.582 119.07C187.571 115.993 189.25 111.82 189.25 107.469V61.5312C189.25 57.18 187.571 53.007 184.582 49.9303C181.593 46.8535 177.539 45.125 173.312 45.125H128.688ZM119.125 61.5312C119.125 58.9205 120.132 56.4167 121.926 54.5707C123.719 52.7246 126.151 51.6875 128.688 51.6875H173.312C175.849 51.6875 178.281 52.7246 180.074 54.5707C181.868 56.4167 182.875 58.9205 182.875 61.5312V107.469C182.875 110.079 181.868 112.583 180.074 114.429C178.281 116.275 175.849 117.312 173.312 117.312H128.688C126.151 117.312 123.719 116.275 121.926 114.429C120.132 112.583 119.125 110.079 119.125 107.469V61.5312Z" fill="#6362E3"/>
</g>
</g>
<defs>
<filter id="filter0_di_90_752" x="-4" y="0" width="314" height="342" filterUnits="userSpaceOnUse" color-interpolation-filters="sRGB">
<feFlood flood-opacity="0" result="BackgroundImageFix"/>
<feColorMatrix in="SourceAlpha" type="matrix" values="0 0 0 0 0 0 0 0 0 0 0 0 0 0 0 0 0 0 127 0" result="hardAlpha"/>
<feOffset dy="4"/>
<feGaussianBlur stdDeviation="2"/>
<feComposite in2="hardAlpha" operator="out"/>
<feColorMatrix type="matrix" values="0 0 0 0 0 0 0 0 0 0 0 0 0 0 0 0 0 0 0.25 0"/>
<feBlend mode="normal" in2="BackgroundImageFix" result="effect1_dropShadow_90_752"/>
<feBlend mode="normal" in="SourceGraphic" in2="effect1_dropShadow_90_752" result="shape"/>
<feColorMatrix in="SourceAlpha" type="matrix" values="0 0 0 0 0 0 0 0 0 0 0 0 0 0 0 0 0 0 127 0" result="hardAlpha"/>
<feOffset dy="10"/>
<feGaussianBlur stdDeviation="3"/>
<feComposite in2="hardAlpha" operator="arithmetic" k2="-1" k3="1"/>
<feColorMatrix type="matrix" values="0 0 0 0 0 0 0 0 0 0 0 0 0 0 0 0 0 0 0.25 0"/>
<feBlend mode="normal" in2="shape" result="effect2_innerShadow_90_752"/>
</filter>
<filter id="filter1_d_90_752" x="106.75" y="45.125" width="88.5" height="91.75" filterUnits="userSpaceOnUse" color-interpolation-filters="sRGB">
<feFlood flood-opacity="0" result="BackgroundImageFix"/>
<feColorMatrix in="SourceAlpha" type="matrix" values="0 0 0 0 0 0 0 0 0 0 0 0 0 0 0 0 0 0 127 0" result="hardAlpha"/>
<feOffset dy="7"/>
<feGaussianBlur stdDeviation="3"/>
<feComposite in2="hardAlpha" operator="out"/>
<feColorMatrix type="matrix" values="0 0 0 0 0 0 0 0 0 0 0 0 0 0 0 0 0 0 0.25 0"/>
<feBlend mode="normal" in2="BackgroundImageFix" result="effect1_dropShadow_90_752"/>
<feBlend mode="normal" in="SourceGraphic" in2="effect1_dropShadow_90_752" result="shape"/>
</filter>
<clipPath id="clip0_90_752">
<rect width="184" height="334" fill="white"/>
</clipPath>
</defs>
</svg>
