<svg width="314" height="342" viewBox="0 0 314 342" fill="none" xmlns="http://www.w3.org/2000/svg">
<g filter="url(#filter0_di_87_721)">
<rect x="4" width="306" height="334" rx="29" fill="#D9D9D9"/>
</g>
<path d="M18.94 229.09C17.6 229.09 16.545 228.705 15.775 227.935C15.005 227.165 14.62 226.025 14.62 224.515V218.5H15.73V224.47C15.73 225.71 16.01 226.625 16.57 227.215C17.13 227.805 17.92 228.1 18.94 228.1C19.97 228.1 20.765 227.805 21.325 227.215C21.885 226.625 22.165 225.71 22.165 224.47V218.5H23.245V224.515C23.245 226.025 22.86 227.165 22.09 227.935C21.33 228.705 20.28 229.09 18.94 229.09ZM30.4299 229.075C29.7499 229.075 29.1349 228.92 28.5849 228.61C28.0349 228.29 27.5949 227.835 27.2649 227.245C26.9449 226.645 26.7849 225.915 26.7849 225.055C26.7849 224.195 26.9449 223.47 27.2649 222.88C27.5849 222.28 28.0199 221.825 28.5699 221.515C29.1199 221.205 29.7399 221.05 30.4299 221.05C31.1799 221.05 31.8499 221.22 32.4399 221.56C33.0399 221.89 33.5099 222.36 33.8499 222.97C34.1899 223.57 34.3599 224.265 34.3599 225.055C34.3599 225.855 34.1899 226.555 33.8499 227.155C33.5099 227.755 33.0399 228.225 32.4399 228.565C31.8499 228.905 31.1799 229.075 30.4299 229.075ZM26.3649 231.91V221.125H27.3849V223.495L27.2799 225.07L27.4299 226.66V231.91H26.3649ZM30.3549 228.13C30.9149 228.13 31.4149 228.005 31.8549 227.755C32.2949 227.495 32.6449 227.135 32.9049 226.675C33.1649 226.205 33.2949 225.665 33.2949 225.055C33.2949 224.445 33.1649 223.91 32.9049 223.45C32.6449 222.99 32.2949 222.63 31.8549 222.37C31.4149 222.11 30.9149 221.98 30.3549 221.98C29.7949 221.98 29.2899 222.11 28.8399 222.37C28.3999 222.63 28.0499 222.99 27.7899 223.45C27.5399 223.91 27.4149 224.445 27.4149 225.055C27.4149 225.665 27.5399 226.205 27.7899 226.675C28.0499 227.135 28.3999 227.495 28.8399 227.755C29.2899 228.005 29.7949 228.13 30.3549 228.13ZM39.7409 229.075C38.9809 229.075 38.2959 228.905 37.6859 228.565C37.0859 228.215 36.6109 227.74 36.2609 227.14C35.9109 226.53 35.7359 225.835 35.7359 225.055C35.7359 224.265 35.9109 223.57 36.2609 222.97C36.6109 222.37 37.0859 221.9 37.6859 221.56C38.2859 221.22 38.9709 221.05 39.7409 221.05C40.5209 221.05 41.2109 221.22 41.8109 221.56C42.4209 221.9 42.8959 222.37 43.2359 222.97C43.5859 223.57 43.7609 224.265 43.7609 225.055C43.7609 225.835 43.5859 226.53 43.2359 227.14C42.8959 227.74 42.4209 228.215 41.8109 228.565C41.2009 228.905 40.5109 229.075 39.7409 229.075ZM39.7409 228.13C40.3109 228.13 40.8159 228.005 41.2559 227.755C41.6959 227.495 42.0409 227.135 42.2909 226.675C42.5509 226.205 42.6809 225.665 42.6809 225.055C42.6809 224.435 42.5509 223.895 42.2909 223.435C42.0409 222.975 41.6959 222.62 41.2559 222.37C40.8159 222.11 40.3159 221.98 39.7559 221.98C39.1959 221.98 38.6959 222.11 38.2559 222.37C37.8159 222.62 37.4659 222.975 37.2059 223.435C36.9459 223.895 36.8159 224.435 36.8159 225.055C36.8159 225.665 36.9459 226.205 37.2059 226.675C37.4659 227.135 37.8159 227.495 38.2559 227.755C38.6959 228.005 39.1909 228.13 39.7409 228.13ZM49.9552 221.05C50.5952 221.05 51.1552 221.175 51.6352 221.425C52.1252 221.665 52.5052 222.035 52.7752 222.535C53.0552 223.035 53.1952 223.665 53.1952 224.425V229H52.1302V224.53C52.1302 223.7 51.9202 223.075 51.5002 222.655C51.0902 222.225 50.5102 222.01 49.7602 222.01C49.2002 222.01 48.7102 222.125 48.2902 222.355C47.8802 222.575 47.5602 222.9 47.3302 223.33C47.1102 223.75 47.0002 224.26 47.0002 224.86V229H45.9352V221.125H46.9552V223.285L46.7902 222.88C47.0402 222.31 47.4402 221.865 47.9902 221.545C48.5402 221.215 49.1952 221.05 49.9552 221.05ZM63.3427 229.075C62.5227 229.075 61.8027 228.905 61.1827 228.565C60.5627 228.215 60.0777 227.74 59.7277 227.14C59.3777 226.53 59.2027 225.835 59.2027 225.055C59.2027 224.275 59.3677 223.585 59.6977 222.985C60.0377 222.385 60.4977 221.915 61.0777 221.575C61.6677 221.225 62.3277 221.05 63.0577 221.05C63.7977 221.05 64.4527 221.22 65.0227 221.56C65.6027 221.89 66.0577 222.36 66.3877 222.97C66.7177 223.57 66.8827 224.265 66.8827 225.055C66.8827 225.105 66.8777 225.16 66.8677 225.22C66.8677 225.27 66.8677 225.325 66.8677 225.385H60.0127V224.59H66.2977L65.8777 224.905C65.8777 224.335 65.7527 223.83 65.5027 223.39C65.2627 222.94 64.9327 222.59 64.5127 222.34C64.0927 222.09 63.6077 221.965 63.0577 221.965C62.5177 221.965 62.0327 222.09 61.6027 222.34C61.1727 222.59 60.8377 222.94 60.5977 223.39C60.3577 223.84 60.2377 224.355 60.2377 224.935V225.1C60.2377 225.7 60.3677 226.23 60.6277 226.69C60.8977 227.14 61.2677 227.495 61.7377 227.755C62.2177 228.005 62.7627 228.13 63.3727 228.13C63.8527 228.13 64.2977 228.045 64.7077 227.875C65.1277 227.705 65.4877 227.445 65.7877 227.095L66.3877 227.785C66.0377 228.205 65.5977 228.525 65.0677 228.745C64.5477 228.965 63.9727 229.075 63.3427 229.075ZM67.6307 229L70.9607 224.68L70.9457 225.205L67.7807 221.125H68.9807L71.5757 224.5L71.1257 224.485L73.7207 221.125H74.8907L71.6957 225.25L71.7107 224.68L75.0707 229H73.8557L71.1107 225.4L71.5307 225.46L68.8307 229H67.6307ZM81.6319 229V227.26L81.5869 226.975V224.065C81.5869 223.395 81.3969 222.88 81.0169 222.52C80.6469 222.16 80.0919 221.98 79.3519 221.98C78.8419 221.98 78.3569 222.065 77.8969 222.235C77.4369 222.405 77.0469 222.63 76.7269 222.91L76.2469 222.115C76.6469 221.775 77.1269 221.515 77.6869 221.335C78.2469 221.145 78.8369 221.05 79.4569 221.05C80.4769 221.05 81.2619 221.305 81.8119 221.815C82.3719 222.315 82.6519 223.08 82.6519 224.11V229H81.6319ZM78.9169 229.075C78.3269 229.075 77.8119 228.98 77.3719 228.79C76.9419 228.59 76.6119 228.32 76.3819 227.98C76.1519 227.63 76.0369 227.23 76.0369 226.78C76.0369 226.37 76.1319 226 76.3219 225.67C76.5219 225.33 76.8419 225.06 77.2819 224.86C77.7319 224.65 78.3319 224.545 79.0819 224.545H81.7969V225.34H79.1119C78.3519 225.34 77.8219 225.475 77.5219 225.745C77.2319 226.015 77.0869 226.35 77.0869 226.75C77.0869 227.2 77.2619 227.56 77.6119 227.83C77.9619 228.1 78.4519 228.235 79.0819 228.235C79.6819 228.235 80.1969 228.1 80.6269 227.83C81.0669 227.55 81.3869 227.15 81.5869 226.63L81.8269 227.365C81.6269 227.885 81.2769 228.3 80.7769 228.61C80.2869 228.92 79.6669 229.075 78.9169 229.075ZM95.3846 221.05C96.0246 221.05 96.5796 221.175 97.0496 221.425C97.5296 221.665 97.8996 222.035 98.1596 222.535C98.4296 223.035 98.5646 223.665 98.5646 224.425V229H97.4996V224.53C97.4996 223.7 97.2996 223.075 96.8996 222.655C96.5096 222.225 95.9546 222.01 95.2346 222.01C94.6946 222.01 94.2246 222.125 93.8246 222.355C93.4346 222.575 93.1296 222.9 92.9096 223.33C92.6996 223.75 92.5946 224.26 92.5946 224.86V229H91.5296V224.53C91.5296 223.7 91.3296 223.075 90.9296 222.655C90.5296 222.225 89.9696 222.01 89.2496 222.01C88.7196 222.01 88.2546 222.125 87.8546 222.355C87.4546 222.575 87.1446 222.9 86.9246 223.33C86.7146 223.75 86.6096 224.26 86.6096 224.86V229H85.5446V221.125H86.5646V223.255L86.3996 222.88C86.6396 222.31 87.0246 221.865 87.5546 221.545C88.0946 221.215 88.7296 221.05 89.4596 221.05C90.2296 221.05 90.8846 221.245 91.4246 221.635C91.9646 222.015 92.3146 222.59 92.4746 223.36L92.0546 223.195C92.2846 222.555 92.6896 222.04 93.2696 221.65C93.8596 221.25 94.5646 221.05 95.3846 221.05ZM108.739 231.985C108.019 231.985 107.329 231.88 106.669 231.67C106.009 231.46 105.474 231.16 105.064 230.77L105.604 229.96C105.974 230.29 106.429 230.55 106.969 230.74C107.519 230.94 108.099 231.04 108.709 231.04C109.709 231.04 110.444 230.805 110.914 230.335C111.384 229.875 111.619 229.155 111.619 228.175V226.21L111.769 224.86L111.664 223.51V221.125H112.684V228.04C112.684 229.4 112.349 230.395 111.679 231.025C111.019 231.665 110.039 231.985 108.739 231.985ZM108.544 228.7C107.794 228.7 107.119 228.54 106.519 228.22C105.919 227.89 105.444 227.435 105.094 226.855C104.754 226.275 104.584 225.61 104.584 224.86C104.584 224.11 104.754 223.45 105.094 222.88C105.444 222.3 105.919 221.85 106.519 221.53C107.119 221.21 107.794 221.05 108.544 221.05C109.244 221.05 109.874 221.195 110.434 221.485C110.994 221.775 111.439 222.205 111.769 222.775C112.099 223.345 112.264 224.04 112.264 224.86C112.264 225.68 112.099 226.375 111.769 226.945C111.439 227.515 110.994 227.95 110.434 228.25C109.874 228.55 109.244 228.7 108.544 228.7ZM108.649 227.755C109.229 227.755 109.744 227.635 110.194 227.395C110.644 227.145 110.999 226.805 111.259 226.375C111.519 225.935 111.649 225.43 111.649 224.86C111.649 224.29 111.519 223.79 111.259 223.36C110.999 222.93 110.644 222.595 110.194 222.355C109.744 222.105 109.229 221.98 108.649 221.98C108.079 221.98 107.564 222.105 107.104 222.355C106.654 222.595 106.299 222.93 106.039 223.36C105.789 223.79 105.664 224.29 105.664 224.86C105.664 225.43 105.789 225.935 106.039 226.375C106.299 226.805 106.654 227.145 107.104 227.395C107.564 227.635 108.079 227.755 108.649 227.755ZM118.992 229.075C118.172 229.075 117.452 228.905 116.832 228.565C116.212 228.215 115.727 227.74 115.377 227.14C115.027 226.53 114.852 225.835 114.852 225.055C114.852 224.275 115.017 223.585 115.347 222.985C115.687 222.385 116.147 221.915 116.727 221.575C117.317 221.225 117.977 221.05 118.707 221.05C119.447 221.05 120.102 221.22 120.672 221.56C121.252 221.89 121.707 222.36 122.037 222.97C122.367 223.57 122.532 224.265 122.532 225.055C122.532 225.105 122.527 225.16 122.517 225.22C122.517 225.27 122.517 225.325 122.517 225.385H115.662V224.59H121.947L121.527 224.905C121.527 224.335 121.402 223.83 121.152 223.39C120.912 222.94 120.582 222.59 120.162 222.34C119.742 222.09 119.257 221.965 118.707 221.965C118.167 221.965 117.682 222.09 117.252 222.34C116.822 222.59 116.487 222.94 116.247 223.39C116.007 223.84 115.887 224.355 115.887 224.935V225.1C115.887 225.7 116.017 226.23 116.277 226.69C116.547 227.14 116.917 227.495 117.387 227.755C117.867 228.005 118.412 228.13 119.022 228.13C119.502 228.13 119.947 228.045 120.357 227.875C120.777 227.705 121.137 227.445 121.437 227.095L122.037 227.785C121.687 228.205 121.247 228.525 120.717 228.745C120.197 228.965 119.622 229.075 118.992 229.075ZM128.72 221.05C129.36 221.05 129.92 221.175 130.4 221.425C130.89 221.665 131.27 222.035 131.54 222.535C131.82 223.035 131.96 223.665 131.96 224.425V229H130.895V224.53C130.895 223.7 130.685 223.075 130.265 222.655C129.855 222.225 129.275 222.01 128.525 222.01C127.965 222.01 127.475 222.125 127.055 222.355C126.645 222.575 126.325 222.9 126.095 223.33C125.875 223.75 125.765 224.26 125.765 224.86V229H124.7V221.125H125.72V223.285L125.555 222.88C125.805 222.31 126.205 221.865 126.755 221.545C127.305 221.215 127.96 221.05 128.72 221.05ZM138.182 229.075C137.362 229.075 136.642 228.905 136.022 228.565C135.402 228.215 134.917 227.74 134.567 227.14C134.217 226.53 134.042 225.835 134.042 225.055C134.042 224.275 134.207 223.585 134.537 222.985C134.877 222.385 135.337 221.915 135.917 221.575C136.507 221.225 137.167 221.05 137.897 221.05C138.637 221.05 139.292 221.22 139.862 221.56C140.442 221.89 140.897 222.36 141.227 222.97C141.557 223.57 141.722 224.265 141.722 225.055C141.722 225.105 141.717 225.16 141.707 225.22C141.707 225.27 141.707 225.325 141.707 225.385H134.852V224.59H141.137L140.717 224.905C140.717 224.335 140.592 223.83 140.342 223.39C140.102 222.94 139.772 222.59 139.352 222.34C138.932 222.09 138.447 221.965 137.897 221.965C137.357 221.965 136.872 222.09 136.442 222.34C136.012 222.59 135.677 222.94 135.437 223.39C135.197 223.84 135.077 224.355 135.077 224.935V225.1C135.077 225.7 135.207 226.23 135.467 226.69C135.737 227.14 136.107 227.495 136.577 227.755C137.057 228.005 137.602 228.13 138.212 228.13C138.692 228.13 139.137 228.045 139.547 227.875C139.967 227.705 140.327 227.445 140.627 227.095L141.227 227.785C140.877 228.205 140.437 228.525 139.907 228.745C139.387 228.965 138.812 229.075 138.182 229.075ZM143.889 229V221.125H144.909V223.27L144.804 222.895C145.024 222.295 145.394 221.84 145.914 221.53C146.434 221.21 147.079 221.05 147.849 221.05V222.085C147.809 222.085 147.769 222.085 147.729 222.085C147.689 222.075 147.649 222.07 147.609 222.07C146.779 222.07 146.129 222.325 145.659 222.835C145.189 223.335 144.954 224.05 144.954 224.98V229H143.889ZM154.142 229V227.26L154.097 226.975V224.065C154.097 223.395 153.907 222.88 153.527 222.52C153.157 222.16 152.602 221.98 151.862 221.98C151.352 221.98 150.867 222.065 150.407 222.235C149.947 222.405 149.557 222.63 149.237 222.91L148.757 222.115C149.157 221.775 149.637 221.515 150.197 221.335C150.757 221.145 151.347 221.05 151.967 221.05C152.987 221.05 153.772 221.305 154.322 221.815C154.882 222.315 155.162 223.08 155.162 224.11V229H154.142ZM151.427 229.075C150.837 229.075 150.322 228.98 149.882 228.79C149.452 228.59 149.122 228.32 148.892 227.98C148.662 227.63 148.547 227.23 148.547 226.78C148.547 226.37 148.642 226 148.832 225.67C149.032 225.33 149.352 225.06 149.792 224.86C150.242 224.65 150.842 224.545 151.592 224.545H154.307V225.34H151.622C150.862 225.34 150.332 225.475 150.032 225.745C149.742 226.015 149.597 226.35 149.597 226.75C149.597 227.2 149.772 227.56 150.122 227.83C150.472 228.1 150.962 228.235 151.592 228.235C152.192 228.235 152.707 228.1 153.137 227.83C153.577 227.55 153.897 227.15 154.097 226.63L154.337 227.365C154.137 227.885 153.787 228.3 153.287 228.61C152.797 228.92 152.177 229.075 151.427 229.075ZM160.544 229.075C159.804 229.075 159.234 228.875 158.834 228.475C158.434 228.075 158.234 227.51 158.234 226.78V219.385H159.299V226.72C159.299 227.18 159.414 227.535 159.644 227.785C159.884 228.035 160.224 228.16 160.664 228.16C161.134 228.16 161.524 228.025 161.834 227.755L162.209 228.52C161.999 228.71 161.744 228.85 161.444 228.94C161.154 229.03 160.854 229.075 160.544 229.075ZM156.824 222.01V221.125H161.699V222.01H156.824ZM164.148 229V221.125H165.213V229H164.148ZM164.688 219.385C164.468 219.385 164.283 219.31 164.133 219.16C163.983 219.01 163.908 218.83 163.908 218.62C163.908 218.41 163.983 218.235 164.133 218.095C164.283 217.945 164.468 217.87 164.688 217.87C164.908 217.87 165.093 217.94 165.243 218.08C165.393 218.22 165.468 218.395 165.468 218.605C165.468 218.825 165.393 219.01 165.243 219.16C165.103 219.31 164.918 219.385 164.688 219.385ZM171.386 229.075C170.626 229.075 169.941 228.905 169.331 228.565C168.731 228.215 168.256 227.74 167.906 227.14C167.556 226.53 167.381 225.835 167.381 225.055C167.381 224.265 167.556 223.57 167.906 222.97C168.256 222.37 168.731 221.9 169.331 221.56C169.931 221.22 170.616 221.05 171.386 221.05C172.166 221.05 172.856 221.22 173.456 221.56C174.066 221.9 174.541 222.37 174.881 222.97C175.231 223.57 175.406 224.265 175.406 225.055C175.406 225.835 175.231 226.53 174.881 227.14C174.541 227.74 174.066 228.215 173.456 228.565C172.846 228.905 172.156 229.075 171.386 229.075ZM171.386 228.13C171.956 228.13 172.461 228.005 172.901 227.755C173.341 227.495 173.686 227.135 173.936 226.675C174.196 226.205 174.326 225.665 174.326 225.055C174.326 224.435 174.196 223.895 173.936 223.435C173.686 222.975 173.341 222.62 172.901 222.37C172.461 222.11 171.961 221.98 171.401 221.98C170.841 221.98 170.341 222.11 169.901 222.37C169.461 222.62 169.111 222.975 168.851 223.435C168.591 223.895 168.461 224.435 168.461 225.055C168.461 225.665 168.591 226.205 168.851 226.675C169.111 227.135 169.461 227.495 169.901 227.755C170.341 228.005 170.836 228.13 171.386 228.13ZM181.601 221.05C182.241 221.05 182.801 221.175 183.281 221.425C183.771 221.665 184.151 222.035 184.421 222.535C184.701 223.035 184.841 223.665 184.841 224.425V229H183.776V224.53C183.776 223.7 183.566 223.075 183.146 222.655C182.736 222.225 182.156 222.01 181.406 222.01C180.846 222.01 180.356 222.125 179.936 222.355C179.526 222.575 179.206 222.9 178.976 223.33C178.756 223.75 178.646 224.26 178.646 224.86V229H177.581V221.125H178.601V223.285L178.436 222.88C178.686 222.31 179.086 221.865 179.636 221.545C180.186 221.215 180.841 221.05 181.601 221.05ZM196.578 229V227.26L196.533 226.975V224.065C196.533 223.395 196.343 222.88 195.963 222.52C195.593 222.16 195.038 221.98 194.298 221.98C193.788 221.98 193.303 222.065 192.843 222.235C192.383 222.405 191.993 222.63 191.673 222.91L191.193 222.115C191.593 221.775 192.073 221.515 192.633 221.335C193.193 221.145 193.783 221.05 194.403 221.05C195.423 221.05 196.208 221.305 196.758 221.815C197.318 222.315 197.598 223.08 197.598 224.11V229H196.578ZM193.863 229.075C193.273 229.075 192.758 228.98 192.318 228.79C191.888 228.59 191.558 228.32 191.328 227.98C191.098 227.63 190.983 227.23 190.983 226.78C190.983 226.37 191.078 226 191.268 225.67C191.468 225.33 191.788 225.06 192.228 224.86C192.678 224.65 193.278 224.545 194.028 224.545H196.743V225.34H194.058C193.298 225.34 192.768 225.475 192.468 225.745C192.178 226.015 192.033 226.35 192.033 226.75C192.033 227.2 192.208 227.56 192.558 227.83C192.908 228.1 193.398 228.235 194.028 228.235C194.628 228.235 195.143 228.1 195.573 227.83C196.013 227.55 196.333 227.15 196.533 226.63L196.773 227.365C196.573 227.885 196.223 228.3 195.723 228.61C195.233 228.92 194.613 229.075 193.863 229.075ZM204.511 221.05C205.151 221.05 205.711 221.175 206.191 221.425C206.681 221.665 207.061 222.035 207.331 222.535C207.611 223.035 207.751 223.665 207.751 224.425V229H206.686V224.53C206.686 223.7 206.476 223.075 206.056 222.655C205.646 222.225 205.066 222.01 204.316 222.01C203.756 222.01 203.266 222.125 202.846 222.355C202.436 222.575 202.116 222.9 201.886 223.33C201.666 223.75 201.556 224.26 201.556 224.86V229H200.491V221.125H201.511V223.285L201.346 222.88C201.596 222.31 201.996 221.865 202.546 221.545C203.096 221.215 203.751 221.05 204.511 221.05ZM213.763 229.075C213.013 229.075 212.338 228.905 211.738 228.565C211.148 228.225 210.683 227.755 210.343 227.155C210.003 226.545 209.833 225.845 209.833 225.055C209.833 224.255 210.003 223.555 210.343 222.955C210.683 222.355 211.148 221.89 211.738 221.56C212.338 221.22 213.013 221.05 213.763 221.05C214.453 221.05 215.068 221.205 215.608 221.515C216.158 221.825 216.593 222.28 216.913 222.88C217.243 223.47 217.408 224.195 217.408 225.055C217.408 225.905 217.248 226.63 216.928 227.23C216.608 227.83 216.173 228.29 215.623 228.61C215.083 228.92 214.463 229.075 213.763 229.075ZM213.838 228.13C214.398 228.13 214.898 228.005 215.338 227.755C215.788 227.495 216.138 227.135 216.388 226.675C216.648 226.205 216.778 225.665 216.778 225.055C216.778 224.435 216.648 223.895 216.388 223.435C216.138 222.975 215.788 222.62 215.338 222.37C214.898 222.11 214.398 221.98 213.838 221.98C213.288 221.98 212.793 222.11 212.353 222.37C211.913 222.62 211.563 222.975 211.303 223.435C211.043 223.895 210.913 224.435 210.913 225.055C210.913 225.665 211.043 226.205 211.303 226.675C211.563 227.135 211.913 227.495 212.353 227.755C212.793 228.005 213.288 228.13 213.838 228.13ZM216.808 229V226.63L216.913 225.04L216.763 223.45V217.87H217.828V229H216.808ZM228.064 229.075C227.244 229.075 226.524 228.905 225.904 228.565C225.284 228.215 224.799 227.74 224.449 227.14C224.099 226.53 223.924 225.835 223.924 225.055C223.924 224.275 224.089 223.585 224.419 222.985C224.759 222.385 225.219 221.915 225.799 221.575C226.389 221.225 227.049 221.05 227.779 221.05C228.519 221.05 229.174 221.22 229.744 221.56C230.324 221.89 230.779 222.36 231.109 222.97C231.439 223.57 231.604 224.265 231.604 225.055C231.604 225.105 231.599 225.16 231.589 225.22C231.589 225.27 231.589 225.325 231.589 225.385H224.734V224.59H231.019L230.599 224.905C230.599 224.335 230.474 223.83 230.224 223.39C229.984 222.94 229.654 222.59 229.234 222.34C228.814 222.09 228.329 221.965 227.779 221.965C227.239 221.965 226.754 222.09 226.324 222.34C225.894 222.59 225.559 222.94 225.319 223.39C225.079 223.84 224.959 224.355 224.959 224.935V225.1C224.959 225.7 225.089 226.23 225.349 226.69C225.619 227.14 225.989 227.495 226.459 227.755C226.939 228.005 227.484 228.13 228.094 228.13C228.574 228.13 229.019 228.045 229.429 227.875C229.849 227.705 230.209 227.445 230.509 227.095L231.109 227.785C230.759 228.205 230.319 228.525 229.789 228.745C229.269 228.965 228.694 229.075 228.064 229.075ZM232.352 229L235.682 224.68L235.667 225.205L232.502 221.125H233.702L236.297 224.5L235.847 224.485L238.442 221.125H239.612L236.417 225.25L236.432 224.68L239.792 229H238.577L235.832 225.4L236.252 225.46L233.552 229H232.352ZM245.63 229.075C244.95 229.075 244.335 228.92 243.785 228.61C243.235 228.29 242.795 227.835 242.465 227.245C242.145 226.645 241.985 225.915 241.985 225.055C241.985 224.195 242.145 223.47 242.465 222.88C242.785 222.28 243.22 221.825 243.77 221.515C244.32 221.205 244.94 221.05 245.63 221.05C246.38 221.05 247.05 221.22 247.64 221.56C248.24 221.89 248.71 222.36 249.05 222.97C249.39 223.57 249.56 224.265 249.56 225.055C249.56 225.855 249.39 226.555 249.05 227.155C248.71 227.755 248.24 228.225 247.64 228.565C247.05 228.905 246.38 229.075 245.63 229.075ZM241.565 231.91V221.125H242.585V223.495L242.48 225.07L242.63 226.66V231.91H241.565ZM245.555 228.13C246.115 228.13 246.615 228.005 247.055 227.755C247.495 227.495 247.845 227.135 248.105 226.675C248.365 226.205 248.495 225.665 248.495 225.055C248.495 224.445 248.365 223.91 248.105 223.45C247.845 222.99 247.495 222.63 247.055 222.37C246.615 222.11 246.115 221.98 245.555 221.98C244.995 221.98 244.49 222.11 244.04 222.37C243.6 222.63 243.25 222.99 242.99 223.45C242.74 223.91 242.615 224.445 242.615 225.055C242.615 225.665 242.74 226.205 242.99 226.675C243.25 227.135 243.6 227.495 244.04 227.755C244.49 228.005 244.995 228.13 245.555 228.13ZM254.941 229.075C254.181 229.075 253.496 228.905 252.886 228.565C252.286 228.215 251.811 227.74 251.461 227.14C251.111 226.53 250.936 225.835 250.936 225.055C250.936 224.265 251.111 223.57 251.461 222.97C251.811 222.37 252.286 221.9 252.886 221.56C253.486 221.22 254.171 221.05 254.941 221.05C255.721 221.05 256.411 221.22 257.011 221.56C257.621 221.9 258.096 222.37 258.436 222.97C258.786 223.57 258.961 224.265 258.961 225.055C258.961 225.835 258.786 226.53 258.436 227.14C258.096 227.74 257.621 228.215 257.011 228.565C256.401 228.905 255.711 229.075 254.941 229.075ZM254.941 228.13C255.511 228.13 256.016 228.005 256.456 227.755C256.896 227.495 257.241 227.135 257.491 226.675C257.751 226.205 257.881 225.665 257.881 225.055C257.881 224.435 257.751 223.895 257.491 223.435C257.241 222.975 256.896 222.62 256.456 222.37C256.016 222.11 255.516 221.98 254.956 221.98C254.396 221.98 253.896 222.11 253.456 222.37C253.016 222.62 252.666 222.975 252.406 223.435C252.146 223.895 252.016 224.435 252.016 225.055C252.016 225.665 252.146 226.205 252.406 226.675C252.666 227.135 253.016 227.495 253.456 227.755C253.896 228.005 254.391 228.13 254.941 228.13ZM261.135 229V221.125H262.155V223.27L262.05 222.895C262.27 222.295 262.64 221.84 263.16 221.53C263.68 221.21 264.325 221.05 265.095 221.05V222.085C265.055 222.085 265.015 222.085 264.975 222.085C264.935 222.075 264.895 222.07 264.855 222.07C264.025 222.07 263.375 222.325 262.905 222.835C262.435 223.335 262.2 224.05 262.2 224.98V229H261.135ZM269.866 229.075C269.126 229.075 268.556 228.875 268.156 228.475C267.756 228.075 267.556 227.51 267.556 226.78V219.385H268.621V226.72C268.621 227.18 268.736 227.535 268.966 227.785C269.206 228.035 269.546 228.16 269.986 228.16C270.456 228.16 270.846 228.025 271.156 227.755L271.531 228.52C271.321 228.71 271.066 228.85 270.766 228.94C270.476 229.03 270.176 229.075 269.866 229.075ZM266.146 222.01V221.125H271.021V222.01H266.146ZM272.971 231.19L273.631 228.415L273.751 229.06C273.521 229.06 273.326 228.985 273.166 228.835C273.016 228.685 272.941 228.49 272.941 228.25C272.941 228.01 273.016 227.815 273.166 227.665C273.326 227.515 273.516 227.44 273.736 227.44C273.966 227.44 274.151 227.52 274.291 227.68C274.441 227.84 274.516 228.03 274.516 228.25C274.516 228.33 274.511 228.41 274.501 228.49C274.491 228.57 274.471 228.66 274.441 228.76C274.411 228.86 274.371 228.98 274.321 229.12L273.691 231.19H272.971ZM16.09 247L13.12 239.125H14.14L16.84 246.43H16.375L19.15 239.125H20.065L22.81 246.43H22.345L25.09 239.125H26.065L23.08 247H22.075L19.435 240.13H19.75L17.095 247H16.09ZM30.7939 247.075C29.9739 247.075 29.2539 246.905 28.6339 246.565C28.0139 246.215 27.5289 245.74 27.1789 245.14C26.8289 244.53 26.6539 243.835 26.6539 243.055C26.6539 242.275 26.8189 241.585 27.1489 240.985C27.4889 240.385 27.9489 239.915 28.5289 239.575C29.1189 239.225 29.7789 239.05 30.5089 239.05C31.2489 239.05 31.9039 239.22 32.4739 239.56C33.0539 239.89 33.5089 240.36 33.8389 240.97C34.1689 241.57 34.3339 242.265 34.3339 243.055C34.3339 243.105 34.3289 243.16 34.3189 243.22C34.3189 243.27 34.3189 243.325 34.3189 243.385H27.4639V242.59H33.7489L33.3289 242.905C33.3289 242.335 33.2039 241.83 32.9539 241.39C32.7139 240.94 32.3839 240.59 31.9639 240.34C31.5439 240.09 31.0589 239.965 30.5089 239.965C29.9689 239.965 29.4839 240.09 29.0539 240.34C28.6239 240.59 28.2889 240.94 28.0489 241.39C27.8089 241.84 27.6889 242.355 27.6889 242.935V243.1C27.6889 243.7 27.8189 244.23 28.0789 244.69C28.3489 245.14 28.7189 245.495 29.1889 245.755C29.6689 246.005 30.2139 246.13 30.8239 246.13C31.3039 246.13 31.7489 246.045 32.1589 245.875C32.5789 245.705 32.9389 245.445 33.2389 245.095L33.8389 245.785C33.4889 246.205 33.0489 246.525 32.5189 246.745C31.9989 246.965 31.4239 247.075 30.7939 247.075ZM44.4924 247.075C43.8124 247.075 43.1974 246.92 42.6474 246.61C42.0974 246.29 41.6574 245.835 41.3274 245.245C41.0074 244.645 40.8474 243.915 40.8474 243.055C40.8474 242.195 41.0074 241.47 41.3274 240.88C41.6474 240.28 42.0824 239.825 42.6324 239.515C43.1824 239.205 43.8024 239.05 44.4924 239.05C45.2424 239.05 45.9124 239.22 46.5024 239.56C47.1024 239.89 47.5724 240.36 47.9124 240.97C48.2524 241.57 48.4224 242.265 48.4224 243.055C48.4224 243.855 48.2524 244.555 47.9124 245.155C47.5724 245.755 47.1024 246.225 46.5024 246.565C45.9124 246.905 45.2424 247.075 44.4924 247.075ZM40.4274 249.91V239.125H41.4474V241.495L41.3424 243.07L41.4924 244.66V249.91H40.4274ZM44.4174 246.13C44.9774 246.13 45.4774 246.005 45.9174 245.755C46.3574 245.495 46.7074 245.135 46.9674 244.675C47.2274 244.205 47.3574 243.665 47.3574 243.055C47.3574 242.445 47.2274 241.91 46.9674 241.45C46.7074 240.99 46.3574 240.63 45.9174 240.37C45.4774 240.11 44.9774 239.98 44.4174 239.98C43.8574 239.98 43.3524 240.11 42.9024 240.37C42.4624 240.63 42.1124 240.99 41.8524 241.45C41.6024 241.91 41.4774 242.445 41.4774 243.055C41.4774 243.665 41.6024 244.205 41.8524 244.675C42.1124 245.135 42.4624 245.495 42.9024 245.755C43.3524 246.005 43.8574 246.13 44.4174 246.13ZM50.5934 247V239.125H51.6134V241.27L51.5084 240.895C51.7284 240.295 52.0984 239.84 52.6184 239.53C53.1384 239.21 53.7834 239.05 54.5534 239.05V240.085C54.5134 240.085 54.4734 240.085 54.4334 240.085C54.3934 240.075 54.3534 240.07 54.3134 240.07C53.4834 240.07 52.8334 240.325 52.3634 240.835C51.8934 241.335 51.6584 242.05 51.6584 242.98V247H50.5934ZM59.6335 247.075C58.8735 247.075 58.1885 246.905 57.5785 246.565C56.9785 246.215 56.5035 245.74 56.1535 245.14C55.8035 244.53 55.6285 243.835 55.6285 243.055C55.6285 242.265 55.8035 241.57 56.1535 240.97C56.5035 240.37 56.9785 239.9 57.5785 239.56C58.1785 239.22 58.8635 239.05 59.6335 239.05C60.4135 239.05 61.1035 239.22 61.7035 239.56C62.3135 239.9 62.7885 240.37 63.1285 240.97C63.4785 241.57 63.6535 242.265 63.6535 243.055C63.6535 243.835 63.4785 244.53 63.1285 245.14C62.7885 245.74 62.3135 246.215 61.7035 246.565C61.0935 246.905 60.4035 247.075 59.6335 247.075ZM59.6335 246.13C60.2035 246.13 60.7085 246.005 61.1485 245.755C61.5885 245.495 61.9335 245.135 62.1835 244.675C62.4435 244.205 62.5735 243.665 62.5735 243.055C62.5735 242.435 62.4435 241.895 62.1835 241.435C61.9335 240.975 61.5885 240.62 61.1485 240.37C60.7085 240.11 60.2085 239.98 59.6485 239.98C59.0885 239.98 58.5885 240.11 58.1485 240.37C57.7085 240.62 57.3585 240.975 57.0985 241.435C56.8385 241.895 56.7085 242.435 56.7085 243.055C56.7085 243.665 56.8385 244.205 57.0985 244.675C57.3585 245.135 57.7085 245.495 58.1485 245.755C58.5885 246.005 59.0835 246.13 59.6335 246.13ZM67.633 247L64.138 239.125H65.248L68.458 246.43H67.933L71.188 239.125H72.238L68.728 247H67.633ZM73.7379 247V239.125H74.8029V247H73.7379ZM74.2779 237.385C74.0579 237.385 73.8729 237.31 73.7229 237.16C73.5729 237.01 73.4979 236.83 73.4979 236.62C73.4979 236.41 73.5729 236.235 73.7229 236.095C73.8729 235.945 74.0579 235.87 74.2779 235.87C74.4979 235.87 74.6829 235.94 74.8329 236.08C74.9829 236.22 75.0579 236.395 75.0579 236.605C75.0579 236.825 74.9829 237.01 74.8329 237.16C74.6929 237.31 74.5079 237.385 74.2779 237.385ZM80.9013 247.075C80.1513 247.075 79.4763 246.905 78.8763 246.565C78.2863 246.225 77.8213 245.755 77.4813 245.155C77.1413 244.545 76.9713 243.845 76.9713 243.055C76.9713 242.255 77.1413 241.555 77.4813 240.955C77.8213 240.355 78.2863 239.89 78.8763 239.56C79.4763 239.22 80.1513 239.05 80.9013 239.05C81.5913 239.05 82.2063 239.205 82.7463 239.515C83.2963 239.825 83.7313 240.28 84.0513 240.88C84.3813 241.47 84.5462 242.195 84.5462 243.055C84.5462 243.905 84.3863 244.63 84.0663 245.23C83.7463 245.83 83.3113 246.29 82.7613 246.61C82.2213 246.92 81.6013 247.075 80.9013 247.075ZM80.9763 246.13C81.5363 246.13 82.0363 246.005 82.4763 245.755C82.9263 245.495 83.2763 245.135 83.5263 244.675C83.7863 244.205 83.9163 243.665 83.9163 243.055C83.9163 242.435 83.7863 241.895 83.5263 241.435C83.2763 240.975 82.9263 240.62 82.4763 240.37C82.0363 240.11 81.5363 239.98 80.9763 239.98C80.4263 239.98 79.9313 240.11 79.4913 240.37C79.0513 240.62 78.7013 240.975 78.4413 241.435C78.1813 241.895 78.0513 242.435 78.0513 243.055C78.0513 243.665 78.1813 244.205 78.4413 244.675C78.7013 245.135 79.0513 245.495 79.4913 245.755C79.9313 246.005 80.4263 246.13 80.9763 246.13ZM83.9463 247V244.63L84.0513 243.04L83.9013 241.45V235.87H84.9663V247H83.9463ZM91.2773 247.075C90.4573 247.075 89.7373 246.905 89.1173 246.565C88.4973 246.215 88.0123 245.74 87.6623 245.14C87.3123 244.53 87.1373 243.835 87.1373 243.055C87.1373 242.275 87.3023 241.585 87.6323 240.985C87.9723 240.385 88.4323 239.915 89.0123 239.575C89.6023 239.225 90.2623 239.05 90.9923 239.05C91.7323 239.05 92.3873 239.22 92.9573 239.56C93.5373 239.89 93.9923 240.36 94.3223 240.97C94.6523 241.57 94.8173 242.265 94.8173 243.055C94.8173 243.105 94.8123 243.16 94.8023 243.22C94.8023 243.27 94.8023 243.325 94.8023 243.385H87.9473V242.59H94.2323L93.8123 242.905C93.8123 242.335 93.6873 241.83 93.4373 241.39C93.1973 240.94 92.8673 240.59 92.4473 240.34C92.0273 240.09 91.5423 239.965 90.9923 239.965C90.4523 239.965 89.9673 240.09 89.5373 240.34C89.1073 240.59 88.7723 240.94 88.5323 241.39C88.2923 241.84 88.1723 242.355 88.1723 242.935V243.1C88.1723 243.7 88.3023 244.23 88.5623 244.69C88.8323 245.14 89.2023 245.495 89.6723 245.755C90.1523 246.005 90.6973 246.13 91.3073 246.13C91.7873 246.13 92.2323 246.045 92.6423 245.875C93.0623 245.705 93.4223 245.445 93.7223 245.095L94.3223 245.785C93.9723 246.205 93.5323 246.525 93.0023 246.745C92.4823 246.965 91.9073 247.075 91.2773 247.075ZM100.971 249.985C100.601 249.985 100.246 249.925 99.9058 249.805C99.5758 249.685 99.2908 249.505 99.0508 249.265L99.5458 248.47C99.7458 248.66 99.9608 248.805 100.191 248.905C100.431 249.015 100.696 249.07 100.986 249.07C101.336 249.07 101.636 248.97 101.886 248.77C102.146 248.58 102.391 248.24 102.621 247.75L103.131 246.595L103.251 246.43L106.491 239.125H107.541L103.596 247.945C103.376 248.455 103.131 248.86 102.861 249.16C102.601 249.46 102.316 249.67 102.006 249.79C101.696 249.92 101.351 249.985 100.971 249.985ZM103.071 247.225L99.4408 239.125H100.551L103.761 246.355L103.071 247.225ZM112.031 247.075C111.271 247.075 110.586 246.905 109.976 246.565C109.376 246.215 108.901 245.74 108.551 245.14C108.201 244.53 108.026 243.835 108.026 243.055C108.026 242.265 108.201 241.57 108.551 240.97C108.901 240.37 109.376 239.9 109.976 239.56C110.576 239.22 111.261 239.05 112.031 239.05C112.811 239.05 113.501 239.22 114.101 239.56C114.711 239.9 115.186 240.37 115.526 240.97C115.876 241.57 116.051 242.265 116.051 243.055C116.051 243.835 115.876 244.53 115.526 245.14C115.186 245.74 114.711 246.215 114.101 246.565C113.491 246.905 112.801 247.075 112.031 247.075ZM112.031 246.13C112.601 246.13 113.106 246.005 113.546 245.755C113.986 245.495 114.331 245.135 114.581 244.675C114.841 244.205 114.971 243.665 114.971 243.055C114.971 242.435 114.841 241.895 114.581 241.435C114.331 240.975 113.986 240.62 113.546 240.37C113.106 240.11 112.606 239.98 112.046 239.98C111.486 239.98 110.986 240.11 110.546 240.37C110.106 240.62 109.756 240.975 109.496 241.435C109.236 241.895 109.106 242.435 109.106 243.055C109.106 243.665 109.236 244.205 109.496 244.675C109.756 245.135 110.106 245.495 110.546 245.755C110.986 246.005 111.481 246.13 112.031 246.13ZM121.48 247.075C120.81 247.075 120.225 246.95 119.725 246.7C119.225 246.45 118.835 246.075 118.555 245.575C118.285 245.075 118.15 244.45 118.15 243.7V239.125H119.215V243.58C119.215 244.42 119.42 245.055 119.83 245.485C120.25 245.905 120.835 246.115 121.585 246.115C122.135 246.115 122.61 246.005 123.01 245.785C123.42 245.555 123.73 245.225 123.94 244.795C124.16 244.365 124.27 243.85 124.27 243.25V239.125H125.335V247H124.315V244.84L124.48 245.23C124.23 245.81 123.84 246.265 123.31 246.595C122.79 246.915 122.18 247.075 121.48 247.075ZM133.834 247L130.864 239.125H131.884L134.584 246.43H134.119L136.894 239.125H137.809L140.554 246.43H140.089L142.834 239.125H143.809L140.824 247H139.819L137.179 240.13H137.494L134.839 247H133.834ZM145.413 247V239.125H146.478V247H145.413ZM145.953 237.385C145.733 237.385 145.548 237.31 145.398 237.16C145.248 237.01 145.173 236.83 145.173 236.62C145.173 236.41 145.248 236.235 145.398 236.095C145.548 235.945 145.733 235.87 145.953 235.87C146.173 235.87 146.358 235.94 146.508 236.08C146.658 236.22 146.733 236.395 146.733 236.605C146.733 236.825 146.658 237.01 146.508 237.16C146.368 237.31 146.183 237.385 145.953 237.385ZM151.931 247.075C151.191 247.075 150.621 246.875 150.221 246.475C149.821 246.075 149.621 245.51 149.621 244.78V237.385H150.686V244.72C150.686 245.18 150.801 245.535 151.031 245.785C151.271 246.035 151.611 246.16 152.051 246.16C152.521 246.16 152.911 246.025 153.221 245.755L153.596 246.52C153.386 246.71 153.131 246.85 152.831 246.94C152.541 247.03 152.241 247.075 151.931 247.075ZM148.211 240.01V239.125H153.086V240.01H148.211ZM159.555 239.05C160.195 239.05 160.755 239.175 161.235 239.425C161.725 239.665 162.105 240.035 162.375 240.535C162.655 241.035 162.795 241.665 162.795 242.425V247H161.73V242.53C161.73 241.7 161.52 241.075 161.1 240.655C160.69 240.225 160.11 240.01 159.36 240.01C158.8 240.01 158.31 240.125 157.89 240.355C157.48 240.575 157.16 240.9 156.93 241.33C156.71 241.75 156.6 242.26 156.6 242.86V247H155.535V235.87H156.6V241.285L156.39 240.88C156.64 240.31 157.04 239.865 157.59 239.545C158.14 239.215 158.795 239.05 159.555 239.05ZM172.867 247.075C172.087 247.075 171.387 246.905 170.767 246.565C170.157 246.215 169.677 245.74 169.327 245.14C168.977 244.53 168.802 243.835 168.802 243.055C168.802 242.265 168.977 241.57 169.327 240.97C169.677 240.37 170.157 239.9 170.767 239.56C171.387 239.22 172.087 239.05 172.867 239.05C173.537 239.05 174.142 239.18 174.682 239.44C175.222 239.7 175.647 240.09 175.957 240.61L175.162 241.15C174.892 240.75 174.557 240.455 174.157 240.265C173.757 240.075 173.322 239.98 172.852 239.98C172.292 239.98 171.787 240.11 171.337 240.37C170.887 240.62 170.532 240.975 170.272 241.435C170.012 241.895 169.882 242.435 169.882 243.055C169.882 243.675 170.012 244.215 170.272 244.675C170.532 245.135 170.887 245.495 171.337 245.755C171.787 246.005 172.292 246.13 172.852 246.13C173.322 246.13 173.757 246.035 174.157 245.845C174.557 245.655 174.892 245.365 175.162 244.975L175.957 245.515C175.647 246.025 175.222 246.415 174.682 246.685C174.142 246.945 173.537 247.075 172.867 247.075ZM181.128 247.075C180.368 247.075 179.683 246.905 179.073 246.565C178.473 246.215 177.998 245.74 177.648 245.14C177.298 244.53 177.123 243.835 177.123 243.055C177.123 242.265 177.298 241.57 177.648 240.97C177.998 240.37 178.473 239.9 179.073 239.56C179.673 239.22 180.358 239.05 181.128 239.05C181.908 239.05 182.598 239.22 183.198 239.56C183.808 239.9 184.283 240.37 184.623 240.97C184.973 241.57 185.148 242.265 185.148 243.055C185.148 243.835 184.973 244.53 184.623 245.14C184.283 245.74 183.808 246.215 183.198 246.565C182.588 246.905 181.898 247.075 181.128 247.075ZM181.128 246.13C181.698 246.13 182.203 246.005 182.643 245.755C183.083 245.495 183.428 245.135 183.678 244.675C183.938 244.205 184.068 243.665 184.068 243.055C184.068 242.435 183.938 241.895 183.678 241.435C183.428 240.975 183.083 240.62 182.643 240.37C182.203 240.11 181.703 239.98 181.143 239.98C180.583 239.98 180.083 240.11 179.643 240.37C179.203 240.62 178.853 240.975 178.593 241.435C178.333 241.895 178.203 242.435 178.203 243.055C178.203 243.665 178.333 244.205 178.593 244.675C178.853 245.135 179.203 245.495 179.643 245.755C180.083 246.005 180.578 246.13 181.128 246.13ZM197.162 239.05C197.802 239.05 198.357 239.175 198.827 239.425C199.307 239.665 199.677 240.035 199.937 240.535C200.207 241.035 200.342 241.665 200.342 242.425V247H199.277V242.53C199.277 241.7 199.077 241.075 198.677 240.655C198.287 240.225 197.732 240.01 197.012 240.01C196.472 240.01 196.002 240.125 195.602 240.355C195.212 240.575 194.907 240.9 194.687 241.33C194.477 241.75 194.372 242.26 194.372 242.86V247H193.307V242.53C193.307 241.7 193.107 241.075 192.707 240.655C192.307 240.225 191.747 240.01 191.027 240.01C190.497 240.01 190.032 240.125 189.632 240.355C189.232 240.575 188.922 240.9 188.702 241.33C188.492 241.75 188.387 242.26 188.387 242.86V247H187.322V239.125H188.342V241.255L188.177 240.88C188.417 240.31 188.802 239.865 189.332 239.545C189.872 239.215 190.507 239.05 191.237 239.05C192.007 239.05 192.662 239.245 193.202 239.635C193.742 240.015 194.092 240.59 194.252 241.36L193.832 241.195C194.062 240.555 194.467 240.04 195.047 239.65C195.637 239.25 196.342 239.05 197.162 239.05ZM207.295 247.075C206.615 247.075 206 246.92 205.45 246.61C204.9 246.29 204.46 245.835 204.13 245.245C203.81 244.645 203.65 243.915 203.65 243.055C203.65 242.195 203.81 241.47 204.13 240.88C204.45 240.28 204.885 239.825 205.435 239.515C205.985 239.205 206.605 239.05 207.295 239.05C208.045 239.05 208.715 239.22 209.305 239.56C209.905 239.89 210.375 240.36 210.715 240.97C211.055 241.57 211.225 242.265 211.225 243.055C211.225 243.855 211.055 244.555 210.715 245.155C210.375 245.755 209.905 246.225 209.305 246.565C208.715 246.905 208.045 247.075 207.295 247.075ZM203.23 249.91V239.125H204.25V241.495L204.145 243.07L204.295 244.66V249.91H203.23ZM207.22 246.13C207.78 246.13 208.28 246.005 208.72 245.755C209.16 245.495 209.51 245.135 209.77 244.675C210.03 244.205 210.16 243.665 210.16 243.055C210.16 242.445 210.03 241.91 209.77 241.45C209.51 240.99 209.16 240.63 208.72 240.37C208.28 240.11 207.78 239.98 207.22 239.98C206.66 239.98 206.155 240.11 205.705 240.37C205.265 240.63 204.915 240.99 204.655 241.45C204.405 241.91 204.28 242.445 204.28 243.055C204.28 243.665 204.405 244.205 204.655 244.675C204.915 245.135 205.265 245.495 205.705 245.755C206.155 246.005 206.66 246.13 207.22 246.13ZM213.396 247V239.125H214.416V241.27L214.311 240.895C214.531 240.295 214.901 239.84 215.421 239.53C215.941 239.21 216.586 239.05 217.356 239.05V240.085C217.316 240.085 217.276 240.085 217.236 240.085C217.196 240.075 217.156 240.07 217.116 240.07C216.286 240.07 215.636 240.325 215.166 240.835C214.696 241.335 214.461 242.05 214.461 242.98V247H213.396ZM222.571 247.075C221.751 247.075 221.031 246.905 220.411 246.565C219.791 246.215 219.306 245.74 218.956 245.14C218.606 244.53 218.431 243.835 218.431 243.055C218.431 242.275 218.596 241.585 218.926 240.985C219.266 240.385 219.726 239.915 220.306 239.575C220.896 239.225 221.556 239.05 222.286 239.05C223.026 239.05 223.681 239.22 224.251 239.56C224.831 239.89 225.286 240.36 225.616 240.97C225.946 241.57 226.111 242.265 226.111 243.055C226.111 243.105 226.106 243.16 226.096 243.22C226.096 243.27 226.096 243.325 226.096 243.385H219.241V242.59H225.526L225.106 242.905C225.106 242.335 224.981 241.83 224.731 241.39C224.491 240.94 224.161 240.59 223.741 240.34C223.321 240.09 222.836 239.965 222.286 239.965C221.746 239.965 221.261 240.09 220.831 240.34C220.401 240.59 220.066 240.94 219.826 241.39C219.586 241.84 219.466 242.355 219.466 242.935V243.1C219.466 243.7 219.596 244.23 219.856 244.69C220.126 245.14 220.496 245.495 220.966 245.755C221.446 246.005 221.991 246.13 222.601 246.13C223.081 246.13 223.526 246.045 223.936 245.875C224.356 245.705 224.716 245.445 225.016 245.095L225.616 245.785C225.266 246.205 224.826 246.525 224.296 246.745C223.776 246.965 223.201 247.075 222.571 247.075ZM232.299 239.05C232.939 239.05 233.499 239.175 233.979 239.425C234.469 239.665 234.849 240.035 235.119 240.535C235.399 241.035 235.539 241.665 235.539 242.425V247H234.474V242.53C234.474 241.7 234.264 241.075 233.844 240.655C233.434 240.225 232.854 240.01 232.104 240.01C231.544 240.01 231.054 240.125 230.634 240.355C230.224 240.575 229.904 240.9 229.674 241.33C229.454 241.75 229.344 242.26 229.344 242.86V247H228.279V235.87H229.344V241.285L229.134 240.88C229.384 240.31 229.784 239.865 230.334 239.545C230.884 239.215 231.539 239.05 232.299 239.05ZM241.761 247.075C240.941 247.075 240.221 246.905 239.601 246.565C238.981 246.215 238.496 245.74 238.146 245.14C237.796 244.53 237.621 243.835 237.621 243.055C237.621 242.275 237.786 241.585 238.116 240.985C238.456 240.385 238.916 239.915 239.496 239.575C240.086 239.225 240.746 239.05 241.476 239.05C242.216 239.05 242.871 239.22 243.441 239.56C244.021 239.89 244.476 240.36 244.806 240.97C245.136 241.57 245.301 242.265 245.301 243.055C245.301 243.105 245.296 243.16 245.286 243.22C245.286 243.27 245.286 243.325 245.286 243.385H238.431V242.59H244.716L244.296 242.905C244.296 242.335 244.171 241.83 243.921 241.39C243.681 240.94 243.351 240.59 242.931 240.34C242.511 240.09 242.026 239.965 241.476 239.965C240.936 239.965 240.451 240.09 240.021 240.34C239.591 240.59 239.256 240.94 239.016 241.39C238.776 241.84 238.656 242.355 238.656 242.935V243.1C238.656 243.7 238.786 244.23 239.046 244.69C239.316 245.14 239.686 245.495 240.156 245.755C240.636 246.005 241.181 246.13 241.791 246.13C242.271 246.13 242.716 246.045 243.126 245.875C243.546 245.705 243.906 245.445 244.206 245.095L244.806 245.785C244.456 246.205 244.016 246.525 243.486 246.745C242.966 246.965 242.391 247.075 241.761 247.075ZM251.488 239.05C252.128 239.05 252.688 239.175 253.168 239.425C253.658 239.665 254.038 240.035 254.308 240.535C254.588 241.035 254.728 241.665 254.728 242.425V247H253.663V242.53C253.663 241.7 253.453 241.075 253.033 240.655C252.623 240.225 252.043 240.01 251.293 240.01C250.733 240.01 250.243 240.125 249.823 240.355C249.413 240.575 249.093 240.9 248.863 241.33C248.643 241.75 248.533 242.26 248.533 242.86V247H247.468V239.125H248.488V241.285L248.323 240.88C248.573 240.31 248.973 239.865 249.523 239.545C250.073 239.215 250.728 239.05 251.488 239.05ZM259.72 247.075C259.07 247.075 258.455 246.985 257.875 246.805C257.295 246.615 256.84 246.38 256.51 246.1L256.99 245.26C257.31 245.5 257.72 245.71 258.22 245.89C258.72 246.06 259.245 246.145 259.795 246.145C260.545 246.145 261.085 246.03 261.415 245.8C261.745 245.56 261.91 245.245 261.91 244.855C261.91 244.565 261.815 244.34 261.625 244.18C261.445 244.01 261.205 243.885 260.905 243.805C260.605 243.715 260.27 243.64 259.9 243.58C259.53 243.52 259.16 243.45 258.79 243.37C258.43 243.29 258.1 243.175 257.8 243.025C257.5 242.865 257.255 242.65 257.065 242.38C256.885 242.11 256.795 241.75 256.795 241.3C256.795 240.87 256.915 240.485 257.155 240.145C257.395 239.805 257.745 239.54 258.205 239.35C258.675 239.15 259.245 239.05 259.915 239.05C260.425 239.05 260.935 239.12 261.445 239.26C261.955 239.39 262.375 239.565 262.705 239.785L262.24 240.64C261.89 240.4 261.515 240.23 261.115 240.13C260.715 240.02 260.315 239.965 259.915 239.965C259.205 239.965 258.68 240.09 258.34 240.34C258.01 240.58 257.845 240.89 257.845 241.27C257.845 241.57 257.935 241.805 258.115 241.975C258.305 242.145 258.55 242.28 258.85 242.38C259.16 242.47 259.495 242.545 259.855 242.605C260.225 242.665 260.59 242.74 260.95 242.83C261.32 242.91 261.655 243.025 261.955 243.175C262.265 243.315 262.51 243.52 262.69 243.79C262.88 244.05 262.975 244.395 262.975 244.825C262.975 245.285 262.845 245.685 262.585 246.025C262.335 246.355 261.965 246.615 261.475 246.805C260.995 246.985 260.41 247.075 259.72 247.075ZM264.929 247V239.125H265.994V247H264.929ZM265.469 237.385C265.249 237.385 265.064 237.31 264.914 237.16C264.764 237.01 264.689 236.83 264.689 236.62C264.689 236.41 264.764 236.235 264.914 236.095C265.064 235.945 265.249 235.87 265.469 235.87C265.689 235.87 265.874 235.94 266.024 236.08C266.174 236.22 266.249 236.395 266.249 236.605C266.249 236.825 266.174 237.01 266.024 237.16C265.884 237.31 265.699 237.385 265.469 237.385ZM270.983 247L267.488 239.125H268.598L271.808 246.43H271.283L274.538 239.125H275.588L272.078 247H270.983ZM280.213 247.075C279.393 247.075 278.673 246.905 278.053 246.565C277.433 246.215 276.948 245.74 276.598 245.14C276.248 244.53 276.073 243.835 276.073 243.055C276.073 242.275 276.238 241.585 276.568 240.985C276.908 240.385 277.368 239.915 277.948 239.575C278.538 239.225 279.198 239.05 279.928 239.05C280.668 239.05 281.323 239.22 281.893 239.56C282.473 239.89 282.928 240.36 283.258 240.97C283.588 241.57 283.753 242.265 283.753 243.055C283.753 243.105 283.748 243.16 283.738 243.22C283.738 243.27 283.738 243.325 283.738 243.385H276.883V242.59H283.168L282.748 242.905C282.748 242.335 282.623 241.83 282.373 241.39C282.133 240.94 281.803 240.59 281.383 240.34C280.963 240.09 280.478 239.965 279.928 239.965C279.388 239.965 278.903 240.09 278.473 240.34C278.043 240.59 277.708 240.94 277.468 241.39C277.228 241.84 277.108 242.355 277.108 242.935V243.1C277.108 243.7 277.238 244.23 277.498 244.69C277.768 245.14 278.138 245.495 278.608 245.755C279.088 246.005 279.633 246.13 280.243 246.13C280.723 246.13 281.168 246.045 281.578 245.875C281.998 245.705 282.358 245.445 282.658 245.095L283.258 245.785C282.908 246.205 282.468 246.525 281.938 246.745C281.418 246.965 280.843 247.075 280.213 247.075ZM19.42 265V263.26L19.375 262.975V260.065C19.375 259.395 19.185 258.88 18.805 258.52C18.435 258.16 17.88 257.98 17.14 257.98C16.63 257.98 16.145 258.065 15.685 258.235C15.225 258.405 14.835 258.63 14.515 258.91L14.035 258.115C14.435 257.775 14.915 257.515 15.475 257.335C16.035 257.145 16.625 257.05 17.245 257.05C18.265 257.05 19.05 257.305 19.6 257.815C20.16 258.315 20.44 259.08 20.44 260.11V265H19.42ZM16.705 265.075C16.115 265.075 15.6 264.98 15.16 264.79C14.73 264.59 14.4 264.32 14.17 263.98C13.94 263.63 13.825 263.23 13.825 262.78C13.825 262.37 13.92 262 14.11 261.67C14.31 261.33 14.63 261.06 15.07 260.86C15.52 260.65 16.12 260.545 16.87 260.545H19.585V261.34H16.9C16.14 261.34 15.61 261.475 15.31 261.745C15.02 262.015 14.875 262.35 14.875 262.75C14.875 263.2 15.05 263.56 15.4 263.83C15.75 264.1 16.24 264.235 16.87 264.235C17.47 264.235 17.985 264.1 18.415 263.83C18.855 263.55 19.175 263.15 19.375 262.63L19.615 263.365C19.415 263.885 19.065 264.3 18.565 264.61C18.075 264.92 17.455 265.075 16.705 265.075ZM27.3527 257.05C27.9927 257.05 28.5527 257.175 29.0327 257.425C29.5227 257.665 29.9027 258.035 30.1727 258.535C30.4527 259.035 30.5927 259.665 30.5927 260.425V265H29.5277V260.53C29.5277 259.7 29.3177 259.075 28.8977 258.655C28.4877 258.225 27.9077 258.01 27.1577 258.01C26.5977 258.01 26.1077 258.125 25.6877 258.355C25.2777 258.575 24.9577 258.9 24.7277 259.33C24.5077 259.75 24.3977 260.26 24.3977 260.86V265H23.3327V257.125H24.3527V259.285L24.1877 258.88C24.4377 258.31 24.8377 257.865 25.3877 257.545C25.9377 257.215 26.5927 257.05 27.3527 257.05ZM35.5844 265.075C34.9344 265.075 34.3194 264.985 33.7394 264.805C33.1594 264.615 32.7044 264.38 32.3744 264.1L32.8544 263.26C33.1744 263.5 33.5844 263.71 34.0844 263.89C34.5844 264.06 35.1094 264.145 35.6594 264.145C36.4094 264.145 36.9494 264.03 37.2794 263.8C37.6094 263.56 37.7744 263.245 37.7744 262.855C37.7744 262.565 37.6794 262.34 37.4894 262.18C37.3094 262.01 37.0694 261.885 36.7694 261.805C36.4694 261.715 36.1344 261.64 35.7644 261.58C35.3944 261.52 35.0244 261.45 34.6544 261.37C34.2944 261.29 33.9644 261.175 33.6644 261.025C33.3644 260.865 33.1194 260.65 32.9294 260.38C32.7494 260.11 32.6594 259.75 32.6594 259.3C32.6594 258.87 32.7794 258.485 33.0194 258.145C33.2594 257.805 33.6094 257.54 34.0694 257.35C34.5394 257.15 35.1094 257.05 35.7794 257.05C36.2894 257.05 36.7994 257.12 37.3094 257.26C37.8194 257.39 38.2394 257.565 38.5694 257.785L38.1044 258.64C37.7544 258.4 37.3794 258.23 36.9794 258.13C36.5794 258.02 36.1794 257.965 35.7794 257.965C35.0694 257.965 34.5444 258.09 34.2044 258.34C33.8744 258.58 33.7094 258.89 33.7094 259.27C33.7094 259.57 33.7994 259.805 33.9794 259.975C34.1694 260.145 34.4144 260.28 34.7144 260.38C35.0244 260.47 35.3594 260.545 35.7194 260.605C36.0894 260.665 36.4544 260.74 36.8144 260.83C37.1844 260.91 37.5194 261.025 37.8194 261.175C38.1294 261.315 38.3744 261.52 38.5544 261.79C38.7444 262.05 38.8394 262.395 38.8394 262.825C38.8394 263.285 38.7094 263.685 38.4494 264.025C38.1994 264.355 37.8294 264.615 37.3394 264.805C36.8594 264.985 36.2744 265.075 35.5844 265.075ZM42.2521 265L39.2821 257.125H40.3021L43.0021 264.43H42.5371L45.3121 257.125H46.2271L48.9721 264.43H48.5071L51.2521 257.125H52.2271L49.2421 265H48.2371L45.5971 258.13H45.9121L43.2571 265H42.2521ZM56.956 265.075C56.136 265.075 55.416 264.905 54.796 264.565C54.176 264.215 53.691 263.74 53.341 263.14C52.991 262.53 52.816 261.835 52.816 261.055C52.816 260.275 52.981 259.585 53.311 258.985C53.651 258.385 54.111 257.915 54.691 257.575C55.281 257.225 55.941 257.05 56.671 257.05C57.411 257.05 58.066 257.22 58.636 257.56C59.216 257.89 59.671 258.36 60.001 258.97C60.331 259.57 60.496 260.265 60.496 261.055C60.496 261.105 60.491 261.16 60.481 261.22C60.481 261.27 60.481 261.325 60.481 261.385H53.626V260.59H59.911L59.491 260.905C59.491 260.335 59.366 259.83 59.116 259.39C58.876 258.94 58.546 258.59 58.126 258.34C57.706 258.09 57.221 257.965 56.671 257.965C56.131 257.965 55.646 258.09 55.216 258.34C54.786 258.59 54.451 258.94 54.211 259.39C53.971 259.84 53.851 260.355 53.851 260.935V261.1C53.851 261.7 53.981 262.23 54.241 262.69C54.511 263.14 54.881 263.495 55.351 263.755C55.831 264.005 56.376 264.13 56.986 264.13C57.466 264.13 57.911 264.045 58.321 263.875C58.741 263.705 59.101 263.445 59.401 263.095L60.001 263.785C59.651 264.205 59.211 264.525 58.681 264.745C58.161 264.965 57.586 265.075 56.956 265.075ZM62.6637 265V257.125H63.6837V259.27L63.5787 258.895C63.7987 258.295 64.1687 257.84 64.6887 257.53C65.2087 257.21 65.8537 257.05 66.6237 257.05V258.085C66.5837 258.085 66.5437 258.085 66.5037 258.085C66.4637 258.075 66.4237 258.07 66.3837 258.07C65.5537 258.07 64.9037 258.325 64.4337 258.835C63.9637 259.335 63.7287 260.05 63.7287 260.98V265H62.6637ZM73.45 262.96L73.48 261.595L78.385 257.125H79.69L76.225 260.44L75.625 260.95L73.45 262.96ZM72.61 265V253.87H73.675V265H72.61ZM78.715 265L75.43 260.905L76.12 260.08L80.02 265H78.715ZM84.6562 265.075C83.8362 265.075 83.1162 264.905 82.4962 264.565C81.8762 264.215 81.3912 263.74 81.0412 263.14C80.6912 262.53 80.5162 261.835 80.5162 261.055C80.5162 260.275 80.6812 259.585 81.0112 258.985C81.3512 258.385 81.8112 257.915 82.3912 257.575C82.9812 257.225 83.6412 257.05 84.3712 257.05C85.1112 257.05 85.7662 257.22 86.3362 257.56C86.9162 257.89 87.3712 258.36 87.7012 258.97C88.0312 259.57 88.1962 260.265 88.1962 261.055C88.1962 261.105 88.1912 261.16 88.1812 261.22C88.1812 261.27 88.1812 261.325 88.1812 261.385H81.3262V260.59H87.6112L87.1912 260.905C87.1912 260.335 87.0662 259.83 86.8162 259.39C86.5762 258.94 86.2462 258.59 85.8262 258.34C85.4062 258.09 84.9212 257.965 84.3712 257.965C83.8312 257.965 83.3462 258.09 82.9162 258.34C82.4862 258.59 82.1512 258.94 81.9112 259.39C81.6712 259.84 81.5512 260.355 81.5512 260.935V261.1C81.5512 261.7 81.6812 262.23 81.9412 262.69C82.2112 263.14 82.5812 263.495 83.0512 263.755C83.5312 264.005 84.0762 264.13 84.6862 264.13C85.1662 264.13 85.6112 264.045 86.0212 263.875C86.4412 263.705 86.8012 263.445 87.1012 263.095L87.7012 263.785C87.3512 264.205 86.9112 264.525 86.3812 264.745C85.8612 264.965 85.2862 265.075 84.6562 265.075ZM90.2774 267.985C89.9074 267.985 89.5524 267.925 89.2124 267.805C88.8824 267.685 88.5974 267.505 88.3574 267.265L88.8524 266.47C89.0524 266.66 89.2674 266.805 89.4974 266.905C89.7374 267.015 90.0024 267.07 90.2924 267.07C90.6424 267.07 90.9424 266.97 91.1924 266.77C91.4524 266.58 91.6974 266.24 91.9274 265.75L92.4374 264.595L92.5574 264.43L95.7974 257.125H96.8474L92.9024 265.945C92.6824 266.455 92.4374 266.86 92.1674 267.16C91.9074 267.46 91.6224 267.67 91.3124 267.79C91.0024 267.92 90.6574 267.985 90.2774 267.985ZM92.3774 265.225L88.7474 257.125H89.8574L93.0674 264.355L92.3774 265.225ZM100.374 265.075C99.7244 265.075 99.1094 264.985 98.5294 264.805C97.9494 264.615 97.4944 264.38 97.1644 264.1L97.6444 263.26C97.9644 263.5 98.3744 263.71 98.8744 263.89C99.3744 264.06 99.8994 264.145 100.449 264.145C101.199 264.145 101.739 264.03 102.069 263.8C102.399 263.56 102.564 263.245 102.564 262.855C102.564 262.565 102.469 262.34 102.279 262.18C102.099 262.01 101.859 261.885 101.559 261.805C101.259 261.715 100.924 261.64 100.554 261.58C100.184 261.52 99.8144 261.45 99.4444 261.37C99.0844 261.29 98.7544 261.175 98.4544 261.025C98.1544 260.865 97.9094 260.65 97.7194 260.38C97.5394 260.11 97.4494 259.75 97.4494 259.3C97.4494 258.87 97.5694 258.485 97.8094 258.145C98.0494 257.805 98.3994 257.54 98.8594 257.35C99.3294 257.15 99.8994 257.05 100.569 257.05C101.079 257.05 101.589 257.12 102.099 257.26C102.609 257.39 103.029 257.565 103.359 257.785L102.894 258.64C102.544 258.4 102.169 258.23 101.769 258.13C101.369 258.02 100.969 257.965 100.569 257.965C99.8594 257.965 99.3344 258.09 98.9944 258.34C98.6644 258.58 98.4994 258.89 98.4994 259.27C98.4994 259.57 98.5894 259.805 98.7694 259.975C98.9594 260.145 99.2044 260.28 99.5044 260.38C99.8144 260.47 100.149 260.545 100.509 260.605C100.879 260.665 101.244 260.74 101.604 260.83C101.974 260.91 102.309 261.025 102.609 261.175C102.919 261.315 103.164 261.52 103.344 261.79C103.534 262.05 103.629 262.395 103.629 262.825C103.629 263.285 103.499 263.685 103.239 264.025C102.989 264.355 102.619 264.615 102.129 264.805C101.649 264.985 101.064 265.075 100.374 265.075ZM109.689 265V256.135C109.689 255.435 109.894 254.87 110.304 254.44C110.714 254.01 111.304 253.795 112.074 253.795C112.374 253.795 112.664 253.835 112.944 253.915C113.224 253.995 113.459 254.12 113.649 254.29L113.289 255.085C113.139 254.955 112.964 254.86 112.764 254.8C112.564 254.73 112.349 254.695 112.119 254.695C111.669 254.695 111.324 254.82 111.084 255.07C110.844 255.32 110.724 255.69 110.724 256.18V257.38L110.754 257.875V265H109.689ZM108.279 258.01V257.125H113.154V258.01H108.279ZM117.671 265.075C116.911 265.075 116.226 264.905 115.616 264.565C115.016 264.215 114.541 263.74 114.191 263.14C113.841 262.53 113.666 261.835 113.666 261.055C113.666 260.265 113.841 259.57 114.191 258.97C114.541 258.37 115.016 257.9 115.616 257.56C116.216 257.22 116.901 257.05 117.671 257.05C118.451 257.05 119.141 257.22 119.741 257.56C120.351 257.9 120.826 258.37 121.166 258.97C121.516 259.57 121.691 260.265 121.691 261.055C121.691 261.835 121.516 262.53 121.166 263.14C120.826 263.74 120.351 264.215 119.741 264.565C119.131 264.905 118.441 265.075 117.671 265.075ZM117.671 264.13C118.241 264.13 118.746 264.005 119.186 263.755C119.626 263.495 119.971 263.135 120.221 262.675C120.481 262.205 120.611 261.665 120.611 261.055C120.611 260.435 120.481 259.895 120.221 259.435C119.971 258.975 119.626 258.62 119.186 258.37C118.746 258.11 118.246 257.98 117.686 257.98C117.126 257.98 116.626 258.11 116.186 258.37C115.746 258.62 115.396 258.975 115.136 259.435C114.876 259.895 114.746 260.435 114.746 261.055C114.746 261.665 114.876 262.205 115.136 262.675C115.396 263.135 115.746 263.495 116.186 263.755C116.626 264.005 117.121 264.13 117.671 264.13ZM123.865 265V257.125H124.885V259.27L124.78 258.895C125 258.295 125.37 257.84 125.89 257.53C126.41 257.21 127.055 257.05 127.825 257.05V258.085C127.785 258.085 127.745 258.085 127.705 258.085C127.665 258.075 127.625 258.07 127.585 258.07C126.755 258.07 126.105 258.325 125.635 258.835C125.165 259.335 124.93 260.05 124.93 260.98V265H123.865ZM137.156 265.075C136.336 265.075 135.616 264.905 134.996 264.565C134.376 264.215 133.891 263.74 133.541 263.14C133.191 262.53 133.016 261.835 133.016 261.055C133.016 260.275 133.181 259.585 133.511 258.985C133.851 258.385 134.311 257.915 134.891 257.575C135.481 257.225 136.141 257.05 136.871 257.05C137.611 257.05 138.266 257.22 138.836 257.56C139.416 257.89 139.871 258.36 140.201 258.97C140.531 259.57 140.696 260.265 140.696 261.055C140.696 261.105 140.691 261.16 140.681 261.22C140.681 261.27 140.681 261.325 140.681 261.385H133.826V260.59H140.111L139.691 260.905C139.691 260.335 139.566 259.83 139.316 259.39C139.076 258.94 138.746 258.59 138.326 258.34C137.906 258.09 137.421 257.965 136.871 257.965C136.331 257.965 135.846 258.09 135.416 258.34C134.986 258.59 134.651 258.94 134.411 259.39C134.171 259.84 134.051 260.355 134.051 260.935V261.1C134.051 261.7 134.181 262.23 134.441 262.69C134.711 263.14 135.081 263.495 135.551 263.755C136.031 264.005 136.576 264.13 137.186 264.13C137.666 264.13 138.111 264.045 138.521 263.875C138.941 263.705 139.301 263.445 139.601 263.095L140.201 263.785C139.851 264.205 139.411 264.525 138.881 264.745C138.361 264.965 137.786 265.075 137.156 265.075ZM143.044 265V256.135C143.044 255.435 143.249 254.87 143.659 254.44C144.069 254.01 144.659 253.795 145.429 253.795C145.729 253.795 146.019 253.835 146.299 253.915C146.579 253.995 146.814 254.12 147.004 254.29L146.644 255.085C146.494 254.955 146.319 254.86 146.119 254.8C145.919 254.73 145.704 254.695 145.474 254.695C145.024 254.695 144.679 254.82 144.439 255.07C144.199 255.32 144.079 255.69 144.079 256.18V257.38L144.109 257.875V265H143.044ZM141.634 258.01V257.125H146.509V258.01H141.634ZM148.127 265V256.135C148.127 255.435 148.332 254.87 148.742 254.44C149.152 254.01 149.742 253.795 150.512 253.795C150.812 253.795 151.102 253.835 151.382 253.915C151.662 253.995 151.897 254.12 152.087 254.29L151.727 255.085C151.577 254.955 151.402 254.86 151.202 254.8C151.002 254.73 150.787 254.695 150.557 254.695C150.107 254.695 149.762 254.82 149.522 255.07C149.282 255.32 149.162 255.69 149.162 256.18V257.38L149.192 257.875V265H148.127ZM146.717 258.01V257.125H151.592V258.01H146.717ZM153.032 265V257.125H154.097V265H153.032ZM153.572 255.385C153.352 255.385 153.167 255.31 153.017 255.16C152.867 255.01 152.792 254.83 152.792 254.62C152.792 254.41 152.867 254.235 153.017 254.095C153.167 253.945 153.352 253.87 153.572 253.87C153.792 253.87 153.977 253.94 154.127 254.08C154.277 254.22 154.352 254.395 154.352 254.605C154.352 254.825 154.277 255.01 154.127 255.16C153.987 255.31 153.802 255.385 153.572 255.385ZM160.358 265.075C159.578 265.075 158.878 264.905 158.258 264.565C157.648 264.215 157.168 263.74 156.818 263.14C156.468 262.53 156.293 261.835 156.293 261.055C156.293 260.265 156.468 259.57 156.818 258.97C157.168 258.37 157.648 257.9 158.258 257.56C158.878 257.22 159.578 257.05 160.358 257.05C161.028 257.05 161.633 257.18 162.173 257.44C162.713 257.7 163.138 258.09 163.448 258.61L162.653 259.15C162.383 258.75 162.048 258.455 161.648 258.265C161.248 258.075 160.813 257.98 160.343 257.98C159.783 257.98 159.278 258.11 158.828 258.37C158.378 258.62 158.023 258.975 157.763 259.435C157.503 259.895 157.373 260.435 157.373 261.055C157.373 261.675 157.503 262.215 157.763 262.675C158.023 263.135 158.378 263.495 158.828 263.755C159.278 264.005 159.783 264.13 160.343 264.13C160.813 264.13 161.248 264.035 161.648 263.845C162.048 263.655 162.383 263.365 162.653 262.975L163.448 263.515C163.138 264.025 162.713 264.415 162.173 264.685C161.633 264.945 161.028 265.075 160.358 265.075ZM165.423 265V257.125H166.488V265H165.423ZM165.963 255.385C165.743 255.385 165.558 255.31 165.408 255.16C165.258 255.01 165.183 254.83 165.183 254.62C165.183 254.41 165.258 254.235 165.408 254.095C165.558 253.945 165.743 253.87 165.963 253.87C166.183 253.87 166.368 253.94 166.518 254.08C166.668 254.22 166.743 254.395 166.743 254.605C166.743 254.825 166.668 255.01 166.518 255.16C166.378 255.31 166.193 255.385 165.963 255.385ZM172.796 265.075C171.976 265.075 171.256 264.905 170.636 264.565C170.016 264.215 169.531 263.74 169.181 263.14C168.831 262.53 168.656 261.835 168.656 261.055C168.656 260.275 168.821 259.585 169.151 258.985C169.491 258.385 169.951 257.915 170.531 257.575C171.121 257.225 171.781 257.05 172.511 257.05C173.251 257.05 173.906 257.22 174.476 257.56C175.056 257.89 175.511 258.36 175.841 258.97C176.171 259.57 176.336 260.265 176.336 261.055C176.336 261.105 176.331 261.16 176.321 261.22C176.321 261.27 176.321 261.325 176.321 261.385H169.466V260.59H175.751L175.331 260.905C175.331 260.335 175.206 259.83 174.956 259.39C174.716 258.94 174.386 258.59 173.966 258.34C173.546 258.09 173.061 257.965 172.511 257.965C171.971 257.965 171.486 258.09 171.056 258.34C170.626 258.59 170.291 258.94 170.051 259.39C169.811 259.84 169.691 260.355 169.691 260.935V261.1C169.691 261.7 169.821 262.23 170.081 262.69C170.351 263.14 170.721 263.495 171.191 263.755C171.671 264.005 172.216 264.13 172.826 264.13C173.306 264.13 173.751 264.045 174.161 263.875C174.581 263.705 174.941 263.445 175.241 263.095L175.841 263.785C175.491 264.205 175.051 264.525 174.521 264.745C174.001 264.965 173.426 265.075 172.796 265.075ZM182.524 257.05C183.164 257.05 183.724 257.175 184.204 257.425C184.694 257.665 185.074 258.035 185.344 258.535C185.624 259.035 185.764 259.665 185.764 260.425V265H184.699V260.53C184.699 259.7 184.489 259.075 184.069 258.655C183.659 258.225 183.079 258.01 182.329 258.01C181.769 258.01 181.279 258.125 180.859 258.355C180.449 258.575 180.129 258.9 179.899 259.33C179.679 259.75 179.569 260.26 179.569 260.86V265H178.504V257.125H179.524V259.285L179.359 258.88C179.609 258.31 180.009 257.865 180.559 257.545C181.109 257.215 181.764 257.05 182.524 257.05ZM191.13 265.075C190.39 265.075 189.82 264.875 189.42 264.475C189.02 264.075 188.82 263.51 188.82 262.78V255.385H189.885V262.72C189.885 263.18 190 263.535 190.23 263.785C190.47 264.035 190.81 264.16 191.25 264.16C191.72 264.16 192.11 264.025 192.42 263.755L192.795 264.52C192.585 264.71 192.33 264.85 192.03 264.94C191.74 265.03 191.44 265.075 191.13 265.075ZM187.41 258.01V257.125H192.285V258.01H187.41ZM202.02 267.985C201.3 267.985 200.61 267.88 199.95 267.67C199.29 267.46 198.755 267.16 198.345 266.77L198.885 265.96C199.255 266.29 199.71 266.55 200.25 266.74C200.8 266.94 201.38 267.04 201.99 267.04C202.99 267.04 203.725 266.805 204.195 266.335C204.665 265.875 204.9 265.155 204.9 264.175V262.21L205.05 260.86L204.945 259.51V257.125H205.965V264.04C205.965 265.4 205.63 266.395 204.96 267.025C204.3 267.665 203.32 267.985 202.02 267.985ZM201.825 264.7C201.075 264.7 200.4 264.54 199.8 264.22C199.2 263.89 198.725 263.435 198.375 262.855C198.035 262.275 197.865 261.61 197.865 260.86C197.865 260.11 198.035 259.45 198.375 258.88C198.725 258.3 199.2 257.85 199.8 257.53C200.4 257.21 201.075 257.05 201.825 257.05C202.525 257.05 203.155 257.195 203.715 257.485C204.275 257.775 204.72 258.205 205.05 258.775C205.38 259.345 205.545 260.04 205.545 260.86C205.545 261.68 205.38 262.375 205.05 262.945C204.72 263.515 204.275 263.95 203.715 264.25C203.155 264.55 202.525 264.7 201.825 264.7ZM201.93 263.755C202.51 263.755 203.025 263.635 203.475 263.395C203.925 263.145 204.28 262.805 204.54 262.375C204.8 261.935 204.93 261.43 204.93 260.86C204.93 260.29 204.8 259.79 204.54 259.36C204.28 258.93 203.925 258.595 203.475 258.355C203.025 258.105 202.51 257.98 201.93 257.98C201.36 257.98 200.845 258.105 200.385 258.355C199.935 258.595 199.58 258.93 199.32 259.36C199.07 259.79 198.945 260.29 198.945 260.86C198.945 261.43 199.07 261.935 199.32 262.375C199.58 262.805 199.935 263.145 200.385 263.395C200.845 263.635 201.36 263.755 201.93 263.755ZM208.928 265V257.125H209.948V259.27L209.843 258.895C210.063 258.295 210.433 257.84 210.953 257.53C211.473 257.21 212.118 257.05 212.888 257.05V258.085C212.848 258.085 212.808 258.085 212.768 258.085C212.728 258.075 212.688 258.07 212.648 258.07C211.818 258.07 211.168 258.325 210.698 258.835C210.228 259.335 209.993 260.05 209.993 260.98V265H208.928ZM219.181 265V263.26L219.136 262.975V260.065C219.136 259.395 218.946 258.88 218.566 258.52C218.196 258.16 217.641 257.98 216.901 257.98C216.391 257.98 215.906 258.065 215.446 258.235C214.986 258.405 214.596 258.63 214.276 258.91L213.796 258.115C214.196 257.775 214.676 257.515 215.236 257.335C215.796 257.145 216.386 257.05 217.006 257.05C218.026 257.05 218.811 257.305 219.361 257.815C219.921 258.315 220.201 259.08 220.201 260.11V265H219.181ZM216.466 265.075C215.876 265.075 215.361 264.98 214.921 264.79C214.491 264.59 214.161 264.32 213.931 263.98C213.701 263.63 213.586 263.23 213.586 262.78C213.586 262.37 213.681 262 213.871 261.67C214.071 261.33 214.391 261.06 214.831 260.86C215.281 260.65 215.881 260.545 216.631 260.545H219.346V261.34H216.661C215.901 261.34 215.371 261.475 215.071 261.745C214.781 262.015 214.636 262.35 214.636 262.75C214.636 263.2 214.811 263.56 215.161 263.83C215.511 264.1 216.001 264.235 216.631 264.235C217.231 264.235 217.746 264.1 218.176 263.83C218.616 263.55 218.936 263.15 219.136 262.63L219.376 263.365C219.176 263.885 218.826 264.3 218.326 264.61C217.836 264.92 217.216 265.075 216.466 265.075ZM226.228 265.075C225.478 265.075 224.803 264.905 224.203 264.565C223.613 264.225 223.148 263.755 222.808 263.155C222.468 262.545 222.298 261.845 222.298 261.055C222.298 260.255 222.468 259.555 222.808 258.955C223.148 258.355 223.613 257.89 224.203 257.56C224.803 257.22 225.478 257.05 226.228 257.05C226.918 257.05 227.533 257.205 228.073 257.515C228.623 257.825 229.058 258.28 229.378 258.88C229.708 259.47 229.873 260.195 229.873 261.055C229.873 261.905 229.713 262.63 229.393 263.23C229.073 263.83 228.638 264.29 228.088 264.61C227.548 264.92 226.928 265.075 226.228 265.075ZM226.303 264.13C226.863 264.13 227.363 264.005 227.803 263.755C228.253 263.495 228.603 263.135 228.853 262.675C229.113 262.205 229.243 261.665 229.243 261.055C229.243 260.435 229.113 259.895 228.853 259.435C228.603 258.975 228.253 258.62 227.803 258.37C227.363 258.11 226.863 257.98 226.303 257.98C225.753 257.98 225.258 258.11 224.818 258.37C224.378 258.62 224.028 258.975 223.768 259.435C223.508 259.895 223.378 260.435 223.378 261.055C223.378 261.665 223.508 262.205 223.768 262.675C224.028 263.135 224.378 263.495 224.818 263.755C225.258 264.005 225.753 264.13 226.303 264.13ZM229.273 265V262.63L229.378 261.04L229.228 259.45V253.87H230.293V265H229.273ZM233.259 265V257.125H234.324V265H233.259ZM233.799 255.385C233.579 255.385 233.394 255.31 233.244 255.16C233.094 255.01 233.019 254.83 233.019 254.62C233.019 254.41 233.094 254.235 233.244 254.095C233.394 253.945 233.579 253.87 233.799 253.87C234.019 253.87 234.204 253.94 234.354 254.08C234.504 254.22 234.579 254.395 234.579 254.605C234.579 254.825 234.504 255.01 234.354 255.16C234.214 255.31 234.029 255.385 233.799 255.385ZM241.308 257.05C241.948 257.05 242.508 257.175 242.988 257.425C243.478 257.665 243.858 258.035 244.128 258.535C244.408 259.035 244.548 259.665 244.548 260.425V265H243.483V260.53C243.483 259.7 243.273 259.075 242.853 258.655C242.443 258.225 241.863 258.01 241.113 258.01C240.553 258.01 240.063 258.125 239.643 258.355C239.233 258.575 238.913 258.9 238.683 259.33C238.463 259.75 238.353 260.26 238.353 260.86V265H237.288V257.125H238.308V259.285L238.143 258.88C238.393 258.31 238.793 257.865 239.343 257.545C239.893 257.215 240.548 257.05 241.308 257.05ZM250.784 267.985C250.064 267.985 249.374 267.88 248.714 267.67C248.054 267.46 247.519 267.16 247.109 266.77L247.649 265.96C248.019 266.29 248.474 266.55 249.014 266.74C249.564 266.94 250.144 267.04 250.754 267.04C251.754 267.04 252.489 266.805 252.959 266.335C253.429 265.875 253.664 265.155 253.664 264.175V262.21L253.814 260.86L253.709 259.51V257.125H254.729V264.04C254.729 265.4 254.394 266.395 253.724 267.025C253.064 267.665 252.084 267.985 250.784 267.985ZM250.589 264.7C249.839 264.7 249.164 264.54 248.564 264.22C247.964 263.89 247.489 263.435 247.139 262.855C246.799 262.275 246.629 261.61 246.629 260.86C246.629 260.11 246.799 259.45 247.139 258.88C247.489 258.3 247.964 257.85 248.564 257.53C249.164 257.21 249.839 257.05 250.589 257.05C251.289 257.05 251.919 257.195 252.479 257.485C253.039 257.775 253.484 258.205 253.814 258.775C254.144 259.345 254.309 260.04 254.309 260.86C254.309 261.68 254.144 262.375 253.814 262.945C253.484 263.515 253.039 263.95 252.479 264.25C251.919 264.55 251.289 264.7 250.589 264.7ZM250.694 263.755C251.274 263.755 251.789 263.635 252.239 263.395C252.689 263.145 253.044 262.805 253.304 262.375C253.564 261.935 253.694 261.43 253.694 260.86C253.694 260.29 253.564 259.79 253.304 259.36C253.044 258.93 252.689 258.595 252.239 258.355C251.789 258.105 251.274 257.98 250.694 257.98C250.124 257.98 249.609 258.105 249.149 258.355C248.699 258.595 248.344 258.93 248.084 259.36C247.834 259.79 247.709 260.29 247.709 260.86C247.709 261.43 247.834 261.935 248.084 262.375C248.344 262.805 248.699 263.145 249.149 263.395C249.609 263.635 250.124 263.755 250.694 263.755Z" fill="#434343"/>
<path d="M17.56 183.8L17.38 180.06L24.08 173H27.68L21.64 179.5L19.84 181.42L17.56 183.8ZM14.66 187V173H17.88V187H14.66ZM24.24 187L19.26 180.9L21.38 178.6L28.02 187H24.24ZM34.1355 187.16C32.9088 187.16 31.8288 186.92 30.8955 186.44C29.9755 185.96 29.2621 185.307 28.7555 184.48C28.2488 183.64 27.9955 182.687 27.9955 181.62C27.9955 180.54 28.2421 179.587 28.7355 178.76C29.2421 177.92 29.9288 177.267 30.7955 176.8C31.6621 176.32 32.6421 176.08 33.7355 176.08C34.7888 176.08 35.7355 176.307 36.5755 176.76C37.4288 177.2 38.1021 177.84 38.5955 178.68C39.0888 179.507 39.3355 180.5 39.3355 181.66C39.3355 181.78 39.3288 181.92 39.3155 182.08C39.3021 182.227 39.2888 182.367 39.2755 182.5H30.5355V180.68H37.6355L36.4355 181.22C36.4355 180.66 36.3221 180.173 36.0955 179.76C35.8688 179.347 35.5555 179.027 35.1555 178.8C34.7555 178.56 34.2888 178.44 33.7555 178.44C33.2221 178.44 32.7488 178.56 32.3355 178.8C31.9355 179.027 31.6221 179.353 31.3955 179.78C31.1688 180.193 31.0555 180.687 31.0555 181.26V181.74C31.0555 182.327 31.1821 182.847 31.4355 183.3C31.7021 183.74 32.0688 184.08 32.5355 184.32C33.0155 184.547 33.5755 184.66 34.2155 184.66C34.7888 184.66 35.2888 184.573 35.7155 184.4C36.1555 184.227 36.5555 183.967 36.9155 183.62L38.5755 185.42C38.0821 185.98 37.4621 186.413 36.7155 186.72C35.9688 187.013 35.1088 187.16 34.1355 187.16ZM42.5773 191.04C42.0173 191.04 41.464 190.953 40.9173 190.78C40.3707 190.607 39.924 190.367 39.5773 190.06L40.7173 187.84C40.9573 188.053 41.2307 188.22 41.5373 188.34C41.8573 188.46 42.1707 188.52 42.4773 188.52C42.9173 188.52 43.264 188.413 43.5173 188.2C43.784 188 44.024 187.66 44.2373 187.18L44.7973 185.86L45.0373 185.52L48.8973 176.24H51.8973L47.0373 187.66C46.6907 188.527 46.2907 189.207 45.8373 189.7C45.3973 190.193 44.904 190.54 44.3573 190.74C43.824 190.94 43.2307 191.04 42.5773 191.04ZM44.4173 187.42L39.6173 176.24H42.8373L46.5573 185.24L44.4173 187.42ZM57.2145 187L63.4545 173H66.6545L72.9145 187H69.5145L64.3945 174.64H65.6745L60.5345 187H57.2145ZM60.3345 184L61.1945 181.54H68.3945L69.2745 184H60.3345ZM80.687 176.08C81.5404 176.08 82.3004 176.253 82.967 176.6C83.647 176.933 84.1804 177.453 84.567 178.16C84.9537 178.853 85.147 179.747 85.147 180.84V187H82.027V181.32C82.027 180.453 81.8337 179.813 81.447 179.4C81.0737 178.987 80.5404 178.78 79.847 178.78C79.3537 178.78 78.907 178.887 78.507 179.1C78.1204 179.3 77.8137 179.613 77.587 180.04C77.3737 180.467 77.267 181.013 77.267 181.68V187H74.147V176.24H77.127V179.22L76.567 178.32C76.9537 177.6 77.507 177.047 78.227 176.66C78.947 176.273 79.767 176.08 80.687 176.08ZM91.5952 187.16C90.6752 187.16 89.7885 187.053 88.9352 186.84C88.0952 186.613 87.4285 186.333 86.9352 186L87.9752 183.76C88.4685 184.067 89.0485 184.32 89.7152 184.52C90.3952 184.707 91.0618 184.8 91.7152 184.8C92.4352 184.8 92.9418 184.713 93.2352 184.54C93.5418 184.367 93.6952 184.127 93.6952 183.82C93.6952 183.567 93.5752 183.38 93.3352 183.26C93.1085 183.127 92.8018 183.027 92.4152 182.96C92.0285 182.893 91.6018 182.827 91.1352 182.76C90.6818 182.693 90.2218 182.607 89.7552 182.5C89.2885 182.38 88.8618 182.207 88.4752 181.98C88.0885 181.753 87.7752 181.447 87.5352 181.06C87.3085 180.673 87.1952 180.173 87.1952 179.56C87.1952 178.88 87.3885 178.28 87.7752 177.76C88.1752 177.24 88.7485 176.833 89.4952 176.54C90.2418 176.233 91.1352 176.08 92.1752 176.08C92.9085 176.08 93.6552 176.16 94.4152 176.32C95.1752 176.48 95.8085 176.713 96.3152 177.02L95.2752 179.24C94.7552 178.933 94.2285 178.727 93.6952 178.62C93.1752 178.5 92.6685 178.44 92.1752 178.44C91.4818 178.44 90.9752 178.533 90.6552 178.72C90.3352 178.907 90.1752 179.147 90.1752 179.44C90.1752 179.707 90.2885 179.907 90.5152 180.04C90.7552 180.173 91.0685 180.28 91.4552 180.36C91.8418 180.44 92.2618 180.513 92.7152 180.58C93.1818 180.633 93.6485 180.72 94.1152 180.84C94.5818 180.96 95.0018 181.133 95.3752 181.36C95.7618 181.573 96.0752 181.873 96.3152 182.26C96.5552 182.633 96.6752 183.127 96.6752 183.74C96.6752 184.407 96.4752 185 96.0752 185.52C95.6752 186.027 95.0952 186.427 94.3352 186.72C93.5885 187.013 92.6752 187.16 91.5952 187.16ZM100.865 187L96.9848 176.24H99.9248L103.145 185.5H101.745L105.105 176.24H107.745L111.005 185.5H109.605L112.925 176.24H115.685L111.785 187H108.765L105.905 179.06H106.825L103.865 187H100.865ZM122.182 187.16C120.956 187.16 119.876 186.92 118.942 186.44C118.022 185.96 117.309 185.307 116.802 184.48C116.296 183.64 116.042 182.687 116.042 181.62C116.042 180.54 116.289 179.587 116.782 178.76C117.289 177.92 117.976 177.267 118.842 176.8C119.709 176.32 120.689 176.08 121.782 176.08C122.836 176.08 123.782 176.307 124.622 176.76C125.476 177.2 126.149 177.84 126.642 178.68C127.136 179.507 127.382 180.5 127.382 181.66C127.382 181.78 127.376 181.92 127.362 182.08C127.349 182.227 127.336 182.367 127.322 182.5H118.582V180.68H125.682L124.482 181.22C124.482 180.66 124.369 180.173 124.142 179.76C123.916 179.347 123.602 179.027 123.202 178.8C122.802 178.56 122.336 178.44 121.802 178.44C121.269 178.44 120.796 178.56 120.382 178.8C119.982 179.027 119.669 179.353 119.442 179.78C119.216 180.193 119.102 180.687 119.102 181.26V181.74C119.102 182.327 119.229 182.847 119.482 183.3C119.749 183.74 120.116 184.08 120.582 184.32C121.062 184.547 121.622 184.66 122.262 184.66C122.836 184.66 123.336 184.573 123.762 184.4C124.202 184.227 124.602 183.967 124.962 183.62L126.622 185.42C126.129 185.98 125.509 186.413 124.762 186.72C124.016 187.013 123.156 187.16 122.182 187.16ZM129.46 187V176.24H132.44V179.28L132.02 178.4C132.34 177.64 132.853 177.067 133.56 176.68C134.266 176.28 135.126 176.08 136.14 176.08V178.96C136.006 178.947 135.886 178.94 135.78 178.94C135.673 178.927 135.56 178.92 135.44 178.92C134.586 178.92 133.893 179.167 133.36 179.66C132.84 180.14 132.58 180.893 132.58 181.92V187H129.46ZM141.693 187.16C140.773 187.16 139.886 187.053 139.033 186.84C138.193 186.613 137.526 186.333 137.033 186L138.073 183.76C138.566 184.067 139.146 184.32 139.813 184.52C140.493 184.707 141.159 184.8 141.813 184.8C142.533 184.8 143.039 184.713 143.333 184.54C143.639 184.367 143.793 184.127 143.793 183.82C143.793 183.567 143.673 183.38 143.433 183.26C143.206 183.127 142.899 183.027 142.513 182.96C142.126 182.893 141.699 182.827 141.233 182.76C140.779 182.693 140.319 182.607 139.853 182.5C139.386 182.38 138.959 182.207 138.573 181.98C138.186 181.753 137.873 181.447 137.633 181.06C137.406 180.673 137.293 180.173 137.293 179.56C137.293 178.88 137.486 178.28 137.873 177.76C138.273 177.24 138.846 176.833 139.593 176.54C140.339 176.233 141.233 176.08 142.273 176.08C143.006 176.08 143.753 176.16 144.513 176.32C145.273 176.48 145.906 176.713 146.413 177.02L145.373 179.24C144.853 178.933 144.326 178.727 143.793 178.62C143.273 178.5 142.766 178.44 142.273 178.44C141.579 178.44 141.073 178.533 140.753 178.72C140.433 178.907 140.273 179.147 140.273 179.44C140.273 179.707 140.386 179.907 140.613 180.04C140.853 180.173 141.166 180.28 141.553 180.36C141.939 180.44 142.359 180.513 142.813 180.58C143.279 180.633 143.746 180.72 144.213 180.84C144.679 180.96 145.099 181.133 145.473 181.36C145.859 181.573 146.173 181.873 146.413 182.26C146.653 182.633 146.773 183.127 146.773 183.74C146.773 184.407 146.573 185 146.173 185.52C145.773 186.027 145.193 186.427 144.433 186.72C143.686 187.013 142.773 187.16 141.693 187.16ZM154.742 187V176C154.742 174.787 155.102 173.82 155.822 173.1C156.542 172.367 157.569 172 158.902 172C159.355 172 159.789 172.047 160.202 172.14C160.629 172.233 160.989 172.38 161.282 172.58L160.462 174.84C160.289 174.72 160.095 174.627 159.882 174.56C159.669 174.493 159.442 174.46 159.202 174.46C158.749 174.46 158.395 174.593 158.142 174.86C157.902 175.113 157.782 175.5 157.782 176.02V177.02L157.862 178.36V187H154.742ZM153.082 178.88V176.48H160.542V178.88H153.082ZM167.08 187.16C165.933 187.16 164.913 186.92 164.02 186.44C163.14 185.96 162.44 185.307 161.92 184.48C161.413 183.64 161.16 182.687 161.16 181.62C161.16 180.54 161.413 179.587 161.92 178.76C162.44 177.92 163.14 177.267 164.02 176.8C164.913 176.32 165.933 176.08 167.08 176.08C168.213 176.08 169.226 176.32 170.12 176.8C171.013 177.267 171.713 177.913 172.22 178.74C172.726 179.567 172.98 180.527 172.98 181.62C172.98 182.687 172.726 183.64 172.22 184.48C171.713 185.307 171.013 185.96 170.12 186.44C169.226 186.92 168.213 187.16 167.08 187.16ZM167.08 184.6C167.6 184.6 168.066 184.48 168.48 184.24C168.893 184 169.22 183.66 169.46 183.22C169.7 182.767 169.82 182.233 169.82 181.62C169.82 180.993 169.7 180.46 169.46 180.02C169.22 179.58 168.893 179.24 168.48 179C168.066 178.76 167.6 178.64 167.08 178.64C166.56 178.64 166.093 178.76 165.68 179C165.266 179.24 164.933 179.58 164.68 180.02C164.44 180.46 164.32 180.993 164.32 181.62C164.32 182.233 164.44 182.767 164.68 183.22C164.933 183.66 165.266 184 165.68 184.24C166.093 184.48 166.56 184.6 167.08 184.6ZM175.065 187V176.24H178.045V179.28L177.625 178.4C177.945 177.64 178.458 177.067 179.165 176.68C179.872 176.28 180.732 176.08 181.745 176.08V178.96C181.612 178.947 181.492 178.94 181.385 178.94C181.278 178.927 181.165 178.92 181.045 178.92C180.192 178.92 179.498 179.167 178.965 179.66C178.445 180.14 178.185 180.893 178.185 181.92V187H175.065ZM190.702 191.04C190.142 191.04 189.589 190.953 189.042 190.78C188.496 190.607 188.049 190.367 187.702 190.06L188.842 187.84C189.082 188.053 189.356 188.22 189.662 188.34C189.982 188.46 190.296 188.52 190.602 188.52C191.042 188.52 191.389 188.413 191.642 188.2C191.909 188 192.149 187.66 192.362 187.18L192.922 185.86L193.162 185.52L197.022 176.24H200.022L195.162 187.66C194.816 188.527 194.416 189.207 193.962 189.7C193.522 190.193 193.029 190.54 192.482 190.74C191.949 190.94 191.356 191.04 190.702 191.04ZM192.542 187.42L187.742 176.24H190.962L194.682 185.24L192.542 187.42ZM206.123 187.16C204.976 187.16 203.956 186.92 203.063 186.44C202.183 185.96 201.483 185.307 200.963 184.48C200.456 183.64 200.203 182.687 200.203 181.62C200.203 180.54 200.456 179.587 200.963 178.76C201.483 177.92 202.183 177.267 203.063 176.8C203.956 176.32 204.976 176.08 206.123 176.08C207.256 176.08 208.269 176.32 209.163 176.8C210.056 177.267 210.756 177.913 211.263 178.74C211.769 179.567 212.023 180.527 212.023 181.62C212.023 182.687 211.769 183.64 211.263 184.48C210.756 185.307 210.056 185.96 209.163 186.44C208.269 186.92 207.256 187.16 206.123 187.16ZM206.123 184.6C206.643 184.6 207.109 184.48 207.523 184.24C207.936 184 208.263 183.66 208.503 183.22C208.743 182.767 208.863 182.233 208.863 181.62C208.863 180.993 208.743 180.46 208.503 180.02C208.263 179.58 207.936 179.24 207.523 179C207.109 178.76 206.643 178.64 206.123 178.64C205.603 178.64 205.136 178.76 204.723 179C204.309 179.24 203.976 179.58 203.723 180.02C203.483 180.46 203.363 180.993 203.363 181.62C203.363 182.233 203.483 182.767 203.723 183.22C203.976 183.66 204.309 184 204.723 184.24C205.136 184.48 205.603 184.6 206.123 184.6ZM218.648 187.16C217.755 187.16 216.955 186.987 216.248 186.64C215.555 186.293 215.015 185.767 214.628 185.06C214.241 184.34 214.048 183.427 214.048 182.32V176.24H217.168V181.86C217.168 182.753 217.355 183.413 217.728 183.84C218.115 184.253 218.655 184.46 219.348 184.46C219.828 184.46 220.255 184.36 220.628 184.16C221.001 183.947 221.295 183.627 221.508 183.2C221.721 182.76 221.828 182.213 221.828 181.56V176.24H224.948V187H221.988V184.04L222.528 184.9C222.168 185.647 221.635 186.213 220.928 186.6C220.235 186.973 219.475 187.16 218.648 187.16ZM227.838 187V176.24H230.818V179.28L230.398 178.4C230.718 177.64 231.232 177.067 231.938 176.68C232.645 176.28 233.505 176.08 234.518 176.08V178.96C234.385 178.947 234.265 178.94 234.158 178.94C234.052 178.927 233.938 178.92 233.818 178.92C232.965 178.92 232.272 179.167 231.738 179.66C231.218 180.14 230.958 180.893 230.958 181.92V187H227.838ZM247.456 187.16C246.229 187.16 245.149 186.92 244.216 186.44C243.296 185.96 242.582 185.307 242.076 184.48C241.569 183.64 241.316 182.687 241.316 181.62C241.316 180.54 241.562 179.587 242.056 178.76C242.562 177.92 243.249 177.267 244.116 176.8C244.982 176.32 245.962 176.08 247.056 176.08C248.109 176.08 249.056 176.307 249.896 176.76C250.749 177.2 251.422 177.84 251.916 178.68C252.409 179.507 252.656 180.5 252.656 181.66C252.656 181.78 252.649 181.92 252.636 182.08C252.622 182.227 252.609 182.367 252.596 182.5H243.856V180.68H250.956L249.756 181.22C249.756 180.66 249.642 180.173 249.416 179.76C249.189 179.347 248.876 179.027 248.476 178.8C248.076 178.56 247.609 178.44 247.076 178.44C246.542 178.44 246.069 178.56 245.656 178.8C245.256 179.027 244.942 179.353 244.716 179.78C244.489 180.193 244.376 180.687 244.376 181.26V181.74C244.376 182.327 244.502 182.847 244.756 183.3C245.022 183.74 245.389 184.08 245.856 184.32C246.336 184.547 246.896 184.66 247.536 184.66C248.109 184.66 248.609 184.573 249.036 184.4C249.476 184.227 249.876 183.967 250.236 183.62L251.896 185.42C251.402 185.98 250.782 186.413 250.036 186.72C249.289 187.013 248.429 187.16 247.456 187.16ZM253.08 187L257.9 180.68L257.84 182.4L253.22 176.24H256.72L259.64 180.26L258.32 180.3L261.34 176.24H264.66L260.02 182.34V180.66L264.82 187H261.28L258.22 182.72L259.52 182.9L256.48 187H253.08ZM272.739 187V184.9L272.539 184.44V180.68C272.539 180.013 272.333 179.493 271.919 179.12C271.519 178.747 270.899 178.56 270.059 178.56C269.486 178.56 268.919 178.653 268.359 178.84C267.813 179.013 267.346 179.253 266.959 179.56L265.839 177.38C266.426 176.967 267.133 176.647 267.959 176.42C268.786 176.193 269.626 176.08 270.479 176.08C272.119 176.08 273.393 176.467 274.299 177.24C275.206 178.013 275.659 179.22 275.659 180.86V187H272.739ZM269.459 187.16C268.619 187.16 267.899 187.02 267.299 186.74C266.699 186.447 266.239 186.053 265.919 185.56C265.599 185.067 265.439 184.513 265.439 183.9C265.439 183.26 265.593 182.7 265.899 182.22C266.219 181.74 266.719 181.367 267.399 181.1C268.079 180.82 268.966 180.68 270.059 180.68H272.919V182.5H270.399C269.666 182.5 269.159 182.62 268.879 182.86C268.613 183.1 268.479 183.4 268.479 183.76C268.479 184.16 268.633 184.48 268.939 184.72C269.259 184.947 269.693 185.06 270.239 185.06C270.759 185.06 271.226 184.94 271.639 184.7C272.053 184.447 272.353 184.08 272.539 183.6L273.019 185.04C272.793 185.733 272.379 186.26 271.779 186.62C271.179 186.98 270.406 187.16 269.459 187.16ZM292.263 176.08C293.116 176.08 293.87 176.253 294.523 176.6C295.19 176.933 295.71 177.453 296.083 178.16C296.47 178.853 296.663 179.747 296.663 180.84V187H293.543V181.32C293.543 180.453 293.363 179.813 293.003 179.4C292.643 178.987 292.136 178.78 291.483 178.78C291.03 178.78 290.623 178.887 290.263 179.1C289.903 179.3 289.623 179.607 289.423 180.02C289.223 180.433 289.123 180.96 289.123 181.6V187H286.003V181.32C286.003 180.453 285.823 179.813 285.463 179.4C285.116 178.987 284.616 178.78 283.963 178.78C283.51 178.78 283.103 178.887 282.743 179.1C282.383 179.3 282.103 179.607 281.903 180.02C281.703 180.433 281.603 180.96 281.603 181.6V187H278.483V176.24H281.463V179.18L280.903 178.32C281.276 177.587 281.803 177.033 282.483 176.66C283.176 176.273 283.963 176.08 284.843 176.08C285.83 176.08 286.69 176.333 287.423 176.84C288.17 177.333 288.663 178.093 288.903 179.12L287.803 178.82C288.163 177.98 288.736 177.313 289.523 176.82C290.323 176.327 291.236 176.08 292.263 176.08Z" fill="#434343"/>
<g clip-path="url(#clip0_87_721)">
<g filter="url(#filter1_d_87_721)">
<path d="M203 75.3333H166.817C165.032 70.2654 161.718 65.8764 157.332 62.7717C152.947 59.667 147.706 57.9998 142.333 58C127.99 58 116.333 69.6567 116.333 84C116.333 98.3433 127.99 110 142.333 110C147.706 110 152.947 108.333 157.332 105.228C161.718 102.124 165.032 97.7346 166.817 92.6667H168.333L177 101.333L185.667 92.6667L194.333 101.333L211.667 83.8267L203 75.3333ZM142.333 97C135.183 97 129.333 91.15 129.333 84C129.333 76.85 135.183 71 142.333 71C149.483 71 155.333 76.85 155.333 84C155.333 91.15 149.483 97 142.333 97Z" fill="#FFD863"/>
<path d="M210.249 83.8374L194.33 99.9156L186.374 91.9596L185.667 91.2525L184.959 91.9596L177 99.9191L169.04 91.9596L168.747 91.6667H168.333H166.817H166.109L165.873 92.3344C164.157 97.2071 160.971 101.427 156.755 104.412C152.538 107.397 147.499 109 142.333 109C128.542 109 117.333 97.791 117.333 84C117.333 70.209 128.542 59 142.333 59H142.333C147.499 58.9998 152.538 60.6028 156.755 63.5879C160.971 66.5729 164.157 70.7929 165.873 75.6656L166.109 76.3333H166.817H202.592L210.249 83.8374ZM128.333 84C128.333 91.7023 134.631 98 142.333 98C150.036 98 156.333 91.7023 156.333 84C156.333 76.2977 150.036 70 142.333 70C134.631 70 128.333 76.2977 128.333 84Z" stroke="#DCB84C" stroke-width="2"/>
</g>
</g>
<defs>
<filter id="filter0_di_87_721" x="0" y="0" width="314" height="342" filterUnits="userSpaceOnUse" color-interpolation-filters="sRGB">
<feFlood flood-opacity="0" result="BackgroundImageFix"/>
<feColorMatrix in="SourceAlpha" type="matrix" values="0 0 0 0 0 0 0 0 0 0 0 0 0 0 0 0 0 0 127 0" result="hardAlpha"/>
<feOffset dy="4"/>
<feGaussianBlur stdDeviation="2"/>
<feComposite in2="hardAlpha" operator="out"/>
<feColorMatrix type="matrix" values="0 0 0 0 0 0 0 0 0 0 0 0 0 0 0 0 0 0 0.25 0"/>
<feBlend mode="normal" in2="BackgroundImageFix" result="effect1_dropShadow_87_721"/>
<feBlend mode="normal" in="SourceGraphic" in2="effect1_dropShadow_87_721" result="shape"/>
<feColorMatrix in="SourceAlpha" type="matrix" values="0 0 0 0 0 0 0 0 0 0 0 0 0 0 0 0 0 0 127 0" result="hardAlpha"/>
<feOffset dy="10"/>
<feGaussianBlur stdDeviation="3"/>
<feComposite in2="hardAlpha" operator="arithmetic" k2="-1" k3="1"/>
<feColorMatrix type="matrix" values="0 0 0 0 0 0 0 0 0 0 0 0 0 0 0 0 0 0 0.25 0"/>
<feBlend mode="normal" in2="shape" result="effect2_innerShadow_87_721"/>
</filter>
<filter id="filter1_d_87_721" x="110.333" y="58" width="107.333" height="66" filterUnits="userSpaceOnUse" color-interpolation-filters="sRGB">
<feFlood flood-opacity="0" result="BackgroundImageFix"/>
<feColorMatrix in="SourceAlpha" type="matrix" values="0 0 0 0 0 0 0 0 0 0 0 0 0 0 0 0 0 0 127 0" result="hardAlpha"/>
<feOffset dy="8"/>
<feGaussianBlur stdDeviation="3"/>
<feComposite in2="hardAlpha" operator="out"/>
<feColorMatrix type="matrix" values="0 0 0 0 0 0 0 0 0 0 0 0 0 0 0 0 0 0 0.25 0"/>
<feBlend mode="normal" in2="BackgroundImageFix" result="effect1_dropShadow_87_721"/>
<feBlend mode="normal" in="SourceGraphic" in2="effect1_dropShadow_87_721" result="shape"/>
</filter>
<clipPath id="clip0_87_721">
<rect width="104" height="104" fill="white" transform="translate(112 32)"/>
</clipPath>
</defs>
</svg>
