<svg width="38" height="37" viewBox="0 0 38 37" fill="none" xmlns="http://www.w3.org/2000/svg">
<path d="M17.0051 4.91385C15.6795 4.35336 14.2229 4.15225 12.7895 4.33181C11.3562 4.51137 9.99931 5.06492 8.86258 5.93387C7.72586 6.80282 6.85155 7.95485 6.33221 9.26801C5.81287 10.5812 5.6678 12.0066 5.91238 13.3935C4.75318 14.2317 3.84801 15.3591 3.29251 16.6568C2.73701 17.9544 2.55181 19.3741 2.75647 20.7658C2.96113 22.1574 3.54806 23.4694 4.45524 24.5632C5.36241 25.6569 6.55616 26.4917 7.91035 26.9794C8.0763 28.3762 8.62669 29.7033 9.50337 30.8206C10.38 31.938 11.5504 32.8039 12.8908 33.327C14.2313 33.8501 15.6919 34.0109 17.1184 33.7924C18.545 33.5739 19.8844 32.9842 20.9951 32.0857C22.0521 32.5322 23.1955 32.7515 24.3475 32.7288C25.4994 32.7061 26.6328 32.4419 27.6703 31.9541C28.7079 31.4663 29.6253 30.7665 30.3599 29.9023C31.0946 29.0381 31.6293 28.0298 31.9275 26.9462C32.1121 26.2851 32.2074 25.6035 32.211 24.9184C32.2112 24.4795 32.1724 24.0414 32.0953 23.609C33.2545 22.7708 34.1596 21.6433 34.7151 20.3457C35.2706 19.048 35.4558 17.6284 35.2512 16.2367C35.0465 14.845 34.4596 13.533 33.5524 12.4393C32.6452 11.3456 31.4515 10.5108 30.0973 10.023C29.9327 8.62473 29.3828 7.2958 28.5059 6.17694C27.6289 5.05808 26.4576 4.19094 25.1158 3.66734C23.7741 3.14373 22.3119 2.98314 20.8841 3.20258C19.4563 3.42201 18.116 4.01331 17.0051 4.91385ZM7.79308 10.4971C8.01061 9.7062 8.39021 8.96633 8.90904 8.322C9.42788 7.67767 10.0752 7.14219 10.8121 6.7478C11.549 6.3534 12.3602 6.10822 13.197 6.02703C14.0337 5.94583 14.8787 6.03029 15.681 6.27533C15.5025 6.51099 15.3375 6.75611 15.1867 7.00955L11.3734 13.4412C11.2952 13.573 11.2541 13.7226 11.2541 13.8748C11.2541 14.027 11.2952 14.1765 11.3734 14.3084L15.4005 21.1013H11.9731L8.41058 15.1033C8.00006 14.4134 7.73411 13.651 7.62812 12.8604C7.52212 12.0698 7.57819 11.2665 7.79308 10.4971ZM20.5424 15.8982L22.0846 18.4998L20.5424 21.1013H17.4578L15.9156 18.4998L17.4578 15.8982H20.5424ZM10.6876 25.7263C9.43218 25.7265 8.20594 25.3576 7.1694 24.6679C6.13286 23.9783 5.33431 23 4.87828 21.8611C4.42224 20.7222 4.32997 19.4757 4.61354 18.2849C4.8971 17.0941 5.54329 16.0144 6.46753 15.1871C6.5885 15.4552 6.72427 15.7167 6.87425 15.9705L10.6876 22.4021C10.7657 22.5338 10.878 22.6432 11.0132 22.7193C11.1484 22.7954 11.3018 22.8356 11.458 22.8357H19.5137L17.8007 25.7263H10.6876ZM12.7553 31.3443C12.0063 30.9261 11.3553 30.3601 10.8441 29.6826C10.3329 29.0051 9.97267 28.2311 9.78659 27.4101C10.0857 27.4431 10.3865 27.46 10.6876 27.4607H18.3143C18.4708 27.4608 18.6245 27.4208 18.76 27.3447C18.8955 27.2686 19.008 27.159 19.0862 27.0271L23.1133 20.2342L24.8278 23.1248L21.2653 29.1228C20.4385 30.5153 19.0779 31.5314 17.4823 31.9479C15.8868 32.3644 14.1866 32.1473 12.7553 31.3443ZM30.2071 26.5025C29.9896 27.2934 29.61 28.0332 29.0912 28.6776C28.5723 29.3219 27.925 29.8574 27.1881 30.2518C26.4512 30.6462 25.64 30.8913 24.8032 30.9725C23.9665 31.0537 23.1215 30.9693 22.3192 30.7242C22.4977 30.4886 22.6628 30.2435 22.8135 29.99L26.6268 23.5584C26.705 23.4265 26.7461 23.277 26.7461 23.1248C26.7461 22.9726 26.705 22.823 26.6268 22.6912L22.5997 15.8982H26.0271L29.5896 21.8963C30.0002 22.5862 30.2661 23.3485 30.3721 24.1392C30.4781 24.9298 30.422 25.7331 30.2071 26.5025ZM27.3126 11.2732C28.568 11.2731 29.7943 11.642 30.8308 12.3316C31.8674 13.0213 32.6659 13.9996 33.1219 15.1385C33.578 16.2774 33.6702 17.5238 33.3867 18.7146C33.1031 19.9054 32.4569 20.9852 31.5327 21.8124C31.4117 21.5444 31.2759 21.2829 31.126 21.0291L27.3126 14.5974C27.2345 14.4657 27.1222 14.3564 26.987 14.2803C26.8518 14.2041 26.6984 14.164 26.5422 14.1638H18.4865L20.1995 11.2732H27.3126ZM25.2449 5.65529C25.9939 6.07351 26.6449 6.6395 27.1561 7.31698C27.6673 7.99447 28.0275 8.76849 28.2136 9.58943C27.9145 9.55644 27.6137 9.53955 27.3126 9.53885H19.6859C19.5295 9.53875 19.3758 9.57877 19.2403 9.65489C19.1048 9.73101 18.9922 9.84053 18.914 9.97244L14.8869 16.7654L13.1725 13.8748L16.735 7.87674C17.5617 6.48425 18.9223 5.46818 20.5179 5.05167C22.1134 4.63515 23.8136 4.85226 25.2449 5.65529Z" fill="#F2B80B"/>
</svg>
