<svg width="42" height="39" viewBox="0 0 42 39" fill="none" xmlns="http://www.w3.org/2000/svg">
<g clip-path="url(#clip0_78_357)">
<path d="M18.795 5.17975C17.3298 4.58896 15.7199 4.37698 14.1357 4.56625C12.5514 4.75552 11.0517 5.33899 9.79535 6.25491C8.53896 7.17084 7.57263 8.38513 6.99862 9.76928C6.42461 11.1534 6.26427 12.6559 6.53459 14.1178C5.25337 15.0012 4.25292 16.1896 3.63895 17.5574C3.02498 18.9252 2.82028 20.4216 3.04649 21.8885C3.27269 23.3554 3.9214 24.7383 4.92407 25.8912C5.92674 27.044 7.24614 27.924 8.74287 28.4381C8.92629 29.9103 9.53463 31.3092 10.5036 32.4869C11.4725 33.6646 12.7661 34.5774 14.2476 35.1288C15.7291 35.6801 17.3435 35.8496 18.9202 35.6193C20.4969 35.389 21.9773 34.7675 23.205 33.8204C24.3732 34.291 25.637 34.5222 26.9102 34.4982C28.1834 34.4743 29.4361 34.1958 30.5829 33.6816C31.7296 33.1675 32.7436 32.4298 33.5556 31.5189C34.3676 30.608 34.9585 29.5452 35.2882 28.403C35.4922 27.7062 35.5976 26.9877 35.6015 26.2657C35.6017 25.803 35.5589 25.3412 35.4736 24.8854C36.7548 24.002 37.7552 22.8135 38.3692 21.4457C38.9832 20.078 39.1879 18.5816 38.9617 17.1147C38.7355 15.6478 38.0868 14.2648 37.0841 13.112C36.0814 11.9592 34.762 11.0792 33.2653 10.5651C33.0834 9.09122 32.4756 7.69046 31.5063 6.51112C30.5371 5.33178 29.2424 4.41777 27.7595 3.86586C26.2765 3.31395 24.6604 3.14468 23.0823 3.37598C21.5042 3.60728 20.0228 4.23053 18.795 5.17975ZM8.61326 11.0648C8.85369 10.2312 9.27325 9.45129 9.8467 8.77213C10.4201 8.09297 11.1356 7.52855 11.9501 7.11283C12.7646 6.69711 13.6612 6.43869 14.586 6.3531C15.5108 6.26752 16.4447 6.35655 17.3315 6.61483C17.1342 6.86323 16.9518 7.12159 16.7852 7.38874L12.5705 14.168C12.4841 14.307 12.4386 14.4646 12.4386 14.6251C12.4386 14.7855 12.4841 14.9431 12.5705 15.0821L17.0215 22.2423H13.2333L9.29576 15.92C8.84203 15.1928 8.54808 14.3892 8.43093 13.5558C8.31379 12.7225 8.37576 11.8758 8.61326 11.0648ZM22.7046 16.7579L24.4092 19.5001L22.7046 22.2423H19.2954L17.5908 19.5001L19.2954 16.7579H22.7046ZM11.8125 27.1173C10.4249 27.1174 9.06958 26.7286 7.92393 26.0016C6.77828 25.2747 5.89568 24.2435 5.39164 23.043C4.8876 21.8426 4.78562 20.5288 5.09903 19.2736C5.41245 18.0184 6.12666 16.8804 7.14819 16.0083C7.28189 16.2909 7.43195 16.5665 7.59772 16.834L11.8125 23.6133C11.8988 23.7522 12.0229 23.8675 12.1724 23.9477C12.3218 24.0279 12.4913 24.0702 12.664 24.0704H21.5676L19.6744 27.1173H11.8125ZM14.0979 33.0389C13.27 32.598 12.5505 32.0014 11.9855 31.2873C11.4204 30.5732 11.0223 29.7574 10.8166 28.8921C11.1473 28.9268 11.4797 28.9446 11.8125 28.9454H20.242C20.4149 28.9455 20.5848 28.9033 20.7346 28.8231C20.8843 28.7428 21.0087 28.6274 21.0951 28.4883L25.5462 21.3282L27.4411 24.3751L23.5036 30.6973C22.5898 32.1651 21.086 33.2361 19.3224 33.6751C17.5589 34.1141 15.6798 33.8853 14.0979 33.0389ZM33.3867 27.9353C33.1463 28.769 32.7267 29.5488 32.1533 30.228C31.5798 30.9072 30.8643 31.4716 30.0499 31.8873C29.2354 32.303 28.3388 32.5614 27.414 32.647C26.4891 32.7326 25.5552 32.6436 24.6684 32.3853C24.8658 32.1369 25.0482 31.8785 25.2147 31.6114L29.4295 24.8321C29.5159 24.6931 29.5614 24.5355 29.5614 24.3751C29.5614 24.2146 29.5159 24.057 29.4295 23.918L24.9785 16.7579H28.7667L32.7042 23.0801C33.1579 23.8074 33.4519 24.6109 33.569 25.4443C33.6862 26.2777 33.6242 27.1243 33.3867 27.9353ZM30.1875 11.8829C31.5751 11.8827 32.9304 12.2715 34.076 12.9985C35.2217 13.7254 36.1043 14.7566 36.6083 15.9571C37.1124 17.1576 37.2144 18.4714 36.9009 19.7265C36.5875 20.9817 35.8733 22.1198 34.8518 22.9918C34.7181 22.7092 34.568 22.4336 34.4022 22.1661L30.1875 15.3868C30.1012 15.248 29.9771 15.1327 29.8276 15.0524C29.6782 14.9722 29.5086 14.9299 29.336 14.9298H20.4323L22.3256 11.8829H30.1875ZM27.9021 5.96128C28.7299 6.40209 29.4495 6.99868 30.0145 7.71278C30.5796 8.42689 30.9777 9.24275 31.1833 10.1081C30.8527 10.0733 30.5202 10.0555 30.1875 10.0548H21.758C21.585 10.0546 21.4152 10.0968 21.2654 10.1771C21.1156 10.2573 20.9913 10.3727 20.9048 10.5118L16.4538 17.6719L14.5589 14.6251L18.4964 8.3028C19.4102 6.83504 20.914 5.76404 22.6775 5.32502C24.441 4.88599 26.3201 5.11483 27.9021 5.96128Z" fill="#6000AB"/>
</g>
<defs>
<clipPath id="clip0_78_357">
<rect width="39" height="42" fill="white" transform="matrix(0 -1 1 0 0 39)"/>
</clipPath>
</defs>
</svg>
