<svg width="26" height="26" viewBox="0 0 26 26" fill="none" xmlns="http://www.w3.org/2000/svg">
<path d="M22.5469 11.635C22.9408 10.728 23.0821 9.73142 22.9559 8.75068C22.8297 7.76995 22.4408 6.84157 21.8301 6.06381C21.2195 5.28605 20.41 4.68784 19.4872 4.3325C18.5645 3.97716 17.5628 3.87791 16.5882 4.04525C15.9993 3.25211 15.207 2.63278 14.2951 2.25271C13.3833 1.87263 12.3857 1.74591 11.4077 1.88594C10.4298 2.02598 9.50786 2.42755 8.73929 3.04826C7.97073 3.66896 7.3841 4.48573 7.04137 5.41228C6.05987 5.52582 5.12727 5.90241 4.34214 6.50224C3.557 7.10207 2.94849 7.90286 2.58091 8.81999C2.21334 9.73711 2.10034 10.7365 2.25388 11.7125C2.40741 12.6886 2.82177 13.605 3.45316 14.365C3.13943 15.0882 2.98529 15.8706 3.00125 16.6587C3.01721 17.4469 3.2029 18.2224 3.54566 18.9323C3.88843 19.6422 4.3802 20.2699 4.98748 20.7725C5.59476 21.2752 6.30327 21.641 7.06473 21.8451C7.52925 21.9714 8.00826 22.0366 8.48965 22.0391C8.79807 22.0392 9.10593 22.0126 9.4098 21.9599C9.99878 22.753 10.7911 23.3723 11.7029 23.7524C12.6148 24.1325 13.6124 24.2592 14.5903 24.1192C15.5682 23.9791 16.4902 23.5776 17.2588 22.9568C18.0273 22.3361 18.6139 21.5194 18.9567 20.5928C19.9393 20.4802 20.8731 20.104 21.6593 19.5039C22.4456 18.9039 23.0549 18.1025 23.4228 17.1845C23.7908 16.2664 23.9036 15.266 23.7494 14.2891C23.5952 13.3121 23.1797 12.3951 22.5469 11.635ZM18.6236 5.33204C19.1793 5.48088 19.6992 5.74061 20.152 6.0956C20.6048 6.45059 20.981 6.89351 21.2582 7.3977C21.5353 7.9019 21.7076 8.45695 21.7647 9.02946C21.8217 9.60197 21.7624 10.1801 21.5902 10.7291C21.4246 10.6069 21.2524 10.494 21.0743 10.3909L16.5547 7.78173C16.4621 7.72825 16.357 7.70009 16.25 7.70009C16.1431 7.70009 16.038 7.72825 15.9454 7.78173L11.1719 10.5371V8.19204L15.3868 5.75454C15.8716 5.47366 16.4073 5.29169 16.9628 5.21917C17.5184 5.14665 18.0829 5.18502 18.6236 5.33204ZM14.8282 14.0552L13 15.1105L11.1719 14.0552V11.9448L13 10.8895L14.8282 11.9448V14.0552ZM7.92191 7.31251C7.9218 6.45353 8.18103 5.61453 8.66566 4.90531C9.15029 4.1961 9.83775 3.64973 10.6381 3.3377C11.4384 3.02568 12.3142 2.96255 13.151 3.15657C13.9878 3.35058 14.7465 3.79272 15.3279 4.42509C15.1395 4.50786 14.9557 4.60075 14.7774 4.70337L10.2579 7.31251C10.1653 7.36594 10.0884 7.44277 10.035 7.53529C9.98148 7.62781 9.95327 7.73276 9.95316 7.83962V13.3514L7.92191 12.1794V7.31251ZM3.97418 8.72728C4.26806 8.2148 4.66578 7.76939 5.14185 7.41959C5.61792 7.0698 6.16183 6.82334 6.73871 6.69603C6.71552 6.90071 6.70365 7.10652 6.70316 7.31251V12.5308C6.70309 12.6378 6.73122 12.743 6.78471 12.8357C6.83819 12.9284 6.91516 13.0054 7.00785 13.0589L11.7813 15.8143L9.75004 16.9874L5.53519 14.5499C4.55669 13.9842 3.84269 13.0532 3.55001 11.9615C3.25733 10.8698 3.40988 9.70659 3.97418 8.72728ZM7.37652 20.668C6.82076 20.5191 6.30085 20.2594 5.84808 19.9044C5.39531 19.5494 5.01903 19.1065 4.74188 18.6023C4.46474 18.0981 4.29245 17.5431 4.2354 16.9706C4.17834 16.3981 4.23769 15.8199 4.40988 15.271C4.57548 15.3931 4.74772 15.506 4.92582 15.6092L9.44535 18.2183C9.53799 18.2718 9.64307 18.2999 9.75004 18.2999C9.85701 18.2999 9.96209 18.2718 10.0547 18.2183L14.8282 15.4629V17.808L10.6133 20.2455C10.1285 20.5264 9.59282 20.7083 9.03723 20.7809C8.48164 20.8534 7.91719 20.815 7.37652 20.668ZM18.0782 18.6875C18.0783 19.5465 17.8191 20.3855 17.3344 21.0947C16.8498 21.8039 16.1623 22.3503 15.362 22.6623C14.5617 22.9743 13.6858 23.0375 12.8491 22.8435C12.0123 22.6494 11.2536 22.2073 10.6722 21.5749C10.8606 21.4922 11.0444 21.3993 11.2227 21.2967L15.7422 18.6875C15.8348 18.6341 15.9116 18.5573 15.9651 18.4647C16.0186 18.3722 16.0468 18.2673 16.0469 18.1604V12.6486L18.0782 13.8206V18.6875ZM22.0259 17.2727C21.732 17.7852 21.3343 18.2306 20.8582 18.5804C20.3822 18.9302 19.8382 19.1767 19.2614 19.304C19.2846 19.0993 19.2964 18.8935 19.2969 18.6875V13.4692C19.297 13.3622 19.2689 13.257 19.2154 13.1643C19.1619 13.0716 19.0849 12.9946 18.9922 12.9411L14.2188 10.1857L16.25 9.01267L20.4649 11.4502C21.4434 12.0159 22.1574 12.9468 22.4501 14.0385C22.7428 15.1302 22.5902 16.2934 22.0259 17.2727Z" fill="#FF7527"/>
</svg>
