<svg width="55" height="51" viewBox="0 0 55 51" fill="none" xmlns="http://www.w3.org/2000/svg">
<path d="M23.7569 3.23311C21.5592 2.30906 19.1444 1.9775 16.768 2.27354C14.3916 2.56957 12.142 3.48218 10.2575 4.91478C8.3729 6.34737 6.9234 8.24665 6.06238 10.4116C5.20136 12.5765 4.96086 14.9266 5.36634 17.2131C3.44451 18.5949 1.94384 20.4537 1.02288 22.5931C0.101922 24.7324 -0.205123 27.073 0.134184 29.3673C0.47349 31.6617 1.44655 33.8247 2.95055 35.6279C4.45456 37.4311 6.43366 38.8074 8.67876 39.6115C8.95389 41.9143 9.86639 44.1023 11.3198 45.9443C12.7733 47.7864 14.7136 49.214 16.9359 50.0764C19.1582 50.9388 21.5798 51.2039 23.9448 50.8437C26.3098 50.4835 28.5304 49.5113 30.3719 48.03C32.1243 48.7661 34.02 49.1277 35.9298 49.0902C37.8396 49.0528 39.7186 48.6171 41.4387 47.813C43.1589 47.0088 44.6798 45.855 45.8978 44.4302C47.1158 43.0055 48.0022 41.3432 48.4967 39.5567C48.8028 38.4669 48.9608 37.343 48.9668 36.2136C48.967 35.49 48.9027 34.7677 48.7748 34.0548C50.6967 32.673 52.1973 30.8142 53.1183 28.6748C54.0392 26.5354 54.3463 24.1949 54.007 21.9005C53.6677 19.6062 52.6946 17.4431 51.1906 15.64C49.6866 13.8368 47.7075 12.4604 45.4624 11.6564C45.1895 9.35106 44.2778 7.16011 42.824 5.31551C41.3701 3.4709 39.4281 2.0413 37.2037 1.17805C34.9792 0.314805 32.555 0.0500512 30.1879 0.411825C27.8207 0.773598 25.5986 1.74843 23.7569 3.23311ZM8.48435 12.4379C8.84499 11.134 9.47433 9.91423 10.3345 8.85196C11.1947 7.78968 12.2679 6.90687 13.4896 6.25665C14.7113 5.60642 16.0562 5.20222 17.4435 5.06835C18.8307 4.93449 20.2316 5.07374 21.5618 5.47772C21.2657 5.86624 20.9921 6.27035 20.7423 6.68819L14.4201 17.2917C14.2905 17.509 14.2223 17.7556 14.2223 18.0065C14.2223 18.2575 14.2905 18.5041 14.4201 18.7214L21.0967 29.9206H15.4143L9.5081 20.0319C8.82749 18.8945 8.38658 17.6377 8.21085 16.3342C8.03513 15.0307 8.12809 13.7064 8.48435 12.4379ZM29.6213 21.3425L32.1783 25.6315L29.6213 29.9206L24.5075 29.9206L21.9506 25.6315L24.5075 21.3425L29.6213 21.3425ZM13.2832 37.5456C11.2018 37.5459 9.16882 36.9377 7.45035 35.8007C5.73188 34.6636 4.40797 33.0508 3.65191 31.1731C2.89586 29.2955 2.74288 27.2406 3.213 25.2773C3.68312 23.3141 4.75444 21.534 6.28673 20.1701C6.48728 20.6121 6.71238 21.0432 6.96103 21.4616L13.2832 32.0651C13.4126 32.2823 13.5988 32.4626 13.823 32.5881C14.0472 32.7135 14.3015 32.7797 14.5604 32.78H27.9159L25.076 37.5456H13.2832ZM16.7113 46.8076C15.4695 46.1181 14.3902 45.185 13.5426 44.0681C12.6951 42.9511 12.0979 41.675 11.7894 40.3216C12.2854 40.376 12.784 40.4038 13.2832 40.405H25.9275C26.1868 40.4051 26.4416 40.3392 26.6663 40.2137C26.8909 40.0882 27.0775 39.9076 27.2072 39.6901L33.8837 28.4909L36.7261 33.2565L30.8198 43.1452C29.4491 45.441 27.1934 47.1161 24.5481 47.8028C21.9028 48.4895 19.0842 48.1315 16.7113 46.8076ZM45.6445 38.8252C45.2839 40.1291 44.6545 41.3489 43.7944 42.4111C42.9342 43.4734 41.861 44.3562 40.6393 45.0065C39.4176 45.6567 38.0726 46.0609 36.6854 46.1947C35.2982 46.3286 33.8973 46.1894 32.5671 45.7854C32.8631 45.3969 33.1367 44.9927 33.3866 44.5749L39.7087 33.9714C39.8383 33.7541 39.9065 33.5075 39.9065 33.2565C39.9065 33.0056 39.8383 32.759 39.7087 32.5417L33.0322 21.3425H38.7145L44.6208 31.2312C45.3014 32.3686 45.7423 33.6254 45.918 34.9289C46.0937 36.2324 46.0008 37.5567 45.6445 38.8252ZM40.8457 13.7175C42.9271 13.7172 44.96 14.3254 46.6785 15.4624C48.397 16.5995 49.7209 18.2123 50.4769 20.09C51.233 21.9676 51.386 24.0225 50.9159 25.9858C50.4457 27.949 49.3744 29.729 47.8421 31.093C47.6416 30.651 47.4165 30.2199 47.1678 29.8015L40.8457 19.198C40.7162 18.9808 40.5301 18.8005 40.3059 18.675C40.0817 18.5496 39.8274 18.4834 39.5685 18.4831H26.2129L29.0529 13.7175H40.8457ZM37.4176 4.45549C38.6594 5.14498 39.7386 6.0781 40.5862 7.19503C41.4338 8.31197 42.031 9.58806 42.3395 10.9415C41.8435 10.8871 41.3448 10.8593 40.8457 10.8581H28.2014C27.942 10.8579 27.6872 10.9239 27.4626 11.0494C27.2379 11.1749 27.0514 11.3555 26.9217 11.573L20.2452 22.7722L17.4028 18.0065L23.309 8.11788C24.6798 5.82215 26.9354 4.147 29.5807 3.46032C32.226 2.77364 35.0446 3.13157 37.4176 4.45549Z" fill="#FF3D00"/>
</svg>
