<svg width="45" height="45" viewBox="0 0 45 45" fill="none" xmlns="http://www.w3.org/2000/svg">
<path d="M26.2203 41.5737C28.0334 42.311 30.0059 42.5301 31.929 42.2075C33.8521 41.885 35.6542 41.033 37.1446 39.7416C38.6351 38.4503 39.7584 36.7676 40.3956 34.8717C41.0329 32.9758 41.1604 30.9373 40.7647 28.9719C42.2868 27.7233 43.4529 26.0742 44.1396 24.1988C44.8263 22.3234 45.0082 20.2912 44.666 18.3171C44.3239 16.3429 43.4704 14.5001 42.1957 12.9833C40.921 11.4664 39.2725 10.3319 37.4243 9.69962C37.1341 7.71644 36.3291 5.85031 35.0944 4.29845C33.8597 2.74658 32.2412 1.56663 30.4099 0.883277C28.5786 0.199927 26.6025 0.0385679 24.6905 0.416251C22.7785 0.793934 21.0016 1.69663 19.5476 3.02894C18.1019 2.44164 16.5506 2.18209 14.9993 2.26797C13.448 2.35384 11.9333 2.78314 10.5583 3.52659C9.18335 4.27004 7.98046 5.31017 7.03163 6.57611C6.0828 7.84205 5.41034 9.30403 5.06006 10.8624C4.84281 11.8132 4.74688 12.7893 4.77468 13.7659C4.79547 14.3915 4.86856 15.0142 4.99315 15.627C3.47097 16.8755 2.30492 18.5246 1.6182 20.4001C0.931484 22.2755 0.749598 24.3076 1.09176 26.2818C1.43393 28.2559 2.28744 30.0988 3.56212 31.6156C4.8368 33.1324 6.48531 34.2669 8.33349 34.8992C8.622 36.8847 9.4264 38.7534 10.6615 40.3074C11.8967 41.8615 13.5165 43.0431 15.3496 43.7271C17.1827 44.4111 19.1609 44.5721 21.0745 44.193C22.9882 43.814 24.7662 42.9089 26.2203 41.5737ZM38.3683 33.1877C38.1129 34.3251 37.6366 35.3973 36.9681 36.3398C36.2997 37.2823 35.4529 38.0756 34.4786 38.672C33.5044 39.2684 32.4228 39.6555 31.2991 39.8101C30.1754 39.9647 29.0326 39.8836 27.9397 39.5716C28.1691 39.2274 28.3798 38.8703 28.5708 38.5021L33.4031 29.1575C33.5021 28.966 33.5504 28.7509 33.5432 28.5339C33.5359 28.317 33.4733 28.1057 33.3617 27.9214L27.6108 18.426L32.2296 18.2668L37.3165 26.6508C37.9026 27.6151 38.2974 28.6894 38.4779 29.8114C38.6585 30.9334 38.6212 32.081 38.3683 33.1877ZM20.9297 26.0811L18.7272 22.4446L20.6815 18.6648L24.8383 18.5215L27.0407 22.1581L25.0864 25.9379L20.9297 26.0811ZM33.7414 11.6147C35.4332 11.5562 37.1033 12.0251 38.5331 12.96C39.9628 13.8948 41.0856 15.2522 41.7544 16.8544C42.4233 18.4566 42.6071 20.2289 42.2817 21.9394C41.9564 23.6499 41.1371 25.2189 39.931 26.441C39.7552 26.0646 39.5598 25.6981 39.3455 25.3434L33.8999 16.353C33.7884 16.1689 33.6319 16.0182 33.446 15.916C33.2602 15.8138 33.0515 15.7637 32.8411 15.7707L21.9851 16.1448L24.1557 11.9451L33.7414 11.6147ZM30.687 3.70311C31.7163 4.26443 32.6206 5.04095 33.3418 5.98287C34.0631 6.92479 34.5854 8.01134 34.8753 9.17285C34.4706 9.13971 34.0644 9.1296 33.6587 9.14259L23.3808 9.49679C23.17 9.50392 22.9648 9.56811 22.7858 9.68289C22.6069 9.79768 22.4604 9.95902 22.3613 10.1507L17.2583 20.0202L14.81 15.9796L19.3249 7.26472C20.3726 5.2415 22.1577 3.73003 24.2881 3.06224C26.4184 2.39446 28.7199 2.62495 30.687 3.70311ZM7.39963 11.415C7.65507 10.2776 8.13134 9.20534 8.7998 8.26283C9.46826 7.32033 10.3151 6.52701 11.2893 5.93062C12.2636 5.33423 13.3451 4.94709 14.4689 4.7925C15.5926 4.63791 16.7353 4.71905 17.8282 5.03106C17.5988 5.37526 17.3881 5.7323 17.1971 6.10055L12.3649 15.4451C12.2658 15.6367 12.2175 15.8517 12.2248 16.0687C12.232 16.2857 12.2946 16.4969 12.4062 16.6812L18.1572 26.1767L13.5383 26.3359L8.45143 17.9519C7.86531 16.9875 7.47056 15.9133 7.29002 14.7912C7.10948 13.6692 7.14674 12.5217 7.39963 11.415ZM12.0265 32.9879C10.3347 33.0465 8.66463 32.5776 7.23489 31.6427C5.80515 30.7078 4.68237 29.3504 4.0135 27.7482C3.34464 26.1461 3.16085 24.3737 3.48621 22.6632C3.81156 20.9527 4.63089 19.3837 5.83696 18.1616C6.01276 18.5381 6.20819 18.9045 6.42241 19.2593L11.868 28.2497C11.9795 28.4338 12.1361 28.5845 12.3219 28.6867C12.5078 28.7889 12.7164 28.839 12.9269 28.8319L23.7829 28.4578L21.6123 32.6576L12.0265 32.9879ZM15.0809 40.8995C14.0516 40.3382 13.1474 39.5617 12.4261 38.6198C11.7049 37.6778 11.1825 36.5913 10.8926 35.4298C11.2973 35.4629 11.7035 35.473 12.1093 35.4601L22.3871 35.1059C22.5979 35.0987 22.8032 35.0345 22.9821 34.9198C23.1611 34.805 23.3075 34.6436 23.4066 34.452L28.5097 24.5824L30.9579 28.623L26.4431 37.3379C25.3953 39.3611 23.6102 40.8726 21.4799 41.5404C19.3495 42.2082 17.0481 41.9777 15.0809 40.8995Z" fill="#6362E3"/>
</svg>
