<svg width="32" height="31" viewBox="0 0 32 31" fill="none" xmlns="http://www.w3.org/2000/svg">
<path d="M14.3199 4.11711C13.2036 3.64751 11.9771 3.47902 10.77 3.62946C9.56294 3.7799 8.42032 4.24369 7.46307 4.97173C6.50583 5.69977 5.76957 6.66498 5.33223 7.7652C4.89489 8.86542 4.77273 10.0597 4.97869 11.2217C4.00252 11.9239 3.24027 12.8686 2.77249 13.9558C2.3047 15.043 2.14874 16.2324 2.32109 17.3984C2.49343 18.5644 2.98768 19.6637 3.75162 20.58C4.51556 21.4964 5.52082 22.1959 6.66119 22.6045C6.80094 23.7747 7.26443 24.8867 8.00268 25.8228C8.74093 26.7589 9.72652 27.4845 10.8553 27.9227C11.9841 28.361 13.2141 28.4957 14.4154 28.3127C15.6167 28.1296 16.7446 27.6356 17.6799 26.8827C18.57 27.2568 19.5329 27.4406 20.503 27.4216C21.473 27.4025 22.4274 27.1811 23.3012 26.7724C24.1749 26.3638 24.9474 25.7774 25.5661 25.0534C26.1848 24.3293 26.635 23.4845 26.8862 22.5766C27.0416 22.0228 27.1219 21.4517 27.1249 20.8777C27.125 20.51 27.0924 20.1429 27.0274 19.7806C28.0036 19.0784 28.7659 18.1337 29.2336 17.0465C29.7014 15.9593 29.8574 14.7698 29.685 13.6038C29.5127 12.4378 29.0184 11.3386 28.2545 10.4222C27.4906 9.50587 26.4853 8.80642 25.3449 8.39778C25.2063 7.22623 24.7433 6.1128 24.0048 5.17538C23.2663 4.23796 22.2799 3.51144 21.15 3.07274C20.0201 2.63404 18.7888 2.49949 17.5865 2.68334C16.3841 2.8672 15.2554 3.3626 14.3199 4.11711ZM6.56244 8.79497C6.74562 8.13233 7.06529 7.51244 7.5022 6.97259C7.93911 6.43275 8.48424 5.98411 9.10479 5.65366C9.72534 5.32322 10.4085 5.11781 11.1131 5.04978C11.8177 4.98175 12.5293 5.05251 13.2049 5.25782C13.0546 5.45526 12.9156 5.66063 12.7887 5.87297L9.57744 11.2616C9.51161 11.3721 9.47696 11.4974 9.47696 11.6249C9.47696 11.7525 9.51161 11.8778 9.57744 11.9882L12.9687 17.6796H10.0824L7.08244 12.6542C6.73674 12.0762 6.51278 11.4375 6.42352 10.775C6.33427 10.1126 6.38148 9.4396 6.56244 8.79497ZM17.2987 13.3202L18.5974 15.4999L17.2987 17.6796H14.7012L13.4024 15.4999L14.7012 13.3202L17.2987 13.3202ZM8.99994 21.5546C7.94273 21.5547 6.91011 21.2457 6.03723 20.6678C5.16436 20.09 4.4919 19.2703 4.10787 18.3161C3.72384 17.3619 3.64614 16.3176 3.88493 15.3199C4.12372 14.3222 4.66788 13.4176 5.44619 12.7245C5.54806 12.9491 5.66239 13.1682 5.78869 13.3808L8.99994 18.7695C9.0657 18.8798 9.16026 18.9714 9.27413 19.0352C9.38799 19.099 9.51717 19.1326 9.64869 19.1327H16.4324L14.9899 21.5546H8.99994ZM10.7412 26.2615C10.1104 25.9111 9.56225 25.4369 9.13173 24.8693C8.70121 24.3017 8.39789 23.6532 8.24119 22.9654C8.49311 22.993 8.74641 23.0072 8.99994 23.0077H15.4224C15.5542 23.0078 15.6836 22.9743 15.7977 22.9105C15.9118 22.8467 16.0066 22.755 16.0724 22.6445L19.4637 16.9531L20.9074 19.3749L17.9074 24.4003C17.2112 25.567 16.0655 26.4183 14.7218 26.7673C13.3782 27.1162 11.9465 26.9343 10.7412 26.2615ZM25.4374 22.2049C25.2543 22.8675 24.9346 23.4874 24.4977 24.0273C24.0608 24.5671 23.5156 25.0157 22.8951 25.3462C22.2745 25.6766 21.5914 25.882 20.8868 25.9501C20.1822 26.0181 19.4706 25.9473 18.7949 25.742C18.9453 25.5446 19.0843 25.3392 19.2112 25.1269L22.4224 19.7382C22.4883 19.6278 22.5229 19.5025 22.5229 19.3749C22.5229 19.2474 22.4883 19.1221 22.4224 19.0116L19.0312 13.3202H21.9174L24.9174 18.3456C25.2631 18.9237 25.4871 19.5624 25.5764 20.2248C25.6656 20.8872 25.6184 21.5602 25.4374 22.2049ZM22.9999 9.44524C24.0571 9.4451 25.0898 9.75418 25.9626 10.332C26.8355 10.9098 27.508 11.7295 27.892 12.6837C28.276 13.6379 28.3537 14.6822 28.115 15.6799C27.8762 16.6776 27.332 17.5823 26.5537 18.2754C26.4518 18.0508 26.3375 17.8317 26.2112 17.6191L22.9999 12.2304C22.9342 12.1201 22.8396 12.0284 22.7258 11.9646C22.6119 11.9009 22.4827 11.8672 22.3512 11.8671H15.5674L17.0099 9.44524H22.9999ZM21.2587 4.73832C21.8894 5.08872 22.4376 5.56293 22.8681 6.13055C23.2987 6.69817 23.602 7.34668 23.7587 8.0345C23.5068 8.00685 23.2535 7.9927 22.9999 7.99211H16.5774C16.4457 7.99203 16.3163 8.02556 16.2022 8.08934C16.0881 8.15311 15.9933 8.24487 15.9274 8.35539L12.5362 14.0468L11.0924 11.6249L14.0924 6.59953C14.7887 5.43285 15.9344 4.58155 17.2781 4.23258C18.6217 3.88361 20.0534 4.06551 21.2587 4.73832Z" fill="black" fill-opacity="0.58"/>
</svg>
