<svg width="30" height="31" viewBox="0 0 30 31" fill="none" xmlns="http://www.w3.org/2000/svg">
<path d="M16.285 3C17.6912 3.00375 18.405 3.01125 19.0212 3.02875L19.2637 3.0375C19.5437 3.0475 19.82 3.06 20.1537 3.075C21.4837 3.1375 22.3912 3.3475 23.1875 3.65625C24.0125 3.97375 24.7075 4.40375 25.4025 5.0975C26.0381 5.72237 26.5299 6.47824 26.8437 7.3125C27.1525 8.10875 27.3625 9.01625 27.425 10.3475C27.44 10.68 27.4525 10.9563 27.4625 11.2375L27.47 11.48C27.4887 12.095 27.4962 12.8088 27.4987 14.215L27.5 15.1475V16.785C27.5031 17.6968 27.4935 18.6085 27.4712 19.52L27.4637 19.7625C27.4537 20.0437 27.4412 20.32 27.4262 20.6525C27.3637 21.9837 27.1512 22.89 26.8437 23.6875C26.5308 24.5222 26.0389 25.2783 25.4025 25.9025C24.7774 26.5379 24.0216 27.0297 23.1875 27.3438C22.3912 27.6525 21.4837 27.8625 20.1537 27.925C19.8571 27.939 19.5605 27.9515 19.2637 27.9625L19.0212 27.97C18.405 27.9875 17.6912 27.9963 16.285 27.9988L15.3525 28H13.7162C12.8041 28.0031 11.8919 27.9936 10.98 27.9712L10.7375 27.9638C10.4408 27.9525 10.1441 27.9396 9.84749 27.925C8.51749 27.8625 7.60999 27.6525 6.81249 27.3438C5.97833 27.0305 5.22276 26.5386 4.59874 25.9025C3.96255 25.2779 3.47027 24.5219 3.15624 23.6875C2.84749 22.8912 2.63749 21.9837 2.57499 20.6525C2.56106 20.3559 2.54856 20.0592 2.53749 19.7625L2.53124 19.52C2.5082 18.6085 2.49779 17.6968 2.49999 16.785V14.215C2.4965 13.3033 2.50567 12.3915 2.52749 11.48L2.53624 11.2375C2.54624 10.9563 2.55874 10.68 2.57374 10.3475C2.63624 9.01625 2.84624 8.11 3.15499 7.3125C3.46888 6.47738 3.96214 5.72128 4.59999 5.0975C5.22385 4.46184 5.97892 3.96998 6.81249 3.65625C7.60999 3.3475 8.51624 3.1375 9.84749 3.075C10.18 3.06 10.4575 3.0475 10.7375 3.0375L10.98 3.03C11.8915 3.00779 12.8032 2.99821 13.715 3.00125L16.285 3ZM15 9.25C13.3424 9.25 11.7527 9.90848 10.5806 11.0806C9.40847 12.2527 8.74999 13.8424 8.74999 15.5C8.74999 17.1576 9.40847 18.7473 10.5806 19.9194C11.7527 21.0915 13.3424 21.75 15 21.75C16.6576 21.75 18.2473 21.0915 19.4194 19.9194C20.5915 18.7473 21.25 17.1576 21.25 15.5C21.25 13.8424 20.5915 12.2527 19.4194 11.0806C18.2473 9.90848 16.6576 9.25 15 9.25ZM15 11.75C15.4924 11.7499 15.9801 11.8468 16.4351 12.0352C16.8901 12.2236 17.3035 12.4997 17.6518 12.8479C18.0001 13.1961 18.2764 13.6094 18.4649 14.0644C18.6535 14.5193 18.7505 15.0069 18.7506 15.4994C18.7507 15.9918 18.6538 16.4795 18.4654 16.9345C18.277 17.3895 18.0009 17.8029 17.6527 18.1512C17.3045 18.4995 16.8912 18.7758 16.4363 18.9643C15.9813 19.1528 15.4937 19.2499 15.0012 19.25C14.0067 19.25 13.0528 18.8549 12.3496 18.1517C11.6463 17.4484 11.2512 16.4946 11.2512 15.5C11.2512 14.5054 11.6463 13.5516 12.3496 12.8483C13.0528 12.1451 14.0067 11.75 15.0012 11.75M21.5637 7.375C21.1493 7.375 20.7519 7.53962 20.4589 7.83265C20.1659 8.12567 20.0012 8.5231 20.0012 8.9375C20.0012 9.3519 20.1659 9.74933 20.4589 10.0424C20.7519 10.3354 21.1493 10.5 21.5637 10.5C21.9781 10.5 22.3756 10.3354 22.6686 10.0424C22.9616 9.74933 23.1262 9.3519 23.1262 8.9375C23.1262 8.5231 22.9616 8.12567 22.6686 7.83265C22.3756 7.53962 21.9781 7.375 21.5637 7.375Z" fill="#616161"/>
</svg>
