<svg width="22" height="16" viewBox="0 0 22 16" fill="none" xmlns="http://www.w3.org/2000/svg">
<path fill-rule="evenodd" clip-rule="evenodd" d="M20.5562 2.605L11.8759 9.14C11.6292 9.32579 11.3189 9.42745 10.9986 9.42745C10.6783 9.42745 10.368 9.32579 10.1214 9.14L1.44512 2.605C1.39857 2.73239 1.37489 2.86576 1.375 3V13C1.375 13.3315 1.51987 13.6495 1.77773 13.8839C2.03559 14.1183 2.38533 14.25 2.75 14.25H19.25C19.6147 14.25 19.9644 14.1183 20.2223 13.8839C20.4801 13.6495 20.625 13.3315 20.625 13V3C20.6255 2.86583 20.6023 2.73246 20.5562 2.605ZM2.75 0.5H19.25C19.9793 0.5 20.6788 0.763392 21.1945 1.23223C21.7103 1.70107 22 2.33696 22 3V13C22 13.663 21.7103 14.2989 21.1945 14.7678C20.6788 15.2366 19.9793 15.5 19.25 15.5H2.75C2.02065 15.5 1.32118 15.2366 0.805456 14.7678C0.289731 14.2989 0 13.663 0 13V3C0 2.33696 0.289731 1.70107 0.805456 1.23223C1.32118 0.763392 2.02065 0.5 2.75 0.5ZM2.46125 1.75L10.1283 7.50375C10.3738 7.68813 10.6822 7.7893 11.0006 7.78999C11.3191 7.79067 11.628 7.69082 11.8745 7.5075L19.6185 1.75H2.46125Z" fill="#5F5F5F"/>
</svg>
