<svg width="414" height="15" viewBox="0 0 414 15" fill="none" xmlns="http://www.w3.org/2000/svg">
<path d="M0.0136719 7.24756L263.212 7.4646L413.744 7.58874" stroke="black" stroke-opacity="0.52"/>
<rect width="21.0969" height="12" transform="matrix(1 0.0012703 0.0010421 1 193 1)" fill="#F4F3F4"/>
<path d="M204.719 6.24894C204.72 6.87428 204.636 7.42951 204.469 7.91463C204.311 8.39042 204.078 8.79613 203.77 9.13174C203.472 9.46736 203.103 9.72356 202.665 9.90033C202.236 10.0678 201.755 10.1512 201.223 10.1505C200.728 10.1499 200.271 10.0653 199.851 9.89676C199.431 9.71889 199.066 9.46176 198.758 9.12537C198.45 8.78898 198.207 8.38267 198.029 7.90644C197.86 7.4209 197.776 6.86546 197.775 6.24012C197.774 5.40945 197.913 4.70963 198.193 4.14065C198.472 3.56234 198.873 3.12418 199.395 2.82618C199.918 2.51884 200.538 2.36563 201.257 2.36655C201.938 2.36741 202.536 2.52217 203.049 2.83082C203.572 3.13015 203.979 3.56934 204.269 4.14837C204.568 4.71808 204.718 5.41828 204.719 6.24894ZM199.049 6.24174C199.05 6.82974 199.125 7.34317 199.275 7.78203C199.434 8.21156 199.677 8.54321 200.004 8.77695C200.33 9.0107 200.746 9.1279 201.25 9.12854C201.754 9.12918 202.169 9.01304 202.496 8.78012C202.822 8.5472 203.06 8.21617 203.209 7.78702C203.367 7.34856 203.446 6.83533 203.445 6.24732C203.444 5.64999 203.364 5.14122 203.205 4.72102C203.046 4.30082 202.803 3.97851 202.476 3.75409C202.159 3.52036 201.743 3.40316 201.23 3.40251C200.465 3.40154 199.91 3.65283 199.565 4.1564C199.22 4.65996 199.048 5.35507 199.049 6.24174ZM210.167 2.37786C210.307 2.37804 210.457 2.38757 210.616 2.40643C210.784 2.41598 210.928 2.43483 211.05 2.46298L210.897 3.59679C210.775 3.56864 210.64 3.54513 210.491 3.52627C210.351 3.50743 210.215 3.49792 210.085 3.49776C209.795 3.49739 209.52 3.55771 209.259 3.67871C208.998 3.79971 208.764 3.97208 208.559 4.19582C208.354 4.41023 208.191 4.67135 208.07 4.9792C207.959 5.28706 207.903 5.63232 207.903 6.01499L207.907 10.019L206.675 10.0174L206.668 2.51342L207.676 2.5147L207.817 3.88688L207.873 3.88695C208.031 3.60715 208.222 3.35539 208.446 3.13168C208.67 2.89863 208.926 2.71695 209.216 2.58666C209.505 2.44702 209.822 2.37743 210.167 2.37786Z" fill="#616161"/>
</svg>
