<svg width="69" height="73" viewBox="0 0 69 73" fill="none" xmlns="http://www.w3.org/2000/svg">
<g clip-path="url(#clip0_469_968)">
<g filter="url(#filter0_d_469_968)">
<path d="M11.5001 31.6333V29.2H9.2001V31.6333H11.5001ZM29.9001 31.6333V29.2H27.6001V31.6333H29.9001ZM29.9001 51.1H27.6001V53.5333H29.9001V51.1ZM62.1001 17.0333H64.4001V16.0259L63.7285 15.3105L62.1001 17.0333ZM48.3001 2.43333L49.9285 0.710533L49.2523 0H48.3001V2.43333ZM11.5001 34.0667H16.1001V29.2H11.5001V34.0667ZM13.8001 53.5333V41.3667H9.2001V53.5333H13.8001ZM13.8001 41.3667V31.6333H9.2001V41.3667H13.8001ZM16.1001 38.9333H11.5001V43.8H16.1001V38.9333ZM18.4001 36.5C18.4001 37.1454 18.1578 37.7643 17.7264 38.2206C17.2951 38.677 16.7101 38.9333 16.1001 38.9333V43.8C17.9301 43.8 19.6851 43.0309 20.9791 41.6619C22.2731 40.2929 23.0001 38.4361 23.0001 36.5H18.4001ZM16.1001 34.0667C16.7101 34.0667 17.2951 34.323 17.7264 34.7794C18.1578 35.2357 18.4001 35.8546 18.4001 36.5H23.0001C23.0001 34.5639 22.2731 32.7071 20.9791 31.3381C19.6851 29.9691 17.9301 29.2 16.1001 29.2V34.0667ZM27.6001 31.6333V51.1H32.2001V31.6333H27.6001ZM29.9001 53.5333H34.5001V48.6667H29.9001V53.5333ZM41.4001 46.2333V36.5H36.8001V46.2333H41.4001ZM34.5001 29.2H29.9001V34.0667H34.5001V29.2ZM41.4001 36.5C41.4001 34.5639 40.6731 32.7071 39.3791 31.3381C38.0851 29.9691 36.3301 29.2 34.5001 29.2V34.0667C35.1101 34.0667 35.6951 34.323 36.1264 34.7794C36.5578 35.2357 36.8001 35.8546 36.8001 36.5H41.4001ZM34.5001 53.5333C36.3301 53.5333 38.0851 52.7642 39.3791 51.3952C40.6731 50.0262 41.4001 48.1694 41.4001 46.2333H36.8001C36.8001 46.8787 36.5578 47.4976 36.1264 47.954C35.6951 48.4103 35.1101 48.6667 34.5001 48.6667V53.5333ZM46.0001 29.2V53.5333H50.6001V29.2H46.0001ZM48.3001 34.0667H59.8001V29.2H48.3001V34.0667ZM48.3001 43.8H55.2001V38.9333H48.3001V43.8ZM9.2001 24.3333V7.3H4.6001V24.3333H9.2001ZM59.8001 17.0333V24.3333H64.4001V17.0333H59.8001ZM11.5001 4.86667H48.3001V0H11.5001V4.86667ZM46.6717 4.15613L60.4717 18.7561L63.7285 15.3105L49.9285 0.710533L46.6717 4.15613ZM9.2001 7.3C9.2001 6.65464 9.44242 6.03571 9.87375 5.57937C10.3051 5.12303 10.8901 4.86667 11.5001 4.86667V0C9.6701 0 7.91506 0.769105 6.62106 2.13812C5.32706 3.50714 4.6001 5.36392 4.6001 7.3H9.2001ZM4.6001 58.4V65.7H9.2001V58.4H4.6001ZM11.5001 73H57.5001V68.1333H11.5001V73ZM64.4001 65.7V58.4H59.8001V65.7H64.4001ZM57.5001 73C59.3301 73 61.0851 72.2309 62.3791 70.8619C63.6731 69.4929 64.4001 67.6361 64.4001 65.7H59.8001C59.8001 66.3454 59.5578 66.9643 59.1264 67.4206C58.6951 67.877 58.1101 68.1333 57.5001 68.1333V73ZM4.6001 65.7C4.6001 67.6361 5.32706 69.4929 6.62106 70.8619C7.91506 72.2309 9.6701 73 11.5001 73V68.1333C10.8901 68.1333 10.3051 67.877 9.87375 67.4206C9.44242 66.9643 9.2001 66.3454 9.2001 65.7H4.6001Z" fill="#6362E3"/>
</g>
</g>
<defs>
<filter id="filter0_d_469_968" x="-1.3999" y="0" width="71.8" height="85" filterUnits="userSpaceOnUse" color-interpolation-filters="sRGB">
<feFlood flood-opacity="0" result="BackgroundImageFix"/>
<feColorMatrix in="SourceAlpha" type="matrix" values="0 0 0 0 0 0 0 0 0 0 0 0 0 0 0 0 0 0 127 0" result="hardAlpha"/>
<feOffset dy="6"/>
<feGaussianBlur stdDeviation="3"/>
<feComposite in2="hardAlpha" operator="out"/>
<feColorMatrix type="matrix" values="0 0 0 0 0 0 0 0 0 0 0 0 0 0 0 0 0 0 0.25 0"/>
<feBlend mode="normal" in2="BackgroundImageFix" result="effect1_dropShadow_469_968"/>
<feBlend mode="normal" in="SourceGraphic" in2="effect1_dropShadow_469_968" result="shape"/>
</filter>
<clipPath id="clip0_469_968">
<rect width="69" height="73" fill="white"/>
</clipPath>
</defs>
</svg>
