<svg width="19" height="23" viewBox="0 0 19 23" fill="none" xmlns="http://www.w3.org/2000/svg">
<path d="M9.5 23C6.74896 22.3292 4.47767 20.8004 2.68613 18.4138C0.894584 16.0272 -0.000791142 13.3776 5.24514e-07 10.465V3.45L9.5 0L19 3.45V10.465C19 11.6725 18.8365 12.8466 18.5096 13.9874C18.1826 15.1282 17.7128 16.2158 17.1 17.25L13.5969 13.8575C13.8146 13.4933 13.9781 13.115 14.0873 12.7224C14.1966 12.3299 14.2508 11.9224 14.25 11.5C14.25 10.235 13.7849 9.15208 12.8547 8.25125C11.9245 7.35042 10.8062 6.9 9.5 6.9C8.19375 6.9 7.07552 7.35042 6.14531 8.25125C5.2151 9.15208 4.75 10.235 4.75 11.5C4.75 12.765 5.2151 13.8479 6.14531 14.7487C7.07552 15.6496 8.19375 16.1 9.5 16.1C9.91563 16.1 10.3265 16.0475 10.7326 15.9424C11.1388 15.8374 11.5195 15.6791 11.875 15.4675L15.7047 19.1475C14.8734 20.0867 13.9381 20.8917 12.8986 21.5625C11.8592 22.2333 10.7263 22.7125 9.5 23ZM9.5 13.8C8.84688 13.8 8.28796 13.575 7.82325 13.1249C7.35854 12.6749 7.12579 12.1333 7.125 11.5C7.12421 10.8667 7.35696 10.3255 7.82325 9.8762C8.28954 9.42693 8.84846 9.20153 9.5 9.2C10.1515 9.19847 10.7109 9.42387 11.1779 9.8762C11.645 10.3285 11.8774 10.8698 11.875 11.5C11.8726 12.1302 11.6403 12.6718 11.1779 13.1249C10.7156 13.578 10.1563 13.8031 9.5 13.8Z" fill="#434343"/>
</svg>
