<svg width="86" height="92" viewBox="0 0 86 92" fill="none" xmlns="http://www.w3.org/2000/svg">
<g clip-path="url(#clip0_469_985)">
<g filter="url(#filter0_d_469_985)">
<path d="M80.6756 37.3621C79.4467 36.0966 78.1793 34.7897 77.7638 33.8C77.3938 32.9172 77.3658 31.1 77.3414 29.5C77.289 26.0517 77.2227 21.7621 74.1363 18.7172C71.0499 15.6724 66.7101 15.6138 63.2188 15.5517C61.5988 15.5276 59.7588 15.5 58.865 15.1345C57.863 14.7241 56.5397 13.4724 55.2584 12.2586C52.7865 9.91724 49.7071 7 45.5 7C41.2929 7 38.2135 9.91724 35.7416 12.2586C34.4603 13.4724 33.137 14.7241 32.135 15.1345C31.2412 15.5 29.4013 15.5276 27.7812 15.5517C24.2899 15.6207 19.9466 15.669 16.8707 18.7241C13.7948 21.7793 13.7284 26.0517 13.6586 29.5C13.6342 31.1 13.6062 32.9172 13.2362 33.8C12.8207 34.7897 11.5533 36.0966 10.3244 37.3621C7.95371 39.8035 5 42.8621 5 47C5 51.1379 7.95371 54.1966 10.3244 56.6552C11.5533 57.9207 12.8207 59.2276 13.2362 60.2172C13.6062 61.1 13.6342 62.9172 13.6586 64.5172C13.711 67.9655 13.7773 72.2552 16.8637 75.3C19.9501 78.3448 24.2899 78.4035 27.7812 78.4655C29.4013 78.4897 31.2412 78.5172 32.135 78.8828C33.137 79.2931 34.4603 80.5448 35.7416 81.7586C38.2135 84.0828 41.3103 87 45.5 87C49.6897 87 52.7865 84.0828 55.2584 81.7414C56.5397 80.5276 57.863 79.2759 58.865 78.8655C59.7588 78.5 61.5988 78.4724 63.2188 78.4483C66.7101 78.3966 71.0534 78.331 74.1363 75.2828C77.2192 72.2345 77.2785 67.9483 77.3414 64.5C77.3658 62.9 77.3938 61.0828 77.7638 60.2C78.1793 59.2103 79.4467 57.9035 80.6756 56.6379C83.0463 54.1966 86 51.1552 86 47C86 42.8448 83.0463 39.8035 80.6756 37.3621ZM74.6286 50.9103C72.9457 52.6345 71.0394 54.6069 70.0235 57.0345C69.0389 59.3793 69.0005 61.9172 68.976 64.3759C68.9481 66.2241 68.9097 68.7586 68.2254 69.431C67.5411 70.1035 64.9784 70.1448 63.107 70.1724C60.6177 70.2103 58.048 70.2483 55.6739 71.2069C53.2299 72.2103 51.2294 74.0931 49.4732 75.7552C48.2163 76.9448 46.3379 78.7241 45.5 78.7241C44.6621 78.7241 42.7837 76.9448 41.5408 75.769C39.7951 74.1069 37.798 72.2241 35.3401 71.2207C32.9659 70.2483 30.3963 70.2103 27.9069 70.1862C26.0356 70.1586 23.4694 70.1207 22.7886 69.4448C22.1078 68.769 22.0659 66.2379 22.0379 64.3897C21.9995 61.931 21.9611 59.3931 20.9905 57.0483C19.9745 54.6345 18.0682 52.6586 16.3854 50.9241C15.1809 49.6828 13.3793 47.8276 13.3793 47C13.3793 46.1724 15.1809 44.3172 16.3714 43.0897C18.0543 41.3655 19.9606 39.3931 20.9766 36.9655C21.9611 34.6207 21.9995 32.0828 22.024 29.6241C22.0659 27.7759 22.1078 25.2414 22.806 24.5862C23.5043 23.931 26.053 23.8724 27.9244 23.8448C30.4138 23.8069 32.9834 23.769 35.3575 22.8103C37.8015 21.8069 39.8021 19.9241 41.5582 18.2621C42.7837 17.0552 44.6621 15.2759 45.5 15.2759C46.3379 15.2759 48.2163 17.0552 49.4592 18.231C51.2049 19.8931 53.202 21.7759 55.6599 22.7793C58.0341 23.7517 60.6037 23.7897 63.0931 23.8138C64.9644 23.8414 67.5306 23.8793 68.2114 24.5552C68.8922 25.231 68.9341 27.7621 68.9621 29.6103C69.0005 32.069 69.0389 34.6069 70.0095 36.9517C71.0255 39.3655 72.9318 41.3414 74.6146 43.0759C75.8052 44.3035 77.6067 46.1586 77.6067 46.9862C77.6067 47.8138 75.8191 49.6828 74.6286 50.9103ZM51.0862 64.931C51.0862 66.0222 50.7586 67.0889 50.1448 67.9963C49.5309 68.9036 48.6585 69.6107 47.6378 70.0283C46.617 70.4459 45.4938 70.5551 44.4102 70.3423C43.3266 70.1294 42.3312 69.6039 41.55 68.8323C40.7687 68.0607 40.2367 67.0776 40.0211 66.0074C39.8056 64.9372 39.9162 63.8278 40.339 62.8197C40.7618 61.8115 41.4778 60.9499 42.3965 60.3436C43.3151 59.7374 44.3952 59.4138 45.5 59.4138C46.9816 59.4138 48.4024 59.9951 49.45 61.0298C50.4977 62.0644 51.0862 63.4678 51.0862 64.931ZM60.8621 40.1034C60.8621 46.4379 56.0824 51.7862 49.5954 53.4C49.3771 54.3993 48.7919 55.2835 47.9527 55.8819C47.1135 56.4804 46.0797 56.7509 45.0506 56.6413C44.0215 56.5316 43.0699 56.0496 42.3792 55.2881C41.6886 54.5266 41.3078 53.5396 41.3103 52.5172V49.7586C41.3103 48.6612 41.7518 47.6087 42.5375 46.8327C43.3232 46.0566 44.3888 45.6207 45.5 45.6207C49.3405 45.6207 52.4828 43.1448 52.4828 40.1034C52.4828 37.0621 49.3405 34.5862 45.5 34.5862C41.6595 34.5862 38.5172 37.0621 38.5172 40.1034V41.4828C38.5172 42.5802 38.0758 43.6327 37.2901 44.4087C36.5044 45.1847 35.4388 45.6207 34.3276 45.6207C33.2164 45.6207 32.1508 45.1847 31.3651 44.4087C30.5793 43.6327 30.1379 42.5802 30.1379 41.4828V40.1034C30.1379 32.4966 37.0299 26.3103 45.5 26.3103C53.9701 26.3103 60.8621 32.4966 60.8621 40.1034Z" fill="#FFD863"/>
<path d="M74.9875 51.2584L74.9864 51.2596C73.2932 52.9944 71.458 54.9018 70.4847 57.2275L70.4845 57.2281C69.5438 59.4683 69.5006 61.9077 69.476 64.3808L69.476 64.3834L69.4758 64.3942C69.462 65.3112 69.4451 66.4251 69.3442 67.3961C69.2935 67.8835 69.2201 68.352 69.1092 68.7512C69.0026 69.135 68.8432 69.5249 68.5758 69.7877C68.3101 70.0488 67.9177 70.2047 67.5306 70.3093C67.1278 70.4182 66.6548 70.4907 66.162 70.541C65.1764 70.6414 64.0455 70.6586 63.1144 70.6724M74.9875 51.2584L63.0971 70.1726C60.6108 70.2104 58.0449 70.2495 55.6739 71.2069M74.9875 51.2584C75.5813 50.6462 76.3397 49.8581 76.9502 49.1159C77.2551 48.7453 77.5333 48.3741 77.7377 48.0328C77.9293 47.7131 78.1067 47.3395 78.1067 46.9862C78.1067 46.6315 77.9272 46.2581 77.7343 45.9396C77.5283 45.5996 77.2481 45.2301 76.9416 44.8614C76.3335 44.13 75.5797 43.3528 74.9899 42.7446L74.9735 42.7278L74.9735 42.7277C73.2797 40.9819 71.4445 39.0714 70.4709 36.7591C69.5434 34.5174 69.5007 32.0778 69.462 29.6028M74.9875 51.2584L35.1691 22.3472M63.1144 70.6724L63.107 70.1724L63.1146 70.6724C63.1146 70.6724 63.1145 70.6724 63.1144 70.6724ZM63.1144 70.6724C60.609 70.7105 58.1356 70.7526 55.8628 71.6698M55.8628 71.6698C55.8631 71.6697 55.8635 71.6696 55.8638 71.6694L55.6739 71.2069M55.8628 71.6698C55.8622 71.6701 55.8617 71.6703 55.8611 71.6705L55.6739 71.2069M55.8628 71.6698C53.5194 72.6323 51.584 74.4459 49.8169 76.1183L49.8035 76.131C49.1802 76.721 48.3882 77.4706 47.6445 78.074C47.2704 78.3776 46.896 78.6545 46.552 78.8579C46.2289 79.049 45.8539 79.2241 45.5 79.2241C45.1462 79.2241 44.7712 79.049 44.4483 78.8582C44.1045 78.655 43.7306 78.3786 43.3573 78.0758C42.6169 77.4754 41.8301 76.731 41.2143 76.1484L41.1972 76.1322L41.196 76.1311C39.4401 74.4593 37.508 72.6458 35.1511 71.6836L35.1506 71.6834C32.8791 70.753 30.4058 70.7105 27.9021 70.6862L27.8996 70.6862L27.8891 70.686C26.9604 70.6723 25.8332 70.6557 24.8509 70.5561C24.3578 70.5061 23.8845 70.4337 23.4816 70.3245C23.0946 70.2197 22.7016 70.063 22.4363 69.7997C22.1712 69.5365 22.0125 69.1471 21.9062 68.7633C21.7956 68.3642 21.722 67.896 21.6711 67.4088C21.5693 66.4345 21.5519 65.3169 21.538 64.3975L55.6739 71.2069M16.0125 42.7416L16.0136 42.7404C17.7069 41.0056 19.542 39.0982 20.5153 36.7725L20.5155 36.7719C21.4562 34.5317 21.4994 32.0923 21.524 29.6192L21.5241 29.6128L21.5241 29.6128C21.525 29.5707 21.526 29.5281 21.527 29.4852C21.547 28.5931 21.5708 27.5314 21.6718 26.6037C21.7247 26.1173 21.8006 25.6497 21.9145 25.2521C22.0239 24.8702 22.188 24.4805 22.4639 24.2216C22.7313 23.9707 23.1209 23.8184 23.5079 23.7148C23.9101 23.6072 24.3816 23.5342 24.8734 23.4829C25.8573 23.3802 26.9839 23.3586 27.917 23.3449M16.0125 42.7416L27.917 23.3449M16.0125 42.7416L15.996 42.7586C15.4061 43.3668 14.6525 44.1439 14.0444 44.8752C13.7379 45.2439 13.4578 45.6134 13.2518 45.9534C13.0588 46.2718 12.8793 46.6453 12.8793 47C12.8793 47.3547 13.0589 47.7282 13.252 48.0469C13.4583 48.3871 13.7388 48.7571 14.0463 49.1267C14.6573 49.8612 15.4164 50.6435 16.0137 51.2591L16.0265 51.2723C17.7203 53.0181 19.5555 54.9287 20.5291 57.2409M16.0125 42.7416L20.5291 57.2409M27.917 23.3449C30.4226 23.3067 32.8962 23.2646 35.1691 22.3472M27.917 23.3449L35.1691 22.3472M35.1691 22.3472C37.5107 21.3853 39.4449 19.5737 41.211 17.9023C41.824 17.2986 42.6124 16.5397 43.3577 15.9295C43.7304 15.6243 44.104 15.3466 44.4479 15.1427C44.771 14.9511 45.146 14.7759 45.5 14.7759C45.8538 14.7759 46.2288 14.951 46.5517 15.1418C46.8955 15.345 47.2694 15.6214 47.6427 15.9242C48.3831 16.5247 49.17 17.2691 49.7858 17.8517L49.8028 17.8678L49.804 17.8689C51.5599 19.5407 53.492 21.3542 55.8489 22.3164L55.8494 22.3166C58.1209 23.247 60.5942 23.2895 63.0979 23.3138L63.1004 23.3138L63.111 23.314C64.0397 23.3277 65.1668 23.3443 66.1492 23.4439C66.6422 23.4939 67.1155 23.5663 67.5184 23.6755C67.9054 23.7803 68.2984 23.937 68.5637 24.2003C68.8288 24.4635 68.9875 24.8529 69.0938 25.2367C69.2044 25.6358 69.278 26.104 69.3289 26.5912C69.4307 27.5656 69.4481 28.6833 69.462 29.6028M69.462 29.6028L68.9621 29.6103L69.462 29.6025C69.462 29.6026 69.462 29.6027 69.462 29.6028ZM20.5291 57.2409C21.4566 59.4826 21.4993 61.9222 21.538 64.3972L20.5291 57.2409ZM77.3027 33.9933L77.3028 33.9935C77.5427 34.565 78.0079 35.1888 78.5353 35.8032C79.0696 36.4257 79.705 37.0802 80.3169 37.7104C82.7161 40.1811 85.5 43.08 85.5 47C85.5 50.92 82.7161 53.8189 80.3169 56.2896C79.705 56.9198 79.0696 57.5743 78.5353 58.1968C78.0079 58.8112 77.5427 59.435 77.3028 60.0065L77.3027 60.0067C77.0833 60.5302 76.9808 61.2779 76.9243 62.0443C76.8669 62.8243 76.8537 63.6914 76.8415 64.4865L76.8415 64.4909C76.7779 67.9778 76.7005 72.0442 73.7847 74.9272C70.8669 77.8123 66.7401 77.8961 63.2113 77.9483L63.2053 77.9484C62.4002 77.9604 61.5228 77.9735 60.7337 78.0302C59.958 78.0859 59.2033 78.187 58.6757 78.4027L58.6755 78.4028C58.0987 78.639 57.4678 79.0977 56.8455 79.6188C56.2153 80.1464 55.5526 80.7739 54.9146 81.3784C52.4156 83.7454 49.4596 86.5 45.5 86.5C41.5402 86.5 38.5848 83.7456 36.0848 81.395C35.4469 80.7907 34.7845 80.1635 34.1545 79.636C33.5322 79.115 32.9013 78.6563 32.3245 78.4201L32.3243 78.42C31.7967 78.2042 31.042 78.1031 30.2663 78.0474C29.4772 77.9907 28.5998 77.9777 27.7947 77.9657L27.7901 77.9656C27.79 77.9656 27.7899 77.9656 27.7897 77.9656C24.259 77.9028 20.1362 77.8261 17.2149 74.9441C14.2961 72.0646 14.2115 67.9944 14.1586 64.5097L14.1586 64.5096L14.1585 64.5036C14.1463 63.7086 14.1331 62.8415 14.0757 62.0616C14.0192 61.2952 13.9167 60.5474 13.6973 60.0239L13.6972 60.0237C13.4573 59.4523 12.9921 58.8284 12.4647 58.214C11.9306 57.5917 11.2953 56.9373 10.6835 56.3073C8.28378 53.8185 5.5 50.903 5.5 47C5.5 43.097 8.28436 40.1807 10.683 37.7104C11.295 37.0802 11.9304 36.4257 12.4647 35.8032C12.9921 35.1888 13.4573 34.565 13.6972 33.9935L13.6973 33.9933C13.9167 33.4698 14.0192 32.7221 14.0757 31.9557C14.1331 31.1758 14.1463 30.3087 14.1585 29.5136L14.1585 29.5101C14.1585 29.5097 14.1585 29.5093 14.1585 29.5089C14.2291 26.0228 14.3131 21.9692 17.223 19.0789C20.1184 16.203 24.2145 16.1222 27.7357 16.0527L27.7887 16.0517L27.7911 16.0516L27.7945 16.0516C28.5997 16.0396 29.4771 16.0265 30.2663 15.9698C31.042 15.9141 31.7967 15.813 32.3243 15.5973L32.3245 15.5972C32.9013 15.361 33.5322 14.9023 34.1545 14.3812C34.7847 13.8536 35.4473 13.2261 36.0854 12.6216C38.5848 10.2542 41.5232 7.5 45.5 7.5C49.4768 7.5 52.4152 10.2542 54.9145 12.6216C55.5526 13.2261 56.2153 13.8536 56.8455 14.3812C57.4678 14.9023 58.0987 15.361 58.6755 15.5972L58.6757 15.5973C59.2033 15.813 59.958 15.9141 60.7337 15.9698C61.5229 16.0265 62.4003 16.0396 63.2055 16.0516L63.2099 16.0516C63.2101 16.0517 63.2104 16.0517 63.2107 16.0517C66.7414 16.1144 70.8639 16.1913 73.7851 19.0732C76.7039 21.9526 76.7885 26.0228 76.8414 29.5076L76.8415 29.5135C76.8537 30.3086 76.8669 31.1757 76.9243 31.9557C76.9808 32.7221 77.0833 33.4698 77.3027 33.9933ZM49.4747 52.9148L49.1732 52.9898L49.1069 53.2933C48.9153 54.1703 48.4014 54.9478 47.6624 55.4749C46.9232 56.002 46.0117 56.2409 45.1036 56.1441C44.1956 56.0473 43.3572 55.6221 42.7496 54.9522C42.1422 54.2824 41.8082 53.4154 41.8103 52.5185V52.5172V49.7586C41.8103 48.7958 42.1975 47.8711 42.8888 47.1884C43.5803 46.5055 44.5195 46.1207 45.5 46.1207C49.5 46.1207 52.9828 43.5247 52.9828 40.1034C52.9828 36.6822 49.5 34.0862 45.5 34.0862C41.5 34.0862 38.0172 36.6822 38.0172 40.1034V41.4828C38.0172 42.4456 37.63 43.3702 36.9388 44.053C36.2473 44.7359 35.3081 45.1207 34.3276 45.1207C33.347 45.1207 32.4079 44.7359 31.7164 44.053C31.0251 43.3702 30.6379 42.4456 30.6379 41.4828V40.1034C30.6379 32.822 37.254 26.8103 45.5 26.8103C53.746 26.8103 60.3621 32.822 60.3621 40.1034C60.3621 46.1696 55.7787 51.3465 49.4747 52.9148ZM50.5862 64.931C50.5862 65.922 50.2887 66.8912 49.7306 67.7161C49.1725 68.5411 48.3785 69.185 47.4484 69.5655C46.5183 69.9461 45.4944 70.0457 44.5066 69.8516C43.5188 69.6576 42.6122 69.1787 41.9013 68.4766C41.1904 67.7745 40.7071 66.8807 40.5113 65.9087C40.3155 64.9367 40.4159 63.9291 40.8001 63.0131C41.1843 62.097 41.8354 61.313 42.6719 60.7609C43.5085 60.2088 44.4927 59.9138 45.5 59.9138C46.8509 59.9138 48.1453 60.4439 49.0987 61.3855C50.0519 62.3269 50.5862 63.6024 50.5862 64.931Z" stroke="#DCB84C"/>
</g>
</g>
<defs>
<filter id="filter0_d_469_985" x="1" y="7" width="89" height="88" filterUnits="userSpaceOnUse" color-interpolation-filters="sRGB">
<feFlood flood-opacity="0" result="BackgroundImageFix"/>
<feColorMatrix in="SourceAlpha" type="matrix" values="0 0 0 0 0 0 0 0 0 0 0 0 0 0 0 0 0 0 127 0" result="hardAlpha"/>
<feOffset dy="4"/>
<feGaussianBlur stdDeviation="2"/>
<feComposite in2="hardAlpha" operator="out"/>
<feColorMatrix type="matrix" values="0 0 0 0 0 0 0 0 0 0 0 0 0 0 0 0 0 0 0.25 0"/>
<feBlend mode="normal" in2="BackgroundImageFix" result="effect1_dropShadow_469_985"/>
<feBlend mode="normal" in="SourceGraphic" in2="effect1_dropShadow_469_985" result="shape"/>
</filter>
<clipPath id="clip0_469_985">
<rect width="91" height="92" fill="white"/>
</clipPath>
</defs>
</svg>
