<svg width="32" height="32" viewBox="0 0 32 32" fill="none" xmlns="http://www.w3.org/2000/svg">
<path fill-rule="evenodd" clip-rule="evenodd" d="M19.0391 2.86917C18.5458 2.6665 17.9191 2.6665 16.6671 2.6665C15.4151 2.6665 14.7898 2.6665 14.2951 2.86917C13.6384 3.13879 13.1156 3.65819 12.8418 4.31317C12.7164 4.6105 12.6684 4.9585 12.6484 5.46384C12.6395 5.82998 12.5374 6.18779 12.3517 6.50346C12.166 6.81913 11.9028 7.08221 11.5871 7.26784C11.2654 7.44664 10.9038 7.54136 10.5358 7.54323C10.1678 7.54509 9.80522 7.45404 9.48175 7.2785C9.03109 7.04117 8.70442 6.9105 8.38175 6.86784C7.67583 6.77515 6.96185 6.9649 6.39509 7.39584C5.97109 7.7185 5.65775 8.25717 5.03242 9.33317C4.40575 10.4092 4.09375 10.9465 4.02309 11.4732C3.92975 12.1745 4.12175 12.8838 4.55642 13.4452C4.75375 13.7012 5.03242 13.9158 5.46309 14.1852C6.09909 14.5812 6.50709 15.2558 6.50709 15.9998C6.50709 16.7438 6.09909 17.4185 5.46442 17.8132C5.03242 18.0838 4.75375 18.2985 4.55509 18.5545C4.34053 18.8318 4.18305 19.1488 4.09173 19.4873C4.00042 19.8257 3.97709 20.179 4.02309 20.5265C4.09375 21.0518 4.40575 21.5905 5.03242 22.6665C5.65909 23.7425 5.97109 24.2798 6.39509 24.6038C6.96042 25.0345 7.67509 25.2238 8.38175 25.1318C8.70442 25.0892 9.03109 24.9585 9.48175 24.7212C9.80539 24.5454 10.1682 24.4542 10.5365 24.4561C10.9047 24.4579 11.2666 24.5528 11.5884 24.7318C12.2364 25.1052 12.6204 25.7918 12.6484 26.5358C12.6684 27.0425 12.7164 27.3892 12.8418 27.6865C13.1138 28.3398 13.6364 28.8598 14.2951 29.1305C14.7884 29.3332 15.4151 29.3332 16.6671 29.3332C17.9191 29.3332 18.5458 29.3332 19.0391 29.1305C19.6958 28.8609 20.2186 28.3415 20.4924 27.6865C20.6178 27.3892 20.6658 27.0425 20.6858 26.5358C20.7124 25.7918 21.0978 25.1038 21.7471 24.7318C22.0688 24.553 22.4304 24.4583 22.7984 24.4564C23.1664 24.4546 23.529 24.5456 23.8524 24.7212C24.3031 24.9585 24.6298 25.0892 24.9524 25.1318C25.6591 25.2252 26.3738 25.0345 26.9391 24.6038C27.3631 24.2812 27.6764 23.7425 28.3018 22.6665C28.9284 21.5905 29.2404 21.0532 29.3111 20.5265C29.3569 20.1789 29.3334 19.8256 29.2418 19.4871C29.1503 19.1486 28.9925 18.8317 28.7778 18.5545C28.5804 18.2985 28.3018 18.0838 27.8711 17.8145C27.2351 17.4185 26.8271 16.7438 26.8271 15.9998C26.8271 15.2558 27.2351 14.5812 27.8698 14.1865C28.3018 13.9158 28.5804 13.7012 28.7791 13.4452C28.9936 13.1679 29.1511 12.8509 29.2424 12.5124C29.3338 12.1739 29.3571 11.8207 29.3111 11.4732C29.2404 10.9478 28.9284 10.4092 28.3018 9.33317C27.6751 8.25717 27.3631 7.71984 26.9391 7.39584C26.3723 6.9649 25.6583 6.77515 24.9524 6.86784C24.6298 6.9105 24.3031 7.04117 23.8524 7.2785C23.5288 7.45428 23.166 7.54546 22.7977 7.54359C22.4294 7.54173 22.0676 7.44688 21.7458 7.26784C21.4303 7.08205 21.1674 6.8189 20.9819 6.50324C20.7964 6.18758 20.6945 5.82985 20.6858 5.46384C20.6658 4.95717 20.6178 4.6105 20.4924 4.31317C20.3569 3.98882 20.1588 3.69435 19.9094 3.44658C19.66 3.19881 19.3643 3.00261 19.0391 2.86917Z" fill="#6362E3"/>
<path d="M20.6971 16C20.6971 18.2093 18.8917 20 16.6664 20C14.4397 20 12.6357 18.2093 12.6357 16C12.6357 13.7907 14.4397 12 16.6664 12C18.8931 12 20.6971 13.7907 20.6971 16Z" fill="#EAE9EA"/>
</svg>
