<svg width="144" height="144" viewBox="0 0 144 144" fill="none" xmlns="http://www.w3.org/2000/svg">
<path d="M110.25 0H33.75C15.1104 0 0 15.1104 0 33.75V110.25C0 128.89 15.1104 144 33.75 144H110.25C128.89 144 144 128.89 144 110.25V33.75C144 15.1104 128.89 0 110.25 0Z" fill="white"/>
<path d="M110.25 0H33.75C15.1104 0 0 15.1104 0 33.75V110.25C0 128.89 15.1104 144 33.75 144H110.25C128.89 144 144 128.89 144 110.25V33.75C144 15.1104 128.89 0 110.25 0Z" fill="#0A66C2"/>
<path d="M103.902 122.448H120.367C120.963 122.448 121.535 122.211 121.957 121.789C122.379 121.367 122.616 120.795 122.617 120.198L122.625 85.4122C122.625 67.2306 118.707 53.2553 97.4599 53.2553C89.3829 52.9549 81.7661 57.1185 77.6559 64.071C77.6358 64.1048 77.6053 64.131 77.5688 64.1458C77.5324 64.1606 77.4922 64.163 77.4542 64.1527C77.4163 64.1425 77.3828 64.1201 77.3588 64.089C77.3347 64.0578 77.3216 64.0197 77.3213 63.9804V57.1838C77.3213 56.587 77.0842 56.0147 76.6622 55.5928C76.2403 55.1708 75.668 54.9338 75.0713 54.9338H59.4467C58.8499 54.9338 58.2777 55.1708 57.8557 55.5928C57.4337 56.0147 57.1967 56.587 57.1967 57.1838V120.195C57.1967 120.792 57.4337 121.364 57.8557 121.786C58.2777 122.208 58.8499 122.445 59.4467 122.445H75.9099C76.5067 122.445 77.079 122.208 77.5009 121.786C77.9229 121.364 78.1599 120.792 78.1599 120.195V89.0477C78.1599 80.2406 79.8306 71.7114 90.7493 71.7114C101.513 71.7114 101.652 81.7892 101.652 89.6181V120.198C101.652 120.795 101.889 121.367 102.311 121.789C102.733 122.211 103.305 122.448 103.902 122.448ZM21.375 33.5407C21.375 40.2142 26.8689 45.7054 33.543 45.7054C40.2154 45.7048 45.7059 40.2103 45.7059 33.5379C45.7048 26.8656 40.2137 21.375 33.5407 21.375C26.8661 21.375 21.375 26.8672 21.375 33.5407ZM25.2894 122.448H41.7746C42.3714 122.448 42.9437 122.211 43.3656 121.789C43.7876 121.367 44.0246 120.795 44.0246 120.198V57.1838C44.0246 56.587 43.7876 56.0147 43.3656 55.5928C42.9437 55.1708 42.3714 54.9338 41.7746 54.9338H25.2894C24.6927 54.9338 24.1204 55.1708 23.6984 55.5928C23.2765 56.0147 23.0394 56.587 23.0394 57.1838V120.198C23.0394 120.795 23.2765 121.367 23.6984 121.789C24.1204 122.211 24.6927 122.448 25.2894 122.448Z" fill="white"/>
</svg>
