<svg width="144" height="144" viewBox="0 0 144 144" fill="none" xmlns="http://www.w3.org/2000/svg">
<path d="M110.25 0H33.75C15.1104 0 0 15.1104 0 33.75V110.25C0 128.89 15.1104 144 33.75 144H110.25C128.89 144 144 128.89 144 110.25V33.75C144 15.1104 128.89 0 110.25 0Z" fill="url(#paint0_radial_463_3163)"/>
<path d="M110.25 0H33.75C15.1104 0 0 15.1104 0 33.75V110.25C0 128.89 15.1104 144 33.75 144H110.25C128.89 144 144 128.89 144 110.25V33.75C144 15.1104 128.89 0 110.25 0Z" fill="url(#paint1_radial_463_3163)"/>
<path d="M72.0051 15.75C56.7287 15.75 54.8111 15.8169 48.8115 16.0898C42.8231 16.3643 38.7354 17.3121 35.1591 18.7031C31.4589 20.1398 28.3208 22.0618 25.1944 25.1893C22.0652 28.3162 20.1431 31.4544 18.702 35.1529C17.307 38.7304 16.3581 42.8197 16.0886 48.8053C15.8203 54.8055 15.75 56.7236 15.75 72.0006C15.75 87.2775 15.8175 89.1889 16.0898 95.1885C16.3654 101.177 17.3132 105.265 18.7031 108.841C20.1409 112.541 22.0629 115.679 25.1904 118.806C28.3163 121.935 31.4544 123.861 35.1518 125.298C38.7309 126.689 42.8192 127.637 48.8064 127.911C54.8066 128.184 56.7225 128.251 71.9983 128.251C87.2764 128.251 89.1878 128.184 95.1874 127.911C101.176 127.637 105.268 126.689 108.847 125.298C112.546 123.861 115.679 121.935 118.804 118.806C121.934 115.679 123.855 112.541 125.297 108.843C126.679 105.265 127.629 101.176 127.91 95.1896C128.18 89.19 128.25 87.2775 128.25 72.0006C128.25 56.7236 128.18 54.8066 127.91 48.8064C127.629 42.8181 126.679 38.7309 125.297 35.1546C123.855 31.4544 121.934 28.3162 118.804 25.1893C115.676 22.0607 112.547 20.1386 108.844 18.7037C105.258 17.3121 101.168 16.3637 95.1795 16.0898C89.1793 15.8169 87.2691 15.75 71.9876 15.75H72.0051ZM66.9589 25.8868C68.4568 25.8846 70.128 25.8868 72.0051 25.8868C87.0244 25.8868 88.8041 25.9408 94.7351 26.2103C100.219 26.4611 103.196 27.3774 105.179 28.1475C107.804 29.1668 109.676 30.3857 111.643 32.355C113.612 34.3237 114.83 36.1986 115.853 38.8237C116.623 40.8037 117.54 43.7805 117.79 49.2649C118.059 55.1948 118.118 56.9756 118.118 71.9876C118.118 86.9996 118.059 88.7811 117.79 94.7104C117.539 100.195 116.623 103.172 115.853 105.152C114.833 107.777 113.612 109.646 111.643 111.614C109.675 113.583 107.805 114.801 105.179 115.821C103.199 116.594 100.219 117.509 94.7351 117.759C88.8053 118.029 87.0244 118.087 72.0051 118.087C56.9852 118.087 55.2049 118.029 49.2756 117.759C43.7912 117.506 40.8144 116.59 38.8299 115.82C36.2053 114.8 34.3299 113.582 32.3612 111.613C30.3924 109.644 29.1741 107.774 28.152 105.148C27.3819 103.167 26.4645 100.19 26.2148 94.7059C25.9453 88.776 25.8913 86.9951 25.8913 71.9736C25.8913 56.9526 25.9453 55.1807 26.2148 49.2508C26.4656 43.7664 27.3819 40.7897 28.152 38.8069C29.1718 36.1817 30.3924 34.3069 32.3618 32.3381C34.3305 30.3694 36.2053 29.1504 38.8305 28.1289C40.8133 27.3555 43.7912 26.4414 49.2756 26.1894C54.4646 25.9549 56.4756 25.8846 66.9589 25.8727V25.8868ZM102.031 35.2266C98.3048 35.2266 95.2813 38.2472 95.2813 41.9743C95.2813 45.7009 98.3048 48.7243 102.031 48.7243C105.758 48.7243 108.781 45.7009 108.781 41.9743C108.781 38.2478 105.758 35.2243 102.031 35.2243V35.2266ZM72.0051 43.1134C56.0526 43.1134 43.1184 56.0475 43.1184 72.0006C43.1184 87.9536 56.0526 100.882 72.0051 100.882C87.9581 100.882 100.888 87.9536 100.888 72.0006C100.888 56.0481 87.957 43.1134 72.0039 43.1134H72.0051ZM72.0051 53.2502C82.3601 53.2502 90.7554 61.6444 90.7554 72.0006C90.7554 82.3556 82.3601 90.7509 72.0051 90.7509C61.6494 90.7509 53.2553 82.3556 53.2553 72.0006C53.2553 61.6444 61.6494 53.2502 72.0051 53.2502Z" fill="white"/>
<defs>
<radialGradient id="paint0_radial_463_3163" cx="0" cy="0" r="1" gradientUnits="userSpaceOnUse" gradientTransform="translate(38.25 155.091) rotate(-90) scale(142.715 132.736)">
<stop stop-color="#FFDD55"/>
<stop offset="0.1" stop-color="#FFDD55"/>
<stop offset="0.5" stop-color="#FF543E"/>
<stop offset="1" stop-color="#C837AB"/>
</radialGradient>
<radialGradient id="paint1_radial_463_3163" cx="0" cy="0" r="1" gradientUnits="userSpaceOnUse" gradientTransform="translate(-24.1206 10.3731) rotate(78.681) scale(63.7943 262.962)">
<stop stop-color="#3771C8"/>
<stop offset="0.128" stop-color="#3771C8"/>
<stop offset="1" stop-color="#6600FF" stop-opacity="0"/>
</radialGradient>
</defs>
</svg>
