<svg width="22" height="20" viewBox="0 0 22 20" fill="none" xmlns="http://www.w3.org/2000/svg">
<path d="M11.11 20C10.7983 20 10.5373 19.8933 10.3268 19.68C10.1163 19.4667 10.0107 19.203 10.01 18.8889C10.01 18.7593 10.0375 18.6248 10.0925 18.4856C10.1475 18.3463 10.23 18.2215 10.34 18.1111L15.4275 12.9722L14.63 12.1667L9.57 17.3056C9.46 17.4167 9.34083 17.5 9.2125 17.5556C9.08416 17.6111 8.94666 17.6389 8.8 17.6389C8.48833 17.6389 8.22727 17.5326 8.0168 17.32C7.80633 17.1074 7.70073 16.8433 7.7 16.5278C7.7 16.3426 7.7275 16.1896 7.7825 16.0689C7.8375 15.9481 7.91083 15.8419 8.0025 15.75L13.09 10.6111L12.32 9.83334L7.2325 14.9444C7.1225 15.0556 7.00333 15.1389 6.875 15.1944C6.74667 15.25 6.6 15.2778 6.435 15.2778C6.14167 15.2778 5.885 15.1667 5.665 14.9444C5.445 14.7222 5.335 14.463 5.335 14.1667C5.335 14.0185 5.3625 13.8796 5.4175 13.75C5.4725 13.6204 5.555 13.5 5.665 13.3889L10.7525 8.25L9.955 7.47223L4.895 12.6111C4.80333 12.7037 4.69333 12.7778 4.565 12.8333C4.43667 12.8889 4.28083 12.9167 4.0975 12.9167C3.78583 12.9167 3.5244 12.81 3.3132 12.5967C3.102 12.3833 2.99677 12.1196 2.9975 11.8056C2.9975 11.6574 3.025 11.5185 3.08 11.3889C3.135 11.2593 3.2175 11.1389 3.3275 11.0278L9.46 4.83334L13.585 9.02778C13.7867 9.23148 14.025 9.39371 14.3 9.51445C14.575 9.63519 14.85 9.69519 15.125 9.69445C15.7117 9.69445 16.225 9.4863 16.665 9.07C17.105 8.65371 17.325 8.12111 17.325 7.47223C17.325 7.21297 17.2792 6.94445 17.1875 6.66667C17.0958 6.38889 16.9308 6.12963 16.6925 5.88889L11.77 0.916671C12.0817 0.620375 12.43 0.393708 12.815 0.236671C13.2 0.0796343 13.585 0.00074539 13.97 4.649e-06C14.4467 4.649e-06 14.8867 0.0788936 15.29 0.236671C15.6933 0.394449 16.06 0.639634 16.39 0.972227L21.0375 5.69445C21.3675 6.02778 21.6106 6.39815 21.7668 6.80556C21.923 7.21297 22.0007 7.68519 22 8.22223C22 8.5926 21.9175 8.96778 21.7525 9.34778C21.5875 9.72778 21.3492 10.0748 21.0375 10.3889L11.88 19.6667C11.7333 19.8148 11.605 19.9074 11.495 19.9444C11.385 19.9815 11.2567 20 11.11 20ZM1.6775 11.1111L0.9625 10.3889C0.650833 10.0926 0.4125 9.74074 0.2475 9.33334C0.0824999 8.92593 0 8.5 0 8.05556C0 7.57408 0.0916666 7.12963 0.275 6.72223C0.458333 6.31482 0.6875 5.97223 0.9625 5.69445L5.61 0.972227C5.90333 0.67593 6.25167 0.439634 6.655 0.263338C7.05833 0.0870417 7.4525 -0.000736092 7.8375 4.649e-06C8.3325 4.649e-06 8.7725 0.0696342 9.1575 0.208893C9.5425 0.348153 9.91833 0.602597 10.285 0.972227L15.9225 6.66667C16.0325 6.77778 16.115 6.89815 16.17 7.02778C16.225 7.15741 16.2525 7.2963 16.2525 7.44445C16.2525 7.74074 16.1425 8 15.9225 8.22223C15.7025 8.44445 15.4458 8.55556 15.1525 8.55556C14.9875 8.55556 14.85 8.5326 14.74 8.48667C14.63 8.44074 14.5108 8.3526 14.3825 8.22223L9.4325 3.27778L1.6775 11.1111Z" fill="#434343"/>
</svg>
