<svg width="52" height="52" viewBox="0 0 52 52" fill="none" xmlns="http://www.w3.org/2000/svg">
<path d="M39.8125 0.5H12.1875C5.45653 0.5 0 5.8516 0 12.4531V39.5469C0 46.1484 5.45653 51.5 12.1875 51.5H39.8125C46.5435 51.5 52 46.1484 52 39.5469V12.4531C52 5.8516 46.5435 0.5 39.8125 0.5Z" fill="white"/>
<path d="M39.8125 0.5H12.1875C5.45653 0.5 0 5.8516 0 12.4531V39.5469C0 46.1484 5.45653 51.5 12.1875 51.5H39.8125C46.5435 51.5 52 46.1484 52 39.5469V12.4531C52 5.8516 46.5435 0.5 39.8125 0.5Z" fill="#0A66C2"/>
<path d="M37.5202 43.8669H43.4657C43.6812 43.8669 43.8878 43.783 44.0402 43.6336C44.1925 43.4842 44.2781 43.2816 44.2782 43.0703L44.2812 30.7502C44.2812 24.3108 42.8665 19.3612 35.1938 19.3612C32.2772 19.2549 29.5267 20.7295 28.0424 23.1918C28.0352 23.2038 28.0241 23.2131 28.011 23.2183C27.9978 23.2235 27.9833 23.2244 27.9696 23.2208C27.9559 23.2171 27.9438 23.2092 27.9351 23.1982C27.9264 23.1872 27.9217 23.1737 27.9216 23.1597V20.7526C27.9216 20.5412 27.836 20.3385 27.6836 20.1891C27.5312 20.0397 27.3246 19.9557 27.1091 19.9557H21.4669C21.2514 19.9557 21.0447 20.0397 20.8923 20.1891C20.74 20.3385 20.6544 20.5412 20.6544 20.7526V43.0691C20.6544 43.2804 20.74 43.4831 20.8923 43.6325C21.0447 43.782 21.2514 43.8659 21.4669 43.8659H27.4119C27.6274 43.8659 27.8341 43.782 27.9864 43.6325C28.1388 43.4831 28.2244 43.2804 28.2244 43.0691V32.0377C28.2244 28.9186 28.8277 25.8978 32.7706 25.8978C36.6574 25.8978 36.7077 29.467 36.7077 32.2397V43.0701C36.7077 43.2814 36.7933 43.4841 36.9457 43.6335C37.0981 43.783 37.3047 43.8669 37.5202 43.8669ZM7.71875 12.379C7.71875 14.7425 9.70267 16.6873 12.1128 16.6873C14.5222 16.6871 16.5049 14.7412 16.5049 12.378C16.5045 10.0149 14.5216 8.07031 12.1119 8.07031C9.70166 8.07031 7.71875 10.0155 7.71875 12.379ZM9.1323 43.8669H15.0853C15.3008 43.8669 15.5074 43.783 15.6598 43.6335C15.8122 43.4841 15.8978 43.2814 15.8978 43.0701V20.7526C15.8978 20.5412 15.8122 20.3385 15.6598 20.1891C15.5074 20.0397 15.3008 19.9557 15.0853 19.9557H9.1323C8.91681 19.9557 8.71015 20.0397 8.55777 20.1891C8.4054 20.3385 8.3198 20.5412 8.3198 20.7526V43.0701C8.3198 43.2814 8.4054 43.4841 8.55777 43.6335C8.71015 43.783 8.91681 43.8669 9.1323 43.8669Z" fill="white"/>
</svg>
