<svg width="102" height="105" viewBox="0 0 102 105" fill="none" xmlns="http://www.w3.org/2000/svg">
<g filter="url(#filter0_d_463_3525)">
<path d="M35.0625 32.8125C34.2171 32.8125 33.4064 33.1582 32.8086 33.7736C32.2108 34.3889 31.875 35.2235 31.875 36.0938C31.875 36.964 32.2108 37.7986 32.8086 38.4139C33.4064 39.0293 34.2171 39.375 35.0625 39.375H66.9375C67.7829 39.375 68.5936 39.0293 69.1914 38.4139C69.7892 37.7986 70.125 36.964 70.125 36.0938C70.125 35.2235 69.7892 34.3889 69.1914 33.7736C68.5936 33.1582 67.7829 32.8125 66.9375 32.8125H35.0625ZM35.0625 49.2188C34.2171 49.2188 33.4064 49.5645 32.8086 50.1798C32.2108 50.7952 31.875 51.6298 31.875 52.5C31.875 53.3702 32.2108 54.2048 32.8086 54.8202C33.4064 55.4356 34.2171 55.7812 35.0625 55.7812H54.1875C55.0329 55.7812 55.8436 55.4356 56.4414 54.8202C57.0392 54.2048 57.375 53.3702 57.375 52.5C57.375 51.6298 57.0392 50.7952 56.4414 50.1798C55.8436 49.5645 55.0329 49.2188 54.1875 49.2188H35.0625ZM35.0625 65.625C34.2171 65.625 33.4064 65.9707 32.8086 66.5861C32.2108 67.2014 31.875 68.036 31.875 68.9062C31.875 69.7765 32.2108 70.6111 32.8086 71.2264C33.4064 71.8418 34.2171 72.1875 35.0625 72.1875H66.9375C67.7829 72.1875 68.5936 71.8418 69.1914 71.2264C69.7892 70.6111 70.125 69.7765 70.125 68.9062C70.125 68.036 69.7892 67.2014 69.1914 66.5861C68.5936 65.9707 67.7829 65.625 66.9375 65.625H35.0625ZM28.6875 13.125C24.4606 13.125 20.4068 14.8535 17.418 17.9303C14.4291 21.007 12.75 25.18 12.75 29.5312V75.4688C12.75 79.82 14.4291 83.993 17.418 87.0697C20.4068 90.1465 24.4606 91.875 28.6875 91.875H73.3125C77.5394 91.875 81.5932 90.1465 84.582 87.0697C87.5709 83.993 89.25 79.82 89.25 75.4688V29.5312C89.25 25.18 87.5709 21.007 84.582 17.9303C81.5932 14.8535 77.5394 13.125 73.3125 13.125H28.6875ZM19.125 29.5312C19.125 26.9205 20.1325 24.4167 21.9258 22.5707C23.7191 20.7246 26.1514 19.6875 28.6875 19.6875H73.3125C75.8486 19.6875 78.2809 20.7246 80.0742 22.5707C81.8675 24.4167 82.875 26.9205 82.875 29.5312V75.4688C82.875 78.0795 81.8675 80.5833 80.0742 82.4293C78.2809 84.2754 75.8486 85.3125 73.3125 85.3125H28.6875C26.1514 85.3125 23.7191 84.2754 21.9258 82.4293C20.1325 80.5833 19.125 78.0795 19.125 75.4688V29.5312Z" fill="#6362E3"/>
</g>
<defs>
<filter id="filter0_d_463_3525" x="6.75" y="13.125" width="88.5" height="91.75" filterUnits="userSpaceOnUse" color-interpolation-filters="sRGB">
<feFlood flood-opacity="0" result="BackgroundImageFix"/>
<feColorMatrix in="SourceAlpha" type="matrix" values="0 0 0 0 0 0 0 0 0 0 0 0 0 0 0 0 0 0 127 0" result="hardAlpha"/>
<feOffset dy="7"/>
<feGaussianBlur stdDeviation="3"/>
<feComposite in2="hardAlpha" operator="out"/>
<feColorMatrix type="matrix" values="0 0 0 0 0 0 0 0 0 0 0 0 0 0 0 0 0 0 0.25 0"/>
<feBlend mode="normal" in2="BackgroundImageFix" result="effect1_dropShadow_463_3525"/>
<feBlend mode="normal" in="SourceGraphic" in2="effect1_dropShadow_463_3525" result="shape"/>
</filter>
</defs>
</svg>
